<?xml version="1.0" standalone="no"?>
<!DOCTYPE svg PUBLIC "-//W3C//DTD SVG 1.1//EN" "http://www.w3.org/Graphics/SVG/1.1/DTD/svg11.dtd" >
<svg xmlns="http://www.w3.org/2000/svg">
<metadata></metadata>
<defs>
<font id="cookienookieregular" horiz-adv-x="1024" >
<font-face units-per-em="2048" ascent="1638" descent="-410" />
<missing-glyph horiz-adv-x="534" />
<glyph horiz-adv-x="0" />
<glyph unicode="&#xd;" horiz-adv-x="534" />
<glyph unicode=" "  horiz-adv-x="534" />
<glyph unicode="&#x09;" horiz-adv-x="534" />
<glyph unicode="&#xa0;" horiz-adv-x="534" />
<glyph unicode="!" horiz-adv-x="614" d="M172 115q0 25 17.5 42t43.5 17q27 0 43.5 -17.5t16.5 -41.5q0 -27 -16.5 -44.5t-43.5 -17.5t-44 17.5t-17 44.5zM219 362q20 135 41 261.5t43.5 250t49 250.5t61.5 265q4 18 18 27t25 9q29 0 42 -16t9 -43q-43 -174 -83 -367.5t-67 -373.5l-43 -271q-2 -23 -18 -32 t-33 -9q-16 0 -30.5 12.5t-14.5 36.5z" />
<glyph unicode="&#x22;" horiz-adv-x="780" d="M193 1462q2 27 17 37t38 10q78 0 121 -35.5t43 -109.5q-4 -84 -31 -150.5t-55 -105.5q-12 -16 -23.5 -28.5t-26.5 -12.5q-23 0 -34 12.5t-11 30.5q0 12 5 20q51 92 68.5 146.5t17.5 81.5q0 41 -18.5 53t-65.5 10q-18 0 -31.5 11.5t-13.5 29.5zM455 1462q2 27 17 37t38 10 q78 0 121 -35.5t43 -109.5q-4 -84 -31 -150.5t-55 -105.5q-12 -16 -23.5 -28.5t-25.5 -12.5q-23 0 -34 12.5t-11 30.5q0 12 4 20q51 92 68.5 146.5t17.5 81.5q0 41 -18.5 53t-65.5 10q-18 0 -31.5 11.5t-13.5 29.5z" />
<glyph unicode="#" horiz-adv-x="1124" d="M-41 477q0 18 10.5 30.5t32.5 12.5q131 0 272 6q10 66 21.5 132.5t26.5 132.5q-139 -6 -287 -7q-29 0 -39 13.5t-10 29.5q0 18 12 31.5t35 13.5q147 0 305 7q16 78 34.5 157.5t41.5 165.5q4 18 17 26.5t24 8.5q23 0 37 -13.5t8 -43.5q-18 -72 -36 -145.5t-34 -149.5 q145 6 281 18q16 72 32.5 146.5t36.5 152.5q4 18 17.5 26.5t23.5 8.5q23 0 37 -14.5t8 -42.5q-16 -66 -31.5 -132.5t-31.5 -136.5l256 23h20q18 0 27.5 -12.5t9.5 -28.5t-9 -28.5t-32 -14.5q-76 -8 -147.5 -15.5t-143.5 -13.5q-29 -139 -49 -266q6 0 20.5 1t47.5 4l88 8 t143 14h15q16 0 29.5 -10.5t13.5 -28.5q0 -16 -11.5 -29.5t-31.5 -15.5q-174 -18 -328 -31l-47 -299q-2 -23 -14.5 -32t-28.5 -9t-30.5 12.5t-14.5 36.5q10 74 21 143.5t22 139.5q-70 -4 -138.5 -9.5t-140.5 -9.5l-43 -272q-2 -23 -14 -32t-29 -9q-16 0 -30.5 12.5 t-14.5 36.5q10 68 20.5 132.5t20.5 127.5q-61 -2 -124.5 -3t-129.5 -1q-29 0 -38 16.5t-9 28.5zM365 530q72 4 141 8.5t139 8.5q10 68 21.5 134.5t25.5 131.5q-72 -6 -140 -11t-140 -9q-14 -66 -25.5 -131.5t-21.5 -131.5z" />
<glyph unicode="$" horiz-adv-x="983" d="M76 926q0 96 87 166.5t230 119.5q0 10 4 50.5t9.5 84.5t10.5 81.5t5 44.5q2 16 16.5 26t30.5 10q25 0 35 -17t10 -36q0 -53 -8 -106.5t-12 -104.5q27 6 53 12.5t51 10.5q6 27 10 56.5t11.5 52t18.5 38t30 15.5q43 0 43 -44l-2 -24q-4 -29 -8.5 -57.5t-4.5 -22.5l52 2 q41 0 83.5 -8t77.5 -35q23 -16 23 -43q0 -18 -13.5 -28.5t-29.5 -10.5q-12 0 -18.5 5t-18.5 10.5t-33.5 10.5t-60.5 5q-20 0 -49 -2t-31 -4q-14 -90 -25.5 -209t-19.5 -242q111 -41 152.5 -107.5t41.5 -131.5q0 -49 -31.5 -95.5t-69.5 -82t-70 -58.5l-31 -22q2 -72 15 -109 t26.5 -57.5t24.5 -31.5t11 -32q0 -20 -12 -29.5t-28 -9.5q-97 1 -130 234q-23 -8 -42 -13.5t-44 -9.5q4 -59 8.5 -97t4.5 -79q0 -16 -14.5 -28.5t-30.5 -12.5q-23 0 -36 15.5t-16 35.5l-12 158q-20 0 -39.5 2t-40.5 6q-29 6 -58.5 17.5t-54 30t-40 45t-15.5 61.5 q0 12 5.5 28.5t15.5 32t24.5 25.5t32.5 10t33.5 -8t15.5 -31q0 -14 -5 -21.5t-12 -13.5t-12 -13t-5 -19q0 -18 19 -30.5t45 -19t50.5 -8.5t34.5 -2v80q0 59 2 152.5t10 216.5q-31 8 -79 22.5t-93 39t-76.5 62t-31.5 91.5zM168 909q0 -36 92 -73q51 -20 102 -35l23 305 q-80 -33 -124 -64.5t-64.5 -57.5t-24.5 -45t-4 -30zM436 381q0 -33 1 -60t3 -47q23 6 45.5 12.5t44.5 14.5q-2 31 -3 61.5t-1 63.5q0 59 2 119.5t7 122.5q-16 6 -39 10t-45 10q-8 -90 -11.5 -168t-3.5 -139zM455 778l86 -20q8 115 18 219t23 190q-23 -4 -46.5 -9t-52.5 -15 q-10 -92 -16 -182.5t-12 -182.5zM616 336q47 25 82 72t35 98q0 35 -15 65.5t-56 53.5q-10 6 -33 16q-4 -76 -8.5 -154.5t-4.5 -150.5z" />
<glyph unicode="%" horiz-adv-x="1404" d="M82 1063q0 35 12 97.5t38 124t62.5 106.5t86.5 45q14 0 31.5 -10.5t17.5 -28.5l37 2q20 0 42.5 -4t36.5 -9q115 -45 220 -45q86 0 160.5 27t138.5 74q16 10 30 10q20 0 36 -14.5t16 -36.5q0 -16 -13 -31q2 2 -21.5 -42t-58.5 -107q-35 -66 -76.5 -153t-89.5 -191 q-45 -102 -92 -222t-89 -244t-76.5 -249t-57.5 -238q-4 -18 -18.5 -29.5t-32.5 -11.5q-23 0 -36 16.5t-13 34.5v9q35 178 97 373.5t133 376.5t141.5 334t123.5 249q-98 -35 -202 -35q-41 0 -84 6q14 -43 14 -100q0 -55 -19.5 -114.5t-57.5 -107.5t-92 -80t-124 -32 q-63 0 -106 21.5t-69 56.5t-36 80t-10 92zM182 1063q0 -78 29 -114t78 -36q53 0 90.5 21.5t62.5 56.5q27 33 40.5 74t13.5 82q0 63 -31 106t-98 43h-31q-35 0 -45 35q-23 -18 -42.5 -48t-34.5 -65.5t-23.5 -75.5t-8.5 -79zM795 262q0 35 12 97.5t36.5 124t61.5 106.5t88 45 q18 0 28.5 -10.5t20.5 -28.5q10 0 18.5 1t16.5 1q53 0 100 -20.5t76 -59.5q29 -37 42.5 -81t13.5 -91q0 -55 -18.5 -114.5t-55.5 -107.5t-92.5 -80t-128.5 -32q-63 0 -105.5 21.5t-68 57.5t-35.5 80t-10 91zM895 262q0 -66 23.5 -107.5t82.5 -41.5q99 -1 154 77q25 33 39 74 t14 82q0 70 -34.5 110t-96.5 40h-30q-31 0 -46 34q-45 -45 -75.5 -116.5t-30.5 -151.5z" />
<glyph unicode="&#x26;" horiz-adv-x="948" d="M209 778q0 59 24.5 117.5t66.5 105t96.5 75t113.5 28.5q68 0 112.5 -20.5t79.5 -69.5q8 -14 9 -29q0 -14 -10.5 -25.5t-26.5 -11.5q-20 0 -45 25q-25 23 -43.5 32t-55.5 9q-43 0 -83.5 -20.5t-73.5 -54.5t-52.5 -78t-19.5 -89q0 -113 121 -113q27 0 50.5 7.5t46 16.5 t44 17.5t43.5 8.5q18 0 34.5 -12.5t16.5 -34.5q0 -23 -22.5 -35.5t-48.5 -22.5q-47 -20 -87 -53t-70 -73t-47 -82t-17 -81q0 -53 37.5 -76.5t93.5 -23.5q47 0 93 10.5t83 38.5q10 4 18 9.5t17 5.5q18 0 31.5 -16.5t13.5 -37.5q0 -16 -27 -34.5t-64.5 -33t-78.5 -23.5t-72 -9 q-35 0 -76 8t-76.5 30.5t-59.5 61.5t-24 99q0 57 26 123.5t79 125.5q-25 6 -54.5 18.5t-55 36t-43 60.5t-17.5 90zM457 1315.5v64.5q0 31 4 75t16 84t32.5 68.5t51.5 28.5q20 0 35.5 -14t15.5 -35q0 -20 -10 -31q-29 -31 -38 -90t-13 -125q-2 -29 1 -50t3 -74 q0 -33 -10 -52.5t-39 -19.5q-20 0 -32.5 15.5t-14.5 37.5v36.5t-1 36t-1 45zM481 43q0 16 9.5 30.5t29.5 14.5q35 0 49.5 -32.5t18.5 -83t4 -110t8 -114.5q0 -20 -10 -33.5t-33 -13.5t-34 18.5t-16 43t-5 47v32.5q0 18 1 31.5t1 30.5q0 20 -2 44.5t-13 65.5q-2 8 -5 15.5 t-3 13.5z" />
<glyph unicode="'" horiz-adv-x="430" d="M49 1466q2 27 17.5 37t37.5 10q78 0 121 -35.5t43 -109.5q-4 -84 -30.5 -150.5t-55.5 -105.5q-12 -16 -23.5 -28.5t-25.5 -12.5q-23 0 -34 12.5t-11 30.5q0 12 4 21q51 92 68.5 146t17.5 81q0 41 -18.5 53t-65.5 10q-18 0 -31.5 11.5t-13.5 29.5z" />
<glyph unicode="(" horiz-adv-x="761" d="M129 745q0 115 25.5 240t76.5 248q53 121 132 225.5t188 173.5q8 6 22 6q16 0 28.5 -11t12.5 -30q0 -25 -18 -36q-98 -59 -170 -156.5t-119 -211.5t-69.5 -233.5t-22.5 -226.5q0 -141 41 -282.5t104.5 -264.5t140.5 -217t146 -143q18 -12 19 -35q0 -20 -12.5 -30.5 t-28.5 -10.5q-13 0 -25 6q-82 55 -164 156.5t-147 232.5q-68 135 -115 289t-45 311z" />
<glyph unicode=")" horiz-adv-x="722" d="M80 1593q0 20 12 30.5t29 10.5q12 0 24 -6q82 -55 164 -156.5t148 -232.5q68 -135 114.5 -288.5t44.5 -311.5q0 -115 -25.5 -240t-76.5 -247q-53 -121 -132 -225.5t-187 -174.5q-10 -6 -23 -6q-16 0 -28.5 11.5t-12.5 29.5q0 25 19 37q98 59 169.5 156.5t118.5 211 t69.5 233.5t22.5 226q0 141 -40.5 282.5t-104 264.5t-140.5 217t-147 144q-18 12 -18 34z" />
<glyph unicode="*" horiz-adv-x="1253" d="M172 850q0 31 22.5 64.5t58.5 64.5t80 55.5t87 36.5q-37 29 -59.5 79t-22.5 99q0 16 1 27.5t5 28.5q-20 47 -20 86q0 37 19 58t52 21q20 0 49 -17t57.5 -45t55.5 -60.5t43 -65.5q31 88 80 145.5t121 57.5q39 0 57.5 -35t18.5 -66q0 -63 -17.5 -110t-34.5 -76 q27 12 59.5 18.5t61.5 6.5q41 0 80 -17.5t49 -58.5q12 -16 20.5 -31.5t8.5 -38.5q0 -37 -19.5 -64.5t-49 -44t-64.5 -24.5t-64 -8q-23 0 -45 2t-43 6q18 -27 26.5 -56.5t8.5 -60.5q0 -35 -16.5 -76.5t-44 -80.5t-61.5 -64.5t-66 -25.5q-33 0 -55.5 20.5t-36 52t-19.5 68.5 t-6 72q-35 -23 -73 -41.5t-81 -18.5q-16 0 -28.5 3t-22.5 7q-25 -10 -49 -10q-43 0 -83 32t-40 85zM219 850q0 -25 17.5 -43.5t39.5 -22.5q-43 41 -49 93q-8 -15 -8 -27zM272 887q0 -20 20.5 -49t59.5 -45l15 6q49 27 80.5 48t52 37.5t32 28t17.5 21.5q-12 12 -21.5 35.5 t-9.5 50.5q0 12 2 16q-23 -4 -63.5 -15t-81.5 -29.5t-72 -44t-31 -60.5zM373 1378q10 10 24.5 17.5t32.5 9.5q-21 16 -35 16q-23 0 -22 -30v-13zM387 1217q10 -52 41 -89q31 -35 66 -45h4q2 0 4 2q-29 25 -58.5 58t-56.5 74zM393 1311q0 -27 18.5 -57.5t44 -58.5t52.5 -49.5 t43 -33.5q8 16 24 25l-51 127q-12 33 -31.5 63.5t-50.5 30.5q-27 0 -38 -15.5t-11 -31.5zM428 780q12 2 27 8q10 4 24.5 10.5t28.5 16.5q29 20 36 34.5t9 18.5q-23 -20 -55.5 -42.5t-69.5 -45.5zM580 1036q4 -27 26 -47t45 -20q14 0 38 13t24 50q0 18 -10.5 31.5t-34.5 13.5 q-23 0 -47.5 -9t-40.5 -32zM604 776q0 -59 16.5 -84.5t45.5 -25.5t47 15t28.5 38.5t13.5 49.5t3 46q0 51 -7.5 81t-19.5 54q-23 -25 -54.5 -32t-37.5 -7q-10 -23 -17.5 -37t-11.5 -27t-5 -29.5t-1 -41.5zM627 1145h10q14 0 34.5 -4t37.5 -15q14 20 31.5 47t32.5 58 t25.5 61.5t10.5 61.5q0 29 -7 49t-24 22l-10 -2q-23 -4 -44.5 -31.5t-40.5 -69.5t-33.5 -89t-22.5 -86v-2zM762 1085q4 -8 7 -19t3 -22q0 -10 -1 -15t-3 -13q16 -8 30.5 -11.5t47.5 -5.5q33 0 66.5 8.5t61 24t45 35.5t17.5 43q0 25 -32.5 31t-61.5 6q-53 0 -94 -16.5 t-86 -45.5z" />
<glyph unicode="+" horiz-adv-x="815" d="M82 424q2 16 12 26.5t25 10.5h69q55 0 97.5 5t81.5 11q-4 49 -5.5 97.5t-5.5 113.5q0 10 -1 22.5t-1 26.5q0 31 7.5 58.5t35.5 27.5q16 0 29.5 -10t13.5 -29v-96q0 -55 3 -98t8 -96q49 10 108.5 15t145.5 5q16 0 28 -12.5t12 -30.5q-2 -16 -14 -28.5t-29 -12.5 q-84 0 -140 -5t-105 -15q8 -53 14 -104.5t11 -94.5t9.5 -76t6.5 -45v-14q0 -14 -8.5 -25.5t-24.5 -15.5q-41 0 -49 35q-4 43 -13 90q-6 41 -13 92t-13 108l-4 33q-39 -6 -83 -11t-102 -5h-30q-29 0 -52.5 7t-23.5 40z" />
<glyph unicode="," horiz-adv-x="573" d="M205 258q2 25 17.5 35t35.5 10q152 0 162 -143q-4 -59 -19.5 -112.5t-36 -94.5t-43 -65.5t-36.5 -24.5q-20 0 -30.5 12t-10.5 29q0 12 4 20q51 92 68.5 147.5t17.5 82.5q0 43 -19.5 55t-66.5 10q-16 0 -29.5 11.5t-13.5 27.5z" />
<glyph unicode="-" horiz-adv-x="722" d="M90 406q0 16 12.5 29.5t28.5 13.5q18 0 27 -9q23 -16 51.5 -22t62.5 -6q41 0 84 7t85 16t78 16.5t63 7.5q16 0 29.5 -7t17.5 -30q0 -39 -37 -47q-68 -8 -152 -27.5t-170 -19.5q-23 0 -54.5 4t-59 13t-47 23.5t-19.5 37.5z" />
<glyph unicode="." horiz-adv-x="479" d="M221 223q0 31 22.5 53.5t55.5 22.5q31 0 53.5 -22.5t22.5 -53.5q0 -33 -22.5 -55.5t-53.5 -22.5q-33 0 -55.5 22.5t-22.5 55.5z" />
<glyph unicode="/" horiz-adv-x="917" d="M10 -66.5q0 7.5 4 15.5q68 106 125.5 216.5t110.5 224.5t104.5 227.5t104.5 226.5q82 172 172 334.5t184 322.5q10 10 19.5 15.5t25.5 7.5h2q29 -2 40 -16.5t11 -30.5q0 -10 -2 -15.5t-4 -9.5q-98 -164 -189 -325.5t-169 -331.5q-106 -229 -209.5 -454.5t-239.5 -442.5 q-8 -14 -20 -19.5t-23 -5.5q-20 0 -33.5 13.5t-13.5 35.5v11.5z" />
<glyph unicode="0" horiz-adv-x="1009" d="M74 711q0 152 29.5 272.5t84 204.5t130 128t167.5 44h22.5t20.5 -2q43 -8 39 -47q0 -47 -45 -47q-18 0 -25.5 -1t-11.5 -1q-59 0 -106 -29t-81 -76t-56.5 -106.5t-35.5 -120t-19.5 -116.5t-6.5 -95q-2 -117 18.5 -230.5t62.5 -201.5t105.5 -142.5t147.5 -54.5 q68 0 128 42t104.5 116t71 175t26.5 220q2 72 -16.5 158t-56.5 162.5t-94 134t-130 71.5q-16 4 -28.5 18.5t-12.5 31.5q0 20 14.5 33.5t32.5 13.5t41 -6q92 -27 159.5 -95.5t111.5 -156.5t63.5 -185.5t17.5 -179.5q0 -98 -24.5 -212t-76.5 -211t-134 -162.5t-199 -65.5 q-106 0 -188 58.5t-138.5 156.5t-85 228t-26.5 276z" />
<glyph unicode="1" horiz-adv-x="425" d="M102 1225q0 53 10.5 94t45.5 41q53 0 53 -45q-2 -55 -2 -108.5v-108.5q0 -59 6 -139t17.5 -171.5t24.5 -187.5t27.5 -187t28 -173t25.5 -142q14 -66 24.5 -103.5t10.5 -47.5q0 -16 -13.5 -30.5t-33.5 -14.5q-35 0 -51.5 39t-32.5 120q-29 133 -54.5 295t-44 322t-30 304 t-11.5 243z" />
<glyph unicode="2" horiz-adv-x="905" d="M-29 1122q0 10 2 13q29 74 80 123t112.5 78.5t126 42t118.5 12.5q96 0 168.5 -38t121 -107.5t73 -165t24.5 -208.5q0 -94 -14.5 -189t-41 -186t-61.5 -177.5t-74 -159.5q63 -35 115 -64t115 -33q49 0 49 -45q0 -23 -15.5 -34t-31.5 -11q-78 2 -150 35t-127 74 q-23 -35 -51.5 -70t-61 -62.5t-70.5 -45t-79 -17.5q-90 0 -147.5 50.5t-57.5 117.5q0 45 21.5 81t56.5 61.5t77 40t85 14.5q82 0 188 -47q74 139 127 314t53 351q0 199 -73.5 314.5t-220.5 115.5q-37 0 -89.5 -10t-103.5 -32.5t-93 -59.5t-59 -88q-4 -14 -15 -24.5 t-28 -10.5q-23 0 -36 15.5t-13 31.5zM193 55q0 -33 25.5 -55.5t66.5 -22.5q57 0 103 42t87 106q-80 35 -141 35q-23 0 -48.5 -8.5t-46 -21.5t-33.5 -32.5t-13 -42.5z" />
<glyph unicode="3" horiz-adv-x="745" d="M47 1315q0 37 58.5 59.5t146.5 22.5q156 0 228.5 -81t72.5 -200q0 -106 -49 -203.5t-129 -169.5q133 -25 215 -112.5t82 -212.5q0 -59 -29 -145.5t-81 -166t-126 -136t-166 -56.5q-16 0 -34.5 5t-36 14.5t-28.5 22.5t-11 32q0 16 13 31.5t36 15.5t36 -14.5t23 -14.5 q61 0 116.5 49t97.5 116t65.5 136.5t23.5 110.5q0 113 -82.5 177t-212.5 64h-32q-20 0 -37 12.5t-17 35.5q0 20 25 36q49 27 92 68t75 90t51.5 104.5t19.5 110.5q0 98 -50.5 144.5t-148.5 46.5q-41 0 -70.5 -7.5t-46.5 -13.5q-14 -18 -41 -18q-20 0 -34.5 13t-14.5 34z" />
<glyph unicode="4" horiz-adv-x="686" d="M2 367q0 4 4 16q115 248 184.5 507t131.5 519q6 35 45 35q27 0 38 -17.5t11 -29.5q27 -223 45 -380t30.5 -260.5t20.5 -164t11 -90t4 -38.5t1 -11q43 0 88.5 -8.5t88.5 -16.5q18 -2 29 -15.5t11 -27.5q0 -45 -49 -45q-25 0 -71.5 11t-87.5 11q4 -43 8 -96t8 -108.5 t6 -108.5t2 -98q0 -66 -7 -105t-46 -39q-23 0 -36 14.5t-13 33.5q0 16 3 40.5t3 59.5q0 43 -2 94t-6 106.5t-8.5 111t-8.5 102.5h-16q-88 0 -175 -9.5t-186 -35.5q0 -2 -12 -2q-49 0 -49 45zM129 428q156 29 301 29q0 6 -8 73.5t-19.5 169t-26 221t-26.5 226.5 q-45 -186 -97 -365.5t-124 -353.5z" />
<glyph unicode="5" horiz-adv-x="745" d="M49 745q0 33 3 85.5t9.5 110.5t11.5 117.5t11 109t9 82t3 38.5q6 25 31 35q2 0 45 16.5t104.5 42t130 57t117.5 60.5q8 8 27 8q18 0 33.5 -10t15.5 -33q0 -20 -22 -37q-41 -25 -96.5 -51t-111 -49.5t-103.5 -43t-74 -32.5q-2 -18 -6.5 -49t-9.5 -69.5t-9 -82.5t-8 -85 q51 49 111 79.5t130 30.5q29 0 81.5 -14t104.5 -61.5t91 -138.5t39 -245q0 -129 -29 -257t-78 -230t-115.5 -165.5t-142.5 -63.5q-16 0 -40.5 5t-47 15t-39 25.5t-16.5 36.5q0 18 14.5 31.5t32.5 13.5q23 0 35 -13q16 -18 31.5 -22t29.5 -4q49 0 96.5 58t86 149.5t62.5 202 t24 214.5q0 168 -59.5 271.5t-160.5 103.5q-35 0 -74.5 -16.5t-75.5 -48t-63.5 -77.5t-40.5 -106q-10 -37 -51 -37q-20 0 -33.5 13.5t-13.5 29.5z" />
<glyph unicode="6" horiz-adv-x="864" d="M47 664q0 90 13.5 194.5t46 211t85 208.5t130.5 188q12 18 34 19q18 0 32.5 -13.5t14.5 -25.5t-10 -27q-121 -147 -188.5 -343.5t-67.5 -413.5q0 -47 3 -90.5t11.5 -85.5t21.5 -87t36 -96q31 53 83 106.5t112.5 96.5t125 70.5t119.5 27.5q49 0 86 -18.5t62.5 -49 t38 -71.5t12.5 -84q0 -80 -36 -160t-92 -143.5t-124 -103.5t-131 -40q-100 0 -178 74t-131.5 184.5t-81 237.5t-27.5 234zM248 213q45 -82 100 -139.5t117 -57.5q59 0 112.5 39t93.5 95.5t62.5 120t22.5 110.5q0 23 -5.5 48.5t-16.5 46t-29.5 33.5t-45.5 13 q-49 0 -108 -27.5t-114.5 -70.5t-100.5 -94t-66 -97q-4 -10 -22 -20z" />
<glyph unicode="7" horiz-adv-x="854" d="M8 1243q0 20 15.5 33.5t33.5 13.5q8 0 14.5 -3t22.5 -3q29 0 78 11.5t102.5 25.5t104.5 29.5t84 23.5q57 14 97 29.5t68.5 29t51 21.5t47.5 8q18 0 32.5 -13t14.5 -34q0 -18 -16 -35q-43 -47 -86 -129t-80 -171t-64.5 -171t-40.5 -125q98 20 193 35t201 15 q18 0 32.5 -14.5t14.5 -31.5q0 -23 -14.5 -35t-32.5 -12q-113 0 -214.5 -16t-207.5 -45q-12 -37 -24.5 -110.5t-25 -167t-23.5 -198t-19 -198.5q0 -37 -7.5 -68.5t-50.5 -31.5q-18 0 -32.5 12t-14.5 33q0 14 12 31q4 115 14.5 211t23 177t24.5 151.5t18 131.5 q-55 -18 -107 -32.5t-106 -32.5q-20 -8 -26 -10.5t-11 -2.5q-18 0 -32.5 13.5t-14.5 34.5q0 35 31 45q82 29 153.5 50t139.5 38q39 154 101.5 301t129.5 278q-29 -10 -55.5 -22.5t-56.5 -26.5q-18 -2 -64.5 -17.5t-105 -31.5t-121 -30.5t-115.5 -14.5q-86 0 -86 51z" />
<glyph unicode="8" horiz-adv-x="1015" d="M41 365q0 125 64.5 247.5t181.5 227.5q-74 29 -115 108.5t-41 196.5q0 57 12.5 115.5t38 107.5t63.5 85t91 48q4 0 6 1t6 1q16 0 33 -16q31 8 72 8q63 0 116.5 -20.5t92 -56.5t59 -83t20.5 -102q0 -125 -98 -244h12q166 -8 260.5 -100t96.5 -260q0 -106 -44 -222 t-124 -213.5t-192.5 -160t-250.5 -62.5q-74 0 -139 24.5t-114.5 74t-78 123t-28.5 172.5zM137 365q0 -147 70.5 -222t193.5 -75q117 0 211.5 54t162 136t104 179.5t36.5 183.5q0 35 -9 82t-37.5 89t-83 71.5t-144.5 29.5t-179 -50t-162 -128t-118 -171t-45 -179zM227 1143 q0 -35 7.5 -75t22.5 -72.5t41 -54t62 -21.5q41 0 91.5 27.5t93.5 71.5t72.5 100.5t29.5 113.5q0 68 -52 116t-144 48q-47 0 -88 -16.5t-66 -45.5q-15 -14 -33 -18q-16 -37 -26.5 -82t-10.5 -92z" />
<glyph unicode="9" horiz-adv-x="888" d="M33 819q0 135 57 240.5t149.5 178.5t208 110.5t232.5 37.5h22q20 0 41 -1t38.5 -6t28.5 -16t11 -32q0 -20 -15 -34.5t-34 -14.5q-23 0 -46.5 4t-47.5 4q-113 0 -189 -26q-63 -20 -126.5 -58.5t-114.5 -93.5t-84 -129t-33 -164q0 -59 20.5 -105t71.5 -46q80 0 143.5 42 t113.5 105.5t87 140t62 144.5q8 23 12 49.5t11 49t20.5 36.5t40.5 14q23 0 36 -14t13 -35q0 -78 -3 -156.5t-3 -160.5q0 -217 20.5 -419t67.5 -405q14 -14 14 -32t-13.5 -34t-35.5 -16q-27 0 -44 29t-30.5 79t-24 118.5t-20.5 150.5q-16 129 -23.5 273.5t-7.5 292.5 q-31 -61 -73.5 -123t-98 -111t-122 -81t-144.5 -32q-23 0 -54.5 6.5t-61 31t-51 73.5t-21.5 135z" />
<glyph unicode=":" horiz-adv-x="489" d="M207 629q0 31 19.5 49t47.5 18q29 0 48.5 -18.5t19.5 -48.5q0 -27 -19.5 -47.5t-48.5 -20.5t-48 20.5t-19 47.5zM236 199q0 31 19 49t48 18t48.5 -18.5t19.5 -48.5q0 -27 -19.5 -47.5t-48.5 -20.5t-48 20.5t-19 47.5z" />
<glyph unicode=";" d="M190 244q2 27 17.5 37t38.5 10q78 0 121 -36t43 -110q-4 -59 -19.5 -113.5t-36 -95t-42 -64.5t-40.5 -24q-23 0 -33 12.5t-10 30.5q0 12 4 21q51 92 68.5 146.5t17.5 80.5q0 41 -18 53.5t-65 10.5q-18 0 -32 11t-14 30zM207 629q0 31 19.5 49t47.5 18q29 0 48.5 -18.5 t19.5 -48.5q0 -27 -19.5 -47.5t-48.5 -20.5t-48 20.5t-19 47.5z" />
<glyph unicode="&#x3c;" horiz-adv-x="913" d="M33 457q0 33 28 49q139 68 273.5 144.5t269.5 170.5q33 23 79 49.5t85 26.5q23 0 37 -15.5t14 -37.5q0 -20 -12 -31.5t-33.5 -21t-51.5 -21.5t-63 -33q-111 -78 -223 -143.5t-233 -130.5q78 -35 153.5 -74t151.5 -76t151.5 -70.5t153.5 -60.5q16 -4 25.5 -17t9.5 -30 q0 -23 -15.5 -37t-35.5 -14q-5 0 -17 4q-96 33 -186 75t-178 85l-176 86t-177 78q-31 14 -30 45z" />
<glyph unicode="=" horiz-adv-x="714" d="M90 388q0 16 12.5 29.5t28.5 13.5q18 0 27 -9q23 -16 51.5 -22t62.5 -6q41 0 84 7t85 16t78 16.5t63 7.5q16 0 29.5 -7t17.5 -30q0 -39 -37 -47q-68 -8 -152 -27.5t-170 -19.5q-23 0 -54.5 4t-59 13t-47 23.5t-19.5 37.5zM90 553q0 16 12.5 29.5t28.5 13.5q18 0 27 -9 q23 -16 51.5 -22t62.5 -6q41 0 84 7t85 16t78 16.5t63 7.5q16 0 29.5 -7t17.5 -30q0 -39 -37 -47q-68 -8 -152 -27.5t-170 -19.5q-23 0 -54.5 4t-59 13t-47 23.5t-19.5 37.5z" />
<glyph unicode="&#x3e;" horiz-adv-x="913" d="M33 158q0 16 9 29.5t26 17.5q156 53 304 131t306 149q-121 66 -233.5 131.5t-223.5 143.5q-33 20 -62.5 32.5t-51 21.5t-34 20.5t-12.5 31.5q0 23 14.5 38.5t37.5 15.5q39 0 85 -27t78 -49q135 -94 269.5 -171t273.5 -145q29 -16 29 -49q0 -31 -31 -45q-90 -35 -177 -78 t-175 -86t-178.5 -84.5t-186.5 -74.5q-12 -4 -16 -5q-20 0 -35.5 14.5t-15.5 37.5z" />
<glyph unicode="?" horiz-adv-x="657" d="M127 1329q0 23 21.5 38t52 24.5t65.5 13.5t62 4q49 0 93 -10t76.5 -31.5t52 -55.5t19.5 -81q0 -61 -22.5 -118.5t-44.5 -102.5q-35 -74 -71 -143.5t-65.5 -138.5t-48 -137.5t-18.5 -137.5q0 -4 4 -22.5t8 -39t9.5 -38t5.5 -19.5q2 -6 2 -17q0 -18 -13.5 -34.5 t-38.5 -16.5q-29 0 -36 10.5t-11 20.5l-2 8q-4 12 -8 32.5t-9 42t-8 41t-3 32.5q0 98 28.5 189t68.5 176t82 165t68 156q10 27 16.5 50t6.5 42q0 31 -28.5 54.5t-112.5 23.5q-49 0 -92 -16.5t-60 -16.5q-18 0 -33.5 15.5t-15.5 37.5zM264 4q0 33 22.5 55.5t53.5 22.5 q33 0 55.5 -22.5t22.5 -55.5q0 -31 -22.5 -53.5t-55.5 -22.5q-31 0 -53.5 22.5t-22.5 53.5z" />
<glyph unicode="@" horiz-adv-x="1222" d="M117 467q0 123 44 249t124 226t190.5 163.5t245.5 63.5q113 0 196.5 -54t139 -139t83 -188.5t27.5 -199.5q0 -66 -14 -133.5t-46 -123t-83 -90t-123 -34.5q-78 0 -125 55t-69 178q-39 -76 -103.5 -126t-116.5 -50q-16 0 -34.5 6t-35 21.5t-27.5 42t-11 69.5 q0 45 20.5 116t58.5 136.5t90 112.5t118 47q51 0 88 -20.5t37 -59.5q-2 -12 -2.5 -39.5t-0.5 -42.5q0 -37 1.5 -95t11.5 -113.5t33.5 -95.5t66.5 -40q78 0 121 78t43 201q0 90 -23.5 176t-67.5 153.5t-108.5 108.5t-144.5 41q-111 0 -204 -54.5t-158.5 -141.5t-102.5 -193.5 t-37 -210.5q0 -117 35 -203t92 -141t128 -83t142 -28q92 0 185.5 32t175.5 89q16 10 29 10q23 0 37 -15t14 -36q0 -29 -23 -41q-94 -66 -200.5 -102.5t-217.5 -36.5q-104 0 -195 41t-158.5 114.5t-106.5 175t-39 224.5zM471 399q0 -41 23 -41q26 0 57 33q33 33 57.5 79 t43 92t28.5 86t12 63q-8 8 -26 8q-37 0 -72 -37t-62.5 -89t-44 -106.5t-16.5 -87.5z" />
<glyph unicode="A" horiz-adv-x="1112" d="M-272 -72q0 23 14 38.5t37 15.5q57 0 105 16t92 51t88.5 89.5t93.5 129.5q59 86 122.5 218t116.5 280q45 129 76 259t41 245q-12 113 -12 207q0 20 10 38.5t35 18.5q27 0 41 -17.5t20 -44t7 -58.5t1 -62v-45.5t-2 -34.5q10 -78 22.5 -162t31.5 -174q20 -98 45.5 -195.5 t54.5 -189.5q61 10 122.5 16t123.5 6q37 0 62.5 -9t25.5 -44q0 -23 -16.5 -36t-36.5 -13h-56q-94 0 -192 -18q76 -188 152.5 -309t162.5 -156q16 -4 25.5 -17.5t9.5 -29.5q0 -23 -15.5 -37.5t-35.5 -14.5q-4 0 -17 5q-61 23 -115.5 73.5t-103.5 122.5t-90 160t-74 186 l-20 -4q-86 -16 -171 -32.5t-173 -26.5q-51 -102 -108.5 -192.5t-125 -157t-144.5 -105.5t-165 -39q-25 0 -45 10.5t-20 38.5zM389 481q68 10 135.5 23.5t137.5 25.5q2 2 6 2q-33 104 -59.5 212t-47.5 212q-35 -123 -77 -243.5t-95 -231.5z" />
<glyph unicode="B" horiz-adv-x="976" d="M39 1376q0 18 15.5 32.5t37 25t46 19.5t44.5 17q8 23 21.5 37.5t36.5 14.5q20 0 30 -11q63 23 133 43.5t144 20.5q84 0 158 -29t131 -82q55 -53 86.5 -130t31.5 -169q0 -96 -37.5 -182t-96 -157.5t-129 -130t-136.5 -99.5q100 -23 172 -91.5t72 -189.5q0 -74 -31 -131 t-78 -100q-39 -37 -75.5 -61.5t-78.5 -41t-95.5 -25.5t-123.5 -15q0 -12 -4 -25q-2 -8 -8 -16q-12 -16 -39 -17q-29 0 -40 18.5t-11 28.5v13q-12 2 -40 5t-55.5 11t-49 24.5t-21.5 45.5q0 20 14.5 35.5t36.5 15.5q12 0 20.5 -5t19 -12.5t27.5 -12.5t52 -5v156v137.5 t-4 142.5q-18 0 -32.5 15.5t-14.5 33.5q0 23 14.5 35.5t30.5 22.5q-10 180 -13 355t-16 349q0 8 -1 32t-3 34q-16 -6 -45 -19.5t-45 -13.5q-20 0 -35.5 15.5t-15.5 35.5zM281 1405q0 -23 2 -52.5t4 -52.5l26 -690q76 25 168 72t173 114.5t137.5 155.5t62.5 199 q0 154 -84 238t-223 84q-72 0 -136.5 -19.5t-129.5 -48.5zM317 502q2 -61 2 -126v-124v-209q70 0 137.5 20.5t121 57.5t87 86t33.5 108q0 47 -15 79t-46 57q-43 35 -107.5 48t-158.5 13q-16 0 -28.5 -3t-25.5 -7z" />
<glyph unicode="C" horiz-adv-x="798" d="M51 651q0 152 37 299.5t117 271.5t202.5 213t294.5 124h9q20 0 35.5 -13.5t15.5 -36.5q0 -41 -41 -51q-147 -27 -255 -104.5t-176.5 -187t-102 -242.5t-33.5 -273q0 -117 29.5 -238.5t92 -222t157.5 -164t226 -63.5q25 0 37.5 4t19.5 10.5t14 10.5t20 4q18 -1 32 -15 q16 -16 17 -36q0 -23 -15.5 -38.5t-37 -24.5t-46 -12t-41.5 -3q-162 0 -276.5 74.5t-188 190.5t-108.5 255t-35 268z" />
<glyph unicode="D" horiz-adv-x="978" d="M12 1524q0 23 15.5 37t33.5 14q115 0 216.5 -26.5t186.5 -69.5t152.5 -100.5t114.5 -118.5q102 -131 145.5 -285t43.5 -305q0 -123 -35 -257t-109 -247t-188.5 -186.5t-274.5 -73.5q-12 0 -34.5 3t-46 11t-41 23.5t-17.5 40.5q0 23 16.5 38t36.5 15q12 0 18.5 -5 t12.5 -10.5t18.5 -10.5t36.5 -5q131 0 226.5 61.5t158 158t92 214t29.5 230.5t-26.5 229.5t-87 220t-157.5 185t-237 125.5q0 -135 2 -300t6 -337q6 -186 16.5 -361.5t31.5 -316.5q0 -18 -12.5 -32.5t-30.5 -19.5q-23 0 -38.5 10.5t-19.5 32.5q-20 141 -30.5 319.5 t-16.5 365.5q-6 180 -7 353t-1 312q-23 4 -56.5 6t-65.5 7.5t-54.5 17.5t-22.5 37z" />
<glyph unicode="E" horiz-adv-x="786" d="M37 1442q0 23 17.5 36t43 20t53 11t50.5 9q0 25 21.5 39t35.5 14q33 0 47 -31q86 16 173 25.5t192 9.5q20 0 44.5 -1t45 -7t34 -17.5t13.5 -29.5q0 -20 -14.5 -35t-34.5 -15l-111 5q-92 0 -181 -11.5t-181 -29.5q-16 -90 -22.5 -179.5t-6.5 -181.5q0 -55 1 -111.5 t3 -111.5q86 23 164 44t162 36l14 2q29 0 39 -18.5t10 -32.5q0 -16 -11 -30.5t-30 -19.5q-90 -23 -174 -40t-162 -46v-438q0 -100 -6 -213q57 16 113.5 21.5t112.5 5.5q70 0 136 -4t130 -4q20 0 34.5 -14.5t14.5 -37.5q0 -20 -14.5 -34.5t-34.5 -14.5l-266 8h-17 q-66 0 -142.5 -13t-139.5 -48q-12 -6 -25 -6q-18 0 -34.5 14.5t-16.5 36.5q0 29 26 43l19 12q6 25 8 64t2 78q0 35 -1 62.5t-1 43.5q0 102 -3 200.5t-5 203.5q-4 0 -13.5 2t-18.5 7t-15 15t-6 27q0 18 7 28.5t15 16.5t16.5 8t12.5 6q-2 61 -3 124t-1 128q0 84 4 168t18 170 q-23 -4 -46 -12t-44 -8q-18 0 -34.5 14t-16.5 37z" />
<glyph unicode="F" horiz-adv-x="729" d="M41 1448q0 20 17.5 33.5t44 21.5t55 12.5t51.5 8.5q0 25 18.5 39t34.5 14q35 0 45 -33q86 14 170 25.5t174 11.5q54 0 113 -6q20 -2 33.5 -16.5t13.5 -32.5q0 -23 -14.5 -37t-36.5 -14l-109 4q-90 0 -176 -11.5t-177 -27.5q-8 -76 -11.5 -155t-5.5 -152.5t-2 -138v-109.5 v-27q37 12 79.5 22.5t85.5 20.5t81 18.5t65 14.5q4 2 12 2q16 0 32.5 -13.5t16.5 -33.5q0 -18 -10 -33.5t-29 -19.5q-88 -20 -169 -40t-167 -42q-2 -190 -5 -379t-7 -387q0 -23 -14 -36t-37 -13q-20 0 -34.5 13t-14.5 34q0 188 5 369.5t7 361.5l-12 -2h-4q-10 0 -29.5 8 t-19.5 45q0 29 22.5 43t44.5 18v129q0 10 1 47t2 86.5t3 104.5t4 102.5t4.5 80t4.5 38.5q-23 -4 -51.5 -13t-53.5 -9q-23 0 -37 15t-14 38z" />
<glyph unicode="G" horiz-adv-x="901" d="M59 700q0 201 35 361t102.5 271.5t166 171t225.5 59.5q18 0 44.5 -1t51.5 -7.5t41 -18.5t16 -35t-14 -38t-35 -15q-29 0 -54.5 6t-49.5 6q-94 0 -173 -46t-135.5 -139t-88 -236.5t-31.5 -338.5q0 -109 18.5 -221t54 -204.5t90 -152t126.5 -59.5q76 0 129 54.5t87.5 136.5 t51 176t16.5 174q0 57 -4 101.5t-10 72.5q-35 0 -79 -8t-85 -8q-10 0 -32.5 1t-45 8t-39 23.5t-16.5 45.5q0 23 14.5 37t36.5 14q12 0 19.5 -4t13.5 -10.5t16 -10.5t33 -4q31 0 66.5 4t66.5 9.5t52 9.5l20 4q16 0 29.5 -11.5t17.5 -27.5q2 -2 15.5 -68.5t13.5 -177.5 q0 -55 -8.5 -123.5t-28 -139.5t-49 -139.5t-72.5 -120.5t-100.5 -85t-128.5 -33q-115 0 -190 78t-120 191.5t-62.5 240.5t-17.5 227z" />
<glyph unicode="H" horiz-adv-x="798" d="M51 41q0 8 2 13t4 9l6 72q8 113 15.5 214.5t11.5 200.5t7 200.5t3 218.5q0 141 -6 283.5t-6 306.5q0 35 9 59t44 24q23 0 36 -15t13 -32q0 -150 4.5 -283.5t4.5 -267.5v-215q6 -2 14 -2q6 -2 13 -2h12q39 0 66.5 7.5t57 16.5t69.5 20.5t106 21.5q0 145 10 287.5t22 285.5 q2 20 17.5 33.5t34.5 13.5q25 0 37 -17t12 -38q-12 -139 -22.5 -276.5t-10.5 -278.5q41 0 88 -13.5t80 -56.5q10 -12 10 -32t-14.5 -34.5t-36.5 -14.5q-14 0 -25.5 7t-25 16t-30.5 17.5t-46 8.5q2 -115 9 -228.5t16.5 -213t17.5 -175.5t14 -112q0 -4 2 -15.5t2 -21.5 q0 -23 -15 -36t-30 -13q-37 0 -47 18t-10 29q0 6 -8 75.5t-18.5 177t-19.5 239.5t-13 265q-45 -6 -77 -17t-61.5 -21.5t-60.5 -17.5t-76 -7h-19.5t-21.5 2q-12 0 -26 2q-2 -86 -5.5 -168t-8.5 -166t-11 -173t-14 -189q-2 -18 -16.5 -32.5t-35.5 -14.5q-20 0 -36.5 12 t-16.5 43z" />
<glyph unicode="I" horiz-adv-x="655" d="M63 1534q0 16 10.5 31.5t32.5 19.5q25 6 56 10t63.5 7.5t63 4.5t53.5 1q45 0 97.5 -1t88.5 -5q18 -2 30.5 -15.5t12.5 -32.5q0 -20 -13 -34.5t-36 -14.5h-192v-20q0 -10 1 -18.5t1 -16.5q6 -127 14 -242.5t12 -232.5q4 -86 5.5 -162t1.5 -149q0 -129 -4.5 -255 t-12.5 -274q14 2 29.5 2h30.5q29 0 61.5 -2t61 -9t48 -20.5t21.5 -35.5q0 -23 -14.5 -37.5t-34.5 -14.5q-18 0 -57 8.5t-82 8.5q-59 0 -119 -8.5t-100 -20.5q-6 -2 -15 -2q-23 0 -38 14.5t-15 34.5t11 32.5t28.5 20.5t39 13.5t42.5 9.5q8 133 11 256t3 244q0 215 -9 425 t-26 447q-29 -2 -56.5 -10t-51.5 -8q-20 0 -37 14t-17 37z" />
<glyph unicode="J" horiz-adv-x="694" d="M-145 248q0 20 13 36.5t36 16.5q18 0 33.5 -12.5t17.5 -32.5q10 -98 61.5 -138t133.5 -40q104 0 171.5 65.5t107.5 162.5t56.5 211t16.5 212q0 190 -25.5 377.5t-101.5 355.5q-10 16 -20.5 39t-14.5 51q0 25 15.5 38.5t37.5 13.5q16 0 27.5 -11.5t20 -27t14.5 -32.5 t12 -30q86 -186 110.5 -388t24.5 -396q0 -66 -7 -145.5t-25.5 -162.5t-51.5 -161t-83 -138.5t-120.5 -97.5t-164.5 -37q-55 0 -108.5 17.5t-95.5 51.5t-66.5 85t-24.5 117z" />
<glyph unicode="K" horiz-adv-x="839" d="M23 1495q0 23 16 37t35 14q20 0 34.5 -18.5t24.5 -60.5t16.5 -109.5t10.5 -165.5q2 -33 3 -103.5t3 -144.5t3 -132t1 -64q74 59 137.5 115.5t124 113.5t119.5 118.5t123 131.5q16 16 33.5 37.5t37.5 21.5q23 0 38.5 -11t15.5 -40q0 -12 -9.5 -26.5t-21.5 -28.5 q-31 -37 -65.5 -70t-71.5 -74q-29 -31 -82 -82t-114.5 -106t-124 -107.5t-109.5 -89.5q51 -37 114.5 -73.5t133 -67.5t139 -49.5t133.5 -18.5q29 0 37 8.5t28 8.5q49 0 54 -51q0 -23 -10.5 -36.5t-24.5 -19.5t-30.5 -8t-26.5 -2h-13q-98 0 -183 24.5t-163 59.5 q-66 29 -112 51.5t-105 63.5q4 -129 13.5 -257t25.5 -255q0 -23 -10.5 -38.5t-32.5 -19.5q-23 0 -38 11.5t-19 33.5q-25 199 -34 404t-9 409q0 23 -2.5 92.5t-5.5 157.5t-7 177.5t-10 148.5q-2 20 -6 32.5t-7 21.5t-5 17.5t-2 18.5z" />
<glyph unicode="L" horiz-adv-x="550" d="M12 1483q0 16 11.5 30.5t33.5 14.5q29 0 47 -43t28.5 -117t16 -170t9.5 -204.5t7 -220t11 -214.5q8 -123 18.5 -232.5t26.5 -181.5q14 4 44 8.5t83 4.5q57 0 108.5 -3t67.5 -5q49 -4 93.5 -11t50.5 -45v-6q0 -23 -15.5 -34t-34.5 -11q-29 0 -48 3t-42.5 7t-56.5 7t-88 3 q-59 0 -93 -4t-54.5 -8t-31.5 -8t-28 -4h-12q-14 0 -21.5 19.5t-15.5 54.5l-2 8q-12 49 -21.5 134t-16.5 187.5t-12 213t-9.5 206.5t-6.5 171t-4 108q-4 92 -11 179t-24 128q-8 23 -8 35z" />
<glyph unicode="M" horiz-adv-x="1507" d="M63 514q0 27 1.5 98.5t3.5 166.5t4 200.5t4 199t3 163t1 92.5q0 35 -2 68.5t-2 68.5q0 20 13 33.5t36 13.5q39 0 49 -39t10 -82v-63q0 -20 -2 -80t-3 -137.5t-4 -164.5t-4 -164t-3 -133.5t-2 -70.5q8 41 14 69.5t14.5 62.5t22.5 78t39 116q16 49 38.5 104t52.5 103.5 t67 80t82 31.5q49 0 83.5 -27.5t59.5 -72.5t39 -102.5t23.5 -115t14.5 -110.5t9 -90q4 -31 5 -57.5t5 -46.5q4 27 17.5 78t35 111t51 123.5t69.5 115t90.5 84t109.5 32.5q61 0 106.5 -36.5t77 -94t52 -129t33 -140.5t17.5 -128t9 -94q2 -16 4 -49t4 -78t4 -96.5t2 -102.5 q0 -59 -2 -111.5t-11 -91.5t-25.5 -61.5t-45.5 -22.5q-18 0 -34.5 14.5t-16.5 37.5q0 10 3 17t8 14t9.5 18.5t6.5 32.5q0 4 1 26.5t2 49t2 49t1 28.5q0 117 -1 185.5t-5 116.5t-11.5 91t-17.5 109q-12 66 -28.5 128t-37 110.5t-47 78t-59.5 29.5q-41 0 -79 -40t-71.5 -97.5 t-59.5 -121t-40 -110.5q-49 -162 -63.5 -341t-14.5 -355v-70q0 -16 2 -30q0 -23 -14 -37.5t-37 -14.5q-20 0 -34.5 14t-16.5 34q0 2 -2 41.5t-5 101t-7 137.5t-9.5 150.5t-10.5 141.5t-9 110q-2 25 -6 77t-11.5 114.5t-17.5 129t-25.5 120.5t-35 89t-45.5 35 q-23 0 -51.5 -50.5t-56.5 -117t-51.5 -132t-31.5 -98.5q-23 -74 -40 -138t-32.5 -132.5t-27.5 -148.5t-23 -185q-3 -26 -3 -52v-13q1 -32 1 -60q0 -20 -13 -35.5t-34 -15.5q-23 0 -34 10.5t-17 26.5t-7 34.5t-1 35.5q-6 90 -8.5 178t-2.5 178z" />
<glyph unicode="N" horiz-adv-x="905" d="M6 932q0 104 2 205.5t6 203.5q0 20 15.5 35t36.5 15q25 0 43 -25q39 -66 88 -147.5t101 -174t107.5 -187.5t107.5 -186t97 -171t80 -142q4 23 4 47.5t2 57.5q4 111 6.5 195.5t2.5 152.5q0 80 -3.5 145.5t-7.5 132t-12 143.5t-16 181q-6 47 -13 74q-4 12 -8 22 q-8 4 -16 13q-16 16 -17 45q0 23 15.5 36t34.5 13q31 0 48 -17.5t27 -44.5q12 -37 19.5 -74.5t11.5 -66.5q10 -100 17.5 -176t11.5 -143.5t6 -135t2 -147.5q0 -35 -2 -91t-6 -120.5t-7.5 -131.5t-7.5 -123t-6 -95t-2 -49q0 -20 -13 -37t-36 -17q-16 0 -27.5 7.5t-22.5 25 t-26.5 47t-42.5 76.5q-10 18 -47 82t-87 152t-107.5 187t-108.5 189.5t-91 159t-54 92.5q-2 -59 -2 -116.5v-116.5q0 -219 11 -436t40 -422q0 -25 -14.5 -41.5t-36.5 -16.5q-18 0 -32 12.5t-18 30.5q-29 211 -41 430.5t-12 442.5z" />
<glyph unicode="O" horiz-adv-x="849" d="M18 842q0 45 3.5 110.5t12.5 138t29.5 143.5t56.5 128t88 92t128 35q16 0 35 -14q27 6 55 6q49 0 113.5 -34t122 -116t97.5 -220t40 -345q0 -180 -34 -315.5t-89 -226.5t-125.5 -137t-142.5 -46q-86 0 -147.5 45t-105.5 116.5t-71 161t-41 178.5t-19.5 169t-5.5 131z M119 840q0 -51 5 -122t18.5 -148.5t35 -153.5t54 -136.5t76.5 -98.5t104 -38q39 0 88 34t93 107.5t74.5 192.5t30.5 289q0 203 -36.5 324.5t-85 186t-93.5 84t-61 19.5q-33 0 -69 -20.5t-70 -73.5q-12 -23 -41 -22q-27 0 -45 24q-27 -45 -42.5 -105.5t-23.5 -123t-10 -120.5 t-2 -97v-2z" />
<glyph unicode="P" horiz-adv-x="794" d="M45 1520q0 23 14.5 37t36.5 14q27 0 47.5 -13.5t36.5 -54.5q12 -31 23.5 -67.5t19.5 -71.5t14.5 -63.5t10.5 -45.5q20 72 60 136.5t94.5 112.5t119 77t133.5 29q84 0 137.5 -64.5t53.5 -177.5q0 -92 -35 -210t-102.5 -222.5t-168 -179t-229.5 -80.5q4 -92 7.5 -244.5 t3.5 -337.5q0 -47 -8.5 -83t-47.5 -36q-20 0 -34.5 15.5t-14.5 36.5q0 4 1 13t1 34q0 180 -1 342t-9 266q-37 6 -57.5 16.5t-30.5 20.5t-12.5 20.5t-2.5 18.5q0 23 15.5 36t34.5 13q10 0 24.5 -9.5t24.5 -9.5q-2 43 -5 84t-7 89q-4 63 -16.5 143t-28 153.5t-31 132 t-27.5 80.5q-14 2 -22 9q-23 10 -23 41zM293 989q0 -53 5 -112.5t9 -100.5q72 6 134.5 42t114.5 91.5t92 125t65 143.5q16 51 24 100t8 90q0 88 -25.5 114.5t-64.5 26.5q-86 0 -153.5 -56t-113.5 -136t-70.5 -170t-24.5 -158z" />
<glyph unicode="Q" horiz-adv-x="886" d="M43 870q0 33 2 93.5t10 132t28.5 147.5t55.5 136.5t90.5 99.5t135.5 39q18 0 30 -13q25 6 51 6q51 0 116 -33.5t123 -114.5t98 -219t40 -347q0 -178 -32.5 -304t-90.5 -225q31 -43 63 -88t65.5 -84t68.5 -65.5t74 -34.5q20 -4 30.5 -19.5t10.5 -31.5q0 -23 -15.5 -36 t-33.5 -13q-8 0 -11 2q-57 10 -101 40.5t-81 71.5t-68.5 87t-64.5 87q-41 -49 -99.5 -79.5t-111.5 -30.5q-86 0 -147.5 43t-104.5 112.5t-68.5 157.5t-40 176t-18.5 169t-4 138zM143 870q0 -113 15.5 -235.5t49.5 -225t86 -169t124 -66.5q18 0 42.5 7.5t51.5 25.5 q33 23 59 55q-20 23 -40.5 41.5t-45.5 34.5q-4 6 -20 14t-34.5 19.5t-33 27t-14.5 33.5q0 20 14.5 35.5t34.5 15.5q12 0 38 -14t54.5 -34.5t57 -44t47.5 -42.5q41 76 67.5 186.5t26.5 262.5q0 199 -36 319.5t-82 186t-92 87t-64 21.5q-33 0 -68 -20q-10 -6 -24.5 -21.5 t-30 -33t-31.5 -30t-29 -12.5q-27 0 -45 25q-25 -49 -40 -109.5t-23 -122t-11.5 -118t-3.5 -97.5v-2z" />
<glyph unicode="R" horiz-adv-x="870" d="M-8 1384q0 23 17.5 37.5t33.5 14.5q18 0 32.5 -10.5t25 -26t18.5 -31.5t12 -29q27 -66 39 -111.5t18 -80.5q23 51 63 108.5t94 106.5t119.5 81t139.5 32q94 0 142.5 -69t48.5 -175q0 -90 -32 -198.5t-92.5 -208t-149.5 -176.5t-204 -101q51 -37 115 -74t133.5 -67.5 t139 -49t133.5 -18.5q29 0 37 8t28 8q49 0 53 -51q0 -25 -14 -38t-31.5 -19t-35 -7t-23.5 -1q-98 0 -183 26.5t-163 61.5q-66 29 -126.5 62.5t-119.5 74.5q4 -45 6 -148.5t2 -261.5q0 -47 -8 -80.5t-47 -33.5q-23 0 -36 15t-13 34q0 -2 2 27.5t2 88.5q0 74 -1 134.5 t-3 112.5t-3 100.5t-3 95.5q-72 12 -88.5 34.5t-16.5 39.5q0 18 14.5 34.5t36.5 16.5q16 0 21.5 -9.5t28.5 -9.5q-4 41 -9.5 86t-5.5 88q-10 104 -28.5 205t-49.5 195q-14 41 -25 66.5t-22 41.5q-10 18 -16 28.5t-6 20.5zM240 887q0 -61 5 -125t9 -121q98 4 178 65.5 t138.5 150.5t90 189.5t31.5 184.5q0 88 -24.5 114.5t-63.5 26.5q-61 0 -145 -51q-68 -43 -111 -97.5t-67.5 -113.5t-32.5 -116.5t-8 -106.5z" />
<glyph unicode="S" horiz-adv-x="649" d="M39 43q0 23 15.5 39t41.5 16q25 0 38 -14t24.5 -32.5t23 -33t33.5 -14.5q80 0 129 61.5t49 174.5q0 72 -21.5 149.5t-49.5 149.5q-27 68 -61 138.5t-64.5 145t-52 153.5t-21.5 163q0 68 19.5 144.5t60.5 141t107.5 107.5t158.5 43q20 0 46 -6t51.5 -16.5t48 -26 t34.5 -35.5q14 -20 15 -47q0 -20 -11.5 -35.5t-36.5 -15.5q-18 0 -29.5 11t-25.5 25.5t-34.5 25.5t-57.5 11q-55 0 -99 -28.5t-75 -75.5t-46.5 -105.5t-15.5 -117.5q0 -72 18.5 -141.5t47.5 -139.5t61.5 -138.5t61.5 -139.5q29 -74 55.5 -161t26.5 -179q0 -78 -23.5 -140.5 t-63.5 -108.5t-93.5 -70.5t-110.5 -24.5q-25 0 -50 8t-48 24q-23 14 -49.5 48t-26.5 67z" />
<glyph unicode="T" horiz-adv-x="702" d="M-82 1376q0 29 22.5 41.5t47.5 12.5q117 29 216 56t195.5 48.5t194.5 34t211 12.5q23 -2 37 -17.5t14 -35.5q0 -23 -15.5 -40.5t-37.5 -17.5q-6 0 -24.5 1.5t-33.5 1.5q-92 0 -183 -13.5t-183 -34.5q12 -16 12 -34q0 -150 3 -284t8.5 -266t8.5 -267.5t3 -282.5 q0 -55 2 -108.5t12 -104.5q8 -10 13 -24.5t5 -28.5q0 -29 -16 -46.5t-45 -17.5q-31 0 -47 34t-23.5 83t-9.5 103.5t-2 94.5q0 135 -3 260.5t-7 247t-7 243.5t-3 253v121q-10 0 -55.5 -13.5t-97.5 -29t-97 -27.5t-58 -12q-25 0 -41 16.5t-16 40.5z" />
<glyph unicode="U" d="M47 856q0 152 15.5 299.5t46.5 306.5q4 20 17 30.5t32 10.5q23 0 37 -15t14 -34q0 -4 -1 -13t-3 -14q-29 -156 -43.5 -291t-14.5 -280q0 -35 1.5 -97.5t7.5 -137t18 -150.5t35.5 -138.5t59.5 -102.5t87 -40q43 0 84 52.5t77 125t61.5 149.5t35.5 126q20 94 40 207 t37.5 229.5t30.5 228t21 203.5q2 23 17.5 34t36.5 11q35 0 41 -25.5t6 -68.5q-2 -29 -4 -76t-3 -103t-1 -120.5v-130.5q0 -23 2 -78t6 -125.5t9 -148.5t10 -148.5t9.5 -127t8.5 -80.5q14 -102 39.5 -194.5t70.5 -158.5q10 -16 10 -28q0 -18 -14 -35t-37 -17q-27 0 -43 23 q-57 84 -84.5 186.5t-42.5 210.5q-16 125 -25.5 234.5t-13.5 218.5q0 -2 -15 -91t-62 -222q-20 -57 -49 -121t-67 -118t-86 -89t-106 -35q-76 0 -129 49t-87 117t-51 136.5t-21 107.5q-10 94 -15.5 182t-5.5 176z" />
<glyph unicode="V" horiz-adv-x="806" d="M8 1268q0 18 2 41.5t9.5 45t22.5 37t42 15.5q16 0 32.5 -13.5t17.5 -37.5q0 -14 -4.5 -20.5t-8.5 -14.5t-8 -19.5t-4 -33.5q0 -41 6 -91.5t10 -82.5q23 -158 61.5 -321t81.5 -316q12 -45 36 -108.5t49.5 -122t48 -99.5t32.5 -41q4 0 11.5 19.5t15.5 50t17 67.5t18 72 q29 113 54 248t44 260q12 86 19.5 185t12.5 198.5t6 193t1 164.5q0 27 -5 49.5t-5 44.5q0 18 15 34t38 16q18 0 29.5 -11.5t17.5 -29t8 -37t2 -35.5v-31q0 -76 -1 -170t-6 -194.5t-12 -201.5t-20 -190q-16 -121 -40.5 -249.5t-52.5 -239.5t-53.5 -191.5t-45.5 -107.5 q-6 -8 -15 -16q-18 -15 -41 -15q-51 0 -100 65.5t-93 170t-82 232.5t-67.5 251t-50 227.5t-28.5 163.5q-4 33 -10.5 85.5t-6.5 103.5z" />
<glyph unicode="W" horiz-adv-x="1296" d="M49 1380v99q0 29 14.5 44t32.5 15q31 0 42.5 -16.5t13.5 -63.5q2 -43 2 -124t6 -220q6 -135 21.5 -290.5t37.5 -297.5q12 -80 30.5 -149.5t40 -121.5t45 -82t48.5 -30q31 0 65.5 68t62.5 177.5t46 248.5t18 285q-16 104 -21 169.5t-5 77.5q0 20 14.5 37t34.5 17 q27 0 42 -30t22.5 -73t10.5 -90t3 -84v-14q14 -88 38.5 -180.5t59.5 -169t82 -125.5t109 -49q88 0 128 101t40 261q0 106 -15.5 222t-41 219.5t-56.5 187.5t-62 129q-6 -2 -18 -2q-25 0 -39 17.5t-14 39.5q0 27 18.5 42t48.5 15q31 0 53.5 -17t41 -43t31 -55.5t22.5 -54.5 q27 -66 50.5 -149.5t41.5 -175.5t28.5 -187.5t10.5 -187.5q0 -80 -11.5 -162t-40 -148.5t-81.5 -109.5t-135 -43q-59 0 -105.5 23.5t-83.5 62.5t-65.5 91.5t-53.5 107.5q-12 -113 -38.5 -212t-61.5 -174t-80 -119t-94 -44q-59 0 -104.5 44t-80 119t-59 173t-41 208.5 t-27 224.5t-15.5 220.5t-6 196.5t-1 151z" />
<glyph unicode="X" horiz-adv-x="831" d="M-106 1509q0 23 16 40.5t39 17.5q27 0 43 -23q66 -82 121 -169t105 -176t98.5 -179t99.5 -178q68 147 132 294.5t124 297.5q12 34 49 34h2q23 0 39 -16t16 -39q0 -8 -4 -20q-68 -170 -142.5 -337t-152.5 -333q63 -111 130 -213t147 -197q78 -92 175 -170.5t206 -119.5 q37 -14 37 -52q0 -25 -16.5 -39t-39.5 -14q-12 0 -18 2q-129 47 -236.5 136t-191.5 188q-72 86 -133.5 176t-116.5 184q-37 -74 -82 -146.5t-89 -143t-82 -140.5t-63 -141q-14 -37 -51 -37q-25 0 -40 17.5t-15 39.5q0 10 2 17q29 84 72 159.5t88 149.5q53 90 105 174t89 166 q-53 96 -104 194.5t-106.5 195.5t-114 189.5t-125.5 178.5q-12 14 -12 32z" />
<glyph unicode="Y" horiz-adv-x="935" d="M12 1567q0 23 15.5 38t38.5 15q20 0 33.5 -13.5t15.5 -35.5q2 -72 9 -164t17.5 -186.5t23.5 -176t30 -131.5q14 -47 38.5 -106t57.5 -111.5t71.5 -88.5t83.5 -36t80 37t61.5 97.5t46 139.5t31 164t16.5 170t5 158v99q0 18 14.5 31.5t34.5 13.5t35.5 -13.5t15.5 -35.5 q4 -111 20.5 -237t33.5 -280q14 -119 25.5 -237.5t11.5 -235.5q0 -86 -4.5 -167.5t-20.5 -160.5t-47 -159t-82 -162q-35 -55 -79 -107.5t-94 -92t-107.5 -63.5t-118.5 -24q-49 0 -98.5 18.5t-96.5 57.5q-18 14 -18 39q0 23 15 37t36 14q16 0 33 -12q35 -29 66.5 -41 t64.5 -12q70 0 136 48t123.5 120.5t98.5 156.5t57 156q18 76 26.5 158t8.5 172q0 109 -9 219.5t-24 222.5q-14 -68 -36.5 -136.5t-56.5 -124.5t-84 -92t-120 -36q-76 0 -134 46t-101 111.5t-70.5 136.5t-42.5 118q-18 57 -33.5 148t-26.5 189.5t-18.5 191.5t-7.5 155z" />
<glyph unicode="Z" horiz-adv-x="839" d="M68 139l2 11q0 2 11 34.5t29.5 83.5t41 113.5l45 125t44 119t35.5 95.5q23 57 60 141t82 173t96 175t107 150q-78 -6 -132.5 -11.5t-102.5 -10.5t-100.5 -9t-127.5 -10q-27 0 -52.5 12t-25.5 41q0 23 15.5 38t37.5 15l25 -2q10 0 22.5 1t32.5 3q16 2 59 5.5t99.5 7.5 t119 9t117 9t93 6t49.5 2q20 0 34.5 -14t14.5 -35q0 -25 -19 -39q-92 -82 -168.5 -200.5t-137 -246.5t-105.5 -248t-76 -204q-6 -16 -11.5 -29.5t-9.5 -25.5q-12 -31 -25.5 -68t-24.5 -70.5t-19 -58t-10 -28.5q53 2 101 5t97 6t103.5 6t119.5 3q25 0 52.5 -1t50 -6t38 -16.5 t15.5 -31.5q0 -23 -13.5 -37t-35.5 -14q-20 0 -58 3t-71 3q-61 0 -117.5 -3t-113 -7.5t-115.5 -7.5t-127 -3q-51 0 -51 41z" />
<glyph unicode="[" horiz-adv-x="546" d="M27 1491v12q0 41 5 76t40 39q29 4 81 9t103 9q20 2 32.5 3t21.5 1h18.5h23.5q20 0 35.5 -13t15.5 -36q0 -31 -22.5 -43t-69.5 -12h-51q-66 -2 -91.5 -6t-41.5 -6q0 -39 3 -130t9 -208t11.5 -246t11.5 -240.5t9 -193.5t3 -107q0 -137 11.5 -267t21.5 -275l229 10h2 q18 0 31.5 -16.5t13.5 -36.5q0 -45 -45 -45q-12 -2 -18 -2h-12q-39 -2 -95.5 -6.5t-89.5 -4.5h-33.5t-33.5 2q-29 2 -38 21.5t-9 46.5q-10 143 -22.5 281.5t-12.5 291.5q0 12 -2 67.5t-6.5 129.5t-8.5 158t-7 157.5t-6 124.5t-3 60q-4 53 -6 107t-4 106.5t-3 98.5t-1 83z " />
<glyph unicode="\" horiz-adv-x="964" d="M23 1459v11q0 23 13 36.5t34 13.5q10 0 22 -5.5t21 -19.5q135 -217 238.5 -442.5t209.5 -454.5q78 -170 169 -332t190 -325q2 -4 4 -9.5t2 -15.5q0 -16 -11.5 -30.5t-40.5 -16.5h-2q-16 2 -25 7t-20 15q-94 160 -184 323t-172 335q-53 113 -104.5 226.5t-104.5 227 t-110 224.5t-125 217q-4 8 -4 15z" />
<glyph unicode="]" horiz-adv-x="661" d="M92 1583q0 45 45 45q12 2 18.5 2h12.5q39 2 95 6t89 4h34t34 -2q29 -2 38 -21.5t9 -45.5q14 -143 22.5 -301t15.5 -321t13 -327.5t17 -320.5q2 -53 5 -107.5t5 -106.5t3 -98t1 -83v-12q0 -41 -5 -76t-40 -39q-29 -4 -81 -9.5t-104 -9.5q-20 -2 -32.5 -3t-21.5 -1h-18h-24 q-20 0 -35.5 13.5t-15.5 35.5q0 31 22.5 43.5t69.5 12.5h51q66 2 91.5 6t42.5 6q-10 209 -18.5 431t-18 439.5t-19.5 421t-24 375.5l-230 -10h-2q-18 0 -31.5 16.5t-13.5 36.5z" />
<glyph unicode="^" d="M68 776l325 500h80l326 -500h-105l-131 201q-25 37 -48 73.5t-41.5 65.5t-29.5 46l-10 18l-262 -404h-104z" />
<glyph unicode="_" d="M-2 -84h1028v-82h-1028v82z" />
<glyph unicode="`" horiz-adv-x="618" d="M211 1638q0 18 13.5 36t35.5 18q18 0 34.5 -18.5t36 -48.5t49.5 -67.5t77 -76.5q20 -14 20 -41q0 -23 -15.5 -36t-35.5 -13q-17 0 -31 10q-27 20 -59.5 54t-60 69t-46 66.5t-18.5 47.5z" />
<glyph unicode="a" horiz-adv-x="563" d="M16 328q0 45 20.5 115.5t58.5 136t90.5 112.5t117.5 47q49 0 86 -20.5t37 -56.5v-84q0 -49 5 -117t16.5 -129.5t26.5 -104.5t38 -43q4 0 10 2t15 2q16 0 31.5 -11t15.5 -36q0 -29 -21.5 -41t-50.5 -12q-63 0 -104 67.5t-64 209.5q-39 -76 -103.5 -126.5t-115.5 -50.5 q-16 0 -34.5 6.5t-35 21.5t-28 42t-11.5 70zM109 324q0 -41 22 -41h2q25 0 55 32q33 33 57.5 79t43 92t29 86t12.5 63q-8 8 -27 8q-37 0 -71.5 -37t-62.5 -89t-44 -106.5t-16 -86.5z" />
<glyph unicode="b" horiz-adv-x="610" d="M-25 1653q0 18 14.5 31.5t37.5 13.5q41 0 45 -41q8 -47 19 -127t23.5 -178.5t25 -209t24.5 -219t23.5 -210t19.5 -178.5q35 41 80 71.5t104 30.5q51 0 88 -21.5t59.5 -56.5t33 -79t10.5 -89q0 -63 -25 -125.5t-65.5 -112t-95 -80t-115.5 -30.5h-17.5t-13.5 2 q6 -139 6 -268q0 -20 -13.5 -33.5t-33.5 -13.5q-23 0 -36 13t-13 34q0 78 -2 153.5t-8 161.5q-10 10 -16.5 18.5t-6.5 22.5q0 8 4 19.5t14 15.5q-4 49 -9 101.5t-9 105.5t-14.5 151.5t-24.5 220t-29.5 255t-31 257t-28.5 225t-22 158.5zM221 395q8 -68 13.5 -128t9.5 -120 q18 -8 39 -8q39 0 74.5 23.5t64.5 60.5t46 81t17 87q0 55 -19.5 102.5t-74.5 47.5q-25 0 -49.5 -13.5t-48 -34t-42 -47t-30.5 -51.5z" />
<glyph unicode="c" horiz-adv-x="550" d="M41 322q0 86 25.5 189t79 194.5t134 152t191.5 60.5q27 0 43 -12.5t16 -37.5q0 -49 -47 -49h-12q-86 0 -148.5 -52t-104.5 -129t-61.5 -165t-19.5 -158q0 -53 12.5 -113.5t36 -110.5t58.5 -84t82 -34q45 0 77.5 35t49.5 78q16 29 47 29q20 0 33.5 -13.5t13.5 -33.5 q0 -18 -17.5 -50t-46 -64t-68.5 -55.5t-85 -23.5q-86 0 -141.5 50t-88 121t-46 146.5t-13.5 129.5z" />
<glyph unicode="d" horiz-adv-x="696" d="M41 387q0 57 25.5 120.5t69.5 117t103.5 88.5t127.5 35q63 0 108 -33v10q0 25 -3 82t-7 123.5t-9 130t-10 102.5q-4 39 -11 88t-7 78q0 18 14.5 32.5t34.5 14.5q29 0 39 -20.5t14 -48.5q12 -102 19.5 -184.5t11.5 -164t8 -176t13 -221.5q6 -115 11 -201t10 -152.5 t9 -119.5t11 -102l12 -148q0 -18 -12.5 -33.5t-34.5 -15.5q-41 0 -46 42t-16 108q-8 111 -15 216t-13 210q-25 -39 -53.5 -77t-61.5 -69t-71 -49t-83 -18q-47 0 -81.5 20.5t-58 53t-36 74.5t-12.5 87zM137 389q0 -23 4 -47.5t13.5 -45t24 -33.5t36.5 -13l14 -2q37 0 75 29.5 t72 75.5t61.5 101.5t45.5 106.5l-2 45q-10 -6 -20 -6q-37 0 -47 41q-18 12 -47 12q-53 0 -95.5 -29.5t-72 -71.5t-46 -87t-16.5 -76z" />
<glyph unicode="e" horiz-adv-x="557" d="M-37 635q0 23 15.5 36t35.5 13q14 0 40 -10t46 -19q6 45 18.5 88t35 78t56.5 56.5t81 21.5q41 0 80 -16.5t68.5 -43t48 -60.5t18.5 -68q0 -43 -21.5 -76t-56.5 -56.5t-80 -35t-92 -11.5h-34.5t-33.5 5v-11q0 -45 17.5 -103t45.5 -110.5t62.5 -88.5t69.5 -36q10 0 28.5 7 t41.5 30q14 14 34 15q20 0 35 -13.5t15 -36.5q0 -18 -17 -34q-37 -35 -72.5 -49.5t-64.5 -14.5q-76 0 -131 51.5t-90 124t-52.5 150.5t-17.5 131v8q-18 6 -40.5 12t-42 14.5t-33 20.5t-13.5 31zM195 635q27 -6 59 -6q27 0 53.5 5t49 15t37 25.5t14.5 38.5q0 16 -12.5 32.5 t-30 28.5t-38 19.5t-36.5 7.5q-20 0 -35.5 -15.5t-27 -40t-19.5 -54t-14 -56.5z" />
<glyph unicode="f" horiz-adv-x="614" d="M-2 317q0 20 15.5 35t33.5 15t27.5 -10.5t31.5 -10.5q35 0 91 14q-8 43 -23.5 123t-30 180.5t-24.5 212t-10 220.5q0 98 12 186t40.5 154.5t79 105.5t126.5 39q35 0 88 -18.5t102 -53t86 -84t41 -110.5q0 -20 -11 -35.5t-34 -15.5q-47 0 -51 47v-2q-2 37 -29 68.5 t-62.5 55t-72 37t-59.5 13.5q-47 0 -77 -31t-48.5 -85t-25.5 -126t-7 -154q0 -104 10 -214.5t23.5 -209t28 -172t22.5 -104.5q47 12 95 29.5t103 17.5q16 0 36 -3t37.5 -10t28.5 -19.5t11 -30.5q0 -23 -14.5 -35t-32.5 -12q-14 0 -28.5 6t-37.5 6q-41 0 -94 -16.5t-86 -28.5 q41 -221 80 -445.5t39 -453.5v-8q0 -33 -6 -63t-45 -30q-20 0 -33.5 15.5t-13.5 34.5v53q0 221 -39 437t-76 433q-25 -6 -51.5 -11t-50.5 -5q-16 0 -37 4t-38.5 12t-28.5 21.5t-11 31.5z" />
<glyph unicode="g" horiz-adv-x="659" d="M-53 -1141q0 20 12 33.5t35 13.5q20 0 39 -18q29 -39 66.5 -56.5t70.5 -17.5q88 0 149.5 56.5t101.5 143.5t62.5 192.5t32.5 205t12 179t2 114.5q0 57 -1 100t-3 83t-6 83t-10 101l-35 366q-35 -80 -71.5 -150.5t-76.5 -124.5t-84 -86t-91 -32q-16 0 -41 6t-46.5 24.5 t-37 50.5t-15.5 85q0 90 31 197.5t89 200.5t143 155.5t196 62.5q27 0 45.5 -11t18.5 -38q0 -18 -14.5 -32.5t-33.5 -14.5h-12q-61 0 -111.5 -27.5t-91.5 -71.5t-71.5 -101.5t-51 -116t-30.5 -113.5t-10 -96q0 -45 18 -53.5t25 -8.5q18 0 44.5 19.5t62.5 72t82 144.5t103 239 q16 37 25.5 55.5t38.5 18.5q47 0 47 -49v-18q0 -43 5 -89.5t12.5 -108.5t16.5 -146t19 -203q4 -59 7 -103.5t6.5 -84.5t5.5 -83t2 -100q0 -39 -3 -128t-16.5 -198.5t-42 -226.5t-79 -213t-128 -158.5t-190.5 -62.5q-55 0 -112.5 26.5t-102.5 84.5q-8 8 -8 28z" />
<glyph unicode="h" horiz-adv-x="614" d="M57 1366q0 18 13.5 33.5t35.5 15.5q35 0 43.5 -41t12.5 -90l12 -201q2 -25 5 -83t6 -132.5t6.5 -157.5t3.5 -157v-109q18 37 42.5 76t53 71t61.5 52.5t68 20.5q59 0 95 -49.5t57.5 -124t30.5 -163.5t13 -171q0 -20 -13 -36t-34 -16q-20 0 -34.5 12.5t-14.5 35.5 q0 94 -9 170.5t-23.5 131t-32 84t-33.5 29.5q-33 0 -75 -46t-79 -124q-25 -55 -40 -117.5t-23 -126t-12.5 -123t-6.5 -108.5q-2 -18 -16 -30.5t-31 -12.5q-51 0 -51 51q4 129 7 257t3 264q0 76 -2 176t-6 207.5t-10 214t-12 196.5q-2 29 -4.5 55.5t-4.5 49.5z" />
<glyph unicode="i" horiz-adv-x="329" d="M57 1188q0 25 17.5 42t44.5 17t43 -17.5t16 -41.5q0 -27 -16 -44.5t-43 -17.5t-44.5 17.5t-17.5 44.5zM102 889q0 16 10.5 32.5t39.5 16.5q39 0 49 -47q6 -31 8 -106.5t5 -170t8.5 -189.5t17.5 -165q4 -8 4 -22q0 -18 -13.5 -33t-35.5 -15q-23 0 -35.5 9.5t-17.5 23 t-6 30.5t-3 34q-6 55 -9 123.5t-5 141.5t-4 145.5t-6 133.5q0 10 -3.5 26.5t-3.5 31.5z" />
<glyph unicode="j" horiz-adv-x="417" d="M-125 -899q0 23 15.5 35t33.5 12q20 0 43 -11t45 -11q86 0 142.5 47t88 123.5t45 172t13.5 191.5v39q-2 70 -11 178.5t-22.5 235.5t-30 261t-35 256t-37 221t-34.5 155l-4 22q0 18 14.5 32.5t34.5 14.5q37 0 47 -37q14 -61 33.5 -158.5t39 -218t38 -257t33 -271.5 t23.5 -264t9 -234q0 -113 -17 -221t-61.5 -194t-119 -138.5t-189.5 -52.5q-18 0 -41.5 4t-45 12.5t-36 21.5t-14.5 34zM27 1303q0 25 17 42t44 17t43 -17.5t16 -41.5q0 -27 -16 -44.5t-43 -17.5t-44 17.5t-17 44.5z" />
<glyph unicode="k" horiz-adv-x="815" d="M41 1380q0 18 14.5 32.5t36.5 14.5q25 0 37 -18t12 -43v-38.5t1 -53.5t1 -58.5v-56.5q2 -180 4.5 -305t3.5 -208t2 -130t2 -71.5t1 -33v-14.5q57 33 128.5 88.5t129.5 120.5q45 51 65.5 80t50.5 29q18 0 34 -12.5t16 -34.5q0 -20 -25 -48t-47 -55q-49 -55 -100.5 -100 t-106.5 -86q51 -8 96 -14.5t90 -9.5t96.5 -5t114.5 -2q84 0 131 18.5t72 18.5q18 0 33.5 -13.5t15.5 -35.5q0 -29 -26.5 -45.5t-65.5 -25.5t-83 -12t-77 -3q-143 0 -274 13t-266 36q8 -74 8 -165t16 -175q0 -18 -13 -27.5t-34 -9.5q-37 0 -46 39t-13 105q-2 37 -4 75.5 t-4 92t-3.5 128t-4.5 184t-6 259t-7 354.5q0 8 -1 41t-2 71t-2 70.5t-1 38.5z" />
<glyph unicode="l" horiz-adv-x="360" d="M25 1274q0 18 12 32.5t35 14.5q27 0 41 -23.5t22 -58.5q12 -59 20.5 -161.5t14.5 -228.5t12 -264.5t13.5 -268.5t18.5 -242.5t28 -184.5q29 4 57.5 7.5t58.5 3.5q45 0 105 -13q41 -6 43 -45v-6q0 -25 -15.5 -36t-33.5 -11q-29 0 -60.5 7t-62.5 7q-39 0 -65.5 -10 t-49.5 -14h-4q-35 0 -57.5 70.5t-37 186.5t-22.5 264.5t-14 303t-14.5 302t-22.5 263.5q-4 41 -13 68t-9 37z" />
<glyph unicode="m" horiz-adv-x="827" d="M27 78q0 20 5 96t11 170t11 188.5t5 151.5v64q0 18 12.5 33.5t34.5 15.5q35 0 43.5 -22.5t8.5 -51.5q0 -55 -2 -111.5t-6 -111.5q47 98 93 144t91 46q23 0 49.5 -19.5t48.5 -74.5q20 31 54 53.5t79 22.5q51 0 89 -35t63.5 -87t41 -114.5t24 -117t11.5 -92.5t3 -44 q0 -51 -49 -51q-18 0 -32 13.5t-18 31.5q-2 53 -12 122t-27.5 130t-41 103t-52.5 42t-46 -20.5t-27.5 -53t-13.5 -71.5t-3 -76q0 -53 2 -94t2 -63q0 -27 -10 -46.5t-39 -19.5q-23 0 -35 14.5t-12 32.5q0 55 -2 126t-8 132.5t-18.5 104.5t-30.5 43q-16 0 -47 -39t-56 -90 q-12 -33 -29.5 -80t-32 -99.5t-24.5 -103.5t-10 -94q-2 -18 -15.5 -32.5t-33.5 -14.5q-18 0 -33.5 15t-15.5 34z" />
<glyph unicode="n" horiz-adv-x="614" d="M66 82q0 37 5 86t9 108q6 86 10 168t4 168l-4 238q0 49 49 49q18 0 32.5 -13.5t14.5 -35.5q0 -123 7 -246q29 37 71.5 73t114.5 36q59 0 95 -42t56.5 -103.5t26.5 -131t6 -127.5q0 -31 -8 -54.5t-41 -23.5q-23 0 -36 15.5t-13 34.5q0 70 -5 130t-16.5 106t-28 72.5 t-36.5 26.5q-43 0 -76 -30.5t-57.5 -80.5t-42 -112.5t-27.5 -126.5q-8 -53 -9 -104t-9 -99q-4 -28 -40 -28h-3q-20 0 -34.5 12t-14.5 35z" />
<glyph unicode="o" horiz-adv-x="507" d="M45 532q0 92 36 161t99 98q8 6 21 6q39 0 49 -47q100 -4 160.5 -78t60.5 -191q0 -51 -13.5 -96t-39 -80t-62.5 -55.5t-82 -20.5q-49 0 -91 21.5t-72.5 61.5t-48 96.5t-17.5 123.5zM141 532q0 -35 8.5 -70.5t24.5 -65t40.5 -49t59.5 -19.5q29 0 48.5 14t32 37.5t17.5 51.5 t5 52q0 70 -35 120t-98 50h-17q-14 0 -25.5 3t-17.5 18q-23 -25 -33 -63t-10 -79z" />
<glyph unicode="p" horiz-adv-x="552" d="M51 395q0 27 25 58q0 63 -3 92.5t-6.5 42t-6.5 17.5t-3 20q0 49 49 49q41 0 52.5 -37t15.5 -86q39 27 84 47t100 20q66 0 117 -41.5t51 -107.5q0 -51 -34.5 -96t-87 -81t-112 -59.5t-110.5 -31.5q8 -61 14.5 -142.5t11.5 -167.5t8 -169.5t3 -153.5q0 -43 -1 -90t-5 -90 q-2 -18 -15.5 -32.5t-33.5 -14.5t-34.5 14t-14.5 33q4 111 5 170t1 96q0 74 -7.5 169t-14.5 192.5t-14 186.5t-7 150q-27 12 -27 43zM172 422l4 -123q27 6 70 21.5t84 37t69.5 50t28.5 61.5q0 2 -1 11t-7 18.5t-20.5 16.5t-39.5 7q-51 0 -103 -31.5t-85 -68.5z" />
<glyph unicode="q" horiz-adv-x="614" d="M39 578q0 68 28.5 144.5t79 142t121 108.5t154.5 43q27 0 44 -13.5t17 -37.5q0 -47 -49 -47h-10q-63 0 -116.5 -39t-91.5 -92.5t-59.5 -113t-21.5 -98.5q0 -18 8.5 -34.5t30.5 -16.5q47 0 107.5 85t119.5 233l9 20q14 31 43 31q23 0 35 -13.5t12 -31.5v-139 q0 -119 4 -267.5t11 -299t19.5 -290t28.5 -241.5q20 18 46 40.5t51.5 42t50 32t45.5 12.5q20 0 34.5 -12t14.5 -35q0 -33 -29 -45q-51 -25 -103 -68t-100 -102q-16 -18 -36 -19q-41 0 -50 37q-20 88 -34.5 223.5t-24.5 291t-16 316t-9 300.5q-20 -39 -45.5 -75t-55.5 -63.5 t-63.5 -44t-68.5 -16.5q-18 0 -42 7t-43 24.5t-32.5 46t-13.5 74.5z" />
<glyph unicode="r" horiz-adv-x="776" d="M72 561q0 16 10 27q-2 41 -2 78q-2 33 -2 67.5v61.5q0 23 14 36t35 13q35 0 43 -24.5t8 -57.5q0 2 -1 -18.5t-1 -32.5q45 41 97.5 65.5t103.5 24.5q68 0 116 -51.5t48 -126.5q0 -55 -30 -107.5t-77 -95.5q23 0 71 -1t106.5 -6t120 -16.5t110.5 -31.5q24 -15 24 -41 q0 -25 -14 -37.5t-35 -12.5q-12 0 -24 7q-31 14 -85.5 22t-116 13.5t-120.5 6.5t-100 1q-27 0 -48.5 -1t-43.5 -8q-14 -4 -26.5 -10t-23.5 -6q-29 0 -41 23q2 -4 2 -17q0 -39 -1 -78t-1 -110q0 -43 2.5 -82t8.5 -53q10 -16 11 -29q0 -18 -14 -32.5t-34 -14.5q-41 0 -56.5 56 t-15.5 155q0 35 2 78t2 77q0 66 -3 129.5t-7 128.5q-12 14 -12 31zM180 567q0 -98 6 -196q6 16 24.5 22t37.5 15q35 14 69.5 38.5t63.5 54t46 61.5t17 63q0 33 -19 55t-50 22q-25 0 -53.5 -12t-56 -32.5t-50 -44t-35.5 -46.5z" />
<glyph unicode="s" horiz-adv-x="466" d="M33 -80q0 20 13 34.5t36 14.5t35 -17.5t28 -17.5q29 0 49.5 15.5t33 35t17.5 40t5 32.5q0 66 -28.5 131.5t-64.5 135t-65 145.5t-29 160q0 76 18.5 142.5t54.5 116.5t89 78.5t123 28.5q49 0 81 -10t49.5 -24.5t23.5 -30t6 -23.5q0 -47 -49 -47q-31 0 -49 25q-4 14 -62 14 q-59 0 -95 -28.5t-56.5 -69.5t-27.5 -88t-7 -84q0 -84 28.5 -153.5t64.5 -136.5t64.5 -134.5t28.5 -147.5q0 -35 -14.5 -73.5t-40 -71.5t-63 -54.5t-83.5 -21.5q-16 0 -35.5 5t-37 16.5t-29.5 27t-12 35.5z" />
<glyph unicode="t" horiz-adv-x="432" d="M-90 768q0 23 20.5 40t50 31.5t62.5 23.5t59 16q-4 86 -6 170t-2 176q0 74 1 145.5t5 145.5q0 20 13.5 33.5t33.5 13.5q49 0 50 -52q-4 -74 -5.5 -144.5t-1.5 -143.5q0 -82 2.5 -163t6.5 -161q86 23 182 42.5t188 21.5h17q45 -2 45 -50q0 -20 -12.5 -34.5t-32.5 -14.5 h-23q-27 0 -66.5 -5t-77.5 -11t-70 -12.5t-44 -8.5t-27.5 -5t-31 -7t-26.5 -8t-15 -6q12 -139 31.5 -315.5t52.5 -362.5q12 -74 25.5 -156t24.5 -160.5t17 -147.5t6 -118q0 -29 -10 -50t-39 -21q-23 0 -35 14t-12 33v24q0 47 -8 124t-20.5 164t-26.5 176t-27 159 q-35 203 -51 362.5t-24 253.5q-37 -10 -68 -21t-53 -30q-8 -8 -31 -8q-18 0 -32.5 12t-14.5 35z" />
<glyph unicode="u" horiz-adv-x="600" d="M59 410q0 100 13.5 159.5t54.5 59.5q23 0 36 -14.5t13 -34.5q0 -10 -10 -52.5t-10 -105.5q0 -35 1 -74t7 -70.5t17.5 -52t31.5 -20.5q37 0 65.5 34.5t49 90t33 123t16.5 135.5q4 74 13 99.5t40 25.5q51 0 51 -51q0 -4 -2 -8.5t-2 -12.5q0 -20 4 -60t11.5 -88.5 t16.5 -100.5t18.5 -98t17.5 -82t14 -50q14 -16 14 -33q0 -18 -13 -33.5t-36 -15.5q-39 0 -60.5 65.5t-43.5 194.5q-12 -43 -30.5 -85t-46.5 -73.5t-63.5 -52t-82.5 -20.5q-39 0 -65 25.5t-42 67.5t-23.5 96t-7.5 112z" />
<glyph unicode="v" horiz-adv-x="653" d="M29 664q0 16 12 31.5t35 15.5q31 0 43 -27q66 -125 117 -277.5t94 -302.5q37 82 70.5 190.5t58 221.5t40 218.5t15.5 178.5v17q0 49 47 49q29 0 39 -18.5t10 -47.5q0 -98 -21.5 -232t-56 -271.5t-80.5 -260t-96 -196.5q-12 -23 -39 -23q-37 0 -47 35l-53 178 q-41 129 -83 255t-101 243q-4 8 -4 23z" />
<glyph unicode="w" horiz-adv-x="856" d="M53 594q0 18 13.5 33.5t33.5 15.5q49 0 50 -47q0 -37 4 -92t12 -117.5t18.5 -124t21.5 -112t23.5 -81t22.5 -30.5q25 0 42 43t28.5 103.5t16.5 126t5 110.5q0 35 -5 65.5t-5 49.5q0 18 12 33.5t35 15.5q35 0 41 -34t18 -112q8 -45 22.5 -97t34 -96t45 -74t54.5 -30 q45 0 72.5 31t44 75t22.5 92t6 83q0 66 -11 131.5t-66 146.5q-39 8 -39 48q0 23 16.5 37t36.5 14q45 0 75.5 -43t49 -102.5t27 -125t8.5 -108.5q0 -78 -16.5 -145.5t-47.5 -119t-76 -81t-102 -29.5q-59 0 -102 38t-74 97q-23 -117 -66 -179t-102 -62q-41 0 -73 37.5 t-53.5 97t-35.5 133.5t-22.5 146.5t-11.5 136t-3 102.5z" />
<glyph unicode="x" horiz-adv-x="634" d="M-20 733q0 23 14 36t35 13q20 0 37 -16q6 -6 26.5 -32.5t48 -61.5t58 -75t57.5 -75t45 -60.5t23 -33.5q27 33 60.5 83t66 97t60.5 80t44 33q20 0 34.5 -15.5t14.5 -33.5q0 -14 -8 -25q-86 -141 -205 -293l4 -2q23 -23 49.5 -50.5t55 -54t58 -46t56.5 -25.5q35 -10 35 -47 q0 -23 -15.5 -35t-33.5 -12q-35 0 -73 21.5t-74.5 53t-68.5 65.5t-54 59q-23 -25 -56.5 -67t-68.5 -82t-68 -68.5t-53 -28.5q-23 0 -36 14t-13 33q0 20 14 35q57 59 109.5 115.5t103.5 119.5q-6 6 -27.5 33t-49 63.5t-59.5 77.5t-59.5 78t-48 63.5t-26.5 34.5q-12 12 -12 31 z" />
<glyph unicode="y" horiz-adv-x="702" d="M14 -1130q0 20 12.5 33.5t34.5 13.5q20 0 39 -19q29 -39 67 -56.5t71 -17.5q88 0 149.5 54.5t101 138.5t62 186.5t33 198.5t12.5 174t2 113q0 117 -5 230.5t-15 230.5q-6 57 -10.5 104t-7.5 90t-7 85t-10 89q-35 -80 -72 -150.5t-78 -125t-85 -86t-91 -31.5q-61 0 -94 37 t-48.5 87t-18.5 100t-3 79q0 35 2 77t8.5 79t19.5 61.5t38 24.5q23 0 36 -15.5t13 -33.5q0 -10 -2 -13q-12 -49 -15 -102t-3 -72q0 -98 17 -155.5t52 -57.5q106 0 293 475q16 37 25.5 55.5t37.5 18.5q47 0 48 -49v-19q0 -43 6 -90t13 -110.5t16.5 -147t15.5 -198.5 q10 -117 16 -233t6 -232q0 -39 -3 -126t-16 -193.5t-42 -220.5t-79 -207t-128 -153.5t-190 -60.5q-55 0 -112.5 26.5t-102.5 84.5q-8 8 -9 29z" />
<glyph unicode="z" horiz-adv-x="679" d="M70 635q0 23 15 36t34 13h6q14 0 23.5 -3t20.5 -7t28.5 -7t48.5 -3q37 0 67.5 5t61.5 11t63.5 12t73.5 8q18 0 33.5 -12t15.5 -35q0 -14 -8 -28q-86 -125 -145.5 -266.5t-96.5 -270.5q78 35 166 48.5t180 13.5q47 0 48 -50q0 -18 -13.5 -32.5t-32.5 -14.5q-49 0 -103 -5 t-106.5 -17.5t-100.5 -33t-83 -48.5q-16 -12 -30 -12q-29 0 -39.5 19t-10.5 42q16 61 38 134t49.5 150.5t63.5 156.5t81 153q-29 -4 -48.5 -8t-39 -7.5t-40 -6.5t-46.5 -3q-20 0 -50 2t-57.5 9.5t-47 20.5t-19.5 36z" />
<glyph unicode="{" horiz-adv-x="737" d="M55 559q0 20 12.5 32.5t32 24t45 25.5t50.5 39q61 59 96 114.5t35 108.5q0 45 -16.5 93t-37 101.5t-37 114t-16.5 131.5q0 47 18.5 100.5t54.5 98.5t87 75t117 30q27 0 52 -11.5t25 -44.5q0 -23 -15 -37t-36 -14q-8 0 -12 3t-14 3q-37 0 -69 -16.5t-55.5 -45t-36.5 -65.5 t-13 -76q0 -61 16 -116.5t35.5 -108.5t36 -107.5t16.5 -115.5q0 -78 -55.5 -166t-155.5 -164q47 -33 73.5 -81t40 -103t16.5 -113.5t5 -109.5t15.5 -107.5t36 -103.5t54 -80t68.5 -37q10 0 25.5 7t32.5 7q18 0 34.5 -14t16.5 -37q0 -20 -12.5 -32.5t-29 -19.5t-34.5 -9 t-33 -2q-53 -1 -100 30q-47 27 -80 75t-53.5 103.5t-29.5 110.5t-11 96q-2 66 -7 126.5t-20.5 109.5t-45.5 84t-85 47q-16 4 -26.5 17.5t-10.5 29.5z" />
<glyph unicode="|" horiz-adv-x="493" d="M182 1231v444q0 16 1 26.5t7 24.5q6 12 21.5 18.5t26.5 6.5q16 0 28.5 -12.5t12.5 -34.5q0 -39 -1.5 -95.5t-1.5 -120t-1 -130t-1 -125.5q2 -326 27 -637t53 -637q-2 -23 -14 -34t-29 -11q-31 0 -40 37t-15 94q-14 131 -27.5 285.5t-23.5 312.5t-16.5 309.5t-6.5 278.5z " />
<glyph unicode="}" horiz-adv-x="669" d="M45 1587q0 20 11.5 32.5t27.5 20t34.5 9.5t33.5 2q53 0 100 -31q47 -27 80 -75t52 -102t28.5 -109.5t9.5 -98.5q0 -61 3 -121.5t18.5 -111t46 -86t85.5 -48.5q14 -4 24.5 -17t10.5 -30q0 -20 -12 -32.5t-31.5 -23.5t-45 -25.5t-50.5 -39.5q-61 -59 -98 -114.5t-37 -108.5 q0 -45 16.5 -93t35 -101.5t34.5 -113.5t16 -132q0 -47 -19.5 -100.5t-56 -98.5t-89 -74.5t-115.5 -29.5q-27 0 -52.5 11t-25.5 44q0 23 16.5 37t36.5 14q8 0 11 -3t14 -3q37 0 69.5 17.5t56 46t38 65.5t14.5 78q0 61 -15.5 115.5t-35 107.5t-34.5 107.5t-15 113.5 q0 78 58 166t157 164q-47 33 -73 81t-38 103.5t-15 112.5t-3 111q0 51 -13.5 107t-36 103.5t-53.5 80t-67 36.5q-10 0 -26.5 -7t-33.5 -7q-18 0 -32.5 14.5t-14.5 36.5z" />
<glyph unicode="~" horiz-adv-x="649" d="M88 854v109q18 18 41 34q18 14 42 25.5t50 11.5q37 0 66.5 -16.5t57.5 -35.5t53.5 -35.5t56.5 -16.5q29 0 65.5 24.5t67.5 63.5v-109q-16 -18 -37 -32q-18 -12 -43 -22.5t-59 -10.5q-37 0 -67 16.5t-55.5 35.5t-51 35.5t-54.5 16.5q-53 0 -133 -94z" />
<glyph unicode="&#xa1;" horiz-adv-x="735" d="M180 -565q43 174 83 367.5t67 373.5l43 270q2 23 18.5 32t32.5 9t30.5 -12t14.5 -37q-20 -135 -40.5 -261t-43.5 -251t-49.5 -251t-61.5 -263q-4 -18 -18 -27.5t-25 -9.5q-29 0 -42 16.5t-9 43.5zM391 698q0 31 22.5 53.5t55.5 22.5q31 0 53.5 -22.5t22.5 -53.5 q0 -33 -22.5 -55t-53.5 -22q-33 0 -55.5 22t-22.5 55z" />
<glyph unicode="&#xa2;" horiz-adv-x="919" d="M139 702q0 84 21.5 166t65.5 154t112 130t160 95v76q0 37 9 66.5t44 29.5t44 -25.5t9 -58.5l-2 -53q45 12 100 12q52 0 107 -16q37 -10 37 -49q0 -23 -15.5 -36t-33.5 -13q-23 0 -46.5 6t-48.5 6q-55 0 -104 -14q-2 -98 -7 -190.5t-11.5 -185.5t-12.5 -189.5t-8 -200.5 q-2 -29 -2 -53.5v-41.5q0 -20 -2 -36q20 10 36.5 24t33.5 31q12 12 27.5 32.5t31.5 41t32.5 35t31.5 14.5q23 0 36 -12.5t15 -38.5q0 -10 -20.5 -47t-54.5 -78t-79 -73t-92 -32q2 -20 4 -57t2 -55q0 -23 -13.5 -37.5t-33.5 -14.5q-18 0 -29.5 9.5t-17.5 21.5t-8 25.5 t-2 23.5l-4 74q-63 6 -111.5 38t-83.5 78t-57.5 103t-35.5 114.5t-18.5 110t-5.5 90.5zM240 702q0 -55 13 -127.5t39.5 -138t67.5 -114t95 -54.5q2 37 3 69t3 79q4 100 9 191t10 178t9.5 173t8.5 177q-139 -70 -198.5 -183.5t-59.5 -249.5z" />
<glyph unicode="&#xa3;" horiz-adv-x="1071" d="M-2 197q0 37 14.5 61.5t36 38.5t46 20.5t44.5 6.5q74 0 138.5 -20.5t128.5 -45.5q27 59 42 112.5t23 94.5q8 47 10 86q-10 -2 -21 -3t-26 -1q-25 0 -55.5 11t-30.5 46q0 23 15.5 36t35.5 13q8 0 16.5 -2t18.5 -2q12 0 27.5 1t34.5 3q14 98 14 191.5t10 202.5 q2 27 14.5 71.5t36 87.5t61.5 74t95 31q51 0 86 -24.5t56.5 -60.5t29.5 -78t8 -77t-7 -78t-19.5 -82t-31 -65.5t-40.5 -26.5q-23 0 -37 16.5t-14 34.5q0 6 4 19q20 47 31.5 92t11.5 90q0 53 -18.5 96t-59.5 43q-12 0 -20.5 -3t-20.5 -13q-43 -43 -58.5 -106.5t-18.5 -135 t-1 -147.5t-10 -146q6 0 28.5 2.5t51.5 2.5q20 0 41.5 -2.5t39 -8.5t29 -16t11.5 -29q0 -23 -14.5 -36t-36.5 -13h-86h-39t-37 -2q-14 -78 -29.5 -166t-56.5 -174q92 -45 183 -75.5t189 -30.5q43 0 61.5 11t29 25.5t19.5 25.5t32 11q6 0 18 -4q33 -12 33 -47 q0 -37 -21.5 -60.5t-52 -36.5t-63.5 -19.5t-56 -6.5q-121 0 -218 32t-189 79q-12 8 -21 10q-43 -51 -104 -78.5t-127 -27.5q-86 0 -150.5 46t-64.5 126zM98 197q0 -20 12.5 -35t30 -23t37 -11t35.5 -3q35 0 69.5 12.5t61.5 34.5q-47 18 -101.5 33.5t-103.5 15.5 q-16 0 -28.5 -5t-12.5 -19z" />
<glyph unicode="&#xa5;" horiz-adv-x="933" d="M41 1380q0 18 14.5 35t38.5 17q33 0 43 -31q23 -49 37 -82t27.5 -61.5t30 -57.5t42.5 -70q37 -55 82 -113.5t90 -82.5q27 45 46.5 71.5t36 48t36 45t45.5 64.5q8 14 37 64.5t67 106t80 98.5t78 43q25 0 41 -25q8 -10 9 -27q0 -27 -23 -43q-27 -16 -54.5 -48t-53 -70.5 t-50 -80.5t-47.5 -75q-47 -72 -96 -134.5t-76 -109.5q2 -35 3 -62.5t1 -54.5v-37.5t-2 -37.5q12 2 23.5 4t23.5 6q16 4 55.5 13t82.5 9q12 0 31.5 -3t38 -12t31.5 -24.5t13 -39.5q0 -16 -13 -33t-36 -17q-29 0 -45 27q-68 0 -120 -14.5t-89 -20.5l-12 -168q14 4 37.5 7.5 t50.5 5.5t54.5 4t49.5 6q27 0 44.5 -12.5t17.5 -38.5q0 -23 -14.5 -37.5t-36.5 -14.5h-17q-61 0 -109 -7t-87 -17q-12 -129 -19 -258q-2 -20 -15 -34.5t-36 -14.5t-36 16t-13 35q0 59 5 116.5t9 114.5q-16 -4 -31.5 -7t-31.5 -7q-10 0 -34 -8t-56 -8q-25 0 -49.5 12 t-24.5 43q0 23 16.5 37t34.5 14q6 0 12.5 -3t10.5 -3q20 0 70 13.5t93 23.5l15 164q-57 -14 -123 -37t-115 -23q-23 0 -40 16.5t-17 34.5q0 23 15.5 38.5t35.5 15.5l27 4q61 14 111 27.5t110 29.5q2 25 2 50.5v49.5v91q-18 0 -38.5 12t-40 29.5t-36 36t-26.5 30.5 q-55 68 -89 118t-56.5 96t-42 93t-50.5 109q-4 12 -4 20z" />
<glyph unicode="&#xa6;" horiz-adv-x="493" d="M180 475v108.5t2 98.5q0 16 1 26.5t7 24.5q6 12 21.5 18.5t26.5 6.5q16 0 28.5 -11.5t12.5 -31.5v-4q-4 -86 -6.5 -186.5t-2.5 -198.5q0 -113 3 -204t10 -132q-2 -23 -14.5 -34t-28.5 -11q-31 0 -39 21.5t-11 47.5q-6 135 -8 249t-2 212zM180 1468v108.5t2 98.5 q0 16 1 26.5t7 24.5q6 12 21.5 18.5t26.5 6.5q16 0 28.5 -11t12.5 -32v-4q-4 -86 -6.5 -186.5t-2.5 -198.5q0 -113 3 -204t10 -132q-2 -23 -14.5 -34t-28.5 -11q-31 0 -39 21.5t-11 48.5q-6 135 -8 248.5t-2 211.5z" />
<glyph unicode="&#xa7;" horiz-adv-x="681" d="M115 41q0 18 14 33.5t37 15.5q25 0 39 -20.5t29.5 -44t37 -44t58.5 -20.5q68 0 94.5 33t26.5 78q0 68 -35 131t-94 147q-18 27 -42 58.5t-44.5 70.5t-35 85t-14.5 102q0 72 38 136t116 95q-27 33 -54.5 74t-50 86t-37 92t-14.5 94q0 59 20.5 104.5t54.5 77t77 49t86 19.5 q16 0 38.5 -2t46 -10t48.5 -24.5t45 -45.5q10 -14 10 -31q0 -18 -14 -33.5t-37 -15.5q-25 0 -41 21q-18 25 -40.5 33t-39.5 8q-45 0 -74.5 -14.5t-47 -37t-24.5 -49t-7 -49.5q0 -43 22 -98q29 -68 70 -127.5t80 -116.5t65.5 -117.5t26.5 -134.5q0 -84 -41 -131t-127 -76 q29 -45 59.5 -88t55 -87t41 -92t16.5 -103q0 -41 -14.5 -80t-42 -67.5t-69.5 -46t-97 -17.5q-43 0 -82 17.5t-68.5 43t-47 57t-17.5 62.5zM287 666q0 -29 10 -57.5t27 -69.5q37 0 66.5 14.5t43.5 32.5q14 29 15 63q0 39 -14.5 80t-37.5 80q-33 -4 -54 -20.5t-33.5 -38 t-17.5 -44t-5 -40.5z" />
<glyph unicode="&#xa8;" horiz-adv-x="546" d="M98 1272q0 27 17.5 43t42.5 16q27 0 44 -16.5t17 -42.5q0 -25 -17 -43.5t-44 -18.5q-25 0 -42.5 18.5t-17.5 43.5zM297 1276q0 27 17.5 43t41.5 16q27 0 44.5 -16t17.5 -43q0 -25 -17.5 -43.5t-44.5 -18.5q-25 0 -42 18.5t-17 43.5z" />
<glyph unicode="&#xa9;" horiz-adv-x="1030" d="M141 629q0 88 29 179t83 165t134 121t184 47q86 0 151.5 -36t111 -94.5t68 -133t22.5 -150.5q0 -88 -32 -156.5t-82 -115.5t-110.5 -72t-117.5 -25q-70 0 -123 27t-88 72t-53.5 103t-18.5 122q0 55 18.5 111.5t53.5 103.5t87 77t117 30q23 0 38.5 -12.5t15.5 -35.5 q0 -20 -14.5 -29t-35 -13.5t-42 -8.5t-35.5 -12q-55 -31 -84 -90.5t-29 -120.5q0 -47 11.5 -90t36 -75t60 -50t85.5 -18q37 0 82 17t82.5 52t63.5 87t26 122q0 63 -17.5 121.5t-51.5 103.5t-83 72t-113 27q-80 0 -143 -39t-107.5 -99.5t-67 -135.5t-22.5 -148 q0 -74 21.5 -136.5t59.5 -107.5t89.5 -70.5t112.5 -25.5q66 0 135.5 23.5t130.5 64.5q10 8 25 8q16 0 30.5 -14.5t14.5 -32.5q0 -23 -19 -35q-72 -49 -152.5 -76.5t-164.5 -27.5q-86 0 -154 37q-102 49 -160.5 155.5t-58.5 237.5z" />
<glyph unicode="&#xaa;" horiz-adv-x="421" d="M82 905q0 25 10 59.5t28.5 65.5t44 53.5t56.5 22.5q39 0 54.5 -15.5t15.5 -43.5v-54q0 -10 2 -33.5t7 -48t13.5 -44t20.5 -19.5q4 0 4 1t8 1q6 0 15.5 -6.5t9.5 -24.5q0 -20 -18.5 -25.5t-28.5 -5.5q-57 0 -82 136q-16 -35 -49 -60.5t-58 -25.5q-20 0 -36.5 16t-16.5 51z M143 922q1 -15 9 -15t20 13.5t23.5 33t20.5 40t13 36.5l2 6q-8 4 -10 4q-16 0 -29.5 -16t-24.5 -36.5t-17.5 -40t-6.5 -25.5z" />
<glyph unicode="&#xab;" d="M23 420q0 18 9 30.5t19 20.5q43 33 96.5 74t108.5 90t108.5 102.5t98.5 110.5q10 16 37 16q6 0 14 -2t14 -6q10 -6 17.5 -17.5t7.5 -25.5q0 -12 -12 -29q-88 -111 -192.5 -206t-196.5 -162q92 -68 196.5 -163t192.5 -206q12 -16 12 -29q0 -14 -7 -25t-18 -18 q-6 -4 -14 -6t-14 -2q-27 0 -37 17q-45 57 -98.5 110t-108.5 102.5t-108.5 90.5t-96.5 73q-10 10 -19 23.5t-9 36.5zM373 420q0 18 9 30.5t19 20.5q43 33 96.5 74t109 90t108.5 102.5t98 110.5q10 16 37 16q6 0 14 -2t15 -6q10 -6 17 -17.5t7 -25.5q0 -12 -12 -29 q-88 -111 -192.5 -206t-196.5 -162q92 -68 196.5 -163t192.5 -206q12 -16 12 -29q0 -14 -7 -25t-17 -18q-6 -4 -14.5 -6t-14.5 -2q-27 0 -37 17q-45 57 -98 110t-108.5 102.5t-109 90.5t-96.5 73q-10 10 -19 23.5t-9 36.5z" />
<glyph unicode="&#xac;" horiz-adv-x="4435" d="M72 -528q0 96 25.5 206.5t71.5 218t107.5 205t135.5 170.5q45 45 109.5 92.5t139 95.5t153.5 97t151 96q123 82 253 154t277 106q135 53 285.5 75t287.5 22q160 0 299.5 -28t260.5 -60q141 -37 278 -67t297 -58q27 -4 52.5 -8.5t54.5 -12.5q-63 41 -122 88t-104 100.5 t-72.5 113t-27.5 122.5q0 84 24.5 166t75.5 145.5t127 102.5t178 39q68 0 125.5 -20.5t99.5 -54.5t65.5 -80t23.5 -97q0 -55 -20.5 -111.5t-56.5 -102.5t-83 -75t-98 -29q-33 0 -72 13.5t-71.5 36t-55 55.5t-22.5 74q0 37 16 70.5t43 59t59.5 41t65.5 15.5t61.5 -14.5 t49 -37t31.5 -48t11 -45.5q0 -10 -2 -26.5t-10 -23.5q39 27 64.5 55.5t25.5 69.5q0 47 -19.5 85t-52 64.5t-76.5 41t-91 14.5q-80 0 -139.5 -38t-99.5 -91t-60.5 -113.5t-20.5 -105.5q0 -74 43 -139.5t135 -130.5q55 -39 118 -81t131.5 -82t144 -76t155.5 -60 q70 -14 130.5 -24.5t121 -18t126 -14.5t142.5 -15l23 -2q23 -6 29 -31q0 -16 -15.5 -26.5t-38 -15.5t-47 -7t-43.5 -2q-66 0 -131 5t-127 15q-160 -4 -304 -27.5t-279 -68.5t-272.5 -123t-260.5 -188q-74 -92 -126 -185.5t-95 -216.5l-19 -53q-33 -92 -59.5 -190.5 t-30.5 -190.5v-14q0 -61 31 -134t66 -132q92 -123 219 -197t264 -74q106 0 204.5 39t175.5 111t123 173t46 224q-2 16 -1 38t-7 40q-14 31 -45 86t-77 108.5t-104.5 93.5t-128.5 40q-16 0 -32.5 -2t-34.5 -9q-66 -20 -133.5 -54t-123 -86t-91 -123.5t-35.5 -170.5 q0 -45 10 -93t34.5 -87t65.5 -64.5t103 -25.5q59 0 111.5 28.5t91 77t61 112t22.5 132.5q0 59 -36.5 101.5t-87.5 42.5q-41 0 -78 -12.5t-66 -34t-46 -53.5t-17 -70q0 -49 34.5 -70t77.5 -21q33 0 48.5 13.5t23.5 31t16.5 30.5t26.5 13q14 0 23.5 -10t9.5 -24 q0 -25 -15.5 -53.5t-39 -52t-53 -40t-56.5 -16.5q-37 0 -69.5 22.5t-58.5 56.5t-40 71.5t-14 68.5q0 57 23.5 100t59 70t78.5 40t82 13q123 0 187.5 -65.5t64.5 -182.5q0 -90 -34.5 -162.5t-88 -123.5t-120 -79t-127.5 -28q-43 0 -98.5 19.5t-104.5 61.5t-84 109.5 t-35 166.5q0 106 51 201.5t133 166t180.5 112.5t194.5 42q82 0 154.5 -29t129 -81t94.5 -129t50 -171q35 -94 35 -170q0 -121 -58.5 -226.5t-152.5 -183t-213 -121.5t-238 -44q-311 0 -516 346q-72 102 -98.5 206.5t-26.5 229.5q0 233 94.5 415.5t264.5 340.5 q49 59 110.5 114.5t135.5 110.5q117 86 261 138.5t292 68.5q-47 10 -92.5 20.5t-90.5 20.5q-12 2 -48 10t-84 19.5t-102 23.5t-102.5 22.5t-84 16.5t-48.5 6q-88 0 -150.5 -41t-123.5 -139q-16 -27 -42 -62.5t-61 -70.5q-8 -23 -23 -48.5t-39 -46t-55.5 -33.5t-74.5 -13 q-47 0 -87 22.5t-69.5 58t-46 80.5t-16.5 90q0 33 11 65t33.5 56.5t55.5 40t76 15.5q49 0 79 -10.5t45 -25t19 -29.5t4 -24q0 -20 -4 -28q2 -2 2 -12q0 -35 -11 -55.5t-26.5 -31t-31 -14.5t-21.5 -4q-12 0 -31.5 8t-36 24.5t-28.5 39t-12 51.5q0 27 18 37q-41 -8 -56.5 -35 t-15.5 -55q0 -27 15.5 -50.5t39 -42t54.5 -28.5t61 -10q12 0 31 4t37 11t32.5 18.5t20.5 25.5q12 53 42 102.5t68 89t80 69.5t81 44q-109 23 -217.5 47.5t-218 45t-219 33.5t-220.5 13q-104 0 -204.5 -13t-204.5 -48q-104 -49 -203 -110.5t-197 -129.5q-242 -174 -421 -352 t-296 -368q-72 -117 -111.5 -257.5t-39.5 -289.5q0 -66 9 -132.5t30.5 -129t55.5 -116.5t83 -93q39 -20 87 -29.5t99 -9.5q76 0 162 19.5t159 57t121 92t48 124.5q0 53 -30 103t-76 90t-99 63.5t-98 23.5q-39 0 -70 -12q-92 -37 -133 -74t-41 -80q0 -72 41 -106.5t113 -34.5 q41 0 75.5 13.5t55.5 37.5q8 12 24 12q33 0 33 -32q0 -25 -20.5 -53.5t-51 -53t-65.5 -41t-62 -16.5q-53 0 -100 36t-78 109q-25 27 -37 60.5t-12 68.5q0 61 33 117.5t83 100.5t109.5 71t112.5 27q51 0 100 -24.5t92 -64.5t78 -90.5t56 -101.5q43 -72 68.5 -135.5 t25.5 -122.5q0 -74 -42 -132t-111.5 -98t-159 -60.5t-183.5 -20.5q-164 0 -286.5 68.5t-206.5 178t-126 244.5t-42 271zM137 -526q0 -86 18.5 -181.5t57.5 -181.5q-31 111 -31 236q0 156 45 306t117 273q98 160 237.5 313.5t329.5 301.5q-12 -10 -24.5 -16.5t-24.5 -14.5 l-63 -39q-8 -4 -16.5 -10t-18.5 -10q-82 -49 -162 -102.5t-145 -121.5q-68 -72 -126.5 -164t-101.5 -192t-67.5 -202.5t-24.5 -194.5zM649 -565q35 10 72 18t78 8q33 0 67.5 -6t81.5 -22q-68 61 -141 61q-37 0 -79 -15.5t-79 -43.5zM664 -958q10 -4 17 -5.5t17 -1.5 q19 0 25 2q-14 0 -28.5 2.5t-30.5 2.5zM692 -1225q10 -2 20.5 -2h20.5q86 0 165 17.5t137.5 51.5t93 84t34.5 113q0 20 -4 29q-12 -53 -49 -98q-72 -80 -183.5 -131t-234.5 -64zM2333 635q20 -6 23 -25.5t14 -38.5q25 0 49 25q-10 16 -29 26.5t-33 10.5q-6 2 -24 2z M3308 1290q0 -53 23.5 -77.5t41.5 -24.5q16 0 57 10l-12 -2q-27 0 -47 15.5t-20 48.5q0 6 3 17t9 22.5t16 20.5t23 9q31 0 30 -33l-2 -14q0 -10 7 -16q18 18 26 27.5t8 27.5q0 33 -23 46t-48 13q-10 0 -26.5 -3t-31 -12t-24.5 -27.5t-10 -47.5z" />
<glyph unicode="&#xad;" horiz-adv-x="722" d="M90 406q0 16 12.5 29.5t28.5 13.5q18 0 27 -9q23 -16 51.5 -22t62.5 -6q41 0 84 7t85 16t78 16.5t63 7.5q16 0 29.5 -7t17.5 -30q0 -39 -37 -47q-68 -8 -152 -27.5t-170 -19.5q-23 0 -54.5 4t-59 13t-47 23.5t-19.5 37.5z" />
<glyph unicode="&#xae;" horiz-adv-x="956" d="M82 623q0 88 29.5 180t85 166.5t136.5 123t183 48.5q92 0 160.5 -40t115 -103.5t69 -142.5t22.5 -157q0 -94 -31 -170q-35 -90 -119 -145q4 2 15 2q16 0 29.5 -14.5t13.5 -32.5q0 -23 -30 -46.5t-77 -45t-106.5 -34.5t-118.5 -13q-80 0 -148.5 31.5t-120 88t-80 134 t-28.5 170.5zM172 623q0 -47 9.5 -93.5t29.5 -85.5q16 -35 37.5 -60.5t46.5 -43.5q-6 35 -10 92t-6.5 133t-4.5 165t-6 188q-47 -70 -71.5 -146t-24.5 -149zM354 1001q2 -6 2 -16v-26.5t2 -38.5q23 16 54.5 29.5t70.5 13.5q18 0 43 -5.5t45.5 -18.5t35 -39t14.5 -66 q0 -35 -15.5 -70t-42.5 -64q47 0 105.5 -7t124.5 -23q0 76 -17.5 145.5t-53.5 121.5t-87 83t-119 31q-84 0 -162 -50zM362 795q2 -29 2.5 -60.5t0.5 -60.5q84 35 124.5 82t40.5 78q0 25 -10 32.5t-37 7.5q-37 0 -70.5 -26.5t-50.5 -52.5zM369 594q2 -41 4 -87t5 -87t7 -72 t10 -43q16 -8 35 -11t35 -3q82 0 143.5 25.5t108.5 58.5q-16 -8 -37 -14.5t-39 -6.5q-39 0 -45 37q0 20 11 31.5t26.5 19t34 12.5t34.5 15q53 43 74 113q-63 16 -118.5 22t-102.5 6q-100 0 -138 -7t-48 -9z" />
<glyph unicode="&#xaf;" horiz-adv-x="720" d="M78 1296q0 16 12 29.5t29 13.5q18 0 26 -8q23 -16 51.5 -22t63.5 -6q41 0 84 7t85 16t78 16.5t62 7.5q16 0 29.5 -7t17.5 -30q0 -39 -36 -47q-68 -8 -152 -27.5t-170 -19.5q-23 0 -54.5 4t-59 13t-47 23.5t-19.5 36.5z" />
<glyph unicode="&#xb0;" horiz-adv-x="626" d="M135 1255q0 45 17.5 83t43 65t56.5 41t57 14q43 0 79 -19.5t62.5 -51t42 -72.5t15.5 -82q0 -31 -12.5 -62.5t-37 -58.5t-60.5 -44t-83 -17q-27 0 -51.5 9t-44.5 25q-41 29 -62.5 76t-21.5 94zM223 1255q0 -41 26.5 -79.5t65.5 -38.5q31 0 51.5 10t33 25.5t16.5 32t4 26.5 q0 27 -11.5 52.5t-27.5 45t-36 30.5t-36 11q-4 0 -17 -5t-28.5 -17.5t-28 -35t-12.5 -57.5z" />
<glyph unicode="&#xb2;" horiz-adv-x="593" d="M33 1251q0 2 10 30t36.5 59.5t75 57t126.5 25.5q66 0 107.5 -30.5t65 -76.5t33 -99.5t9.5 -96.5q0 -90 -23.5 -182t-64.5 -178q-4 -6 -9 -19q10 -6 24.5 -9t31.5 -7q31 -6 57.5 -16.5t26.5 -38.5q0 -20 -13.5 -33.5t-33.5 -13.5q-41 0 -76 11t-64 28q-23 -29 -57.5 -59 t-79.5 -30q-18 0 -40.5 6.5t-41 20.5t-31 36.5t-12.5 53.5q0 57 40 92t99 35q27 0 49.5 -5t43.5 -19q39 76 59 159.5t20 167.5q0 92 -29.5 151.5t-90.5 59.5q-39 0 -63.5 -8t-42 -20.5t-27 -26.5t-17.5 -29q-10 -16 -21.5 -28.5t-29.5 -12.5q-20 0 -33.5 13.5t-13.5 31.5z M186 690q0 -23 29 -22q29 0 64 45q-12 6 -23 9t-27 3q-43 0 -43 -35z" />
<glyph unicode="&#xb3;" horiz-adv-x="579" d="M84 1356q0 10 8 21.5t19 17.5q2 0 6 4v-2q16 8 48 19t85 11q37 0 64.5 -16t46 -44t27.5 -62.5t9 -69.5q0 -45 -20.5 -93t-52.5 -87q57 -20 99 -63.5t42 -121.5q0 -63 -23.5 -118.5t-58.5 -97.5t-77 -67.5t-79 -27.5q-21 0 -41 12q-14 6 -25 21.5t-11 32.5q0 16 12 31.5 t35 15.5t34 -19q12 0 36 19.5t46.5 50.5t39 69.5t16.5 77.5t-15.5 59.5t-37 31t-44 12.5t-36.5 2h-23q-16 0 -28.5 13t-12.5 34q0 16 14.5 32.5t32.5 35.5q29 29 56.5 64.5t27.5 80.5q0 59 -18.5 78.5t-34.5 19.5q-51 0 -71.5 -6t-31.5 -12q-10 -6 -16 -6q-16 0 -31.5 12 t-15.5 35z" />
<glyph unicode="&#xb4;" horiz-adv-x="636" d="M211 1444q0 27 20 41q47 39 77 76.5t49.5 67.5t36 48.5t34.5 18.5q23 0 36 -17.5t13 -36.5q0 -16 -18.5 -47.5t-46 -66.5t-60 -69t-59.5 -54q-14 -10 -31 -10q-20 0 -35.5 13t-15.5 36z" />
<glyph unicode="&#xb6;" horiz-adv-x="1138" d="M4 1073q0 98 42 170t112.5 120t163 76.5t190.5 45.5q14 35 53 35q25 0 39 -25q68 6 135 6q25 0 47.5 -1t44.5 -3q0 16 -4 37q0 23 14.5 39t39.5 16q33 0 40 -22.5t11 -55.5l2 -24q45 0 91 -14.5t75 -26.5q31 -14 30 -47q0 -23 -15 -36t-34 -13q-16 0 -53 13t-84 21 q2 -23 8 -98.5t14.5 -186t18.5 -245.5t20.5 -275.5t19.5 -276.5t17.5 -247.5t12.5 -189.5t4 -103q0 -23 -12.5 -37t-34.5 -16h-4q-18 0 -32.5 15.5t-17.5 33.5q-4 76 -10 189.5t-14 249t-19.5 282t-23.5 291.5q-39 -12 -89 -21.5t-100 -15.5q27 -221 46.5 -441t19.5 -425 v-94q0 -55 -10 -100.5t-47 -45.5q-16 0 -31.5 9.5t-15.5 50.5l2 24v156q0 199 -18.5 418t-45.5 440q-16 -2 -31.5 -2h-31.5q-84 0 -178.5 14.5t-173 53t-131 107.5t-52.5 175zM618 1395q16 -131 35 -272.5t37 -288.5q14 2 26.5 3t26.5 5q41 6 77 14t65 16q-12 154 -22.5 289 t-20.5 234q-25 4 -50.5 4h-52.5h-59.5t-61.5 -4z" />
<glyph unicode="&#xb7;" horiz-adv-x="395" d="M137 604q0 31 22.5 53.5t55.5 22.5q31 0 53.5 -22.5t22.5 -53.5q0 -33 -22.5 -55.5t-53.5 -22.5q-33 0 -55.5 22.5t-22.5 55.5z" />
<glyph unicode="&#xb8;" horiz-adv-x="727" d="M137 -193q0 20 12.5 31.5t28.5 11.5q20 0 26.5 -9t9.5 -20t11 -20.5t37 -9.5q61 0 88 24.5t27 47.5q0 33 -13.5 54.5t-37.5 21.5q-10 0 -27.5 -7.5t-28.5 -7.5q-18 0 -31.5 13.5t-13.5 29.5q0 10 5.5 29.5t13.5 40t15 41t11 33.5q6 31 37 30q18 0 29.5 -12t11.5 -29 q0 -14 -9 -38.5t-13 -41.5q59 0 96 -40.5t37 -106.5q0 -43 -18.5 -74.5t-47 -51t-63.5 -29t-68 -9.5q-34 0 -63 10q-23 10 -42.5 33t-19.5 55z" />
<glyph unicode="&#xb9;" horiz-adv-x="389" d="M104 1333q0 53 7.5 73.5t42.5 20.5q47 0 47 -94q0 -98 10 -279.5t68 -443.5q0 -2 2 -4v-2q0 -20 -12.5 -33.5t-35.5 -13.5q-16 0 -28 10.5t-17 26.5v-2q-29 129 -45 244.5t-25 212t-11.5 169t-2.5 115.5z" />
<glyph unicode="&#xba;" horiz-adv-x="401" d="M96 1006q0 47 18.5 81.5t51.5 49.5q4 4 10 4q21 0 25 -25q53 -2 83.5 -40t30.5 -97q0 -53 -27.5 -91t-74.5 -38q-49 0 -83 43t-34 113zM158 999q0 -29 13 -56.5t42 -27.5q20 0 29.5 23t9.5 45q0 27 -13.5 45.5t-39.5 18.5q-18 0 -23 8q-18 -16 -18 -56z" />
<glyph unicode="&#xbb;" d="M78 18q0 12 12 29q88 111 192.5 206t196.5 163q-92 68 -196.5 163t-192.5 205q-12 16 -12 29q0 14 7 25.5t17 17.5q6 4 14.5 6t14.5 2q27 0 37 -16q45 -57 98 -110.5t108.5 -102.5t109 -90t96.5 -74q10 -8 19 -20.5t9 -30.5q0 -23 -9 -36t-19 -24q-43 -33 -96.5 -73.5 t-109 -90t-108.5 -102.5t-98 -110q-10 -16 -37 -17q-6 0 -14 2t-15 6q-10 6 -17 17.5t-7 25.5zM428 18q0 12 12 29q88 111 192.5 206t196.5 163q-92 68 -196.5 163t-192.5 205q-12 16 -12 29q0 14 7 25.5t18 17.5q6 4 14 6t14 2q27 0 37 -16q45 -57 98.5 -110.5 t108.5 -102.5t108.5 -90t96.5 -74q10 -8 19 -20.5t9 -30.5q0 -23 -9 -36t-19 -24q-43 -33 -96.5 -73.5t-108.5 -90t-108.5 -102.5t-98.5 -110q-10 -16 -37 -17q-6 0 -14 2t-14 6q-10 6 -17.5 17.5t-7.5 25.5z" />
<glyph unicode="&#xbc;" horiz-adv-x="1140" d="M113 1257q0 53 7 74t42 21q47 0 47 -95q0 -98 10 -280t68 -445q0 -2 2 -4v-2q0 -20 -12.5 -33.5t-34.5 -13.5q-16 0 -28.5 10.5t-16.5 26.5v-2q-29 129 -45.5 246t-25.5 213t-11 168.5t-2 115.5zM195 86q0 12 10 29.5t24 38.5q10 12 18.5 27.5t14.5 27.5 q61 129 122.5 263t119.5 261q49 109 93 206t82 174t67.5 130t48.5 72q4 4 24 4t31.5 -13.5t11.5 -31.5q0 -14 -8 -30.5t-20 -33.5q-8 -10 -18.5 -27.5t-20.5 -33.5q-18 -35 -51 -104.5t-74 -158.5t-86 -189.5t-88 -194.5l-19 -41q-47 -104 -82 -184t-51 -109 q-31 -59 -53.5 -94t-50.5 -35q-31 0 -41 29q-4 6 -4 18zM668 397q0 14 11 49t26.5 77t32 84t24.5 73q23 76 41 146.5t28 111.5q10 35 11 37q8 33 47 33t43 -39q10 -51 19.5 -143.5t19.5 -196.5l16 -168q14 -2 34.5 -5t39 -9.5t31 -17.5t12.5 -30q0 -23 -14.5 -35t-34.5 -12 q-10 0 -23 4q-8 2 -16 5.5t-21 3.5l2 -33q6 -98 7 -172q0 -20 -1.5 -41t-5.5 -38.5t-15 -27.5t-30 -10q-8 0 -12 2q-33 10 -33 33v22q4 20 4 60q0 41 -3 96t-7 117q-63 -2 -112.5 -10.5t-59.5 -12.5h-12q-20 0 -34.5 12.5t-14.5 34.5zM793 457q23 4 47 6t53 2q-4 47 -8 93 t-8 89l-7 53z" />
<glyph unicode="&#xbd;" horiz-adv-x="1290" d="M111 1257q0 53 8 74t43 21q31 0 39 -55.5t12 -162t18.5 -259t57.5 -349.5q0 -20 -12.5 -33.5t-34.5 -13.5q-16 0 -28.5 10.5t-16.5 26.5v-2q-29 129 -46.5 246t-26.5 213t-11 168.5t-2 115.5zM197 86q0 20 25.5 54t41.5 69q8 16 26.5 56t43 93.5t52.5 112.5t52.5 112.5 t43 93.5t24.5 56q55 123 103 230.5t88 186.5t70 124t52 45q23 0 34 -13.5t11 -31.5q0 -27 -22.5 -52.5t-46.5 -72.5q-20 -37 -57.5 -117t-83.5 -179t-95 -207.5t-92 -205t-77 -170t-46 -102.5q-29 -59 -51.5 -93t-50.5 -36q-31 0 -41 29q-4 6 -4 18zM715 709q0 2 10 28.5 t36.5 58t75 57.5t126.5 26q66 0 107.5 -31t65 -76t32 -98t8.5 -96q0 -92 -23 -183.5t-63 -177.5q-4 -6 -9 -18q14 -8 38 -12.5t46.5 -10.5t39 -18.5t16.5 -32.5t-14.5 -33.5t-35.5 -13.5q-41 0 -74.5 11t-62.5 28q-23 -29 -57.5 -58.5t-79.5 -29.5q-18 0 -40.5 6t-41 20.5 t-31 37t-12.5 52.5q0 59 40 94t99 35q27 0 49.5 -5t43.5 -19q39 76 59 159t20 169q0 92 -29.5 150t-90.5 58q-63 0 -93 -19t-46.5 -42t-27 -42t-34.5 -19q-20 0 -33.5 13t-13.5 32zM868 145q0 -23 29 -22q29 0 64 45q-12 6 -23 10t-27 4q-23 0 -33 -10t-10 -27z" />
<glyph unicode="&#xbe;" horiz-adv-x="1136" d="M16 1260q0 10 7.5 21t17.5 17q2 0 6 5q16 6 49 17t86 11q37 0 64.5 -17.5t46 -45t28 -61t9.5 -68.5q0 -45 -20.5 -93.5t-53.5 -87.5q57 -20 98 -64t41 -120q0 -63 -22.5 -118.5t-58 -98.5t-76.5 -68.5t-78 -27.5q-21 0 -41 12q-14 6 -25.5 21.5t-11.5 31.5q0 18 12 33.5 t35 15.5t35 -18q12 0 35.5 19.5t46 50t39 69.5t16.5 78q0 37 -15.5 58.5t-37 30.5t-44 11.5t-36.5 2.5h-23q-16 0 -28.5 14t-12.5 35q0 16 14.5 32.5t33.5 34.5q29 29 56.5 65t27.5 81q0 59 -20.5 79.5t-37.5 20.5q-39 0 -63.5 -8t-34.5 -14t-17 -7q-18 0 -32.5 13.5 t-14.5 36.5zM250 86q0 12 10 29.5t25 38.5q10 12 18 27.5t14 27.5q61 129 123 263t119 261q49 109 93 206t82 174t67.5 130t48.5 72q4 4 24 4t32 -13.5t12 -31.5q0 -14 -8.5 -30.5t-20.5 -33.5q-8 -10 -18.5 -27.5t-20.5 -33.5q-18 -35 -51 -104.5t-74 -158.5t-86 -189.5 t-88 -194.5l-19 -41q-47 -104 -81.5 -184t-51.5 -109q-31 -59 -53 -94t-51 -35q-31 0 -41 29q-4 6 -4 18zM723 397q0 14 11 49t26.5 77t32 84t24.5 73q23 76 41.5 146.5t28.5 111.5q10 35 10 37q8 33 47 33t43 -39q10 -51 19.5 -143.5t19.5 -196.5l16 -168l35 -5t39.5 -9.5 t30.5 -17.5t12 -30q0 -23 -14.5 -35t-34.5 -12q-10 0 -23 4q-8 2 -16 5.5t-20 3.5l2 -33q6 -98 6 -172q0 -20 -1 -41t-5 -38.5t-15.5 -27.5t-29.5 -10q-9 0 -13 2q-33 10 -32 33v22q4 20 4 60q0 41 -3 96t-8 117q-63 -2 -112 -10.5t-60 -12.5h-12q-20 0 -34.5 12.5 t-14.5 34.5zM848 457q23 4 47.5 6t52.5 2q-4 47 -8 93t-8 89l-6 53z" />
<glyph unicode="&#xbf;" horiz-adv-x="794" d="M127 -559q0 61 22.5 118.5t45.5 102.5q35 74 70.5 143.5t65 138t48 136t18.5 139.5q0 4 -4 22.5t-8 39t-9 37t-5 20.5q-2 6 -2 16q0 18 13 35t38 17q29 0 36 -10.5t11 -20.5l2 -8q2 -12 7 -33t10.5 -42.5t8.5 -41t3 -31.5q0 -98 -29 -189t-69 -176t-82 -165t-68 -156 q-10 -27 -16.5 -50.5t-6.5 -41.5q0 -31 29 -54.5t113 -23.5q49 0 92 16.5t59 16.5q18 0 33.5 -15.5t15.5 -37.5q0 -23 -21.5 -38.5t-52 -24.5t-65.5 -13t-61 -4q-49 0 -93.5 10t-77 31.5t-52 55.5t-19.5 81zM279 668q0 31 22.5 53t54.5 22q31 0 53.5 -22.5t22.5 -52.5 q0 -33 -22.5 -55.5t-53.5 -22.5q-33 0 -55 22.5t-22 55.5z" />
<glyph unicode="&#xc0;" horiz-adv-x="1112" d="M-272 -72q0 23 14 38.5t37 15.5q57 0 105 16t92 51t88.5 89.5t93.5 129.5q59 86 122.5 218t116.5 280q45 129 76 259t41 245q-12 113 -12 207q0 20 10 38.5t35 18.5q27 0 41 -17.5t20 -44t7 -58.5t1 -62v-45.5t-2 -34.5q10 -78 22.5 -162t31.5 -174q20 -98 45.5 -195.5 t54.5 -189.5q61 10 122.5 16t123.5 6q37 0 62.5 -9t25.5 -44q0 -23 -16.5 -36t-36.5 -13h-56q-94 0 -192 -18q76 -188 152.5 -309t162.5 -156q16 -4 25.5 -17.5t9.5 -29.5q0 -23 -15.5 -37.5t-35.5 -14.5q-4 0 -17 5q-61 23 -115.5 73.5t-103.5 122.5t-90 160t-74 186 l-20 -4q-86 -16 -171 -32.5t-173 -26.5q-51 -102 -108.5 -192.5t-125 -157t-144.5 -105.5t-165 -39q-25 0 -45 10.5t-20 38.5zM330 1859q0 18 13.5 36t35.5 18q18 0 34.5 -18.5t36 -48.5t49.5 -67.5t77 -76.5q20 -14 20 -41q0 -23 -15.5 -36t-35.5 -13q-17 0 -31 10 q-27 20 -59.5 54t-60 69t-46 66.5t-18.5 47.5zM389 481q68 10 135.5 23.5t137.5 25.5q2 2 6 2q-33 104 -59.5 212t-47.5 212q-35 -123 -77 -243.5t-95 -231.5z" />
<glyph unicode="&#xc1;" horiz-adv-x="1112" d="M-272 -72q0 23 14 38.5t37 15.5q57 0 105 16t92 51t88.5 89.5t93.5 129.5q59 86 122.5 218t116.5 280q45 129 76 259t41 245q-12 113 -12 207q0 20 10 38.5t35 18.5q27 0 41 -17.5t20 -44t7 -58.5t1 -62v-45.5t-2 -34.5q10 -78 22.5 -162t31.5 -174q20 -98 45.5 -195.5 t54.5 -189.5q61 10 122.5 16t123.5 6q37 0 62.5 -9t25.5 -44q0 -23 -16.5 -36t-36.5 -13h-56q-94 0 -192 -18q76 -188 152.5 -309t162.5 -156q16 -4 25.5 -17.5t9.5 -29.5q0 -23 -15.5 -37.5t-35.5 -14.5q-4 0 -17 5q-61 23 -115.5 73.5t-103.5 122.5t-90 160t-74 186 l-20 -4q-86 -16 -171 -32.5t-173 -26.5q-51 -102 -108.5 -192.5t-125 -157t-144.5 -105.5t-165 -39q-25 0 -45 10.5t-20 38.5zM389 481q68 10 135.5 23.5t137.5 25.5q2 2 6 2q-33 104 -59.5 212t-47.5 212q-35 -123 -77 -243.5t-95 -231.5zM485 1669q0 27 20 41 q47 39 77 76.5t49.5 67.5t36 48.5t34.5 18.5q23 0 36 -17.5t13 -36.5q0 -16 -18.5 -47.5t-46 -66.5t-60 -69t-59.5 -54q-14 -10 -31 -10q-20 0 -35.5 13t-15.5 36z" />
<glyph unicode="&#xc2;" horiz-adv-x="1112" d="M-272 -72q0 23 14 38.5t37 15.5q57 0 105 16t92 51t88.5 89.5t93.5 129.5q59 86 122.5 218t116.5 280q45 129 76 259t41 245q-12 113 -12 207q0 20 10 38.5t35 18.5q27 0 41 -17.5t20 -44t7 -58.5t1 -62v-45.5t-2 -34.5q10 -78 22.5 -162t31.5 -174q20 -98 45.5 -195.5 t54.5 -189.5q61 10 122.5 16t123.5 6q37 0 62.5 -9t25.5 -44q0 -23 -16.5 -36t-36.5 -13h-56q-94 0 -192 -18q76 -188 152.5 -309t162.5 -156q16 -4 25.5 -17.5t9.5 -29.5q0 -23 -15.5 -37.5t-35.5 -14.5q-4 0 -17 5q-61 23 -115.5 73.5t-103.5 122.5t-90 160t-74 186 l-20 -4q-86 -16 -171 -32.5t-173 -26.5q-51 -102 -108.5 -192.5t-125 -157t-144.5 -105.5t-165 -39q-25 0 -45 10.5t-20 38.5zM370 1603q0 23 17 37q14 12 48 50t64 81q8 10 21.5 20.5t31.5 10.5t32 -10t22 -21q31 -43 64.5 -81t47.5 -50q16 -14 17 -37q0 -14 -12.5 -24 t-28.5 -10q-12 0 -29 12q-6 4 -21.5 19.5t-33 33.5t-33.5 37.5t-25 30.5l-24 -30t-33.5 -38t-33 -33.5t-21.5 -19.5q-16 -12 -29 -12q-16 0 -28.5 10t-12.5 24zM389 481q68 10 135.5 23.5t137.5 25.5q2 2 6 2q-33 104 -59.5 212t-47.5 212q-35 -123 -77 -243.5t-95 -231.5z " />
<glyph unicode="&#xc3;" horiz-adv-x="1112" d="M-272 -72q0 23 14 38.5t37 15.5q57 0 105 16t92 51t88.5 89.5t93.5 129.5q59 86 122.5 218t116.5 280q45 129 76 259t41 245q-12 113 -12 207q0 20 10 38.5t35 18.5q27 0 41 -17.5t20 -44t7 -58.5t1 -62v-45.5t-2 -34.5q10 -78 22.5 -162t31.5 -174q20 -98 45.5 -195.5 t54.5 -189.5q61 10 122.5 16t123.5 6q37 0 62.5 -9t25.5 -44q0 -23 -16.5 -36t-36.5 -13h-56q-94 0 -192 -18q76 -188 152.5 -309t162.5 -156q16 -4 25.5 -17.5t9.5 -29.5q0 -23 -15.5 -37.5t-35.5 -14.5q-4 0 -17 5q-61 23 -115.5 73.5t-103.5 122.5t-90 160t-74 186 l-20 -4q-86 -16 -171 -32.5t-173 -26.5q-51 -102 -108.5 -192.5t-125 -157t-144.5 -105.5t-165 -39q-25 0 -45 10.5t-20 38.5zM332 1619q0 16 13.5 35t31 35t33.5 27.5t25 15.5q31 10 53 10q29 0 47 -10t33 -20l18 -13q16 -10 32.5 -17t25.5 -7q14 0 27 9t24 52q10 39 45 39 q23 0 34 -17.5t11 -33.5q0 -33 -13.5 -60.5t-34 -47t-45 -30t-44.5 -10.5q-37 0 -74 18.5t-66 41.5q-10 8 -14 9t-6 1q-10 0 -20.5 -8t-51.5 -51q-2 -2 -11 -8.5t-26 -10.5q-6 0 -12 2q-35 16 -35 49zM389 481q68 10 135.5 23.5t137.5 25.5q2 2 6 2q-33 104 -59.5 212 t-47.5 212q-35 -123 -77 -243.5t-95 -231.5z" />
<glyph unicode="&#xc4;" horiz-adv-x="1112" d="M-272 -72q0 23 14 38.5t37 15.5q57 0 105 16t92 51t88.5 89.5t93.5 129.5q59 86 122.5 218t116.5 280q45 129 76 259t41 245q-12 113 -12 207q0 20 10 38.5t35 18.5q27 0 41 -17.5t20 -44t7 -58.5t1 -62v-45.5t-2 -34.5q10 -78 22.5 -162t31.5 -174q20 -98 45.5 -195.5 t54.5 -189.5q61 10 122.5 16t123.5 6q37 0 62.5 -9t25.5 -44q0 -23 -16.5 -36t-36.5 -13h-56q-94 0 -192 -18q76 -188 152.5 -309t162.5 -156q16 -4 25.5 -17.5t9.5 -29.5q0 -23 -15.5 -37.5t-35.5 -14.5q-4 0 -17 5q-61 23 -115.5 73.5t-103.5 122.5t-90 160t-74 186 l-20 -4q-86 -16 -171 -32.5t-173 -26.5q-51 -102 -108.5 -192.5t-125 -157t-144.5 -105.5t-165 -39q-25 0 -45 10.5t-20 38.5zM389 481q68 10 135.5 23.5t137.5 25.5q2 2 6 2q-33 104 -59.5 212t-47.5 212q-35 -123 -77 -243.5t-95 -231.5zM389 1673q0 27 17.5 43t42.5 16 q27 0 44 -16.5t17 -42.5q0 -25 -17 -43.5t-44 -18.5q-25 0 -42.5 18.5t-17.5 43.5zM588 1677q0 27 17.5 43t41.5 16q27 0 44.5 -16t17.5 -43q0 -25 -17.5 -43.5t-44.5 -18.5q-25 0 -42 18.5t-17 43.5z" />
<glyph unicode="&#xc5;" horiz-adv-x="1112" d="M-272 -72q0 23 14 38.5t37 15.5q57 0 105 16t92 51t88.5 89.5t93.5 129.5q59 86 122.5 218t116.5 280q45 129 76 259t41 245q-12 113 -12 207q0 20 10 38.5t35 18.5q27 0 41 -17.5t20 -44t7 -58.5t1 -62v-45.5t-2 -34.5q10 -78 22.5 -162t31.5 -174q20 -98 45.5 -195.5 t54.5 -189.5q61 10 122.5 16t123.5 6q37 0 62.5 -9t25.5 -44q0 -23 -16.5 -36t-36.5 -13h-56q-94 0 -192 -18q76 -188 152.5 -309t162.5 -156q16 -4 25.5 -17.5t9.5 -29.5q0 -23 -15.5 -37.5t-35.5 -14.5q-4 0 -17 5q-61 23 -115.5 73.5t-103.5 122.5t-90 160t-74 186 l-20 -4q-86 -16 -171 -32.5t-173 -26.5q-51 -102 -108.5 -192.5t-125 -157t-144.5 -105.5t-165 -39q-25 0 -45 10.5t-20 38.5zM389 481q68 10 135.5 23.5t137.5 25.5q2 2 6 2q-33 104 -59.5 212t-47.5 212q-35 -123 -77 -243.5t-95 -231.5zM401 1798q0 31 12.5 59.5t32 51 t45 36t52.5 13.5q31 0 59.5 -15.5t50 -40t34.5 -56t13 -64.5q0 -25 -10 -50.5t-29.5 -47t-48 -36t-65.5 -14.5q-23 0 -43.5 8.5t-36.5 20.5q-31 23 -48.5 59.5t-17.5 75.5zM489 1798q0 -25 14.5 -53.5t43.5 -28.5q43 0 55 23.5t12 36.5q0 14 -6 31.5t-16.5 32t-23.5 24.5 t-27 10q-2 0 -10.5 -3t-17.5 -11t-16.5 -22.5t-7.5 -39.5z" />
<glyph unicode="&#xc6;" horiz-adv-x="1484" d="M-272 -72q0 23 14 38.5t37 15.5q70 0 133 28.5t124.5 92t124 164t130.5 243.5q-54 -8 -107 -12q-23 4 -32 15t-9 26q0 20 18.5 29.5t46.5 14.5t61.5 7t62.5 6q33 82 63.5 169t55 173t41 170t22.5 162q-12 113 -12 207q0 20 10 38.5t35 18.5q27 0 41 -17.5t20 -44t7 -58.5 t1 -62v-13v-33.5t-2 -33.5q16 -131 44 -281.5t69 -304.5q35 10 66.5 17.5t66.5 15.5q-6 180 -6 354q0 84 4 168t19 170q-23 -4 -46.5 -12t-44.5 -8q-18 0 -34.5 14t-16.5 37t17.5 36t43 20t53.5 11t50 9q0 25 21.5 39t35.5 14q33 0 48 -31q86 16 169.5 25.5t172.5 9.5h22 q20 0 45 -1t45.5 -7t33.5 -17.5t13 -29.5t-14 -34t-35 -16l-141 5q-84 0 -165 -12.5t-167 -28.5q-16 -90 -22.5 -179.5t-6.5 -181.5v-332q143 29 252 37q33 -8 33 -41t-37 -41q-55 -4 -115.5 -13t-123.5 -21v-355q0 -53 2 -90t2 -80l24 -37q51 12 100.5 16.5t98.5 4.5 q70 0 136.5 -4t129.5 -4q20 0 34.5 -14.5t14.5 -37.5q0 -20 -14 -34.5t-35 -14.5l-276 4h-52.5t-54.5 -2q12 -10 26.5 -17t26 -14.5t18.5 -16.5t7 -25q0 -23 -15.5 -37.5t-35.5 -14.5q-16 0 -36 9.5t-41.5 24t-40.5 30.5t-34 33q-23 -6 -43 -19.5t-39 -13.5 q-18 0 -34.5 14.5t-16.5 36.5q0 29 27 43l18 12q2 6 3 12.5t1 16.5q-70 102 -118 225t-93 275q-61 -16 -122.5 -30.5t-120.5 -27.5q-55 -127 -119 -244.5t-139.5 -207.5t-164.5 -144.5t-194 -54.5q-25 0 -45 10.5t-20 38.5zM446 618q45 10 91.5 21.5t93.5 22.5 q-23 80 -41.5 157.5t-28.5 136.5q-20 -72 -50 -159.5t-65 -178.5zM748 610q4 -16 10 -30.5t10 -28.5q23 -66 48.5 -126t53.5 -120v334z" />
<glyph unicode="&#xc7;" horiz-adv-x="831" d="M51 651q0 152 37 299.5t117 271.5t202.5 213t294.5 124q23 0 41.5 -11.5t18.5 -38.5q0 -41 -41 -51q-147 -27 -255 -104.5t-176.5 -187t-102 -242.5t-33.5 -273q0 -117 29.5 -238.5t92 -222t157.5 -164t226 -63.5q25 0 37.5 4t19.5 10.5t14 10.5t20 4q18 0 32 -15 q16 -16 17 -36q0 -23 -15.5 -38.5t-37 -24.5t-46 -12t-41.5 -3q-16 0 -31.5 1t-31.5 3q-2 -16 -10 -38t-13 -38q59 0 96.5 -41t37.5 -106q0 -43 -18.5 -75t-47.5 -51.5t-63.5 -28.5t-67.5 -9q-35 0 -64 10q-23 10 -42 32.5t-19 55.5q0 20 12.5 31.5t28.5 11.5q20 0 26.5 -9 t9.5 -20.5t11 -20.5t37 -9q61 0 88 24.5t27 46.5q0 33 -13.5 54.5t-38.5 21.5q-10 0 -27.5 -7t-27.5 -7q-18 0 -31.5 13t-13.5 30q0 10 5 29.5t13.5 40t15.5 41t11 32.5q-123 33 -211 115t-145.5 189.5t-84 229.5t-26.5 236z" />
<glyph unicode="&#xc8;" horiz-adv-x="786" d="M37 1442q0 23 17.5 36t43 20t53 11t50.5 9q0 25 21.5 39t35.5 14q33 0 47 -31q86 16 173 25.5t192 9.5q20 0 44.5 -1t45 -7t34 -17.5t13.5 -29.5q0 -20 -14.5 -35t-34.5 -15l-111 5q-92 0 -181 -11.5t-181 -29.5q-16 -90 -22.5 -179.5t-6.5 -181.5q0 -55 1 -111.5 t3 -111.5q86 23 164 44t162 36l14 2q29 0 39 -18.5t10 -32.5q0 -16 -11 -30.5t-30 -19.5q-90 -23 -174 -40t-162 -46v-438q0 -100 -6 -213q57 16 113.5 21.5t112.5 5.5q70 0 136 -4t130 -4q20 0 34.5 -14.5t14.5 -37.5q0 -20 -14.5 -34.5t-34.5 -14.5l-266 8h-17 q-66 0 -142.5 -13t-139.5 -48q-12 -6 -25 -6q-18 0 -34.5 14.5t-16.5 36.5q0 29 26 43l19 12q6 25 8 64t2 78q0 35 -1 62.5t-1 43.5q0 102 -3 200.5t-5 203.5q-4 0 -13.5 2t-18.5 7t-15 15t-6 27q0 18 7 28.5t15 16.5t16.5 8t12.5 6q-2 61 -3 124t-1 128q0 84 4 168t18 170 q-23 -4 -46 -12t-44 -8q-18 0 -34.5 14t-16.5 37zM258 1886q0 18 13.5 36t35.5 18q18 0 34.5 -18.5t36 -48.5t49.5 -67.5t77 -76.5q20 -14 20 -41q0 -23 -15.5 -36t-35.5 -13q-17 0 -31 10q-27 20 -59.5 54t-60 69t-46 66.5t-18.5 47.5z" />
<glyph unicode="&#xc9;" horiz-adv-x="786" d="M37 1442q0 23 17.5 36t43 20t53 11t50.5 9q0 25 21.5 39t35.5 14q33 0 47 -31q86 16 173 25.5t192 9.5q20 0 44.5 -1t45 -7t34 -17.5t13.5 -29.5q0 -20 -14.5 -35t-34.5 -15l-111 5q-92 0 -181 -11.5t-181 -29.5q-16 -90 -22.5 -179.5t-6.5 -181.5q0 -55 1 -111.5 t3 -111.5q86 23 164 44t162 36l14 2q29 0 39 -18.5t10 -32.5q0 -16 -11 -30.5t-30 -19.5q-90 -23 -174 -40t-162 -46v-438q0 -100 -6 -213q57 16 113.5 21.5t112.5 5.5q70 0 136 -4t130 -4q20 0 34.5 -14.5t14.5 -37.5q0 -20 -14.5 -34.5t-34.5 -14.5l-266 8h-17 q-66 0 -142.5 -13t-139.5 -48q-12 -6 -25 -6q-18 0 -34.5 14.5t-16.5 36.5q0 29 26 43l19 12q6 25 8 64t2 78q0 35 -1 62.5t-1 43.5q0 102 -3 200.5t-5 203.5q-4 0 -13.5 2t-18.5 7t-15 15t-6 27q0 18 7 28.5t15 16.5t16.5 8t12.5 6q-2 61 -3 124t-1 128q0 84 4 168t18 170 q-23 -4 -46 -12t-44 -8q-18 0 -34.5 14t-16.5 37zM363 1692q0 27 20 41q47 39 77 76.5t49.5 67.5t36 48.5t34.5 18.5q23 0 36 -17.5t13 -36.5q0 -16 -18.5 -47.5t-46 -66.5t-60 -69t-59.5 -54q-14 -10 -31 -10q-20 0 -35.5 13t-15.5 36z" />
<glyph unicode="&#xca;" horiz-adv-x="786" d="M37 1442q0 23 17.5 36t43 20t53 11t50.5 9q0 25 21.5 39t35.5 14q33 0 47 -31q86 16 173 25.5t192 9.5q20 0 44.5 -1t45 -7t34 -17.5t13.5 -29.5q0 -20 -14.5 -35t-34.5 -15l-111 5q-92 0 -181 -11.5t-181 -29.5q-16 -90 -22.5 -179.5t-6.5 -181.5q0 -55 1 -111.5 t3 -111.5q86 23 164 44t162 36l14 2q29 0 39 -18.5t10 -32.5q0 -16 -11 -30.5t-30 -19.5q-90 -23 -174 -40t-162 -46v-438q0 -100 -6 -213q57 16 113.5 21.5t112.5 5.5q70 0 136 -4t130 -4q20 0 34.5 -14.5t14.5 -37.5q0 -20 -14.5 -34.5t-34.5 -14.5l-266 8h-17 q-66 0 -142.5 -13t-139.5 -48q-12 -6 -25 -6q-18 0 -34.5 14.5t-16.5 36.5q0 29 26 43l19 12q6 25 8 64t2 78q0 35 -1 62.5t-1 43.5q0 102 -3 200.5t-5 203.5q-4 0 -13.5 2t-18.5 7t-15 15t-6 27q0 18 7 28.5t15 16.5t16.5 8t12.5 6q-2 61 -3 124t-1 128q0 84 4 168t18 170 q-23 -4 -46 -12t-44 -8q-18 0 -34.5 14t-16.5 37zM258 1671q0 23 17 37q14 12 48 50t64 81q8 10 21.5 20.5t31.5 10.5t32 -10t22 -21q31 -43 64.5 -81t47.5 -50q16 -14 17 -37q0 -14 -12.5 -24t-28.5 -10q-12 0 -29 12q-6 4 -21.5 19.5t-33 33.5t-33.5 37.5t-25 30.5 l-24 -30t-33.5 -38t-33 -33.5t-21.5 -19.5q-16 -12 -29 -12q-16 0 -28.5 10t-12.5 24z" />
<glyph unicode="&#xcb;" horiz-adv-x="786" d="M37 1442q0 23 17.5 36t43 20t53 11t50.5 9q0 25 21.5 39t35.5 14q33 0 47 -31q86 16 173 25.5t192 9.5q20 0 44.5 -1t45 -7t34 -17.5t13.5 -29.5q0 -20 -14.5 -35t-34.5 -15l-111 5q-92 0 -181 -11.5t-181 -29.5q-16 -90 -22.5 -179.5t-6.5 -181.5q0 -55 1 -111.5 t3 -111.5q86 23 164 44t162 36l14 2q29 0 39 -18.5t10 -32.5q0 -16 -11 -30.5t-30 -19.5q-90 -23 -174 -40t-162 -46v-438q0 -100 -6 -213q57 16 113.5 21.5t112.5 5.5q70 0 136 -4t130 -4q20 0 34.5 -14.5t14.5 -37.5q0 -20 -14.5 -34.5t-34.5 -14.5l-266 8h-17 q-66 0 -142.5 -13t-139.5 -48q-12 -6 -25 -6q-18 0 -34.5 14.5t-16.5 36.5q0 29 26 43l19 12q6 25 8 64t2 78q0 35 -1 62.5t-1 43.5q0 102 -3 200.5t-5 203.5q-4 0 -13.5 2t-18.5 7t-15 15t-6 27q0 18 7 28.5t15 16.5t16.5 8t12.5 6q-2 61 -3 124t-1 128q0 84 4 168t18 170 q-23 -4 -46 -12t-44 -8q-18 0 -34.5 14t-16.5 37zM276 1702q0 27 17.5 43t42.5 16q27 0 44 -16.5t17 -42.5q0 -25 -17 -43.5t-44 -18.5q-25 0 -42.5 18.5t-17.5 43.5zM475 1706q0 27 17.5 43t41.5 16q27 0 44.5 -16t17.5 -43q0 -25 -17.5 -43.5t-44.5 -18.5q-25 0 -42 18.5 t-17 43.5z" />
<glyph unicode="&#xcc;" horiz-adv-x="655" d="M63 1534q0 16 10.5 31.5t32.5 19.5q25 6 56 10t63.5 7.5t63 4.5t53.5 1q45 0 97.5 -1t88.5 -5q18 -2 30.5 -15.5t12.5 -32.5q0 -20 -13 -34.5t-36 -14.5h-192v-20q0 -10 1 -18.5t1 -16.5q6 -127 14 -242.5t12 -232.5q4 -86 5.5 -162t1.5 -149q0 -129 -4.5 -255 t-12.5 -274q14 2 29.5 2h30.5q29 0 61.5 -2t61 -9t48 -20.5t21.5 -35.5q0 -23 -14.5 -37.5t-34.5 -14.5q-18 0 -57 8.5t-82 8.5q-59 0 -119 -8.5t-100 -20.5q-6 -2 -15 -2q-23 0 -38 14.5t-15 34.5t11 32.5t28.5 21t39 13.5t42.5 9q8 133 11 256t3 244q0 215 -9 425t-26 447 q-29 -2 -56.5 -10t-51.5 -8q-20 0 -37 14t-17 37zM141 1917q0 18 13.5 36t35.5 18q18 0 34.5 -18.5t36 -48.5t49.5 -67.5t77 -76.5q20 -14 20 -41q0 -23 -15.5 -36t-35.5 -13q-17 0 -31 10q-27 20 -59.5 54t-60 69t-46 66.5t-18.5 47.5z" />
<glyph unicode="&#xcd;" horiz-adv-x="655" d="M63 1534q0 16 10.5 31.5t32.5 19.5q25 6 56 10t63.5 7.5t63 4.5t53.5 1q45 0 97.5 -1t88.5 -5q18 -2 30.5 -15.5t12.5 -32.5q0 -20 -13 -34.5t-36 -14.5h-192v-20q0 -10 1 -18.5t1 -16.5q6 -127 14 -242.5t12 -232.5q4 -86 5.5 -162t1.5 -149q0 -129 -4.5 -255 t-12.5 -274q14 2 29.5 2h30.5q29 0 61.5 -2t61 -9t48 -20.5t21.5 -35.5q0 -23 -14.5 -37.5t-34.5 -14.5q-18 0 -57 8.5t-82 8.5q-59 0 -119 -8.5t-100 -20.5q-6 -2 -15 -2q-23 0 -38 14.5t-15 34.5t11 32.5t28.5 21t39 13.5t42.5 9q8 133 11 256t3 244q0 215 -9 425t-26 447 q-29 -2 -56.5 -10t-51.5 -8q-20 0 -37 14t-17 37zM221 1723q0 27 20 41q47 39 77 76.5t49.5 67.5t36 48.5t34.5 18.5q23 0 36 -17.5t13 -36.5q0 -16 -18.5 -47.5t-46 -66.5t-60 -69t-59.5 -54q-14 -10 -31 -10q-20 0 -35.5 13t-15.5 36z" />
<glyph unicode="&#xce;" horiz-adv-x="655" d="M63 1534q0 16 10.5 31.5t32.5 19.5q25 6 56 10t63.5 7.5t63 4.5t53.5 1q45 0 97.5 -1t88.5 -5q18 -2 30.5 -15.5t12.5 -32.5q0 -20 -13 -34.5t-36 -14.5h-192v-20q0 -10 1 -18.5t1 -16.5q6 -127 14 -242.5t12 -232.5q4 -86 5.5 -162t1.5 -149q0 -129 -4.5 -255 t-12.5 -274q14 2 29.5 2h30.5q29 0 61.5 -2t61 -9t48 -20.5t21.5 -35.5q0 -23 -14.5 -37.5t-34.5 -14.5q-18 0 -57 8.5t-82 8.5q-59 0 -119 -8.5t-100 -20.5q-6 -2 -15 -2q-23 0 -38 14.5t-15 34.5t11 32.5t28.5 21t39 13.5t42.5 9q8 133 11 256t3 244q0 215 -9 425t-26 447 q-29 -2 -56.5 -10t-51.5 -8q-20 0 -37 14t-17 37zM121 1695q0 23 17 37q14 12 48 50t64 81q8 10 21.5 20.5t31.5 10.5t32 -10t22 -21q31 -43 64.5 -81t47.5 -50q16 -14 17 -37q0 -14 -12.5 -24t-28.5 -10q-12 0 -29 12q-6 4 -21.5 19.5t-33 33.5t-33.5 37.5t-25 30.5 l-24 -30t-33.5 -38t-33 -33.5t-21.5 -19.5q-16 -12 -29 -12q-16 0 -28.5 10t-12.5 24z" />
<glyph unicode="&#xcf;" horiz-adv-x="655" d="M63 1534q0 16 10.5 31.5t32.5 19.5q25 6 56 10t63.5 7.5t63 4.5t53.5 1q45 0 97.5 -1t88.5 -5q18 -2 30.5 -15.5t12.5 -32.5q0 -20 -13 -34.5t-36 -14.5h-192v-20q0 -10 1 -18.5t1 -16.5q6 -127 14 -242.5t12 -232.5q4 -86 5.5 -162t1.5 -149q0 -129 -4.5 -255 t-12.5 -274q14 2 29.5 2h30.5q29 0 61.5 -2t61 -9t48 -20.5t21.5 -35.5q0 -23 -14.5 -37.5t-34.5 -14.5q-18 0 -57 8.5t-82 8.5q-59 0 -119 -8.5t-100 -20.5q-6 -2 -15 -2q-23 0 -38 14.5t-15 34.5t11 32.5t28.5 21t39 13.5t42.5 9q8 133 11 256t3 244q0 215 -9 425t-26 447 q-29 -2 -56.5 -10t-51.5 -8q-20 0 -37 14t-17 37zM135 1729q0 27 17.5 43t42.5 16q27 0 44 -16.5t17 -42.5q0 -25 -17 -43.5t-44 -18.5q-25 0 -42.5 18.5t-17.5 43.5zM334 1733q0 27 17.5 43t41.5 16q27 0 44.5 -16t17.5 -43q0 -25 -17.5 -43.5t-44.5 -18.5q-25 0 -42 18.5 t-17 43.5z" />
<glyph unicode="&#xd0;" horiz-adv-x="978" d="M12 1524q0 23 15.5 37t33.5 14q115 0 216.5 -26.5t186.5 -69.5t152.5 -100.5t114.5 -118.5q102 -131 145.5 -285t43.5 -305q0 -123 -35 -257t-109 -247t-188.5 -186.5t-274.5 -73.5q-12 0 -34.5 3t-46 11t-41 23.5t-17.5 40.5q0 23 16.5 38t36.5 15q12 0 18.5 -5 t12.5 -10.5t18.5 -10.5t36.5 -5q131 0 226.5 61.5t158 158t92 214t29.5 230.5t-26.5 229.5t-87 220t-157.5 185t-237 125.5q0 -154 5.5 -346.5t5.5 -387.5q59 10 114.5 23.5t91.5 13.5q16 0 29.5 -7t17.5 -30q0 -39 -36 -47q-47 -6 -100.5 -17t-112.5 -22q6 -137 15 -262 t26 -227q0 -16 -10.5 -37t-32.5 -21q-23 0 -38.5 10.5t-19.5 32.5q-16 104 -25.5 231.5t-15.5 264.5h-8q-23 0 -54.5 4t-59 13.5t-47 23.5t-19.5 37q0 16 12 29.5t29 13.5q18 0 26 -8q23 -16 51.5 -22.5t63.5 -6.5h2q0 205 -5 407.5t-5 362.5q-23 4 -56.5 6t-65.5 7.5 t-54.5 17.5t-22.5 37z" />
<glyph unicode="&#xd1;" horiz-adv-x="905" d="M6 932q0 104 2 205.5t6 203.5q0 20 15.5 35t36.5 15q25 0 43 -25q39 -66 88 -147.5t101 -174t107.5 -187.5t107.5 -186t97 -171t80 -142q4 23 4 47.5t2 57.5q4 111 6.5 195.5t2.5 152.5q0 80 -3.5 145.5t-7.5 132t-12 143.5t-16 181q-6 47 -13 74q-4 12 -8 22 q-8 4 -16 13q-16 16 -17 45q0 23 15.5 36t34.5 13q31 0 48 -17.5t27 -44.5q12 -37 19.5 -74.5t11.5 -66.5q10 -100 17.5 -176t11.5 -143.5t6 -135t2 -147.5q0 -35 -2 -91t-6 -120.5t-7.5 -131.5t-7.5 -123t-6 -95t-2 -49q0 -20 -13 -37t-36 -17q-16 0 -27.5 7.5t-22.5 25 t-26.5 47t-42.5 76.5q-10 18 -47 82t-87 152t-107.5 187t-108.5 189.5t-91 159t-54 92.5q-2 -59 -2 -116.5v-116.5q0 -219 11 -436t40 -422q0 -25 -14.5 -41.5t-36.5 -16.5q-18 0 -32 12.5t-18 30.5q-29 211 -41 430.5t-12 442.5zM102 1628q0 16 13.5 35t31 35t33.5 27.5 t25 15.5q31 10 53 10q29 0 47 -10t33 -20l18 -13q16 -10 32.5 -17t25.5 -7q14 0 27 9t24 52q10 39 45 39q23 0 34 -17.5t11 -33.5q0 -33 -13.5 -60.5t-34 -47t-45 -30t-44.5 -10.5q-37 0 -74 18.5t-66 41.5q-10 8 -14 9t-6 1q-10 0 -20.5 -8t-51.5 -51q-2 -2 -11 -8.5 t-26 -10.5q-6 0 -12 2q-35 16 -35 49z" />
<glyph unicode="&#xd2;" horiz-adv-x="849" d="M12 842q0 45 3.5 110.5t12.5 138t29.5 143.5t56.5 128t88 92t128 35q16 0 35 -14q27 6 55 6q49 0 113.5 -34t122 -116t97.5 -220t40 -345q0 -180 -34 -315.5t-89 -226.5t-125.5 -137t-142.5 -46q-86 0 -147.5 45t-105.5 116.5t-71 161t-41 178.5t-19.5 169t-5.5 131z M113 840q0 -51 5 -122t18.5 -148.5t35 -153.5t54 -136.5t76.5 -98.5t104 -38q39 0 88 34t93 107.5t74.5 192.5t30.5 289q0 203 -36.5 324.5t-85 186t-93.5 84t-61 19.5q-33 0 -69 -20.5t-70 -73.5q-12 -23 -41 -22q-27 0 -45 24q-27 -45 -42.5 -105.5t-23.5 -123t-10 -120.5 t-2 -97v-2zM197 1794q0 18 13.5 36t35.5 18q18 0 34.5 -18.5t36 -48.5t49.5 -67.5t77 -76.5q20 -14 20 -41q0 -23 -15.5 -36t-35.5 -13q-17 0 -31 10q-27 20 -59.5 54t-60 69t-46 66.5t-18.5 47.5z" />
<glyph unicode="&#xd3;" horiz-adv-x="849" d="M12 842q0 45 3.5 110.5t12.5 138t29.5 143.5t56.5 128t88 92t128 35q16 0 35 -14q27 6 55 6q49 0 113.5 -34t122 -116t97.5 -220t40 -345q0 -180 -34 -315.5t-89 -226.5t-125.5 -137t-142.5 -46q-86 0 -147.5 45t-105.5 116.5t-71 161t-41 178.5t-19.5 169t-5.5 131z M113 840q0 -51 5 -122t18.5 -148.5t35 -153.5t54 -136.5t76.5 -98.5t104 -38q39 0 88 34t93 107.5t74.5 192.5t30.5 289q0 203 -36.5 324.5t-85 186t-93.5 84t-61 19.5q-33 0 -69 -20.5t-70 -73.5q-12 -23 -41 -22q-27 0 -45 24q-27 -45 -42.5 -105.5t-23.5 -123t-10 -120.5 t-2 -97v-2zM322 1608q0 27 20 41q47 39 77 76.5t49.5 67.5t36 48.5t34.5 18.5q23 0 36 -17.5t13 -36.5q0 -16 -18.5 -47.5t-46 -66.5t-60 -69t-59.5 -54q-14 -10 -31 -10q-20 0 -35.5 13t-15.5 36z" />
<glyph unicode="&#xd4;" horiz-adv-x="849" d="M12 842q0 45 3.5 110.5t12.5 138t29.5 143.5t56.5 128t88 92t128 35q16 0 35 -14q27 6 55 6q49 0 113.5 -34t122 -116t97.5 -220t40 -345q0 -180 -34 -315.5t-89 -226.5t-125.5 -137t-142.5 -46q-86 0 -147.5 45t-105.5 116.5t-71 161t-41 178.5t-19.5 169t-5.5 131z M113 840q0 -51 5 -122t18.5 -148.5t35 -153.5t54 -136.5t76.5 -98.5t104 -38q39 0 88 34t93 107.5t74.5 192.5t30.5 289q0 203 -36.5 324.5t-85 186t-93.5 84t-61 19.5q-33 0 -69 -20.5t-70 -73.5q-12 -23 -41 -22q-27 0 -45 24q-27 -45 -42.5 -105.5t-23.5 -123t-10 -120.5 t-2 -97v-2zM209 1566q0 23 17 37q14 12 48 50t64 81q8 10 21.5 20.5t31.5 10.5t32 -10t22 -21q31 -43 64.5 -81t47.5 -50q16 -14 17 -37q0 -14 -12.5 -24t-28.5 -10q-12 0 -29 12q-6 4 -21.5 19.5t-33 33.5t-33.5 37.5t-25 30.5l-24 -30t-33.5 -38t-33 -33.5t-21.5 -19.5 q-16 -12 -29 -12q-16 0 -28.5 10t-12.5 24z" />
<glyph unicode="&#xd5;" horiz-adv-x="849" d="M12 842q0 45 3.5 110.5t12.5 138t29.5 143.5t56.5 128t88 92t128 35q16 0 35 -14q27 6 55 6q49 0 113.5 -34t122 -116t97.5 -220t40 -345q0 -180 -34 -315.5t-89 -226.5t-125.5 -137t-142.5 -46q-86 0 -147.5 45t-105.5 116.5t-71 161t-41 178.5t-19.5 169t-5.5 131z M113 840q0 -51 5 -122t18.5 -148.5t35 -153.5t54 -136.5t76.5 -98.5t104 -38q39 0 88 34t93 107.5t74.5 192.5t30.5 289q0 203 -36.5 324.5t-85 186t-93.5 84t-61 19.5q-33 0 -69 -20.5t-70 -73.5q-12 -23 -41 -22q-27 0 -45 24q-27 -45 -42.5 -105.5t-23.5 -123t-10 -120.5 t-2 -97v-2zM155 1581q0 16 13.5 35t31 35t33.5 27.5t25 15.5q31 10 53 10q29 0 47 -10t33 -20l18 -13q16 -10 32.5 -17t25.5 -7q14 0 27 9t24 52q10 39 45 39q23 0 34 -17.5t11 -33.5q0 -33 -13.5 -60.5t-34 -47t-45 -30t-44.5 -10.5q-37 0 -74 18.5t-66 41.5q-10 8 -14 9 t-6 1q-10 0 -20.5 -8t-51.5 -51q-2 -2 -11 -8.5t-26 -10.5q-6 0 -12 2q-35 16 -35 49z" />
<glyph unicode="&#xd6;" horiz-adv-x="849" d="M12 842q0 45 3.5 110.5t12.5 138t29.5 143.5t56.5 128t88 92t128 35q16 0 35 -14q27 6 55 6q49 0 113.5 -34t122 -116t97.5 -220t40 -345q0 -180 -34 -315.5t-89 -226.5t-125.5 -137t-142.5 -46q-86 0 -147.5 45t-105.5 116.5t-71 161t-41 178.5t-19.5 169t-5.5 131z M113 840q0 -51 5 -122t18.5 -148.5t35 -153.5t54 -136.5t76.5 -98.5t104 -38q39 0 88 34t93 107.5t74.5 192.5t30.5 289q0 203 -36.5 324.5t-85 186t-93.5 84t-61 19.5q-33 0 -69 -20.5t-70 -73.5q-12 -23 -41 -22q-27 0 -45 24q-27 -45 -42.5 -105.5t-23.5 -123t-10 -120.5 t-2 -97v-2zM215 1614q0 27 17.5 43t42.5 16q27 0 44 -16.5t17 -42.5q0 -25 -17 -43.5t-44 -18.5q-25 0 -42.5 18.5t-17.5 43.5zM414 1618q0 27 17.5 43t41.5 16q27 0 44.5 -16t17.5 -43q0 -25 -17.5 -43.5t-44.5 -18.5q-25 0 -42 18.5t-17 43.5z" />
<glyph unicode="&#xd7;" horiz-adv-x="724" d="M66 172q0 6 4 14.5t23.5 32t61.5 69.5t119 126l23 24q-29 27 -61.5 57.5t-67.5 73.5l-21 25q-10 14 -18 27.5t-8 27.5q0 12 10 26.5t31 14.5q16 0 26 -12l45 -55q35 -43 66 -72t59 -55q37 35 73 66.5t85 74.5q23 20 54.5 44t47.5 24t27.5 -13.5t11.5 -29.5t-14 -29 q-29 -25 -45 -38t-23.5 -19.5t-10.5 -8.5l-3 -2q-39 -33 -69.5 -60.5t-67.5 -64.5q39 -33 81 -74.5t95 -107.5q10 -14 10 -27q0 -14 -11 -27.5t-30 -13.5q-23 0 -34 17q-53 63 -93.5 103t-79.5 73q-35 -39 -70.5 -77t-66 -69.5t-53 -54t-31.5 -32.5l-10 -11q-16 -8 -27 -8 q-20 0 -29 13.5t-9 27.5z" />
<glyph unicode="&#xd8;" horiz-adv-x="849" d="M10 -66.5q0 7.5 4 15.5q39 61 74 123.5t68 126.5q-43 72 -71 162t-42 179t-19.5 168.5t-5.5 133.5q0 45 3.5 110.5t12.5 138t29.5 143.5t56.5 128t88 92t128 35q16 0 35 -14q27 6 55 6q55 0 129 -44t135 -153q31 55 61.5 109.5t63.5 107.5q10 10 19.5 15.5t25.5 7.5h2 q29 -2 40 -16.5t11 -30.5q0 -10 -2 -15.5t-4 -9.5q-43 -72 -84 -142.5t-82 -142.5q27 -78 42.5 -176t15.5 -225q0 -180 -34 -315.5t-89 -226.5t-126 -137t-142 -46q-55 0 -100.5 18.5t-82.5 53.5q-29 -53 -60.5 -107.5t-64.5 -107.5q-8 -14 -20 -19.5t-23 -5.5 q-20 0 -33.5 13.5t-13.5 35.5v11.5zM119 840q0 -47 5 -112.5t15.5 -137.5t28.5 -143.5t45 -133.5q66 131 124 264.5t122 266.5q41 86 83 169t89 165q-27 63 -58.5 103t-61.5 62.5t-54.5 29.5t-34.5 7q-33 0 -69 -20.5t-70 -73.5q-12 -23 -41 -22q-27 0 -45 24 q-27 -45 -42.5 -105.5t-23.5 -123t-10 -120.5t-2 -97v-2zM276 211q58 -68 136 -68q39 0 88 34t93 107.5t74.5 192.5t30.5 289q0 84 -7 151.5t-19 124.5q-33 -61 -63.5 -122.5t-59.5 -124.5q-70 -147 -135.5 -294t-137.5 -290z" />
<glyph unicode="&#xd9;" d="M47 856q0 152 15.5 299.5t46.5 306.5q4 20 17 30.5t32 10.5q23 0 37 -15t14 -34q0 -4 -1 -13t-3 -14q-29 -156 -43.5 -291t-14.5 -280q0 -35 1.5 -97.5t7.5 -137t18 -150.5t35.5 -138.5t59.5 -102.5t87 -40q43 0 84 52.5t77 125t61.5 149.5t35.5 126q20 94 40 207 t37.5 229.5t30.5 228t21 203.5q2 23 17.5 34t36.5 11q35 0 41 -25.5t6 -68.5q-2 -29 -4 -76t-3 -103t-1 -120.5v-130.5q0 -23 2 -78t6 -125.5t9 -148.5t10 -148.5t9.5 -127t8.5 -80.5q14 -102 39.5 -194.5t70.5 -158.5q10 -16 10 -28q0 -18 -14 -35t-37 -17q-27 0 -43 23 q-57 84 -84.5 186.5t-42.5 210.5q-16 125 -25.5 234.5t-13.5 218.5q0 -2 -15 -91t-62 -222q-20 -57 -49 -121t-67 -118t-86 -89t-106 -35q-76 0 -129 49t-87 117t-51 136.5t-21 107.5q-10 94 -15.5 182t-5.5 176zM274 1831q0 18 13.5 36t35.5 18q18 0 34.5 -18.5t36 -48.5 t49.5 -67.5t77 -76.5q20 -14 20 -41q0 -23 -15.5 -36t-35.5 -13q-17 0 -31 10q-27 20 -59.5 54t-60 69t-46 66.5t-18.5 47.5z" />
<glyph unicode="&#xda;" d="M47 856q0 152 15.5 299.5t46.5 306.5q4 20 17 30.5t32 10.5q23 0 37 -15t14 -34q0 -4 -1 -13t-3 -14q-29 -156 -43.5 -291t-14.5 -280q0 -35 1.5 -97.5t7.5 -137t18 -150.5t35.5 -138.5t59.5 -102.5t87 -40q43 0 84 52.5t77 125t61.5 149.5t35.5 126q20 94 40 207 t37.5 229.5t30.5 228t21 203.5q2 23 17.5 34t36.5 11q35 0 41 -25.5t6 -68.5q-2 -29 -4 -76t-3 -103t-1 -120.5v-130.5q0 -23 2 -78t6 -125.5t9 -148.5t10 -148.5t9.5 -127t8.5 -80.5q14 -102 39.5 -194.5t70.5 -158.5q10 -16 10 -28q0 -18 -14 -35t-37 -17q-27 0 -43 23 q-57 84 -84.5 186.5t-42.5 210.5q-16 125 -25.5 234.5t-13.5 218.5q0 -2 -15 -91t-62 -222q-20 -57 -49 -121t-67 -118t-86 -89t-106 -35q-76 0 -129 49t-87 117t-51 136.5t-21 107.5q-10 94 -15.5 182t-5.5 176zM385 1606q0 27 20 41q47 39 77 76.5t49.5 67.5t36 48.5 t34.5 18.5q23 0 36 -17.5t13 -36.5q0 -16 -18.5 -47.5t-46 -66.5t-60 -69t-59.5 -54q-14 -10 -31 -10q-20 0 -35.5 13t-15.5 36z" />
<glyph unicode="&#xdb;" d="M47 856q0 152 15.5 299.5t46.5 306.5q4 20 17 30.5t32 10.5q23 0 37 -15t14 -34q0 -4 -1 -13t-3 -14q-29 -156 -43.5 -291t-14.5 -280q0 -35 1.5 -97.5t7.5 -137t18 -150.5t35.5 -138.5t59.5 -102.5t87 -40q43 0 84 52.5t77 125t61.5 149.5t35.5 126q20 94 40 207 t37.5 229.5t30.5 228t21 203.5q2 23 17.5 34t36.5 11q35 0 41 -25.5t6 -68.5q-2 -29 -4 -76t-3 -103t-1 -120.5v-130.5q0 -23 2 -78t6 -125.5t9 -148.5t10 -148.5t9.5 -127t8.5 -80.5q14 -102 39.5 -194.5t70.5 -158.5q10 -16 10 -28q0 -18 -14 -35t-37 -17q-27 0 -43 23 q-57 84 -84.5 186.5t-42.5 210.5q-16 125 -25.5 234.5t-13.5 218.5q0 -2 -15 -91t-62 -222q-20 -57 -49 -121t-67 -118t-86 -89t-106 -35q-76 0 -129 49t-87 117t-51 136.5t-21 107.5q-10 94 -15.5 182t-5.5 176zM293 1622q0 23 17 37q14 12 48 50t64 81q8 10 21.5 20.5 t31.5 10.5t32 -10t22 -21q31 -43 64.5 -81t47.5 -50q16 -14 17 -37q0 -14 -12.5 -24t-28.5 -10q-12 0 -29 12q-6 4 -21.5 19.5t-33 33.5t-33.5 37.5t-25 30.5l-24 -30t-33.5 -38t-33 -33.5t-21.5 -19.5q-16 -12 -29 -12q-16 0 -28.5 10t-12.5 24z" />
<glyph unicode="&#xdc;" d="M47 856q0 152 15.5 299.5t46.5 306.5q4 20 17 30.5t32 10.5q23 0 37 -15t14 -34q0 -4 -1 -13t-3 -14q-29 -156 -43.5 -291t-14.5 -280q0 -35 1.5 -97.5t7.5 -137t18 -150.5t35.5 -138.5t59.5 -102.5t87 -40q43 0 84 52.5t77 125t61.5 149.5t35.5 126q20 94 40 207 t37.5 229.5t30.5 228t21 203.5q2 23 17.5 34t36.5 11q35 0 41 -25.5t6 -68.5q-2 -29 -4 -76t-3 -103t-1 -120.5v-130.5q0 -23 2 -78t6 -125.5t9 -148.5t10 -148.5t9.5 -127t8.5 -80.5q14 -102 39.5 -194.5t70.5 -158.5q10 -16 10 -28q0 -18 -14 -35t-37 -17q-27 0 -43 23 q-57 84 -84.5 186.5t-42.5 210.5q-16 125 -25.5 234.5t-13.5 218.5q0 -2 -15 -91t-62 -222q-20 -57 -49 -121t-67 -118t-86 -89t-106 -35q-76 0 -129 49t-87 117t-51 136.5t-21 107.5q-10 94 -15.5 182t-5.5 176zM305 1634q0 27 17.5 43t42.5 16q27 0 44 -16.5t17 -42.5 q0 -25 -17 -43.5t-44 -18.5q-25 0 -42.5 18.5t-17.5 43.5zM504 1638q0 27 17.5 43t41.5 16q27 0 44.5 -16t17.5 -43q0 -25 -17.5 -43.5t-44.5 -18.5q-25 0 -42 18.5t-17 43.5z" />
<glyph unicode="&#xdd;" horiz-adv-x="935" d="M12 1567q0 23 15.5 38t38.5 15q20 0 33.5 -13.5t15.5 -35.5q2 -72 9 -164t17.5 -186.5t23.5 -176t30 -131.5q14 -47 38.5 -106t57.5 -111.5t71.5 -88.5t83.5 -36t80 37t61.5 97.5t46 139.5t31 164t16.5 170t5 158v99q0 18 14.5 31.5t34.5 13.5t35.5 -13.5t15.5 -35.5 q4 -111 20.5 -237t33.5 -280q14 -119 25.5 -237.5t11.5 -235.5q0 -86 -4.5 -167.5t-20.5 -160.5t-47 -159t-82 -162q-35 -55 -79 -107.5t-94 -92t-107.5 -63.5t-118.5 -24q-49 0 -98.5 18.5t-96.5 57.5q-18 14 -18 39q0 23 15 37t36 14q16 0 33 -12q35 -29 66.5 -41 t64.5 -12q70 0 136 48t123.5 120.5t98.5 156.5t57 156q18 76 26.5 158t8.5 172q0 109 -9 219.5t-24 222.5q-14 -68 -36.5 -136.5t-56.5 -124.5t-84 -92t-120 -36q-76 0 -134 46t-101 111.5t-70.5 136.5t-42.5 118q-18 57 -33.5 148t-26.5 189.5t-18.5 191.5t-7.5 155z M352 1675q0 27 20 41q47 39 77 76.5t49.5 67.5t36 48.5t34.5 18.5q23 0 36 -17.5t13 -36.5q0 -16 -18.5 -47.5t-46 -66.5t-60 -69t-59.5 -54q-14 -10 -31 -10q-20 0 -35.5 13t-15.5 36z" />
<glyph unicode="&#xde;" horiz-adv-x="690" d="M57 1049q0 23 12.5 37t39.5 14q23 0 32 -21.5t13 -56.5l8 -74q4 -23 7 -57.5t5 -56.5q18 35 46 69.5t62.5 62t75.5 45t86 17.5q49 0 87 -29.5t64 -80t38 -116t12 -136.5q0 -90 -20.5 -179.5t-61.5 -161t-102.5 -116.5t-145.5 -45q-31 0 -59.5 15.5t-40.5 29.5l2 -21 q0 -2 3 -33.5t8 -71.5t8.5 -78t3.5 -50q0 -55 -41 -55q-49 0 -54 57l-77 946zM188 672l21 -363q4 4 8 6t12 2q16 0 24.5 -9t18 -18t21.5 -17.5t37 -8.5q51 0 91 37t67.5 94.5t41 129t13.5 141.5q0 49 -6.5 96t-20.5 84t-34.5 60.5t-47.5 23.5q-37 0 -76 -29t-72.5 -68.5 t-60 -85t-37.5 -75.5z" />
<glyph unicode="&#xdf;" horiz-adv-x="1155" d="M0 -162q0 20 5 49t16.5 54.5t28 44t40.5 18.5q23 0 38 -16.5t15 -36.5q0 -12 -7 -21.5t-14 -20.5t-14.5 -27.5t-7.5 -43.5q0 -41 17.5 -57.5t34.5 -16.5q37 0 65.5 40t47 103.5t27.5 138.5t9 147q0 131 -8 231t-17.5 196.5t-17.5 204t-8 252.5q0 80 11 162t44 147.5 t93.5 107.5t158.5 42q63 0 139 -29.5t140.5 -85t107.5 -135.5t43 -178q0 -59 -20.5 -101t-51 -74t-65.5 -54.5t-65.5 -44t-51 -45t-20.5 -54.5q0 -37 29.5 -64.5t74.5 -53t98.5 -54t98.5 -68.5t74.5 -93.5t29.5 -127.5q0 -78 -35.5 -141t-94 -109.5t-130.5 -71t-143 -24.5 q-27 0 -68 7.5t-80 22.5t-66.5 38.5t-27.5 54.5q0 23 15.5 38t35.5 15q23 0 49.5 -24.5t55.5 -36.5q37 -14 86 -14q51 0 105 18.5t98.5 51t72 77.5t27.5 98q0 57 -30 97.5t-75 71t-98 56t-98 58.5t-75 76t-30 108q0 49 20.5 82t51.5 57.5t65.5 46t65.5 46t51.5 56.5t20.5 79 q0 61 -30 119.5t-77 104.5t-106.5 75t-116.5 29q-61 0 -101 -27t-63.5 -74t-33 -112.5t-9.5 -145.5q0 -137 8.5 -243.5t17.5 -206t17 -201.5t8 -233q0 -72 -9 -163t-35.5 -173t-75.5 -137.5t-129 -55.5q-68 0 -110 51.5t-42 122.5z" />
<glyph unicode="&#xe0;" horiz-adv-x="563" d="M16 328q0 45 20.5 115.5t58.5 136t90.5 112.5t117.5 47q49 0 86 -20.5t37 -56.5v-84q0 -49 5 -117t16.5 -129.5t26.5 -104.5t38 -43q4 0 10 2t15 2q16 0 31.5 -11t15.5 -36q0 -29 -21.5 -41t-50.5 -12q-63 0 -104 67.5t-64 209.5q-39 -76 -103.5 -126.5t-115.5 -50.5 q-16 0 -34.5 6.5t-35 21.5t-28 42t-11.5 70zM105 1054q0 18 13.5 36t35.5 18q18 0 34.5 -18.5t36 -48.5t49.5 -67.5t77 -76.5q20 -14 20 -41q0 -23 -15.5 -36t-35.5 -13q-17 0 -31 10q-27 20 -59.5 54t-60 69t-46 66.5t-18.5 47.5zM109 324q0 -41 22 -41q26 -1 57 32 q33 33 57.5 79t43 92t29 86t12.5 63q-8 8 -27 8q-37 0 -71.5 -37t-62.5 -89t-44 -106.5t-16 -86.5z" />
<glyph unicode="&#xe1;" horiz-adv-x="563" d="M16 328q0 45 20.5 115.5t58.5 136t90.5 112.5t117.5 47q49 0 86 -20.5t37 -56.5v-84q0 -49 5 -117t16.5 -129.5t26.5 -104.5t38 -43q4 0 10 2t15 2q16 0 31.5 -11t15.5 -36q0 -29 -21.5 -41t-50.5 -12q-63 0 -104 67.5t-64 209.5q-39 -76 -103.5 -126.5t-115.5 -50.5 q-16 0 -34.5 6.5t-35 21.5t-28 42t-11.5 70zM109 324q0 -41 22 -41q26 -1 57 32q33 33 57.5 79t43 92t29 86t12.5 63q-8 8 -27 8q-37 0 -71.5 -37t-62.5 -89t-44 -106.5t-16 -86.5zM199 852q0 27 20 41q47 39 77 76.5t49.5 67.5t36 48.5t34.5 18.5q23 0 36 -17.5t13 -36.5 q0 -16 -18.5 -47.5t-46 -66.5t-60 -69t-59.5 -54q-14 -10 -31 -10q-20 0 -35.5 13t-15.5 36z" />
<glyph unicode="&#xe2;" horiz-adv-x="563" d="M16 328q0 45 20.5 115.5t58.5 136t90.5 112.5t117.5 47q49 0 86 -20.5t37 -56.5v-84q0 -49 5 -117t16.5 -129.5t26.5 -104.5t38 -43q4 0 10 2t15 2q16 0 31.5 -11t15.5 -36q0 -29 -21.5 -41t-50.5 -12q-63 0 -104 67.5t-64 209.5q-39 -76 -103.5 -126.5t-115.5 -50.5 q-16 0 -34.5 6.5t-35 21.5t-28 42t-11.5 70zM109 324q0 -41 22 -41q26 -1 57 32q33 33 57.5 79t43 92t29 86t12.5 63q-8 8 -27 8q-37 0 -71.5 -37t-62.5 -89t-44 -106.5t-16 -86.5zM119 809q0 23 17 37q14 12 48 50t64 81q8 10 21.5 20.5t31.5 10.5t32 -10t22 -21 q31 -43 64.5 -81t47.5 -50q16 -14 17 -37q0 -14 -12.5 -24t-28.5 -10q-12 0 -29 12q-6 4 -21.5 19.5t-33 33.5t-33.5 37.5t-25 30.5l-24 -30t-33.5 -38t-33 -33.5t-21.5 -19.5q-16 -12 -29 -12q-16 0 -28.5 10t-12.5 24z" />
<glyph unicode="&#xe3;" horiz-adv-x="563" d="M16 328q0 45 20.5 115.5t58.5 136t90.5 112.5t117.5 47q49 0 86 -20.5t37 -56.5v-84q0 -49 5 -117t16.5 -129.5t26.5 -104.5t38 -43q4 0 10 2t15 2q16 0 31.5 -11t15.5 -36q0 -29 -21.5 -41t-50.5 -12q-63 0 -104 67.5t-64 209.5q-39 -76 -103.5 -126.5t-115.5 -50.5 q-16 0 -34.5 6.5t-35 21.5t-28 42t-11.5 70zM47 837q0 16 13.5 35t31 35t33.5 27.5t25 15.5q31 10 53 10q29 0 47 -10t33 -20l18 -13q16 -10 32.5 -17t25.5 -7q14 0 27 9t24 52q10 39 45 39q23 0 34 -17.5t11 -33.5q0 -33 -13.5 -60.5t-34 -47t-45 -30t-44.5 -10.5 q-37 0 -74 18.5t-66 41.5q-10 8 -14 9t-6 1q-10 0 -20.5 -8t-51.5 -51q-2 -2 -11 -8.5t-26 -10.5q-6 0 -12 2q-35 16 -35 49zM109 324q0 -41 22 -41q26 -1 57 32q33 33 57.5 79t43 92t29 86t12.5 63q-8 8 -27 8q-37 0 -71.5 -37t-62.5 -89t-44 -106.5t-16 -86.5z" />
<glyph unicode="&#xe4;" horiz-adv-x="563" d="M16 328q0 45 20.5 115.5t58.5 136t90.5 112.5t117.5 47q49 0 86 -20.5t37 -56.5v-84q0 -49 5 -117t16.5 -129.5t26.5 -104.5t38 -43q4 0 10 2t15 2q16 0 31.5 -11t15.5 -36q0 -29 -21.5 -41t-50.5 -12q-63 0 -104 67.5t-64 209.5q-39 -76 -103.5 -126.5t-115.5 -50.5 q-16 0 -34.5 6.5t-35 21.5t-28 42t-11.5 70zM109 324q0 -41 22 -41q26 -1 57 32q33 33 57.5 79t43 92t29 86t12.5 63q-8 8 -27 8q-37 0 -71.5 -37t-62.5 -89t-44 -106.5t-16 -86.5zM118 883q0 27 17.5 43t42.5 16q27 0 44 -16.5t17 -42.5q0 -25 -17 -43.5t-44 -18.5 q-25 0 -42.5 18.5t-17.5 43.5zM317 887q0 27 17.5 43t41.5 16q27 0 44.5 -16t17.5 -43q0 -25 -17.5 -43.5t-44.5 -18.5q-25 0 -42 18.5t-17 43.5z" />
<glyph unicode="&#xe5;" horiz-adv-x="563" d="M16 328q0 45 20.5 115.5t58.5 136t90.5 112.5t117.5 47q49 0 86 -20.5t37 -56.5v-84q0 -49 5 -117t16.5 -129.5t26.5 -104.5t38 -43q4 0 10 2t15 2q16 0 31.5 -11t15.5 -36q0 -29 -21.5 -41t-50.5 -12q-63 0 -104 67.5t-64 209.5q-39 -76 -103.5 -126.5t-115.5 -50.5 q-16 0 -34.5 6.5t-35 21.5t-28 42t-11.5 70zM109 324q0 -41 22 -41q26 -1 57 32q33 33 57.5 79t43 92t29 86t12.5 63q-8 8 -27 8q-37 0 -71.5 -37t-62.5 -89t-44 -106.5t-16 -86.5zM139 975q0 31 12.5 59.5t32 51t45 36t52.5 13.5q31 0 59.5 -15.5t50 -40t34.5 -56t13 -64.5 q0 -25 -10 -50.5t-29.5 -47t-48 -36t-65.5 -14.5q-23 0 -43.5 8.5t-36.5 20.5q-31 23 -48.5 59.5t-17.5 75.5zM227 975q0 -25 14.5 -53.5t43.5 -28.5q43 0 55 23.5t12 36.5q0 14 -6 31.5t-16.5 32t-23.5 24.5t-27 10q-2 0 -10.5 -3t-17.5 -11t-16.5 -22.5t-7.5 -39.5z" />
<glyph unicode="&#xe6;" horiz-adv-x="774" d="M16 328q0 45 20.5 115.5t58.5 136t90.5 112.5t117.5 47q14 0 31 -4q18 66 59 115t115 49q41 0 80 -16.5t68.5 -43t48 -60.5t18.5 -68q0 -43 -21.5 -76t-59.5 -56.5t-88 -35t-108 -11.5h-20t-20 5q0 -49 17 -109.5t45 -114t62.5 -89.5t69.5 -36q10 0 28.5 7t41.5 30 q14 14 35 15q20 0 34.5 -13.5t14.5 -36.5q0 -18 -17 -34q-37 -35 -72.5 -49.5t-64.5 -14.5q-49 0 -90 23.5t-72.5 61.5t-55.5 86t-38 99q-47 -78 -108.5 -126t-110.5 -48q-16 0 -34.5 6.5t-35 21.5t-28 42t-11.5 70zM109 324q0 -41 22 -41q26 -1 57 32q33 33 57.5 79t43 92 t29 86t12.5 63q-8 8 -27 8q-37 0 -71.5 -37t-62.5 -89t-44 -106.5t-16 -86.5zM412 635q27 -6 59 -6q27 0 53.5 5t49 15t37 25.5t14.5 38.5q0 16 -12.5 32.5t-30 28.5t-38 19.5t-36.5 7.5q-20 0 -35.5 -15.5t-27 -40t-19.5 -54t-14 -56.5z" />
<glyph unicode="&#xe7;" horiz-adv-x="550" d="M41 322q0 86 25.5 189t79 194.5t134 152t191.5 60.5q27 0 43 -12.5t16 -37.5q0 -49 -47 -49h-12q-86 0 -148.5 -52t-104.5 -129t-61.5 -165t-19.5 -158q0 -53 12.5 -113.5t36 -110.5t58.5 -84t82 -34q45 0 77.5 35t49.5 78q16 29 47 29q20 0 33.5 -13.5t13.5 -33.5 q0 -16 -15.5 -46t-42 -61t-62.5 -54.5t-77 -29.5q-2 -16 -10 -37.5t-12 -40.5q59 0 96 -42t37 -103q0 -45 -18.5 -77t-47 -51.5t-63.5 -28.5t-68 -9q-16 0 -30.5 2t-30.5 8q-23 10 -43.5 33t-20.5 57q0 41 41 41q20 0 26.5 -9t9.5 -20.5t11.5 -20.5t36.5 -9q61 0 88 24.5 t27 47.5q0 35 -13.5 54t-37.5 19q-10 0 -27.5 -5t-30.5 -5q-18 0 -30.5 12.5t-12.5 28.5q0 10 5.5 27.5t11.5 37t13 39t11 33.5q-68 18 -110.5 71.5t-69.5 119t-37 133t-10 115.5z" />
<glyph unicode="&#xe8;" horiz-adv-x="557" d="M-37 635q0 23 15.5 36t35.5 13q14 0 40 -10t46 -19q6 45 18.5 88t35 78t56.5 56.5t81 21.5q41 0 80 -16.5t68.5 -43t48 -60.5t18.5 -68q0 -43 -21.5 -76t-56.5 -56.5t-80 -35t-92 -11.5h-34.5t-33.5 5v-11q0 -45 17.5 -103t45.5 -110.5t62.5 -88.5t69.5 -36q10 0 28.5 7 t41.5 30q14 14 34 15q20 0 35 -13.5t15 -36.5q0 -18 -17 -34q-37 -35 -72.5 -49.5t-64.5 -14.5q-76 0 -131 51.5t-90 124t-52.5 150.5t-17.5 131v8q-18 6 -40.5 12t-42 14.5t-33 20.5t-13.5 31zM105 1212q0 18 13.5 36t35.5 18q18 0 34.5 -18.5t36 -48.5t49.5 -67.5 t77 -76.5q20 -14 20 -41q0 -23 -15.5 -36t-35.5 -13q-17 0 -31 10q-27 20 -59.5 54t-60 69t-46 66.5t-18.5 47.5zM195 635q27 -6 59 -6q27 0 53.5 5t49 15t37 25.5t14.5 38.5q0 16 -12.5 32.5t-30 28.5t-38 19.5t-36.5 7.5q-20 0 -35.5 -15.5t-27 -40t-19.5 -54t-14 -56.5z " />
<glyph unicode="&#xe9;" horiz-adv-x="557" d="M-37 635q0 23 15.5 36t35.5 13q14 0 40 -10t46 -19q6 45 18.5 88t35 78t56.5 56.5t81 21.5q41 0 80 -16.5t68.5 -43t48 -60.5t18.5 -68q0 -43 -21.5 -76t-56.5 -56.5t-80 -35t-92 -11.5h-34.5t-33.5 5v-11q0 -45 17.5 -103t45.5 -110.5t62.5 -88.5t69.5 -36q10 0 28.5 7 t41.5 30q14 14 34 15q20 0 35 -13.5t15 -36.5q0 -18 -17 -34q-37 -35 -72.5 -49.5t-64.5 -14.5q-76 0 -131 51.5t-90 124t-52.5 150.5t-17.5 131v8q-18 6 -40.5 12t-42 14.5t-33 20.5t-13.5 31zM195 635q27 -6 59 -6q27 0 53.5 5t49 15t37 25.5t14.5 38.5q0 16 -12.5 32.5 t-30 28.5t-38 19.5t-36.5 7.5q-20 0 -35.5 -15.5t-27 -40t-19.5 -54t-14 -56.5zM211 1014q0 27 20 41q47 39 77 76.5t49.5 67.5t36 48.5t34.5 18.5q23 0 36 -17.5t13 -36.5q0 -16 -18.5 -47.5t-46 -66.5t-60 -69t-59.5 -54q-14 -10 -31 -10q-20 0 -35.5 13t-15.5 36z" />
<glyph unicode="&#xea;" horiz-adv-x="557" d="M-37 635q0 23 15.5 36t35.5 13q14 0 40 -10t46 -19q6 45 18.5 88t35 78t56.5 56.5t81 21.5q41 0 80 -16.5t68.5 -43t48 -60.5t18.5 -68q0 -43 -21.5 -76t-56.5 -56.5t-80 -35t-92 -11.5h-34.5t-33.5 5v-11q0 -45 17.5 -103t45.5 -110.5t62.5 -88.5t69.5 -36q10 0 28.5 7 t41.5 30q14 14 34 15q20 0 35 -13.5t15 -36.5q0 -18 -17 -34q-37 -35 -72.5 -49.5t-64.5 -14.5q-76 0 -131 51.5t-90 124t-52.5 150.5t-17.5 131v8q-18 6 -40.5 12t-42 14.5t-33 20.5t-13.5 31zM117 975q0 23 17 37q14 12 48 50t64 81q8 10 21.5 20.5t31.5 10.5t32 -10 t22 -21q31 -43 64.5 -81t47.5 -50q16 -14 17 -37q0 -14 -12.5 -24t-28.5 -10q-12 0 -29 12q-6 4 -21.5 19.5t-33 33.5t-33.5 37.5t-25 30.5l-24 -30t-33.5 -38t-33 -33.5t-21.5 -19.5q-16 -12 -29 -12q-16 0 -28.5 10t-12.5 24zM195 635q27 -6 59 -6q27 0 53.5 5t49 15 t37 25.5t14.5 38.5q0 16 -12.5 32.5t-30 28.5t-38 19.5t-36.5 7.5q-20 0 -35.5 -15.5t-27 -40t-19.5 -54t-14 -56.5z" />
<glyph unicode="&#xeb;" horiz-adv-x="557" d="M-37 635q0 23 15.5 36t35.5 13q14 0 40 -10t46 -19q6 45 18.5 88t35 78t56.5 56.5t81 21.5q41 0 80 -16.5t68.5 -43t48 -60.5t18.5 -68q0 -43 -21.5 -76t-56.5 -56.5t-80 -35t-92 -11.5h-34.5t-33.5 5v-11q0 -45 17.5 -103t45.5 -110.5t62.5 -88.5t69.5 -36q10 0 28.5 7 t41.5 30q14 14 34 15q20 0 35 -13.5t15 -36.5q0 -18 -17 -34q-37 -35 -72.5 -49.5t-64.5 -14.5q-76 0 -131 51.5t-90 124t-52.5 150.5t-17.5 131v8q-18 6 -40.5 12t-42 14.5t-33 20.5t-13.5 31zM133 1018q0 27 17.5 43t42.5 16q27 0 44 -16.5t17 -42.5q0 -25 -17 -43.5 t-44 -18.5q-25 0 -42.5 18.5t-17.5 43.5zM195 635q27 -6 59 -6q27 0 53.5 5t49 15t37 25.5t14.5 38.5q0 16 -12.5 32.5t-30 28.5t-38 19.5t-36.5 7.5q-20 0 -35.5 -15.5t-27 -40t-19.5 -54t-14 -56.5zM332 1022q0 27 17.5 43t41.5 16q27 0 44.5 -16t17.5 -43 q0 -25 -17.5 -43.5t-44.5 -18.5q-25 0 -42 18.5t-17 43.5z" />
<glyph unicode="&#xec;" horiz-adv-x="329" d="M-63 1265q0 18 13.5 36t35.5 18q18 0 34.5 -18.5t36 -48.5t49.5 -67.5t77 -76.5q20 -14 20 -41q0 -23 -15.5 -36t-35.5 -13q-17 0 -31 10q-27 20 -59.5 54t-60 69t-46 66.5t-18.5 47.5zM102 889q0 16 10.5 32.5t39.5 16.5q39 0 49 -47q6 -31 8 -106.5t5 -170t8.5 -189.5 t17.5 -165q4 -8 4 -22q0 -18 -13.5 -33t-35.5 -15q-23 0 -35.5 9.5t-17.5 23t-6 30.5t-3 34q-6 55 -9 123.5t-5 141.5t-4 145.5t-6 133.5q0 10 -3.5 26.5t-3.5 31.5z" />
<glyph unicode="&#xed;" horiz-adv-x="329" d="M82 1067q0 27 20 41q47 39 77 76.5t49.5 67.5t36 48.5t34.5 18.5q23 0 36 -17.5t13 -36.5q0 -16 -18.5 -47.5t-46 -66.5t-60 -69t-59.5 -54q-14 -10 -31 -10q-20 0 -35.5 13t-15.5 36zM102 889q0 16 10.5 32.5t39.5 16.5q39 0 49 -47q6 -31 8 -106.5t5 -170t8.5 -189.5 t17.5 -165q4 -8 4 -22q0 -18 -13.5 -33t-35.5 -15q-23 0 -35.5 9.5t-17.5 23t-6 30.5t-3 34q-6 55 -9 123.5t-5 141.5t-4 145.5t-6 133.5q0 10 -3.5 26.5t-3.5 31.5z" />
<glyph unicode="&#xee;" horiz-adv-x="329" d="M-27 1026q0 23 17 37q14 12 48 50t64 81q8 10 21.5 20.5t31.5 10.5t32 -10t22 -21q31 -43 64.5 -81t47.5 -50q16 -14 17 -37q0 -14 -12.5 -24t-28.5 -10q-12 0 -29 12q-6 4 -21.5 19.5t-33 33.5t-33.5 37.5t-25 30.5l-24 -30t-33.5 -38t-33 -33.5t-21.5 -19.5 q-16 -12 -29 -12q-16 0 -28.5 10t-12.5 24zM102 889q0 16 10.5 32.5t39.5 16.5q39 0 49 -47q6 -31 8 -106.5t5 -170t8.5 -189.5t17.5 -165q4 -8 4 -22q0 -18 -13.5 -33t-35.5 -15q-23 0 -35.5 9.5t-17.5 23t-6 30.5t-3 34q-6 55 -9 123.5t-5 141.5t-4 145.5t-6 133.5 q0 10 -3.5 26.5t-3.5 31.5z" />
<glyph unicode="&#xef;" horiz-adv-x="329" d="M-11 1090q0 27 17.5 43t42.5 16q27 0 44 -16.5t17 -42.5q0 -25 -17 -43.5t-44 -18.5q-25 0 -42.5 18.5t-17.5 43.5zM102 889q0 16 10.5 32.5t39.5 16.5q39 0 49 -47q6 -31 8 -106.5t5 -170t8.5 -189.5t17.5 -165q4 -8 4 -22q0 -18 -13.5 -33t-35.5 -15q-23 0 -35.5 9.5 t-17.5 23t-6 30.5t-3 34q-6 55 -9 123.5t-5 141.5t-4 145.5t-6 133.5q0 10 -3.5 26.5t-3.5 31.5zM188 1094q0 27 17.5 43t41.5 16q27 0 44.5 -16t17.5 -43q0 -25 -17.5 -43.5t-44.5 -18.5q-25 0 -42 18.5t-17 43.5z" />
<glyph unicode="&#xf1;" horiz-adv-x="614" d="M66 82q0 37 5 86t9 108q6 86 10 168t4 168l-4 238q0 49 49 49q18 0 32.5 -13.5t14.5 -35.5q0 -123 7 -246q29 37 71.5 73t114.5 36q59 0 95 -42t56.5 -103.5t26.5 -131t6 -127.5q0 -31 -8 -54.5t-41 -23.5q-23 0 -36 15.5t-13 34.5q0 70 -5 130t-16.5 106t-28 72.5 t-36.5 26.5q-43 0 -76 -30.5t-57.5 -80.5t-42 -112.5t-27.5 -126.5q-8 -53 -9 -104t-9 -99q-4 -29 -43 -28q-20 0 -34.5 12t-14.5 35zM96 991q0 16 13.5 35t31 35t33.5 27.5t25 15.5q31 10 53 10q29 0 47 -10t33 -20l18 -13q16 -10 32.5 -17t25.5 -7q14 0 27 9t24 52 q10 39 45 39q23 0 34 -17.5t11 -33.5q0 -33 -13.5 -60.5t-34 -47t-45 -30t-44.5 -10.5q-37 0 -74 18.5t-66 41.5q-10 8 -14 9t-6 1q-10 0 -20.5 -8t-51.5 -51q-2 -2 -11 -8.5t-26 -10.5q-6 0 -12 2q-35 16 -35 49z" />
<glyph unicode="&#xf2;" horiz-adv-x="507" d="M45 532q0 92 36 161t99 98q8 6 21 6q39 0 49 -47q100 -4 160.5 -78t60.5 -191q0 -51 -13.5 -96t-39 -80t-62.5 -55.5t-82 -20.5q-49 0 -91 21.5t-72.5 61.5t-48 96.5t-17.5 123.5zM66 1099q0 18 13.5 36t35.5 18q18 0 34.5 -18.5t36 -48.5t49.5 -67.5t77 -76.5 q20 -14 20 -41q0 -23 -15.5 -36t-35.5 -13q-17 0 -31 10q-27 20 -59.5 54t-60 69t-46 66.5t-18.5 47.5zM141 532q0 -35 8.5 -70.5t24.5 -65t40.5 -49t59.5 -19.5q29 0 48.5 14t32 37.5t17.5 51.5t5 52q0 70 -35 120t-98 50h-17q-14 0 -25.5 3t-17.5 18q-23 -25 -33 -63 t-10 -79z" />
<glyph unicode="&#xf3;" horiz-adv-x="507" d="M45 532q0 92 36 161t99 98q8 6 21 6q39 0 49 -47q100 -4 160.5 -78t60.5 -191q0 -51 -13.5 -96t-39 -80t-62.5 -55.5t-82 -20.5q-49 0 -91 21.5t-72.5 61.5t-48 96.5t-17.5 123.5zM111 909q0 27 20 41q47 39 77 76.5t49.5 67.5t36 48.5t34.5 18.5q23 0 36 -17.5t13 -36.5 q0 -16 -18.5 -47.5t-46 -66.5t-60 -69t-59.5 -54q-14 -10 -31 -10q-20 0 -35.5 13t-15.5 36zM141 532q0 -35 8.5 -70.5t24.5 -65t40.5 -49t59.5 -19.5q29 0 48.5 14t32 37.5t17.5 51.5t5 52q0 70 -35 120t-98 50h-17q-14 0 -25.5 3t-17.5 18q-23 -25 -33 -63t-10 -79z" />
<glyph unicode="&#xf4;" horiz-adv-x="507" d="M45 532q0 92 36 161t99 98q8 6 21 6q39 0 49 -47q100 -4 160.5 -78t60.5 -191q0 -51 -13.5 -96t-39 -80t-62.5 -55.5t-82 -20.5q-49 0 -91 21.5t-72.5 61.5t-48 96.5t-17.5 123.5zM59 864q0 23 17 37q14 12 48 50t64 81q8 10 21.5 20.5t31.5 10.5t32 -10t22 -21 q31 -43 64.5 -81t47.5 -50q16 -14 17 -37q0 -14 -12.5 -24t-28.5 -10q-12 0 -29 12q-6 4 -21.5 19.5t-33 33.5t-33.5 37.5t-25 30.5l-24 -30t-33.5 -38t-33 -33.5t-21.5 -19.5q-16 -12 -29 -12q-16 0 -28.5 10t-12.5 24zM141 532q0 -35 8.5 -70.5t24.5 -65t40.5 -49 t59.5 -19.5q29 0 48.5 14t32 37.5t17.5 51.5t5 52q0 70 -35 120t-98 50h-17q-14 0 -25.5 3t-17.5 18q-23 -25 -33 -63t-10 -79z" />
<glyph unicode="&#xf5;" horiz-adv-x="507" d="M20 897q0 16 13.5 35t31 35t33.5 27.5t25 15.5q31 10 53 10q29 0 47 -10t33 -20l18 -13q16 -10 32.5 -17t25.5 -7q14 0 27 9t24 52q10 39 45 39q23 0 34 -17.5t11 -33.5q0 -33 -13.5 -60.5t-34 -47t-45 -30t-44.5 -10.5q-37 0 -74 18.5t-66 41.5q-10 8 -14 9t-6 1 q-10 0 -20.5 -8t-51.5 -51q-2 -2 -11 -8.5t-26 -10.5q-6 0 -12 2q-35 16 -35 49zM45 532q0 92 36 161t99 98q8 6 21 6q39 0 49 -47q100 -4 160.5 -78t60.5 -191q0 -51 -13.5 -96t-39 -80t-62.5 -55.5t-82 -20.5q-49 0 -91 21.5t-72.5 61.5t-48 96.5t-17.5 123.5zM141 532 q0 -35 8.5 -70.5t24.5 -65t40.5 -49t59.5 -19.5q29 0 48.5 14t32 37.5t17.5 51.5t5 52q0 70 -35 120t-98 50h-17q-14 0 -25.5 3t-17.5 18q-23 -25 -33 -63t-10 -79z" />
<glyph unicode="&#xf6;" horiz-adv-x="507" d="M45 532q0 92 36 161t99 98q8 6 21 6q39 0 49 -47q100 -4 160.5 -78t60.5 -191q0 -51 -13.5 -96t-39 -80t-62.5 -55.5t-82 -20.5q-49 0 -91 21.5t-72.5 61.5t-48 96.5t-17.5 123.5zM84 918q0 27 17.5 43t42.5 16q27 0 44 -16.5t17 -42.5q0 -25 -17 -43.5t-44 -18.5 q-25 0 -42.5 18.5t-17.5 43.5zM141 532q0 -35 8.5 -70.5t24.5 -65t40.5 -49t59.5 -19.5q29 0 48.5 14t32 37.5t17.5 51.5t5 52q0 70 -35 120t-98 50h-17q-14 0 -25.5 3t-17.5 18q-23 -25 -33 -63t-10 -79zM283 922q0 27 17.5 43t41.5 16q27 0 44.5 -16t17.5 -43 q0 -25 -17.5 -43.5t-44.5 -18.5q-25 0 -42 18.5t-17 43.5z" />
<glyph unicode="&#xf7;" horiz-adv-x="774" d="M57 453q0 16 12.5 29.5t28.5 13.5q10 0 15.5 -2t11.5 -7q23 -10 45.5 -14t65.5 -4q113 0 183 6t117.5 12.5t79 12.5t66.5 6q16 0 29.5 -7t17.5 -30q0 -39 -37 -47q-35 -4 -82 -10t-99 -12.5t-104.5 -10.5t-95.5 -4q-45 0 -90 2t-82 10.5t-59.5 20.5t-22.5 35zM319 606 q0 27 17.5 43.5t42.5 16.5q27 0 44 -16.5t17 -43.5q0 -25 -17 -43t-44 -18q-25 0 -42.5 18.5t-17.5 42.5zM348 264q0 27 17.5 43.5t42.5 16.5q27 0 44 -16.5t17 -43.5q0 -25 -17 -43t-44 -18q-25 0 -42.5 18.5t-17.5 42.5z" />
<glyph unicode="&#xf8;" horiz-adv-x="507" d="M43 94q0 6 8 27.5t12 28.5q16 35 33 70.5t33 70.5q-39 41 -61.5 102.5t-22.5 138.5q0 92 36 161t99 98q8 6 21 6q39 0 49 -47q53 -2 98 -29q23 41 47 79t51 77q4 8 14.5 10t18.5 2q16 0 26.5 -10.5t10.5 -26.5q0 -14 -4 -23q-27 -41 -51.5 -81.5t-46.5 -81.5 q57 -74 57 -185q0 -51 -13.5 -96t-39 -80t-62.5 -55.5t-82 -20.5q-43 0 -73 15l-84 -170q-12 -20 -33 -21q-41 0 -41 41zM141 532q0 -35 8.5 -73.5t26.5 -69.5q61 127 125 250q-29 14 -57 14h-17q-14 0 -25.5 3t-17.5 18q-23 -25 -33 -63t-10 -79zM242 332q8 -2 15 -3t17 -1 q29 0 48.5 14t32 37.5t17.5 51.5t5 52q0 43 -17 86q-31 -59 -60.5 -118.5t-57.5 -118.5z" />
<glyph unicode="&#xf9;" horiz-adv-x="600" d="M59 410q0 100 13.5 159.5t54.5 59.5q23 0 36 -14.5t13 -34.5q0 -10 -10 -52.5t-10 -105.5q0 -35 1 -74t7 -70.5t17.5 -52t31.5 -20.5q37 0 65.5 34.5t49 90t33 123t16.5 135.5q4 74 13 99.5t40 25.5q51 0 51 -51q0 -4 -2 -8.5t-2 -12.5q0 -20 4 -60t11.5 -88.5 t16.5 -100.5t18.5 -98t17.5 -82t14 -50q14 -16 14 -33q0 -18 -13 -33.5t-36 -15.5q-39 0 -60.5 65.5t-43.5 194.5q-12 -43 -30.5 -85t-46.5 -73.5t-63.5 -52t-82.5 -20.5q-39 0 -65 25.5t-42 67.5t-23.5 96t-7.5 112zM80 1026q0 18 13.5 36t35.5 18q18 0 34.5 -18.5 t36 -48.5t49.5 -67.5t77 -76.5q20 -14 20 -41q0 -23 -15.5 -36t-35.5 -13q-17 0 -31 10q-27 20 -59.5 54t-60 69t-46 66.5t-18.5 47.5z" />
<glyph unicode="&#xfa;" horiz-adv-x="600" d="M59 410q0 100 13.5 159.5t54.5 59.5q23 0 36 -14.5t13 -34.5q0 -10 -10 -52.5t-10 -105.5q0 -35 1 -74t7 -70.5t17.5 -52t31.5 -20.5q37 0 65.5 34.5t49 90t33 123t16.5 135.5q4 74 13 99.5t40 25.5q51 0 51 -51q0 -4 -2 -8.5t-2 -12.5q0 -20 4 -60t11.5 -88.5 t16.5 -100.5t18.5 -98t17.5 -82t14 -50q14 -16 14 -33q0 -18 -13 -33.5t-36 -15.5q-39 0 -60.5 65.5t-43.5 194.5q-12 -43 -30.5 -85t-46.5 -73.5t-63.5 -52t-82.5 -20.5q-39 0 -65 25.5t-42 67.5t-23.5 96t-7.5 112zM174 817q0 27 20 41q47 39 77 76.5t49.5 67.5t36 48.5 t34.5 18.5q23 0 36 -17.5t13 -36.5q0 -16 -18.5 -47.5t-46 -66.5t-60 -69t-59.5 -54q-14 -10 -31 -10q-20 0 -35.5 13t-15.5 36z" />
<glyph unicode="&#xfb;" horiz-adv-x="600" d="M59 410q0 100 13.5 159.5t54.5 59.5q23 0 36 -14.5t13 -34.5q0 -10 -10 -52.5t-10 -105.5q0 -35 1 -74t7 -70.5t17.5 -52t31.5 -20.5q37 0 65.5 34.5t49 90t33 123t16.5 135.5q4 74 13 99.5t40 25.5q51 0 51 -51q0 -4 -2 -8.5t-2 -12.5q0 -20 4 -60t11.5 -88.5 t16.5 -100.5t18.5 -98t17.5 -82t14 -50q14 -16 14 -33q0 -18 -13 -33.5t-36 -15.5q-39 0 -60.5 65.5t-43.5 194.5q-12 -43 -30.5 -85t-46.5 -73.5t-63.5 -52t-82.5 -20.5q-39 0 -65 25.5t-42 67.5t-23.5 96t-7.5 112zM92 798q0 23 17 37q14 12 48 50t64 81q8 10 21.5 20.5 t31.5 10.5t32 -10t22 -21q31 -43 64.5 -81t47.5 -50q16 -14 17 -37q0 -14 -12.5 -24t-28.5 -10q-12 0 -29 12q-6 4 -21.5 19.5t-33 33.5t-33.5 37.5t-25 30.5l-24 -30t-33.5 -38t-33 -33.5t-21.5 -19.5q-16 -12 -29 -12q-16 0 -28.5 10t-12.5 24z" />
<glyph unicode="&#xfc;" horiz-adv-x="600" d="M59 410q0 100 13.5 159.5t54.5 59.5q23 0 36 -14.5t13 -34.5q0 -10 -10 -52.5t-10 -105.5q0 -35 1 -74t7 -70.5t17.5 -52t31.5 -20.5q37 0 65.5 34.5t49 90t33 123t16.5 135.5q4 74 13 99.5t40 25.5q51 0 51 -51q0 -4 -2 -8.5t-2 -12.5q0 -20 4 -60t11.5 -88.5 t16.5 -100.5t18.5 -98t17.5 -82t14 -50q14 -16 14 -33q0 -18 -13 -33.5t-36 -15.5q-39 0 -60.5 65.5t-43.5 194.5q-12 -43 -30.5 -85t-46.5 -73.5t-63.5 -52t-82.5 -20.5q-39 0 -65 25.5t-42 67.5t-23.5 96t-7.5 112zM100 823q0 27 17.5 43t42.5 16q27 0 44 -16.5t17 -42.5 q0 -25 -17 -43.5t-44 -18.5q-25 0 -42.5 18.5t-17.5 43.5zM299 827q0 27 17.5 43t41.5 16q27 0 44.5 -16t17.5 -43q0 -25 -17.5 -43.5t-44.5 -18.5q-25 0 -42 18.5t-17 43.5z" />
<glyph unicode="&#xfd;" horiz-adv-x="702" d="M14 -1130q0 20 12.5 33.5t34.5 13.5q20 0 39 -19q29 -39 67 -56.5t71 -17.5q88 0 149.5 54.5t101 138.5t62 186.5t33 198.5t12.5 174t2 113q0 117 -5 230.5t-15 230.5q-6 57 -10.5 104t-7.5 90t-7 85t-10 89q-35 -80 -72 -150.5t-78 -125t-85 -86t-91 -31.5q-61 0 -94 37 t-48.5 87t-18.5 100t-3 79q0 35 2 77t8.5 79t19.5 61.5t38 24.5q23 0 36 -15.5t13 -33.5q0 -10 -2 -13q-12 -49 -15 -102t-3 -72q0 -98 17 -155.5t52 -57.5q106 0 293 475q16 37 25.5 55.5t37.5 18.5q47 0 48 -49v-19q0 -43 6 -90t13 -110.5t16.5 -147t15.5 -198.5 q10 -117 16 -233t6 -232q0 -39 -3 -126t-16 -193.5t-42 -220.5t-79 -207t-128 -153.5t-190 -60.5q-55 0 -112.5 26.5t-102.5 84.5q-8 8 -9 29zM242 840q0 27 20 41q47 39 77 76.5t49.5 67.5t36 48.5t34.5 18.5q23 0 36 -17.5t13 -36.5q0 -16 -18.5 -47.5t-46 -66.5t-60 -69 t-59.5 -54q-14 -10 -31 -10q-20 0 -35.5 13t-15.5 36z" />
<glyph unicode="&#xfe;" horiz-adv-x="690" d="M43 1204q0 23 12.5 37t38.5 14q23 0 33 -21.5t14 -55.5l6 -74q10 -111 19.5 -215.5t15.5 -208.5q20 35 49 74t63 70.5t73 52t84 20.5t79.5 -19.5t59 -51t38 -72.5t13.5 -84q0 -61 -21.5 -128t-62.5 -122t-103.5 -91t-144.5 -36q-23 0 -36 3t-23 7t-18.5 11.5t-20.5 13.5 v-11q0 -25 3 -70.5t7 -99t8 -107.5t9 -93q4 -43 6 -70t4 -42t2 -23.5v-14.5q0 -63 -41 -63q-27 0 -38 17.5t-15 39.5l-103 1268zM201 483l2 -45q4 4 9 4t11 4q16 0 24.5 -9t17.5 -18t21.5 -17.5t37.5 -8.5q63 0 105 37t66.5 86t35 97.5t10.5 70.5q0 41 -24 78t-77 37 q-37 -6 -72.5 -37t-67.5 -76t-57.5 -99.5t-41.5 -103.5z" />
<glyph unicode="&#xff;" horiz-adv-x="702" d="M14 -1130q0 20 12.5 33.5t34.5 13.5q20 0 39 -19q29 -39 67 -56.5t71 -17.5q88 0 149.5 54.5t101 138.5t62 186.5t33 198.5t12.5 174t2 113q0 117 -5 230.5t-15 230.5q-6 57 -10.5 104t-7.5 90t-7 85t-10 89q-35 -80 -72 -150.5t-78 -125t-85 -86t-91 -31.5q-61 0 -94 37 t-48.5 87t-18.5 100t-3 79q0 35 2 77t8.5 79t19.5 61.5t38 24.5q23 0 36 -15.5t13 -33.5q0 -10 -2 -13q-12 -49 -15 -102t-3 -72q0 -98 17 -155.5t52 -57.5q106 0 293 475q16 37 25.5 55.5t37.5 18.5q47 0 48 -49v-19q0 -43 6 -90t13 -110.5t16.5 -147t15.5 -198.5 q10 -117 16 -233t6 -232q0 -39 -3 -126t-16 -193.5t-42 -220.5t-79 -207t-128 -153.5t-190 -60.5q-55 0 -112.5 26.5t-102.5 84.5q-8 8 -9 29zM174 866q0 27 17.5 43t42.5 16q27 0 44 -16.5t17 -42.5q0 -25 -17 -43.5t-44 -18.5q-25 0 -42.5 18.5t-17.5 43.5zM373 870 q0 27 17.5 43t41.5 16q27 0 44.5 -16t17.5 -43q0 -25 -17.5 -43.5t-44.5 -18.5q-25 0 -42 18.5t-17 43.5z" />
<glyph unicode="&#x152;" horiz-adv-x="1318" d="M16 815q0 45 3.5 110.5t12.5 137.5t29.5 142.5t56.5 128t88 92t128 34.5q16 0 35 -14q14 4 26.5 5t28.5 1q57 0 133 -46t137 -161q4 41 7.5 82t11.5 82q-23 -4 -46.5 -12t-45.5 -8q-16 0 -33 14t-17 37t17.5 36t43 20t53.5 11t50 9q0 25 20.5 39t37.5 14q12 0 25 -8.5 t20 -22.5q86 16 171 25.5t171 9.5h22q20 0 45 -1t45.5 -7t33.5 -17.5t13 -29.5t-14 -34t-35 -16l-116 5q-92 0 -177.5 -11.5t-177.5 -29.5q-16 -78 -21 -155t-5 -155v-274q86 23 163.5 44t163.5 36l15 2q29 0 38 -18.5t9 -32.5q0 -16 -11.5 -30.5t-27.5 -19.5 q-92 -23 -175 -40t-161 -46v-438q0 -100 -6 -213q57 16 112.5 21.5t110.5 5.5q70 0 137.5 -4t128.5 -4q20 0 34.5 -14.5t14.5 -37.5q0 -16 -11 -29.5t-28 -13.5q-6 0 -10 2h-282q-66 0 -143 -13t-138 -48q-12 -6 -27 -6q-16 0 -33.5 14.5t-17.5 36.5q0 29 29 43l16 12 q8 25 10.5 64t2.5 78l-2 57q-57 -123 -136.5 -183.5t-162.5 -60.5q-86 0 -147.5 45t-105.5 117t-71 161t-41 179t-19.5 169t-5.5 132zM117 813q0 -55 5 -128t18.5 -149.5t36 -152.5t55 -134.5t77 -95t101.5 -36.5q37 0 86 31.5t93 101t74.5 181.5t30.5 271 q0 215 -34.5 344.5t-81 197t-92.5 88t-66 20.5q-33 0 -69 -19.5t-70 -72.5q-12 -23 -41 -23t-45 23q-27 -45 -42.5 -105.5t-23.5 -122t-10 -120t-2 -97.5v-2z" />
<glyph unicode="&#x153;" horiz-adv-x="839" d="M45 532q0 92 36 161t99 98q8 6 21 6q39 0 49 -47q78 -2 137 -56q8 39 21.5 76t36 65.5t53 46t73.5 17.5q41 0 80 -16.5t69 -43t48 -60.5t18 -68q0 -49 -24.5 -83t-63.5 -55.5t-89 -31t-99 -9.5h-20.5t-20.5 5v-15q0 -45 17.5 -103.5t46 -109.5t62.5 -86t69 -35q10 0 28 7 t41 30q14 14 35 15q20 0 34.5 -13.5t14.5 -36.5q0 -25 -20.5 -43t-47 -30.5t-52 -18.5t-33.5 -6q-43 0 -80 17.5t-67 48t-53.5 69.5t-41.5 82q-25 -37 -62.5 -58.5t-85.5 -21.5q-49 0 -91 21.5t-72.5 61.5t-48 96.5t-17.5 123.5zM141 532q0 -35 8.5 -70.5t24.5 -65t40.5 -49 t59.5 -19.5q29 0 48.5 14t32 37.5t17.5 51.5t5 52q0 82 -35 126t-109 44q-14 0 -26 3t-23 18q-23 -25 -33 -63t-10 -79zM475 635q27 -6 60 -6q27 0 53 5t48.5 15t37 25.5t14.5 38.5q0 16 -12 32.5t-29.5 28.5t-38.5 19.5t-37 7.5q-20 0 -35.5 -15.5t-26.5 -40t-19.5 -54 t-14.5 -56.5z" />
<glyph unicode="&#x178;" horiz-adv-x="935" d="M12 1567q0 23 15.5 38t38.5 15q20 0 33.5 -13.5t15.5 -35.5q2 -72 9 -164t17.5 -186.5t23.5 -176t30 -131.5q14 -47 38.5 -106t57.5 -111.5t71.5 -88.5t83.5 -36t80 37t61.5 97.5t46 139.5t31 164t16.5 170t5 158v99q0 18 14.5 31.5t34.5 13.5t35.5 -13.5t15.5 -35.5 q4 -111 20.5 -237t33.5 -280q14 -119 25.5 -237.5t11.5 -235.5q0 -86 -4.5 -167.5t-20.5 -160.5t-47 -159t-82 -162q-35 -55 -79 -107.5t-94 -92t-107.5 -63.5t-118.5 -24q-49 0 -98.5 18.5t-96.5 57.5q-18 14 -18 39q0 23 15 37t36 14q16 0 33 -12q35 -29 66.5 -41 t64.5 -12q70 0 136 48t123.5 120.5t98.5 156.5t57 156q18 76 26.5 158t8.5 172q0 109 -9 219.5t-24 222.5q-14 -68 -36.5 -136.5t-56.5 -124.5t-84 -92t-120 -36q-76 0 -134 46t-101 111.5t-70.5 136.5t-42.5 118q-18 57 -33.5 148t-26.5 189.5t-18.5 191.5t-7.5 155z M266 1671q0 27 17.5 43t42.5 16q27 0 44 -16.5t17 -42.5q0 -25 -17 -43.5t-44 -18.5q-25 0 -42.5 18.5t-17.5 43.5zM465 1675q0 27 17.5 43t41.5 16q27 0 44.5 -16t17.5 -43q0 -25 -17.5 -43.5t-44.5 -18.5q-25 0 -42 18.5t-17 43.5z" />
<glyph unicode="&#x2c6;" horiz-adv-x="632" d="M137 1251q0 23 17 37q14 12 48 50t64 81q8 10 21.5 20.5t31.5 10.5t32 -10t22 -21q31 -43 64.5 -81t47.5 -50q16 -14 17 -37q0 -14 -12.5 -24t-28.5 -10q-12 0 -29 12q-6 4 -21.5 19.5t-33 33.5t-33.5 37.5t-25 30.5l-24 -30t-33.5 -38t-33 -33.5t-21.5 -19.5 q-16 -12 -29 -12q-16 0 -28.5 10t-12.5 24z" />
<glyph unicode="&#x2dc;" horiz-adv-x="641" d="M94 1257q0 16 13.5 35t31 35t33.5 27.5t25 15.5q31 10 53 10q29 0 47 -10t33 -20l18 -13q16 -10 32.5 -17t25.5 -7q14 0 27 9t24 52q10 39 45 39q23 0 34 -17.5t11 -33.5q0 -33 -13.5 -60.5t-34 -47t-45 -30t-44.5 -10.5q-37 0 -74 18.5t-66 41.5q-10 8 -14 9t-6 1 q-10 0 -20.5 -8t-51.5 -51q-2 -2 -11 -8.5t-26 -10.5q-6 0 -12 2q-35 16 -35 49z" />
<glyph unicode="&#x2000;" horiz-adv-x="987" />
<glyph unicode="&#x2001;" horiz-adv-x="1975" />
<glyph unicode="&#x2002;" horiz-adv-x="987" />
<glyph unicode="&#x2003;" horiz-adv-x="1975" />
<glyph unicode="&#x2004;" horiz-adv-x="658" />
<glyph unicode="&#x2005;" horiz-adv-x="493" />
<glyph unicode="&#x2006;" horiz-adv-x="329" />
<glyph unicode="&#x2007;" horiz-adv-x="329" />
<glyph unicode="&#x2008;" horiz-adv-x="246" />
<glyph unicode="&#x2009;" horiz-adv-x="395" />
<glyph unicode="&#x200a;" horiz-adv-x="109" />
<glyph unicode="&#x2010;" horiz-adv-x="722" d="M90 406q0 16 12.5 29.5t28.5 13.5q18 0 27 -9q23 -16 51.5 -22t62.5 -6q41 0 84 7t85 16t78 16.5t63 7.5q16 0 29.5 -7t17.5 -30q0 -39 -37 -47q-68 -8 -152 -27.5t-170 -19.5q-23 0 -54.5 4t-59 13t-47 23.5t-19.5 37.5z" />
<glyph unicode="&#x2011;" horiz-adv-x="722" d="M90 406q0 16 12.5 29.5t28.5 13.5q18 0 27 -9q23 -16 51.5 -22t62.5 -6q41 0 84 7t85 16t78 16.5t63 7.5q16 0 29.5 -7t17.5 -30q0 -39 -37 -47q-68 -8 -152 -27.5t-170 -19.5q-23 0 -54.5 4t-59 13t-47 23.5t-19.5 37.5z" />
<glyph unicode="&#x2012;" horiz-adv-x="722" d="M90 406q0 16 12.5 29.5t28.5 13.5q18 0 27 -9q23 -16 51.5 -22t62.5 -6q41 0 84 7t85 16t78 16.5t63 7.5q16 0 29.5 -7t17.5 -30q0 -39 -37 -47q-68 -8 -152 -27.5t-170 -19.5q-23 0 -54.5 4t-59 13t-47 23.5t-19.5 37.5z" />
<glyph unicode="&#x2013;" horiz-adv-x="989" d="M90 406q0 16 9.5 32.5t29.5 16.5q29 0 41 -13q12 -8 51 -14t86 -9t89 -5t61 -2q41 0 100 7t118.5 16t112 16.5t78.5 7.5q16 0 29.5 -7t17.5 -30q0 -39 -36 -47q-35 -4 -89.5 -12.5t-114 -15.5t-117.5 -13t-101 -6q-55 0 -119 5t-119 14t-91 23.5t-36 35.5z" />
<glyph unicode="&#x2014;" horiz-adv-x="1269" d="M90 406q0 18 11.5 34.5t33.5 16.5q14 0 30.5 -9.5t43.5 -15.5q31 -8 88 -12t118.5 -6t113 -2h69.5q41 0 120 7t162 16t153.5 16.5t96.5 7.5q16 0 30 -7t18 -30q0 -39 -37 -47q-35 -4 -107.5 -12.5t-155.5 -15.5t-161 -13t-121 -6q-55 0 -141 2t-167 9t-139.5 22.5 t-58.5 44.5z" />
<glyph unicode="&#x2018;" horiz-adv-x="475" d="M102 1210q4 59 19.5 113.5t36 95.5t42 64.5t40.5 23.5q23 0 33 -12t10 -31q0 -12 -4 -20q-51 -92 -68.5 -146.5t-17.5 -80.5q0 -41 20 -52.5t63 -11.5q18 0 32 -11.5t14 -29.5q-2 -27 -17.5 -37t-38.5 -10q-78 0 -121 36t-43 109z" />
<glyph unicode="&#x2019;" horiz-adv-x="475" d="M154 1462q2 27 17 37t38 10q78 0 121 -35.5t43 -109.5q-4 -59 -19.5 -113.5t-36 -95.5t-42 -64.5t-39.5 -23.5q-23 0 -33 12.5t-10 30.5q0 12 4 20q51 92 68.5 146.5t17.5 81.5q0 41 -21.5 52t-62.5 11q-18 0 -31.5 11.5t-13.5 29.5z" />
<glyph unicode="&#x201a;" horiz-adv-x="430" d="M49 379q2 27 17.5 37t37.5 10q78 0 121 -35.5t43 -109.5q-4 -84 -30.5 -150.5t-55.5 -105.5q-12 -16 -23.5 -28.5t-25.5 -12.5q-23 0 -34 12.5t-11 30.5q0 12 4 21q51 92 68.5 146t17.5 81q0 41 -18.5 53t-65.5 10q-18 0 -31.5 11.5t-13.5 29.5z" />
<glyph unicode="&#x201c;" horiz-adv-x="735" d="M102 1212q4 59 19.5 113.5t36 95.5t42 64.5t40.5 23.5q23 0 33 -12t10 -31q0 -12 -4 -20q-47 -68 -66.5 -134.5t-19.5 -92.5q0 -41 18 -52.5t65 -11.5q18 0 32 -11t14 -30q-2 -27 -17.5 -37t-38.5 -10q-78 0 -121 36t-43 109zM365 1212q4 59 18 113.5t33.5 95.5t42 64.5 t41.5 23.5q23 0 33 -12t10 -31q0 -12 -4 -20q-53 -78 -69.5 -139.5t-16.5 -87.5q0 -41 20.5 -52.5t63.5 -11.5q18 0 31.5 -11t13.5 -30q-2 -27 -17.5 -37t-38.5 -10q-78 0 -119.5 34t-41.5 111z" />
<glyph unicode="&#x201d;" horiz-adv-x="735" d="M154 1460q2 27 18 39t39 12q78 0 119 -35.5t41 -113.5q-4 -59 -18.5 -113.5t-34 -95.5t-42 -64.5t-40.5 -23.5q-23 0 -33 12.5t-10 30.5q0 12 4 20q51 92 68.5 146.5t17.5 81.5q0 41 -21.5 52t-62.5 11q-18 0 -31.5 11.5t-13.5 29.5zM414 1460q2 27 17 39t38 12 q78 0 121 -37.5t43 -111.5q-4 -59 -19.5 -113.5t-36 -95.5t-42 -64.5t-39.5 -23.5q-23 0 -33 12.5t-10 30.5q0 12 4 20q51 92 68.5 146.5t17.5 81.5q0 41 -18.5 52t-65.5 11q-18 0 -31.5 11.5t-13.5 29.5z" />
<glyph unicode="&#x201e;" horiz-adv-x="780" d="M193 377q2 27 17 37t38 10q78 0 121 -35.5t43 -109.5q-4 -84 -31 -150.5t-55 -105.5q-12 -16 -23.5 -28.5t-26.5 -12.5q-23 0 -34 12.5t-11 30.5q0 12 5 20q51 92 68.5 146.5t17.5 81.5q0 41 -18.5 53t-65.5 10q-18 0 -31.5 11.5t-13.5 29.5zM455 377q2 27 17 37t38 10 q78 0 121 -35.5t43 -109.5q-4 -84 -31 -150.5t-55 -105.5q-12 -16 -23.5 -28.5t-25.5 -12.5q-23 0 -34 12.5t-11 30.5q0 12 4 20q51 92 68.5 146.5t17.5 81.5q0 41 -18.5 53t-65.5 10q-18 0 -31.5 11.5t-13.5 29.5z" />
<glyph unicode="&#x2022;" horiz-adv-x="622" d="M168 451q0 57 39 97t96 40t97 -40t40 -97t-40 -96.5t-97 -39.5t-96 39.5t-39 96.5z" />
<glyph unicode="&#x2026;" horiz-adv-x="1525" d="M153 223q0 31 22.5 53.5t55.5 22.5q31 0 53.5 -22.5t22.5 -53.5q0 -33 -22.5 -55.5t-53.5 -22.5q-33 0 -55.5 22.5t-22.5 55.5zM657 223q0 31 22.5 53.5t55.5 22.5q31 0 53.5 -22.5t22.5 -53.5q0 -33 -22.5 -55.5t-53.5 -22.5q-33 0 -55.5 22.5t-22.5 55.5zM1163 223 q0 31 22.5 53.5t55.5 22.5q31 0 53.5 -22.5t22.5 -53.5q0 -33 -22.5 -55.5t-53.5 -22.5q-33 0 -55.5 22.5t-22.5 55.5z" />
<glyph unicode="&#x202f;" horiz-adv-x="395" />
<glyph unicode="&#x2039;" horiz-adv-x="628" d="M23 420q0 18 9 30.5t19 20.5q43 33 96.5 74t108.5 90t108.5 102.5t98.5 110.5q10 16 37 16q6 0 14 -2t14 -6q10 -6 17.5 -17.5t7.5 -25.5q0 -12 -12 -29q-88 -111 -192.5 -206t-196.5 -162q92 -68 196.5 -163t192.5 -206q12 -16 12 -29q0 -14 -7 -25t-18 -18 q-6 -4 -14 -6t-14 -2q-27 0 -37 17q-45 57 -98.5 110t-108.5 102.5t-108.5 90.5t-96.5 73q-10 10 -19 23.5t-9 36.5z" />
<glyph unicode="&#x203a;" horiz-adv-x="616" d="M55 18q0 12 13 29q88 111 192.5 206t196.5 163q-92 68 -196.5 163t-192.5 205q-12 16 -13 29q0 14 7.5 25.5t17.5 17.5q6 4 14 6t15 2q27 0 36 -16q45 -57 98.5 -110.5t109 -102.5t108.5 -90t96 -74q10 -8 19.5 -20.5t9.5 -30.5q0 -23 -9.5 -36t-19.5 -24 q-43 -33 -96 -73.5t-108.5 -90t-109 -102.5t-98.5 -110q-10 -16 -36 -17q-6 0 -14.5 2t-14.5 6q-10 6 -17.5 17.5t-7.5 25.5z" />
<glyph unicode="&#x205f;" horiz-adv-x="493" />
<glyph unicode="&#x20ac;" horiz-adv-x="948" d="M-74 711q0 16 12.5 30.5t34.5 14.5h11.5t17.5 4q23 4 34 9t36 15q2 0 3 1t5 1q25 111 80 215.5t135 185.5t183.5 131t223.5 50q66 0 116 -30.5t73 -104.5q-2 -25 -16.5 -38t-30.5 -13q-29 0 -43 32q-10 35 -36 49.5t-60 14.5q-98 0 -182.5 -39t-150 -102.5t-112.5 -145.5 t-74 -170q57 18 109.5 30.5t106 22t109.5 15.5t122 8q20 -4 30.5 -17.5t10.5 -27.5q0 -16 -11.5 -29.5t-31.5 -17.5q-68 -2 -122 -7t-103.5 -15.5t-101.5 -25t-118 -32.5l-24 -8q-4 -27 -6 -52.5t-2 -50.5v-6q16 6 30.5 12.5t30.5 10.5q61 16 110.5 28.5t95.5 20.5t95 13 t113 5q20 -4 30.5 -17t10.5 -28q0 -35 -43 -45q-59 -2 -105.5 -6t-89.5 -11t-89 -19.5t-103 -28.5q-23 -6 -41.5 -13.5t-38.5 -17.5q10 -84 36.5 -154.5t67.5 -122t94.5 -79t116.5 -27.5q70 0 124 22.5t96 60.5t77 86t70 99q10 10 19 13.5t20 3.5q18 0 30.5 -13.5 t12.5 -29.5t-15 -37q-37 -53 -79 -106.5t-92 -97.5t-113.5 -71.5t-143.5 -27.5q-74 0 -141.5 32.5t-121.5 91t-93 140.5t-55 178q-35 -14 -78 -24q-6 -2 -17 -3q-23 0 -34 13.5t-11 29.5q0 33 35 48q25 4 48.5 12t45.5 18v45v30.5t2 31.5q-35 -12 -67 -12q-18 0 -37 6 q-31 14 -31 43z" />
<glyph unicode="&#x2122;" horiz-adv-x="1163" d="M29 1333q0 16 15 27.5t34 11.5q100 29 189 46.5t136 17.5q14 0 33 -1t25 -5q8 14 15 22t24 8q23 0 27.5 -20.5t4.5 -44.5v-197q6 10 16.5 31.5t26 44t38 39t53.5 16.5q25 0 44 -19.5t33.5 -48t23.5 -64.5t13 -69q14 27 30.5 56.5t38 54.5t47.5 40t56 15q41 0 71 -23.5 t48.5 -62.5t26.5 -89t8 -101l4 -129q0 -12 -1 -26.5t-6 -29t-17.5 -23.5t-34.5 -9q-14 0 -25.5 9t-11.5 28q0 20 6 43q4 14 6 28.5t2 36.5q0 141 -21.5 207t-54.5 66q-16 0 -38.5 -29t-43 -73t-36 -97t-15.5 -100v-78q0 -33 -8 -49.5t-33 -16.5q-29 0 -36 26.5t-7 80.5v22 q0 55 -5 115.5t-14 110t-22.5 81t-29.5 31.5q-20 0 -42 -42t-39.5 -100.5t-28.5 -119.5t-11 -100l2 -21q0 -16 -10.5 -29.5t-24.5 -13.5q-18 0 -30.5 15.5t-12.5 35.5q0 8 1 17.5t1 38.5v32l-8 406q-8 -2 -17 -4q-10 -2 -36 -2h-27q-43 0 -71.5 -3t-51.5 -7q0 -78 5 -147 t11 -136q6 -59 10.5 -115.5t4.5 -116.5q0 -16 -11.5 -30.5t-27.5 -14.5q-31 0 -38 34t-11 75l-27 424q-27 -4 -50.5 -14.5t-55.5 -10.5q-16 0 -27.5 11.5t-11.5 27.5z" />
<glyph unicode="&#x25fc;" horiz-adv-x="778" d="M0 0v778h778v-778h-778z" />
<glyph unicode="&#xfb01;" horiz-adv-x="960" d="M-2 317q0 20 15.5 35t33.5 15t27.5 -10.5t31.5 -10.5q35 0 91 14q-8 43 -23.5 123t-30 180.5t-24.5 212t-10 220.5q0 98 20.5 186t60 154.5t99 105.5t135.5 39t130 -24.5t93 -69.5t63.5 -108.5t41.5 -139.5q12 -59 20 -161.5t15.5 -228.5t12.5 -264.5t13 -268.5 t18.5 -242.5t26.5 -184.5q29 4 57.5 7.5t59.5 3.5q45 0 104 -13q43 -10 43 -45q0 -29 -15 -41t-34 -12q-29 0 -60.5 7t-62.5 7q-39 0 -65.5 -12t-53.5 -12q-37 0 -58 70.5t-35.5 186.5t-21.5 264.5t-14.5 303t-14.5 302t-21 263.5q-6 49 -20.5 104.5t-43.5 101.5t-73 77 t-107 31q-47 0 -86 -31t-67.5 -85t-45 -126t-16.5 -154q0 -104 10 -214.5t23.5 -209t28 -172t22.5 -104.5q47 12 95 29.5t103 17.5q16 0 36 -3t37.5 -10t28.5 -19.5t11 -30.5q0 -23 -14.5 -35t-32.5 -12q-14 0 -28.5 6t-37.5 6q-41 0 -94 -16.5t-86 -28.5q41 -221 80 -446.5 t39 -460.5q0 -33 -6 -63t-45 -30q-20 0 -33.5 15.5t-13.5 34.5q0 131 -11.5 250.5t-28 233.5t-37 222.5t-38.5 216.5q-25 -6 -51.5 -11t-50.5 -5q-16 0 -37 4t-38.5 12t-28.5 21.5t-11 31.5z" />
<glyph unicode="&#xfb02;" horiz-adv-x="919" d="M-2 317q0 20 15.5 35t33.5 15t27.5 -10.5t31.5 -10.5q35 0 91 14q-8 43 -23.5 123t-30 180.5t-24.5 212t-10 220.5q0 98 12 186t40.5 154.5t79 105.5t126.5 39q35 0 88 -18.5t102 -53t86 -84t41 -110.5q0 -20 -11 -35.5t-34 -15.5q-47 0 -51 47v-2q-2 37 -29 68.5 t-62.5 55t-72 37t-59.5 13.5q-47 0 -77 -31t-48.5 -85t-25.5 -126t-7 -154q0 -104 10 -214.5t23.5 -209t28 -172t22.5 -104.5q47 12 95 29.5t103 17.5q16 0 36 -3t37.5 -10t28.5 -19.5t11 -30.5q0 -23 -14.5 -35t-32.5 -12q-14 0 -28.5 6t-37.5 6q-41 0 -94 -16.5t-86 -28.5 q41 -221 80 -445.5t39 -453.5v-8q0 -33 -6 -63t-45 -30q-20 0 -33.5 15.5t-13.5 34.5v53q0 221 -39 437t-76 433q-25 -6 -51.5 -11t-50.5 -5q-16 0 -37 4t-38.5 12t-28.5 21.5t-11 31.5zM647 1188q0 25 17.5 42t44.5 17t43 -17.5t16 -41.5q0 -27 -16 -44.5t-43 -17.5 t-44.5 17.5t-17.5 44.5zM692 889q0 16 10.5 32.5t38.5 16.5q39 0 50 -47q6 -31 8 -106.5t5 -170t8 -189.5t17 -165q4 -8 5 -22q0 -18 -13.5 -33t-36.5 -15t-35 9.5t-17 23t-6 30.5t-3 34q-6 55 -9 123.5t-5 141.5t-4.5 145.5t-6.5 133.5q0 10 -3 26.5t-3 31.5z" />
</font>
</defs>
</svg>
