<?xml version="1.0" standalone="no"?>
<!DOCTYPE svg PUBLIC "-//W3C//DTD SVG 1.1//EN" "http://www.w3.org/Graphics/SVG/1.1/DTD/svg11.dtd" >
<svg xmlns="http://www.w3.org/2000/svg">
<metadata></metadata>
<defs>
<font id="dsp_old_general_storeregular" horiz-adv-x="481" >
<font-face units-per-em="2048" ascent="1638" descent="-410" />
<missing-glyph horiz-adv-x="657" />
<glyph horiz-adv-x="0" />
<glyph unicode="&#xd;" horiz-adv-x="657" />
<glyph unicode=" "  horiz-adv-x="657" />
<glyph unicode="&#x09;" horiz-adv-x="657" />
<glyph unicode="&#xa0;" horiz-adv-x="657" />
<glyph unicode="!" horiz-adv-x="620" d="M545 1188q-16 -6 -50 -59.5t-75 -65.5q0 -33 31 -33q33 -18 32 -67q0 -33 -22 -50q6 -59 -15 -165q-31 -154 -34 -185q-10 -94 -45 -287q-20 0 -60.5 18.5t-54.5 37.5q-12 117 -127 809q23 2 70 30q-25 23 -99 17q0 20 -14 98t-14 113q0 78 38.5 128t176.5 136 q14 -6 84 -72q57 -53 92 -53q37 0 45 10.5t14 10.5q0 -37 17.5 -138.5t17.5 -156.5q0 -41 -8 -76zM549 33q-27 -27 -39 -87.5t-23 -117.5q-4 -25 -53 -82q-55 -61 -67 -96q-39 -8 -72 -8q-131 0 -189 110q-39 70 -38 154q0 111 86 178q80 63 192 63q88 1 203 -114zM324 651 l-15 35l-59 -31v-37z" />
<glyph unicode="&#x22;" horiz-adv-x="581" d="M514 1667q0 -53 -41 -123q-45 -80 -108 -112q-8 2 -25 14q53 49 88 117v24q-117 33 -117 99q0 37 30 69.5t67 32.5q106 0 106 -121zM270 1475q0 -53 -41 -123q-45 -80 -108 -113q-8 2 -25 14q53 49 88 117v25q-117 33 -116 98q0 37 29.5 69.5t66.5 32.5q106 1 106 -120z " />
<glyph unicode="#" horiz-adv-x="1165" d="M338 727q0 -8 2 -35q-45 -23 -80 2l-106 152q31 53 57 51q12 0 16 -2l37 -35q16 -14 185 -10q84 4 172 6q283 8 303 2q0 20 10 57q41 4 59 -12q12 -16 41 -47q8 -18 27.5 -47t25.5 -41q8 -25 11 -80q-59 2 -97 31q2 12 -4 14q-2 2 -8 0q-8 -2 -10 -2q-125 6 -619 0 q-10 0 -22 -4zM428 408q8 -4 33 -19q4 -51 -29 -70l-174 -18q-37 55 -29 80q4 10 9 12l43 17q20 8 73 161q25 78 52 160q88 260 102 275q-18 10 -49 38q6 27 8 31q6 12 24.5 16.5t55.5 14.5q18 -4 51 -4q51 12 121 -27q-20 -53 -60 -71q-8 6 -12 6t-6 -9v-12 q-49 -109 -209 -561q-4 -8 -4 -20zM707 391q8 -4 32 -18q4 -51 -28 -70l-174 -18q-37 55 -29 80q4 10 8 12l43 16q20 8 74 162q25 78 51 160q88 260 102 274q-18 10 -49 39q6 27 8 31q6 12 24.5 16t55.5 15q18 -4 52 -5q51 12 120 -26q-20 -53 -59 -72q-8 6 -12 6t-6 -8v-12 q-49 -109 -209 -561q-4 -9 -4 -21zM272 510q2 -10 2 -37q-45 -20 -79 4l-107 150q31 53 57 53q12 0 17 -4l37 -33q16 -14 184 -10q84 2 172 6q283 6 303 0q0 20 10 57q41 6 57.5 -10t43.5 -49q8 -18 24 -47q25 -27 29 -41q10 -23 10 -78q-59 2 -96 31q2 10 -2 14q-4 2 -10 0 q-8 -4 -11 -4q-125 8 -618 2q-11 -2 -23 -4z" />
<glyph unicode="$" horiz-adv-x="1482" d="M1210 522q0 -55 -39 -143q-12 -12 -38 -49q-121 -174 -355 -174q-14 0 -47 6t-47 6q-31 0 -122 35t-122 35q-8 0 -53 -17.5t-57 -17.5t-26.5 13t-14.5 26v186q0 23 11 48.5t32 25.5q14 0 61 -53q61 -68 115 -107q92 -61 209 -82q4 0 16 -4t19 -4q86 0 170 53 q96 59 96 139q0 29 -19 91q-6 18 -51 53q-4 14 -24 33l-207 90q-143 66 -195 100q-27 10 -69 35q-61 61 -121 155q-20 33 -21 115q0 57 8 119q6 8 15 27q39 94 139 149q92 49 201 49q72 0 89 -3t85 -19q59 -14 78 -15q31 0 75 23h27q33 -139 33 -162v-61q-8 -8 -25 -9 q-6 0 -69 48q-70 51 -97 65q-16 6 -47 16q-80 14 -118 15q-84 0 -158 -58q-80 -59 -80 -139q0 -53 37 -90q12 -12 76 -53q98 -61 120 -62q8 0 7.5 3.5t5.5 3.5t27.5 -13.5t29.5 -15.5q49 -12 150 -39l55 -33q90 -33 178 -133q16 -20 35 -86q22 -86 22 -121zM795 1423 q0 47 3 60.5t13 11.5v-10l2 -8v-13q-23 -594 -16 -1196v-8l28 2q14 -66 15 -112q0 -45 -17 -91l-166 -235q-47 57 -55 74q-20 37 -18 88q0 31 39 114q10 27 12 340v226q-2 131 -2 108q0 311 6 559q-16 6 -51 27q-4 117 22 164l15 22q14 29 55 78q18 29 61 78q29 23 115 22 q-4 -154 -61 -301z" />
<glyph unicode="%" horiz-adv-x="1437" d="M1137 1212q0 -47 -54 -139q-37 0 -59 4q-92 -197 -221 -454q-76 -143 -150 -287q-119 -236 -118 -262v-78q0 -33 -25 -69t-141 -74l-60 290q8 82 90 181l27 -17q23 47 231 502q145 315 248 485q10 113 70 240q78 -45 96 -66q23 -29 33 -100q10 -18 22 -63 q0 -16 5.5 -53.5t5.5 -39.5zM549 1036q-20 -27 -62.5 -51t-76.5 -24h-15q-72 0 -127 46t-55 117q0 78 55.5 125t130.5 47q70 0 126.5 -45t56.5 -118q0 -54 -33 -97zM1206 293q-20 -27 -63 -51.5t-78 -24.5h-12q-72 0 -127.5 45t-55.5 119q0 76 55.5 123t129.5 47 q72 0 125 -41q59 -47 59 -121q0 -55 -33 -96zM403 1092h3q2 0 3 3t9 35q-4 31 -19 31q-8 0 -14 -12l-2 -6q-2 -8 -2 -13q0 -31 16 -36q4 -2 6 -2zM1059 348h4l2 3t10 36q-4 31 -20 31q-8 0 -13 -12l-4 -7q-2 -8 -2 -12q0 -31 19 -37q2 -2 4 -2z" />
<glyph unicode="&#x26;" horiz-adv-x="1599" d="M1595 59q0 -27 -23.5 -79t-41.5 -78q-43 -59 -129 -176q-82 -109 -168 -109h-59q-72 0 -161 80t-118 80q-10 0 -70 -43q-76 -55 -102.5 -70.5t-85.5 -38.5q-66 -27 -88 -26h-78q-162 0 -285 116q-104 100 -166 269q-20 55 -20 143q0 16 12 59q14 53 17 66q25 141 223 338 q76 49 158 110q25 18 24 56q0 10 -16.5 41.5t-24.5 54.5q-57 139 -71 195q-20 76 -21 165q0 121 67.5 235t174.5 169q51 27 98 31h90q20 0 125 -39q27 -10 70 -54q25 -25 24 -43q8 -4 21 -18q49 -84 63 -121q20 -55 21 -133q0 -121 -51 -215q-25 -43 -93 -123 q-51 -59 -51 -104q0 -53 94 -211q37 -61 117 -189q10 0 25 25q92 164 92 254q0 57 -62.5 96t-62.5 68q0 16 13.5 33.5t27.5 17.5q57 0 172 6l117 6q141 0 141 -67q0 -39 -33 -62.5t-65 -44.5q-55 -37 -78 -74q-57 -92 -139 -266q-76 -162 -76 -182q0 -23 61 -166 q68 -158 103 -158q59 0 129.5 115t93.5 115q20 0 42.5 -18t22.5 -36zM913 1221q0 98 -33.5 157.5t-119.5 110.5q-41 25 -47 24q-68 0 -111 -65q-35 -57 -35 -129q0 -98 76 -207q66 -96 160 -156q29 18 69.5 121t40.5 144zM842 -25q0 20 -148 295q-154 287 -192 287 q-12 0 -54 -27.5t-55 -40.5q-84 -90 -84 -256q0 -147 80 -290q96 -174 250 -174q66 0 134.5 70t68.5 136z" />
<glyph unicode="'" horiz-adv-x="266" d="M195 1694q0 -37 -27 -86q-29 -57 -70 -80q-4 2 -16 10q35 35 57 82v18q-76 23 -76 70q0 25 19.5 47.5t44.5 22.5q68 0 68 -84z" />
<glyph unicode="(" horiz-adv-x="1030" d="M967 -330q0 -25 -15.5 -48t-40.5 -23q-59 0 -247 73q-14 0 -43 6q-199 84 -379 390q-63 106 -97 223q-18 66 -32 196q-12 113 -13 144q0 246 101 489q121 293 338 428q45 27 104 51q84 33 137 33q27 14 39 15q8 0 37 -13.5t43 -13.5v-80q0 -12 -76 -70q-96 -74 -118 -94 q-145 -131 -146 -508q0 -231 8 -348q6 -66 21.5 -235.5t25.5 -206.5q33 -125 136 -211q16 -18 45 -45q41 -20 118 -66q54 -33 54 -86z" />
<glyph unicode=")" horiz-adv-x="1015" d="M53 -311q0 -25 15.5 -48.5t40.5 -23.5q59 0 247 74q14 0 43 6q199 84 379 389q63 106 96 223q18 66 33 197q12 113 13 143q0 246 -101 490q-121 293 -338 428q-45 27 -104 51q-84 33 -137 33q-27 14 -39 14q-8 0 -37 -13.5t-43 -13.5v-79q0 -12 76 -70q96 -74 118 -94 q145 -131 146 -508q0 -231 -8 -348q-6 -66 -21.5 -236t-25.5 -207q-33 -125 -136 -211q-16 -18 -45 -45q-41 -20 -119 -65q-53 -33 -53 -86z" />
<glyph unicode="*" horiz-adv-x="974" d="M829 1124q0 -29 -24.5 -59.5t-52.5 -30.5q-16 0 -52 19q-47 25 -55 28q-35 14 -98 25q-2 -2 -2 -6q0 -16 43 -62l74 -51q45 -33 45 -69q0 -43 -33 -72t-78 -29q-41 0 -64 27q-12 16 -16 80q-4 86 -4 90q-2 12 -16 49h-4q-25 -35 -35 -94q-6 -51 -13 -103 q-4 -16 -31.5 -32.5t-43.5 -16.5q-41 0 -74 32t-33 73q0 29 27 45q104 68 143 125q-6 6 -35 6l-16 -6q-37 -8 -115 -50q-23 -10 -37 -10q-37 0 -59.5 32t-22.5 71q0 31 21.5 59.5t52.5 28.5q23 0 88 -37q37 -18 60 -21q2 -4 14 -6h43l6 6q-35 49 -139 117q-27 20 -27 51 q0 41 32 70t75 29q23 0 50.5 -16.5t27.5 -37.5v-96q0 -10 10 -45t16 -43q35 33 43 96q0 2 10 96q4 18 28 32t44 14q41 0 75 -27t34 -68q0 -35 -29 -55q-23 -12 -66 -39q-70 -45 -77 -76q4 -8 18 -8q41 0 82 15q10 4 59 28q33 14 52 15q37 0 58 -28t21 -65z" />
<glyph unicode="+" horiz-adv-x="976" d="M299 707l2 -23q-35 -20 -59 -20q-25 0 -47 20l-84 154q25 55 41 69q10 8 32 8q20 0 58 -43q0 -2 223 7q66 2 184 0q0 14 8 49q41 6 54 4q23 -2 39 -31l8 -12q20 -31 33 -64q10 -16 24 -49q8 -25 8 -108q-82 2 -135 57q39 4 37 -14h4l-4 -2q-6 -2 -14 -2q-93 6 -412 0z M539 635l8 -2q12 -37 12 -64q0 -51 -43 -80l-166 -45q-74 61 -74 97q0 12 5 22q8 31 61 60q2 18 8 71q8 47 19 107q8 37 32 141l-34 19q4 63 10 75q12 31 61 47q27 6 84 21q18 6 41 6q25 0 119 -25q-20 -72 -45 -103.5t-102 -78.5l10 72q4 29 20 39l2 41l54 -62q4 -4 -3 -26 q-28 -88 -79 -332z" />
<glyph unicode="," horiz-adv-x="329" d="M262 -2q0 -53 -41 -123q-45 -80 -108 -113q-8 2 -25 15q53 49 88 117v24q-117 33 -117 98q0 37 30 69t67 32q106 0 106 -119z" />
<glyph unicode="-" horiz-adv-x="1234" d="M1167 940q-29 -18 -32 -43l4 -45h-52l-24 16q10 -16 -23 -16h-41q2 18 -49 35q-12 -8 -41 -25l-825 2q0 6 -8 14.5t-8 20.5q0 8 21.5 29.5t53.5 23.5q90 8 430 15q299 6 351 6h243v-33z" />
<glyph unicode="." horiz-adv-x="329" d="M240 20q0 -111 -117 -110q-104 0 -105 100q0 47 25 84t70 37q51 0 89 -34t38 -77z" />
<glyph unicode="/" horiz-adv-x="1095" d="M690 1249q0 -33 19 -51l36 -22l-30 -41l-27 -11q10 0 10 -8t-10 -20l-24 -33q-12 12 -56 -21q-2 -14 -6 -47l-485 -665q-6 2 -17.5 1t-21.5 6t-10 44q0 27 14 49q45 76 240 354q170 246 200 287l144 197z" />
<glyph unicode="0" horiz-adv-x="1933" d="M1747 670q0 -240 -156 -424q-139 -166 -377 -258q-156 -59 -196 -60h-90q-309 0 -539 189q-246 201 -246 504q0 508 553 702q41 14 148 25q74 6 108 6q307 0 539 -180q256 -199 256 -504zM1464 623q0 166 -78 319q-80 162 -212 246q-109 68 -222 67q-147 0 -267 -90 t-171 -229q-10 -23 -29 -66q-39 -115 -39 -215q0 -158 75 -312.5t198 -250.5q29 -23 98 -47q88 -31 96 -33h80q82 0 236 88q49 27 98 93q123 164 123 374q0 10 7 29t7 27z" />
<glyph unicode="1" horiz-adv-x="931" d="M764 -150q0 -45 -168 -45l-250 -36q-2 -2 -8 -2q-51 0 -51 40q0 23 35 41q57 29 65 35q35 29 35 80q0 6 -53 373q-61 410 -84 547q-4 23 -32 49t-48.5 30.5t-52.5 18.5q-16 10 -17 29q0 35 55 51q33 8 60 31q88 104 115 104q45 0 57 -86q2 -31 6 -90q29 -244 115 -809 q18 -78 47 -231q18 -45 76 -76q18 -4 58 -14.5t40 -39.5z" />
<glyph unicode="2" horiz-adv-x="1579" d="M1339 379q-8 -35 -22 -125q-6 -33 -17 -100q-20 -66 -86 -82q-18 -4 -79 -4q-106 0 -252 -9q-113 -6 -287 -20l-182 -19q-82 0 -82 80q0 6 5 16.5t5 16.5q2 98 68 238q59 88 149 159q47 35 139 107q86 68 170 170q104 125 105 201q0 4 -17 43q2 18 -4 53 q-63 133 -180 133q-8 0 -20.5 -4t-18.5 -4q-115 2 -233 -80q-53 -35 -111 -121q-43 -59 -86 -59q-23 0 -59 20v23q0 80 114 202q141 154 281 197q117 37 197 37q-20 0 67 -12q162 -25 262 -111q113 -100 113 -256t-104 -274q-70 -80 -228 -177q-170 -104 -227 -149 q-35 -27 -105 -80q-80 -66 -79 -104q0 -53 77 -54q57 0 177 27t180 27q4 0 10 -3t12 -3q45 0 127 22q31 8 45 25q18 33 68 90q14 12 39 14q2 0 47 4q22 -45 22 -55z" />
<glyph unicode="3" horiz-adv-x="1335" d="M1118 410q0 -47 -47 -172q-16 -35 -41 -54q-92 -63 -129 -82q-8 -8 -29 -18q-111 -37 -127 -37t-44.5 -5t-43.5 -5h-92q-6 0 -16 4t-14 4q-104 18 -244 96q-37 18 -37 62q0 68 47 108q63 55 127 56q-12 0 47 -11q20 -14 51 -39q55 -61 176 -165q16 -14 41 -15 q6 0 15.5 6.5t15.5 6.5t3 -6.5t3 -6.5q23 0 60 31q25 18 96 113q-4 8 -4 26q23 53 22 47q0 4 -8 21.5t-8 27.5q-2 92 -68 170q-109 131 -192 172q-74 25 -184 78q6 8 6 15q29 0 76 19.5t51 19.5q6 0 6 -2.5t6 -2.5q8 0 48 29t50 41q23 20 37 82q4 6 4 41q0 82 -45 147 q-51 76 -129 76q-49 0 -102 -20q-29 -8 -101 -82q-23 -35 -86 -103q-14 -12 -39 -12q4 0 -51 19q8 39 33 93t64 97q12 20 49 55q51 35 94 68q90 66 235 65q59 0 131 -49q66 -47 96.5 -106.5t30.5 -122.5q0 -59 -24 -113q-14 -29 -66 -102q-45 -63 -45 -72q0 -20 56 -55 q39 -20 75 -43q31 -20 65 -62.5t46 -70.5q53 -125 53 -262z" />
<glyph unicode="4" horiz-adv-x="2213" d="M1729 602q0 -31 -9 -51q-33 -8 -86 -8h-47q-66 0 -49 0q-139 0 -139 -94q0 -8 14 -158l17 -162q0 -90 -144 -90q-150 0 -231 8q-23 72 -23 100q0 172 -2 220q-14 170 -67 168l-533 -23q-20 0 -68.5 -7t-74.5 -7q-57 0 -88 22q-2 70 8 88q20 31 166 137q14 12 172 127 q45 37 211 168q100 76 358 277q33 27 96 78q90 70 113 69q68 0 68 -114q0 -23 -2 -45l-3 -23q0 -27 -2 -72q-4 -53 -4 -71q0 -244 13 -426q6 -10 18 -27q23 -8 98 -8q23 0 67 4t66 4q87 0 87 -84zM1030 756q0 23 -8 112q-10 106 -25 166q-8 35 -41 35t-239 -172 q-188 -156 -264 -229q14 -16 16 -19h61q45 0 187 8q186 10 289 23q24 31 24 76z" />
<glyph unicode="5" horiz-adv-x="1286" d="M1098 430q0 -12 -17 -117q-27 -178 -143 -254q-100 -66 -287 -65h-157q-92 0 -174 72.5t-82 164.5q0 121 116 121q18 0 68 -30q35 -23 56.5 -122.5t68.5 -115.5q35 -14 74 -14h69q45 0 109.5 38.5t85.5 77.5q39 80 44 100.5t5 73.5v64q-6 39 -43 94q-63 92 -244 127 q-72 14 -194 27l-220 24q-27 4 -26 88q0 -27 24 357q6 96 25 223q4 27 18 31l64 8l659 18q59 0 60 -61q0 -31 -34 -83t-62 -81l-555 -6q-47 0 -62 -29q-10 -20 -14 -51q-10 -74 -11 -96q0 -113 50 -113q18 0 55 3t55 3q223 0 406 -116q213 -140 213 -361z" />
<glyph unicode="6" horiz-adv-x="1656" d="M1356 420q0 -106 -76 -219t-176 -142q-6 -2 -43 -18q-29 -12 -43 -12t-43 -6.5t-43 -6.5q-8 0 -74 2l-72 5q-6 0 -7 6t-9 6q-147 0 -281 80q-139 84 -194 217q-12 33 -29 43q2 23 -2 80l-6 59q0 160 80 338q25 57 94 145q45 59 203 191q168 141 407 196l25 15 q127 51 180 51q6 0 49 -25q-4 -14 -16 -43q-16 -16 -78 -41q-45 -18 -158 -73q-102 -53 -225 -168q-135 -127 -176 -242q-4 -8 -20.5 -45t-16.5 -45q0 -29 33 -29q6 0 60.5 22.5t68.5 26.5q125 29 236 29q66 0 186 -61q18 -10 70 -60q96 -94 96 -276zM1067 383q0 66 -16 102 q-12 27 -39 95q-12 33 -68.5 76.5t-91.5 43.5q-113 0 -139 -10q-145 -59 -146 -237q0 -37 8 -119q0 -12 52 -129q16 -41 35 -55q47 -41 104 -52q2 -2 0 -6q0 -4 8 -4q27 0 107 21q12 10 32 22q76 12 119 111q35 73 35 141z" />
<glyph unicode="7" horiz-adv-x="1077" d="M926 1350q-6 -14 -47 -101q-55 -117 -78 -178q-96 -258 -96 -473q0 -33 2 -66l28 -436q4 -68 -28 -67q-6 0 -7 4v0q-2 2 -8 2t-14 -8.5t-14 -8.5q-18 0 -54.5 -3t-52.5 -3q-82 0 -82 62v172q0 8 4 13l4 5q-4 74 6 137q6 39 23 152q12 35 31 104q10 88 67 228 q12 27 78 172q47 104 47 114q0 66 -51 66q-37 0 -100 -8q-74 -10 -99 -10q-14 -2 -40.5 -11.5t-36.5 -9.5q-6 0 -7 2v0q-2 4 -8 4q-12 0 -69 -43q-14 -18 -45 -51q-41 -45 -58 -45q-14 0 -30.5 11t-16.5 26q0 2 10 12q-4 10 -4 23q0 16 23 82q4 18 28 114q4 23 16.5 51.5 t92.5 32.5l500 29q59 4 72.5 -15.5t13.5 -80.5z" />
<glyph unicode="8" horiz-adv-x="1355" d="M1159 434q0 -72 -45 -163t-102 -134q-68 -49 -113 -61q-27 -10 -86 -25q-4 0 -21.5 -7t-25.5 -7q-18 0 -56 -4t-57 -4h-16q-6 0 -16.5 5t-16.5 5q-88 6 -168 59.5t-119 134.5q-10 16 -22 71.5t-12 76.5q0 100 88 233q12 18 63 68q41 41 41 49q0 16 -60.5 56t-60.5 42 q-94 106 -94 269q0 70 51 161t111 127q80 51 139 68q33 8 129 8q123 0 260 -76q33 -18 72 -70t47 -89q2 -6 14 -45q8 -31 9 -43q0 -156 -183 -285q8 -10 13 -25q47 -35 98 -100l82 -102q14 -16 35.5 -92t21.5 -101zM956 1126q0 6 -7 20.5t-9 18.5q-8 63 -78 131 q-63 59 -131 84q-23 8 -55 9q-102 0 -180 -70t-78 -172q0 -68 20 -92q47 -63 215 -152q55 -29 52 -29h45q84 0 147 87q59 77 59 165zM989 360q0 8 -12 23q-37 184 -291 285q-6 2 -45 20q-31 14 -39 14q-16 0 -65 -59q-45 -51 -56 -70q-8 -29 -16 -49l-31 -88q-2 -10 -2 -55 q0 -117 49 -178q72 -88 170 -88q10 0 32 3t32 3q2 0 14 12q102 27 123 35q74 29 102 72q35 50 35 120z" />
<glyph unicode="9" horiz-adv-x="1804" d="M1559 954q0 -51 -21 -123q-10 -33 -33 -122q-37 -147 -229 -306q-109 -90 -328 -198q-33 -18 -129 -62q-16 -8 -157 -51q-158 -47 -191 -47q-23 0 -49 16q-33 18 -33 39q0 14 14 27q66 41 134 59q94 25 122 37q61 27 232 139q88 55 156 123q96 96 96 164q0 12 9 40t9 38 q0 27 -26 27l-222 -62l-176 -18q-156 0 -275.5 107.5t-119.5 262.5q0 121 104.5 240t225.5 148q10 4 58 21t52 17q174 0 287 -10q70 -6 137 -33q57 -25 191 -108q68 -45 116 -164q46 -109 46 -201zM1243 1083q0 63 -10 97q-20 70 -79.5 127t-129.5 63q-18 12 -27 12 q-121 0 -155 -10q-94 -27 -148 -135q-31 -61 -30 -127q0 -74 59 -170q72 -117 172 -117q12 0 39 -7t39 -7q8 0 27.5 7t27.5 7q94 0 158 86q57 78 57 174z" />
<glyph unicode=":" horiz-adv-x="329" d="M262 891q0 -111 -115 -111q-104 0 -104 99q0 47 24.5 83.5t67.5 36.5q51 0 89 -33.5t38 -74.5zM258 246q0 -111 -117 -111q-104 0 -104 101q0 45 24.5 82.5t69.5 37.5q51 0 89 -33.5t38 -76.5z" />
<glyph unicode=";" horiz-adv-x="329" d="M262 891q0 -111 -115 -111q-104 0 -104 99q0 47 24.5 83.5t67.5 36.5q51 0 89 -33.5t38 -74.5zM264 -35q0 -53 -39 -123q-45 -80 -110 -112q-6 2 -23 14q51 49 86 117v24q-117 33 -117 99q0 37 31 69.5t66 32.5q106 0 106 -121z" />
<glyph unicode="&#x3c;" horiz-adv-x="2017" d="M1505 -176q27 14 64 14q78 0 123 -43q37 -37 37 -76q0 -16 -25 -63q-6 -39 -51 -64q-8 -18 -25 -53q-59 -43 -112 -43q-51 0 -95 45q-39 39 -59 94q-100 66 -913 576q-8 -4 -11 -31q-4 -33 -6 -37q-16 -53 -131 -96h-129q0 55 2 53q-37 37 -31 74q-55 70 -55 98 q0 39 41 82q51 53 123 54q25 0 53 -11l51 31l-6 -160l-69 45q-29 -12 -60 -12q-76 0 -125 51q-39 41 -39 76q0 39 39 66q6 6 17 20q14 53 24 66l4 4q2 2 9 55h100q59 0 108 -35q57 -39 54 -94v-2q8 -10 22 -23q238 164 475 326q279 195 459 348q0 49 39 90q39 35 78 72 q53 -16 104 -33q45 -23 68 -90q16 -14 32.5 -29.5t16.5 -42.5q23 -39 23 -61q0 -45 -39 -82q-45 -43 -117 -43q-31 0 -57 14l-869 -600q78 -51 434 -266q147 -90 416 -258z" />
<glyph unicode="=" horiz-adv-x="1165" d="M352 817q2 -10 2 -37q-37 -20 -63 4l-86 150q25 53 47 53q8 0 12 -4l31 -33q12 -14 145 -10q68 2 140 6q225 6 241 0q0 20 8 58q33 6 45.5 -10.5t34.5 -49.5q6 -18 22.5 -46t20.5 -42q8 -23 9 -78q-47 2 -76 31q0 10 -4 14q-2 2 -9 0l-6 -4q-100 8 -495 2q-9 -2 -19 -4z M326 479q2 -10 2 -37q-37 -20 -64 4l-86 150q25 53 47 53q8 0 13 -4l30 -33q12 -14 146 -10q68 2 139 6q225 6 242 0q0 20 8 58q33 6 45 -10.5t35 -49.5q6 -18 22.5 -46t20.5 -42q8 -23 8 -78q-47 2 -76 31q0 10 -4 14q-2 2 -8 0l-6 -4q-100 8 -496 2q-8 -2 -18 -4z" />
<glyph unicode="&#x3e;" horiz-adv-x="2017" d="M1585 492v4q-2 55 53 94q51 33 111 33h100q2 -25 6 -54l5 -6q6 -6 34 -39q-6 -12 -6 -20q0 -6 33 -41q20 -25 21 -49q0 -37 -41 -76q-49 -51 -123 -51q-27 0 -62 12q-18 -14 -69 -47l-7 162l54 -31q27 10 53 10q70 0 121 -53q43 -45 43 -84q0 -27 -58 -98q4 -31 -30 -72 q2 2 2 -53h-129q-115 41 -131 94q-6 20 -6 41v10q-2 10 -11 17q-307 -188 -913 -574q-18 -55 -57 -94q-45 -45 -95 -45q-55 0 -112 43q-10 25 -27 53q-35 18 -43 43l-2 6q-2 2 -20 37q-10 18 -11 41q0 39 37 74q47 45 123 45q39 0 66 -14l8 4q270 172 417.5 261t430.5 263 q-4 4 -867 600q-29 -12 -57 -12q-74 0 -119 43q-39 37 -39 80q0 25 23 61q0 37 51 76q31 63 31 65q18 23 80 35q4 0 59 19q39 -35 78 -68q41 -43 41 -94q178 -152 456 -346q238 -164 476 -326q14 13 22 21z" />
<glyph unicode="?" horiz-adv-x="995" d="M928 805q0 -84 -13 -141q-12 -2 -26.5 -5.5t-20.5 -19.5q18 -49 -2 -109q-10 -6 -71 -55q-47 -39 -78 -43q-186 -33 -217 -33q-109 0 -187 78q0 -35 2 -129t2 -147l-170 26v543q59 14 134 16q49 0 135 -4q96 -4 133 -4q100 0 158 70q45 53 45 108q0 51 -35 138 q-39 100 -92.5 134t-108.5 70q-82 47 -156 48q-94 0 -178 -78q-88 123 -88 180q0 72 39 131q51 84 152 84q45 0 139 -28.5t135 -59.5q6 -4 10 -4q6 0 6 8q0 14 -6 14t-10 -18q178 -98 272 -252q86 -139 87 -297q0 -45 -9 -90q-2 -18 8.5 -58t10.5 -73zM309 -358 q-18 0 -53 84q-8 23 -29 71q-70 162 -159 203q4 12 10 25q158 96 231 96q72 0 127 -98q51 -88 51 -175q0 -78 -71 -147q-64 -59 -107 -59z" />
<glyph unicode="@" horiz-adv-x="1443" d="M1352 514q0 -117 -37 -211q-51 -131 -154 -131q-4 0 -96 2t-100.5 2t-52.5 21.5t-44 33.5q0 18 17.5 27.5t37 20t19.5 26.5q0 6 -18.5 31.5t-22.5 40.5q-23 57 -72 57h-317q-53 -68 -63 -135q23 -12 65 -39v-22q-18 -20 -86 -21h-70q-8 0 -9 4t-7 4t-17.5 -2t-17.5 -2 q-53 0 -53 29q0 31 47 31q6 0 14.5 -2.5t14.5 -2.5q20 0 82 97q57 90 149 258q51 111 107 186q-18 18 -19 29q0 16 17 33q10 -8 12 -9q4 0 10 9l12 -9l9 7q-4 4 -11 4q0 14 2 18q29 20 45 21q31 0 74 -121q12 -16 37 -54q8 -16 18 -51q6 -4 21 -18q23 -47 68 -135 q106 -188 186 -285q25 12 63 35q33 25 52 110q2 10 2 29q0 131 -21 219q0 2 -86 127q-49 74 -115 117q-63 37 -124 74q-27 6 -76 18q-125 33 -199 33q-143 0 -294.5 -151.5t-160.5 -307.5q-6 -92 -6 -129q0 -63 6 -86q25 -92 66 -143q43 -33 113 -86q37 -37 75 -74 q49 -47 82 -55q25 -2 76 -9q35 -6 57 -20q16 -8 64 -8q59 0 125.5 17.5t69.5 17.5q20 0 45 -37q0 -8 -13 -17q-123 -45 -155 -53q-16 -2 -97 -2q-362 0 -557 322q-61 102 -61 276q0 154 59 283q76 168 242 254q111 57 158 71q68 20 170 21q254 0 442 -160q201 -170 201 -428 zM748 870l-19 19q0 -2 -3 -9.5t-3 -9.5h25zM831 483v13q-31 49 -88 149q-18 41 -67 111q-51 -70 -141 -277q8 0 25.5 -3t23.5 -3l12 8q14 2 45 2q-2 0 48 -3t87 -3z" />
<glyph unicode="A" horiz-adv-x="659" d="M602 61q0 -4 -8 -26q-2 4 -3 13t-3 13h14zM154 129l-2 -6l-5 10l3 6zM621 96q0 -68 -7.5 -81t-27.5 -13q-2 0 -32 3t-36 3t-23.5 8.5t-21.5 10.5q-18 -2 -53 4q-20 8 -42 88t-26 141l-28 -102q-25 -82 -33 -82q-33 -53 -58 -53h-24q-2 0 -8 5l-6 5q-51 14 -74 37 q-41 45 -64 157q-4 16 -12 49q-6 57 -6 160q0 172 37 297q10 14 26 45q23 45 58 86q41 49 55 74q39 59 78 119q55 100 55 213q0 88 -49 192q-16 37 -61 37q-33 0 -53.5 -32.5t-20.5 -67.5q0 -18 6 -38t23 -61q4 -16 10 -49q10 -51 10 -102q0 -10 -2 -8t-2 0q0 -59 -2 -80 q-4 -43 -19 -78q-6 -10 -24 -37q-25 -33 -33 -33q-2 0 -9 3.5t-10 3.5t-42 84q-4 49 -17 124v60q0 49 8 110q10 74 27 125q61 197 164 197q23 0 22 -18q4 -4 7 8q0 2 3 -4.5t7 -6.5q2 0 5 10.5t5 10.5t10 -6t11 -6h8q6 0 4 10q4 -18 8 -19q2 0 5 4.5t5 4.5q8 0 31 -11 q41 -14 78 -104q41 -98 51 -221q6 -68 6 -158q0 -6 -2 -74q-2 -76 -2 -116q2 -68 0 -205q-6 -168 -6 -150t6 -108q10 -225 53 -258q25 -16 47 -33q7 -11 7 -74zM461 1190l-4 10l-2 -6l4 -10zM381 1298l-2 2l-4 -16l4 -4zM401 1128v0v0v0zM434 1001q-2 -2 -4 -10l4 -16 q4 14 0 26zM387 1047l-2 4l-6 -33l4 -4zM395 1004v18h-4v-18h4zM383 877v0v0v0zM459 653l-2 11l-6 -9v-10zM481 551v10h-8v-10h8zM78 1221v18h-4v-18h4zM498 350v25h-4v-25h4zM387 559l-6 10v-10l4 -8zM616 131v27h-4v-27h4zM389 487l-2 5l-2 -17l2 -4zM442 375l-2 10l-4 -8 v-10zM410 424l-7 20q-2 -6 -2 -20h9zM348 1083q-18 -59 -51 -149q-78 -170 -92 -350q-6 -63 -6 -107q0 -80 6 -139q2 -27 16.5 -80t20.5 -53h16q27 0 53 78q29 86 29 184q0 12 3 40t3 36zM416 369v10l-6 -8v-11zM168 795l-2 12l-2 -8l2 -11zM477 186v31h-4v-31h4zM406 328 l-3 10l-6 -8v-11zM426 176l-4 10l-2 -6l2 -10z" />
<glyph unicode="B" horiz-adv-x="634" d="M596 573q2 -80 -8 -155q-10 -31 -27 -96q0 -41 -2 -123q0 -4 -10 -27q-2 -2 -41 -63q0 -14 -2 -39q-16 -35 -53 -52l-4 -8q-29 -14 -91 -28h-16q-25 -2 -82 32q-8 10 -29 31q-18 12 -34 12q-14 0 -29.5 -38.5t-30.5 -38.5q-4 0 -39 -3q0 96 6 168q0 6 3.5 21.5t3.5 17.5 v103l10 256l-2 88q2 16 2 47v61v488q0 -2 2 4q0 31 -19 180q-4 37 -32 62q-2 39 -23 40q-6 16 -10 50q0 -6 2 53q0 16 16 16l238 -18l-8 -277v-10q-2 -8 -2 -10q-4 -33 -13 -98q0 -20 -2 -66l2 -55q14 20 29 41q6 39 6 67q6 8 23 23q37 23 57 22q35 0 90 -37q0 -4 4 -47 q0 -2 3 -6t3 -16q23 -25 52 -80q2 -2 6 -8q2 -12 6 -45q8 -14 16 -39v-84q6 -33 15 -96q14 -116 14 -220zM223 1520l-2 18h-2v-18h4zM467 827l-4 2l-2 -8l4 -2zM461 670v6h-6v-6h6zM188 1090v8h-4l2 -8h2zM424 745q0 4 -2 43t-2 43l-2 132q-4 16 -10 49q-2 16 -5 43 q-2 18 -20 38.5t-29 20.5q-18 -2 -43 -27q-16 -16 -20 -38q-14 -84 -15 -109l3 -109q0 -4 -3.5 -21t-3.5 -19l-2 -373q4 -43 11 -129q-2 -39 2 -107q8 -47 43 -80q0 -8 3 -21t3 -20q4 2 24 0q-2 8 2 22.5t4 20.5q2 0 17 21q8 10 24 41q4 20 7 135q0 8 4 53q4 23 8 90z" />
<glyph unicode="C" horiz-adv-x="602" d="M440 229h-4v19h4v-19zM154 254l-2 -8l-5 10l3 8zM565 1184q-6 -16 -6 -58q0 -6 -4 0q0 -10 2 -26v-25q0 -68 -23.5 -141.5t-44.5 -73.5q-4 0 -5 -7t-4 -7t-19.5 -3t-20.5 -3q-18 0 -49 98q-2 4 -10 85t-8 99q0 123 35 185q0 2 26 30q18 16 19 43q0 39 -32 76t-71 37 q-29 0 -53 -49q-43 -92 -53 -248q-4 -125 -8 -252q-4 -117 -5 -213q0 -96 2 -166q4 -78 29 -258q6 -27 29.5 -77t34.5 -50q2 0 14 -3t14 -3q12 0 35 41q4 12 10 31q10 6 27 30q18 53 53 160q12 74 19 135q10 113 24 113q12 0 25 -31q-2 -25 2 -37q2 6 6 13v-45q0 -6 -8 -115 q-4 -72 -27 -158q-10 -45 -43 -135t-39 -90q-2 0 -1 6t-3 6q2 0 -8 -18q0 -6 2 -12q-2 -2 -25 -2q-8 0 -22 -41l-4 12q-6 -16 -6 -23q0 -2 4 -3t4 -5q-4 -2 -57 -2q-39 0 -80 23q-4 4 -15 14q-66 57 -129 283q-59 211 -59 483q0 223 18 344q8 45 29 123q14 61 49 170 q74 193 189 192q27 0 77 -41q25 -18 72 -71l19 -51q23 -57 57 -181q2 -16 6 -43v-35q0 -20 3 -20t7 -10zM385 1532v10h-8v-10h8zM516 1255v19h-4v-19h4zM500 1110l-2 10l-2 -6l2 -10zM502 1059v24h-4v-24h4zM252 1511l-2 11l-4 -6l4 -11zM289 1436v10l-13 8v-10zM463 1108 l-4 4l-2 -16l2 -4zM250 1477q-4 2 -8 6q2 -4 2 -17q2 7 6 11zM434 1124l-4 11l-2 -9l2 -10zM262 1415v12h-8v-12h8zM399 1069l-4 10l-2 -6l4 -10zM463 946v12h-6v-12h6zM410 1008l-4 10l-3 -6l5 -11zM395 1020v0v0v0zM180 1403l-4 10l-2 -8l4 -8zM186 1374v12h-8v-12h8z M233 1290l-10 8v-10l8 -8zM158 1403v10l-6 -8v-10zM217 1247l-2 10l-6 -8v-10zM141 1331v25q-6 0 -12 -33l8 20q0 -6 4 -12zM162 1288l-2 10l-8 -16l2 -10zM170 1190v0v0v0zM147 1190q0 31 0 24q-4 -4 -6 -12q6 -2 6 -12zM152 1171l-5 11l-2 -6l5 -11zM156 1137l-2 10l-4 -6 l4 -11zM184 1083v11l-6 -9v-10zM88 1198v12h-6v-12h6zM221 940v10h-6v-10h6zM199 932v12h-6v-12h6zM139 952v13h-12v-13h12zM459 274v11l-6 -9v-10zM160 729v10h-6v-10h6zM88 840l-8 10v-10l8 -9v9zM178 647v12h-10v-12h10zM61 823l-6 17q0 -4 -2 -13.5t-2 -13.5q4 2 10 10z M152 635l-2 10l-7 -8v-10zM72 745v25q-2 0 -9 -14q5 -7 9 -11zM188 494v18h-4v-18h4zM90 674v12h-8v-12h8zM180 502v18h-4v-18h4zM195 389v10h-7v-10h7zM197 360v13h-7v-13h7zM84 457v12h-6v-12h6z" />
<glyph unicode="D" horiz-adv-x="675" d="M559 -16l-6 -9v9l6 6v-6zM496 49l-2 -4l-5 6l3 6zM90 340v0v0v0zM639 43q0 -8 -12 -80q-2 0 -6 -6q0 16 -5 20q-4 -8 0 -12q-4 -10 -10 -12q0 2 2 10v10q-6 10 -10 11q-6 -10 -14 -21q-2 0 -15.5 5t-19.5 5q-27 6 -182 23q-2 4 -9 14q0 6 13 148l-6 12q-4 -72 -31 -124 t-53 -52q-4 0 -7 4l-4 -10h-10q-55 0 -118.5 124t-86.5 269q0 2 6 16q-2 2 -8 4q-14 47 -14 160q0 63 4 154q4 27 10 80q16 147 62 256q12 35 37 92q23 31 45 57q10 10 40.5 24.5t26.5 14.5q59 0 84 -74q6 -8 14.5 -34.5t24.5 -73.5q-2 47 -12 141q0 45 -8 135 q-4 27 -13.5 79t-38.5 75q-12 4 -39 18q-6 61 -6 62q0 18 4 24q31 27 64 27q4 0 29 -57q10 27 34 61q4 2 22.5 -3t25.5 -5q18 0 54 7l36 7q29 0 28 -59q0 -6 -4 -56q-4 -57 -4 -75q-10 -176 -10 -244v-147q0 -4 -2 -16.5t-2 -18.5q0 -51 -2 -121q0 -6 -2 -24.5t-2 -26.5 v-486q0 -70 24 -190q12 -49 60 -68q16 -6 16 -53zM559 1587l-6 -6q4 0 0 14h-8q4 -14 12 -34v14q2 8 2 12zM508 1595v11h-8v-11h8zM414 1403l-11 24l-2 -6l11 -22zM322 1554l-3 9l-4 -7l4 -6zM479 1112l-4 8l-2 -6l2 -8zM442 1085v9h-4v-9h4zM442 1012v10h-4v-10h4zM438 950 l-4 8l-2 -6l4 -6zM494 731l-5 8l-2 -4l5 -8zM492 721q0 -4 -9 -23q4 -2 6 -6q3 9 3 29zM428 674l-2 8l-2 -4l2 -8zM428 664v0v0v0zM463 569v11h-6v-11h6zM518 410l-2 6l-2 -4l2 -9zM492 428v10h-5v-10h5zM133 1016q-4 4 -8 14q0 -12 -4 -18zM158 961l-2 8l-2 -6l2 -7z M217 842l-4 8l-2 -6l4 -8zM379 811q0 70 -14 176q-39 121 -50 121q-35 0 -55 -80q-10 -43 -31 -192l2 -496q4 -49 11 -135q2 -12 20.5 -44t26.5 -32q-6 0 18 16q2 -6 4 -10q18 31 43 101q20 106 23 266v270v19q2 14 2 20zM98 778v0v0v0zM158 588v6l-6 -6v-8zM207 481l-4 8 l-2 -6l2 -6zM70 674v8l-11 6v-8zM154 436l-2 17l-2 -4l2 -13h2zM104 512l-2 8l-2 -4l2 -8zM166 403v9h-10v-9h10zM88 514l-6 8l-2 -8l6 -6zM150 393l-3 2l-2 -14l2 -2zM121 328l-2 24h-4l2 -24h4zM80 385l-10 6v-8l8 -6zM70 395l-4 6l-3 -8l7 -6v8z" />
<glyph unicode="E" horiz-adv-x="587" d="M549 858q0 -92 -41 -92l-225 27q-18 10 -43 20h-27q-2 -4 -2 -16q0 -8 2 -34t2 -36q6 -256 31 -436q4 -41 25.5 -81t35.5 -40h17q41 0 96 160q47 141 61 262q2 14 11 37l25 -12.5t22 -30.5q0 -18 -4.5 -54t-14.5 -100q-18 -152 -74 -285q-51 -123 -92 -141 q-33 -14 -45 -14h-59q-27 0 -76 84q-109 182 -129 534q-6 123 -6 176q0 264 45 492q55 268 147 313q37 18 60 19q10 0 24.5 -4t22.5 -4q37 0 102 -134q33 -68 60 -190q12 -43 28 -131q21 -185 21 -289zM369 932q0 111 -17 366q-20 166 -63 166q-55 0 -68 -387 q-2 -39 -6 -145q80 18 88 18q11 0 66 -18zM190 1362v18h-4v-18h4zM186 1370l-8 8v-10l6 -8zM178 870v17h-4v-17h4z" />
<glyph unicode="F" horiz-adv-x="538" d="M500 1413q0 -143 -84 -143q-53 0 -65.5 104.5t-26.5 104.5q-18 0 -19 -78q0 -66 12 -111q8 -25 33 -60.5t39 -35.5h66q-10 -18 0 -72q-20 -4 -45 -10t-39 -35q-35 -68 -37 -252q-2 -201 -2 -278q0 -51 2 -154q-2 0 -6 -6q0 -4 6 -4q0 -10 4 -53q4 -29 -2 -39 q4 -25 12 -74q27 -104 66 -104q2 0 3 2t3 2t33 -99q-12 -29 -21 -28q-4 0 -26.5 6t-28.5 8q-47 6 -96 6l-146 -4q-2 0 -27.5 -8t-27.5 -8t-2 5t-4 5q-2 0 -2 -5t-4 -5q-2 0 -11.5 7t-12.5 10t-5 18v20q0 49 12 55q35 16 45 29q35 41 49 141q10 84 17 260q2 27 2 140 q0 303 -23 387q-16 63 -55 63q-2 0 -13.5 -2t-13.5 -2q-10 0 -16 10q0 35 2 70q2 53 14 53q2 0 26 -8t26 -8q35 0 43 61q2 35 8 103q8 78 47 141q33 57 67 72q47 18 121 18q-8 0 21 -10q8 -2 24 -8q58 -62 58 -197zM96 4v8h-12v-8h12z" />
<glyph unicode="G" horiz-adv-x="634" d="M502 279l-2 -5l-2 9l2 4zM246 289l-2 -4l-2 8l2 6zM596 1417q0 -39 -6 -82t-19 -65q-20 -39 -34 -39q-2 0 -9 8q-6 0 -18 4q-4 2 -12.5 13.5t-10.5 11.5q-12 0 -12 -29q0 -8 7 -34.5t10 -35.5q12 -84 12 -161q0 -145 -49 -254q-45 -98 -97 -99q-2 0 -19 -6t-22 -6 l-122 12q-18 0 -19 -41q0 -57 49 -57q2 0 46 13.5t65 17.5q14 4 51 0q47 -4 39 -4q4 0 37 -19.5t47 -36.5q43 -49 59 -147q10 -68 11 -115q0 -113 -25 -186q-2 -10 -6 -33q-10 -33 -21.5 -49t-40.5 -25q-12 -2 -24 -2l-326 27q-2 0 -10 -3t-10 -3t-12.5 15.5t-16.5 19.5 q-6 18 -15.5 31.5t-29.5 86.5q-6 16 -6 60q0 86 45 110q-41 70 -41 152q0 2 6 72q10 111 98 178q-43 66 -57 100q-31 72 -33 154q-6 16 -6 61q0 90 10 168q10 72 49 152t70 92q18 12 51 29q10 2 93 2q2 0 10 -7.5t14 -9.5q29 -2 51 -41q37 -70 41 -74q0 182 37 261v-17 q6 6 7 6t5 9l-4 8q0 -2 -4 -4q23 27 43 26q6 0 27 -26q47 -64 47 -189zM387 981v14h-4v-14h4zM391 930l-2 8l-2 -6l2 -6zM350 1085q0 47 -4 105q-4 45 -22 100q-23 63 -45 64q-33 0 -52 -123q-12 -86 -12 -154q0 -94 6 -192q6 -90 41 -135q0 -2 12 -2q76 -1 76 337z M104 1153l-4 8l-2 -6l2 -8zM92 1006v8h-6v-8h6zM172 854v8h-6v-8h6zM129 930v0v0v0zM383 479l-4 8l-2 -4l4 -8zM399 403l-2 9l-2 -6l2 -7zM358 483l-4 4l-2 -14l2 -4zM170 737v15h-2v-15h2zM133 813l-10 10v-26v16h10zM365 358l-5 4l-2 -14l4 -4zM389 295v8l-10 6v-8z M238 475l-2 8l-5 -6v-8zM211 420v8h-6v-8h6zM272 305v0v0v0zM166 481v15h-2v-15h2zM162 358v0v0v0zM309 57q10 0 62 13q92 23 92 86q0 49 -55 49q-23 0 -62 -9.5t-43 -9.5q-20 6 -41 15q-39 10 -61 6q-4 0 -29 2q-14 2 -18 -12q-14 -16 -27 -41q-2 -76 76 -93q6 -2 106 -6z M375 352q35 8 35 76q0 55 -39 55q-12 0 -36 -7t-30 -7q-53 2 -104 -8v0q-8 -18 -19 -47q0 -82 62 -82q12 0 36.5 4t34 4t60.5 12z" />
<glyph unicode="H" horiz-adv-x="698" d="M143 33l-8 -6v8l8 6v-8zM659 39q0 4 0 -39q-8 -16 -12 -16q-4 -2 -43 9t-41 11l-194 -12l-2 117q2 4 8 10q18 -4 33 67q10 55 10 97q2 6 6 16q4 63 4 82v287q-2 156 -10 256q0 12 -2 34q-18 117 -51 115q-53 -2 -70 -194q0 -4 -8 -285q2 -4 4 -191q14 -141 20 -172 q16 -96 49 -116l2 -103q-6 -16 -10 -16l-223 6q-2 0 -17.5 2t-21.5 2q2 8 -2 8q-2 -4 -8 -10q2 0 -4 14q-4 -12 -4 -8q-4 8 -6 8q-4 0 0 -8q-8 8 -9 39q-2 55 4.5 63.5t33 23t34.5 91.5q4 35 14 101q6 96 4 362v92l3 2q-2 -6 -3 27v78q0 80 -2 117q0 14 9 26q0 8 -9 8 q0 88 -10 228q-4 57 -12 108q-16 88 -39 109q-12 2 -35 10q-10 8 -10 64q-2 59 8 59l240 -6q10 2 14 -43l-16 -557q14 41 43 121q4 12 24 47q4 6 25 14q41 18 57 18q84 6 103 -114q4 -2 8 -6q35 -111 37 -256l-4 -344q6 -291 49 -369q0 -2 18 -19q12 -12 12 -34q2 -4 2 -31z M279 1573v10h-7v-10h7zM283 1309q-6 14 -15 43q0 -2 -2 -9.5t-2 -11.5q4 2 15 -22q-6 -14 -13 -39q7 14 17 39zM471 907l-2 8l-2 -6l2 -6zM526 760l-2 10l-6 -2v-8h8zM516 748v18h-4l2 -18h2zM315 1034l-2 25q-4 -8 -4 -19zM467 764l-2 6l-4 -6v-6zM532 649l-2 6l-6 -6v-8z M473 711v8h-6v-8h6zM508 635v8h-6v-8h6zM532 532l-2 9l-2 -4l2 -9zM254 1010l-2 16l-2 -4l2 -12h2zM475 623v8h-8v-8h8zM164 1137l-4 8l-2 -6l4 -6zM500 528v7l-4 -7v-8zM438 594v10l-8 -2v-8h8zM270 858v10l-8 -2l2 -8h6zM217 772l-8 8v-6l8 -10v8zM209 750v18h-4v-20z M197 651l-4 8l-3 -4l5 -8zM225 596v10h-6v-10h6zM469 109v0v0v0zM256 401l-2 9l-2 -4l2 -9zM266 350l-2 8l-2 -4l2 -8zM246 346v14h-4v-14h4zM231 354l-2 8l-4 -6v-8zM242 326v14h-4l2 -14h2zM166 438l-2 8l-2 -6l2 -8zM221 315l-4 4l-2 -14l4 -2zM291 141l-2 9l-4 -9v-6z " />
<glyph unicode="I" horiz-adv-x="419" d="M154 315h-2v15h2v-15zM383 74q0 -61 -21 -62h-71q-2 0 -34 -7t-34 -7t-16 -3t-17 -3l-120 6q-12 -2 -17 33v57q10 4 31 21q29 37 33 114q6 57 12 176l4 183q0 82 -4 190q-2 43 -6 127q0 57 -17 117q-18 68 -38 67q-2 0 -6.5 -3t-6.5 -3q-16 0 -16 84q0 16 6 29h64 q2 0 16 5t16 5q23 0 52 8l-7 21q-4 -2 -10 2q-18 25 -41 82q-6 57 -6 104q0 143 43 172q0 2 11.5 13.5t17.5 11.5q20 0 47 -43q6 -8 16 -53q4 -14 10 -37q4 -45 5 -80q0 -41 -43 -174q-16 -6 -17 -6q-4 0 -4 2q4 -18 10 -19q2 0 6.5 5t6.5 5t3 -5t3 -5q4 0 19.5 3t17.5 3 q14 0 14 -22v-12q-10 -172 -10 -332v-154q0 -6 2 -117.5t2 -117.5t2 -54q2 -55 4 -73q2 -72 14 -119q18 -68 31.5 -73t28 -16t14.5 -46zM205 1415l-4 2l-2 -12l2 -4zM207 1225h-6q0 -4 4 -15q2 5 2 15zM264 1073v14h-4v-14h4zM264 1040l-4 9l-2 -5l4 -8zM225 1104l-6 6v-6 l4 -8zM182 1026v8h-6v-8h6zM115 1124v19h-2v-19h2zM174 1016l-4 8l-2 -6l2 -6zM162 993l-2 6l-4 -12l2 -6zM225 862l-6 6v-8l4 -6zM209 858l-2 4l-2 -14l2 -2zM184 883v12h-2v-12h2zM199 854q-4 2 -4 10v-18q2 2 4 8zM180 809v0v0v0zM211 707v10h-6v-10h6zM217 662l-2 8 l-2 -4l2 -9zM176 690v19h-2v-19h2zM213 625v18h-2v-18h2zM225 596l-4 8v-4l2 -8zM178 678v8l-6 -6v-8zM205 494v12h-4v-12h4zM184 442v19h-2v-19h2zM201 379v8h-4v-8h4z" />
<glyph unicode="J" horiz-adv-x="468" d="M397 1460q0 -152 -96 -151q-68 0 -86 57q-18 51 -18 74q0 190 118 190q12 0 36 -28.5t32 -51.5q-2 -4 -2 -14q16 -4 16 -76zM432 311q0 -84 -26 -164q-33 -96 -91 -124q-43 -23 -53 -23q-2 0 -12 -2h-12h-21h-37q-10 2 -32.5 7t-26.5 5q-14 0 -41 43t-33 68q-8 43 -8 92 q0 53 23.5 99t54.5 46q39 0 57.5 -16t48.5 -86q6 -12 6 -53q2 -45 -6 -68q0 -6 2 -16q14 -16 27 -17h12q18 0 40 30t22 56q0 10 -15 84q-8 14 -22 39q-23 33 -42.5 39t-35.5 10q-29 12 -29 35l19 310q0 39 -6 114q-4 88 -25 260q2 2 4 6l-4 9q-10 27 -38 54.5t-46 27.5 q-4 0 -5 -2.5t-5 -2.5q-27 0 -27 64q0 41 23 41l325 -23q18 0 31 -18q0 -37 -6 -68q-6 -106 -10 -237v-111v-151v-35q0 -2 -6 -6q2 -2 8 -2zM250 1483l-2 6l-6 -12l2 -4zM268 1210v9h-6v-9h6zM225 1151v8h-8v-8h8zM258 952v9h-10v-9h10zM399 641l-4 8l-4 -6l4 -6zM172 113v8 h-8v-8h8zM55 227l-4 4l-2 -12l2 -4z" />
<glyph unicode="K" horiz-adv-x="645" d="M477 279h-2l-2 12l2 4zM401 324v0v0v0zM502 129h-4v8h4v-8zM416 221h-2v15h2v-15zM608 129q0 -72 -2 -106q0 -35 0 -25q-4 4 -6 10q-2 -2 -49 2q0 10 -4 10q-2 0 -6 -10q-12 2 -35 0q-72 -16 -80 -16l-7 5t-11 5q-2 0 -8.5 -5t-8.5 -5t-4 5t-4 5l-8 -5q-8 -5 -15 -5l-5 2 q-5 2 -7 2l-20 -4q-4 12 -4 14q0 6 2 41v49q41 29 41 109q0 43 -25 141q-16 61 -37 168q-45 -160 -45 -182q0 -135 25 -193q6 -14 30 -43q6 -33 7 -65q0 -18 -5 -39q-41 0 -58 2t-11 2q-2 0 -9.5 -5t-9.5 -5t-7 3t-9 3v-10q-12 6 -39 -7l-2 11q-4 0 -115 -17l-2 9v92 q8 6 28.5 34.5t35.5 96.5q4 20 10 94q2 33 4 94v158t-2 10q0 18 -2 86v80q2 150 -8 379q0 88 -2 178q-6 125 -39 178q-8 10 -41 23v92q10 23 16 22q2 0 4 -5t4 -5q6 0 7 21q86 -20 69 -21l4 8q23 2 68 13q10 2 21 -2l10 -4q6 0 12 18q0 -10 2 -10t1 5t3 5q10 0 10 -66 l-2 -127q-4 -135 -4 -200q-2 -139 -2 -344v-201q0 -160 -2 -211q0 -10 2 -18l76 290q4 2 10 35q6 25 35 140q16 68 16 100q0 39 -13 64.5t-26 25.5q-2 0 -10 -3t-10 -3q-8 0 -16 104q8 6 9 6t1 3.5t2 3.5h67q2 0 3 4q-2 6 0 6t55 3l53 3l8 10q55 -2 62 4q2 -39 2 -135 l-2 -12q-4 0 -18.5 5t-16.5 5q-6 0 -26.5 -22.5t-53.5 -90.5q-10 -16 -27 -51q-16 -47 -51 -129l131 -547q35 -141 72 -141h6q4 -2 8 -2zM510 1143v8h-6v-8h6zM479 1190l-2 8l-2 -4l2 -8zM428 1063v10h-4v-10h4zM233 1360l-2 8l-2 -6l2 -8zM225 1317l-4 8l-2 -6l4 -6z M238 1163v11h-7v-11h7zM176 1227l-2 8l-2 -4l2 -8zM168 1237l-2 2l-4 -12l4 -4zM209 1139v8l-6 -6v-8zM213 1112l-2 6l-2 -4l2 -8zM188 1126l-4 9l-2 -5l4 -8zM195 1087q-2 4 -6.5 7.5t-6.5 5.5l4 16q-4 2 -6 6l-6 -18q6 -10 14 -29q5 12 7 12zM227 983v10h-6v-10h6z M369 715l-2 8l-2 -4l2 -8zM393 668v8h-4v-8h4zM223 967q-4 6 -4 18q-6 -18 -6 -14q0 -4 10 -4zM209 979q-4 2 -6 6v-24q6 0 6 18zM367 641v0v0v0zM446 487v11h-4v-11h4zM240 844v20h-4v-20h4zM207 903v0v0v0zM422 526l-2 9l-4 -9v-6zM166 936l-4 8v-4l2 -8zM248 782v11h-4 v-11h4zM375 557v8h-4v-8h4zM373 543q0 -4 -6 -2q2 -2 4 -9q2 5 2 11zM451 387v10h-5v-10h5zM375 520l-2 8l-2 -6l2 -8zM338 532l-6 7v-9l6 -6v8zM178 815l-2 2l-2 -14l2 -2zM410 383l-2 8l-5 -6v-8zM311 541v8h-6v-8h6zM348 463l-2 8l-4 -6v-8zM348 424q-2 4 -8 12v-20 q4 0 8 8zM383 332v14h-2v-14h2zM221 580l-2 6l-4 -6v-9zM229 508l-2 4l-2 -14l2 -4zM182 567l-2 8l-2 -6l2 -6zM207 360v0v0v0z" />
<glyph unicode="L" horiz-adv-x="483" d="M444 82q0 -61 -8 -92q-4 8 -4 -6q-4 8 -10 30q-8 -16 -6 -30q-12 4 -131 4q-10 0 -15 16h-8q-2 -8 -6 -14l-6 10l-4 -12q-4 0 -4 6t-4 6q-2 0 -3.5 -6t-5.5 -6q-2 0 -1 6t-3 6l-2 -10q-4 -2 -20 -2h-101q-18 0 -22 16q-2 -4 -2 -10q-10 2 -17.5 1t-9.5 -1q-12 0 -12 65 v39q2 4 4 2t14 -2t37 49q18 43 23 64q10 39 14 94q31 289 31 395v140q0 18 -2 102q-2 66 0 127q2 0 6 6q0 4 -4 12.5t-4 12.5q0 80 -4 155q-10 164 -60 211q-12 10 -49 33q2 -4 8 8q0 8 -10 19v47q4 6 4 18h8q10 18 0 21q27 6 45 6q16 0 21 -16q2 6 6 14q25 10 25 4q0 4 2 4 h36h54l6 -16q2 4 2 10l22 -6q-4 8 -6 0q-2 -4 4 -4l4 -11q6 16 13 11q10 -16 16 -17q29 0 33 6q0 -2 2 -6t2 -6q2 -8 4 -20q-2 -10 0 -29q-2 -2 -6 -8q6 -4 12 -19h-6q0 -10 -2 -55q-2 -4 -4 -57q-2 -35 -2 -37q-6 -43 -8 -176l-4 -166l4 -8q-2 -20 0 -62q2 -45 2 -61 q-4 -25 0 -66q2 4 6 -8q-4 -4 -8 -20q2 0 8 -13q-4 0 -6 4q-2 -14 -2 -53q0 -51 2 -67l4 -8q4 -7 4 -13v-102q-4 2 -6 10q-2 -14 2 -27.5t4 -15.5v-139q-2 2 -6 20q-2 -10 0 -33q0 -2 8 -12q0 -90 25 -141q-4 0 -7 4l-4 -8q14 -41 23 -52q2 -4 2 -10q12 -23 18 -22q4 0 2 4 q4 -10 21.5 -21.5t21.5 -15.5zM166 1155v21h-4v-21h4zM164 459v14h-4v-14h4zM236 258q-2 -2 -7 -6q2 -4 4 -12q3 2 3 18zM166 260v25q-4 -2 -10 -6q0 -1 10 -19z" />
<glyph unicode="M" horiz-adv-x="833" d="M795 90q-6 -29 -2 -43q-14 -16 -31 -76q-2 0 -7 6.5t-7 6.5q-2 -2 -3 -7v0q0 -8 -2 -8t-8 4t-8 4t-18.5 10.5t-18.5 10.5t-3 -7t-3 -7l-2 6h-143v18q-2 0 -7 -16q-4 -2 -20 -2q2 0 -25 2h-45q-8 0 -24 6l-17 6h-102v133q4 4 12 17l2 -15q4 10 2 15q33 92 37 192 q6 180 6 287v452q0 342 -45 342q-14 0 -32 -43q-6 -20 -17 -55q-18 -55 -22 -203q-4 -88 -4 -450q0 -492 55 -537q-2 -49 2 -127l-238 -8q-12 0 -15 14.5t-3 49.5v41.5v54.5l4 16q10 -14 18 -14q2 0 7 12q33 12 49 305q4 70 4 156l2 274q0 254 -14 402q-6 70 -29 115 q-20 37 -35 32v58q-2 41 -2 63q0 2 8 19q8 2 31 2l164 -15q4 -78 2 -176l2 -12l4 20q2 0 2 -3t2 -3t9 37t14 47q31 66 30 66q16 27 37 26q10 0 14 -4q-2 -10 3 -10q2 0 6 3t6 3q31 0 53 -57q23 -49 45 -187q23 154 53 207q20 37 60 37q-2 0 22 -8q-2 -10 2 -10l2 3t4 3 q-8 0 35 -29q0 -25 -2 -22q-2 -4 2 -4t4 14q2 -4 15 -47v18q31 -55 43 -221l-4 12q-2 -10 -2 -22l2 -13l4 15l6 -70l-2 -762q-2 -201 39 -290q8 -18 18 -58q4 14 6 14t5 -4zM717 1225v26h-4v-26h4zM719 1110v33h-2v-33h2zM418 1405l-2 4l-2 -18l2 -5zM453 1108q-2 -2 -7 -16 q2 -6 5 -7q2 3 2 23zM596 528v416q0 471 -53 471q-18 0 -35 -65q-14 -55 -21 -168q-8 -125 -8 -193v-473q0 4 6 -108q0 -29 2 -76q8 -143 33 -176q6 2 17 -27q-10 -47 -2 -113q0 47 10 142q35 12 43 155t8 215zM190 1227v6l-4 -16v-9zM371 670q0 6 -4 18v-33zM137 895 q0 6 -2 16q-2 -2 -6 -16q8 -4 8 0z" />
<glyph unicode="N" horiz-adv-x="741" d="M692 111v0v0v0zM672 96v0v0v0zM686 43l-8 6l-2 12l10 -8v-10zM637 80l-2 -6l-4 8l2 8zM584 104l-9 -16v10l9 15v-9zM596 45h-2l-2 45h4v-45zM569 100l-2 -6l-4 10l2 7zM573 33l-2 -6l-4 10l2 6zM555 47l-2 -10l-6 8l2 10zM535 27h-3l-2 16l5 2v-18zM530 6l-4 -2v19h2z M494 49h-2l-3 19h5v-19zM485 57l-10 9v10l10 -6v-13zM397 43l-2 -6l-2 10l2 6zM369 68l-2 -7l-2 11v6zM340 61h-4v19h2zM270 31l-2 -19l-4 4l2 19zM147 41h-6v10h6v-10zM705 72q-4 4 -11 16q2 -33 0 -51q4 -6 6 2q-2 -16 -8 -33q-2 2 -8 6v-12q-12 -4 -8 10h-6q2 0 -4 21 q-2 -6 -9 -17q-4 -16 -2 -24t-2 -8q-2 6 -10 12q-2 0 -3 -7t-3 -7q2 8 -2 14q-2 0 -4 -7t-6 -7q4 0 -17 18v-21q-2 4 -8 9q4 -2 -29 -4q-2 4 -4 16q-2 -2 -4 -10q-4 8 -10 28q0 14 2 15q-2 4 -10 -13q-2 0 -6 -8l4 -12q0 6 4 12q-2 -8 -2 -24q-8 4 -64 2q0 8 -2 24 q-2 -6 0 -26q-10 0 -18 7t-8 21q0 2 -7 2q-2 -10 -6 -26q-4 8 -12 33q-4 -16 0 -25q-4 10 -7 11t-7 5l-8 -2q2 -6 -3 -12q-4 2 -10 6l-4 146q0 12 14.5 25t24.5 54q2 29 10 82q-2 31 4 52q0 8 -2 8q2 0 6 6l-4 4q0 41 4 106l5 13l-5 12q-4 164 -6 172h2q0 6 -2 123q2 -8 4 0 l-4 178q-2 4 -6 14q0 184 -2 158q-6 29 -12 74v29q2 0 4 -7q2 4 4 17q-6 16 -4 16q-2 0 -2 -12q-2 23 -6 61q-12 55 -35 72q-8 6 -21 4q-4 8 -6 17q-2 0 -4 -3q4 -6 6 -28q-2 -10 -12 -23q4 0 -6 6q0 -4 4 -16q-4 -6 -12 -27q0 -16 -5.5 -38.5t-13.5 -47.5q0 -18 -2 -49 l-8 -24q6 -33 4 -56q0 -37 -2 -108q-2 -6 -8 -21l4 -10q4 -14 0 -39q-8 2 -12 -6q4 -10 8 -14q-2 2 -4 -4q2 -6 0 -13l8 2q0 -33 6 -86q-2 6 -6 6q-2 -25 2 -55q2 6 6 12v-38l-6 20q2 -25 4 -61q2 2 -10 6l-4 -10q6 -6 16 -19q0 -18 -8 -35q4 -2 10 -18v2q2 -10 -2 -33 q6 -18 6 -35q0 -4 -6 -8q-4 0 -10 14q-2 -4 -8 5q-4 -10 0 -21q2 6 6 8v-26q-2 -8 -8 -25q2 -4 4 -16q-2 -6 -6 -15q0 8 -6 33q-2 -4 -5.5 -6t-5.5 -4q6 -8 8 -33q16 -16 15 -16q8 0 20 2q2 -8 6 -31q4 -45 15 -119q6 -41 6 -47q16 -33 45 -90l4 -152q2 -16 -2 -16 q2 0 -2 14q0 -8 -4 -14q-2 0 -7 11.5t-10 13.5q-6 -25 0 -23q-2 -2 -10 -4q0 2 -1 5t-3 7q-2 0 0 -6q2 -8 -2 -8h-8q4 0 -4 20q0 -10 -6 -22q-6 4 -19 8q-23 -2 -24 -2q2 12 -2 10q-2 0 -11 -14l-4 14l-2 -8l-4 14q-8 0 -10 19q-2 -6 -2 -12q-2 0 -4 6q-2 -10 -6 -35h-11 q-6 33 -2 33q-8 -2 -10 -27q-2 -2 -14 -4h-8q-8 0 -13 33v-21l-4 13q-6 -16 -4 -25q4 0 -18 25q-2 -10 -2 -15q2 -4 2 -12q0 6 -4 4q-2 0 -2 -10q0 -2 -3 -2q-4 -2 -10 18q0 -10 -8 -20q2 0 -6 18l-2 -12q-2 0 -8 18q-2 -2 -9 -10q2 -6 7 -14q-2 -4 -9 -11q-4 10 -10 21 q-16 59 -12 59q-2 -4 -6 -6q-4 14 -4 43q-2 45 4 96l12 25l5 6t7 6q-2 0 2 -12q4 20 13 21q2 2 2 -2.5t4 -4.5q8 2 33 119q2 -6 8 -26q0 4 4 30q-2 8 -6 13q-4 12 -4 45v71q0 6 8 21q-2 12 -6 12q0 20 8 49q-6 16 -6 31l2 16v138l-2 26q6 10 14 41q0 4 -2 10q-2 -14 -10 -14 q-2 2 -4 23q0 14 8 55q-4 10 -6 10q-2 20 -2 125q-4 31 -2 88q0 4 -7 4v35q0 2 3 20q-2 8 -11 62q2 0 4 6q-8 6 -26 78q-6 25 -13 35q-20 25 -38 47q-25 33 -27 112q-2 23 4 72q10 18 25 39q2 -10 10 -18q4 0 15 11t13 11q10 -10 25 -18q4 4 16 8q-2 0 3 -14q4 23 4 18 q2 -10 4 -10q4 8 10 14q16 -8 35 -16q0 6 2 14q2 -8 6 -8q51 8 78 -2q12 -25 16 -53q-2 -4 -10 -21q0 -2 4 -4q-4 -143 -4 -156q10 39 27 105l6 -6q2 12 -4 14q10 51 19 68.5t22 35.5q0 -4 6 -6q2 0 0 4q0 2 2 2q2 8 8 15q6 2 12 -19q2 10 13 23q-6 -2 38 -6q0 -12 5 -11 l2 7q2 6 10 8q10 0 51 -53q4 -12 8 -23q0 6 2 12q12 2 13 -39q2 0 6 -2q8 -16 26 -112q6 -27 14.5 -84.5t12.5 -124.5l2 -23q-6 0 -8 -4l4 -16q4 -14 4 -31q0 -57 2 -168q-2 0 -6 -8q12 -29 0 -68l4 -4q0 4 -4 -78l6 -182q2 -63 10 -192q2 4 2 10v-23l-2 9v-31 q12 -10 19 -88q2 -4 16 -43q8 -27 14 -27q2 0 9 6q-2 -8 -2 -14l4 -10q0 6 2 20q4 -14 10 -41l4 15q2 -4 6 -11.5t6 -11.5q-2 -12 0 -20q-2 8 -4 -2q5 -27 13 -78zM569 1360v0v0v0zM469 1446l-2 12h-4v-12h6zM498 1395v12h-6v-12h6zM530 1343l-2 5l-2 -19l2 -4zM512 1372 l-2 8l-8 -16l2 -8zM588 1208l-2 11l-2 -9l2 -10zM584 1180l-2 10h-4v-10h6zM530 1245v27l-4 -2l2 -25h2zM518 1241q0 8 -2 23q-2 -6 -6 -11q4 -4 8 -12zM457 1333v19h-4v-19h4zM420 1395l-2 2l-2 -17l2 -4zM504 1231v24l-4 -2v-24zM502 1229l-6 8v-10l4 -8zM442 1309v0v0v0z M481 1233l-2 33q-4 -10 -4 -25q2 -2 6 -8zM518 1149q0 25 -2 33q0 -14 -2 -23q2 -6 4 -10zM451 1262v12h-5v-12h5zM506 1159v10h-4v-12zM547 1094l-4 16q-2 -6 -6 -10q6 -8 6 -23zM494 1163l-2 13h-7v-13h9zM520 1135l-10 -2l2 -31q6 8 8 33zM532 1063q-2 6 -4 24 q0 -2 -4 -6q0 6 -2 15q-2 -8 -2 -19q8 -14 12 -14zM537 1059v0v0v0zM594 961v18h-4v-18h4zM262 1495v0v0v0zM453 1188l-2 10h-5v-10h7zM559 1012l-2 18l-2 -2v-16h4zM569 981v0v0v0zM494 1118q-2 16 -11 47q0 -6 -3 -13t-7 -15l-2 53q-4 2 -6 8q-2 -4 -2 -10t-2 -10 q-2 6 -4 4q4 -12 2 -19q-6 -2 -8 -12q6 2 12 -16.5t10 -22.5q0 6 2 12q2 -8 6 -22q-2 -6 -8 -6q2 -16 4 -39l8 2l-2 33q2 -4 4 -7.5t5 -5.5v15q-2 10 -3 14l3 10q2 -6 2 0zM545 1020l-4 2l-2 -16l4 -5zM520 1044v13h-6v-13h6zM446 1149l-4 8l-2 -10l6 -8v10zM496 1063v12 l-9 -2v-10h9zM260 1407v12l-6 -2v-10h6zM467 1077l-8 6v-8l8 -8v10zM276 1374v0v0v0zM537 965q-2 2 -7 8q2 -10 2 -37q1 13 5 29zM500 1014l-2 6l-2 -12l4 -4v10zM526 979q-4 0 -8 6q0 -6 -2 -18l4 -4t4 -2q2 6 2 18zM283 1362l-2 2l-2 -16l2 -5zM514 967l-4 18l-2 -4l2 -14 h4zM457 1042v25h-4v-25h4zM541 903v12h-6v-12h6zM502 952v25h-4v-25h4zM256 1352h-6h-6q4 -18 10 -23q-2 9 2 23zM489 963l-2 10l-4 -10v-9zM508 918l-2 26l-4 -2l2 -24h4zM571 821l-8 8v-10l8 -6v8zM547 838l-2 10l-2 -8l2 -9zM469 944q-2 12 -8 31l-4 -17v-24q6 2 12 10z M473 915l-2 25h-2v-25h4zM119 1491q0 8 -4 18h-6l-3 -18q13 2 13 0zM248 1286l-8 8v-10l8 -6v8zM238 1311h-5v-31h3zM541 811l-6 10l-3 -10l7 -8zM508 840v0v0v0zM573 731v12l-6 -2l2 -10h4zM221 1284l-2 19h-2v-19h4zM238 1270q-4 4 -11 6q4 -12 9 -25q0 9 2 19zM250 1235 q-2 4 -2 16q-4 -6 -10 -18zM475 842l-4 24l-2 -4l2 -22zM557 715q-2 2 -4 10q0 -4 -2 -13.5t-4 -13.5q4 9 10 17zM238 1214q-4 0 -7 -4q0 6 -8 27q-2 -16 -2 -27q-2 2 4 7q-2 0 8 -19q1 14 5 16zM246 1202l-4 2l-2 -16l4 -4zM268 1180q-2 -4 -8 -15v21q-6 14 -16 31l2 -52 q8 -4 9 -24.5t1 -24.5v-18q2 10 3 26.5t1 26.5q4 -6 8 4v25zM281 1124v13l-15 -2v-13zM174 1274v24h-4v-24h4zM471 803v12l-6 -2v-10h6zM242 1157v19h-4l2 -19h2zM213 1212l-4 11l-2 -6l4 -11zM545 690l-6 -14q0 4 -4 6l-5 14v-26q2 6 7 -8q8 16 8 28zM555 645v19h-4v-19h4z M51 1454q-2 2 -4 10v-26q0 14 4 16zM266 1104l-2 10l-4 -8v-10zM465 784l-6 9l-2 -11l6 -8zM229 1153l-2 10l-2 -6l2 -10zM535 739q0 43 -13 111l-2 -12q-2 6 -4 2q4 -16 -2 -17q-6 2 -18 2q2 -6 0 -16q4 -18 -4 -18q-2 -10 -7 -23q2 12 -6 16q0 -23 -10 -22q2 -10 10 -33 q-2 -2 -4 -12q-2 6 -6 26q-2 -10 -6 -24v-76q6 0 14 -2q10 -10 10 -63q0 10 2 26q2 -2 13 2q-4 12 -8 25l-9 24v31q0 6 7 12q2 0 3 11.5t3 9.5l2 14q6 -12 9 -3t3 -5q0 16 10 31q4 -12 2 -13q0 6 4 13q-1 -1 7 -17zM551 627v0v0v0zM571 586l-4 18l-2 -4l2 -14h4zM254 1092 v18h-4v-18h4zM279 1057v10h-7v-12zM291 1030v12l-6 -2l2 -10h4zM514 664l-2 12h-6v-12h8zM225 1120l-8 23l-2 -8l8 -23zM502 668v18l-4 -2l2 -16h2zM539 602v23q0 -6 -7 -7zM211 1120q0 4 -6 27q0 -6 -4 -10q4 -3 10 -17zM174 1176l-4 10l-2 -6l4 -11zM575 518q0 2 -2 14v15 q0 -12 -4 -23q4 -2 6 -6zM231 1085l-2 2l-2 -16l2 -4zM276 1008l-2 4l-2 -19l2 -4zM225 1069q-4 14 -4 25l-4 -15q-2 -12 2 -26q0 8 2 20q2 -6 4 -4zM557 530l-2 19l-2 -2v-19zM270 1016q-4 -8 -8 -15q2 -6 4 -18q2 13 4 33zM567 526l-4 4l-2 -18l4 -4zM514 602l-2 4l-2 -18 l2 -2zM254 1004q-6 16 -16 45v-33q2 -2 6 -12q-2 -6 -2 -15q4 9 12 15zM561 502l-2 8l-6 -8v-10zM537 520q0 23 -7 39q6 -29 -2 -29q5 -2 9 -10zM225 1014l-2 24h-2v-24h4zM258 973v12l-8 -8v-12zM276 930v18h-4l2 -18h2zM539 596q-2 6 -7 12q-2 -14 -8 -28q-6 0 -6 6 q-2 -10 -6 -27q-6 14 -8 0q0 2 2 2q8 0 -6 -31q-4 0 -11 19l-6 12q0 -20 2 -53q2 10 4 22q4 -14 7.5 -14t5.5 -6t4 -6q-2 10 2 20q10 0 12 -6q-6 16 2 35q6 12 13 27q-6 4 -5 16h9zM242 975v24h-4v-24h4zM502 571v9l-6 -9l2 -10zM270 924v18h-2v-18h2zM563 457v16h-4v-18z M262 934l-2 10l-4 -8v-10zM223 989v12h-4v-12h4zM555 449v24h-4v-24h4zM303 862l-2 12l-6 -2v-10h8zM193 1032l-3 17h-2v-19zM520 510l-2 10l-2 -8l2 -8zM479 573v13l-8 -2v-13zM588 399v0v0v0zM211 993q0 8 -2 25q-2 -4 -3 -9t-3 -8q2 -2 4 -5t4 -3zM274 913q0 -8 -2 -12 q-2 6 -4 6l4 -18q2 6 2 24zM293 864l-6 8v-10l4 -8zM479 553l-2 12l-4 -2v-10h6zM608 334l-4 10v-6l2 -10zM582 342v18h-4l2 -18h2zM498 496l-4 -15h-5q-6 0 -6 6.5t-2 20.5q-2 -10 -2 -33q7 -4 19 21zM467 524v13h-10l2 -13h8zM264 856l-2 6l-4 -16l2 -8zM510 449l-2 10 l-2 -8l2 -11zM553 371l-2 10h-4v-12zM461 502q-2 10 -8 26q2 6 2 9q-2 -6 -9 -15q9 -24 15 -20zM258 821v25h-4v-27zM690 139l-2 11l-2 -9l2 -8zM467 489l-2 13h-4v-13h6zM221 881v12h-8v-12h8zM498 432q-2 8 -11 29l2 -27l5 8zM657 182v0v0v0zM547 334v49q-4 10 -10 29 q0 -16 -5 -29q-2 18 -4 29q-4 2 -8 10q-4 20 -6 29v-27q2 -51 12 -59v-17q-2 -14 -6 -16q14 -14 17 -15q8 1 10 17zM590 293l-2 10l-6 -8v-10zM578 338q-4 2 -13 -12v26l-8 -8q6 -27 2 -51q4 0 8 -14l8 24q-2 2 -6 12q2 8 3.5 8.5t5.5 14.5zM616 227l-4 11l-2 -9l4 -8z M250 821q0 2 -10 -6q4 -4 6 -10zM252 805l-2 10l-4 -10v-8zM459 463l-2 10l-2 -6l2 -10zM471 434v19l-4 -2v-17h4zM553 309l-4 10l-2 -6l4 -10zM600 248q-6 -10 -4 -25l4 -16v41zM467 426l-4 27l-2 -4l4 -23h2zM240 793l-4 18l-3 -4l3 -16zM279 758q-6 0 -9 24q2 12 4 31 q-6 -14 -12 -14q2 -27 -4 -37q2 -14 4 -33q-6 -23 -6 -18q0 -8 3 -19.5t3 -13.5q2 6 8 14q2 -4 3 -7t1 -7q4 2 5 10q-6 20 -7 17l-2 49q5 -2 9 4zM227 805l-4 18l-2 -4l2 -16zM565 254q0 4 -2 18l-6 -20zM504 342l-4 27l-2 -4l2 -23h4zM186 844v12h-6v-12h6zM295 647v19h-4 l2 -19h2zM498 322v18l-4 -2l2 -16h2zM221 766v0v0v0zM508 299q0 -2 -6 -6q4 0 -10 26q0 20 -5 19h-2v16q0 2 4 13q2 -6 7 -5q-8 18 -25 56q-2 -4 -8 -31q-2 -14 -4 -33q4 -8 2 -16q8 14 10 2q-6 -49 -6 -43q0 2 5 4t7 10q2 -14 4 -32q0 6 4 20q2 -6 2 -27q12 16 19 9 q0 6 2 18zM236 739v13h-7v-13h7zM547 240l-2 12h-4v-12h6zM547 266q-6 23 -10 23q0 -10 -7 -21q-8 0 -8 -18q4 -14 4 -21q0 2 4.5 4.5t5.5 12.5t4 11t7 9zM205 780l-8 8v-10l6 -6zM281 645q0 18 -5 27q-2 -6 -4 -13q5 -2 9 -14zM545 227v11h-8v-13zM559 190l-2 19h-2v-19h4z M455 354v11h-9v-13zM512 225q0 20 -4 29q-2 -10 -6 -12q6 1 10 -17zM244 637v31q-4 14 -8 14q0 10 -3 20q-2 -20 -6 -53q13 -14 17 -12zM557 147l-2 11l-2 -8l2 -9zM492 236l-5 10l-2 -6l4 -11zM182 721v12h-6v-12h6zM254 590l-2 31h-4l2 -31h4zM274 567v0v0v0zM549 127 l-6 16l-2 -8l6 -16zM455 272v13l-6 -2v-11h6zM479 217l-2 39h-2v-39h4zM471 238v18l-4 -2v-16h4zM557 125l-6 16q2 -27 -3 -26.5t-9 -3.5q4 -16 6 -17q4 0 12 31zM496 209h-2l-2 -23l2 -4zM274 532q-2 8 -6 23q0 -16 -2 -25q4 2 8 2zM209 633l-2 20l-4 -4l4 -16h2zM461 233 q-2 12 -6 15l-2 -19zM471 223l-8 8v-10l6 -8zM451 246v10h-5v-12zM182 668l-4 10l-2 -6l4 -10zM262 573l-8 9q-4 -29 -4 -35q-4 6 -7 6t-5 12.5t-5 14.5q0 -12 5 -35q-4 -10 -13 -8q2 -2 23 -13q6 -10 8 -16q-4 20 0 37q4 14 6 28zM221 565v19h-4v-19h4zM485 168 q-2 -2 -4 -8q4 -25 2 -31q0 6 2 21v18zM289 446v0v0v0zM317 403v11l-4 -8v-11zM276 459v12h-8v-12h8zM246 516l-4 4l-2 -18l4 -2zM199 596q-2 -2 -4 -8q2 -10 4 -21q-2 2 -1 13.5t1 15.5zM242 487l-2 19l-4 -4l4 -15h2zM225 492v32h-4v-32h4zM193 549l-9 8l2 -10l7 -6v8z M190 512l-4 10v-6l2 -10zM172 543q-2 6 -4 16q0 -14 -4 -31q4 5 8 15zM223 446q0 8 -2 23q-2 -10 -4 -25zM186 496l-2 18l-2 -4l2 -14h2zM428 111l-2 8l-8 -23l2 -10zM324 272l-5 4l-2 -18l5 -2zM354 209v12l-6 -2v-10h6zM311 322q-2 -2 -4 4q0 -2 -16 53q0 2 -2 -4 q-6 39 -6 53q-2 -4 -11 -35q-6 14 -6 15q-2 -2 -1 -8.5t-3 -6.5q0 2 -2 4q0 12 2 27q-4 0 -6 -4q-2 6 0 8q6 16 10 51q-4 -2 -14 -6q0 6 -4 12q-2 0 -4 -16t-4 -18q-4 0 -7 2q2 6 3 18q-2 -6 -4.5 -18.5t-4.5 -18.5q0 -4 3 -14t4.5 -12t5.5 -7q-2 -6 -2 -12l-2 -16 q2 -6 4 -6q2 8 8 24q2 -8 2 -39q4 -12 14 -39q4 -25 2 -32q4 0 6 -7v-32q0 -18 2 -49q0 6 5 12q6 14 14 28q0 6 -2 19q-4 -2 -4 -6q0 6 -2 16q4 41 4 45q2 -6 10 -12q2 0 3 7t3 7q-4 0 6 -12v25zM338 225l-2 19l-4 -4l4 -15h2zM209 426v0v0v0zM326 211v31h-4l2 -33zM344 184 q0 4 -8 25l2 -25h6zM295 272l-4 11l-2 -9l4 -10zM397 104l-2 2l-2 -16l2 -4zM199 397v0v0v0zM313 213l-2 10l-2 -8l2 -8zM199 369l-2 18l-4 -4l4 -16zM266 260q-4 12 -10 37v-21q-4 0 -6 7q0 -16 2 -39q0 6 6 12q2 0 4 -8q-2 10 4 12zM307 205q-8 0 -10 8l-4 -18q2 2 8 6 q4 0 4 -11q0 7 2 15zM338 135l-2 27q0 -4 -8 -2q4 -9 10 -25zM227 262q-2 6 -4 19v-15q-2 6 -4 15q2 -17 8 -19zM236 240q-2 -4 -9 -11q2 -2 9 -14q-2 2 -1 12.5t1 12.5zM225 201v30h-4l2 -30h2zM293 115l-2 4l-2 -19l2 -4zM299 84v10l-6 -10l2 -8zM207 219q-2 8 -2 25h-8 q2 -12 4 -29q2 4 6 4zM195 227q-4 6 -7 35q0 -6 2 -45q1 6 5 10zM258 133l-4 10v-8l2 -8zM246 145l-2 11h-6v-13zM207 205v8l-8 -8l2 -10zM209 182l-4 11l-2 -7l4 -10zM262 76v30h-4v-30h4zM184 233q-6 8 -6 9q-4 -10 -12 -33q4 4 6 0v20q4 -4 10 -14q0 16 2 18zM250 98 l-4 11l-2 -9l4 -8zM143 254v25h-4l2 -25h2zM231 150q-6 4 -14 14q-2 -14 -6 -45q4 -4 8 -15q0 12 4 15q-2 -2 6 -6q0 27 2 37zM178 184v0v0v0zM156 227l-9 9l3 -11l6 -8v10zM199 115q-2 -8 -4 -2v20q2 12 2 14h-11q6 -14 7 -51q8 9 6 19zM174 137v13h-6v-13h6zM145 176l-4 2 l-4 -31l4 -4zM137 115v10h-10v-12zM106 123l-4 6l-4 -16l2 -9zM131 55v27l-4 -2l2 -25h2zM115 66l-2 10l-2 -8l2 -9zM78 109l-2 10l-4 -4l2 -13z" />
<glyph unicode="O" horiz-adv-x="665" d="M516 186v0v0v0zM461 250h-10v10h10v-10zM432 276h-6v13h6v-13zM227 244l-4 -27l-4 4l4 23h4zM272 119q-6 -4 -6 -17q-2 10 -8 27l-6 -12q2 8 16 26q0 -10 4 -24zM168 244l-2 -8l-4 10l2 8zM262 72h-8v12h8v-12zM190 203q2 -8 -14 -39v26q2 23 2 35q2 -4 2 -11t2 -9 q0 4 4 4q4 -2 4 -6zM143 264q-2 -12 -6 -24q4 12 -2 16zM168 174l-2 -6l-4 10l2 8zM629 748q-4 -2 -8 -13q0 -33 -7 -96q-4 2 -8 12l-4 -10v-33l6 -10q2 6 10 20v-47q-4 12 -14 0q2 8 -6 21q-2 -20 4 -34.5t6 -31.5q0 -37 -28 -190q-6 -6 -13 -43q-4 6 -18 -4q4 -8 14 -19 q-35 -131 -76 -174q-6 6 -10 6q-4 -33 -33 -61q4 0 -2 14l-3 -11t-7 -15q-23 -20 -51 -21q-4 0 -34 -7t-32 -7l-6 20q-6 -14 -33 -14q-8 0 -44.5 37t-44 47t-7.5 25.5t-12 40.5q-2 -8 -2 -13q4 -8 4 -14q-6 12 -12 16q0 2 3 6.5t3 8.5q0 2 -6 10l-4 -14q-47 113 -48 141v24 q2 4 -4 4t-4 -8q0 6 -4 17.5t-4 19.5q-43 158 -45 266l2 7q-14 29 -2 55q-6 14 -7 10t-1 98q0 66 12 82q-2 6 -8 4q2 141 41 336q4 31 15.5 78t54.5 141v9q35 63 45 84q4 -2 10 -2q25 53 39 53q2 0 2 -3t2 -3t6 22q18 0 37 25q10 0 18 -21l4 13q4 0 6.5 7t4.5 7q4 0 8 -7 t8 -7q2 0 3 7t5 7q2 0 2 -3t4 -3q2 0 3 6t3 6q4 0 15.5 -13.5t15.5 -13.5h21q6 0 0 13q4 0 6 -12.5t6 -12.5t3 3t1 3q6 0 12 -49q2 8 7 23q0 -4 2 -13q39 -10 92 -170q2 -14 22 -80q0 -4 -2 -14q0 -4 6 4q10 -33 23 -90q6 -41 20 -123q2 -10 -6 -28q2 -4 6 -5q2 -35 4 -110 q2 -25 9 -29q-4 -72 -4 -76q4 12 8 13v-94zM416 1536l-4 27l-4 -4l4 -23h4zM393 1530q-4 14 -4 24l-8 -8v-24zM412 1479v10h-6v-10h6zM508 1309l-4 2l-4 -17l4 -4zM346 1556v19h-4v-19h4zM489 1298v19h-4v-19h4zM440 1397v12h-12v-12h12zM362 1532v12h-16v-12h16zM535 1219 q0 8 -5 18q0 -8 -2 -20l-8 4q0 -8 8 -15q3 3 7 13zM375 1497l-4 4l-2 -16l2 -4zM571 1104v0v0v0zM586 1055v16h-4v-16h4zM582 1034v19h-4v-19h4zM373 1403v12h-6v-12h6zM430 1309l-4 2l-2 -17l4 -4zM311 1499v10h-6v-10h6zM313 1479l-4 10l-2 -6l4 -10zM418 1292l-2 6 l-6 -16l2 -6zM563 1012q0 -4 -8 -4q4 -2 6 -9q2 7 2 13zM281 1501q-2 12 -5 19q-4 6 -4 0q-4 4 -4 18q0 -6 -6 -6q4 -14 10 -39q7 16 9 8zM428 1243l-2 8l-6 -8v-10zM522 1061v18h-4v-18h4zM539 1036v0v0v0zM309 1464q-2 0 -6 6.5t-4 2.5h-12q4 -12 10 -33q4 12 12 24z M588 928v12h-8v-12h8zM418 1235l-2 10l-6 -8v-10zM510 1040v19h-4v-19h4zM553 958v19h-4v-19h4zM492 1067v18h-5v-18h5zM262 1491h-6q2 -4 2 -16q0 8 4 16zM532 999l-8 9v-11l6 -8zM457 1104h-8q2 -4 4 -17q0 15 4 17zM477 1040v25h-4v-25h4zM274 1417v13l-12 -9v-12z M522 963l-4 10l-2 -6l4 -11zM500 1010l-4 2l-4 -17l4 -4zM625 768l-2 8l-7 -8v-10zM236 1413q-2 8 -5 21q0 -4 -3 -10.5t-3 -10.5h11zM618 752q-4 2 -6 8v-47q2 16 6 39zM504 936l-2 10l-6 -8v-10zM498 954l-4 4l-5 -18l5 -4zM512 918l-2 8l-6 -8v-11zM569 864 q-2 12 -7 12.5t-19 41.5q0 -14 -2 -15q-2 0 -25 19q16 -39 16 -43q0 -16 -12 -31q0 12 -4 29q-10 -27 -8 -27q-4 0 -3 -6t-1 -10v-19q6 14 8 14q4 0 7 -12t5 -14q0 33 6 33q4 0 4.5 -3.5t4.5 -3.5q2 0 6 10.5t6 10.5q6 0 8 -8q0 14 4 28q2 -6 6 -6zM567 799q-6 8 -6 26 q0 -8 -6 -24q-4 4 -10 6v-53q2 8 22 45zM213 1407l-10 8v-10l8 -8zM178 1456v0v0v0zM186 1427v19h-4v-19h4zM537 766h-2l-5 -23l5 -4zM582 647v19h-4v-19h4zM479 834l-4 10l-2 -6l2 -11zM217 1309l-4 2l-4 -17l4 -4zM541 729l-4 6l-7 -16l5 -8zM516 760v10l-6 -8v-10z M575 670q-6 4 -6 16q-4 0 -8 -8v35q-10 -12 -8 -13q2 0 -8 13q-2 -12 -8 -31h12q-2 -6 0 -12q-4 -12 -4 -17q10 0 14 -14v18q10 5 16 13zM588 616l-4 11l-2 -6l4 -11zM539 702q-4 6 -11 25q0 -14 -4 -14t-2 14q0 -20 6 -35q5 2 11 10zM199 1272v24h-4v-24h4zM518 715 q-8 25 -8 26q-6 -33 -6 -45q4 17 14 19zM217 1241v10h-6v-10h6zM180 1303v10h-10v-10h10zM524 678l-4 10l-2 -8l4 -8zM473 766l-6 16l-2 -6l6 -16zM573 582v0v0v0zM174 1257v19h-6v-19h6zM561 625h-8l-4 -13q-10 23 -17 33q0 -4 -3 -16.5t-3 -16.5q4 -10 9 -28q6 8 8 2 q-6 -10 0 -35q10 14 10 27l6 -13q-2 35 2 60zM590 494v12h-10v-12h10zM530 588l-4 4l-4 -19l4 -4zM506 618l-6 9l-2 -9l8 -10v10zM436 705v10h-6v-10h6zM186 1159l-4 2l-4 -16l4 -4zM195 1130q-4 8 -9 17v-25q11 8 9 8zM436 696l-4 4l-4 -18l4 -4zM446 686q-10 -16 -14 -16 q10 -2 8 -25q6 33 6 41zM530 477v33q-2 -4 -4 -12.5t-2 -12.5q2 -6 6 -8zM549 438v13h-6v-13h6zM111 1255q0 -16 -5 -45l-2 -6q6 -8 7 -22v73zM463 571v19h-4v-19h4zM428 705q-8 -4 -8 -5q-8 0 0 150q0 141 -19 401q-12 80 -28 119v14q-2 -2 -6 -12q-29 61 -35 62 q-10 0 -33 -79t-29 -128q-8 -66 -6 -88q-2 -8 -4 -15q2 -8 0 -20q-2 -53 -10 -150q-2 -8 -6 -14v-6q2 -10 4 -27q-4 -16 -4 -20q0 -8 2 -21.5t2 -19.5q-6 -215 6 -400q2 -8 6 -29.5t4 -37.5q4 -41 6 -90q2 -4 11 -49q6 -27 21 -51.5t24 -24.5q14 0 28 26q4 -10 6 -6 q8 23 23 76q8 41 14 84q4 57 15 139q2 8 6 11q-4 2 -8 14q2 27 8 70q0 27 -2 69q6 25 3 28t9 30zM170 1083v13h-8v-13h8zM475 532v0v0v0zM504 492q-4 10 -12 51q0 -6 -7 -11q4 -10 9 -26q-4 -4 -15 -4q0 -6 2 -8q4 -2 6 2q0 -14 5 -33q4 2 6 8l-6 21h12zM537 408l-13 16v-10 l11 -15zM522 438q-10 33 -12 58q0 6 -8 -37q6 -20 6 -19q-18 -41 -16 -59q16 43 30 57zM442 530v31q-2 -12 -8 -12zM461 510l-2 8l-6 -8v-10zM483 473l-2 4l-4 -18l4 -4zM449 518v19h-5v-19h5zM186 979l-4 20l-4 -4l4 -16h4zM100 1133v10h-6v-10h6zM150 1063q-6 14 -7 22 h-12v-36l6 -17q3 2 13 31zM510 367q6 14 0 28q-2 -8 -6 -10zM494 432q-8 -4 -9 -4q-2 0 -2 21q-2 -4 -4 -7q0 -2 -2 0q0 2 -2 13h-10q2 -20 10 -54l4 13h4q5 2 11 18zM528 381q-4 -12 -12 -29v-30q10 0 10 24q-4 2 -4 10q8 23 6 25zM150 993v25h-5v-25h5zM215 889v10l-8 -8 v-10zM514 342v25h-4v-25h4zM100 1106q-4 -4 -10 -8q4 -4 10 -25v16.5v16.5zM168 944q0 4 -6 21q-4 -6 -8 -11q4 -6 4 -16q4 6 10 6zM434 442v19h-6v-19h6zM123 995v0v0v0zM481 369l-2 6l-6 -17l2 -6zM164 901l-4 10l-4 -6l4 -10zM82 1044l-4 11l-2 -8l2 -9zM190 836v18h-4 v-18h4zM184 840v12h-8v-12h8zM190 827l-4 11l-2 -9l4 -8zM152 885q-2 6 -5 14q0 -2 0 16h-10q0 -57 2 -45q7 9 13 15zM70 1022v12h-7v-12h7zM168 817v31h-4v-31h4zM180 797l-2 26l-4 -4l2 -22h4zM98 942v10h-6v-10h6zM156 838l-4 6l-7 -17l5 -6zM109 907l-3 13l-4 -9l4 -10z M94 926l-4 18l-2 -4l2 -14h4zM182 764q-8 8 -12 45q0 -8 2 -27v-26q4 4 10 8zM123 881q-2 -4 -8 -9q4 -2 6 -10q2 7 2 19zM213 680q0 33 -4 53q0 -88 -2 -67q2 8 6 14zM104 887l-2 10l-4 -4l2 -12zM147 819q-4 6 -10 8q-2 6 -2 -26q0 -8 6 -27q0 6 2 22.5t4 22.5zM170 725 h-12q2 0 3 -6t5 -6t4 12zM63 874l-4 11l-2 -6l4 -11zM215 584v41l-10 -25q4 2 6 4q2 -6 4 -20zM227 586l-4 6l-6 -23l4 -6zM141 715q-2 6 -2 18l-18 6q0 -12 6 -12q-2 0 14 -12zM238 535v12h-7v-12h7zM145 659l-2 39h-6l4 -39h4zM182 618l-2 9l-8 -15l2 -10zM195 596 q-8 0 -9 22q-2 -25 -8 -67q7 18 17 45zM109 721l-7 8l-2 -10l6 -8zM78 756q0 20 -2 39v20q-2 -10 -4 -27q0 2 -13 -2q6 -16 13 -38q2 6 6 8zM201 498q-2 12 0 45q-4 -4 -11 -6v-39h11zM221 473v12h-10v-12h10zM188 518v19h-4v-19h4zM98 684v10h-6v-10h6zM240 403 q-8 12 -11 39q-6 -20 -6 -32q2 0 8 -7q5 -2 9 0zM94 659v19h-4v-19h4zM61 733l-10 10v-10l8 -8zM207 453v12h-6v-12h6zM123 588v0v0v0zM106 608l-6 25l-2 -6l6 -23zM199 422v27h-4v-27h4zM96 616q0 4 -4 9q0 -10 2 -19.5t2 -3.5q-2 6 0 14zM129 549v10h-8v-10h8zM150 516 l-9 16l-2 -10l8 -14zM264 303v12h-8v-12h8zM184 500q-10 31 -12 30q2 0 -12 -10q2 -6 -4 -14q-2 -18 2 -23q-6 -59 16 -82q-8 33 -12 70q4 10 10 23q6 0 12 6zM215 393q-2 2 -6 8q-2 -6 -2 -20l6 -6q0 6 2 18zM178 418v0v0v0zM154 432v0v0v0zM225 287l-4 30h-4l2 -30h6z M205 309v13h-12v-13h12zM143 381v27h-4v-27h4zM94 471l-4 18l-2 -4l2 -14h4zM129 389v19h-4v-19h4zM147 301v25h-4v-25h4zM121 344v12h-12v-12h12zM141 299q-4 6 -8 -6q-2 2 -2 8t-2 10q0 20 2 27q-2 -8 -10 -25q-2 6 -6 6q0 -20 4 -32q16 0 22 12z" />
<glyph unicode="P" horiz-adv-x="628" d="M373 96l-4 -6v8l4 6v-8zM281 166v0v0v0zM350 29l-2 -6l-4 8l2 6zM369 -6l-2 -14l-5 4l5 14zM297 86h-4v27h4v-27zM225 158q0 -18 -2 -21q-2 4 -4 13q2 4 6 8zM195 109h-5v14h5v-14zM186 76h-4v20h4v-20zM205 16h-6v11h6v-11zM72 109l-4 -9v9l4 6v-6zM96 16h-6v11h6v-11z M592 743q0 -80 -41 -256q-27 -113 -59 -147q-2 -10 -11 -25q-6 -2 -14 -8q-8 -18 -29 -47q-16 -18 -39 -18l-57 51v26q-6 -6 -2 -16q-14 23 -37 78l-12 55q-6 18 -6 -8q0 -16 4 -55q10 -78 20 -117q8 -31 31 -68q10 -14 12 -14t18.5 -5t18.5 -5q8 0 2 16q6 -20 6 -10 q-2 -10 -2 -18q0 -6 2 -15.5t2 -13.5q4 -106 4 -96q0 -47 -14 -47q-2 0 -4 -3q-4 -2 -6 0q0 8 -4 9q-2 0 -1 -5.5t-3 -5.5q-2 0 -23.5 8.5t-25.5 8.5q-2 0 -31 -6t-33 -6l-7 4t-11 4h-39q-90 10 -103 10q2 10 -2 10q-2 0 -16 -8t-19 -8l-8 16v-10q-8 39 -8 41q0 33 8 67 q6 10 19 35q16 45 18 45q-2 0 2 -12q6 18 17 62q2 14 6 43q-2 29 6 57l16 270q2 123 6 371q0 2 -2 6q0 2 2 31q0 8 -2 2q0 2 2 11t2 11q-12 41 -6 95q-4 45 -10 118q-2 25 -9 66t-26 110q-6 18 -18.5 21.5t-22.5 5.5q-23 8 -12 8q-6 20 0 31q0 2 -2 4q-2 16 4 47v45 q33 23 47 23q4 0 4 -5t4 -5l203 16q6 -18 6 -31q0 -16 -8 -61l2 -47q2 8 12 39q6 18 4 32q8 18 27 49q4 2 12 7q20 18 15 18h14q4 0 2 -6t0 -6t20.5 3t20.5 3q12 0 53 -51q16 -20 27 -45q31 -92 29 -111q-2 -10 2 -10q2 0 2 12q8 -29 20 -86q31 -197 31 -244v-340zM543 1341 v21h-2v-21h2zM535 1352v16h-3v-16h3zM524 1378l-6 -4q2 0 -4 10l-4 -12l4 -14h6q0 6 4 20zM506 1327l-2 10l-2 -6l2 -8zM553 1231v20h-4v-20h4zM518 1317h-12q2 4 2 -14q4 4 10 14zM393 1516v10h-4v-10h4zM539 1278q-2 0 -4.5 -2t-4.5 -4q2 -2 2 -9.5t3 -11.5q0 11 4 27z M524 1276v14h-4v-14h4zM504 1303v14h-4v-14h4zM514 1272q0 2 -2 6v12h-8q10 -28 10 -18zM520 1247v21h-4v-21h4zM510 1249q0 18 -2 25q0 -2 -2 -10v-13q4 12 4 -2zM543 1204l-2 4l-2 -14l2 -4zM571 1147l-2 6l-4 -6v-8zM508 1233l-2 8l-2 -4l2 -8zM492 1262l-3 8l-2 -6l2 -9 zM541 1153v14h-2v-14h2zM512 1194v10h-6v-10h6zM530 1174q0 -2 -4 -6.5t-4 -10.5l4 12q4 1 4 5zM506 1190l-4 8l-2 -6l4 -8zM520 1171q-2 2 -8 11q-2 -10 -6 -11q4 -14 10 -34q0 -1 4 34zM547 1100l-2 8l-2 -4l2 -8zM498 1176v24h-4v-24h4zM442 1276l-2 14l-2 -2l2 -12h2z M342 1450v8h-4v-8h4zM422 1280v16h-4v-16h4zM526 1098q2 0 -8 4q0 -8 3 -15.5t3 -3.5q2 -1 2 15zM506 1122l-4 8l-2 -4l4 -8zM573 983q-4 0 -4 2v21l-2 12q0 -10 -4 -27v-14q0 8 2 8q8 0 8 -2zM301 1442l-2 16l-2 -4l2 -12h2zM543 991v43q-2 -2 -5 -9t-6 -9zM580 928v10h-5 v-10h5zM211 1569q0 6 -4 16q0 -4 -2 -11t-2 -11q2 6 8 6zM487 1077v10h-10v-10h10zM254 1497q-4 14 -12 27v-19h-6q4 -4 12 -20q0 18 6 12zM580 883l-5 10l-2 -6l5 -8zM197 1552v15h-4v-15h4zM475 1051v8h-4v-8h4zM557 887v14h-4v-14h4zM571 856l-2 8l-2 -6l2 -8zM260 1386 l-2 21l-2 -2l2 -19h2zM502 967l-4 2l-2 -15l4 -2zM553 911q-6 -4 -6 0q0 12 6 31v21q-18 20 -25 38q0 10 -6 33q2 8 -4 23q0 -2 -1 -7.5t-3 -9.5q-2 8 -6 21q2 4 2 12q-8 2 -10 23l-4 -11q0 12 -7 17l3 -31l2 -4v-12q8 -23 8 -25q0 -4 -4 -22q-2 4 -6 4q4 -12 2 -19 q10 0 10 -2q0 -33 0 -28q2 0 2 -3.5t2 -10.5t2 -9q0 -4 -3 -9t-3 -7q-4 -8 -10 -19q-2 -33 0 -39q-2 -10 -7 -22q8 2 17 -25q0 2 4 10q0 -4 3 -10t3 -12q-4 -8 -4 6l-10 -20q6 -10 14 -27q-4 -12 -10 -33l6 -14l4 10q2 -2 6 -4q0 14 5 44t7 44l7 -4q-4 -6 0 -14q2 -4 4 -9 q0 86 2 66l-2 -10q-4 4 -4 2q0 -20 -2 -21h-4.5h-4.5v6q0 8 9 23l2 10q2 -4 6 -4q-4 8 -2 16.5t2 18.5l6 6q0 4 2 12zM494 948v21h-5v-21h5zM182 1487l-4 4q-4 0 -6 -10q-2 0 10 6zM229 1389v8l-8 8v-10zM573 760l-2 4l-4 -14l4 -5zM186 1456h-4q-2 -2 -4 -2v-18h6q2 0 2 20 zM231 1366q-4 10 -10 -8l4 4q2 -8 6 4zM279 1266v0v0v0zM252 1305v10h-6v-10h6zM563 760l-2 4l-2 -14l2 -5zM135 1524q-4 -4 -10 -15h8q0 5 2 15zM567 731l-2 17l-2 -5l2 -12h2zM266 1253v15h-4v-15h4zM139 1493l-2 4l-4 -14l4 -4zM188 1399q-6 6 -16 18q6 -29 14 -31 q0 5 2 13zM461 901l-2 8l-2 -6l2 -8zM158 1427v0v0v0zM133 1456l-2 8l-2 -6l2 -8zM193 1325v6q6 29 0 31v-22.5v-14.5v0zM111 1489l-5 8v-6l3 -8zM535 723v8h-7v-8h7zM213 1292v15h-6l-2 -15h8zM143 1415v0v0v0zM168 1364l-2 16l-4 -4l2 -12h4zM545 692l-8 21q0 -4 -2 -15 q2 -6 10 -6zM524 727v0v0v0zM233 1245l-2 8l-4 -6v-8zM451 850v10h-5v-10h5zM555 657v9l-4 -7v-8zM246 1217q0 8 -5 10l-5 2q0 -12 -5 -12q4 -4 11 -15q0 2 2 4.5t2 10.5zM563 639v0v0v0zM532 707q-2 4 -6 6q6 -37 6 -33v27zM207 1257v21h-2v-21h2zM59 1526l-2 14l-4 -2 l4 -12h2zM180 1333h-14q4 -4 8 -12v-8q2 8 6 20zM496 727v10h-4v-10h4zM502 709l-2 22l-4 -4l2 -18h4zM518 713q-6 -2 -14 -6q2 -6 6 -13.5t4 -13.5zM252 1157l-4 8l-2 -8l6 -8v8zM522 668v8h-6v-8h6zM457 770v21h-2v-21h2zM553 606l-4 8l-2 -6l4 -8zM530 637l-2 20l-4 -2 l2 -18h4zM518 662v0v0v0zM510 682l-2 4l-6 -18l2 -6zM246 1151h-4l-2 -18l4 -5zM557 573v9h-4v-9h4zM422 1110q-4 68 -16 205q-8 23 -21 69q-4 29 -8 33v-10q-2 0 -5 11.5t-5 11.5t-7.5 -3.5t-7.5 -3.5t-1 6.5t-3 6.5q-14 0 -39 -119q-8 -47 -12 -129q-4 -90 -8 -127 q2 -258 0 -285q0 -2 10 -176q6 -37 14 -100q6 -14 17 -45q43 -25 37 -25q-2 0 18 35q2 14 14 90q6 66 13 199q4 76 6 112q0 25 2 43zM190 1221q-2 4 -8 12v8t2 37l-6 -4l-4 -14q2 -18 8 -64q4 0 4 12.5t4 12.5zM457 750l-2 2l-2 -13l2 -4zM211 1178l-2 8l-2 -4l2 -8z M535 588q-2 8 -7.5 20.5t-7.5 22.5q0 -14 -4 -15q5 -14 19 -28zM492 672l-3 2l-2 -12l2 -5zM500 645l-4 8l-2 -6l4 -8zM510 641l-6 -14q2 -4 4 -15q2 9 2 29zM547 557h-4l-2 -27h4zM221 1114l-2 16l-4 -4l2 -12h4zM475 651l-2 8l-4 -6v-8zM238 1051v8h-5v-8h5zM182 1143 q-4 45 -18 112q2 -12 4 -28q-2 -8 -8 -23q12 -33 0 -47q-2 14 -8 17q0 -16 -4.5 -16.5t-4.5 -14.5q2 -4 4 -10q8 -18 11 -37l6 12v-12l10 -4q0 2 -1 7t1 9q6 2 8 0v35zM506 602h-6l-6 -49q4 10 6 10q4 0 4 -16zM477 612v9l-4 -7v-8zM274 952q-2 25 -2 39q-2 -10 -5 -24.5 t-5 -18.5q2 -4 6 -16q0 -6 3 2t3 18zM227 1038q-2 4 -6 14.5t-6 16.5l-4 -12q-2 6 -4 6q6 -33 6 -35q4 -8 14 10zM193 1081v31q-8 -12 -11 -12q13 -19 11 -19zM283 924l-2 8l-5 -6v-8zM258 942v14h-2v-14h2zM494 508v20h-5v-20h5zM201 1034v8l-6 -6v-8zM152 1116l-2 10 l-3 -6l3 -8zM219 987q0 12 -4 27q-2 -12 -6 -27q2 -2 10 0zM465 561l-2 2l-2 -14l2 -2zM248 944l-4 14l-4 -8t-2 -8q4 -2 4 -12q4 4 6 14zM190 1014q-2 8 -10 33h8q0 6 -2 18t-2 14q-14 -23 -8 -22q-6 0 -6 -15l4 11q4 -10 8 -45l4 10q-2 0 4 -4zM485 500v10h-8v-10h8z M449 547v26h-5v-26h5zM512 444l-2 11l-2 -6l2 -9zM225 956q-2 -2 -8 -6q2 -6 4 -14q4 12 4 20zM197 987l-4 14l-3 -2l3 -12h4zM201 995h-4l-2 -30h4zM217 956q-4 0 -6 7q-6 -16 -6 -21q2 2 5 4t3 6q0 -6 2 -10q0 4 2 14zM227 922l-2 10l-2 -6l2 -8zM150 1053v14h-3v-14h3z M446 535l-8 -9h6zM283 817l-4 2q-4 -14 -3 -22q1 0 7 20zM168 1030q-8 -16 -4 -16q2 -12 2 -29q4 29 2 45zM248 856v8h-4v-8h4zM502 416l-2 4l-6 -12l2 -7zM268 817v10h-4v-10h4zM229 889q-6 2 -8 12v-10q2 -8 2 -10q2 6 6 8zM176 969q0 10 -2 22l-8 -20l6 -13q0 11 4 11z M489 406l-2 10l-2 -6l2 -9zM221 874l-2 17l-4 -2l2 -15h4zM252 809l-2 16l-2 -4l2 -12h2zM289 741v17h-4v-17h4zM233 834l-2 8l-2 -4l2 -9zM260 780q0 10 -4 23q-4 -6 -4 -23h8zM227 840v8h-6v-8h6zM201 866q-2 4 -11 19q0 -4 1.5 -11.5t3.5 -9.5q6 0 6 2zM225 811 q-2 0 -2 25q-4 -4 -8 -9q2 -10 6 -24zM287 672l-2 2l-2 -12l2 -5zM203 811l-2 8l-2 -4l2 -8zM176 874q-2 -8 -6 -14q2 -2 4 -8v12q2 6 2 10zM268 690l-4 8l-2 -6l4 -8zM260 700v9h-6v-9h6zM412 428v10h-6v-10h6zM281 653v15h-2v-15h2zM219 762l-4 8l-2 -6l4 -8zM170 842v14 h-4v-14h4zM276 666l-4 4l-2 -15l2 -4zM184 817q-2 2 -8 19q0 -6 2 -17.5t2 -13.5q0 6 4 12zM287 629v8h-6v-8h6zM301 578l-2 10l-2 -6l2 -9zM180 786v15h-2v-15h2zM426 352l-6 8v-8l6 -8v8zM197 756l-4 8l-3 -4l5 -8zM252 651v8l-6 -6v-8zM154 842q-4 -12 -9 -15q2 -4 5 -14 q4 13 4 29zM176 776v0v0v0zM244 641q0 6 -2 14.5t-2 10.5v-27q0 14 4 2zM203 741q-2 -2 -7.5 -1t-5.5 -7t4.5 -10t6.5 -4q2 6 2 22zM188 733v10h-4v-10h4zM225 678q-2 2 -4 8l-4 -16l4 4zM430 295l-2 2l-2 -14l2 -2zM242 616v11h-4v-11h4zM258 561v10h-6v-10h6zM250 571v11 h-4v-11h4zM193 670v14h-5v-14h5zM389 330l-8 8v-8l6 -6zM373 346l-2 8l-4 -6v-8zM319 440l-2 9l-4 -7v-8zM180 659v25h-2v-25h2zM338 385l-2 8l-2 -6l2 -8zM375 303q0 10 -6 14q0 -10 2 -20q0 4 4 6zM145 698v21h-4v-21h4zM178 633v0v0v0zM190 629l-6 -3t-4 -3q2 -4 2 -15z M276 414v16h-4v-16h4zM223 512l-2 8l-2 -6l2 -8zM209 532v0v0v0zM190 553q0 4 -2 16q-2 -6 -4 -10q4 0 6 -6zM254 418q-2 -6 -6 -12q2 -2 4 -9v11q2 8 2 10zM217 457l-2 8l-4 -6v-8zM190 506q-8 12 -10 12l4 -8q-4 -8 -4 -18q2 2 5 7t5 7zM174 524h-4l-2 -18l2 -4zM258 356 v9h-6v-9h6zM221 432q-4 14 -8 14q-2 0 -4 -5t-4 -5q-6 0 -6 17q-4 -27 -2 -39l6 16q6 2 18 2zM246 317q2 0 -10 7q6 -20 4 -21q2 0 6 14zM256 285v8l-6 -6v-8zM170 459q-2 -16 -4 -29q4 -8 4 -22q4 22 0 51zM188 375v16h-4v-16h4zM178 395l-2 2l-2 -14l2 -4zM219 303v14h-4 v-14h4zM207 352q-2 -2 -4 -5t-2 -5q-4 10 -2 10q-2 0 -11 -10q-4 23 -4 27q-4 -27 -6 -31q2 2 6 -3t6 -5t0 6q0 6 3 6q6 0 12 -16q2 -9 2 26zM268 213l-6 12v-4l4 -14zM166 383v10h-4v-10h4zM172 358l-4 7l-2 -7l6 -8v8zM215 268l-2 8l-4 -6v-8zM166 340q-2 -2 -10 0 q4 -8 8 -21q2 2 2 11v10zM203 260q-6 18 -19 47v-55l9 -23zM147 346q0 6 -2 16q-6 -6 -8 -20q8 12 10 4zM131 367l-2 18h-2l2 -23zM240 201h-11q0 -4 -2 -14.5t-2 -16.5q12 16 13.5 15.5t1.5 15.5zM221 184l-4 9l-2 -7l4 -8zM180 238v24h-2v-24h2zM207 207v8h-12v-8h12z M170 268l-4 8l-2 -6l4 -8zM211 190q-6 0 -8 7q0 -10 4 -23q2 6 4 16zM170 236v0v0v0zM160 250l-2 10l-2 -6l2 -8zM197 174l-4 12l-3 -4l7 -14v6zM145 236q0 -2 -2 -6.5t-2 -12.5t6 -8q2 0 5 8q0 8 -2.5 9.5t-4.5 9.5zM164 180q-2 -4 -2 23l-4 -13v17q-6 -14 -6 -21 q4 0 12 -6zM141 225q0 6 -2 17q-4 -14 -4 -27q8 10 6 10zM119 207v8h-4v-8h4z" />
<glyph unicode="Q" horiz-adv-x="614" d="M467 117h-2v20h2v-20zM428 162h-4v14h4v-14zM424 137h-4v8h4v-8zM403 150l-2 -23l-2 2l2 21h2zM358 170l-2 -4l-2 8v6zM360 162l-6 -15v7l4 14zM324 154v0v0v0zM315 98l-2 -6l-2 8l2 6zM299 12h-4v11h4v-11zM575 125q0 -8 0 -6q-2 2 -2 0q2 -12 0 -45q0 -20 -2 -56 q-10 -27 -20 -26q-4 0 -44 6t-44 6q-2 0 -8 -6t-9 -6q-2 0 -17 3t-17 3t-2 6t-4 6q-2 0 -36 -9t-36 -9q-14 0 -21 8q-16 14 -10 14q-2 0 -7 -5t-24 -5h-6q-2 0 -17.5 -3t-19.5 -3q-10 0 -10 129q6 20 25.5 25.5t31.5 21.5q4 6 17 53q18 70 18 90q6 14 8 43q2 41 5 46 q-2 0 -7 8q-47 -145 -73 -146q2 0 -2 11q-4 -29 -13 -29q-2 0 -15 3t-15 3q-12 0 -41 35q-12 23 -31 57q0 6 -2 17q-8 6 -21 55q-6 18 -15 51t-26 107q-6 33 -12 131q-4 27 -10 84q-2 45 -2 122q0 -18 14 203q4 33 10 96q0 12 4.5 36t5.5 30t11 18q-4 51 -2 68 q20 111 35 129l-2 6q6 27 35 70q8 14 26 43q6 -2 17 0q33 12 24 12q4 0 3 -5t1 -5t13.5 5t13.5 5t4 -5t4 -5q4 0 0 10q2 -2 6 -14.5t6 -12.5t6.5 11.5t6.5 11.5t10 -14.5t10 -14.5t2 3t2 3q4 0 8 -10q2 2 41 -63q6 -8 21 -25l2 -10t4 -10h8q10 0 29.5 61.5t23.5 65.5 q18 14 35 14q20 0 21 -57q0 -55 -6 -183q-4 -47 -11 -155q-6 -96 -6 -103l4 -270v-158q0 -201 15 -368q6 -18 18 -58q12 -57 37 -108q6 -4 16 -11.5t10 -25.5zM449 1511q-2 2 -7 2q2 -8 2 -20q7 8 5 18zM461 1339l-2 9l-2 -7l2 -8zM301 1550v0v0v0zM289 1575q-2 2 -6 -3 t-4 -11l6 -13q0 13 4 27zM266 1571q0 14 -2 22q-2 -6 -2 -14q2 -6 4 -8zM272 1556v11l-4 -4l2 -11zM317 1473l-2 10l-2 -6l2 -9zM301 1542q-2 0 -10 -6q-6 -2 -6 0q-4 -8 -4 -16q0 16 10 -39v12h6q2 18 4 49zM451 1225q0 12 -2 26q-4 0 -5 -20q0 -16 2 -25q2 2 3.5 9.5 t1.5 9.5zM305 1479v10h-4v-10h4zM408 1282v10h-7v-10h7zM326 1415v15h-4v-15h4zM406 1276l-3 4l-2 -14l2 -4zM233 1563v0v0v0zM360 1348q-2 10 -8 -7q2 -2 4 -6q0 13 4 13zM242 1546l-4 8v-4l2 -8zM336 1356v8h-4v-8h4zM393 1247l-8 10v-8l6 -10zM418 1178v20h-4v-20h4z M193 1544v15h-5v-15h5zM385 1212l-2 7l-4 -15l2 -6zM436 1102l-2 10l-2 -6l2 -8zM453 1069l-4 8l-3 -6l5 -8zM426 1085l-4 11l-2 -6l4 -9zM432 1049v20h-2v-20h2zM436 1034l-2 4l-2 -14l2 -4zM346 1180v0v0v0zM426 1040v0v0v0zM199 1446l-6 6v-10v-12q0 4 3 8t3 8zM162 1483 v0v0v0zM412 1026v16h-4v-16h4zM420 1024l-4 2l-2 -14l4 -4zM182 1411q0 4 -4 12q0 -6 -4 -12q8 -4 8 0zM164 1452q-2 -2 -4 -6v-31q2 -2 4 -6v20.5v22.5zM401 1008q-2 -2 -6 -7q2 -6 4 -14q0 13 2 21zM434 918l-2 8l-2 -6l2 -9zM174 1368l-4 8l-2 -8l4 -8zM432 874v17h-2 v-17h2zM385 963v10h-8v-10h8zM123 1419v17h-4v-17h4zM375 961v0v0v0zM395 930l-6 12l-2 -4l6 -14zM403 907v8l-6 -6v-8zM365 940l-5 8l-2 -6l4 -8zM406 862l-5 8l-2 -8l4 -6zM164 1276q-2 6 -10 6q6 0 2 -25q4 9 8 19zM193 1208l-5 4l-4 -20l2 -4zM152 1251v15h-5v-15h5z M160 1229q0 8 -2 18q-2 2 -4 -4q2 -12 6 -14zM166 1200l-2 23l-2 -2l2 -21h2zM453 702l-4 5l-3 -15l3 -4zM424 750h-4l-2 -27h4zM389 780l-2 17l-4 -4l2 -13h4zM399 745l-8 17l-2 -17q4 10 4 11q2 -1 6 -11zM145 1204h-2l-2 -18l2 -4zM399 743l-4 2l-2 -14l2 -4zM186 1102 l-4 10l-2 -6l4 -8zM145 1176l-10 16q0 -6 3 -16.5t5 -14.5q0 5 2 15zM330 1034l-2 6v17.5v15.5q0 82 -2 109q-4 49 -11 133q-6 35 -14 69q-12 53 -33 78q-2 10 -2 25q0 -12 -4 -23q-4 6 -8 6t-16 -14q-4 -4 -13 -49q-4 -12 -10 -35q-8 -55 -10 -80q-10 -258 -10 -370 q0 -6 2 -43v-52q0 -100 8 -192q2 -27 5 -66t17 -90q18 -59 31 -59q31 0 49 92q8 49 17 381q0 20 3 77.5t3 63.5zM406 674v18q0 -6 -11 -4q5 -12 11 -14zM133 1139v20h-4v-20h4zM412 633v26h-4v-26h4zM141 1110q2 0 -10 -12q2 -12 6 -11q0 6 2 13.5t2 9.5zM467 508v8h-6v-8h6 zM401 608l-2 2l-2 -14l2 -2zM109 1112q-4 2 -7 8v-14q1 4 7 6zM188 956v11h-4v-11h4zM453 465v6l-4 -6v-8zM109 1063l-3 2l-2 -14l2 -2zM172 926v20h-2v-20h2zM176 922l-2 4l-4 -13l2 -6zM160 944l-4 4l-2 -14l4 -4zM391 510v14h-4v-14h4zM408 485l-2 9l-3 -7l3 -8zM147 934 v10h-6v-10h6zM98 1018l-4 10l-2 -6l4 -8zM399 479l-2 8l-2 -4l2 -8zM379 504v20q-2 0 -6 -14q2 0 6 -6zM182 866l-2 2l-4 -14l4 -2zM422 436l-8 8v-8l6 -8zM121 956v11h-6v-11h6zM416 424l-4 8v-6l2 -8zM156 870v31h-4v-31h4zM410 430l-2 8l-5 -6v-8zM147 874v27 q-2 0 -6 -12q6 -21 6 -15zM172 825l-2 21l-2 -2l2 -19h2zM131 893v14h-4v-14h4zM115 899v0v0v0zM76 963v8h-4v-8h4zM106 924l-6 -15q0 -2 2 -7t2 -9v18q2 11 2 13zM326 514l-2 8l-2 -6l2 -8zM369 446h-4l-3 -18l3 -4zM379 412l-2 8l-2 -4l2 -8zM465 254l-2 10l-2 -6l2 -8z M485 201l-4 16l-2 -2l2 -14h4zM131 844l-4 2l-2 -15l4 -2zM145 815q0 -4 -6 -4l6 -20q0 -1 0 24zM172 731q-2 4 -2 14l-4 -12q-2 0 2 -10zM90 874l-2 9l-4 -9v-8zM367 373v10h-5v-10h5zM186 680l-4 14h-6q0 -6 3 -15t3 -15q0 2 4 16zM166 700v17h-4v-17h4zM397 285v20h-4 v-20h4zM459 168v20h-2v-20h2zM174 670l-4 20l-2 -6l4 -18zM397 276l-4 11l-2 -6l4 -9zM408 246l-2 16l-3 -2l3 -14h2zM379 313l-4 -16q4 -4 4 -12q6 14 0 28zM195 616l-2 17l-3 -2l3 -15h2zM156 702q-4 8 -13 -10q2 -6 2 -14q0 12 2 16l5 -10q0 14 4 18zM373 274q-2 8 -6 21 v-12q2 -12 2 -15q4 8 4 6zM49 836v14h-4v-14h4zM305 387l-2 6l-6 -14l2 -6zM356 270q-4 2 -6 9l-4 -15q6 0 10 6zM389 193v0v0v0zM340 276l-2 11l-2 -6l2 -9zM334 258v37h-4v-37h4zM248 399l-8 17v-8l8 -17v8zM193 502l-5 2l-2 -15l2 -4zM238 395l-2 8l-3 -6l3 -8zM180 489 q-6 6 -12 21q0 -39 2 -41q4 18 10 20zM217 412l-4 2l-2 -15l4 -2zM205 424l-2 8l-4 -6v-8zM127 553l-2 8l-4 -6v-8zM225 389q-4 -4 -8 -22l6 -15q0 25 2 37zM152 489v11h-5v-11h5zM319 186v11h-6v-11h6zM207 381v14h-4v-14h4z" />
<glyph unicode="R" horiz-adv-x="636" d="M377 29l-6 -9v11l6 8v-10zM389 10l-8 -10v10l6 8zM352 37v0v0v0zM367 6l-2 -6l-5 10l2 6zM354 20v-8l-8 6v11zM279 16q2 -10 -3 -24q-6 0 -10 22q4 -8 6 -8q5 0 7 10zM262 0h-4l-4 14l4 4zM598 1200q0 12 -2 -12q2 -10 2 -29v-8q-23 -10 -23 -47q0 -12 5 -23q-2 2 -7 6 q2 -20 -4 -36q0 16 -4 41q-2 -10 -4 -31t-2 -31q-2 8 -6 33q-2 -12 -2 -39q0 -14 6 -57q0 4 -2 14q-2 -4 -6 -10t-17 -13q4 0 -6 13q-6 -16 -16 -64q-10 2 -39 51q-2 0 -4 -6q-2 18 0 23q-2 8 -12 12q-25 49 -31 207q0 39 6 86q4 31 14 59q0 10 2 27v18q-23 31 -26 29 q-10 0 -45 -57q0 2 -4 6q-4 -20 -15.5 -59t-29.5 -123q0 -6 -2 -39q-2 -4 -5 -17q-6 -178 -6 -170q2 -156 9 -460q0 -4 -5 -33q4 -10 9 -12q0 -4 -4 -58l2 -39q2 -2 8 -12l2 -53q-10 25 -15 41l-8 -6q6 -25 11 -25q-2 -6 -5 -37l-8 -10l-4 -10q2 -6 4 -17h6q6 20 7 29 q6 -18 6 -19l-6 -8q-5 -8 -9 -8q-6 -2 -7 2t-7 23q2 -6 -4 -15q4 0 -2 15q-4 -18 -4 -23q4 -4 10 -16q-14 -2 -10 -78q-2 0 -6 -8t-7 -11q-4 -12 0 -24q-8 -25 -4 -47q-4 12 -14 39q-8 -39 -6 -62q-12 -8 -29 -18q-12 0 -18 12q0 -6 -4 -20q-4 6 -11 26q-2 -10 -10 -22 q-4 4 -12 6l-18 -2q-6 10 -17 20q-4 -2 -4 -5t-2 -3q-6 0 -14 27q-4 -10 -13 -23q-4 0 -8 27q-2 -4 -2 -27q-2 0 -4 6q-4 -10 -12 -28q0 14 -4 10q-2 4 -4 33q2 47 0 139q2 2 28 4q2 0 12.5 25.5t14.5 25.5q-4 0 6 -6q-4 -10 -4 23q0 6 8 61q10 66 13 93.5t8 205.5 q0 6 2 31.5t2 38.5q-2 162 -2 340q-10 334 -66 393q-23 25 -20 25q-2 0 -3.5 -4.5t-3.5 -4.5q-6 0 -10 15q0 4 -2 14q-4 63 -2 70q-4 10 -6 4q2 16 -2 39q0 -2 1 6t5 8q4 2 6 -6l4 12q-2 4 -6 4q2 8 10 19q4 -2 15 -4q0 -4 2 -9v-6q0 6 4 15q2 0 25.5 -11.5t33.5 -13.5 q8 6 21 -8q4 -4 8 10q18 -23 35 -20q2 0 12 8t12 8q2 -8 11 -14q0 8 4 14q4 2 17 -9.5t22 -15.5q0 6 2 13q10 -8 28 -29q-2 -78 -4 -229l4 -11q14 63 37 127q-4 0 2 -14q6 41 21 70q23 43 26 51q0 -16 -2 -17q-2 -4 4 -4q4 12 12.5 32t20.5 30q4 2 14 6q6 0 17.5 -22.5 t17.5 -22.5l8 14l7 -12q0 -2 6 -21q2 6 8 15h6q4 -23 21 -35q25 -45 38 -92q2 -10 5 -33q4 -14 16 -47zM426 84l-6 -16l-2 6l6 16zM377 66h-4v18h4v-18zM360 96l-8 -16l-2 10l8 16zM197 147h-7v11l7 2v-13zM180 180q0 -23 -2 -24q0 4 -4 16q6 0 6 8zM178 74h-4v18h4v-18z M543 1440v18h-4v-18h4zM537 1444l-5 10l-2 -8l2 -8zM504 1458v25h-4v-25h4zM481 1462v19h-4v-19h4zM578 1229h-3l-2 -23l2 -4zM543 1206l-2 8l-9 -8l3 -10zM518 1225q-2 12 -6 30q0 -6 -4 -8q4 -6 10 -22zM510 1225l-2 20l-4 -4l4 -16h2zM569 1122l-6 17q-2 -14 0 -33z M557 1102l-4 10l-2 -6l4 -10zM537 1061l-7 -14q-2 0 -5 -7.5t-5 -7.5v-26q15 28 17 55zM514 999v19l-4 -2v-19zM504 1014l-4 4l-2 -19l2 -4zM508 995l-2 11l-4 -9v-10zM520 956q-2 8 -4 21q-2 -6 -6 -10zM492 997v25h-5v-27zM506 956q-4 10 -4 23q0 -6 -2 -14q2 -7 6 -9z M485 983q-4 8 -4 29q0 -10 -4 -21q4 -6 8 -8zM147 1440l-2 12h-10l2 -12h10zM223 1204l-4 21l-4 -4l4 -17h4zM301 1063v12h-6v-12h6zM299 1026v18h-4v-18h4zM252 971l-4 10l-2 -8l4 -8zM279 791l-7 8v-11l7 -8v11zM248 788v19l-4 -2v-19zM238 803l-2 4l-3 -19l3 -4zM244 766 v27h-4v-27h4zM307 631v0v0v0zM287 657l-2 11l-2 -6l2 -11zM289 555v10h-6v-12zM309 492q0 4 -3 16t-3 16q-2 -20 -2 -41q4 5 8 9zM272 573l-4 2l-2 -16l4 -4zM293 489q-2 10 -2 23q0 -6 -4 -14q2 -7 6 -9zM231 598v10h-8v-12zM246 555l-4 18l-2 -4l2 -16zM281 481v27l-5 -2 l3 -25h2zM266 473v10q-2 6 -2 11q0 2 -4 -2q0 -3 6 -19zM324 342q-4 10 -11 25l2 -25h9zM250 459v30h-4v-30h4zM211 539v0v0v0zM283 385l-2 53h-5l3 -53h4zM289 360q-2 2 -4 11.5t-2 13.5q0 -6 -2 -20q10 -5 8 -5zM215 483q-2 6 -4 19q-2 -4 -4 -10q2 -9 8 -9zM272 391l-8 8 v-10l6 -8zM231 408v18h-4v-18h4zM276 332q-12 47 -24 63q6 -16 10 -47q-4 6 -4 -2q2 -4 12 -29q0 5 6 15zM307 258q0 27 -8 39q-2 -14 -8 -16q2 29 8 47q-4 8 -8 22q-2 -14 -10 -35l2 -59q6 0 12 -14q4 20 12 16zM256 360l-2 11l-6 -9v-10zM371 123l-4 10l-2 -6l4 -10z M205 410l-4 10l-2 -6l4 -11zM285 227l-4 21l-2 -4l2 -17h4zM403 35q-2 18 -8 45q0 -14 -4 -14l-4 12l-6 6q4 -20 -2 -37q4 -4 14 -31q-4 -2 8 -24q-6 14 -6 31q2 16 8 12zM258 276q-6 10 -12 27q2 4 8 4q-2 10 -4 27q-6 -14 -17 -39q2 -4 4.5 -12.5t2.5 -12.5q2 0 6 9 q2 -10 6 -27q0 6 6 24zM344 106l-4 11l-2 -6l4 -11zM330 135l-2 8l-4 -8v-10zM205 354h-4q2 -18 4 -18v18zM432 23l-6 18q-2 -4 -6 -8q0 12 -2 27.5t-2 21.5q-2 -18 -6 -49q-4 25 -17 71q0 2 3 6.5t5 8.5q-4 -14 -10 2q0 -8 -6 -29q-2 6 -8 17v20q2 4 8 14q-2 4 -8 3t-12 26 q-2 -27 -13 -76q-2 4 -5 8.5t-3 8.5q2 12 2 22q-2 2 -4 8q-2 -14 -8 -28q-2 0 -4 -7.5t-4 -7.5q-2 4 -9 0q-2 20 -8 54q0 -12 -4 -15q-6 20 -6 21q-4 0 -6 -10q0 -25 -2 -46q-4 10 -6 2l2 -8q0 -8 -4 -41q2 10 10 21q-2 -2 12 -6q0 16 2 20l4 -14q0 23 2 28q2 -10 6 -18 q-2 10 3 12q2 -4 3 -10t3 -10q0 14 2 20q0 -8 4 -22q-4 -12 -4 -25q6 20 10 4q-4 -12 -10 -51q4 -2 6 2t4 4q6 0 6 -39q6 20 19 62q12 -47 16 -45q14 0 12 2v-15q2 2 8 15q8 -20 7 -21q2 4 6 9q-2 10 -4 28q-2 -2 -7 2q-2 10 3 23q2 -2 16 -47q0 6 4 20q-8 -2 -10 4 q6 19 16 13zM342 84v0v0v0zM219 311q-2 16 -12 17q2 -4 10 -29q-4 10 2 12zM262 221v0v0v0zM360 37l-2 24h-4l2 -26zM301 143v0v0v0zM303 119l-2 10l-4 -10v-10zM285 219q-4 -16 -17 -35q-2 0 -10 21q-2 -16 -8 -37l-4 14q-2 -10 -2 -26q2 -4 8 -15q0 4 -4 17q2 2 12 18 q-2 0 6 -24q2 0 10 4l-6 -2q7 22 15 65zM238 240q-8 4 -9 12q0 -2 -4 -16q-2 6 -4 2q4 -6 10 -23q1 21 7 25zM180 281v18h-4l2 -18h2zM274 121q-4 6 -8 22l2 -39q0 -8 6 17zM262 102v25h-4l2 -25h2zM188 258h-4l-2 -25l4 -2zM266 92v0v0v0zM238 106l-2 60q-4 2 -9 6 q1 -56 11 -66zM250 102l-4 7l-6 -25l2 -6zM211 150l-2 10l-4 -6l2 -11zM213 106v15q-2 12 -2 16q0 -2 -6 -18q8 -3 8 -13zM227 102l-4 2l-2 -16l4 -4zM150 190l-3 13h-4v-13h7z" />
<glyph unicode="S" horiz-adv-x="595" d="M524 473q0 -119 -28 -235q-2 -16 -7 -41q-16 -57 -34 -103q-6 -10 -27 -31q-2 -8 -8 -22q-23 -23 -28 -23t-7 -4t-4 -4h-31q-2 0 -2 -6v0q0 -6 -2 -6q-20 0 -29 8l-2 -6l-12 -2q-12 0 -76 35q-8 16 -24 37q-8 8 -37 43q-14 20 -37 20q-43 0 -59 -129l-8 12q-7 11 -15 11 l-2 544q0 6 2 27v29q6 14 27 43q6 -23 8 -37q25 -231 98 -369q6 -16 39 -63t36 -47t33.5 -7.5t35.5 -7.5q-4 0 69 37q12 6 23 84q4 27 4 53q0 14 -8 39q-2 16 -11 43q-25 49 -67 82q-35 23 -68 45q-49 39 -61 51q-39 39 -72 95q-100 172 -92 397l-2 8q0 143 22 264 q18 92 54 162q8 16 24 51q14 23 25 23q2 0 6 -14q4 2 0 12q23 16 31 16q18 0 22 12q0 -12 6 -26h4q4 27 23 26q2 0 0 -6t0 -6q4 0 5 3t3 3q18 0 75.5 -67.5t68.5 -67.5q33 0 43 121q12 -4 26 14q0 -35 2 -34q2 0 2 14q2 -18 4 -49q10 -49 7 -123q2 -12 6 -12v-215 q-2 -8 -6 -27q2 -37 0 -123q-14 -29 -35 -41q-6 18 -8 49q-23 238 -127 359q-10 18 -29 36q-43 16 -53 17q-33 0 -56 -39q-29 -49 -28 -137q0 -147 104 -209q8 -6 27 -15q86 -10 157 -163q80 -170 80 -408zM379 885l-4 10l-2 -6l4 -10zM332 879v10h-6v-10h6zM367 807v24h-5 v-24h5zM446 653v13h-6v-13h6zM391 750l-2 10l-2 -6l2 -11zM399 715l-4 10l-2 -6l2 -10zM334 823v13h-6v-13h6zM360 791q-6 -2 -8 -13q-2 29 -12 82q0 -4 -2 -12v-12q2 -4 8 -21q-4 -37 -12 -55q10 0 8 -23q2 12 8 17q2 17 10 37zM143 1128l-2 13l-2 -8l2 -11zM406 621l-5 10 l-2 -6l4 -11zM426 580l-4 10l-2 -6l4 -11zM449 539l-5 2l-2 -17l2 -4zM395 596v33l-6 -17zM297 788l-2 5l-4 -19l4 -4zM362 659q0 12 -14 9q8 -43 8 -35q0 6 3 12t3 14zM455 475q0 4 -2 11.5t-2 9.5q0 -6 -2.5 -16.5t-2.5 -12.5q7 0 9 8zM334 678v24h-4v-24h4zM391 561 q2 8 -4 27q0 -6 -2 -17q2 -8 6 -10zM377 563l-4 19l-2 -4l2 -15h4zM254 784l-2 11l-8 -17l2 -8zM221 844l-4 2l-2 -17l2 -4zM184 874q4 20 0 31q-2 2 -4 2q0 -25 4 -33zM451 403h-5l-2 -22l5 -4zM340 575l-2 9l-6 -17l2 -8zM309 598l-4 4l-2 -16l2 -4zM217 778q-2 -4 -4 -4 q-8 0 -10 31q0 2 0 -41q-2 0 -3 4t-3 4q-6 0 -9 -35q4 8 9 -6l4 14q0 -14 10 -40q0 6 2 18q-4 2 4 55zM182 770h-2l-4 -22l4 -5zM449 264v19h-5v-19h5zM135 829l-2 5l-4 -19l4 -4zM170 729v10h-6v-10h6zM162 731l-2 27l-4 -2l4 -25h2zM152 739v31h-5v-31h5zM141 721l-2 12 l-4 -6l2 -12zM137 705l-2 20l-4 -4l4 -16h2zM317 59l-8 9v-11l6 -8zM254 125l-2 10l-2 -6l2 -10zM264 72v16q-2 12 -2 14q0 -6 -4 -14z" />
<glyph unicode="T" horiz-adv-x="542" d="M436 170l-4 -14l-4 4l4 12zM387 127q-2 0 -6 6q4 6 4 10q0 -10 2 -16zM399 88l-4 -6l-2 8l2 6zM393 96q-4 -6 -8 -22q0 2 -2 5t-2 9q0 16 8 16zM352 104h-4v15h4v-15zM328 141q4 0 -13 0l9 21q0 -4 2 -11.5t2 -9.5zM328 129l-6 -6v8l4 6zM311 137h-4v19h4v-19zM295 164 l-2 -8l-4 4l2 8zM301 143h-8v11h8v-11zM291 104l-2 -6l-6 6l2 7zM299 70h-4v24h4v-24zM274 80h-4l-2 16l4 4zM207 141h-4v15h4v-15zM506 338q0 -8 -6 -45t-21 -98q0 -63 -55 -134q-6 -8 -21 -22q-31 -23 -47 -23q-4 0 -26.5 -2t-24.5 -2q-27 0 -33 2q-18 8 -43 45 q-2 14 -6 19q-61 98 -57 303q-10 125 -4 145v293q-2 4 -6 4q4 289 -60 289q-2 0 -10 -3t-12 -3q-16 0 -27 8q-8 80 -8 103q0 16 2 24q6 -10 10 -10q2 0 20.5 12t26.5 17q8 -4 29 -3q31 18 57 86q6 18 15 62q37 233 43 233l20 -2h31q4 0 13 -4t12.5 -4t19.5 -12v-19 q-8 -8 -4 -28q16 -139 12 -305q2 -12 4 -19q20 6 72 6q2 0 14.5 5.5t14.5 5.5q23 0 22 -72q0 -47 -19.5 -47t-52.5 -4q-14 -2 -30.5 -32t-14.5 -63q-8 12 -14 9q4 -12 12 -31q-2 -4 -4 -9t-4 -7l2 -39q2 2 6 4v-51q0 8 -4 26q-4 -8 -4 -16q0 -6 5 -18.5t5 -18.5t-4 -12v-256 q14 -10 4 -84v-170q4 -8 4 -6q4 -29 2 -72q29 -86 37 -86q18 0 29 65q4 35 6 68q10 51 10 63q2 0 8.5 3.5t10.5 3.5q14 0 28.5 -23.5t14.5 -48.5zM332 1528q-6 6 -2 16q-6 -4 -11 -12q3 -4 13 -4zM328 1503l-4 8l-2 -6l4 -8zM238 1565l-5 8l-2 -6l5 -8zM262 1503l-4 8l-2 -6 l4 -8zM317 1405v8l-6 -6v-8zM436 1159v19h-6v-19h6zM412 1202l-4 8l-2 -4l2 -8zM422 1161v8h-6v-8h6zM268 1446l-4 2l-4 -14l4 -2zM295 1362v10h-6v-10h6zM391 1188v8h-8v-8h8zM295 1346v12h-4v-12h4zM313 1317v8h-8v-8h8zM264 1401l-6 6l-2 -6l6 -8zM283 1358v8h-7v-8h7z M309 1307v8h-6v-8h6zM336 1239l-6 18l-4 -4l6 -18zM369 1176l-2 4l-5 -15l5 -2zM348 1208l-4 2l-2 -14l2 -2zM297 1290l-4 8l-2 -4l2 -8zM360 1169l-4 7l-6 -19l4 -6zM336 1190v18h-4v-18h4zM317 1227v0v0v0zM328 1186q-4 10 -4 33q-10 -12 -11 -19q0 -8 3 -14l3 -6q3 4 9 6 zM258 1303v20h-4v-20h4zM348 1153q-4 20 -10 21q-6 -12 -8 -13q4 0 18 -8zM264 1296v9h-6v-9h6zM301 1217v18h-4v-18h4zM285 1251l-9 6v-6l7 -8zM328 1167l-2 9l-9 -7v-8zM360 1104l-4 8l-2 -4l2 -8zM264 1272l-2 6l-4 -6v-6zM256 1278q0 12 -4 35q-4 -6 -4 -31l-4 4 q0 -12 -4 -12q12 4 16 4zM266 1260l-2 8l-2 -6l2 -7zM315 1188l-8 -12q8 -4 4 -11q4 7 4 23zM297 1202v0v0v0zM354 1114q-10 10 -14 29q0 -2 2 -8v-9q-4 -12 -14 -34q4 8 8 20q4 -10 4 -16l6 10l2 -4zM328 1124v0v0v0zM285 1202l-4 8l-2 -4l4 -8zM301 1174l-2 6l-6 -6v-7z M289 1186q-2 6 -10 6q2 -2 4 -9t2 -9q2 4 4 12zM348 1061v14h-4v-14h4zM336 1090l-4 2l-4 -19l4 -4zM305 1128q-4 23 -2 29q-2 -8 -6 -20v-13.5v-11.5zM260 1192l-4 8l-2 -4l4 -8zM326 1065l-2 16l-5 -4l3 -12h4zM264 1169l-4 17l-4 -6l6 -15zM317 1073q-6 14 -4 29 q2 0 -8 4q0 -23 6 -45zM328 1063l-2 2l-4 -12l4 -4zM219 1229v8h-6v-8h6zM291 1116l-2 8l-10 -18l2 -6zM211 1245l-2 8l-4 -6v-8zM334 1016q4 12 2 14q-6 2 -10 8v-18q2 0 6 4zM258 1128v25q-6 0 -6 -10v-15h6zM248 1151l-4 8l-2 -6l4 -6zM289 1081q-6 16 -19 41 q-2 -2 -5 -12t-3 -12q8 -6 12 -27q2 2 3.5 7t3.5 7q2 -4 8 -4zM289 1067v0v0v0zM264 1116l-6 8l-2 -8l6 -6zM307 1040l-8 35q-4 -23 -14 -31q-4 8 -4 25q-4 -4 -13 -12l25 -25q-8 6 -4 8q2 0 5 4.5t5 4.5q-2 -1 8 -9zM311 1026l-4 4l-4 -18l2 -4zM252 1120l-2 2l-4 -12l4 -4 zM254 1104v0v0v0zM233 1141l-4 8l-2 -6l4 -6zM221 1188q-2 -4 -6 -2q-4 -10 -16 -27h8q2 0 2 4t2 4q4 0 3 -2t3 -2t4 25zM221 1149v14h-4v-14h4zM260 1083q-2 2 -4 7q0 -18 -2 -23q2 8 6 16zM293 1016v0v0v0zM182 1221l-10 6v-8l8 -7zM244 1110q-4 0 -8 6q0 -2 2 -11t2 -11 q0 4 4 16zM248 1094l-2 8l-4 -4l2 -8zM305 995l-14 -12h10q0 10 4 12zM195 1176l-9 12q0 -2 2 -12.5t2 -12.5q3 5 5 13zM346 958q-6 16 -6 29q-2 -2 -4 -10q-6 14 -10 6q-2 2 -7 4h-4q-4 -8 -10 -24l-4 4t-4 6q-2 -4 -3 -13.5t-3 -11.5q4 -2 8 -12q2 12 8 20q6 -14 17 -14 q-4 -8 -2 -37l4 4q-2 0 10 -10q4 10 8 23v28l-6 -4q-2 0 -2 6q2 8 2 11q-4 -1 8 -5zM287 1008l-2 8l-9 -6v-9zM276 1026q-10 18 -12 18q-4 -2 -6 -8q4 0 8 4q0 -6 10 -14zM240 1073v8h-7v-8h7zM311 932l-2 20l-4 -4l2 -16h4zM268 1006v0v0v0zM283 973q0 8 -9 24q0 -4 -6 -8 q7 -4 15 -16zM332 889l-4 -4t-4 -2q4 -2 6 -9q0 5 2 15zM322 903l-5 12q-4 -2 -6 -8q0 -8 6 -22q5 6 5 18zM225 1063l-2 8l-4 -4l4 -8zM295 940l-4 8l-2 -6l2 -8zM307 913v9l-10 6v-8zM342 874q-6 -12 -12 0v-12q-2 -10 -2 -14q2 0 5 5t7 5t2 16zM256 1004q-2 4 -10 4l8 -21 q2 4 2 12v5zM346 842l-6 -4q4 0 -6 8q6 -10 6 -23q2 2 4 9.5t2 9.5zM293 928q-6 4 -10 14q-6 -12 -9 -12q1 -2 19 -2zM229 1032l-6 19l-4 -4l6 -19zM199 1071v19h-4v-19h4zM252 969v18q-14 18 -19 21q0 -4 -2 -17v-24q21 0 21 2zM332 848q-4 -4 -25 10q0 10 -3 27.5t-3 19.5 q-4 -4 -4 8q0 -8 -2 -32v-35q-6 -8 -6 -23q4 -2 10 0q6 4 8 4t6 -8t6 -8t7 12q6 -12 2 -12q4 0 4 14v23zM217 999v29h-4v-29h4zM338 780q0 33 0 31q-6 0 -4 -18q0 -5 4 -13zM180 1079l-4 2l-2 -14l2 -2zM270 915q-4 -2 -6 -8q2 -4 4 -12q0 32 2 20zM254 938v23 q-8 -10 -14 -11q6 -20 4 -30h-8q8 -4 10 0q6 14 8 18zM328 795q-6 2 -6 10v-19q4 1 6 9zM188 1038v9l-6 -7v-8zM264 899l-8 19l-2 -7l8 -18zM291 850l-6 14q0 -18 -6 -30q6 6 12 16zM350 731v0v0v0zM319 776q-4 6 -8 15q2 -16 6 -37q0 6 2 14v8zM184 1008l-4 6l-2 -4l4 -9z M283 825v0v0v0zM309 774l-4 8l-2 -6l2 -6zM250 887q-6 10 -6 16q-4 0 -8.5 -4t-4.5 -12l2 -8q0 6 7 16q2 -8 10 -8zM205 954v9h-6v-9h6zM291 793v18h-4v-18h4zM340 727q-6 10 -10 0q0 -2 2 -9t2 -9q0 2 2 9t4 9zM330 707l-2 8l-4 -4l4 -9zM170 991v8h-12v-8h12zM262 813v23 l-6 12q-4 0 -6 4q0 -8 4 -16q0 -2 -4 -5.5t-4 -7.5q4 0 16 -10zM213 920q-4 -4 -12 -15q2 -6 8 -16zM295 741l-8 19v-12q0 -7 8 -7zM217 883v8h-6v-8h6zM283 764q0 10 -9 27q-4 -12 -4 -25q2 -2 9 -8q2 2 4 6zM315 698v15h-4v-15h4zM240 836q-4 4 -2 12q-8 -8 -9 -21 q3 7 11 9zM176 940v8h-6v-8h6zM254 799v10h-6v-10h6zM213 864l-2 21l-4 -2l4 -19h2zM336 649l-4 4l-2 -14l2 -2zM268 756v14h-4v-14h4zM238 825q-2 0 -4.5 -2t-6.5 -2l6 -14q1 12 5 18zM289 709v14h-4v-14h4zM174 918v10h-6v-10h6zM334 629l-4 8l-2 -4l2 -8zM199 866l-4 8 l-2 -4l4 -8zM338 612v13h-4v-13h4zM223 821v8h-8v-8h8zM301 709q-16 0 -22 -9q2 -4 4 -12q2 4 6 4t8 -8q0 2 2 11.5t2 13.5zM233 803l-2 6l-6 -12l2 -6zM281 707v8h-9v-8h9zM260 727l-8 8q0 16 2 29q-4 4 -4 10q-4 0 -6 -2t-4 -2q6 -16 6 -25q0 -14 8 -30zM197 842l-4 8 l-3 -6l5 -8zM342 580q-4 16 -12 20q0 -6 -4 -8q10 0 16 -12zM301 643v12h-4v-12h4zM340 565l-10 6v-8l8 -6zM332 580h-6l-2 -31h4zM340 543v8h-8v-8h8zM279 651l-3 6l-4 -4l4 -8zM190 805v0v0v0zM256 696q-4 2 -6 6q0 -12 -4 -24q4 10 10 18zM225 743l-8 9l-2 -9l8 -8z M276 623v18h-4v-18h4zM178 799v10h-6v-10h6zM285 618l-4 3l-2 -13l2 -4zM254 668l-4 4q0 -4 -2 -13q4 5 6 9zM336 502l-2 8l-6 -6v-8zM297 553v20q0 4 -10 17q0 6 10 -37zM463 276v9l-10 -9v-8zM283 584v8h-7v-8h7zM240 666q-8 8 -9 20q0 -39 0 -37q-3 13 9 17zM256 625v8 h-6v-8h6zM307 528l-4 17l-4 -4l4 -13h4zM322 514l-5 4l-6 -12l4 -4zM248 635v8h-8v-8h8zM272 580l-6 26l-2 -4l4 -22h4zM276 559l-2 16l-4 -4l4 -12h2zM297 524v13h-4v-13h4zM334 477q-6 0 -10 25q0 -2 -2.5 -11.5t-4.5 -13.5q-6 10 -6 17q0 -2 -4 -13q-6 12 -6 -4 q2 -4 6 -10q0 6 4 14q4 -8 0 -18h21q2 -2 2 14zM258 580q-4 16 -12 41q0 -10 -6 -23q4 2 18 -18zM283 528v19h-4v-19h4zM330 449v8h-6v-8h6zM238 618l-2 3l-5 -13l5 -4zM289 494v0v0v0zM236 588l-5 8l-2 -4l4 -8zM193 645v8h-7v-8h7zM283 502h-4l-3 -19l3 -2zM211 625h-4 l-2 -23h4zM334 379v22v-12h-6q2 0 6 -10zM426 221v8h-6v-8h6zM303 459q-4 2 -6 8q-8 -4 -8 -18q0 -8 2 -15v-10q4 6 7 18.5t5 16.5zM287 465v8h-11v-8h11zM246 512v25l-13 26l-6 -12q8 0 9 -4v-12q2 0 6 -5q2 -12 4 -18zM213 588l-2 2l-4 -12l4 -5zM197 604l-2 8l-7 -6v-8z M270 446q0 37 -2 56q0 -10 -2 -31q-4 8 -12 21q12 -36 16 -46zM240 516v8h-7v-8h7zM301 410l-8 12l-2 -8l8 -13zM326 369q-2 12 -13 6q6 -2 6 -13q3 7 7 7zM285 422v0v0v0zM197 578v8h-9v-8h9zM279 428v8h-9v-8h9zM248 475l-2 8l-6 -6v-8zM301 375q-2 6 -5 17t-3 18l-4 -25 l4 -4q-2 -8 -8 -21q2 -4 2 -12q2 2 6 11.5t8 15.5zM229 489v11h-6v-11h6zM279 410l-3 6l-6 -13l2 -6zM219 494l-4 18l-2 -2l2 -16h4zM209 508l-2 14l-4 -2l2 -12h4zM252 442q-4 10 -8 19v-41q0 2 3 11t5 11zM270 403l-8 9v-9l6 -6zM369 225l-2 4l-5 -14l5 -2zM338 256l-2 14 l-4 -2l2 -12h4zM346 238v8l-6 -6v-9zM287 342v-20q2 -10 2 -5q2 0 2 5q-2 6 -1 8t-3 12zM227 432v0v0v0zM248 391v0v0v0zM242 399l-9 7v-9l9 -6v8zM193 475v8h-7v-8h7zM293 295v8l-8 -6v-8zM217 422v10h-6v-10h6zM274 313q-4 2 -4 11q0 -4 -8 -5q-4 0 12 -6zM336 207h-4 l-2 -17l2 -4zM299 250v14h-4v-14h4zM233 383h-4l-2 -18l2 -3zM287 260v14h-4v-14h4zM313 217l-4 8l-2 -6l4 -8zM221 377l-4 2l-2 -14l2 -3zM264 270q-8 18 -8 35q-4 -20 0 -35h8zM203 365v12h-6v-12h6zM209 342l-2 6l-6 -6v-6zM268 223v6l-6 -6v-6zM250 248l-4 8l-2 -6l4 -6 zM301 184q-16 18 -12 19q0 16 -4 18q-12 10 -13 12q0 -29 7 -34q0 -2 -2.5 -3t-4.5 -3l-4 10q4 0 -6 -6q4 -10 14 -37q-4 -6 -4 -23q0 18 9 15q-6 14 -2 14v8q0 6 2 8q18 0 20 2zM225 299l-2 2l-6 -22l4 -5zM205 307v19h-4v-19h4zM193 326l-5 8l-2 -6l2 -9zM227 166l-2 6 l-2 -4l2 -8z" />
<glyph unicode="U" horiz-adv-x="708" d="M219 145l-2 -18l-2 4l2 16zM670 100q-8 -70 -21 -129q-2 -2 -10 -2l-225 27q-4 8 -4 22q0 8 7 77t7 77v35q-10 -16 -49 -123q-27 -76 -47 -76h-68q8 0 -18 12q-33 10 -56 43q-16 25 -47 164q-6 29 -10 109q-6 119 -6 158l12 538v23q-2 12 -2 14q-2 -12 -2 47 q-2 217 -45 291q0 2 -43 45q-4 23 -4 37q0 104 18 104l199 -18q-2 0 31 -10q10 -2 16 -19q-6 -113 -10 -305q0 -39 -2 -151q-2 -96 -2 -154q0 -139 -2 -178q0 -10 2 -70q-4 -51 -4 -67q0 27 6 -252q0 -33 14 -111q18 -90 33 -90h6q2 0 29 49q59 106 59 442v390q0 74 -16 184 q-2 20 -6 39q-8 53 -31 108q-10 29 -14 29t-3.5 -3t-1.5 -3q-20 0 -22 53v119q4 6 16 6q-2 0 8 6q6 2 7 -6q10 4 18 10q8 0 14 -16q12 -4 13 2l37 10q154 14 141 15v0l-2 -218q0 20 -4 -124q0 -70 -6 -211v-594q2 -20 2 -47q0 -41 2 -52q12 -92 16 -118q16 -94 41 -115 q14 -4 27 -23h2zM485 1456v19h-2v-19h2zM500 1294v0v0v0zM532 1202h-6q0 -4 2 -18q0 16 4 18zM467 1255l-2 11l-2 -6l2 -11zM473 1180l-2 18l-2 -4l2 -14h2zM477 1159l-6 8v-10l4 -8zM276 1419v13h-4v-13h4zM492 1030l-3 10l-2 -6l2 -10zM477 981l-2 18l-2 -2l2 -16h2z M537 893h-5l-2 -23l5 -4zM549 760v10h-6v-10h6zM512 817q-2 8 -2 25l-6 -17q2 -8 8 -8zM256 1239v31h-4v-31h4zM209 1337l-2 9l-6 -15v-10zM524 729v19h-4v-19h4zM504 778l-4 4l-2 -16l2 -4zM246 1139v30h-4v-30h4zM479 696v19h-2v-19h2zM518 610v19h-4v-19h4zM246 1094v16 h-4v-16h4zM201 1112v33h-4v-33h4zM461 653l-2 11l-2 -7l2 -10zM510 541v12h-8v-12h8zM223 1034v17h-2v-17h2zM553 457l-4 10l-2 -8l4 -8zM537 399v25q-6 -12 -7 -25q5 8 7 0zM463 473v23h-4v-23h4zM471 432l-4 17v8q-2 4 -2 8q-2 -21 6 -33zM535 248v18h-5v-18h5zM205 831 l-2 11l-2 -6l2 -11zM246 758q-2 6 -6 6q-4 2 -7 -4q-2 -6 11 -25q0 15 2 23zM551 197l-4 4l-2 -17l4 -4zM219 762q0 12 -6 26v-30q0 18 6 4zM516 252q-6 -10 -10 -8q-2 0 10 -17v25zM555 137q-2 6 -4 17l-4 -17h8zM526 172v10h-6v-10h6zM197 772q-10 0 -13 -6q2 4 6 -10z M518 156v24h-4v-24h4zM479 223q-2 4 -5 15.5t-5 13.5q6 -33 4 -45zM215 664l-2 26l-2 -4l2 -22h2zM231 616v39q-6 -12 -12 -37q-4 0 8 -8q0 29 0 27q4 -15 4 -21zM207 625q-6 10 -12 18l-5 -18q2 2 5 4l6 -13q2 5 6 9zM211 578v22v16q-4 -12 -8 -30zM258 496h-4l-2 -31h2z M246 500l-4 6l-4 -23l2 -8zM397 205l-4 10l-2 -6l4 -10zM236 477v10l-7 -8v-10zM250 442l-2 11l-2 -7l2 -10zM182 545l-2 8l-6 -16l2 -9zM180 442v11h-6v-11h6zM260 248v49q-4 6 -16 33q0 14 2 47h-8q-2 -37 -23 -37q-2 0 -8 -2h-8q0 -6 -2 -21v-20q0 -23 14 -53 q-2 -18 -8 -49q14 45 12 45q12 0 14 -2q6 -10 7 -23v-14l6 6q4 -10 8 -19q0 27 4 50v6q2 -2 6 4zM227 266q2 29 0 39q-10 -25 -7 -24.5t-3 -18.5q6 16 10 4zM229 209v16h-2v-16h2zM223 369l-2 -17l-2 4l2 17z" />
<glyph unicode="V" horiz-adv-x="751" d="M371 84h-9v10h9v-10zM715 1520q0 -59 -2 -97q-18 -14 -47 -49q-43 -80 -60 -143q-6 -20 -14 -64q0 -12 -2 -34q-4 -10 -12 -33q4 -29 -3 -29q2 0 -4 8q0 -41 -8 -78q6 -35 -6 -53q0 -20 -8 -60t-14 -46q2 -4 8 -2v-25q-4 -31 -15 -55q-2 -47 -22 -156v-26q-6 -33 -19 -93 q2 -2 2 -8q0 -23 -6 -35q-4 -41 -16 -96q0 -10 -14 -113v-20q-8 -82 -29 -205q-6 0 -20.5 -7t-18.5 -7h-23q-16 4 -36 35q-6 29 -27 204l-53 437q-20 129 -53 385q-27 203 -78 293q-14 4 -41 16q-12 6 -31 35q-4 47 -4 80q0 129 31 129h321q4 0 7 -7.5t8 -7.5l2 11q6 4 26 4 q12 0 15 -60q2 -76 4 -82v-22q-4 -12 -20.5 -12t-20.5 -7q-25 -18 -33 -94q-2 -23 -8 -63q2 -6 8 -6q4 -39 20 -220q12 -111 29 -284q0 -8 4 -15q10 -80 17 -149q0 -4 2 -6t4 -6q4 86 24 241q0 10 13 127q12 80 24 162q23 150 23 188q0 53 -15 95q-6 12 -16 24q-16 6 -47 25 q0 6 -8 147q2 8 2 15l184 -13q-2 0 4 11q6 4 21 4q25 0 38 -9q-1 -54 13 -79zM578 1182v10h-7v-10h7zM537 1085v19h-5v-19h5zM528 1057l-4 10l-2 -8l4 -8zM344 1335q-2 2 -6 16.5t-6 16.5q-6 -39 -6 -31q0 2 2 2q-6 0 6 -30q6 36 10 26zM299 1364v16h-4v-16h4zM215 1479 q-6 -2 -8 0t-4 -15q2 -6 2 -20h6q0 15 4 35zM369 1141l-4 4l-3 -17l3 -4zM260 1311v18h-4v-18h4zM301 1208l-4 11l-2 -7l2 -10zM512 815v16h-4v-16h4zM207 1354l-6 16l-4 -6l6 -16zM281 1206q0 12 -5 37v-24q-2 -18 -2 -25q1 6 7 12zM248 1245v17h-4v-17h4zM340 1067l-4 6 l-4 -16l2 -6zM123 1440v10h-6v-10h6zM188 1280v12h-10v-12h10zM197 1270l-2 8l-7 -8v-8zM240 1178l-2 20l-5 -4l5 -16h2zM358 932l-2 10l-4 -8v-10zM381 903q-14 0 -12 0q6 -6 6 -20q0 4 6 20zM487 672l-6 24l-2 -6l6 -24zM233 1120q-4 12 -12 37q0 -61 0 -59q4 -1 12 22z M362 881v24q-10 -14 -14 -14q6 -8 14 -10zM397 801q0 4 -2 16t-2 14h-8q4 -12 12 -30zM221 1102l-4 10l-2 -6l2 -10zM303 907q-2 10 -12 39v-33zM334 858l-2 10l-4 -8l4 -8zM307 866l-2 8l-4 -8v-8zM373 672v12h-6v-12h6zM260 864l-4 10l-2 -6l2 -10zM391 600l-4 10l-2 -6 l2 -10zM305 766h-8q-2 -8 -4 -18zM313 721v18h-4v-18h4zM344 674l-2 10l-6 -8v-10zM426 522l-6 8l-2 -8l6 -8zM365 606v10l-11 9v-13zM354 612l-4 11l-2 -7l4 -10zM326 670l-4 6l-9 -23l2 -6zM328 602v23q0 -4 -3 -7.5t-3 -7.5q2 -6 6 -8zM301 672l-4 4l-6 -31l4 -4z M313 618v13h-6v-13h6zM375 489q2 16 -2 46h-11q6 -29 6.5 -36.5t6.5 -9.5zM365 553q0 6 -5 22q-12 -20 -16 -40q-2 6 -2 20q-8 -25 -2 -59l4 14q4 0 10 -8q0 6 5.5 23.5t5.5 27.5zM385 418v24h-4v-24h4zM403 350q0 6 -2 21q-2 -4 -5 -9.5t-5 -7.5q4 -6 4 -16q2 6 8 12z M377 375v10h-6v-10h6zM418 307l-4 4l-2 -16l2 -4zM377 268v0v0v0zM356 301l-4 4l-2 -18l4 -4zM395 188l-6 25l-2 -6l6 -25zM342 299l-6 18q-2 -4 -4 -12t-2 -10q6 -18 6 -21q0 21 6 25zM414 182q-2 2 -8.5 4t-8.5 4q0 -6 -4 -20v-37q4 -4 4 -14q4 12 0 35q5 10 17 28z M410 156l-4 4l-3 -19l5 -4zM362 236q-4 4 -8 14q2 -16 6 -39q2 13 2 25zM389 133v25h-6v-25h6zM373 162v12h-6v-12h6zM358 154v16h-4v-16h4zM334 186v17h-4v-17h4z" />
<glyph unicode="W" horiz-adv-x="835" d="M549 115h-6v12h6v-12zM526 84h-4v25h4v-25zM299 139h-2l-4 17l4 4zM797 1546q0 -41 -4 -143q-10 -6 -9 -6q-2 0 -8 20q-2 -8 0 -18q-16 -27 -45 -94q-8 -25 -18 -72q-10 -98 -37 -266q0 -20 -10 -113q-10 -100 -17.5 -100t-11.5 -4q12 -35 12 -41q0 -39 -10 -64 q-4 2 -4 10q2 2 0 9q-14 -27 -14 -66q4 -72 4 -76q-4 6 -9 6v-20q-8 -4 0 -19q-2 2 -6 5q0 2 0 -43q-2 -4 4 -5q4 0 4 7l-45 -410h-6q-4 0 2 -20q-4 0 -6 6l-6 -17q4 -12 4 -30q-4 12 -4 -9l-6 15q-6 -6 -4 -13h-17q-10 -2 -12 -2q-8 0 -20 29l-66 670q4 -12 6 -4v14 q0 10 -4 10q4 0 -4 -6q-4 41 -14 135q-10 -25 -17 -108q-6 -92 -16 -144l-4 -12q0 -10 4 -10q-4 -35 -10 -45q8 -53 -13 -144q0 -10 2 -18q-6 -72 -18 -180q-23 -186 -33 -187h-32q-4 0 -4.5 7.5t-4.5 7.5q4 0 -6 -6q-4 27 -4 38q-4 2 -8 52q-14 63 -12 114h-2l-88 809 q-12 111 -23 224q-14 125 -51 202q-4 10 -33 31q-2 4 -4 14v127q12 23 41 21q55 0 45 -2q18 4 25 4q-2 0 18 -4q29 -2 82 -6q4 0 13 -9.5t13 -9.5q2 0 7.5 7.5t9.5 7.5q12 0 16 -17q-2 -33 4 -94q6 12 2 57v17q2 16 2 28q31 8 58 9q23 0 84 -13q70 -12 137 -16q2 -14 2 -57 q0 -53 -4 -70q-6 -2 -19.5 -12.5t-27.5 -75.5q-12 -57 -12 -94q0 -59 -5 -76q2 -2 11 2q6 -98 24 -270q-8 0 -10 -7q0 2 8 -12q6 -39 6 -96q2 -2 6 -8q8 -102 9 -103q0 -31 -9 -47q4 -25 15 -57q8 47 4 47q-2 0 4 -8q2 23 -2 45l61 583q4 31 -12 113q-6 33 -20 53 q-12 14 -25 29q2 41 6 121q27 0 80 -3t54 -3t2 -6.5t6 -6.5q2 0 11 10.5t13 10.5q15 0 25 -29zM653 1509l-2 4l-4 -18l4 -4zM616 1481q-2 0 -2 24q-8 -25 -8 -24h10zM629 1448v12h-6v-12h6zM440 1538l-2 10l-2 -6l2 -10zM682 1004l-2 12l-4 -8l4 -11zM369 1548v19h-4v-19h4z M377 1528v18h-4v-18h4zM518 1210l-2 11l-4 -9v-10zM444 1303v24h-4v-24h4zM508 1194l-2 12l-4 -6l2 -10zM348 1466q0 2 -6 19q-2 -6 -2 -19h8zM293 1534v25h-4v-25h4zM410 1348h-2l-5 -23l5 -4zM498 1130v19h-4v-19h4zM641 870q0 6 -2 21q-2 -6 -6 -12q6 -3 8 -9zM543 1040 l-2 11l-4 -9v-10zM432 1227l-4 24q-4 -6 -14 -20v-27q4 10 8 29q4 -14 2 -14zM293 1470h-2l-4 -22l4 -4zM440 1178q2 8 -4 26q0 -6 -2 -18q2 -6 6 -8zM225 1540q2 25 -4 29q-4 2 -10 -2v-15q2 -8 2 -12h8q0 6 2 14q2 -8 2 -14zM293 1423l-2 11l-4 -9v-10zM498 1044 q0 2 -2 13v10q-4 -4 -11 -39q7 4 13 16zM627 807l-2 10l-4 -8l4 -10zM465 1075v19h-2v-19h2zM539 942l-4 12l-3 -8l5 -10zM623 782v19h-5v-19h5zM420 1098v0v0v0zM274 1331v12h-6v-12h6zM551 840v12h-6v-12h6zM268 1333l-2 10l-4 -8l4 -8zM541 848l-4 10l-2 -8l4 -10z M467 942l-2 12l-2 -8l2 -10zM422 1018v12h-6v-12h6zM614 682l-4 4l-2 -18l2 -4zM418 1018l-4 2l-2 -16l2 -5zM565 709q-4 6 -10 6q2 -4 2 -17q2 5 8 11zM106 1509l-2 13l-2 -9l2 -10zM401 977q-6 8 -8 27q-18 152 -39 327q-6 29 -18 84q-8 27 -23 64q-20 -84 -20 -90 q0 -27 -2 -35l-2 -8q4 -70 18 -222q10 -96 29 -272q4 -59 12 -162q-2 0 -2 -18q2 8 4 -4.5t4 -30.5q14 115 47 340zM573 647v12h-6v-12h6zM612 563v17q-2 12 -2 16q-2 -12 -6 -33h8zM254 1198v27h-4v-27h4zM541 686l-6 8l-3 -10l7 -8zM72 1485h-4l-2 -25l4 -4zM301 1044v13 h-6v-13h6zM582 516v37h-4v-37h4zM551 580q-2 2 -4 3t-4 3q2 -4 2 -17q2 7 6 11zM182 1243h-10l6 -18q2 6 4 18zM541 580l-4 12l-2 -8l4 -11zM193 1198l-9 8v-10l9 -8v10zM555 512v12h-10v-12h10zM508 594l-4 10l-2 -6l4 -10zM537 528v25h-5v-25h5zM571 481l-2 6l-6 -16l2 -6 zM494 594l-2 10l-3 -6l3 -10zM524 520v10l-12 -16v-8zM588 387v0v0v0zM217 1030v12h-6v-12h6zM457 590l-2 20l-4 -4l2 -16h4zM526 457q0 10 -2 23.5t-2 19.5q-2 -12 -4 -31q8 -4 8 -12zM150 1120v13h-5v-13h5zM315 815v27h-4v-27h4zM182 1059l-2 10l-4 -4l2 -12zM213 999h-4 l-2 -47h4zM580 299l-5 4l-2 -18l2 -4zM565 303v19h-4v-19h4zM553 317v39q-4 4 -4 15q-2 -4 -5 -10.5t-5 -10.5q-2 16 -9 19v-31q2 -14 3.5 -14t9.5 -3.5t10 -3.5zM244 874l-2 3l-4 -17l4 -4zM506 383l-4 10l-2 -8l4 -10zM377 594q-6 10 -6 8v29q-2 -8 -4 -23.5t-5 -17.5 q7 0 15 4zM547 262v19h-2v-19h2zM526 289l-4 20l-2 -4l2 -16h4zM319 678h-4l-2 -25l4 -4zM297 680v18h-4v-18h4zM356 596q-4 -4 -8 -16l4 -19q4 10 4 35zM547 225h-8v-8q4 -2 8 8zM229 778v0v0v0zM293 672l-2 8l-8 -14l2 -11zM289 641l-4 4l-2 -18l4 -4zM223 727v18h-4v-18 h4zM332 532v13h-8v-13h8zM520 186v19h-2v-19h2zM502 201q0 12 -2 18l-6 -24q2 2 4 3t4 3zM199 733v19h-4v-19h4zM367 420v18h-5v-18h5zM514 176q0 -6 -2 -10q-2 6 -2 2q0 -8 2 -23q2 6 2 31zM246 639l-2 6l-6 -24l4 -7zM258 614l-4 2l-2 -16l2 -4zM365 391v19h-5v-19h5z M305 487l-6 9v-11l6 -8v10zM332 430l-2 10l-2 -6l2 -10zM266 541l-2 10l-4 -8v-11zM328 416l-2 2l-4 -17l4 -4zM279 524q0 -18 -9 -41q2 -6 6 -10v27q3 18 3 24zM262 522l-6 8l-2 -10l6 -8zM311 438h-4l-2 -32h4zM360 342h-4l-2 -23l2 -4zM215 557v18h-4v-18h4zM287 436 q-2 8 -6 23q0 -10 2 -25.5t2 -21.5q2 12 2 24zM274 420q-2 23 -6 65q-4 -2 -6 -8q6 -39 6 -33q-4 -14 0 -26q0 6 2 14q0 -6 4 -12zM268 395v13h-6v-13h6zM254 350v33h-4v-33h4zM274 295v10l-6 -8v-10zM291 190q-8 -12 -8 -30q6 8 6 6q0 24 2 24zM279 150l-5 -5l-6 13 q0 -6 -2 -13l-4 13q0 -49 -2 -33h6q9 11 13 25z" />
<glyph unicode="X" horiz-adv-x="661" d="M602 63h-6v11h6v-11zM487 25h-4v18h4v-18zM479 16q0 -8 -2 -14l-4 4l-4 4l2 25q0 -5 8 -19zM623 80l-2 -21q0 2 -5 7q-2 -6 2 -19q-4 0 -12 -51q-20 0 -26 29q-8 -23 -9 -23q-2 0 -4 4t-5 4t-10 6.5t-9 6.5q-4 0 -10.5 -10.5t-10.5 -10.5l-10 29q-8 -29 -4 -29 q-4 0 -8 -3t-6 -3q-4 0 -5 6v0q0 8 -2 8q-4 0 -10 -12q-2 -2 -9 1t-9 3q4 18 -10 23q-2 -8 -3 -29q-8 20 -8 10q0 12 -8 25q-2 -8 0 -19q-6 0 -12 19l-6 -21q-4 6 -15 6q-2 0 -3 3.5t-3 3.5q-6 0 -2 -13q-6 12 -12 13q-2 0 -2 -21q-14 29 -23 29q-6 0 0 -19q-2 0 -6 5.5 t-8 5.5q-2 0 -6 -3.5t-8 -3.5q-10 0 -15 21q-6 -27 -8 -27q-4 0 -4 6.5t-4 6.5q-2 0 -4 -6.5t-4 -6.5t-3 6.5t-2 6.5t-14 8v88q25 2 39 2q4 0 13.5 28.5t11.5 47.5q4 53 4 71q0 -14 -45 336q-16 -51 -43 -145q-35 -131 -49 -197q0 -12 -4 -39q12 -63 32 -82q6 -8 33 -14 q0 4 0 -82q-20 -16 -20 -35q-10 6 -11.5 6t-3.5 7.5t-4 7.5t-6 -10.5t-8 -10.5q-2 0 -5 3t-5 3q-4 0 -12.5 -3t-10.5 -3t-9 3t-11 3q4 0 -2 21l-9 -21q-2 4 -10 15q-2 -6 -2 -21h-8l-4 13q-8 -12 -37 -13q-8 0 -10 29q-8 2 -9 -27q0 10 -3 10.5t-7 4.5t-8 4t-3 8t-1 45 q-2 33 0 49q4 23 2 29q61 20 104 168q2 2 11 10q25 88 82 250q18 41 34 108q-10 59 -34 183h6q-12 41 -25 98q6 0 10 12q-6 12 -16 13v22q-25 119 -49 238q-33 147 -68 190q-16 10 -41 47q6 18 4 55t1 52.5t14 15.5q41 0 78 -4q12 -2 32 -4q8 0 21 -12q2 6 2 12q39 0 51 -2 h139v-113q0 -31 -16 -31q-2 0 -7 4.5t-7 4.5q-6 0 -21.5 -16.5t-15.5 -67.5q0 -49 49 -359q18 68 57 201q31 100 29 100t4 -6q4 20 4 45q0 2 -6 56q-2 8 -8 22q-23 31 -35 31q-2 0 -8 -7.5t-10 -7.5q-2 39 -3 125q12 14 19 15h74q2 0 0 -6t2 -7q2 0 3 6.5t3 6.5q16 0 20 -21 q2 6 2 13q25 2 49 2q25 -4 48 -23v-31q0 2 -5 -14q-2 -25 -2 -104q-2 -10 -6 -11q-4 0 -8 13q2 4 2 6q-4 4 -6 4t-5 -11.5t-8 -11.5t-9.5 -7t-6.5 -7q-4 0 -3 4t-1 4q2 0 -4 -20q-2 2 -4 12q-8 -10 -6 -25q-10 -23 -16 -30l-105 -322h-4q-27 -100 -27 -94q0 -8 4.5 -28.5 t4.5 -24.5q8 -37 24 -101q-4 -41 -4 -59q0 -37 27 -133q14 -49 28 -101q8 -39 33 -172q10 -39 32.5 -100t29.5 -61q20 0 28 -9q11 -14 17 -67zM608 1589q-4 -4 -6 -10q2 -8 2 -25q4 10 4 35zM571 1509v13h-8v-13h8zM528 1503l-4 10l-2 -6l4 -10zM487 1444v18h-4v-18h4z M500 1384q-4 4 -4 15q-2 -4 -2 -25q4 2 6 10zM518 1333q-4 14 -12 15q2 -4 2 -17q2 4 10 2zM358 1499q0 4 -2 17v16q-4 -2 -8 -16q0 -2 4 -7.5t6 -9.5zM328 1544l-2 4l-4 -18l4 -4zM340 1518q-2 2 -4 8l-6 -17q2 -6 2 -18zM313 1438v24h-4v-24h4zM272 1483v12h-6v-12h6z M309 1350q-4 2 -8 16q0 -68 -2 -55q6 31 10 39zM424 1118l-2 4l-4 -18l4 -4zM213 1468l-4 11l-2 -6l4 -11zM299 1272l-4 4l-2 -19l4 -4zM268 1311q-6 4 -6 26q-6 -29 -2 -55q2 4 2 14.5t2 14.5q2 -8 4 0zM416 1044l-2 11l-6 -19l2 -8zM215 1339v19h-4v-19h4zM256 1268l-2 10 l-4 -8v-10zM242 1278v0v0v0zM195 1339v25h-2v-25h2zM350 1055v28q0 -8 -4 -8q4 -8 4 -20zM360 1049q-4 2 -4 10q0 -10 2 -29q0 7 2 19zM244 1257q-4 6 -11 -8l-2 -4l2 -6q7 6 11 18zM307 1133h-8q2 0 2 -19q2 7 6 19zM225 1280h-4l-2 -23l2 -4zM211 1280v10h-6v-10h6z M362 999q-2 0 -10 23v-27q8 0 10 4zM375 965q0 4 -6 22q0 -8 -7 -24q11 0 13 2zM328 1034l-4 13l-2 -9l4 -10zM193 1255v19h-5v-19h5zM319 1006v12h-6v-12h6zM313 1010q0 14 -2 20l-8 -16q2 -4 10 -4zM299 1040l-4 4l-2 -18l4 -4zM348 967q-6 -16 -14 -54q14 1 14 54z M301 1008q2 0 -12 12q2 -4 2 -25q0 4 4 6.5t6 6.5zM309 977l-6 18q0 -4 2 -18v-16q2 6 4 16zM319 950v13h-6v-13h6zM262 1044l-2 21l-4 -4l4 -17h2zM369 860l-4 2l-5 -31l2 -4zM227 1087l-2 9l-6 -19l2 -6zM354 860l-2 2l-4 -16l4 -4zM330 877q4 27 -2 41q-6 -10 -6 -35z M289 944l-2 10l-2 -6l2 -10zM295 938h-4l-2 -23l2 -4zM342 821q0 20 -2 45q2 18 -2 25q-8 -20 -23 -62h15q0 18 2 21q4 -13 10 -29zM307 895v12h-6v-12h6zM299 891l-2 20l-4 -4l2 -16h4zM373 774l-2 6l-6 -24l4 -6zM322 817l-5 4l-2 -18l2 -4zM272 881l-8 24l-2 -6l6 -25z M250 899v19h-4v-19h4zM334 764h-2l-2 -25l2 -4zM295 801v18h-4v-18h4zM391 596l-2 10l-6 -8v-10zM434 502l-4 4l-2 -19l2 -4zM406 535q-2 12 -3 24q0 -4 -3 -12t-3 -12h9zM377 555q0 6 -6 20q-2 -6 -2 -18q6 2 8 -2zM348 608q-4 2 -6 8q0 -6 -4 -16l6 -16q2 2 2 11t2 13z M356 571q-6 2 -6 23q0 -12 -2 -23h8zM426 461l-2 4l-2 -19l2 -4zM315 625v10l-6 -10v-11zM446 397q-4 14 -10 17v-27q6 10 6 -6q2 6 4 16zM463 346v19h-4v-19h4zM354 545v12h-6v-12h6zM330 590l-8 8v-10l6 -8zM342 573q-8 4 -10 -2q2 -6 2 -16q4 4 8 18zM387 475q0 -6 -6 41 q4 16 2 45q-4 -29 -8 -33q0 -20 -8 -24l-1 -6t-6 -6q0 -8 3.5 -15.5t3.5 -13.5q-4 -8 -7 0q0 -20 -4 -31q2 -6 6 -10q2 10 6.5 34.5t6.5 35.5q0 -10 2 -29q6 4 10 12zM485 301q-4 4 -10 8q0 -10 6 -26q2 6 4 18zM502 248q0 20 -6 20q2 0 -11 -10q4 -4 2 -16l7 6q6 4 8 0z M479 281l-6 16l-2 -6l4 -19zM580 98l-5 11l-2 -7l5 -10zM553 160l-4 4l-4 -25l4 -4zM346 512l-2 10l-4 -8v-10zM406 403q-6 23 -9.5 25t-3.5 35q-10 -35 -8 -35q-2 0 -1 4t-3 4l-8 -26h16q-4 -10 2 -17l4 15q2 -4 3 -10.5t1 -10.5zM514 195l-2 4l-4 -25l2 -4zM555 106l-2 11 l-4 -8v-11zM457 272v13h-6v-13h6zM469 268q-6 -16 -14 -16q4 -12 -2 -31q6 2 8 -2q2 16 8 49zM332 475l-8 12v-10l6 -12zM393 362l-4 5l-2 -19l4 -4zM369 381v27q0 -2 -7 -17q3 -8 7 -10zM510 104l-4 13l-2 -8l4 -11zM408 274v11l-7 -9v-10zM459 174v0v0v0zM489 119l-4 10 l-2 -6l4 -10zM420 238l-4 10l-2 -6l4 -11zM412 242v24h-4v-24h4zM477 123l-6 18q0 -25 -4 -24q4 2 6 4t4 2zM393 272l-4 13l-2 -9l4 -10zM377 268v27h-2v-27h2zM416 203l-4 10l-2 -6l4 -10zM393 201q0 10 -3 23.5t-3 15.5q-2 -6 -2 -23.5t-6 -17.5q2 0 -4 -15q-2 10 -6 19 v-47q0 8 10 8q6 0 6 -14q2 6 4 10q0 2 -2 20q0 2 3 6.5t3 14.5zM420 102v25h-4v-25h4zM340 244v12h-6v-12h6zM395 117v0v0v0zM379 127l-2 10l-2 -8l2 -10zM369 115l-2 35l-5 -5l5 -30h2zM170 168l-2 10l-2 -6l2 -10zM131 172l-4 21l-2 -5l2 -16h4zM160 92l-4 10l-2 -8l4 -10 zM150 98v13h-7v-13h7zM66 147l-5 11l-2 -6l4 -11zM59 135q0 25 -6 6q-6 20 -6 -30q0 -23 6 -39q0 14 3 34.5t3 28.5z" />
<glyph unicode="Y" horiz-adv-x="692" d="M258 98h-6v11h6v-11zM131 233l-6 -16l-2 8l4 15zM653 1507q-6 2 -12 2q-59 0 -100 -209q-4 -31 -15 -88q-33 -209 -112 -657v-25q-27 -145 -52 -292q-37 -184 -83 -211q-6 -4 -22.5 -19.5t-20.5 -15.5q-2 0 -4.5 6t-4.5 6t-12 -6t-14 -6q-14 0 -37 28q-8 6 -23 23 q-43 86 -43 209q0 178 54 213q25 16 22 16q6 0 32.5 -39t33.5 -57q10 -39 16 -90q0 2 -2 -12q4 -10 4 -27q0 -8 -5 -47t-5 -47q0 -43 18 -43q43 0 43 157q0 78 -133 834q-41 236 -45 254q-35 154 -76 154q-8 0 -14 -5q-2 14 -2 52q0 45 6 67l352 6q6 0 7.5 -11t4.5 -45 t3 -42v-20q-10 2 -37 -4q-2 -2 -9.5 -11.5t-9.5 -9.5q-4 0 -5 8t-3 10q-4 -12 -2 -34q-18 -45 -18 -142q0 -43 20 -213q4 -20 12 -65q10 -51 43 -309q2 6 5 16q35 266 53 369q2 29 18 118q12 80 13 131q0 20 -7 60q-6 53 -30 67q-39 20 -39 21v92q6 14 16 14h158 q4 -6 14 -16q23 -14 47 -14v-47q2 -36 2 -54zM367 578q-2 14 -9 34l-4 -12l-4 12q-4 0 -10 -23.5t-6 -35.5l6 6l10 -24v16q0 12 6 33zM309 569l-4 9l-2 -5l4 -10zM307 557v0v0v0zM342 410l-6 8l-2 -8l6 -9zM307 434v23h-4v-23h4zM225 389l-4 4l-2 -16l2 -4zM199 360v0v0v0z M193 346l-5 27h-4l4 -27h5z" />
<glyph unicode="Z" horiz-adv-x="622" d="M410 96h-7v10h7v-10zM586 645q4 -35 -11 -67q0 6 0 -152v-190q-2 -125 0 -191q-6 -18 -4 -27q-10 -25 -24 -24l-447 14q-4 0 -14 -7t-14 -7q-12 0 -31 16l-2 15v22q0 23 57 291l5 30q5 31 24 95q0 16 2 35l92 442q57 256 121 524q-4 20 -23 19q-14 -4 -28 -6 q-6 0 -23.5 2t-25.5 2q-55 -203 -152 -580q-45 20 -45 100q0 -2 2 129.5t2 188.5v115q2 84 2 120q0 14 6 48q18 18 37 18l422 -8h31q23 0 33 -15q0 -4 2 -11t2 -9l-306 -1407q0 -23 7 -23q96 0 98 -2l149 576q18 -18 48 -51q-2 -33 0 -39zM530 1548h-10q0 -10 -4 -22 q4 -2 6 -10q2 16 8 32zM494 1368v12h-7v-12h7zM496 1343l-2 9l-7 -9v-10zM403 1374v12h-14v-12h14zM457 1206v19h-4v-19h4zM383 1217l-2 2l-4 -17l4 -4zM352 1219l-6 8l-2 -8l6 -11zM424 1081l-6 9l-2 -11l6 -8zM406 1083v13h-11v-13h11zM332 1208v0v0v0zM403 1047v26h-4 v-26h4zM319 1118v12h-8v-12h8zM152 1323q0 8 -3.5 17.5t-5.5 15.5q0 -10 -6 -29v-18q2 0 7.5 7t7.5 7zM365 909q-8 6 -23 17q6 -20 20 -45q-1 30 3 28zM338 893l-2 10l-6 -8v-10zM369 831l-2 9l-7 -9v-10zM322 934q-6 0 -17 -8q6 -18 12 -19q5 0 5 27zM373 807v12h-8v-12h8z M344 770l-4 21l-4 -5l4 -16h4zM287 698l-4 11l-2 -9l4 -8zM248 598v39h-6v-39h6zM485 166l-4 10l-2 -8l2 -10zM475 166l-4 10l-2 -8l2 -10zM254 559q-4 4 -12 16q0 -10 8 -34q0 6 4 18zM219 481l-4 6l-2 -12l4 -6zM264 360l-10 11v-11l8 -8zM238 393l-5 2l-4 -16l4 -4z M197 432l-4 6l-7 -16l4 -8zM203 397q0 6 -2 18.5t-2 14.5q-6 -18 -6 -33h10zM205 379v12h-8v-12h8zM182 369q2 8 -4 26q0 -12 -4 -33q4 3 8 7zM211 221l-6 17l-2 -7l6 -18z" />
<glyph unicode="[" horiz-adv-x="1310" d="M934 154q0 -14 -16.5 -48t-26.5 -40q-55 -25 -105 -25q-39 -6 -114 -16q-84 -6 -277 -7q-186 0 -297 13q-16 0 -16 49q0 51 38 62.5t77 21.5q31 12 39 59q6 39 6 203l-11 623q-6 94 -22 280q-4 39 -49 75t-88 34q0 4 -3 18t-3 23q0 31 24 59q51 10 207 16q74 2 213 9 q51 2 166 16q106 12 108 12q41 0 72 -26.5t31 -63.5q0 -8 -9.5 -28.5t-19.5 -20.5q-6 0 -68.5 18.5t-68.5 18.5q4 0 -100 -41q-49 -12 -99 -25q-70 -18 -102 -53q-12 -12 -14 -51q-2 -14 -3 -150l11 -718q-8 -20 -8 -60q0 -92 34 -172q43 -96 111 -96q41 0 219 27 q16 2 68.5 28.5t58.5 26.5q37 0 37 -51z" />
<glyph unicode="\" horiz-adv-x="784" d="M94 1278q18 -8 33 -8q14 0 57 28l27 -43l-2 -30q12 -2 24 -11l23 -34q-16 -6 -4 -60q14 -6 41 -22l424 -709q-4 -4 -7 -15.5t-14 -17.5q-8 -4 -32 4q-33 8 -54 35q-51 74 -231 361q-160 254 -186 297l-125 209z" />
<glyph unicode="]" horiz-adv-x="1310" d="M260 170q0 -14 17.5 -48t25.5 -38q55 -25 107 -27q39 -6 112 -16q84 -6 277 -6q186 0 297 12q16 2 16 49q0 51 -37 62.5t-78 23.5q-29 10 -39 58q-6 39 -6 202l11 623q6 94 22 281q4 39 49 74.5t88 33.5q0 4 3 18.5t3 22.5q0 31 -22 59q-53 10 -209 17q-74 2 -213 8 q-51 4 -166 16q-106 14 -108 15q-39 0 -71 -28t-32 -64q0 -8 9.5 -29t19.5 -21q6 0 68.5 18.5t68.5 18.5q-2 0 100 -41q49 -12 101 -24q68 -18 100 -54q12 -12 17 -51v-149l-11 -717q8 -20 8 -61q0 -92 -34 -172q-43 -96 -111 -97q-41 0 -217 27q-18 2 -70.5 28.5 t-58.5 26.5q-37 0 -37 -51z" />
<glyph unicode="^" horiz-adv-x="1005" d="M512 1473q-8 -10 -45 -60l2 84l2 92q59 -94 186 -268q14 -4 56 -49q-6 -20 -15.5 -43t-29.5 -31q-12 -12 -26.5 -17t-29.5 -5q-27 0 -44 24.5t-13 52.5l-94 140q-29 -43 -88 -136q0 -27 -17.5 -51t-42.5 -24q-14 0 -30 10q-12 2 -23 16q-2 0 -10 4q-18 27 -19 52 q0 59 72 69l-12 -26h20q0 76 70 180q-14 18 -23 39v37l23 22q39 -31 45 -24l-41 28q12 8 25 10q23 16 43 13q39 20 63 -10h10q35 -33 35 -62q-4 -55 -49 -67z" />
<glyph unicode="_" horiz-adv-x="1234" d="M1149 4q-29 -18 -31 -43q0 -2 2 -45h-51l-25 16q12 -18 -20 -16h-41q2 18 -51 33q-12 -8 -39 -23l-827 2q0 6 -8.5 14.5t-8.5 20.5q0 8 21 25q25 25 57 26q90 8 428 15q299 6 350 6h244v-31z" />
<glyph unicode="`" horiz-adv-x="804" d="M362 1536q45 -41 134 -117l-37 -6q72 -6 90 -37l24 -100q-59 -4 -71 -2q-31 6 -49 45q-16 12 -62 49l-59 51l-8 -4q-31 25 -41 35q-16 20 -19 51q-2 8 -2 19q0 20 39 79q47 -43 61 -63z" />
<glyph unicode="a" horiz-adv-x="659" d="M602 61q0 -4 -8 -26q-2 4 -3 13t-3 13h14zM154 129l-2 -6l-5 10l3 6zM621 96q0 -68 -7.5 -81t-27.5 -13q-2 0 -32 3t-36 3t-23.5 8.5t-21.5 10.5q-18 -2 -53 4q-20 8 -42 88t-26 141l-28 -102q-25 -82 -33 -82q-33 -53 -58 -53h-24q-2 0 -8 5l-6 5q-51 14 -74 37 q-41 45 -64 157q-4 16 -12 49q-6 57 -6 160q0 172 37 297q10 14 26 45q23 45 58 86q41 49 55 74q39 59 78 119q55 100 55 213q0 88 -49 192q-16 37 -61 37q-33 0 -53.5 -32.5t-20.5 -67.5q0 -18 6 -38t23 -61q4 -16 10 -49q10 -51 10 -102q0 -10 -2 -8t-2 0q0 -59 -2 -80 q-4 -43 -19 -78q-6 -10 -24 -37q-25 -33 -33 -33q-2 0 -9 3.5t-10 3.5t-42 84q-4 49 -17 124v60q0 49 8 110q10 74 27 125q61 197 164 197q23 0 22 -18q4 -4 7 8q0 2 3 -4.5t7 -6.5q2 0 5 10.5t5 10.5t10 -6t11 -6h8q6 0 4 10q4 -18 8 -19q2 0 5 4.5t5 4.5q8 0 31 -11 q41 -14 78 -104q41 -98 51 -221q6 -68 6 -158q0 -6 -2 -74q-2 -76 -2 -116q2 -68 0 -205q-6 -168 -6 -150t6 -108q10 -225 53 -258q25 -16 47 -33q7 -11 7 -74zM461 1190l-4 10l-2 -6l4 -10zM381 1298l-2 2l-4 -16l4 -4zM401 1128v0v0v0zM434 1001q-2 -2 -4 -10l4 -16 q4 14 0 26zM387 1047l-2 4l-6 -33l4 -4zM395 1004v18h-4v-18h4zM383 877v0v0v0zM459 653l-2 11l-6 -9v-10zM481 551v10h-8v-10h8zM78 1221v18h-4v-18h4zM498 350v25h-4v-25h4zM387 559l-6 10v-10l4 -8zM616 131v27h-4v-27h4zM389 487l-2 5l-2 -17l2 -4zM442 375l-2 10l-4 -8 v-10zM410 424l-7 20q-2 -6 -2 -20h9zM348 1083q-18 -59 -51 -149q-78 -170 -92 -350q-6 -63 -6 -107q0 -80 6 -139q2 -27 16.5 -80t20.5 -53h16q27 0 53 78q29 86 29 184q0 12 3 40t3 36zM416 369v10l-6 -8v-11zM168 795l-2 12l-2 -8l2 -11zM477 186v31h-4v-31h4zM406 328 l-3 10l-6 -8v-11zM426 176l-4 10l-2 -6l2 -10z" />
<glyph unicode="b" horiz-adv-x="634" d="M596 573q2 -80 -8 -155q-10 -31 -27 -96q0 -41 -2 -123q0 -4 -10 -27q-2 -2 -41 -63q0 -14 -2 -39q-16 -35 -53 -52l-4 -8q-29 -14 -91 -28h-16q-25 -2 -82 32q-8 10 -29 31q-18 12 -34 12q-14 0 -29.5 -38.5t-30.5 -38.5q-4 0 -39 -3q0 96 6 168q0 6 3.5 21.5t3.5 17.5 v103l10 256l-2 88q2 16 2 47v33.5v27.5v488q0 -2 2 4q0 31 -19 180q-4 37 -32 62q-2 39 -23 40q-6 16 -10 50q0 -6 2 53q0 16 16 16l238 -18l-8 -277v-10q-2 -8 -2 -10q-4 -33 -13 -98q0 -20 -2 -66l2 -55q14 20 29 41q6 39 6 67q6 8 23 23q37 23 57 22q35 0 90 -37 q0 -4 4 -47q0 -2 3 -6t3 -16q23 -25 52 -80q2 -2 6 -8q2 -12 6 -45q8 -14 16 -39v-84q6 -33 15 -96q14 -116 14 -220zM223 1520l-2 18h-2v-18h4zM467 827l-4 2l-2 -8l4 -2zM461 670v6h-6v-6h6zM188 1090v8h-4l2 -8h2zM424 745q0 4 -2 43t-2 43l-2 132q-4 16 -10 49 q-2 16 -5 43q-2 18 -20 38.5t-29 20.5q-18 -2 -43 -27q-16 -16 -20 -38q-14 -84 -15 -109l3 -109q0 -4 -3.5 -21t-3.5 -19l-2 -373q4 -43 11 -129q-2 -39 2 -107q8 -47 43 -80q0 -8 3 -21t3 -20q4 2 24 0q-2 8 2 22.5t4 20.5q2 0 17 21q8 10 24 41q4 20 7 135q0 8 4 53 q4 23 8 90z" />
<glyph unicode="c" horiz-adv-x="602" d="M440 229h-4v19h4v-19zM154 254l-2 -8l-5 10l3 8zM565 1184q-6 -16 -6 -58q0 -6 -4 0q0 -10 2 -26v-25q0 -68 -23.5 -141.5t-44.5 -73.5q-4 0 -5 -7t-4 -7t-19.5 -3t-20.5 -3q-18 0 -49 98q-2 4 -10 85t-8 99q0 123 35 185q0 2 26 30q18 16 19 43q0 39 -32 76t-71 37 q-29 0 -53 -49q-43 -92 -53 -248q-4 -125 -8 -252q-4 -117 -5 -213q0 -96 2 -166q4 -78 29 -258q6 -27 29.5 -77t34.5 -50q2 0 14 -3t14 -3q12 0 35 41q4 12 10 31q10 6 27 30q18 53 53 160q12 74 19 135q10 113 24 113q12 0 25 -31q-2 -25 2 -37q2 6 6 13v-45q0 -6 -8 -115 q-4 -72 -27 -158q-10 -45 -43 -135t-39 -90q-2 0 -1 6t-3 6q2 0 -8 -18q0 -6 2 -12q-2 -2 -25 -2q-8 0 -22 -41l-4 12q-6 -16 -6 -23q0 -2 4 -3t4 -5q-4 -2 -57 -2q-39 0 -80 23q-4 4 -15 14q-66 57 -129 283q-59 211 -59 483q0 223 18 344q8 45 29 123q14 61 49 170 q74 193 189 192q27 0 77 -41q25 -18 72 -71l19 -51q23 -57 57 -181q2 -16 6 -43v-35q0 -20 3 -20t7 -10zM385 1532v10h-8v-10h8zM516 1255v19h-4v-19h4zM500 1110l-2 10l-2 -6l2 -10zM502 1059v24h-4v-24h4zM252 1511l-2 11l-4 -6l4 -11zM289 1436v10l-13 8v-10zM463 1108 l-4 4l-2 -16l2 -4zM250 1477q-4 2 -8 6q2 -4 2 -17q2 7 6 11zM434 1124l-4 11l-2 -9l2 -10zM262 1415v12h-8v-12h8zM399 1069l-4 10l-2 -6l4 -10zM463 946v12h-6v-12h6zM410 1008l-4 10l-3 -6l5 -11zM395 1020v0v0v0zM180 1403l-4 10l-2 -8l4 -8zM186 1374v12h-8v-12h8z M233 1290l-10 8v-10l8 -8zM158 1403v10l-6 -8v-10zM217 1247l-2 10l-6 -8v-10zM141 1331v25q-6 0 -12 -33l8 20q0 -6 4 -12zM162 1288l-2 10l-8 -16l2 -10zM170 1190v0v0v0zM147 1190q0 31 0 24q-4 -4 -6 -12q6 -2 6 -12zM152 1171l-5 11l-2 -6l5 -11zM156 1137l-2 10l-4 -6 l4 -11zM184 1083v11l-6 -9v-10zM88 1198v12h-6v-12h6zM221 940v10h-6v-10h6zM199 932v12h-6v-12h6zM139 952v13h-12v-13h12zM459 274v11l-6 -9v-10zM160 729v10h-6v-10h6zM88 840l-8 10v-10l8 -9v9zM178 647v12h-10v-12h10zM61 823l-6 17q0 -4 -2 -13.5t-2 -13.5q4 2 10 10z M152 635l-2 10l-7 -8v-10zM72 745v25q-2 0 -9 -14q5 -7 9 -11zM188 494v18h-4v-18h4zM90 674v12h-8v-12h8zM180 502v18h-4v-18h4zM195 389v10h-7v-10h7zM197 360v13h-7v-13h7zM84 457v12h-6v-12h6z" />
<glyph unicode="d" horiz-adv-x="675" d="M559 -16l-6 -9v9l6 6v-6zM496 49l-2 -4l-5 6l3 6zM90 340v0v0v0zM639 43q0 -8 -12 -80q-2 0 -6 -6q0 16 -5 20q-4 -8 0 -12q-4 -10 -10 -12q0 2 2 10v10q-6 10 -10 11q-6 -10 -14 -21q-2 0 -15.5 5t-19.5 5q-27 6 -182 23q-2 4 -9 14q0 6 13 148l-6 12q-4 -72 -31 -124 t-53 -52q-4 0 -7 4l-4 -10h-10q-55 0 -118.5 124t-86.5 269q0 2 6 16q-2 2 -8 4q-14 47 -14 160q0 63 4 154q4 27 10 80q16 147 62 256q12 35 37 92q23 31 45 57q10 10 40.5 24.5t26.5 14.5q59 0 84 -74q6 -8 14.5 -34.5t24.5 -73.5q-2 47 -12 141q0 45 -8 135 q-4 27 -13.5 79t-38.5 75q-12 4 -39 18q-6 61 -6 62q0 18 4 24q31 27 64 27q4 0 29 -57q10 27 34 61q4 2 22.5 -3t25.5 -5q18 0 54 7l36 7q29 0 28 -59q0 -6 -4 -56q-4 -57 -4 -75q-10 -176 -10 -244v-147q0 -4 -2 -16.5t-2 -18.5q0 -51 -2 -121q0 -6 -2 -24.5t-2 -26.5 v-486q0 -70 24 -190q12 -49 60 -68q16 -6 16 -53zM559 1587l-6 -6q4 0 0 14h-8q4 -14 12 -34v14q2 8 2 12zM508 1595v11h-8v-11h8zM414 1403l-11 24l-2 -6l11 -22zM322 1554l-3 9l-4 -7l4 -6zM479 1112l-4 8l-2 -6l2 -8zM442 1085v9h-4v-9h4zM442 1012v10h-4v-10h4zM438 950 l-4 8l-2 -6l4 -6zM494 731l-5 8l-2 -4l5 -8zM492 721q0 -4 -9 -23q4 -2 6 -6q3 9 3 29zM428 674l-2 8l-2 -4l2 -8zM428 664v0v0v0zM463 569v11h-6v-11h6zM518 410l-2 6l-2 -4l2 -9zM492 428v10h-5v-10h5zM133 1016q-4 4 -8 14q0 -12 -4 -18zM158 961l-2 8l-2 -6l2 -7z M217 842l-4 8l-2 -6l4 -8zM379 811q0 70 -14 176q-39 121 -50 121q-35 0 -55 -80q-10 -43 -31 -192l2 -496q4 -49 11 -135q2 -12 20.5 -44t26.5 -32q-6 0 18 16q2 -6 4 -10q18 31 43 101q20 106 23 266v270v19q2 14 2 20zM98 778v0v0v0zM158 588v6l-6 -6v-8zM207 481l-4 8 l-2 -6l2 -6zM70 674v8l-11 6v-8zM154 436l-2 17l-2 -4l2 -13h2zM104 512l-2 8l-2 -4l2 -8zM166 403v9h-10v-9h10zM88 514l-6 8l-2 -8l6 -6zM150 393l-3 2l-2 -14l2 -2zM121 328l-2 24h-4l2 -24h4zM80 385l-10 6v-8l8 -6zM70 395l-4 6l-3 -8l7 -6v8z" />
<glyph unicode="e" horiz-adv-x="587" d="M549 858q0 -92 -41 -92l-225 27q-18 10 -43 20h-27q-2 -4 -2 -16q0 -8 2 -34t2 -36q6 -256 31 -436q4 -41 25.5 -81t35.5 -40h17q41 0 96 160q47 141 61 262q2 14 11 37l25 -12.5t22 -30.5q0 -18 -4.5 -54t-14.5 -100q-18 -152 -74 -285q-51 -123 -92 -141 q-33 -14 -45 -14h-59q-27 0 -76 84q-109 182 -129 534q-6 123 -6 176q0 264 45 492q55 268 147 313q37 18 60 19q10 0 24.5 -4t22.5 -4q37 0 102 -134q33 -68 60 -190q12 -43 28 -131q21 -185 21 -289zM369 932q0 111 -17 366q-20 166 -63 166q-55 0 -68 -387 q-2 -39 -6 -145q80 18 88 18q11 0 66 -18zM190 1362v18h-4v-18h4zM186 1370l-8 8v-10l6 -8zM178 870v17h-4v-17h4z" />
<glyph unicode="f" horiz-adv-x="538" d="M500 1413q0 -143 -84 -143q-53 0 -65.5 104.5t-26.5 104.5q-18 0 -19 -78q0 -66 12 -111q8 -25 33 -60.5t39 -35.5h66q-10 -18 0 -72q-20 -4 -45 -10t-39 -35q-35 -68 -37 -252q-2 -201 -2 -278q0 -51 2 -154q-2 0 -6 -6q0 -4 6 -4q0 -10 4 -53q4 -29 -2 -39 q4 -25 12 -74q27 -104 66 -104q2 0 3 2t3 2t33 -99q-12 -29 -21 -28q-4 0 -26.5 6t-28.5 8q-47 6 -96 6l-146 -4q-2 0 -27.5 -8t-27.5 -8t-2 5t-4 5q-2 0 -2 -5t-4 -5q-2 0 -11.5 7t-12.5 10t-5 18v20q0 49 12 55q35 16 45 29q35 41 49 141q10 84 17 260q2 27 2 140 q0 303 -23 387q-16 63 -55 63q-2 0 -13.5 -2t-13.5 -2q-10 0 -16 10q0 35 2 70q2 53 14 53q2 0 26 -8t26 -8q35 0 43 61q2 35 8 103q8 78 47 141q33 57 67 72q47 18 121 18q-8 0 21 -10q8 -2 24 -8q58 -62 58 -197zM96 4v8h-12v-8h12z" />
<glyph unicode="g" horiz-adv-x="634" d="M502 279l-2 -5l-2 9l2 4zM246 289l-2 -4l-2 8l2 6zM596 1417q0 -39 -6 -82t-19 -65q-20 -39 -34 -39q-2 0 -9 8q-6 0 -18 4q-4 2 -12.5 13.5t-10.5 11.5q-12 0 -12 -29q0 -8 7 -34.5t10 -35.5q12 -84 12 -161q0 -145 -49 -254q-45 -98 -97 -99q-2 0 -19 -6t-22 -6 l-122 12q-18 0 -19 -41q0 -57 49 -57q2 0 46 13.5t65 17.5q14 4 51 0q47 -4 39 -4q4 0 37 -19.5t47 -36.5q43 -49 59 -147q10 -68 11 -115q0 -113 -25 -186q-2 -10 -6 -33q-10 -33 -21.5 -49t-40.5 -25q-12 -2 -24 -2l-326 27q-2 0 -10 -3t-10 -3t-12.5 15.5t-16.5 19.5 q-6 18 -15.5 31.5t-29.5 86.5q-6 16 -6 60q0 86 45 110q-41 70 -41 152q0 2 6 72q10 111 98 178q-43 66 -57 100q-31 72 -33 154q-6 16 -6 61q0 90 10 168q10 72 49 152t70 92q18 12 51 29q10 2 93 2q2 0 10 -7.5t14 -9.5q29 -2 51 -41q37 -70 41 -74q0 182 37 261v-17 q6 6 7 6t5 9l-4 8q0 -2 -4 -4q23 27 43 26q6 0 27 -26q47 -64 47 -189zM387 981v14h-4v-14h4zM391 930l-2 8l-2 -6l2 -6zM350 1085q0 47 -4 105q-4 45 -22 100q-23 63 -45 64q-33 0 -52 -123q-12 -86 -12 -154q0 -94 6 -192q6 -90 41 -135q0 -2 12 -2q76 -1 76 337z M104 1153l-4 8l-2 -6l2 -8zM92 1006v8h-6v-8h6zM172 854v8h-6v-8h6zM129 930v0v0v0zM383 479l-4 8l-2 -4l4 -8zM399 403l-2 9l-2 -6l2 -7zM358 483l-4 4l-2 -14l2 -4zM170 737v15h-2v-15h2zM133 813l-10 10v-26v16h10zM365 358l-5 4l-2 -14l4 -4zM389 295v8l-10 6v-8z M238 475l-2 8l-5 -6v-8zM211 420v8h-6v-8h6zM272 305v0v0v0zM166 481v15h-2v-15h2zM162 358v0v0v0zM309 57q10 0 62 13q92 23 92 86q0 49 -55 49q-23 0 -62 -9.5t-43 -9.5q-20 6 -41 15q-39 10 -61 6q-4 0 -29 2q-14 2 -18 -12q-14 -16 -27 -41q-2 -76 76 -93q6 -2 106 -6z M375 352q35 8 35 76q0 55 -39 55q-12 0 -36 -7t-30 -7q-53 2 -104 -8v0q-8 -18 -19 -47q0 -82 62 -82q12 0 36.5 4t34 4t60.5 12z" />
<glyph unicode="h" horiz-adv-x="698" d="M143 33l-8 -6v8l8 6v-8zM659 39q0 4 0 -39q-8 -16 -12 -16q-4 -2 -43 9t-41 11l-194 -12l-2 117q2 4 8 10q18 -4 33 67q10 55 10 97q2 6 6 16q4 63 4 82v287q-2 156 -10 256q0 12 -2 34q-18 117 -51 115q-53 -2 -70 -194q0 -4 -8 -285q2 -4 4 -191q14 -141 20 -172 q16 -96 49 -116l2 -103q-6 -16 -10 -16l-223 6q-2 0 -17.5 2t-21.5 2q2 8 -2 8q-2 -4 -8 -10q2 0 -4 14q-4 -12 -4 -8q-4 8 -6 8q-4 0 0 -8q-8 8 -9 39q-2 55 4.5 63.5t33 23t34.5 91.5q4 35 14 101q6 96 4 362v92l3 2q-2 -6 -3 27q0 66 -2 195q0 14 9 26q0 8 -9 8 q0 88 -10 228q-4 57 -12 108q-16 88 -39 109q-12 2 -35 10q-10 8 -10 64q-2 59 8 59l240 -6q10 2 14 -43l-16 -557q14 41 43 121q4 12 24 47q4 6 25 14q41 18 57 18q84 6 103 -114q4 -2 8 -6q35 -111 37 -256l-4 -344q6 -291 49 -369q0 -2 18 -19q12 -12 12 -34q2 -4 2 -31z M279 1573v10h-7v-10h7zM283 1309q-6 14 -15 43q0 -2 -2 -9.5t-2 -11.5q4 2 15 -22q-6 -14 -13 -39q7 14 17 39zM471 907l-2 8l-2 -6l2 -6zM526 760l-2 10l-6 -2v-8h8zM516 748v18h-4l2 -18h2zM315 1034l-2 25q-4 -8 -4 -19zM467 764l-2 6l-4 -6v-6zM532 649l-2 6l-6 -6v-8z M473 711v8h-6v-8h6zM508 635v8h-6v-8h6zM532 532l-2 9l-2 -4l2 -9zM254 1010l-2 16l-2 -4l2 -12h2zM475 623v8h-8v-8h8zM164 1137l-4 8l-2 -6l4 -6zM500 528v7l-4 -7v-8zM438 594v10l-8 -2v-8h8zM270 858v10l-8 -2l2 -8h6zM217 772l-8 8v-6l8 -10v8zM209 750v18h-4v-20z M197 651l-4 8l-3 -4l5 -8zM225 596v10h-6v-10h6zM469 109v0v0v0zM256 401l-2 9l-2 -4l2 -9zM266 350l-2 8l-2 -4l2 -8zM246 346v14h-4v-14h4zM231 354l-2 8l-4 -6v-8zM242 326v14h-4l2 -14h2zM166 438l-2 8l-2 -6l2 -8zM221 315l-4 4l-2 -14l4 -2zM291 141l-2 9l-4 -9v-6z " />
<glyph unicode="i" horiz-adv-x="419" d="M154 315h-2v15h2v-15zM383 74q0 -61 -21 -62h-71q-2 0 -34 -7t-34 -7t-16 -3t-17 -3l-120 6q-12 -2 -17 33v57q10 4 31 21q29 37 33 114q6 57 12 176l4 183q0 82 -4 190q-2 43 -6 127q0 57 -17 117q-18 68 -38 67q-2 0 -6.5 -3t-6.5 -3q-16 0 -16 84q0 16 6 29h64 q2 0 16 5t16 5q23 0 52 8l-7 21q-4 -2 -10 2q-18 25 -41 82q-6 57 -6 104q0 143 43 172q0 2 11.5 13.5t17.5 11.5q20 0 47 -43q6 -8 16 -53q4 -14 10 -37q4 -45 5 -80q0 -41 -43 -174q-16 -6 -17 -6q-4 0 -4 2q4 -18 10 -19q2 0 6.5 5t6.5 5t3 -5t3 -5q4 0 19.5 3t17.5 3 q14 0 14 -22v-12q-10 -172 -10 -332v-154q0 -6 2 -117.5t2 -117.5t2 -54q2 -55 4 -73q2 -72 14 -119q18 -68 31.5 -73t28 -16t14.5 -46zM205 1415l-4 2l-2 -12l2 -4zM207 1225h-6q0 -4 4 -15q2 5 2 15zM264 1073v14h-4v-14h4zM264 1040l-4 9l-2 -5l4 -8zM225 1104l-6 6v-6 l4 -8zM182 1026v8h-6v-8h6zM115 1124v19h-2v-19h2zM174 1016l-4 8l-2 -6l2 -6zM162 993l-2 6l-4 -12l2 -6zM225 862l-6 6v-8l4 -6zM209 858l-2 4l-2 -14l2 -2zM184 883v12h-2v-12h2zM199 854q-4 2 -4 10v-18q2 2 4 8zM180 809v0v0v0zM211 707v10h-6v-10h6zM217 662l-2 8 l-2 -4l2 -9zM176 690v19h-2v-19h2zM213 625v18h-2v-18h2zM225 596l-4 8v-4l2 -8zM178 678v8l-6 -6v-8zM205 494v12h-4v-12h4zM184 442v19h-2v-19h2zM201 379v8h-4v-8h4z" />
<glyph unicode="j" horiz-adv-x="468" d="M397 1460q0 -152 -96 -151q-68 0 -86 57q-18 51 -18 74q0 190 118 190q12 0 36 -28.5t32 -51.5q-2 -4 -2 -14q16 -4 16 -76zM432 311q0 -84 -26 -164q-33 -96 -91 -124q-43 -23 -53 -23q-2 0 -12 -2h-12h-21h-37q-10 2 -32.5 7t-26.5 5q-14 0 -41 43t-33 68q-8 43 -8 92 q0 53 23.5 99t54.5 46q39 0 57.5 -16t48.5 -86q6 -12 6 -53q2 -45 -6 -68q0 -6 2 -16q14 -16 27 -17h12q18 0 40 30t22 56q0 10 -15 84q-8 14 -22 39q-23 33 -42.5 39t-35.5 10q-29 12 -29 35l19 310q0 39 -6 114q-4 88 -25 260q2 2 4 6l-4 9q-10 27 -38 54.5t-46 27.5 q-4 0 -5 -2.5t-5 -2.5q-27 0 -27 64q0 41 23 41l325 -23q18 0 31 -18q0 -37 -6 -68q-6 -106 -10 -237v-111v-151v-35q0 -2 -6 -6q2 -2 8 -2zM250 1483l-2 6l-6 -12l2 -4zM268 1210v9h-6v-9h6zM225 1151v8h-8v-8h8zM258 952v9h-10v-9h10zM399 641l-4 8l-4 -6l4 -6zM172 113v8 h-8v-8h8zM55 227l-4 4l-2 -12l2 -4z" />
<glyph unicode="k" horiz-adv-x="645" d="M477 279h-2l-2 12l2 4zM401 324v0v0v0zM502 129h-4v8h4v-8zM416 221h-2v15h2v-15zM608 129q0 -72 -2 -106q0 -35 0 -25q-4 4 -6 10q-2 -2 -49 2q0 10 -4 10q-2 0 -6 -10q-12 2 -35 0q-72 -16 -80 -16l-7 5t-11 5q-2 0 -8.5 -5t-8.5 -5t-4 5t-4 5l-8 -5q-8 -5 -15 -5l-5 2 q-5 2 -7 2l-20 -4q-4 12 -4 14q0 6 2 41v49q41 29 41 109q0 43 -25 141q-16 61 -37 168q-45 -160 -45 -182q0 -135 25 -193q6 -14 30 -43q6 -33 7 -65q0 -18 -5 -39q-41 0 -58 2t-11 2q-2 0 -9.5 -5t-9.5 -5t-7 3t-9 3v-10q-12 6 -39 -7l-2 11q-4 0 -115 -17l-2 9v92 q8 6 28.5 34.5t35.5 96.5q4 20 10 94q2 33 4 94v158t-2 10q0 18 -2 86v80q2 150 -8 379q0 88 -2 178q-6 125 -39 178q-8 10 -41 23v92q10 23 16 22q2 0 4 -5t4 -5q6 0 7 21q86 -20 69 -21l4 8q23 2 68 13q10 2 21 -2l10 -4q6 0 12 18q0 -10 2 -10t1 5t3 5q10 0 10 -66 l-2 -127q-4 -135 -4 -200q-2 -139 -2 -344v-201q0 -160 -2 -211q0 -10 2 -18l76 290q4 2 10 35q6 25 35 140q16 68 16 100q0 39 -13 64.5t-26 25.5q-2 0 -10 -3t-10 -3q-8 0 -16 104q8 6 9 6t1 3.5t2 3.5h67q2 0 3 4q-2 6 0 6t55 3l53 3l8 10q55 -2 62 4q2 -39 2 -135 l-2 -12q-4 0 -18.5 5t-16.5 5q-6 0 -26.5 -22.5t-53.5 -90.5q-10 -16 -27 -51q-16 -47 -51 -129l131 -547q35 -141 72 -141h6q4 -2 8 -2zM510 1143v8h-6v-8h6zM479 1190l-2 8l-2 -4l2 -8zM428 1063v10h-4v-10h4zM233 1360l-2 8l-2 -6l2 -8zM225 1317l-4 8l-2 -6l4 -6z M238 1163v11h-7v-11h7zM176 1227l-2 8l-2 -4l2 -8zM168 1237l-2 2l-4 -12l4 -4zM209 1139v8l-6 -6v-8zM213 1112l-2 6l-2 -4l2 -8zM188 1126l-4 9l-2 -5l4 -8zM195 1087q-2 4 -6.5 7.5t-6.5 5.5l4 16q-4 2 -6 6l-6 -18q6 -10 14 -29q5 12 7 12zM227 983v10h-6v-10h6z M369 715l-2 8l-2 -4l2 -8zM393 668v8h-4v-8h4zM223 967q-4 6 -4 18q-6 -18 -6 -14q0 -4 10 -4zM209 979q-4 2 -6 6v-24q6 0 6 18zM367 641v0v0v0zM446 487v11h-4v-11h4zM240 844v20h-4v-20h4zM207 903v0v0v0zM422 526l-2 9l-4 -9v-6zM166 936l-4 8v-4l2 -8zM248 782v11h-4 v-11h4zM375 557v8h-4v-8h4zM373 543q0 -4 -6 -2q2 -2 4 -9q2 5 2 11zM451 387v10h-5v-10h5zM375 520l-2 8l-2 -6l2 -8zM338 532l-6 7v-9l6 -6v8zM178 815l-2 2l-2 -14l2 -2zM410 383l-2 8l-5 -6v-8zM311 541v8h-6v-8h6zM348 463l-2 8l-4 -6v-8zM348 424q-2 4 -8 12v-20 q4 0 8 8zM383 332v14h-2v-14h2zM221 580l-2 6l-4 -6v-9zM229 508l-2 4l-2 -14l2 -4zM182 567l-2 8l-2 -6l2 -6zM207 360v0v0v0z" />
<glyph unicode="l" horiz-adv-x="483" d="M444 82q0 -61 -8 -92q-4 8 -4 -6q-4 8 -10 30q-8 -16 -6 -30q-12 4 -131 4q-10 0 -15 16h-8q-2 -8 -6 -14l-6 10l-4 -12q-4 0 -4 6t-4 6q-2 0 -3.5 -6t-5.5 -6q-2 0 -1 6t-3 6l-2 -10q-4 -2 -20 -2h-101q-18 0 -22 16q-2 -4 -2 -10q-10 2 -17.5 1t-9.5 -1q-12 0 -12 65 v39q2 4 4 2t14 -2t37 49q18 43 23 64q10 39 14 94q31 289 31 395v140q0 18 -2 102q-2 66 0 127q2 0 6 6q0 4 -4 12.5t-4 12.5q0 80 -4 155q-10 164 -60 211q-12 10 -49 33q2 -4 8 8q0 8 -10 19v47q4 6 4 18h8q10 18 0 21q27 6 45 6q16 0 21 -16q2 6 6 14q25 10 25 4q0 4 2 4 h36h54l6 -16q2 4 2 10l22 -6q-4 8 -6 0q-2 -4 4 -4l4 -11q6 16 13 11q10 -16 16 -17q29 0 33 6q0 -2 2 -6t2 -6q2 -8 4 -20q-2 -10 0 -29q-2 -2 -6 -8q6 -4 12 -19h-6q0 -10 -2 -55q-2 -4 -4 -57q-2 -35 -2 -37q-6 -43 -8 -176l-4 -166l4 -8q-2 -20 0 -62q2 -45 2 -61 q-4 -25 0 -66q2 4 6 -8q-4 -4 -8 -20q2 0 8 -13q-4 0 -6 4q-2 -14 -2 -53q0 -51 2 -67l4 -8q4 -7 4 -13v-102q-4 2 -6 10q-2 -14 2 -27.5t4 -15.5v-139q-2 2 -6 20q-2 -10 0 -33q0 -2 8 -12q0 -90 25 -141q-4 0 -7 4l-4 -8q14 -41 23 -52q2 -4 2 -10q12 -23 18 -22q4 0 2 4 q4 -10 21.5 -21.5t21.5 -15.5zM166 1155v21h-4v-21h4zM164 459v14h-4v-14h4zM236 258q-2 -2 -7 -6q2 -4 4 -12q3 2 3 18zM166 260v25q-4 -2 -10 -6q0 -1 10 -19z" />
<glyph unicode="m" horiz-adv-x="833" d="M795 90q-6 -29 -2 -43q-14 -16 -31 -76q-2 0 -7 6.5t-7 6.5q-2 -2 -3 -7v0q0 -8 -2 -8t-8 4t-8 4t-18.5 10.5t-18.5 10.5t-3 -7t-3 -7l-2 6h-143v18q-2 0 -7 -16q-4 -2 -20 -2q2 0 -25 2h-45q-8 0 -24 6l-17 6h-102v133q4 4 12 17l2 -15q4 10 2 15q33 92 37 192 q6 180 6 287v452q0 342 -45 342q-14 0 -32 -43q-6 -20 -17 -55q-18 -55 -22 -203q-4 -88 -4 -450q0 -492 55 -537q-2 -49 2 -127l-238 -8q-12 0 -15 14.5t-3 49.5v41.5v54.5l4 16q10 -14 18 -14q2 0 7 12q33 12 49 305q4 70 4 156l2 274q0 254 -14 402q-6 70 -29 115 q-20 37 -35 32v58q-2 41 -2 63q0 2 8 19q8 2 31 2l164 -15q4 -78 2 -176l2 -12l4 20q2 0 2 -3t2 -3t9 37t14 47q31 66 30 66q16 27 37 26q10 0 14 -4q-2 -10 3 -10q2 0 6 3t6 3q31 0 53 -57q23 -49 45 -187q23 154 53 207q20 37 60 37q-2 0 22 -8q-2 -10 2 -10l2 3t4 3 q-8 0 35 -29q0 -25 -2 -22q-2 -4 2 -4t4 14q2 -4 15 -47v18q31 -55 43 -221l-4 12q-2 -10 -2 -22l2 -13l4 15l6 -70l-2 -762q-2 -201 39 -290q8 -18 18 -58q4 14 6 14t5 -4zM717 1225v26h-4v-26h4zM719 1110v33h-2v-33h2zM418 1405l-2 4l-2 -18l2 -5zM453 1108q-2 -2 -7 -16 q2 -6 5 -7q2 3 2 23zM596 528v416q0 471 -53 471q-18 0 -35 -65q-14 -55 -21 -168q-8 -125 -8 -193v-473q0 4 6 -108q0 -29 2 -76q8 -143 33 -176q6 2 17 -27q-10 -47 -2 -113q0 47 10 142q35 12 43 155t8 215zM190 1227v6l-4 -16v-9zM371 670q0 6 -4 18v-33zM137 895 q0 6 -2 16q-2 -2 -6 -16q8 -4 8 0z" />
<glyph unicode="n" horiz-adv-x="741" d="M692 111v0v0v0zM672 96v0v0v0zM686 43l-8 6l-2 12l10 -8v-10zM637 80l-2 -6l-4 8l2 8zM584 104l-9 -16v10l9 15v-9zM596 45h-2l-2 45h4v-45zM569 100l-2 -6l-4 10l2 7zM573 33l-2 -6l-4 10l2 6zM555 47l-2 -10l-6 8l2 10zM535 27h-3l-2 16l5 2v-18zM530 6l-4 -2v19h2z M494 49h-2l-3 19h5v-19zM485 57l-10 9v10l10 -6v-13zM397 43l-2 -6l-2 10l2 6zM369 68l-2 -7l-2 11v6zM340 61h-4v19h2zM270 31l-2 -19l-4 4l2 19zM147 41h-6v10h6v-10zM705 72q-4 4 -11 16q2 -33 0 -51q4 -6 6 2q-2 -16 -8 -33q-2 0 -3 3t-5 3v-12q-12 -4 -8 10h-6 q2 0 -4 21q-2 -6 -9 -17q-4 -16 -2 -24t-2 -8t-6 6t-4 6t-3 -7t-3 -7q2 8 -2 14q-2 0 -4 -7t-6 -7q4 0 -17 18v-21q-2 4 -8 9q4 -2 -29 -4q-2 4 -4 16q-2 -2 -4 -10q-4 8 -10 28q0 14 2 15q-2 4 -10 -13q-2 0 -6 -8l4 -12q0 6 4 12q-2 -8 -2 -24q-8 4 -64 2q0 8 -2 24 q-2 -6 0 -26q-10 0 -18 7t-8 21q0 2 -7 2q-2 -10 -6 -26q-4 8 -12 33q-4 -16 0 -25q-4 10 -7 11t-7 5l-8 -2q-2 0 -3 -6q2 -6 0 -6q-4 2 -10 6l-4 146q0 12 14.5 25t24.5 54q2 29 10 82q-2 31 4 52q0 8 -2 8q2 0 6 6l-4 4q0 41 4 106l5 13l-5 12q-4 164 -6 172h2q0 6 -2 123 q2 -8 4 0l-4 178q-2 4 -6 14q0 184 -2 158q-6 29 -12 74v29q2 0 4 -7q2 4 4 17q-6 16 -4 16q-2 0 -2 -12q-2 23 -6 61q-12 55 -35 72q-8 6 -21 4q-4 8 -6 17q-2 0 -4 -3q4 -6 6 -28q-2 -10 -12 -23q4 0 -6 6q0 -4 4 -16q-4 -6 -12 -27q0 -16 -5.5 -38.5t-13.5 -47.5 q0 -18 -2 -49l-8 -24q6 -33 4 -56q0 -37 -2 -108q-2 -6 -8 -21l4 -10q4 -14 0 -39q-8 2 -12 -6q4 -10 8 -14q-2 2 -4 -4q2 -6 0 -13l8 2q0 -33 6 -86q-2 6 -6 6q-2 -25 2 -55q2 6 6 12v-38l-6 20q2 -25 4 -61q2 2 -10 6l-4 -10q6 -6 16 -19q0 -18 -8 -35q4 -2 10 -18v2 q2 -10 -2 -33q6 -18 6 -35q0 -4 -6 -8q-4 0 -10 14q-2 -4 -8 5q-4 -10 0 -21q2 6 6 8v-26q-2 -8 -8 -25q2 -4 4 -16q-2 -6 -6 -15q0 8 -6 33q-2 -4 -5.5 -6t-5.5 -4q6 -8 8 -33q16 -16 15 -16q8 0 20 2q2 -8 6 -31q4 -45 15 -119q6 -41 6 -47q16 -33 45 -90l4 -152 q2 -16 -2 -16q2 0 -2 14q0 -8 -4 -14q-2 0 -7 11.5t-10 13.5q-6 -25 0 -23q-2 -2 -10 -4q0 2 -1 5t-3 7q-2 0 0 -6q2 -8 -2 -8h-8q4 0 -4 20q0 -10 -6 -22q-6 4 -19 8q-23 -2 -24 -2q2 12 -2 10q-2 0 -11 -14l-4 14l-2 -8l-4 14q-8 0 -10 19q-2 -6 -2 -12q-2 0 -4 6 q-2 -10 -6 -35h-11q-6 33 -2 33q-8 -2 -10 -27q-2 -2 -14 -4h-8q-8 0 -13 33v-21l-4 13q-6 -16 -4 -25q4 0 -18 25q-2 -10 -2 -15q2 -4 2 -12q0 6 -4 4q-2 0 -2 -10q0 -2 -3 -2q-4 -2 -10 18q0 -10 -8 -20q2 0 -6 18l-2 -12q-2 0 -8 18q-2 -2 -9 -10q2 -6 7 -14 q-2 -4 -9 -11q-2 0 -5 10.5t-5 10.5q-16 59 -12 59q-2 -4 -6 -6q-4 14 -4 43q-2 45 4 96l12 25l5 6t7 6q-2 0 2 -12q4 20 13 21q2 2 2 -2.5t4 -4.5q8 2 33 119q2 -6 8 -26q0 4 4 30q-2 8 -6 13q-4 12 -4 45v71q0 6 8 21q-2 12 -6 12q0 20 8 49q-6 16 -6 31l2 16v138l-2 26 q6 10 14 41q0 4 -2 10q-2 -14 -10 -14q-2 2 -4 23q0 14 8 55q-4 10 -6 10q-2 20 -2 125q-4 31 -2 88q0 4 -7 4v35q0 2 3 20q-2 8 -11 62q2 0 4 6q-8 6 -26 78q-6 25 -13 35q-20 25 -38 47q-25 33 -27 112q-2 23 4 72q10 18 25 39q2 0 5 -10t5 -8q4 0 15 11t13 11t12.5 -9 t12.5 -9t7 4t9 4q-2 0 3 -14q4 23 4 18q2 -10 4 -10t5 7t5 7q16 -8 35 -16q0 6 2 14q2 -8 6 -8q51 8 78 -2q12 -25 16 -53q-2 -4 -10 -21q0 -2 4 -4q-4 -143 -4 -156q10 39 27 105l6 -6q2 12 -4 14q10 51 19 68.5t22 35.5q0 -4 6 -6q2 0 0 4q0 2 2 2t4 7.5t4 7.5q6 2 12 -19 q2 10 13 23q-6 -2 38 -6q0 -12 5 -11l2 7q2 6 10 8q10 0 51 -53q4 -12 8 -23q0 6 2 12q12 2 13 -39q2 0 6 -2q8 -16 26 -112q6 -27 14.5 -84.5t12.5 -124.5l2 -23q-6 0 -8 -4l4 -16q4 -14 4 -31q0 -57 2 -168q-2 0 -6 -8q12 -29 0 -68l4 -4q0 4 -4 -78l6 -182q2 -63 10 -192 q2 4 2 10v-23l-2 9v-31q12 -10 19 -88q2 -4 16 -43q8 -27 14 -27q2 0 9 6q-2 -8 -2 -14l4 -10q0 6 2 20q4 -14 10 -41l4 15q2 -4 6 -11.5t6 -11.5q-2 -12 0 -20q-2 8 -4 -2q5 -27 13 -78zM569 1360v0v0v0zM469 1446l-2 12h-4v-12h6zM498 1395v12h-6v-12h6zM530 1343l-2 5 l-2 -19l2 -4zM512 1372l-2 8l-8 -16l2 -8zM588 1208l-2 11l-2 -9l2 -10zM584 1180l-2 10h-4v-10h6zM530 1245v27l-4 -2l2 -25h2zM518 1241q0 8 -2 23q-2 -6 -6 -11q4 -4 8 -12zM457 1333v19h-4v-19h4zM420 1395l-2 2l-2 -17l2 -4zM504 1231v24l-4 -2v-24zM502 1229l-6 8v-10 l4 -8zM442 1309v0v0v0zM481 1233l-2 33q-4 -10 -4 -25q2 -2 6 -8zM518 1149q0 25 -2 33q0 -14 -2 -23q2 -6 4 -10zM451 1262v12h-5v-12h5zM506 1159v10h-4v-12zM547 1094l-4 16q-2 -6 -6 -10q6 -8 6 -23zM494 1163l-2 13h-7v-13h9zM520 1135l-10 -2l2 -31q6 8 8 33z M532 1063q-2 6 -4 24q0 -2 -4 -6q0 6 -2 15q-2 -8 -2 -19q8 -14 12 -14zM537 1059v0v0v0zM594 961v18h-4v-18h4zM262 1495v0v0v0zM453 1188l-2 10h-5v-10h7zM559 1012l-2 18l-2 -2v-16h4zM569 981v0v0v0zM494 1118q-2 16 -11 47q0 -6 -3 -13t-7 -15l-2 53q-4 2 -6 8 q-2 -4 -2 -10t-2 -10q-2 6 -4 4q4 -12 2 -19q-6 -2 -8 -12q6 2 12 -16.5t10 -22.5q0 6 2 12q2 -8 6 -22q-2 -6 -8 -6q2 -16 4 -39l8 2l-2 33q2 -4 4 -7.5t5 -5.5v15q-2 10 -3 14l3 10q2 -6 2 0zM545 1020l-4 2l-2 -16l4 -5zM520 1044v13h-6v-13h6zM446 1149l-4 8l-2 -10 l6 -8v10zM496 1063v12l-9 -2v-10h9zM260 1407v12l-6 -2v-10h6zM467 1077l-8 6v-8l8 -8v10zM276 1374v0v0v0zM537 965q-2 2 -7 8q2 -10 2 -37q1 13 5 29zM500 1014l-2 6l-2 -12l4 -4v10zM526 979q-4 0 -8 6q0 -6 -2 -18l4 -4t4 -2q2 6 2 18zM283 1362l-2 2l-2 -16l2 -5z M514 967l-4 18l-2 -4l2 -14h4zM457 1042v25h-4v-25h4zM541 903v12h-6v-12h6zM502 952v25h-4v-25h4zM256 1352h-6h-6q4 -18 10 -23q-2 9 2 23zM489 963l-2 10l-4 -10v-9zM508 918l-2 26l-4 -2l2 -24h4zM571 821l-8 8v-10l8 -6v8zM547 838l-2 10l-2 -8l2 -9zM469 944 q-2 12 -8 31l-4 -17v-24q6 2 12 10zM473 915l-2 25h-2v-25h4zM119 1491q0 8 -4 18h-6l-3 -18q13 2 13 0zM248 1286l-8 8v-10l8 -6v8zM238 1311h-5v-31h3zM541 811l-6 10l-3 -10l7 -8zM508 840v0v0v0zM573 731v12l-6 -2l2 -10h4zM221 1284l-2 19h-2v-19h4zM238 1270 q-4 4 -11 6q4 -12 9 -25q0 9 2 19zM250 1235q-2 4 -2 16q-4 -6 -10 -18zM475 842l-4 24l-2 -4l2 -22zM557 715q-2 2 -4 10q0 -4 -2 -13.5t-4 -13.5q4 9 10 17zM238 1214q-4 0 -7 -4q0 6 -8 27q-2 -16 -2 -27q-2 2 4 7q-2 0 8 -19q1 14 5 16zM246 1202l-4 2l-2 -16l4 -4z M268 1180q-2 -4 -8 -15v21q-6 14 -16 31l2 -52q8 -4 9 -24.5t1 -24.5v-18q2 10 3 26.5t1 26.5q4 -6 8 4v25zM281 1124v13l-15 -2v-13zM174 1274v24h-4v-24h4zM471 803v12l-6 -2v-10h6zM242 1157v19h-4l2 -19h2zM213 1212l-4 11l-2 -6l4 -11zM545 690l-6 -14q0 4 -4 6l-5 14 v-26q2 6 7 -8q8 16 8 28zM555 645v19h-4v-19h4zM51 1454q-2 2 -4 10v-26q0 14 4 16zM266 1104l-2 10l-4 -8v-10zM465 784l-6 9l-2 -11l6 -8zM229 1153l-2 10l-2 -6l2 -10zM535 739q0 43 -13 111l-2 -12q-2 6 -4 2q4 -16 -2 -17q-6 2 -18 2q2 -6 0 -16q4 -18 -4 -18 q-2 -10 -7 -23q2 12 -6 16q0 -23 -10 -22q2 -10 10 -33q-2 -2 -4 -12q-2 6 -6 26q-2 -10 -6 -24v-76q6 0 14 -2q10 -10 10 -63q0 10 2 26q2 -2 13 2q-4 12 -8 25l-9 24v31q0 6 7 12q2 0 3 11.5t3 9.5l2 14q6 -12 9 -3t3 -5q0 16 10 31q4 -12 2 -13q0 6 4 13q-1 -1 7 -17z M551 627v0v0v0zM571 586l-4 18l-2 -4l2 -14h4zM254 1092v18h-4v-18h4zM279 1057v10h-7v-12zM291 1030v12l-6 -2l2 -10h4zM514 664l-2 12h-6v-12h8zM225 1120l-8 23l-2 -8l8 -23zM502 668v18l-4 -2l2 -16h2zM539 602v23q0 -6 -7 -7zM211 1120q0 4 -6 27q0 -6 -4 -10 q4 -3 10 -17zM174 1176l-4 10l-2 -6l4 -11zM575 518q0 2 -2 14v15q0 -12 -4 -23q4 -2 6 -6zM231 1085l-2 2l-2 -16l2 -4zM276 1008l-2 4l-2 -19l2 -4zM225 1069q-4 14 -4 25l-4 -15q-2 -12 2 -26q0 8 2 20q2 -6 4 -4zM557 530l-2 19l-2 -2v-19zM270 1016q-4 -8 -8 -15 q2 -6 4 -18q2 13 4 33zM567 526l-4 4l-2 -18l4 -4zM514 602l-2 4l-2 -18l2 -2zM254 1004q-6 16 -16 45v-33q2 -2 6 -12q-2 -6 -2 -15q4 9 12 15zM561 502l-2 8l-6 -8v-10zM537 520q0 23 -7 39q6 -29 -2 -29q5 -2 9 -10zM225 1014l-2 24h-2v-24h4zM258 973v12l-8 -8v-12z M276 930v18h-4l2 -18h2zM539 596q-2 6 -7 12q-2 -14 -8 -28q-6 0 -6 6q-2 -10 -6 -27q-6 14 -8 0q0 2 2 2q8 0 -6 -31q-4 0 -11 19l-6 12q0 -20 2 -53q2 10 4 22q4 -14 9 -14q0 -6 8 -12q-2 10 2 20q10 0 12 -6q-6 16 2 35q6 12 13 27q-6 4 -5 16h9zM242 975v24h-4v-24h4z M502 571v9l-6 -9l2 -10zM270 924v18h-2v-18h2zM563 457v16h-4v-18zM262 934l-2 10l-4 -8v-10zM223 989v12h-4v-12h4zM555 449v24h-4v-24h4zM303 862l-2 12l-6 -2v-10h8zM193 1032l-3 17h-2v-19zM520 510l-2 10l-2 -8l2 -8zM479 573v13l-8 -2v-13zM588 399v0v0v0zM211 993 q0 8 -2 25q-2 -4 -3 -9t-3 -8q2 -2 4 -5t4 -3zM274 913q0 -8 -2 -12q-2 6 -4 6l4 -18q2 6 2 24zM293 864l-6 8v-10l4 -8zM479 553l-2 12l-4 -2v-10h6zM608 334l-4 10v-6l2 -10zM582 342v18h-4l2 -18h2zM498 496l-4 -15h-5q-6 0 -6 6.5t-2 20.5q-2 -10 -2 -33q7 -4 19 21z M467 524v13h-10l2 -13h8zM264 856l-2 6l-4 -16l2 -8zM510 449l-2 10l-2 -8l2 -11zM553 371l-2 10h-4v-12zM461 502q-2 10 -8 26q2 6 2 9q-2 -6 -9 -15q9 -24 15 -20zM258 821v25h-4v-27zM690 139l-2 11l-2 -9l2 -8zM467 489l-2 13h-4v-13h6zM221 881v12h-8v-12h8zM498 432 q-2 8 -11 29l2 -27l5 8zM657 182v0v0v0zM547 334v49q-4 10 -10 29q0 -16 -5 -29q-2 18 -4 29q-4 2 -8 10q-4 20 -6 29v-27q2 -51 12 -59v-17q-2 -14 -6 -16q14 -14 17 -15q8 1 10 17zM590 293l-2 10l-6 -8v-10zM578 338q-4 2 -13 -12v26l-8 -8q6 -27 2 -51q4 0 8 -14l8 24 q-2 2 -6 12q2 8 3.5 8.5t5.5 14.5zM616 227l-4 11l-2 -9l4 -8zM250 821q0 2 -10 -6q4 -4 6 -10zM252 805l-2 10l-4 -10v-8zM459 463l-2 10l-2 -6l2 -10zM471 434v19l-4 -2v-17h4zM553 309l-4 10l-2 -6l4 -10zM600 248q-6 -10 -4 -25l4 -16v41zM467 426l-4 27l-2 -4l4 -23h2z M240 793l-4 18l-3 -4l3 -16zM279 758q-6 0 -9 24q2 12 4 31q-6 -14 -12 -14q2 -27 -4 -37q2 -14 4 -33q-6 -23 -6 -18q4 -14 6 -33q2 6 8 14q2 -4 3 -7t1 -7q4 2 5 10q-6 20 -7 17l-2 49q5 -2 9 4zM227 805l-4 18l-2 -4l2 -16zM565 254q0 4 -2 18l-6 -20zM504 342l-4 27 l-2 -4l2 -23h4zM186 844v12h-6v-12h6zM295 647v19h-4l2 -19h2zM498 322v18l-4 -2l2 -16h2zM221 766v0v0v0zM508 299q0 -2 -6 -6q4 0 -10 26q0 20 -5 19h-2v16q0 2 4 13q2 -6 7 -5q-8 18 -25 56q-2 -4 -8 -31q-2 -14 -4 -33q4 -8 2 -16q8 14 10 2q-6 -49 -6 -43q0 2 5 4t7 10 q2 -14 4 -32q0 6 4 20q2 -6 2 -27q12 16 19 9q0 6 2 18zM236 739v13h-7v-13h7zM547 240l-2 12h-4v-12h6zM547 266q-6 23 -10 23q0 -10 -7 -21q-8 0 -8 -18q4 -14 4 -21q0 2 4.5 4.5t5.5 12.5t4 11t7 9zM205 780l-8 8v-10l6 -6zM281 645q0 18 -5 27q-2 -6 -4 -13q5 -2 9 -14z M545 227v11h-8v-13zM559 190l-2 19h-2v-19h4zM455 354v11h-9v-13zM512 225q0 20 -4 29q-2 -10 -6 -12q6 1 10 -17zM244 637v31q-4 14 -8 14q0 10 -3 20q-2 -20 -6 -53q13 -14 17 -12zM557 147l-2 11l-2 -8l2 -9zM492 236l-5 10l-2 -6l4 -11zM182 721v12h-6v-12h6zM254 590 l-2 31h-4l2 -31h4zM274 567v0v0v0zM549 127l-6 16l-2 -8l6 -16zM455 272v13l-6 -2v-11h6zM479 217l-2 39h-2v-39h4zM471 238v18l-4 -2v-16h4zM557 125l-6 16q2 -27 -3 -26.5t-9 -3.5q4 -16 6 -17q4 0 12 31zM496 209h-2l-2 -23l2 -4zM274 532q-2 8 -6 23q0 -16 -2 -25 q4 2 8 2zM209 633l-2 20l-4 -4l4 -16h2zM461 233q-2 12 -6 15l-2 -19zM471 223l-8 8v-10l6 -8zM451 246v10h-5v-12zM182 668l-4 10l-2 -6l4 -10zM262 573l-8 9q-4 -29 -4 -35q-4 6 -7 6t-5 12.5t-5 14.5q0 -12 5 -35q-4 -10 -13 -8q2 -2 23 -13q6 -10 8 -16q-4 20 0 37 q4 14 6 28zM221 565v19h-4v-19h4zM485 168q-2 -2 -4 -8q4 -25 2 -31q0 6 2 21v18zM289 446v0v0v0zM317 403v11l-4 -8v-11zM276 459v12h-8v-12h8zM246 516l-4 4l-2 -18l4 -2zM199 596q-2 -2 -4 -8q2 -10 4 -21q-2 2 -1 13.5t1 15.5zM242 487l-2 19l-4 -4l4 -15h2zM225 492v32 h-4v-32h4zM193 549l-9 8l2 -10l7 -6v8zM190 512l-4 10v-6l2 -10zM172 543q-2 6 -4 16q0 -14 -4 -31q4 5 8 15zM223 446q0 8 -2 23q-2 -10 -4 -25zM186 496l-2 18l-2 -4l2 -14h2zM428 111l-2 8l-8 -23l2 -10zM324 272l-5 4l-2 -18l5 -2zM354 209v12l-6 -2v-10h6zM311 322 q-2 -2 -4 4q0 -2 -16 53q0 2 -2 -4q-6 39 -6 53q-2 -4 -11 -35q-6 14 -6 15q-2 -2 -1 -8.5t-3 -6.5q0 2 -2 4q0 12 2 27q-4 0 -6 -4q-2 6 0 8q6 16 10 51q-4 -2 -14 -6q-2 0 -2 7t-2 5q-2 0 -4 -16t-4 -18q-4 0 -7 2q2 6 3 18q-2 -6 -4.5 -18.5t-4.5 -18.5q0 -4 3 -14 t4.5 -12t5.5 -7q-2 -6 -2 -12l-2 -16q2 -6 4 -6q2 8 8 24q2 -8 2 -39q4 -12 14 -39q4 -25 2 -32q4 0 6 -7v-32q0 -18 2 -49q0 6 5 12q6 14 14 28q0 6 -2 19q-4 -2 -4 -6q0 6 -2 16q4 41 4 45q2 -6 10 -12q2 0 3 7t3 7q-4 0 6 -12v25zM338 225l-2 19l-4 -4l4 -15h2zM209 426 v0v0v0zM326 211v31h-4l2 -33zM344 184q0 4 -8 25l2 -25h6zM295 272l-4 11l-2 -9l4 -10zM397 104l-2 2l-2 -16l2 -4zM199 397v0v0v0zM313 213l-2 10l-2 -8l2 -8zM199 369l-2 18l-4 -4l4 -16zM266 260q-4 12 -10 37v-21q-4 0 -6 7q0 -16 2 -39q0 6 6 12q2 0 4 -8q-2 10 4 12z M307 205q-8 0 -10 8l-4 -18q2 2 8 6q4 0 4 -11q0 7 2 15zM338 135l-2 27q0 -4 -8 -2q4 -9 10 -25zM227 262q-2 6 -4 19v-15q-2 6 -4 15q2 -17 8 -19zM236 240q-2 -4 -9 -11q2 -2 9 -14q-2 2 -1 12.5t1 12.5zM225 201v30h-4l2 -30h2zM293 115l-2 4l-2 -19l2 -4zM299 84v10 l-6 -10l2 -8zM207 219q-2 8 -2 25h-8q2 -12 4 -29q2 4 6 4zM195 227q-4 6 -7 35q0 -6 2 -45q1 6 5 10zM258 133l-4 10v-8l2 -8zM246 145l-2 11h-6v-13zM207 205v8l-8 -8l2 -10zM209 182l-4 11l-2 -7l4 -10zM262 76v30h-4v-30h4zM184 233q-6 8 -6 9q-4 -10 -12 -33q4 4 6 0 v20q4 -4 10 -14q0 16 2 18zM250 98l-4 11l-2 -9l4 -8zM143 254v25h-4l2 -25h2zM231 150q-6 4 -14 14q-2 -14 -6 -45q4 -4 8 -15q0 12 4 15q-2 -2 6 -6q0 27 2 37zM178 184v0v0v0zM156 227l-9 9l3 -11l6 -8v10zM199 115q-2 -8 -4 -2v20q2 12 2 14h-11q6 -14 7 -51q8 9 6 19z M174 137v13h-6v-13h6zM145 176l-4 2l-4 -31l4 -4zM137 115v10h-10v-12zM106 123l-4 6l-4 -16l2 -9zM131 55v27l-4 -2l2 -25h2zM115 66l-2 10l-2 -8l2 -9zM78 109l-2 10l-4 -4l2 -13z" />
<glyph unicode="o" horiz-adv-x="665" d="M516 186v0v0v0zM461 250h-10v10h10v-10zM432 276h-6v13h6v-13zM227 244l-4 -27l-4 4l4 23h4zM272 119q-6 -4 -6 -17q-2 10 -8 27l-6 -12q2 8 16 26q0 -10 4 -24zM168 244l-2 -8l-4 10l2 8zM262 72h-8v12h8v-12zM190 203q2 -8 -14 -39v26q2 23 2 35q2 -4 2 -11t2 -9 q0 4 4 4q4 -2 4 -6zM143 264q-2 -12 -6 -24q4 12 -2 16zM168 174l-2 -6l-4 10l2 8zM629 748q-4 -2 -8 -13q0 -33 -7 -96q-4 2 -8 12l-4 -10v-33l6 -10q2 6 10 20v-47q-4 12 -14 0q2 8 -6 21q-2 -20 4 -34.5t6 -31.5q0 -37 -28 -190q-6 -6 -13 -43q-4 6 -18 -4q4 -8 14 -19 q-35 -131 -76 -174q-6 6 -10 6q-4 -33 -33 -61q4 0 -2 14l-3 -11t-7 -15q-23 -20 -51 -21q-4 0 -34 -7t-32 -7l-6 20q-6 -14 -33 -14q-8 0 -44.5 37t-44 47t-7.5 25.5t-12 40.5q-2 -8 -2 -13q4 -8 4 -14q-6 12 -12 16q0 2 3 6.5t3 8.5q0 2 -6 10l-4 -14q-47 113 -48 141v24 q2 4 -4 4t-4 -8q0 6 -4 17.5t-4 19.5q-43 158 -45 266l2 7q-14 29 -2 55q-6 14 -7 10t-1 98q0 66 12 82q-2 6 -8 4q2 141 41 336q4 31 15.5 78t54.5 141v9q35 63 45 84q4 -2 10 -2q25 53 39 53q2 0 2 -3t2 -3t6 22q18 0 37 25q10 0 18 -21l4 13q4 0 6.5 7t4.5 7q4 0 8 -7 t8 -7q2 0 3 7t5 7q2 0 2 -3t4 -3q2 0 3 6t3 6q4 0 15.5 -13.5t15.5 -13.5h21q6 0 0 13q4 0 6 -12.5t6 -12.5t3 3t1 3q6 0 12 -49q2 8 7 23q0 -4 2 -13q39 -10 92 -170q2 -14 22 -80q0 -4 -2 -14q0 -4 6 4q10 -33 23 -90q6 -41 20 -123q2 -10 -6 -28q2 -4 6 -5q2 -35 4 -110 q2 -25 9 -29q-4 -72 -4 -76q4 12 8 13v-94zM416 1536l-4 27l-4 -4l4 -23h4zM393 1530q-4 14 -4 24l-8 -8v-24zM412 1479v10h-6v-10h6zM508 1309l-4 2l-4 -17l4 -4zM346 1556v19h-4v-19h4zM489 1298v19h-4v-19h4zM440 1397v12h-12v-12h12zM362 1532v12h-16v-12h16zM535 1219 q0 8 -5 18q0 -8 -2 -20l-8 4q0 -8 8 -15q3 3 7 13zM375 1497l-4 4l-2 -16l2 -4zM571 1104v0v0v0zM586 1055v16h-4v-16h4zM582 1034v19h-4v-19h4zM373 1403v12h-6v-12h6zM430 1309l-4 2l-2 -17l4 -4zM311 1499v10h-6v-10h6zM313 1479l-4 10l-2 -6l4 -10zM418 1292l-2 6 l-6 -16l2 -6zM563 1012q0 -4 -8 -4q4 -2 6 -9q2 7 2 13zM281 1501q-2 12 -5 19q-4 6 -4 0q-4 4 -4 18q0 -6 -6 -6q4 -14 10 -39q7 16 9 8zM428 1243l-2 8l-6 -8v-10zM522 1061v18h-4v-18h4zM539 1036v0v0v0zM309 1464q-2 0 -6 6.5t-4 2.5h-12q4 -12 10 -33q4 12 12 24z M588 928v12h-8v-12h8zM418 1235l-2 10l-6 -8v-10zM510 1040v19h-4v-19h4zM553 958v19h-4v-19h4zM492 1067v18h-5v-18h5zM262 1491h-6q2 -4 2 -16q0 8 4 16zM532 999l-8 9v-11l6 -8zM457 1104h-8q2 -4 4 -17q0 15 4 17zM477 1040v25h-4v-25h4zM274 1417v13l-12 -9v-12z M522 963l-4 10l-2 -6l4 -11zM500 1010l-4 2l-4 -17l4 -4zM625 768l-2 8l-7 -8v-10zM236 1413q-2 8 -5 21q0 -4 -3 -10.5t-3 -10.5h11zM618 752q-4 2 -6 8v-47q2 16 6 39zM504 936l-2 10l-6 -8v-10zM498 954l-4 4l-5 -18l5 -4zM512 918l-2 8l-6 -8v-11zM569 864 q-2 12 -7 12.5t-19 41.5q0 -14 -2 -15q-2 0 -25 19q16 -39 16 -43q0 -16 -12 -31q0 12 -4 29q-10 -27 -8 -27q-4 0 -3 -6t-1 -10v-19q6 14 8 14q4 0 7 -12t5 -14q0 33 6 33q4 0 4.5 -3.5t4.5 -3.5q2 0 6 10.5t6 10.5q6 0 8 -8q0 14 4 28q2 -6 6 -6zM567 799q-6 8 -6 26 q0 -8 -6 -24q-4 4 -10 6v-53q2 8 22 45zM213 1407l-10 8v-10l8 -8zM178 1456v0v0v0zM186 1427v19h-4v-19h4zM537 766h-2l-5 -23l5 -4zM582 647v19h-4v-19h4zM479 834l-4 10l-2 -6l2 -11zM217 1309l-4 2l-4 -17l4 -4zM541 729l-4 6l-7 -16l5 -8zM516 760v10l-6 -8v-10z M575 670q-6 4 -6 16q-4 0 -8 -8v35q-10 -12 -8 -13q2 0 -8 13q-2 -12 -8 -31h12q-2 -6 0 -12q-4 -12 -4 -17q10 0 14 -14v18q10 5 16 13zM588 616l-4 11l-2 -6l4 -11zM539 702q-4 6 -11 25q0 -14 -4 -14t-2 14q0 -20 6 -35q5 2 11 10zM199 1272v24h-4v-24h4zM518 715 q-8 25 -8 26q-6 -33 -6 -45q4 17 14 19zM217 1241v10h-6v-10h6zM180 1303v10h-10v-10h10zM524 678l-4 10l-2 -8l4 -8zM473 766l-6 16l-2 -6l6 -16zM573 582v0v0v0zM174 1257v19h-6v-19h6zM561 625h-8l-4 -13q-10 23 -17 33q0 -4 -3 -16.5t-3 -16.5q4 -10 9 -28q6 8 8 2 q-6 -10 0 -35q10 14 10 27l6 -13q-2 35 2 60zM590 494v12h-10v-12h10zM530 588l-4 4l-4 -19l4 -4zM506 618l-6 9l-2 -9l8 -10v10zM436 705v10h-6v-10h6zM186 1159l-4 2l-4 -16l4 -4zM195 1130q-4 8 -9 17v-25q11 8 9 8zM436 696l-4 4l-4 -18l4 -4zM446 686q-10 -16 -14 -16 q10 -2 8 -25q6 33 6 41zM530 477v33q-2 -4 -4 -12.5t-2 -12.5q2 -6 6 -8zM549 438v13h-6v-13h6zM111 1255q0 -16 -5 -45l-2 -6q6 -8 7 -22v73zM463 571v19h-4v-19h4zM428 705q-8 -4 -8 -5q-8 0 0 150q0 141 -19 401q-12 80 -28 119v14q-2 -2 -6 -12q-29 61 -35 62 q-10 0 -33 -79t-29 -128q-8 -66 -6 -88q-2 -8 -4 -15q2 -8 0 -20q-2 -53 -10 -150q-2 -8 -6 -14v-6q2 -10 4 -27q-4 -16 -4 -20q0 -8 2 -21.5t2 -19.5q-6 -215 6 -400q2 -8 6 -29.5t4 -37.5q4 -41 6 -90q2 -4 11 -49q6 -27 21 -51.5t24 -24.5q14 0 28 26q4 -10 6 -6 q8 23 23 76q8 41 14 84q4 57 15 139q2 8 6 11q-4 2 -8 14q2 27 8 70q0 27 -2 69q6 25 3 28t9 30zM170 1083v13h-8v-13h8zM475 532v0v0v0zM504 492q-4 10 -12 51q0 -6 -7 -11q4 -10 9 -26q-4 -4 -15 -4q0 -6 2 -8q4 -2 6 2q0 -14 5 -33q4 2 6 8l-6 21h12zM537 408l-13 16v-10 l11 -15zM522 438q-10 33 -12 58q0 6 -8 -37q6 -20 6 -19q-18 -41 -16 -59q16 43 30 57zM442 530v31q-2 -12 -8 -12zM461 510l-2 8l-6 -8v-10zM483 473l-2 4l-4 -18l4 -4zM449 518v19h-5v-19h5zM186 979l-4 20l-4 -4l4 -16h4zM100 1133v10h-6v-10h6zM150 1063q-6 14 -7 22 h-12v-36l6 -17q3 2 13 31zM510 367q6 14 0 28q-2 -8 -6 -10zM494 432q-8 -4 -9 -4q-2 0 -2 21q-2 -4 -4 -7q0 -2 -2 0q0 2 -2 13h-10q2 -20 10 -54l4 13h4q5 2 11 18zM528 381q-4 -12 -12 -29v-30q10 0 10 24q-4 2 -4 10q8 23 6 25zM150 993v25h-5v-25h5zM215 889v10l-8 -8 v-10zM514 342v25h-4v-25h4zM100 1106q-4 -4 -10 -8q4 -4 10 -25v16.5v16.5zM168 944q0 4 -6 21q-4 -6 -8 -11q4 -6 4 -16q4 6 10 6zM434 442v19h-6v-19h6zM123 995v0v0v0zM481 369l-2 6l-6 -17l2 -6zM164 901l-4 10l-4 -6l4 -10zM82 1044l-4 11l-2 -8l2 -9zM190 836v18h-4 v-18h4zM184 840v12h-8v-12h8zM190 827l-4 11l-2 -9l4 -8zM152 885q-2 6 -5 14q0 -2 0 16h-10q0 -57 2 -45q7 9 13 15zM70 1022v12h-7v-12h7zM168 817v31h-4v-31h4zM180 797l-2 26l-4 -4l2 -22h4zM98 942v10h-6v-10h6zM156 838l-4 6l-7 -17l5 -6zM109 907l-3 13l-4 -9l4 -10z M94 926l-4 18l-2 -4l2 -14h4zM182 764q-8 8 -12 45q0 -8 2 -27v-26q4 4 10 8zM123 881q-2 -4 -8 -9q4 -2 6 -10q2 7 2 19zM213 680q0 33 -4 53q0 -88 -2 -67q2 8 6 14zM104 887l-2 10l-4 -4l2 -12zM147 819q-4 6 -10 8q-2 6 -2 -26q0 -8 6 -27q0 6 2 22.5t4 22.5zM170 725 h-12q2 0 3 -6t5 -6t4 12zM63 874l-4 11l-2 -6l4 -11zM215 584v41l-10 -25q4 2 6 4q2 -6 4 -20zM227 586l-4 6l-6 -23l4 -6zM141 715q-2 6 -2 18l-18 6q0 -12 6 -12q-2 0 14 -12zM238 535v12h-7v-12h7zM145 659l-2 39h-6l4 -39h4zM182 618l-2 9l-8 -15l2 -10zM195 596 q-8 0 -9 22q-2 -25 -8 -67q7 18 17 45zM109 721l-7 8l-2 -10l6 -8zM78 756q0 20 -2 39v20q-2 -10 -4 -27q0 2 -13 -2q6 -16 13 -38q2 6 6 8zM201 498q-2 12 0 45q-4 -4 -11 -6v-39h11zM221 473v12h-10v-12h10zM188 518v19h-4v-19h4zM98 684v10h-6v-10h6zM240 403 q-8 12 -11 39q-6 -20 -6 -32q2 0 8 -7q5 -2 9 0zM94 659v19h-4v-19h4zM61 733l-10 10v-10l8 -8zM207 453v12h-6v-12h6zM123 588v0v0v0zM106 608l-6 25l-2 -6l6 -23zM199 422v27h-4v-27h4zM96 616q0 4 -4 9q0 -10 2 -19.5t2 -3.5q-2 6 0 14zM129 549v10h-8v-10h8zM150 516 l-9 16l-2 -10l8 -14zM264 303v12h-8v-12h8zM184 500q-10 31 -12 30q2 0 -12 -10q2 -6 -4 -14q-2 -18 2 -23q-6 -59 16 -82q-8 33 -12 70q4 10 10 23q6 0 12 6zM215 393q-2 2 -6 8q-2 -6 -2 -20l6 -6q0 6 2 18zM178 418v0v0v0zM154 432v0v0v0zM225 287l-4 30h-4l2 -30h6z M205 309v13h-12v-13h12zM143 381v27h-4v-27h4zM94 471l-4 18l-2 -4l2 -14h4zM129 389v19h-4v-19h4zM147 301v25h-4v-25h4zM121 344v12h-12v-12h12zM141 299q-4 6 -8 -6q-2 2 -2 8t-2 10q0 20 2 27q-2 -8 -10 -25q-2 6 -6 6q0 -20 4 -32q16 0 22 12z" />
<glyph unicode="p" horiz-adv-x="628" d="M373 96l-4 -6v8l4 6v-8zM281 166v0v0v0zM350 29l-2 -6l-4 8l2 6zM369 -6l-2 -14l-5 4l5 14zM297 86h-4v27h4v-27zM225 158q0 -18 -2 -21q-2 4 -4 13q2 4 6 8zM195 109h-5v14h5v-14zM186 76h-4v20h4v-20zM205 16h-6v11h6v-11zM72 109l-4 -9v9l4 6v-6zM96 16h-6v11h6v-11z M592 743q0 -80 -41 -256q-27 -113 -59 -147q-2 -10 -11 -25q-6 -2 -14 -8q-8 -18 -29 -47q-16 -18 -39 -18l-57 51v26q-6 -6 -2 -16q-14 23 -37 78l-12 55q-6 18 -6 -8q0 -16 4 -55q10 -78 20 -117q8 -31 31 -68q10 -14 12 -14t18.5 -5t18.5 -5q8 0 2 16q6 -20 6 -10 q-2 -10 -2 -18q0 -6 2 -15.5t2 -13.5q4 -106 4 -96q0 -47 -14 -47q-2 0 -4 -3q-4 -2 -6 0q0 8 -4 9q-2 0 -1 -5.5t-3 -5.5q-2 0 -23.5 8.5t-25.5 8.5q-2 0 -31 -6t-33 -6l-7 4t-11 4h-39q-90 10 -103 10q2 10 -2 10q-2 0 -16 -8t-19 -8l-8 16v-10q-8 39 -8 41q0 33 8 67 q6 10 19 35q16 45 18 45q-2 0 2 -12q6 18 17 62q2 14 6 43q-2 29 6 57l16 270q2 123 6 371q0 2 -2 6q0 2 2 31q0 8 -2 2q0 2 2 11t2 11q-12 41 -6 95q-4 45 -10 118q-2 25 -9 66t-26 110q-6 18 -18.5 21.5t-22.5 5.5q-23 8 -12 8q-6 20 0 31q0 2 -2 4q-2 16 4 47v45 q33 23 47 23q4 0 4 -5t4 -5l203 16q6 -18 6 -31q0 -16 -8 -61l2 -47q2 8 12 39q6 18 4 32q8 18 27 49q4 2 12 7q20 18 15 18h14q4 0 2 -6t0 -6t20.5 3t20.5 3q12 0 53 -51q16 -20 27 -45q31 -92 29 -111q-2 -10 2 -10q2 0 2 12q8 -29 20 -86q31 -197 31 -244v-340zM543 1341 v21h-2v-21h2zM535 1352v16h-3v-16h3zM524 1378l-6 -4q2 0 -4 10l-4 -12l4 -14h6q0 6 4 20zM506 1327l-2 10l-2 -6l2 -8zM553 1231v20h-4v-20h4zM518 1317h-12q2 4 2 -14q4 4 10 14zM393 1516v10h-4v-10h4zM539 1278q-2 0 -4.5 -2t-4.5 -4q2 -2 2 -9.5t3 -11.5q0 11 4 27z M524 1276v14h-4v-14h4zM504 1303v14h-4v-14h4zM514 1272q0 2 -2 6v12h-8q10 -28 10 -18zM520 1247v21h-4v-21h4zM510 1249q0 18 -2 25q0 -2 -2 -10v-13q4 12 4 -2zM543 1204l-2 4l-2 -14l2 -4zM571 1147l-2 6l-4 -6v-8zM508 1233l-2 8l-2 -4l2 -8zM492 1262l-3 8l-2 -6l2 -9 zM541 1153v14h-2v-14h2zM512 1194v10h-6v-10h6zM530 1174q0 -2 -4 -6.5t-4 -10.5l4 12q4 1 4 5zM506 1190l-4 8l-2 -6l4 -8zM520 1171q-2 2 -8 11q-2 -10 -6 -11q4 -14 10 -34q0 -1 4 34zM547 1100l-2 8l-2 -4l2 -8zM498 1176v24h-4v-24h4zM442 1276l-2 14l-2 -2l2 -12h2z M342 1450v8h-4v-8h4zM422 1280v16h-4v-16h4zM526 1098q2 0 -8 4q0 -8 3 -15.5t3 -3.5q2 -1 2 15zM506 1122l-4 8l-2 -4l4 -8zM573 983q-4 0 -4 2v21l-2 12q0 -10 -4 -27v-14q0 8 2 8q8 0 8 -2zM301 1442l-2 16l-2 -4l2 -12h2zM543 991v43q-2 -2 -5 -9t-6 -9zM580 928v10h-5 v-10h5zM211 1569q0 6 -4 16q0 -4 -2 -11t-2 -11q2 6 8 6zM487 1077v10h-10v-10h10zM254 1497q-4 14 -12 27v-19h-6q4 -4 12 -20q0 18 6 12zM580 883l-5 10l-2 -6l5 -8zM197 1552v15h-4v-15h4zM475 1051v8h-4v-8h4zM557 887v14h-4v-14h4zM571 856l-2 8l-2 -6l2 -8zM260 1386 l-2 21l-2 -2l2 -19h2zM502 967l-4 2l-2 -15l4 -2zM553 911q-6 -4 -6 0q0 12 6 31v21q-18 20 -25 38q0 10 -6 33q2 8 -4 23q0 -2 -1 -7.5t-3 -9.5q-2 8 -6 21q2 4 2 12q-8 2 -10 23l-4 -11q0 12 -7 17l3 -31l2 -4v-12q8 -23 8 -25q0 -4 -4 -22q-2 4 -6 4q4 -12 2 -19 q10 0 10 -2q0 -33 0 -28q2 0 2 -3.5t2 -10.5t2 -9q0 -4 -3 -9t-3 -7q-4 -8 -10 -19q-2 -33 0 -39q-2 -10 -7 -22q8 2 17 -25q0 2 4 10q0 -4 3 -10t3 -12q-4 -8 -4 6l-10 -20q6 -10 14 -27q-4 -12 -10 -33l6 -14l4 10q2 -2 6 -4q0 14 5 44t7 44l7 -4q-4 -6 0 -14q2 -4 4 -9 q0 86 2 66l-2 -10q-4 4 -4 2q0 -20 -2 -21h-4.5h-4.5v6q0 8 9 23l2 10q2 -4 6 -4q-4 8 -2 16.5t2 18.5l6 6q0 4 2 12zM494 948v21h-5v-21h5zM182 1487l-4 4q-4 0 -6 -10q-2 0 10 6zM229 1389v8l-8 8v-10zM573 760l-2 4l-4 -14l4 -5zM186 1456h-4q-2 -2 -4 -2v-18h6q2 0 2 20 zM231 1366q-4 10 -10 -8l4 4q2 -8 6 4zM279 1266v0v0v0zM252 1305v10h-6v-10h6zM563 760l-2 4l-2 -14l2 -5zM135 1524q-4 -4 -10 -15h8q0 5 2 15zM567 731l-2 17l-2 -5l2 -12h2zM266 1253v15h-4v-15h4zM139 1493l-2 4l-4 -14l4 -4zM188 1399q-6 6 -16 18q6 -29 14 -31 q0 5 2 13zM461 901l-2 8l-2 -6l2 -8zM158 1427v0v0v0zM133 1456l-2 8l-2 -6l2 -8zM193 1325v6q6 29 0 31v-22.5v-14.5v0zM111 1489l-5 8v-6l3 -8zM535 723v8h-7v-8h7zM213 1292v15h-6l-2 -15h8zM143 1415v0v0v0zM168 1364l-2 16l-4 -4l2 -12h4zM545 692l-8 21q0 -4 -2 -15 q2 -6 10 -6zM524 727v0v0v0zM233 1245l-2 8l-4 -6v-8zM451 850v10h-5v-10h5zM555 657v9l-4 -7v-8zM246 1217q0 8 -5 10l-5 2q0 -12 -5 -12q4 -4 11 -15q0 2 2 4.5t2 10.5zM563 639v0v0v0zM532 707q-2 4 -6 6q6 -37 6 -33v27zM207 1257v21h-2v-21h2zM59 1526l-2 14l-4 -2 l4 -12h2zM180 1333h-14q4 -4 8 -12v-8q2 8 6 20zM496 727v10h-4v-10h4zM502 709l-2 22l-4 -4l2 -18h4zM518 713q-6 -2 -14 -6q2 -6 6 -13.5t4 -13.5zM252 1157l-4 8l-2 -8l6 -8v8zM522 668v8h-6v-8h6zM457 770v21h-2v-21h2zM553 606l-4 8l-2 -6l4 -8zM530 637l-2 20l-4 -2 l2 -18h4zM518 662v0v0v0zM510 682l-2 4l-6 -18l2 -6zM246 1151h-4l-2 -18l4 -5zM557 573v9h-4v-9h4zM422 1110q-4 68 -16 205q-8 23 -21 69q-4 29 -8 33v-10q-2 0 -5 11.5t-5 11.5t-7.5 -3.5t-7.5 -3.5t-1 6.5t-3 6.5q-14 0 -39 -119q-8 -47 -12 -129q-4 -90 -8 -127 q2 -258 0 -285q0 -2 10 -176q6 -37 14 -100q6 -14 17 -45q43 -25 37 -25q-2 0 18 35q2 14 14 90q6 66 13 199q4 76 6 112q0 25 2 43zM190 1221q-2 4 -8 12v8t2 37l-6 -4l-4 -14q2 -18 8 -64q4 0 4 12.5t4 12.5zM457 750l-2 2l-2 -13l2 -4zM211 1178l-2 8l-2 -4l2 -8z M535 588q-2 8 -7.5 20.5t-7.5 22.5q0 -14 -4 -15q5 -14 19 -28zM492 672l-3 2l-2 -12l2 -5zM500 645l-4 8l-2 -6l4 -8zM510 641l-6 -14q2 -4 4 -15q2 9 2 29zM547 557h-4l-2 -27h4zM221 1114l-2 16l-4 -4l2 -12h4zM475 651l-2 8l-4 -6v-8zM238 1051v8h-5v-8h5zM182 1143 q-4 45 -18 112q2 -12 4 -28q-2 -8 -8 -23q12 -33 0 -47q-2 14 -8 17q0 -16 -4.5 -16.5t-4.5 -14.5q2 -4 4 -10q8 -18 11 -37l6 12v-12l10 -4q0 2 -1 7t1 9q6 2 8 0v35zM506 602h-6l-6 -49q4 10 6 10q4 0 4 -16zM477 612v9l-4 -7v-8zM274 952q-2 25 -2 39q-2 -10 -5 -24.5 t-5 -18.5q2 -4 6 -16q0 -6 3 2t3 18zM227 1038q-2 4 -6 14.5t-6 16.5l-4 -12q-2 6 -4 6q6 -33 6 -35q4 -8 14 10zM193 1081v31q-8 -12 -11 -12q13 -19 11 -19zM283 924l-2 8l-5 -6v-8zM258 942v14h-2v-14h2zM494 508v20h-5v-20h5zM201 1034v8l-6 -6v-8zM152 1116l-2 10 l-3 -6l3 -8zM219 987q0 12 -4 27q-2 -12 -6 -27q2 -2 10 0zM465 561l-2 2l-2 -14l2 -2zM248 944l-4 14l-4 -8t-2 -8q4 -2 4 -12q4 4 6 14zM190 1014q-2 8 -10 33h8q0 6 -2 18t-2 14q-14 -23 -8 -22q-6 0 -6 -15l4 11q4 -10 8 -45l4 10q-2 0 4 -4zM485 500v10h-8v-10h8z M449 547v26h-5v-26h5zM512 444l-2 11l-2 -6l2 -9zM225 956q-2 -2 -8 -6q2 -6 4 -14q4 12 4 20zM197 987l-4 14l-3 -2l3 -12h4zM201 995h-4l-2 -30h4zM217 956q-4 0 -6 7q-6 -16 -6 -21q2 2 5 4t3 6q0 -6 2 -10q0 4 2 14zM227 922l-2 10l-2 -6l2 -8zM150 1053v14h-3v-14h3z M446 535l-8 -9h6zM283 817l-4 2q-4 -14 -3 -22q1 0 7 20zM168 1030q-8 -16 -4 -16q2 -12 2 -29q4 29 2 45zM248 856v8h-4v-8h4zM502 416l-2 4l-6 -12l2 -7zM268 817v10h-4v-10h4zM229 889q-6 2 -8 12v-10q2 -8 2 -10q2 6 6 8zM176 969q0 10 -2 22l-8 -20l6 -13q0 11 4 11z M489 406l-2 10l-2 -6l2 -9zM221 874l-2 17l-4 -2l2 -15h4zM252 809l-2 16l-2 -4l2 -12h2zM289 741v17h-4v-17h4zM233 834l-2 8l-2 -4l2 -9zM260 780q0 10 -4 23q-4 -6 -4 -23h8zM227 840v8h-6v-8h6zM201 866q-2 4 -11 19q0 -4 1.5 -11.5t3.5 -9.5q6 0 6 2zM225 811 q-2 0 -2 25q-4 -4 -8 -9q2 -10 6 -24zM287 672l-2 2l-2 -12l2 -5zM203 811l-2 8l-2 -4l2 -8zM176 874q-2 -8 -6 -14q2 -2 4 -8v12q2 6 2 10zM268 690l-4 8l-2 -6l4 -8zM260 700v9h-6v-9h6zM412 428v10h-6v-10h6zM281 653v15h-2v-15h2zM219 762l-4 8l-2 -6l4 -8zM170 842v14 h-4v-14h4zM276 666l-4 4l-2 -15l2 -4zM184 817q-2 2 -8 19q0 -6 2 -17.5t2 -13.5q0 6 4 12zM287 629v8h-6v-8h6zM301 578l-2 10l-2 -6l2 -9zM180 786v15h-2v-15h2zM426 352l-6 8v-8l6 -8v8zM197 756l-4 8l-3 -4l5 -8zM252 651v8l-6 -6v-8zM154 842q-4 -12 -9 -15q2 -4 5 -14 q4 13 4 29zM176 776v0v0v0zM244 641q0 6 -2 14.5t-2 10.5v-27q0 14 4 2zM203 741q-2 -2 -7.5 -1t-5.5 -7t4.5 -10t6.5 -4q2 6 2 22zM188 733v10h-4v-10h4zM225 678q-2 2 -4 8l-4 -16l4 4zM430 295l-2 2l-2 -14l2 -2zM242 616v11h-4v-11h4zM258 561v10h-6v-10h6zM250 571v11 h-4v-11h4zM193 670v14h-5v-14h5zM389 330l-8 8v-8l6 -6zM373 346l-2 8l-4 -6v-8zM319 440l-2 9l-4 -7v-8zM180 659v25h-2v-25h2zM338 385l-2 8l-2 -6l2 -8zM375 303q0 10 -6 14q0 -10 2 -20q0 4 4 6zM145 698v21h-4v-21h4zM178 633v0v0v0zM190 629l-6 -3t-4 -3q2 -4 2 -15z M276 414v16h-4v-16h4zM223 512l-2 8l-2 -6l2 -8zM209 532v0v0v0zM190 553q0 4 -2 16q-2 -6 -4 -10q4 0 6 -6zM254 418q-2 -6 -6 -12q2 -2 4 -9v11q2 8 2 10zM217 457l-2 8l-4 -6v-8zM190 506q-8 12 -10 12l4 -8q-4 -8 -4 -18q2 2 5 7t5 7zM174 524h-4l-2 -18l2 -4zM258 356 v9h-6v-9h6zM221 432q-4 14 -8 14q-2 0 -4 -5t-4 -5q-6 0 -6 17q-4 -27 -2 -39l6 16q6 2 18 2zM246 317q2 0 -10 7q6 -20 4 -21q2 0 6 14zM256 285v8l-6 -6v-8zM170 459q-2 -16 -4 -29q4 -8 4 -22q4 22 0 51zM188 375v16h-4v-16h4zM178 395l-2 2l-2 -14l2 -4zM219 303v14h-4 v-14h4zM207 352q-2 -2 -4 -5t-2 -5q-4 10 -2 10q-2 0 -11 -10q-4 23 -4 27q-4 -27 -6 -31q2 2 6 -3t6 -5t0 6q0 6 3 6q6 0 12 -16q2 -9 2 26zM268 213l-6 12v-4l4 -14zM166 383v10h-4v-10h4zM172 358l-4 7l-2 -7l6 -8v8zM215 268l-2 8l-4 -6v-8zM166 340q-2 -2 -10 0 q4 -8 8 -21q2 2 2 11v10zM203 260q-6 18 -19 47v-55l9 -23zM147 346q0 6 -2 16q-6 -6 -8 -20q8 12 10 4zM131 367l-2 18h-2l2 -23zM240 201h-11q0 -4 -2 -14.5t-2 -16.5q12 16 13.5 15.5t1.5 15.5zM221 184l-4 9l-2 -7l4 -8zM180 238v24h-2v-24h2zM207 207v8h-12v-8h12z M170 268l-4 8l-2 -6l4 -8zM211 190q-6 0 -8 7q0 -10 4 -23q2 6 4 16zM170 236v0v0v0zM160 250l-2 10l-2 -6l2 -8zM197 174l-4 12l-3 -4l7 -14v6zM145 236q0 -2 -2 -6.5t-2 -12.5t6 -8q2 0 5 8q0 8 -2.5 9.5t-4.5 9.5zM164 180q-2 -4 -2 23l-4 -13v17q-6 -14 -6 -21 q4 0 12 -6zM141 225q0 6 -2 17q-4 -14 -4 -27q8 10 6 10zM119 207v8h-4v-8h4z" />
<glyph unicode="q" horiz-adv-x="614" d="M467 117h-2v20h2v-20zM428 162h-4v14h4v-14zM424 137h-4v8h4v-8zM403 150l-2 -23l-2 2l2 21h2zM358 170l-2 -4l-2 8v6zM360 162l-6 -15v7l4 14zM324 154v0v0v0zM315 98l-2 -6l-2 8l2 6zM299 12h-4v11h4v-11zM575 125q0 -8 0 -6q-2 2 -2 0q2 -12 0 -45q0 -20 -2 -56 q-10 -27 -20 -26q-4 0 -44 6t-44 6q-2 0 -8 -6t-9 -6q-2 0 -17 3t-17 3t-2 6t-4 6q-2 0 -36 -9t-36 -9q-14 0 -21 8q-16 14 -10 14q-2 0 -7 -5t-24 -5h-6q-2 0 -17.5 -3t-19.5 -3q-10 0 -10 129q6 20 25.5 25.5t31.5 21.5q4 6 17 53q18 70 18 90q6 14 8 43q2 41 5 46 q-2 0 -7 8q-47 -145 -73 -146q2 0 -2 11q-4 -29 -13 -29q-2 0 -15 3t-15 3q-12 0 -41 35q-12 23 -31 57q0 6 -2 17q-8 6 -21 55q-6 18 -15 51t-26 107q-6 33 -12 131q-4 27 -10 84q-2 45 -2 122q0 -18 14 203q4 33 10 96q0 12 4.5 36t5.5 30t11 18q-4 51 -2 68 q20 111 35 129l-2 6q6 27 35 70q8 14 26 43q6 -2 17 0q33 12 24 12q4 0 3 -5t1 -5t13.5 5t13.5 5t4 -5t4 -5q4 0 0 10q2 -2 6 -14.5t6 -12.5t6.5 11.5t6.5 11.5t10 -14.5t10 -14.5t2 3t2 3q4 0 8 -10q2 2 41 -63q6 -8 21 -25l2 -10t4 -10h8q10 0 29.5 61.5t23.5 65.5 q18 14 35 14q20 0 21 -57q0 -55 -6 -183q-4 -47 -11 -155q-6 -96 -6 -103l4 -270v-158q0 -201 15 -368q6 -18 18 -58q12 -57 37 -108q6 -4 16 -11.5t10 -25.5zM449 1511q-2 2 -7 2q2 -8 2 -20q7 8 5 18zM461 1339l-2 9l-2 -7l2 -8zM301 1550v0v0v0zM289 1575q-2 2 -6 -3 t-4 -11l6 -13q0 13 4 27zM266 1571q0 14 -2 22q-2 -6 -2 -14q2 -6 4 -8zM272 1556v11l-4 -4l2 -11zM317 1473l-2 10l-2 -6l2 -9zM301 1542q-2 0 -10 -6q-6 -2 -6 0q-4 -8 -4 -16q0 16 10 -39v12h6q2 18 4 49zM451 1225q0 12 -2 26q-4 0 -5 -20q0 -16 2 -25q2 2 3.5 9.5 t1.5 9.5zM305 1479v10h-4v-10h4zM408 1282v10h-7v-10h7zM326 1415v15h-4v-15h4zM406 1276l-3 4l-2 -14l2 -4zM233 1563v0v0v0zM360 1348q-2 10 -8 -7q2 -2 4 -6q0 13 4 13zM242 1546l-4 8v-4l2 -8zM336 1356v8h-4v-8h4zM393 1247l-8 10v-8l6 -10zM418 1178v20h-4v-20h4z M193 1544v15h-5v-15h5zM385 1212l-2 7l-4 -15l2 -6zM436 1102l-2 10l-2 -6l2 -8zM453 1069l-4 8l-3 -6l5 -8zM426 1085l-4 11l-2 -6l4 -9zM432 1049v20h-2v-20h2zM436 1034l-2 4l-2 -14l2 -4zM346 1180v0v0v0zM426 1040v0v0v0zM199 1446l-6 6v-10v-12q0 4 3 8t3 8zM162 1483 v0v0v0zM412 1026v16h-4v-16h4zM420 1024l-4 2l-2 -14l4 -4zM182 1411q0 4 -4 12q0 -6 -4 -12q8 -4 8 0zM164 1452q-2 -2 -4 -6v-31q2 -2 4 -6v20.5v22.5zM401 1008q-2 -2 -6 -7q2 -6 4 -14q0 13 2 21zM434 918l-2 8l-2 -6l2 -9zM174 1368l-4 8l-2 -8l4 -8zM432 874v17h-2 v-17h2zM385 963v10h-8v-10h8zM123 1419v17h-4v-17h4zM375 961v0v0v0zM395 930l-6 12l-2 -4l6 -14zM403 907v8l-6 -6v-8zM365 940l-5 8l-2 -6l4 -8zM406 862l-5 8l-2 -8l4 -6zM164 1276q-2 6 -10 6q6 0 2 -25q4 9 8 19zM193 1208l-5 4l-4 -20l2 -4zM152 1251v15h-5v-15h5z M160 1229q0 8 -2 18q-2 2 -4 -4q2 -12 6 -14zM166 1200l-2 23l-2 -2l2 -21h2zM453 702l-4 5l-3 -15l3 -4zM424 750h-4l-2 -27h4zM389 780l-2 17l-4 -4l2 -13h4zM399 745l-8 17l-2 -17q4 10 4 11q2 -1 6 -11zM145 1204h-2l-2 -18l2 -4zM399 743l-4 2l-2 -14l2 -4zM186 1102 l-4 10l-2 -6l4 -8zM145 1176l-10 16q0 -6 3 -16.5t5 -14.5q0 5 2 15zM330 1034l-2 6v17.5v15.5q0 82 -2 109q-4 49 -11 133q-6 35 -14 69q-12 53 -33 78q-2 10 -2 25q0 -12 -4 -23q-4 6 -8 6t-16 -14q-4 -4 -13 -49q-4 -12 -10 -35q-8 -55 -10 -80q-10 -258 -10 -370 q0 -6 2 -43v-52q0 -100 8 -192q2 -27 5 -66t17 -90q18 -59 31 -59q31 0 49 92q8 49 17 381q0 20 3 77.5t3 63.5zM406 674v18q0 -6 -11 -4q5 -12 11 -14zM133 1139v20h-4v-20h4zM412 633v26h-4v-26h4zM141 1110q2 0 -10 -12q2 -12 6 -11q0 6 2 13.5t2 9.5zM467 508v8h-6v-8h6 zM401 608l-2 2l-2 -14l2 -2zM109 1112q-4 2 -7 8v-14q1 4 7 6zM188 956v11h-4v-11h4zM453 465v6l-4 -6v-8zM109 1063l-3 2l-2 -14l2 -2zM172 926v20h-2v-20h2zM176 922l-2 4l-4 -13l2 -6zM160 944l-4 4l-2 -14l4 -4zM391 510v14h-4v-14h4zM408 485l-2 9l-3 -7l3 -8zM147 934 v10h-6v-10h6zM98 1018l-4 10l-2 -6l4 -8zM399 479l-2 8l-2 -4l2 -8zM379 504v20q-2 0 -6 -14q2 0 6 -6zM182 866l-2 2l-4 -14l4 -2zM422 436l-8 8v-8l6 -8zM121 956v11h-6v-11h6zM416 424l-4 8v-6l2 -8zM156 870v31h-4v-31h4zM410 430l-2 8l-5 -6v-8zM147 874v27 q-2 0 -6 -12q6 -21 6 -15zM172 825l-2 21l-2 -2l2 -19h2zM131 893v14h-4v-14h4zM115 899v0v0v0zM76 963v8h-4v-8h4zM106 924l-6 -15q0 -2 2 -7t2 -9v18q2 11 2 13zM326 514l-2 8l-2 -6l2 -8zM369 446h-4l-3 -18l3 -4zM379 412l-2 8l-2 -4l2 -8zM465 254l-2 10l-2 -6l2 -8z M485 201l-4 16l-2 -2l2 -14h4zM131 844l-4 2l-2 -15l4 -2zM145 815q0 -4 -6 -4l6 -20q0 -1 0 24zM172 731q-2 4 -2 14l-4 -12q-2 0 2 -10zM90 874l-2 9l-4 -9v-8zM367 373v10h-5v-10h5zM186 680l-4 14h-6q0 -6 3 -15t3 -15q0 2 4 16zM166 700v17h-4v-17h4zM397 285v20h-4 v-20h4zM459 168v20h-2v-20h2zM174 670l-4 20l-2 -6l4 -18zM397 276l-4 11l-2 -6l4 -9zM408 246l-2 16l-3 -2l3 -14h2zM379 313l-4 -16q4 -4 4 -12q6 14 0 28zM195 616l-2 17l-3 -2l3 -15h2zM156 702q-4 8 -13 -10q2 -6 2 -14q0 12 2 16l5 -10q0 14 4 18zM373 274q-2 8 -6 21 v-12q2 -12 2 -15q4 8 4 6zM49 836v14h-4v-14h4zM305 387l-2 6l-6 -14l2 -6zM356 270q-4 2 -6 9l-4 -15q6 0 10 6zM389 193v0v0v0zM340 276l-2 11l-2 -6l2 -9zM334 258v37h-4v-37h4zM248 399l-8 17v-8l8 -17v8zM193 502l-5 2l-2 -15l2 -4zM238 395l-2 8l-3 -6l3 -8zM180 489 q-6 6 -12 21q0 -39 2 -41q4 18 10 20zM217 412l-4 2l-2 -15l4 -2zM205 424l-2 8l-4 -6v-8zM127 553l-2 8l-4 -6v-8zM225 389q-4 -4 -8 -22l6 -15q0 25 2 37zM152 489v11h-5v-11h5zM319 186v11h-6v-11h6zM207 381v14h-4v-14h4z" />
<glyph unicode="r" horiz-adv-x="636" d="M377 29l-6 -9v11l6 8v-10zM389 10l-8 -10v10l6 8zM352 37v0v0v0zM367 6l-2 -6l-5 10l2 6zM354 20v-8l-8 6v11zM279 16q2 -10 -3 -24q-6 0 -10 22q4 -8 6 -8q5 0 7 10zM262 0h-4l-4 14l4 4zM598 1200q0 12 -2 -12q2 -10 2 -29v-8q-23 -10 -23 -47q0 -12 5 -23q-2 2 -7 6 q2 -20 -4 -36q0 16 -4 41q-2 -10 -4 -31t-2 -31q-2 8 -6 33q-2 -12 -2 -39q0 -14 6 -57q0 4 -2 14q-2 -4 -6 -10t-17 -13q4 0 -6 13q-6 -16 -16 -64q-10 2 -39 51q-2 0 -4 -6q-2 18 0 23q-2 8 -12 12q-25 49 -31 207q0 39 6 86q4 31 14 59q0 10 2 27v18q-23 31 -26 29 q-10 0 -45 -57q0 2 -4 6q-4 -20 -15.5 -59t-29.5 -123q0 -6 -2 -39q-2 -4 -5 -17q-6 -178 -6 -170q2 -156 9 -460q0 -4 -5 -33q4 -10 9 -12q0 -4 -4 -58l2 -39q2 -2 8 -12l2 -53q-10 25 -15 41l-8 -6q6 -25 11 -25q-2 -6 -5 -37l-8 -10l-4 -10q2 -6 4 -17h6q6 20 7 29 q6 -18 6 -19l-6 -8q-5 -8 -9 -8q-6 -2 -7 2t-7 23q2 -6 -4 -15q4 0 -2 15q-4 -18 -4 -23q4 -4 10 -16q-14 -2 -10 -78q-2 0 -6 -8t-7 -11q-4 -12 0 -24q-8 -25 -4 -47q-4 12 -14 39q-8 -39 -6 -62q-12 -8 -29 -18q-12 0 -18 12q0 -6 -4 -20q-4 6 -11 26q-2 -10 -10 -22 q-4 4 -12 6l-18 -2q-6 10 -17 20q-4 -2 -4 -5t-2 -3q-6 0 -14 27q-4 -10 -13 -23q-4 0 -8 27q-2 -4 -2 -27q-2 0 -4 6q-4 -10 -12 -28q0 14 -4 10q-2 4 -4 33q2 47 0 139q2 2 28 4q2 0 12.5 25.5t14.5 25.5q-4 0 6 -6q-4 -10 -4 23q0 6 8 61q10 66 13 93.5t8 205.5 q0 6 2 31.5t2 38.5q-2 162 -2 340q-10 334 -66 393q-23 25 -20 25q-2 0 -3.5 -4.5t-3.5 -4.5q-6 0 -10 15q0 4 -2 14q-4 63 -2 70q-4 10 -6 4q2 16 -2 39q0 -2 1 6t5 8q4 2 6 -6l4 12q-2 4 -6 4q2 8 10 19q4 -2 15 -4q0 -4 2 -9v-6q0 6 4 15q2 0 25.5 -11.5t33.5 -13.5 q8 6 21 -8q4 -4 8 10q18 -23 35 -20q2 0 12 8t12 8q2 -8 11 -14q0 8 4 14q4 2 17 -9.5t22 -15.5q0 6 2 13q10 -8 28 -29q-2 -78 -4 -229l4 -11q14 63 37 127q-4 0 2 -14q6 41 21 70q23 43 26 51q0 -16 -2 -17q-2 -4 4 -4q4 12 12.5 32t20.5 30q4 2 14 6q6 0 17.5 -22.5 t17.5 -22.5l8 14l7 -12q0 -2 6 -21q2 6 8 15h6q4 -23 21 -35q25 -45 38 -92q2 -10 5 -33q4 -14 16 -47zM426 84l-6 -16l-2 6l6 16zM377 66h-4v18h4v-18zM360 96l-8 -16l-2 10l8 16zM197 147h-7v11l7 2v-13zM180 180q0 -23 -2 -24q0 4 -4 16q6 0 6 8zM178 74h-4v18h4v-18z M543 1440v18h-4v-18h4zM537 1444l-5 10l-2 -8l2 -8zM504 1458v25h-4v-25h4zM481 1462v19h-4v-19h4zM578 1229h-3l-2 -23l2 -4zM543 1206l-2 8l-9 -8l3 -10zM518 1225q-2 12 -6 30q0 -6 -4 -8q4 -6 10 -22zM510 1225l-2 20l-4 -4l4 -16h2zM569 1122l-6 17q-2 -14 0 -33z M557 1102l-4 10l-2 -6l4 -10zM537 1061l-7 -14q-2 0 -5 -7.5t-5 -7.5v-26q15 28 17 55zM514 999v19l-4 -2v-19zM504 1014l-4 4l-2 -19l2 -4zM508 995l-2 11l-4 -9v-10zM520 956q-2 8 -4 21q-2 -6 -6 -10zM492 997v25h-5v-27zM506 956q-4 10 -4 23q0 -6 -2 -14q2 -7 6 -9z M485 983q-4 8 -4 29q0 -10 -4 -21q4 -6 8 -8zM147 1440l-2 12h-10l2 -12h10zM223 1204l-4 21l-4 -4l4 -17h4zM301 1063v12h-6v-12h6zM299 1026v18h-4v-18h4zM252 971l-4 10l-2 -8l4 -8zM279 791l-7 8v-11l7 -8v11zM248 788v19l-4 -2v-19zM238 803l-2 4l-3 -19l3 -4zM244 766 v27h-4v-27h4zM307 631v0v0v0zM287 657l-2 11l-2 -6l2 -11zM289 555v10h-6v-12zM309 492q0 4 -3 16t-3 16q-2 -20 -2 -41q4 5 8 9zM272 573l-4 2l-2 -16l4 -4zM293 489q-2 10 -2 23q0 -6 -4 -14q2 -7 6 -9zM231 598v10h-8v-12zM246 555l-4 18l-2 -4l2 -16zM281 481v27l-5 -2 l3 -25h2zM266 473v10q-2 6 -2 11q0 2 -4 -2q0 -3 6 -19zM324 342q-4 10 -11 25l2 -25h9zM250 459v30h-4v-30h4zM211 539v0v0v0zM283 385l-2 53h-5l3 -53h4zM289 360q-2 2 -4 11.5t-2 13.5q0 -6 -2 -20q10 -5 8 -5zM215 483q-2 6 -4 19q-2 -4 -4 -10q2 -9 8 -9zM272 391l-8 8 v-10l6 -8zM231 408v18h-4v-18h4zM276 332q-12 47 -24 63q6 -16 10 -47q-4 6 -4 -2q2 -4 12 -29q0 5 6 15zM307 258q0 27 -8 39q-2 -14 -8 -16q2 29 8 47q-4 8 -8 22q-2 -14 -10 -35l2 -59q6 0 12 -14q4 20 12 16zM256 360l-2 11l-6 -9v-10zM371 123l-4 10l-2 -6l4 -10z M205 410l-4 10l-2 -6l4 -11zM285 227l-4 21l-2 -4l2 -17h4zM403 35q-2 18 -8 45q0 -14 -4 -14l-4 12l-6 6q4 -20 -2 -37q4 -4 14 -31q-4 -2 8 -24q-6 14 -6 31q2 16 8 12zM258 276q-6 10 -12 27q2 4 8 4q-2 10 -4 27q-6 -14 -17 -39q2 -4 4.5 -12.5t2.5 -12.5q2 0 6 9 q2 -10 6 -27q0 6 6 24zM344 106l-4 11l-2 -6l4 -11zM330 135l-2 8l-4 -8v-10zM205 354h-4q2 -18 4 -18v18zM432 23l-6 18q-2 -4 -6 -8q0 12 -2 27.5t-2 21.5q-2 -18 -6 -49q-4 25 -17 71q0 2 3 6.5t5 8.5q-4 -14 -10 2q0 -8 -6 -29q-2 6 -8 17v20q2 4 8 14q-2 4 -8 3t-12 26 q-2 -27 -13 -76q-2 4 -5 8.5t-3 8.5q2 12 2 22q-2 2 -4 8q-2 -14 -8 -28q-2 0 -4 -7.5t-4 -7.5q-2 4 -9 0q-2 20 -8 54q0 -12 -4 -15q-6 20 -6 21q-4 0 -6 -10q0 -25 -2 -46q-4 10 -6 2l2 -8q0 -8 -4 -41q2 10 10 21q-2 -2 12 -6q0 16 2 20l4 -14q0 23 2 28q2 -10 6 -18 q-2 10 3 12q2 -4 3 -10t3 -10q0 14 2 20q0 -8 4 -22q-4 -12 -4 -25q6 20 10 4q-4 -12 -10 -51q4 -2 6 2t4 4q6 0 6 -39q6 20 19 62q12 -47 16 -45q14 0 12 2v-15q2 2 8 15q8 -20 7 -21q2 4 6 9q-2 10 -4 28q-2 -2 -7 2q-2 10 3 23q2 -2 16 -47q0 6 4 20q-8 -2 -10 4 q6 19 16 13zM342 84v0v0v0zM219 311q-2 16 -12 17q2 -4 10 -29q-4 10 2 12zM262 221v0v0v0zM360 37l-2 24h-4l2 -26zM301 143v0v0v0zM303 119l-2 10l-4 -10v-10zM285 219q-4 -16 -17 -35q-2 0 -10 21q-2 -16 -8 -37l-4 14q-2 -10 -2 -26q2 -4 8 -15q0 4 -4 17q2 2 12 18 q-2 0 6 -24q2 0 10 4l-6 -2q7 22 15 65zM238 240q-8 4 -9 12q0 -2 -4 -16q-2 6 -4 2q4 -6 10 -23q1 21 7 25zM180 281v18h-4l2 -18h2zM274 121q-4 6 -8 22l2 -39q0 -8 6 17zM262 102v25h-4l2 -25h2zM188 258h-4l-2 -25l4 -2zM266 92v0v0v0zM238 106l-2 60q-4 2 -9 6 q1 -56 11 -66zM250 102l-4 7l-6 -25l2 -6zM211 150l-2 10l-4 -6l2 -11zM213 106v15q-2 12 -2 16q0 -2 -6 -18q8 -3 8 -13zM227 102l-4 2l-2 -16l4 -4zM150 190l-3 13h-4v-13h7z" />
<glyph unicode="s" horiz-adv-x="595" d="M524 473q0 -119 -28 -235q-2 -16 -7 -41q-16 -57 -34 -103q-6 -10 -27 -31q-2 -8 -8 -22q-23 -23 -28 -23t-7 -4t-4 -4h-31q-2 0 -2 -6v0q0 -6 -2 -6q-20 0 -29 8l-2 -6l-12 -2q-12 0 -76 35q-8 16 -24 37q-8 8 -37 43q-14 20 -37 20q-43 0 -59 -129l-8 12q-7 11 -15 11 l-2 544q0 6 2 27v29q6 14 27 43q6 -23 8 -37q25 -231 98 -369q6 -16 39 -63t36 -47t33.5 -7.5t35.5 -7.5q-4 0 69 37q12 6 23 84q4 27 4 53q0 14 -8 39q-2 16 -11 43q-25 49 -67 82q-35 23 -68 45q-49 39 -61 51q-39 39 -72 95q-100 172 -92 397l-2 8q0 143 22 264 q18 92 54 162q8 16 24 51q14 23 25 23q2 0 6 -14q4 2 0 12q23 16 31 16q18 0 22 12q0 -12 6 -26h4q4 27 23 26q2 0 0 -6t0 -6q4 0 5 3t3 3q18 0 75.5 -67.5t68.5 -67.5q33 0 43 121q12 -4 26 14q0 -35 2 -34q2 0 2 14q2 -18 4 -49q10 -49 7 -123q2 -12 6 -12v-215 q-2 -8 -6 -27q2 -37 0 -123q-14 -29 -35 -41q-6 18 -8 49q-23 238 -127 359q-10 18 -29 36q-43 16 -53 17q-33 0 -56 -39q-29 -49 -28 -137q0 -147 104 -209q8 -6 27 -15q86 -10 157 -163q80 -170 80 -408zM379 885l-4 10l-2 -6l4 -10zM332 879v10h-6v-10h6zM367 807v24h-5 v-24h5zM446 653v13h-6v-13h6zM391 750l-2 10l-2 -6l2 -11zM399 715l-4 10l-2 -6l2 -10zM334 823v13h-6v-13h6zM360 791q-6 -2 -8 -13q-2 29 -12 82q0 -4 -2 -12v-12q2 -4 8 -21q-4 -37 -12 -55q10 0 8 -23q2 12 8 17q2 17 10 37zM143 1128l-2 13l-2 -8l2 -11zM406 621l-5 10 l-2 -6l4 -11zM426 580l-4 10l-2 -6l4 -11zM449 539l-5 2l-2 -17l2 -4zM395 596v33l-6 -17zM297 788l-2 5l-4 -19l4 -4zM362 659q0 12 -14 9q8 -43 8 -35q0 6 3 12t3 14zM455 475q0 4 -2 11.5t-2 9.5q0 -6 -2.5 -16.5t-2.5 -12.5q7 0 9 8zM334 678v24h-4v-24h4zM391 561 q2 8 -4 27q0 -6 -2 -17q2 -8 6 -10zM377 563l-4 19l-2 -4l2 -15h4zM254 784l-2 11l-8 -17l2 -8zM221 844l-4 2l-2 -17l2 -4zM184 874q4 20 0 31q-2 2 -4 2q0 -25 4 -33zM451 403h-5l-2 -22l5 -4zM340 575l-2 9l-6 -17l2 -8zM309 598l-4 4l-2 -16l2 -4zM217 778q-2 -4 -4 -4 q-8 0 -10 31q0 2 0 -41q-2 0 -3 4t-3 4q-6 0 -9 -35q4 8 9 -6l4 14q0 -14 10 -40q0 6 2 18q-4 2 4 55zM182 770h-2l-4 -22l4 -5zM449 264v19h-5v-19h5zM135 829l-2 5l-4 -19l4 -4zM170 729v10h-6v-10h6zM162 731l-2 27l-4 -2l4 -25h2zM152 739v31h-5v-31h5zM141 721l-2 12 l-4 -6l2 -12zM137 705l-2 20l-4 -4l4 -16h2zM317 59l-8 9v-11l6 -8zM254 125l-2 10l-2 -6l2 -10zM264 72v16q-2 12 -2 14q0 -6 -4 -14z" />
<glyph unicode="t" horiz-adv-x="542" d="M436 170l-4 -14l-4 4l4 12zM387 127q-2 0 -6 6q4 6 4 10q0 -10 2 -16zM399 88l-4 -6l-2 8l2 6zM393 96q-4 -6 -8 -22q0 2 -2 5t-2 9q0 16 8 16zM352 104h-4v15h4v-15zM328 141q4 0 -13 0l9 21q0 -4 2 -11.5t2 -9.5zM328 129l-6 -6v8l4 6zM311 137h-4v19h4v-19zM295 164 l-2 -8l-4 4l2 8zM301 143h-8v11h8v-11zM291 104l-2 -6l-6 6l2 7zM299 70h-4v24h4v-24zM274 80h-4l-2 16l4 4zM207 141h-4v15h4v-15zM506 338q0 -8 -6 -45t-21 -98q0 -63 -55 -134q-6 -8 -21 -22q-31 -23 -47 -23q-4 0 -26.5 -2t-24.5 -2q-27 0 -33 2q-18 8 -43 45 q-2 14 -6 19q-61 98 -57 303q-10 125 -4 145v293q-2 4 -6 4q4 289 -60 289q-2 0 -10 -3t-12 -3q-16 0 -27 8q-8 80 -8 103q0 16 2 24q6 -10 10 -10q2 0 20.5 12t26.5 17q8 -4 29 -3q31 18 57 86q6 18 15 62q37 233 43 233l20 -2h31q4 0 13 -4t12.5 -4t19.5 -12v-19 q-8 -8 -4 -28q16 -139 12 -305q2 -12 4 -19q20 6 72 6q2 0 14.5 5.5t14.5 5.5q23 0 22 -72q0 -47 -19.5 -47t-52.5 -4q-14 -2 -30.5 -32t-14.5 -63q-8 12 -14 9q4 -12 12 -31q-2 -4 -4 -9t-4 -7l2 -39q2 2 6 4v-51q0 8 -4 26q-4 -8 -4 -16q0 -6 5 -18.5t5 -18.5t-4 -12v-256 q14 -10 4 -84v-170q4 -8 4 -6q4 -29 2 -72q29 -86 37 -86q18 0 29 65q4 35 6 68q10 51 10 63q2 0 8.5 3.5t10.5 3.5q14 0 28.5 -23.5t14.5 -48.5zM332 1528q-6 6 -2 16q-6 -4 -11 -12q3 -4 13 -4zM328 1503l-4 8l-2 -6l4 -8zM238 1565l-5 8l-2 -6l5 -8zM262 1503l-4 8l-2 -6 l4 -8zM317 1405v8l-6 -6v-8zM436 1159v19h-6v-19h6zM412 1202l-4 8l-2 -4l2 -8zM422 1161v8h-6v-8h6zM268 1446l-4 2l-4 -14l4 -2zM295 1362v10h-6v-10h6zM391 1188v8h-8v-8h8zM295 1346v12h-4v-12h4zM313 1317v8h-8v-8h8zM264 1401l-6 6l-2 -6l6 -8zM283 1358v8h-7v-8h7z M309 1307v8h-6v-8h6zM336 1239l-6 18l-4 -4l6 -18zM369 1176l-2 4l-5 -15l5 -2zM348 1208l-4 2l-2 -14l2 -2zM297 1290l-4 8l-2 -4l2 -8zM360 1169l-4 7l-6 -19l4 -6zM336 1190v18h-4v-18h4zM317 1227v0v0v0zM328 1186q-4 10 -4 33q-10 -12 -11 -19q0 -8 3 -14l3 -6q3 4 9 6 zM258 1303v20h-4v-20h4zM348 1153q-4 20 -10 21q-6 -12 -8 -13q4 0 18 -8zM264 1296v9h-6v-9h6zM301 1217v18h-4v-18h4zM285 1251l-9 6v-6l7 -8zM328 1167l-2 9l-9 -7v-8zM360 1104l-4 8l-2 -4l2 -8zM264 1272l-2 6l-4 -6v-6zM256 1278q0 12 -4 35q-4 -6 -4 -31l-4 4 q0 -12 -4 -12q12 4 16 4zM266 1260l-2 8l-2 -6l2 -7zM315 1188l-8 -12q8 -4 4 -11q4 7 4 23zM297 1202v0v0v0zM354 1114q-10 10 -14 29q0 -2 2 -8v-9q-4 -12 -14 -34q4 8 8 20q4 -10 4 -16l6 10l2 -4zM328 1124v0v0v0zM285 1202l-4 8l-2 -4l4 -8zM301 1174l-2 6l-6 -6v-7z M289 1186q-2 6 -10 6q2 -2 4 -9t2 -9q2 4 4 12zM348 1061v14h-4v-14h4zM336 1090l-4 2l-4 -19l4 -4zM305 1128q-4 23 -2 29q-2 -8 -6 -20v-13.5v-11.5zM260 1192l-4 8l-2 -4l4 -8zM326 1065l-2 16l-5 -4l3 -12h4zM264 1169l-4 17l-4 -6l6 -15zM317 1073q-6 14 -4 29 q2 0 -8 4q0 -23 6 -45zM328 1063l-2 2l-4 -12l4 -4zM219 1229v8h-6v-8h6zM291 1116l-2 8l-10 -18l2 -6zM211 1245l-2 8l-4 -6v-8zM334 1016q4 12 2 14q-6 2 -10 8v-18q2 0 6 4zM258 1128v25q-6 0 -6 -10v-15h6zM248 1151l-4 8l-2 -6l4 -6zM289 1081q-6 16 -19 41 q-2 -2 -5 -12t-3 -12q8 -6 12 -27q2 2 3.5 7t3.5 7q2 -4 8 -4zM289 1067v0v0v0zM264 1116l-6 8l-2 -8l6 -6zM307 1040l-8 35q-4 -23 -14 -31q-4 8 -4 25q-4 -4 -13 -12l25 -25q-8 6 -4 8q2 0 5 4.5t5 4.5q-2 -1 8 -9zM311 1026l-4 4l-4 -18l2 -4zM252 1120l-2 2l-4 -12l4 -4 zM254 1104v0v0v0zM233 1141l-4 8l-2 -6l4 -6zM221 1188q-2 -4 -6 -2q-4 -10 -16 -27h8q2 0 2 4t2 4q4 0 3 -2t3 -2t4 25zM221 1149v14h-4v-14h4zM260 1083q-2 2 -4 7q0 -18 -2 -23q2 8 6 16zM293 1016v0v0v0zM182 1221l-10 6v-8l8 -7zM244 1110q-4 0 -8 6q0 -2 2 -11t2 -11 q0 4 4 16zM248 1094l-2 8l-4 -4l2 -8zM305 995l-14 -12h10q0 10 4 12zM195 1176l-9 12q0 -2 2 -12.5t2 -12.5q3 5 5 13zM346 958q-6 16 -6 29q-2 -2 -4 -10q-6 14 -10 6q-2 2 -7 4h-4q-4 -8 -10 -24l-4 4t-4 6q-2 -4 -3 -13.5t-3 -11.5q4 -2 8 -12q2 12 8 20q6 -14 17 -14 q-4 -8 -2 -37l4 4q-2 0 10 -10q4 10 8 23v28l-6 -4q-2 0 -2 6q2 8 2 11q-4 -1 8 -5zM287 1008l-2 8l-9 -6v-9zM276 1026q-10 18 -12 18q-4 -2 -6 -8q4 0 8 4q0 -6 10 -14zM240 1073v8h-7v-8h7zM311 932l-2 20l-4 -4l2 -16h4zM268 1006v0v0v0zM283 973q0 8 -9 24q0 -4 -6 -8 q7 -4 15 -16zM332 889l-4 -4t-4 -2q4 -2 6 -9q0 5 2 15zM322 903l-5 12q-4 -2 -6 -8q0 -8 6 -22q5 6 5 18zM225 1063l-2 8l-4 -4l4 -8zM295 940l-4 8l-2 -6l2 -8zM307 913v9l-10 6v-8zM342 874q-6 -12 -12 0v-12q-2 -10 -2 -14q2 0 5 5t7 5t2 16zM256 1004q-2 4 -10 4l8 -21 q2 4 2 12v5zM346 842l-6 -4q4 0 -6 8q6 -10 6 -23q2 2 4 9.5t2 9.5zM293 928q-6 4 -10 14q-6 -12 -9 -12q1 -2 19 -2zM229 1032l-6 19l-4 -4l6 -19zM199 1071v19h-4v-19h4zM252 969v18q-14 18 -19 21q0 -4 -2 -17v-24q21 0 21 2zM332 848q-4 -4 -25 10q0 10 -3 27.5t-3 19.5 q-4 -4 -4 8q0 -8 -2 -32v-35q-6 -8 -6 -23q4 -2 10 0q6 4 8 4t6 -8t6 -8t7 12q6 -12 2 -12q4 0 4 14v23zM217 999v29h-4v-29h4zM338 780q0 33 0 31q-6 0 -4 -18q0 -5 4 -13zM180 1079l-4 2l-2 -14l2 -2zM270 915q-4 -2 -6 -8q2 -4 4 -12q0 32 2 20zM254 938v23 q-8 -10 -14 -11q6 -20 4 -30h-8q8 -4 10 0q6 14 8 18zM328 795q-6 2 -6 10v-19q4 1 6 9zM188 1038v9l-6 -7v-8zM264 899l-8 19l-2 -7l8 -18zM291 850l-6 14q0 -18 -6 -30q6 6 12 16zM350 731v0v0v0zM319 776q-4 6 -8 15q2 -16 6 -37q0 6 2 14v8zM184 1008l-4 6l-2 -4l4 -9z M283 825v0v0v0zM309 774l-4 8l-2 -6l2 -6zM250 887q-6 10 -6 16q-4 0 -8.5 -4t-4.5 -12l2 -8q0 6 7 16q2 -8 10 -8zM205 954v9h-6v-9h6zM291 793v18h-4v-18h4zM340 727q-6 10 -10 0q0 -2 2 -9t2 -9q0 2 2 9t4 9zM330 707l-2 8l-4 -4l4 -9zM170 991v8h-12v-8h12zM262 813v23 l-6 12q-4 0 -6 4q0 -8 4 -16q0 -2 -4 -5.5t-4 -7.5q4 0 16 -10zM213 920q-4 -4 -12 -15q2 -6 8 -16zM295 741l-8 19v-12q0 -7 8 -7zM217 883v8h-6v-8h6zM283 764q0 10 -9 27q-4 -12 -4 -25q2 -2 9 -8q2 2 4 6zM315 698v15h-4v-15h4zM240 836q-4 4 -2 12q-8 -8 -9 -21 q3 7 11 9zM176 940v8h-6v-8h6zM254 799v10h-6v-10h6zM213 864l-2 21l-4 -2l4 -19h2zM336 649l-4 4l-2 -14l2 -2zM268 756v14h-4v-14h4zM238 825q-2 0 -4.5 -2t-6.5 -2l6 -14q1 12 5 18zM289 709v14h-4v-14h4zM174 918v10h-6v-10h6zM334 629l-4 8l-2 -4l2 -8zM199 866l-4 8 l-2 -4l4 -8zM338 612v13h-4v-13h4zM223 821v8h-8v-8h8zM301 709q-16 0 -22 -9q2 -4 4 -12q2 4 6 4t8 -8q0 2 2 11.5t2 13.5zM233 803l-2 6l-6 -12l2 -6zM281 707v8h-9v-8h9zM260 727l-8 8q0 16 2 29q-4 4 -4 10q-4 0 -6 -2t-4 -2q6 -16 6 -25q0 -14 8 -30zM197 842l-4 8 l-3 -6l5 -8zM342 580q-4 16 -12 20q0 -6 -4 -8q10 0 16 -12zM301 643v12h-4v-12h4zM340 565l-10 6v-8l8 -6zM332 580h-6l-2 -31h4zM340 543v8h-8v-8h8zM279 651l-3 6l-4 -4l4 -8zM190 805v0v0v0zM256 696q-4 2 -6 6q0 -12 -4 -24q4 10 10 18zM225 743l-8 9l-2 -9l8 -8z M276 623v18h-4v-18h4zM178 799v10h-6v-10h6zM285 618l-4 3l-2 -13l2 -4zM254 668l-4 4q0 -4 -2 -13q4 5 6 9zM336 502l-2 8l-6 -6v-8zM297 553v20q0 4 -10 17q0 6 10 -37zM463 276v9l-10 -9v-8zM283 584v8h-7v-8h7zM240 666q-8 8 -9 20q0 -39 0 -37q-3 13 9 17zM256 625v8 h-6v-8h6zM307 528l-4 17l-4 -4l4 -13h4zM322 514l-5 4l-6 -12l4 -4zM248 635v8h-8v-8h8zM272 580l-6 26l-2 -4l4 -22h4zM276 559l-2 16l-4 -4l4 -12h2zM297 524v13h-4v-13h4zM334 477q-6 0 -10 25q0 -2 -2.5 -11.5t-4.5 -13.5q-6 10 -6 17q0 -2 -4 -13q-6 12 -6 -4 q2 -4 6 -10q0 6 4 14q4 -8 0 -18h21q2 -2 2 14zM258 580q-4 16 -12 41q0 -10 -6 -23q4 2 18 -18zM283 528v19h-4v-19h4zM330 449v8h-6v-8h6zM238 618l-2 3l-5 -13l5 -4zM289 494v0v0v0zM236 588l-5 8l-2 -4l4 -8zM193 645v8h-7v-8h7zM283 502h-4l-3 -19l3 -2zM211 625h-4 l-2 -23h4zM334 379v22v-12h-6q2 0 6 -10zM426 221v8h-6v-8h6zM303 459q-4 2 -6 8q-8 -4 -8 -18q0 -8 2 -15v-10q4 6 7 18.5t5 16.5zM287 465v8h-11v-8h11zM246 512v25l-13 26l-6 -12q8 0 9 -4v-12q2 0 6 -5q2 -12 4 -18zM213 588l-2 2l-4 -12l4 -5zM197 604l-2 8l-7 -6v-8z M270 446q0 37 -2 56q0 -10 -2 -31q-4 8 -12 21q12 -36 16 -46zM240 516v8h-7v-8h7zM301 410l-8 12l-2 -8l8 -13zM326 369q-2 12 -13 6q6 -2 6 -13q3 7 7 7zM285 422v0v0v0zM197 578v8h-9v-8h9zM279 428v8h-9v-8h9zM248 475l-2 8l-6 -6v-8zM301 375q-2 6 -5 17t-3 18l-4 -25 l4 -4q-2 -8 -8 -21q2 -4 2 -12q2 2 6 11.5t8 15.5zM229 489v11h-6v-11h6zM279 410l-3 6l-6 -13l2 -6zM219 494l-4 18l-2 -2l2 -16h4zM209 508l-2 14l-4 -2l2 -12h4zM252 442q-4 10 -8 19v-41q0 2 3 11t5 11zM270 403l-8 9v-9l6 -6zM369 225l-2 4l-5 -14l5 -2zM338 256l-2 14 l-4 -2l2 -12h4zM346 238v8l-6 -6v-9zM287 342v-20q2 -10 2 -5q2 0 2 5q-2 6 -1 8t-3 12zM227 432v0v0v0zM248 391v0v0v0zM242 399l-9 7v-9l9 -6v8zM193 475v8h-7v-8h7zM293 295v8l-8 -6v-8zM217 422v10h-6v-10h6zM274 313q-4 2 -4 11q0 -4 -8 -5q-4 0 12 -6zM336 207h-4 l-2 -17l2 -4zM299 250v14h-4v-14h4zM233 383h-4l-2 -18l2 -3zM287 260v14h-4v-14h4zM313 217l-4 8l-2 -6l4 -8zM221 377l-4 2l-2 -14l2 -3zM264 270q-8 18 -8 35q-4 -20 0 -35h8zM203 365v12h-6v-12h6zM209 342l-2 6l-6 -6v-6zM268 223v6l-6 -6v-6zM250 248l-4 8l-2 -6l4 -6 zM301 184q-16 18 -12 19q0 16 -4 18q-12 10 -13 12q0 -29 7 -34q0 -2 -2.5 -3t-4.5 -3l-4 10q4 0 -6 -6q4 -10 14 -37q-4 -6 -4 -23q0 18 9 15q-6 14 -2 14v8q0 6 2 8q18 0 20 2zM225 299l-2 2l-6 -22l4 -5zM205 307v19h-4v-19h4zM193 326l-5 8l-2 -6l2 -9zM227 166l-2 6 l-2 -4l2 -8z" />
<glyph unicode="u" horiz-adv-x="708" d="M219 145l-2 -18l-2 4l2 16zM670 100q-8 -70 -21 -129q-2 -2 -10 -2l-225 27q-4 8 -4 22q0 8 7 77t7 77v35q-10 -16 -49 -123q-27 -76 -47 -76h-68q8 0 -18 12q-33 10 -56 43q-16 25 -47 164q-6 29 -10 109q-6 119 -6 158l12 538v23q-2 12 -2 14q-2 -12 -2 47 q-2 217 -45 291q0 2 -43 45q-4 23 -4 37q0 104 18 104l199 -18q-2 0 31 -10q10 -2 16 -19q-6 -113 -10 -305q0 -39 -2 -151q-2 -96 -2 -154q0 -139 -2 -178q0 -10 2 -70q-4 -51 -4 -67q0 27 6 -252q0 -33 14 -111q18 -90 33 -90h6q2 0 29 49q59 106 59 442v390q0 74 -16 184 q-2 20 -6 39q-8 53 -31 108q-10 29 -14 29t-3.5 -3t-1.5 -3q-20 0 -22 53v119q4 6 16 6q-2 0 8 6q6 2 7 -6q10 4 18 10q8 0 14 -16q12 -4 13 2l37 10q154 14 141 15v0l-2 -218q0 20 -4 -124q0 -70 -6 -211v-594q2 -20 2 -47q0 -41 2 -52q12 -92 16 -118q16 -94 41 -115 q14 -4 27 -23h2zM485 1456v19h-2v-19h2zM500 1294v0v0v0zM532 1202h-6q0 -4 2 -18q0 16 4 18zM467 1255l-2 11l-2 -6l2 -11zM473 1180l-2 18l-2 -4l2 -14h2zM477 1159l-6 8v-10l4 -8zM276 1419v13h-4v-13h4zM492 1030l-3 10l-2 -6l2 -10zM477 981l-2 18l-2 -2l2 -16h2z M537 893h-5l-2 -23l5 -4zM549 760v10h-6v-10h6zM512 817q-2 8 -2 25l-6 -17q2 -8 8 -8zM256 1239v31h-4v-31h4zM209 1337l-2 9l-6 -15v-10zM524 729v19h-4v-19h4zM504 778l-4 4l-2 -16l2 -4zM246 1139v30h-4v-30h4zM479 696v19h-2v-19h2zM518 610v19h-4v-19h4zM246 1094v16 h-4v-16h4zM201 1112v33h-4v-33h4zM461 653l-2 11l-2 -7l2 -10zM510 541v12h-8v-12h8zM223 1034v17h-2v-17h2zM553 457l-4 10l-2 -8l4 -8zM537 399v25q-6 -12 -7 -25q5 8 7 0zM463 473v23h-4v-23h4zM471 432l-4 17v8q-2 4 -2 8q-2 -21 6 -33zM535 248v18h-5v-18h5zM205 831 l-2 11l-2 -6l2 -11zM246 758q-2 6 -6 6q-4 2 -7 -4q-2 -6 11 -25q0 15 2 23zM551 197l-4 4l-2 -17l4 -4zM219 762q0 12 -6 26v-30q0 18 6 4zM516 252q-6 -10 -10 -8q-2 0 10 -17v25zM555 137q-2 6 -4 17l-4 -17h8zM526 172v10h-6v-10h6zM197 772q-10 0 -13 -6q2 4 6 -10z M518 156v24h-4v-24h4zM479 223q-2 4 -5 15.5t-5 13.5q6 -33 4 -45zM215 664l-2 26l-2 -4l2 -22h2zM231 616v39q-6 -12 -12 -37q-4 0 8 -8q0 29 0 27q4 -15 4 -21zM207 625q-6 10 -12 18l-5 -18q2 2 5 4l6 -13q2 5 6 9zM211 578v22v16q-4 -12 -8 -30zM258 496h-4l-2 -31h2z M246 500l-4 6l-4 -23l2 -8zM397 205l-4 10l-2 -6l4 -10zM236 477v10l-7 -8v-10zM250 442l-2 11l-2 -7l2 -10zM182 545l-2 8l-6 -16l2 -9zM180 442v11h-6v-11h6zM260 248v49q-4 6 -16 33q0 14 2 47h-8q-2 -37 -23 -37q-2 0 -8 -2h-8q0 -6 -2 -21v-20q0 -23 14 -53 q-2 -18 -8 -49q14 45 12 45q12 0 14 -2q6 -10 7 -23v-14l6 6q4 -10 8 -19q0 27 4 50v6q2 -2 6 4zM227 266q2 29 0 39q-10 -25 -7 -24.5t-3 -18.5q6 16 10 4zM229 209v16h-2v-16h2zM223 369l-2 -17l-2 4l2 17z" />
<glyph unicode="v" horiz-adv-x="751" d="M371 84h-9v10h9v-10zM715 1520q0 -59 -2 -97q-18 -14 -47 -49q-43 -80 -60 -143q-6 -20 -14 -64q0 -12 -2 -34q-4 -10 -12 -33q4 -29 -3 -29q2 0 -4 8q0 -41 -8 -78q6 -35 -6 -53q0 -20 -8 -60t-14 -46q2 -4 8 -2v-25q-4 -31 -15 -55q-2 -47 -22 -156v-26q-6 -33 -19 -93 q2 -2 2 -8q0 -23 -6 -35q-4 -41 -16 -96q0 -10 -14 -113v-20q-8 -82 -29 -205q-6 0 -20.5 -7t-18.5 -7h-23q-16 4 -36 35q-6 29 -27 204l-53 437q-20 129 -53 385q-27 203 -78 293q-14 4 -41 16q-12 6 -31 35q-4 47 -4 80q0 129 31 129h321q4 0 7 -7.5t8 -7.5l2 11q6 4 26 4 q12 0 15 -60q2 -76 4 -82v-22q-4 -12 -20.5 -12t-20.5 -7q-25 -18 -33 -94q-2 -23 -8 -63q2 -6 8 -6q4 -39 20 -220q12 -111 29 -284q0 -8 4 -15q10 -80 17 -149q0 -4 2 -6t4 -6q4 86 24 241q0 10 13 127q12 80 24 162q23 150 23 188q0 53 -15 95q-6 12 -16 24q-16 6 -47 25 q0 6 -8 147q2 8 2 15l184 -13q-2 0 4 11q6 4 21 4q25 0 38 -9q-1 -54 13 -79zM578 1182v10h-7v-10h7zM537 1085v19h-5v-19h5zM528 1057l-4 10l-2 -8l4 -8zM344 1335q-2 2 -6 16.5t-6 16.5q-6 -39 -6 -31q0 2 2 2q-6 0 6 -30q6 36 10 26zM299 1364v16h-4v-16h4zM215 1479 q-6 -2 -8 0t-4 -15q2 -6 2 -20h6q0 15 4 35zM369 1141l-4 4l-3 -17l3 -4zM260 1311v18h-4v-18h4zM301 1208l-4 11l-2 -7l2 -10zM512 815v16h-4v-16h4zM207 1354l-6 16l-4 -6l6 -16zM281 1206q0 12 -5 37v-24q-2 -18 -2 -25q1 6 7 12zM248 1245v17h-4v-17h4zM340 1067l-4 6 l-4 -16l2 -6zM123 1440v10h-6v-10h6zM188 1280v12h-10v-12h10zM197 1270l-2 8l-7 -8v-8zM240 1178l-2 20l-5 -4l5 -16h2zM358 932l-2 10l-4 -8v-10zM381 903q-14 0 -12 0q6 -6 6 -20q0 4 6 20zM487 672l-6 24l-2 -6l6 -24zM233 1120q-4 12 -12 37q0 -61 0 -59q4 -1 12 22z M362 881v24q-10 -14 -14 -14q6 -8 14 -10zM397 801q0 4 -2 16t-2 14h-8q4 -12 12 -30zM221 1102l-4 10l-2 -6l2 -10zM303 907q-2 10 -12 39v-33zM334 858l-2 10l-4 -8l4 -8zM307 866l-2 8l-4 -8v-8zM373 672v12h-6v-12h6zM260 864l-4 10l-2 -6l2 -10zM391 600l-4 10l-2 -6 l2 -10zM305 766h-8q-2 -8 -4 -18zM313 721v18h-4v-18h4zM344 674l-2 10l-6 -8v-10zM426 522l-6 8l-2 -8l6 -8zM365 606v10l-11 9v-13zM354 612l-4 11l-2 -7l4 -10zM326 670l-4 6l-9 -23l2 -6zM328 602v23q0 -4 -3 -7.5t-3 -7.5q2 -6 6 -8zM301 672l-4 4l-6 -31l4 -4z M313 618v13h-6v-13h6zM375 489q2 16 -2 46h-11q6 -29 6.5 -36.5t6.5 -9.5zM365 553q0 6 -5 22q-12 -20 -16 -40q-2 6 -2 20q-8 -25 -2 -59l4 14q4 0 10 -8q0 6 5.5 23.5t5.5 27.5zM385 418v24h-4v-24h4zM403 350q0 6 -2 21q-2 -4 -5 -9.5t-5 -7.5q4 -6 4 -16q2 6 8 12z M377 375v10h-6v-10h6zM418 307l-4 4l-2 -16l2 -4zM377 268v0v0v0zM356 301l-4 4l-2 -18l4 -4zM395 188l-6 25l-2 -6l6 -25zM342 299l-6 18q-2 -4 -4 -12t-2 -10q6 -18 6 -21q0 21 6 25zM414 182q-2 2 -8.5 4t-8.5 4q0 -6 -4 -20v-37q4 -4 4 -14q4 12 0 35q5 10 17 28z M410 156l-4 4l-3 -19l5 -4zM362 236q-4 4 -8 14q2 -16 6 -39q2 13 2 25zM389 133v25h-6v-25h6zM373 162v12h-6v-12h6zM358 154v16h-4v-16h4zM334 186v17h-4v-17h4z" />
<glyph unicode="w" horiz-adv-x="835" d="M549 115h-6v12h6v-12zM526 84h-4v25h4v-25zM299 139h-2l-4 17l4 4zM797 1546q0 -41 -4 -143q-10 -6 -9 -6q-2 0 -8 20q-2 -8 0 -18q-16 -27 -45 -94q-8 -25 -18 -72q-10 -98 -37 -266q0 -20 -10 -113q-10 -100 -17.5 -100t-11.5 -4q12 -35 12 -41q0 -39 -10 -64 q-4 2 -4 10q2 2 0 9q-14 -27 -14 -66q4 -72 4 -76q-4 6 -9 6v-20q-8 -4 0 -19q-2 2 -6 5q0 2 0 -43q-2 -4 4 -5q4 0 4 7l-45 -410h-6q-4 0 2 -20q-4 0 -6 6l-6 -17q4 -12 4 -30q-4 12 -4 -9l-6 15q-6 -6 -4 -13h-17q-10 -2 -12 -2q-8 0 -20 29l-66 670q4 -12 6 -4v14 q0 10 -4 10q4 0 -4 -6q-4 41 -14 135q-10 -25 -17 -108q-6 -92 -16 -144l-4 -12q0 -10 4 -10q-4 -35 -10 -45q8 -53 -13 -144q0 -10 2 -18q-6 -72 -18 -180q-23 -186 -33 -187h-32q-4 0 -4.5 7.5t-4.5 7.5q4 0 -6 -6q-4 27 -4 38q-4 2 -8 52q-14 63 -12 114h-2l-88 809 q-12 111 -23 224q-14 125 -51 202q-4 10 -33 31q-2 4 -4 14v127q12 23 41 21q55 0 45 -2q18 4 25 4q-2 0 18 -4q29 -2 82 -6q4 0 13 -9.5t13 -9.5q2 0 7.5 7.5t9.5 7.5q12 0 16 -17q-2 -33 4 -94q6 12 2 57v17q2 16 2 28q31 8 58 9q23 0 84 -13q70 -12 137 -16q2 -14 2 -57 q0 -53 -4 -70q-6 -2 -19.5 -12.5t-27.5 -75.5q-12 -57 -12 -94q0 -59 -5 -76q2 -2 11 2q6 -98 24 -270q-8 0 -10 -7q0 2 8 -12q6 -39 6 -96q2 -2 6 -8q8 -102 9 -103q0 -31 -9 -47q4 -25 15 -57q8 47 4 47q-2 0 4 -8q2 23 -2 45l61 583q4 31 -12 113q-6 33 -20 53 q-12 14 -25 29q2 41 6 121q27 0 80 -3t54 -3t2 -6.5t6 -6.5q2 0 11 10.5t13 10.5q15 0 25 -29zM653 1509l-2 4l-4 -18l4 -4zM616 1481q-2 0 -2 24q-8 -25 -8 -24h10zM629 1448v12h-6v-12h6zM440 1538l-2 10l-2 -6l2 -10zM682 1004l-2 12l-4 -8l4 -11zM369 1548v19h-4v-19h4z M377 1528v18h-4v-18h4zM518 1210l-2 11l-4 -9v-10zM444 1303v24h-4v-24h4zM508 1194l-2 12l-4 -6l2 -10zM348 1466q0 2 -6 19q-2 -6 -2 -19h8zM293 1534v25h-4v-25h4zM410 1348h-2l-5 -23l5 -4zM498 1130v19h-4v-19h4zM641 870q0 6 -2 21q-2 -6 -6 -12q6 -3 8 -9zM543 1040 l-2 11l-4 -9v-10zM432 1227l-4 24q-4 -6 -14 -20v-27q4 10 8 29q4 -14 2 -14zM293 1470h-2l-4 -22l4 -4zM440 1178q2 8 -4 26q0 -6 -2 -18q2 -6 6 -8zM225 1540q2 25 -4 29q-4 2 -10 -2v-15q2 -8 2 -12h8q0 6 2 14q2 -8 2 -14zM293 1423l-2 11l-4 -9v-10zM498 1044 q0 2 -2 13v10q-4 -4 -11 -39q7 4 13 16zM627 807l-2 10l-4 -8l4 -10zM465 1075v19h-2v-19h2zM539 942l-4 12l-3 -8l5 -10zM623 782v19h-5v-19h5zM420 1098v0v0v0zM274 1331v12h-6v-12h6zM551 840v12h-6v-12h6zM268 1333l-2 10l-4 -8l4 -8zM541 848l-4 10l-2 -8l4 -10z M467 942l-2 12l-2 -8l2 -10zM422 1018v12h-6v-12h6zM614 682l-4 4l-2 -18l2 -4zM418 1018l-4 2l-2 -16l2 -5zM565 709q-4 6 -10 6q2 -4 2 -17q2 5 8 11zM106 1509l-2 13l-2 -9l2 -10zM401 977q-6 8 -8 27q-18 152 -39 327q-6 29 -18 84q-8 27 -23 64q-20 -84 -20 -90 q0 -27 -2 -35l-2 -8q4 -70 18 -222q10 -96 29 -272q4 -59 12 -162q-2 0 -2 -18q2 8 4 -4.5t4 -30.5q14 115 47 340zM573 647v12h-6v-12h6zM612 563v17q-2 12 -2 16q-2 -12 -6 -33h8zM254 1198v27h-4v-27h4zM541 686l-6 8l-3 -10l7 -8zM72 1485h-4l-2 -25l4 -4zM301 1044v13 h-6v-13h6zM582 516v37h-4v-37h4zM551 580q-2 2 -4 3t-4 3q2 -4 2 -17q2 7 6 11zM182 1243h-10l6 -18q2 6 4 18zM541 580l-4 12l-2 -8l4 -11zM193 1198l-9 8v-10l9 -8v10zM555 512v12h-10v-12h10zM508 594l-4 10l-2 -6l4 -10zM537 528v25h-5v-25h5zM571 481l-2 6l-6 -16l2 -6 zM494 594l-2 10l-3 -6l3 -10zM524 520v10l-12 -16v-8zM588 387v0v0v0zM217 1030v12h-6v-12h6zM457 590l-2 20l-4 -4l2 -16h4zM526 457q0 10 -2 23.5t-2 19.5q-2 -12 -4 -31q8 -4 8 -12zM150 1120v13h-5v-13h5zM315 815v27h-4v-27h4zM182 1059l-2 10l-4 -4l2 -12zM213 999h-4 l-2 -47h4zM580 299l-5 4l-2 -18l2 -4zM565 303v19h-4v-19h4zM553 317v39q-4 4 -4 15q-2 -4 -5 -10.5t-5 -10.5q-2 16 -9 19v-31q2 -14 3.5 -14t9.5 -3.5t10 -3.5zM244 874l-2 3l-4 -17l4 -4zM506 383l-4 10l-2 -8l4 -10zM377 594q-6 10 -6 8v29q-2 -8 -4 -23.5t-5 -17.5 q7 0 15 4zM547 262v19h-2v-19h2zM526 289l-4 20l-2 -4l2 -16h4zM319 678h-4l-2 -25l4 -4zM297 680v18h-4v-18h4zM356 596q-4 -4 -8 -16l4 -19q4 10 4 35zM547 225h-8v-8q4 -2 8 8zM229 778v0v0v0zM293 672l-2 8l-8 -14l2 -11zM289 641l-4 4l-2 -18l4 -4zM223 727v18h-4v-18 h4zM332 532v13h-8v-13h8zM520 186v19h-2v-19h2zM502 201q0 12 -2 18l-6 -24q2 2 4 3t4 3zM199 733v19h-4v-19h4zM367 420v18h-5v-18h5zM514 176q0 -6 -2 -10q-2 6 -2 2q0 -8 2 -23q2 6 2 31zM246 639l-2 6l-6 -24l4 -7zM258 614l-4 2l-2 -16l2 -4zM365 391v19h-5v-19h5z M305 487l-6 9v-11l6 -8v10zM332 430l-2 10l-2 -6l2 -10zM266 541l-2 10l-4 -8v-11zM328 416l-2 2l-4 -17l4 -4zM279 524q0 -18 -9 -41q2 -6 6 -10v27q3 18 3 24zM262 522l-6 8l-2 -10l6 -8zM311 438h-4l-2 -32h4zM360 342h-4l-2 -23l2 -4zM215 557v18h-4v-18h4zM287 436 q-2 8 -6 23q0 -10 2 -25.5t2 -21.5q2 12 2 24zM274 420q-2 23 -6 65q-4 -2 -6 -8q6 -39 6 -33q-4 -14 0 -26q0 6 2 14q0 -6 4 -12zM268 395v13h-6v-13h6zM254 350v33h-4v-33h4zM274 295v10l-6 -8v-10zM291 190q-8 -12 -8 -30q6 8 6 6q0 24 2 24zM279 150l-5 -5l-6 13 q0 -6 -2 -13l-4 13q0 -49 -2 -33h6q9 11 13 25z" />
<glyph unicode="x" horiz-adv-x="661" d="M602 63h-6v11h6v-11zM487 25h-4v18h4v-18zM479 16q0 -8 -2 -14l-4 4l-4 4l2 25q0 -5 8 -19zM623 80l-2 -21q0 2 -5 7q-2 -6 2 -19q-4 0 -12 -51q-20 0 -26 29q-8 -23 -9 -23q-2 0 -4 4t-5 4t-10 6.5t-9 6.5q-4 0 -10.5 -10.5t-10.5 -10.5l-10 29q-8 -29 -4 -29 q-4 0 -8 -3t-6 -3q-4 0 -5 6v0q0 8 -2 8q-4 0 -10 -12q-2 -2 -9 1t-9 3q4 18 -10 23q-2 -8 -3 -29q-8 20 -8 10q0 12 -8 25q-2 -8 0 -19q-6 0 -12 19l-6 -21q-4 6 -15 6q-2 0 -3 3.5t-3 3.5q-6 0 -2 -13q-6 12 -12 13q-2 0 -2 -21q-14 29 -23 29q-6 0 0 -19q-2 0 -6 5.5 t-8 5.5q-2 0 -6 -3.5t-8 -3.5q-10 0 -15 21q-6 -27 -8 -27q-4 0 -4 6.5t-4 6.5q-2 0 -4 -6.5t-4 -6.5t-3 6.5t-2 6.5t-14 8v88q25 2 39 2q4 0 13.5 28.5t11.5 47.5q4 53 4 71q0 -14 -45 336q-16 -51 -43 -145q-35 -131 -49 -197q0 -12 -4 -39q12 -63 32 -82q6 -8 33 -14 q0 4 0 -82q-20 -16 -20 -35q-10 6 -11.5 6t-3.5 7.5t-4 7.5t-6 -10.5t-8 -10.5q-2 0 -5 3t-5 3q-4 0 -12.5 -3t-10.5 -3t-9 3t-11 3q4 0 -2 21l-9 -21q-2 4 -10 15q-2 -6 -2 -21h-8l-4 13q-8 -12 -37 -13q-8 0 -10 29q-8 2 -9 -27q0 10 -3 10.5t-7 4.5t-8 4t-3 8t-1 45 q-2 33 0 49q4 23 2 29q61 20 104 168q2 2 11 10q25 88 82 250q18 41 34 108q-10 59 -34 183h6q-12 41 -25 98q6 0 10 12q-6 12 -16 13v22q-25 119 -49 238q-33 147 -68 190q-16 10 -41 47q6 18 4 55t1 52.5t14 15.5q41 0 78 -4q12 -2 32 -4q8 0 21 -12q2 6 2 12q39 0 51 -2 h139v-113q0 -31 -16 -31q-2 0 -7 4.5t-7 4.5q-6 0 -21.5 -16.5t-15.5 -67.5q0 -49 49 -359q18 68 57 201q31 100 29 100t4 -6q4 20 4 45q0 2 -6 56q-2 8 -8 22q-23 31 -35 31q-2 0 -8 -7.5t-10 -7.5q-2 39 -3 125q12 14 19 15h74q2 0 0 -6t2 -7q2 0 3 6.5t3 6.5q16 0 20 -21 q2 6 2 13q25 2 49 2q25 -4 48 -23v-31q0 2 -5 -14q-2 -25 -2 -104q-2 -10 -6 -11q-4 0 -8 13q2 4 2 6q-4 4 -6 4t-5 -11.5t-8 -11.5t-9.5 -7t-6.5 -7q-4 0 -3 4t-1 4q2 0 -4 -20q-2 2 -4 12q-8 -10 -6 -25q-10 -23 -16 -30l-105 -322h-4q-27 -100 -27 -94q0 -8 4.5 -28.5 t4.5 -24.5q8 -37 24 -101q-4 -41 -4 -59q0 -37 27 -133q14 -49 28 -101q8 -39 33 -172q10 -39 32.5 -100t29.5 -61q20 0 28 -9q11 -14 17 -67zM608 1589q-4 -4 -6 -10q2 -8 2 -25q4 10 4 35zM571 1509v13h-8v-13h8zM528 1503l-4 10l-2 -6l4 -10zM487 1444v18h-4v-18h4z M500 1384q-4 4 -4 15q-2 -4 -2 -25q4 2 6 10zM518 1333q-4 14 -12 15q2 -4 2 -17q2 4 10 2zM358 1499q0 4 -2 17v16q-4 -2 -8 -16q0 -2 4 -7.5t6 -9.5zM328 1544l-2 4l-4 -18l4 -4zM340 1518q-2 2 -4 8l-6 -17q2 -6 2 -18zM313 1438v24h-4v-24h4zM272 1483v12h-6v-12h6z M309 1350q-4 2 -8 16q0 -68 -2 -55q6 31 10 39zM424 1118l-2 4l-4 -18l4 -4zM213 1468l-4 11l-2 -6l4 -11zM299 1272l-4 4l-2 -19l4 -4zM268 1311q-6 4 -6 26q-6 -29 -2 -55q2 4 2 14.5t2 14.5q2 -8 4 0zM416 1044l-2 11l-6 -19l2 -8zM215 1339v19h-4v-19h4zM256 1268l-2 10 l-4 -8v-10zM242 1278v0v0v0zM195 1339v25h-2v-25h2zM350 1055v28q0 -8 -4 -8q4 -8 4 -20zM360 1049q-4 2 -4 10q0 -10 2 -29q0 7 2 19zM244 1257q-4 6 -11 -8l-2 -4l2 -6q7 6 11 18zM307 1133h-8q2 0 2 -19q2 7 6 19zM225 1280h-4l-2 -23l2 -4zM211 1280v10h-6v-10h6z M362 999q-2 0 -10 23v-27q8 0 10 4zM375 965q0 4 -6 22q0 -8 -7 -24q11 0 13 2zM328 1034l-4 13l-2 -9l4 -10zM193 1255v19h-5v-19h5zM319 1006v12h-6v-12h6zM313 1010q0 14 -2 20l-8 -16q2 -4 10 -4zM299 1040l-4 4l-2 -18l4 -4zM348 967q-6 -16 -14 -54q14 1 14 54z M301 1008q2 0 -12 12q2 -4 2 -25q0 4 4 6.5t6 6.5zM309 977l-6 18q0 -4 2 -18v-16q2 6 4 16zM319 950v13h-6v-13h6zM262 1044l-2 21l-4 -4l4 -17h2zM369 860l-4 2l-5 -31l2 -4zM227 1087l-2 9l-6 -19l2 -6zM354 860l-2 2l-4 -16l4 -4zM330 877q4 27 -2 41q-6 -10 -6 -35z M289 944l-2 10l-2 -6l2 -10zM295 938h-4l-2 -23l2 -4zM342 821q0 20 -2 45q2 18 -2 25q-8 -20 -23 -62h15q0 18 2 21q4 -13 10 -29zM307 895v12h-6v-12h6zM299 891l-2 20l-4 -4l2 -16h4zM373 774l-2 6l-6 -24l4 -6zM322 817l-5 4l-2 -18l2 -4zM272 881l-8 24l-2 -6l6 -25z M250 899v19h-4v-19h4zM334 764h-2l-2 -25l2 -4zM295 801v18h-4v-18h4zM391 596l-2 10l-6 -8v-10zM434 502l-4 4l-2 -19l2 -4zM406 535q-2 12 -3 24q0 -4 -3 -12t-3 -12h9zM377 555q0 6 -6 20q-2 -6 -2 -18q6 2 8 -2zM348 608q-4 2 -6 8q0 -6 -4 -16l6 -16q2 2 2 11t2 13z M356 571q-6 2 -6 23q0 -12 -2 -23h8zM426 461l-2 4l-2 -19l2 -4zM315 625v10l-6 -10v-11zM446 397q-4 14 -10 17v-27q6 10 6 -6q2 6 4 16zM463 346v19h-4v-19h4zM354 545v12h-6v-12h6zM330 590l-8 8v-10l6 -8zM342 573q-8 4 -10 -2q2 -6 2 -16q4 4 8 18zM387 475q0 -6 -6 41 q4 16 2 45q-4 -29 -8 -33q0 -20 -8 -24l-1 -6t-6 -6q0 -8 3.5 -15.5t3.5 -13.5q-4 -8 -7 0q0 -20 -4 -31q2 -6 6 -10q2 10 6.5 34.5t6.5 35.5q0 -10 2 -29q6 4 10 12zM485 301q-4 4 -10 8q0 -10 6 -26q2 6 4 18zM502 248q0 20 -6 20q2 0 -11 -10q4 -4 2 -16l7 6q6 4 8 0z M479 281l-6 16l-2 -6l4 -19zM580 98l-5 11l-2 -7l5 -10zM553 160l-4 4l-4 -25l4 -4zM346 512l-2 10l-4 -8v-10zM406 403q-6 23 -9.5 25t-3.5 35q-10 -35 -8 -35q-2 0 -1 4t-3 4l-8 -26h16q-4 -10 2 -17l4 15q2 -4 3 -10.5t1 -10.5zM514 195l-2 4l-4 -25l2 -4zM555 106l-2 11 l-4 -8v-11zM457 272v13h-6v-13h6zM469 268q-6 -16 -14 -16q4 -12 -2 -31q6 2 8 -2q2 16 8 49zM332 475l-8 12v-10l6 -12zM393 362l-4 5l-2 -19l4 -4zM369 381v27q0 -2 -7 -17q3 -8 7 -10zM510 104l-4 13l-2 -8l4 -11zM408 274v11l-7 -9v-10zM459 174v0v0v0zM489 119l-4 10 l-2 -6l4 -10zM420 238l-4 10l-2 -6l4 -11zM412 242v24h-4v-24h4zM477 123l-6 18q0 -25 -4 -24q4 2 6 4t4 2zM393 272l-4 13l-2 -9l4 -10zM377 268v27h-2v-27h2zM416 203l-4 10l-2 -6l4 -10zM393 201q0 10 -3 23.5t-3 15.5q-2 -6 -2 -23.5t-6 -17.5q2 0 -4 -15q-2 10 -6 19 v-47q0 8 10 8q6 0 6 -14q2 6 4 10q0 2 -2 20q0 2 3 6.5t3 14.5zM420 102v25h-4v-25h4zM340 244v12h-6v-12h6zM395 117v0v0v0zM379 127l-2 10l-2 -8l2 -10zM369 115l-2 35l-5 -5l5 -30h2zM170 168l-2 10l-2 -6l2 -10zM131 172l-4 21l-2 -5l2 -16h4zM160 92l-4 10l-2 -8l4 -10 zM150 98v13h-7v-13h7zM66 147l-5 11l-2 -6l4 -11zM59 135q0 25 -6 6q-6 20 -6 -30q0 -23 6 -39q0 14 3 34.5t3 28.5z" />
<glyph unicode="y" horiz-adv-x="692" d="M258 98h-6v11h6v-11zM131 233l-6 -16l-2 8l4 15zM653 1507q-6 2 -12 2q-59 0 -100 -209q-4 -31 -15 -88q-33 -209 -112 -657v-25q-27 -145 -52 -292q-37 -184 -83 -211q-6 -4 -22.5 -19.5t-20.5 -15.5q-2 0 -4.5 6t-4.5 6t-12 -6t-14 -6q-14 0 -37 28q-8 6 -23 23 q-43 86 -43 209q0 178 54 213q25 16 22 16q6 0 32.5 -39t33.5 -57q10 -39 16 -90q0 2 -2 -12q4 -10 4 -27q0 -8 -5 -47t-5 -47q0 -43 18 -43q43 0 43 157q0 78 -133 834q-41 236 -45 254q-35 154 -76 154q-8 0 -14 -5q-2 14 -2 52q0 45 6 67l352 6q6 0 7.5 -11t4.5 -45 t3 -42v-20q-10 2 -37 -4q-2 -2 -9.5 -11.5t-9.5 -9.5q-4 0 -5 8t-3 10q-4 -12 -2 -34q-18 -45 -18 -142q0 -43 20 -213q4 -20 12 -65q10 -51 43 -309q2 6 5 16q35 266 53 369q2 29 18 118q12 80 13 131q0 20 -7 60q-6 53 -30 67q-39 20 -39 21v92q6 14 16 14h158 q4 -6 14 -16q23 -14 47 -14v-47q2 -36 2 -54zM367 578q-2 14 -9 34l-4 -12l-4 12q-4 0 -10 -23.5t-6 -35.5l6 6l10 -24v16q0 12 6 33zM309 569l-4 9l-2 -5l4 -10zM307 557v0v0v0zM342 410l-6 8l-2 -8l6 -9zM307 434v23h-4v-23h4zM225 389l-4 4l-2 -16l2 -4zM199 360v0v0v0z M193 346l-5 27h-4l4 -27h5z" />
<glyph unicode="z" horiz-adv-x="622" d="M410 96h-7v10h7v-10zM586 645q4 -35 -11 -67q0 6 0 -152v-190q-2 -125 0 -191q-6 -18 -4 -27q-10 -25 -24 -24l-447 14q-4 0 -14 -7t-14 -7q-12 0 -31 16l-2 15v22q0 23 57 291l5 30q5 31 24 95q0 16 2 35l92 442q57 256 121 524q-4 20 -23 19q-14 -4 -28 -6 q-6 0 -23.5 2t-25.5 2q-55 -203 -152 -580q-45 20 -45 100q0 -2 2 129.5t2 188.5v115q2 84 2 120q0 14 6 48q18 18 37 18l422 -8h31q23 0 33 -15q0 -4 2 -11t2 -9l-306 -1407q0 -23 7 -23q96 0 98 -2l149 576q18 -18 48 -51q-2 -33 0 -39zM530 1548h-10q0 -10 -4 -22 q4 -2 6 -10q2 16 8 32zM494 1368v12h-7v-12h7zM496 1343l-2 9l-7 -9v-10zM403 1374v12h-14v-12h14zM457 1206v19h-4v-19h4zM383 1217l-2 2l-4 -17l4 -4zM352 1219l-6 8l-2 -8l6 -11zM424 1081l-6 9l-2 -11l6 -8zM406 1083v13h-11v-13h11zM332 1208v0v0v0zM403 1047v26h-4 v-26h4zM319 1118v12h-8v-12h8zM152 1323q0 8 -3.5 17.5t-5.5 15.5q0 -10 -6 -29v-18q2 0 7.5 7t7.5 7zM365 909q-8 6 -23 17q6 -20 20 -45q-1 30 3 28zM338 893l-2 10l-6 -8v-10zM369 831l-2 9l-7 -9v-10zM322 934q-6 0 -17 -8q6 -18 12 -19q5 0 5 27zM373 807v12h-8v-12h8z M344 770l-4 21l-4 -5l4 -16h4zM287 698l-4 11l-2 -9l4 -8zM248 598v39h-6v-39h6zM485 166l-4 10l-2 -8l2 -10zM475 166l-4 10l-2 -8l2 -10zM254 559q-4 4 -12 16q0 -10 8 -34q0 6 4 18zM219 481l-4 6l-2 -12l4 -6zM264 360l-10 11v-11l8 -8zM238 393l-5 2l-4 -16l4 -4z M197 432l-4 6l-7 -16l4 -8zM203 397q0 6 -2 18.5t-2 14.5q-6 -18 -6 -33h10zM205 379v12h-8v-12h8zM182 369q2 8 -4 26q0 -12 -4 -33q4 3 8 7zM211 221l-6 17l-2 -7l6 -18z" />
<glyph unicode="{" horiz-adv-x="1325" d="M1202 1589q-2 -2 -18 -69q-14 -51 -35 -52q-16 0 -43 35q-10 14 -80 40t-88 26q-111 0 -190 -41q-100 -49 -123 -150q-10 -51 -11 -215q0 -10 17.5 -137t17.5 -137q0 -27 -12 -76q-18 -70 -45 -102q-45 -59 -189 -109q-104 -33 -210 -65q152 -55 303 -111 q162 -78 161 -209q0 -29 -34.5 -145.5t-34.5 -214.5q0 -123 86 -238q88 -121 190 -121l254 35q23 39 43 39q33 0 33 -70q0 -29 -10 -34q0 -12 -19 -54q-20 -49 -39 -49h-24q-152 0 -284 30t-267 134q-150 117 -170 238q-4 29 -4 69q0 104 48 221t48 172q0 70 -69.5 133.5 t-164 97.5t-229.5 48v49q137 2 287 76q176 86 176 203q0 29 -41 155q-55 170 -55 244q0 186 207 324q182 121 350 120q72 2 213 2q37 -37 55 -92z" />
<glyph unicode="|" horiz-adv-x="661" d="M391 1323q0 41 2 52t13 9v-8l2 -8v-10q-20 -518 -17 -1047v-6l27 2q23 -109 -2 -178l-144 -207q-41 51 -49 66q-18 33 -16 78q0 25 33 100q10 23 10 297q2 90 0 196q0 115 0 95q0 272 6 489q-14 6 -45 25q-4 102 20 143l11 19q12 25 49 69q14 25 53 68q25 18 100 20 q-2 -135 -53 -264z" />
<glyph unicode="}" horiz-adv-x="1325" d="M111 1520q2 -2 18 -70q14 -51 35 -51q16 0 43 35q10 14 79.5 39.5t88.5 25.5q111 0 190 -41q100 -49 123 -149q10 -51 10 -213q0 -12 -17 -139.5t-17 -137.5q0 -27 12 -76q18 -68 45 -102q45 -59 188 -109q104 -33 211 -65q-152 -55 -303 -111q-162 -78 -162 -209 q0 -29 35 -145.5t35 -214.5q0 -123 -86 -238q-88 -121 -193 -120l-251 34q-23 39 -43 39q-35 0 -35 -69q0 -29 12 -33q0 -14 16 -55q23 -49 39 -50h27q152 0 284 30t265 134q152 117 172 238q4 29 4 70q0 104 -48 220.5t-48 172.5q0 70 71 135q66 61 161 95t231 48v49 q-137 2 -287 76q-176 86 -176 203q0 29 41 156q55 170 55 243q0 186 -209 324q-180 121 -348 121q-72 2 -213 2q-37 -37 -55 -92z" />
<glyph unicode="~" horiz-adv-x="1011" d="M819 1499q0 -37 -14 -72q-10 -27 -41 -51t-59 -24q-18 0 -66 32q-12 8 -35 23l-20 10q-6 0 -13.5 2t-46.5 35l-14 21q-12 8 -31 24q-2 2 -27.5 9.5t-31.5 7.5q-20 0 -47 -25q-6 -2 -15 -6q-31 -25 -96 -68q-10 -4 -25.5 -13t-31.5 -32q-35 -51 -39 -51q-25 0 -25 84 q0 63 44 121.5t104 68.5q14 12 41 25h35q6 2 20 6t16 4q8 0 60 -24l33 -11q14 -8 45 -24q25 -12 55 -23q14 0 43 -2q18 -4 39 -14q6 -2 16 -10.5t25 -8.5q23 0 50.5 25t33.5 25q18 -1 18 -64z" />
<glyph unicode="&#xa1;" horiz-adv-x="350" d="M70 1055h157v-1057h-157v1057zM258 1360q0 -106 -108 -107q-70 0 -99 62q-10 31 -8 45q0 70 61 98q23 8 46 8q70 0 98 -61q10 -31 10 -45z" />
<glyph unicode="&#xa2;" horiz-adv-x="849" d="M389 279q-170 20 -252 172q-49 90 -49 206q0 258 297 336v215h135v-215q100 -27 199 -112l-90 -95q-80 80 -187 80q-113 0 -176 -94q-35 -51 -35 -119q0 -43 7 -71q39 -176 211 -176q127 0 208 106l91 -90q-59 -96 -224 -148v-196h-135v201z" />
<glyph unicode="&#xa3;" horiz-adv-x="1161" d="M322 596h-228v135h238q0 735 274 735q221 0 328 -297l-143 -6q-43 170 -185 170q-55 0 -96 -190q-25 -115 -25 -209v-203h359v-135h-365q-12 -180 -106 -461h504q70 0 116 72l80 -115q-45 -70 -166 -86l-43 -6h-708q14 43 84 250q74 217 82 346z" />
<glyph unicode="&#xa4;" horiz-adv-x="897" d="M268 764q0 -76 52.5 -128t128.5 -52q102 0 155 88q25 41 25 92q0 78 -51.5 129t-128.5 51q-102 0 -156 -88q-25 -41 -25 -92zM625 504q-82 -55 -179 -55q-96 0 -178 55v-129h-196v196h127q-66 84 -66 191q0 102 60 184h-121v197h196v-123q82 55 178 55t179 -55v123h196 v-197h-121q59 -82 60 -184q0 -104 -66 -191h127v-196h-196v129z" />
<glyph unicode="&#xa5;" horiz-adv-x="1150" d="M481 682h-311v135h258l-344 580h156l323 -566l344 566h156l-373 -580h248v-135h-305v-215h305v-135h-305v-332h-152v332h-311v135h311v215z" />
<glyph unicode="&#xa6;" horiz-adv-x="346" d="M244 645v-645h-144v645h144zM100 788v646h144v-646h-144z" />
<glyph unicode="&#xa7;" horiz-adv-x="727" d="M197 958q29 8 65 9q172 0 294 -131t122 -306q0 -197 -117 -327q-88 -98 -201 -99q-188 0 -299 187l150 10q35 -47 113 -59q12 -2 20 -2h4q150 0 184 200v2q0 2 -6 2l-59 -12q-186 0 -303 129q-111 123 -111 311q0 201 115 328q84 94 201 94q131 0 215 -82q27 -25 65 -77 l4 -5l-153 -16q-45 39 -115 45h-4q-139 0 -184 -201zM516 582q0 100 -78 174.5t-178 74.5q-31 0 -55 -14q0 -123 129 -207q66 -43 127 -43h18q37 1 37 15z" />
<glyph unicode="&#xa8;" horiz-adv-x="835" d="M557 838q0 61 57 86q18 8 37 8q41 0 67.5 -26.5t26.5 -67.5q0 -61 -57 -86q-18 -8 -37 -9q-41 0 -67.5 27t-26.5 68zM86 836q0 61 57 86q18 8 37 8q41 0 67.5 -26.5t26.5 -67.5q0 -61 -57 -86q-18 -8 -37 -9q-41 0 -67.5 27t-26.5 68z" />
<glyph unicode="&#xa9;" horiz-adv-x="983" d="M639 610q-68 -68 -150 -67q-113 0 -174 94q-33 51 -32 113q0 115 96 174q53 33 110 32q90 0 150 -59l-78 -82q-33 29 -72 29q-61 0 -86 -58q-8 -18 -8 -36q0 -41 27 -68t67 -27q45 0 76 27zM168 750q0 -193 168 -285q70 -39 153 -39q158 0 254 125q68 88 68 199 q0 193 -168 284q-70 39 -154 39q-158 0 -253 -125q-68 -87 -68 -198zM51 750q0 199 150 329q123 109 288 109q199 0 330 -150q109 -123 109 -288q0 -199 -150 -330q-123 -109 -289 -109q-199 0 -329 150q-109 123 -109 289z" />
<glyph unicode="&#xaa;" horiz-adv-x="538" d="M47 848h434v-74h-434v74zM233 1235q-82 0 -118 -78q-14 -31 -15 -59q0 -14 4 -27q23 -109 129 -108q74 0 111 71q16 31 16 64q0 14 -4 28q-21 109 -123 109zM227 1309q84 0 125 -68q4 -4 4 -8v41q0 154 -127 153q-78 0 -118 -43l-41 58q72 59 159 59q98 0 151.5 -63.5 t53.5 -163.5v-221q0 -86 60 -86v-74q-109 0 -127 74v2q-33 -80 -140 -80q-119 0 -178 100q-29 49 -29 109q0 113 95 176q53 35 112 35z" />
<glyph unicode="&#xab;" horiz-adv-x="913" d="M664 1118h135l-193 -291l193 -290h-135l-193 290zM262 1118h135l-192 -291l192 -290h-135l-192 290z" />
<glyph unicode="&#xac;" horiz-adv-x="1067" d="M930 545h-135v205h-631v143h766v-348z" />
<glyph unicode="&#xad;" horiz-adv-x="991" d="M1177 1112q-29 -18 -32 -43l4 -45h-52l-24 16q10 -16 -23 -16h-41q2 18 -49 35q-12 -8 -41 -25l-825 2q0 6 -8 14.5t-8 20.5q0 8 21.5 29.5t53.5 23.5q90 8 430 15q299 6 351 6h243v-33z" />
<glyph unicode="&#xae;" horiz-adv-x="1230" d="M221 750q0 -258 228 -357q80 -35 163 -35q164 0 279 114t115 278q0 244 -226 352q-86 41 -168 41q-168 0 -279.5 -112.5t-111.5 -280.5zM104 750q0 281 220 424q133 86 288 86q215 0 362.5 -147.5t147.5 -362.5q0 -236 -182 -388q-145 -121 -328 -120 q-217 0 -362.5 145.5t-145.5 362.5zM518 801h51q139 0 152 53q2 6 2 12t-2 11q-10 55 -174 55h-29v-131zM436 1010h82q285 0 285 -144q0 -92 -96 -121q-16 -4 -43 -10l161 -239h-100l-141 227l-66 -2v-225h-82v514z" />
<glyph unicode="&#xaf;" horiz-adv-x="747" d="M74 1130h604v-135h-604v135z" />
<glyph unicode="&#xb0;" horiz-adv-x="638" d="M176 1178q0 -63 41 -106.5t105 -43.5q86 0 127 78q16 31 16 72q0 16 -2 32q-27 117 -141 117q-86 0 -127 -78q-19 -34 -19 -71zM59 1174q0 133 111 210q68 47 152 48q137 0 215 -111q47 -68 47 -147q0 -133 -111 -211q-68 -47 -151 -48q-137 0 -216 111q-47 68 -47 148z " />
<glyph unicode="&#xb1;" horiz-adv-x="1024" d="M1257 651q-29 -18 -32 -43l4 -45h-52l-24 16q10 -16 -23 -16h-41q2 18 -49 35q-12 -8 -41 -25l-825 2q0 6 -8 14.5t-8 20.5q0 8 21.5 29.5t53.5 23.5q90 8 430 15q299 6 351 6h243v-33zM381 994l2 -23q-35 -20 -59 -20q-25 0 -47 20l-84 154q25 55 41 69q10 8 32 8 q20 0 58 -43q0 -2 223 7q66 2 184 0q0 14 8 49q41 6 54 4q23 -2 39 -31l8 -12q20 -31 33 -64q10 -16 24 -49q8 -25 8 -108q-82 2 -135 57q39 4 37 -14h4l-4 -2q-6 -2 -14 -2q-93 6 -412 0zM621 922l8 -2q12 -37 12 -64q0 -51 -43 -80l-166 -45q-74 61 -74 97q0 12 5 22 q8 31 61 60q2 18 8 71q8 47 19 107q8 37 32 141l-34 19q4 63 10 75q12 31 61 47q27 6 84 21q18 6 41 6q25 0 119 -25q-20 -72 -45 -103.5t-102 -78.5l10 72q4 29 20 39l2 41l54 -62q4 -4 -3 -26q-28 -88 -79 -332z" />
<glyph unicode="&#xb2;" horiz-adv-x="479" d="M150 1276l-78 35q37 123 157 123q78 0 123 -56.5t45 -136.5q0 -86 -118 -201q-18 -18 -58 -55l-35 -37h220v-78h-334v78l86 86l106 105q47 55 47 102q0 113 -82 115q-59 2 -79 -80z" />
<glyph unicode="&#xb3;" horiz-adv-x="462" d="M49 954l74 25q29 -55 94 -55q41 0 70.5 24.5t29.5 63.5q0 12 -2 24q-27 74 -98 74h-14q-10 0 -15 -2v82q4 -2 15 -2h16q90 0 90 88q0 80 -92 80q-68 0 -86 -51l-68 38q43 90 154 91q104 0 152 -82q14 -23 16 -45q4 -12 4 -31q0 -74 -61 -129q68 -61 67 -135 q0 -111 -98 -152q-39 -16 -80 -16q-113 -1 -168 110z" />
<glyph unicode="&#xb4;" horiz-adv-x="591" d="M117 1233l207 313q23 33 59 33q63 0 76 -61q6 -35 -15 -60l-239 -291q-14 -16 -37 -16q-47 0 -57 45q-4 21 6 37z" />
<glyph unicode="&#xb6;" horiz-adv-x="1191" d="M655 1260v-512l217 -9v533zM512 1227q-238 -78 -238 -232q0 -150 179 -204q14 -4 59 -17v453zM655 135h217v477l-217 11v-488zM512 0v643q-182 39 -268 105q-113 86 -113 247q0 217 262 326q182 76 434 76h197v-1397h-512z" />
<glyph unicode="&#xb7;" horiz-adv-x="479" d="M289 655q0 -111 -117 -110q-104 0 -105 100q0 47 25 84t70 37q51 0 89 -34t38 -77z" />
<glyph unicode="&#xb8;" horiz-adv-x="514" d="M127 -190q94 70 94 104q0 8 -2 14q-4 18 -53 90l129 56q84 -78 84 -172q0 -90 -141 -176l-68 -41z" />
<glyph unicode="&#xb9;" horiz-adv-x="307" d="M92 1241l-49 59l109 97h77v-549h-75v444z" />
<glyph unicode="&#xba;" horiz-adv-x="636" d="M63 821h521v-110h-521v110zM172 1137q0 -66 41 -110t106 -44q88 0 132 80q18 35 18 74q0 63 -43 109t-107 46q-88 0 -129 -80q-18 -34 -18 -75zM57 1137q0 133 111 211q68 47 151 47q137 0 216 -111q47 -68 47 -147q0 -133 -111 -211q-68 -47 -152 -47q-137 0 -215 110 q-47 68 -47 148z" />
<glyph unicode="&#xbb;" horiz-adv-x="974" d="M242 1118l192 -291l-192 -290h-136l193 290l-193 291h136zM643 1118l193 -291l-193 -290h-135l192 290l-192 291h135z" />
<glyph unicode="&#xbc;" horiz-adv-x="1062" d="M156 1241l-50 59l109 97h78v-549h-76v444zM895 0h-90v217h-248l64 424h92l-56 -334h148v334h90v-334h90v-90h-90v-217zM176 313h-115l689 824h114z" />
<glyph unicode="&#xbd;" horiz-adv-x="978" d="M176 313h-115l689 824h114zM645 406l-76 32q33 125 156 125q78 0 123 -57t45 -137q0 -82 -115 -197q-12 -14 -59 -59l-37 -35h219v-78h-332v78l84 84l103 100q51 51 51 107q0 115 -82 116q-60 3 -80 -79zM156 1241l-50 59l109 97h78v-549h-76v444z" />
</font>
</defs>
</svg>
