<?xml version="1.0" standalone="no"?>
<!DOCTYPE svg PUBLIC "-//W3C//DTD SVG 1.1//EN" "http://www.w3.org/Graphics/SVG/1.1/DTD/svg11.dtd" >
<svg xmlns="http://www.w3.org/2000/svg">
<metadata></metadata>
<defs>
<font id="jenkins_v2.0regular" horiz-adv-x="661" >
<font-face units-per-em="2048" ascent="1638" descent="-410" />
<missing-glyph horiz-adv-x="323" />
<glyph horiz-adv-x="0" />
<glyph unicode="&#xd;" horiz-adv-x="323" />
<glyph unicode=" "  horiz-adv-x="323" />
<glyph unicode="&#x09;" horiz-adv-x="323" />
<glyph unicode="&#xa0;" horiz-adv-x="323" />
<glyph unicode="!" horiz-adv-x="342" d="M86 1020q0 233 51 407h33l4 -466q4 -269 43 -457q-16 -10 -29 -10q-27 0 -36 57q-10 68 -29 80q-37 186 -37 389zM199 248q0 14 27.5 50t25.5 56q55 -16 74 -26q41 -23 41 -68q-14 -66 -91 -65q-25 0 -51 15t-26 38z" />
<glyph unicode="&#x22;" horiz-adv-x="307" d="M84 1006q0 37 30.5 118.5t24.5 128.5h27q-2 -25 -15.5 -82t-13.5 -88q0 -46 29 -73q2 -10 2 -21q0 -37 -29 -59h-33q-23 37 -22 76zM217 1014q0 39 16.5 117.5t14.5 121.5q55 1 80 -32q8 -150 -95 -291q-16 39 -16 84z" />
<glyph unicode="#" horiz-adv-x="983" d="M82 725q37 47 149 84q86 23 175 45l26 309q55 -102 55 -233q0 -29 -2 -58q18 -4 39 -4q33 0 92 13q78 18 93 20l20 324h47l35 -324l174 19q-6 -12 14 -33q-23 -45 -118 -58q-84 -12 -90 -71q18 -8 40 -8q27 0 86.5 24.5t92.5 24.5q23 0 43 -6q-6 -53 -147.5 -91 t-141.5 -98q0 -37 27 -88q-18 -6 -31 -6q-27 0 -33 35q-2 6 -2 57q-2 31 -16 41q-47 18 -101 19q-90 0 -141 -52q4 -29 36 -51t32 -35q0 -14 -21 -43q-10 0 -37.5 -16t-38.5 -16q-20 0 -32 32v129l-277 21q35 23 160 47q102 20 131 80q-20 4 -47 4q-55 0 -154 -17 q-111 -18 -137 -20zM485 725h109q61 10 70 14q38 17 32 54q-190 0 -211 -68z" />
<glyph unicode="$" horiz-adv-x="765" d="M86 823q0 61 70 109q29 20 114 72q20 16 62 16q10 0 33 -2h34q66 0 80 53l35 244h47q18 -29 19 -84q0 -23 -4.5 -69t-4.5 -68q0 -115 117 -103v-53q-147 18 -223 18q-211 0 -275 -114q-10 -47 33 -88l80 -60q47 -16 264 -94q162 -57 250 -129q4 -10 4 -20 q0 -57 -133 -142q-240 -14 -256 -162l14 -147h-61l-20 244q-25 0 -132 -2q-84 -2 -92 49q49 2 146 8q80 8 125 57q-8 37 -9 62q0 59 43 100q8 6 17 6q14 0 29 -22q18 -29 22 -31l-20 -100q27 -16 55 -17q53 0 160 84l-21 47q-70 55 -205 95q-180 51 -217 67 q-117 51 -178 148q-2 14 -2 28z" />
<glyph unicode="%" horiz-adv-x="1060" d="M92 582q0 23 2 65q113 154 377 230q-27 12 -20 26q14 18 26 19q10 0 36 -17.5t38 -17.5q6 0 14 2q20 -6 43 -6q43 0 123 35.5t109 35.5q51 1 82 -65q-98 -129 -181 -322q-47 -113 -143 -338q18 -68 14 -82q-39 -68 -110 -67q-29 0 -51 14q76 104 167 367q90 252 177 360 q-23 20 -58 21q-27 0 -78 -15q-57 -16 -79 -18q-147 -166 -168 -184q-113 -104 -215 -105q-102 0 -105 62zM227 612q111 29 209 150q-70 -10 -131 -47q-82 -45 -78 -103zM711 242q0 37 16 67q88 123 117 152q78 80 157 80q58 0 117 -41q18 -33 19 -66q0 -43 -37 -104 q-43 -72 -49 -101q-68 -74 -97 -96q-57 -45 -116 -45q-20 0 -43 6q-84 49 -84 148zM821 209q85 -15 183 100q14 53 14 90q0 59 -35 86q-72 -37 -117 -115.5t-45 -160.5z" />
<glyph unicode="&#x26;" horiz-adv-x="471" d="M86 377q0 47 49 115l33 32q-82 66 -82 142q0 82 123 233q135 168 153 240l29 12l33 -47q-12 -23 -92 -139q-59 -88 -82 -150q20 -4 121 0q74 2 121 -14q12 -29 12 -53q0 -49 -47 -99q-8 -8 -95 -78q31 -74 33 -79q0 -45 -119 -54q-66 -4 -75 -61q-4 -20 -4 -60 q0 -33 11 -96t11 -96q0 -70 -51 -119q-59 25 -59 96q0 25 6 72t6 72q0 51 -21 84q-14 23 -14 47zM215 666h82l47 53z" />
<glyph unicode="'" horiz-adv-x="249" d="M70 911q0 12 19.5 47t16.5 52l70 133q43 81 92 110l-53 -219q-43 -123 -129 -153q-16 14 -16 30z" />
<glyph unicode="(" horiz-adv-x="497" d="M82 322q12 252 127 479q111 217 291 377l32 -48q4 -39 -38 -63q-66 -37 -76 -51q-137 -242 -168 -309q-90 -195 -90 -338q0 -152 96 -269q6 -20 45 -40.5t39 -41.5q0 -10 -2 -20q-14 -31 -37 -31q-31 0 -72 51q-154 154 -147 304z" />
<glyph unicode=")" horiz-adv-x="335" d="M-61 0q145 145 233 342q90 205 90 403q0 170 -67 308q-10 10 -64 39q-39 20 -39 51q0 16 8 37q8 -2 17 -2q14 0 40.5 26.5t41.5 26.5q8 0 16 -4q145 -180 145 -479q1 -136 -30 -277q-49 -94 -156 -281q-92 -154 -235 -190z" />
<glyph unicode="*" horiz-adv-x="899" d="M86 713l356 100q4 8 4 18q0 25 -25.5 78.5t-25.5 75.5q0 29 35 37l80 -115q27 23 51 115q20 74 78 82l-35 -148q59 10 174 120t185 122q-35 -76 -152 -176q-125 -106 -172 -180q14 -8 35 -8q23 0 70 12t69 12q47 0 68 -45q-14 -53 -93 -53q14 0 -38 2h-39q-43 0 -60 -17 q6 -29 57.5 -90t51.5 -86q0 -27 -27 -51q-59 2 -104 76q-61 98 -84 119q-45 -8 -60 -74q-6 -25 -14 -117q-6 -61 -22 -61q-25 0 -87 90q-78 -76 -104 -78q-18 0 -37 16q6 51 80 109q82 63 94 100q-27 18 -63 19q-33 0 -93.5 -19.5t-91.5 -19.5q-41 0 -61 35z" />
<glyph unicode="+" horiz-adv-x="724" d="M96 410v34q57 23 160 37l164 23q10 197 100 358l15 -323q25 -16 53 -17q25 0 73 18.5t68 18.5q29 0 47 -20q-23 -51 -104 -74q-8 0 -137 -21q-10 -12 -11 -30q0 -23 19.5 -68t19.5 -63q0 -29 -39 -29q-23 0 -57 8q8 37 8 66q0 98 -104 98q-37 0 -109 -12.5t-108 -12.5 q-33 0 -58 9z" />
<glyph unicode="," horiz-adv-x="235" d="M-23 -223q109 55 164 180q51 113 45 244q6 2 13 2q24 0 49 -70q6 -29 6 -57q0 -180 -248 -332z" />
<glyph unicode="-" horiz-adv-x="722" d="M94 526v35q317 57 682 47q0 -51 -129 -67z" />
<glyph unicode="." horiz-adv-x="172" d="M84 33q29 86 74 86q12 0 26 -4q2 -43 2 -66q-2 -37 -34 -49q-8 -4 -17 -4q-14 0 -51 37z" />
<glyph unicode="/" horiz-adv-x="415" d="M90 0q12 190 119 444q29 68 205 426h32q-55 -168 -157 -438l-166 -432h-33z" />
<glyph unicode="0" horiz-adv-x="673" d="M82 223q0 166 119 330q102 137 262 242q27 0 75 21.5t72 21.5q18 0 35 -9q4 -14 -13.5 -31.5t-19.5 -23.5q111 -96 111 -256q0 -58 -16 -115q-25 -213 -338 -383q-33 -6 -62 -6q-133 0 -215 113q-10 49 -10 96zM176 246q0 -72 64 -119q31 -14 63 -14q49 0 103 28 q31 18 92 54q133 127 133 329q0 39 -6 76q-33 113 -101 113q-61 0 -147 -90q-23 -23 -123 -138q-4 -23 -45 -116q-33 -76 -33 -123z" />
<glyph unicode="1" horiz-adv-x="215" d="M92 346q0 188 58 356q63 -20 63 -71q0 -23 -12.5 -70t-12.5 -72t9 -43q-18 -57 -19 -124q0 -99 51 -281q-6 -4 -32 -23q-18 -14 -33 -14q-8 0 -14 4q-57 152 -58 338z" />
<glyph unicode="2" horiz-adv-x="735" d="M59 494q55 59 193 71q160 14 211 43l29 -49q-82 -231 -244 -424l33 -33q43 16 254 99q152 59 251 63v-28q-14 -4 -348 -148q-209 -90 -352 -94q23 80 136.5 238.5t139.5 246.5q-20 14 -49 15q-33 0 -73 -19q-98 -45 -115 -45q-43 0 -66 64z" />
<glyph unicode="3" horiz-adv-x="784" d="M78 612q0 23 80 70q41 -10 84 -10q74 0 216 46t218 46q8 -82 -94 -176q-119 -111 -136 -162q8 -2 183 -23q119 -14 174 -57q39 -100 39 -129q0 -17 -4 -33q-150 -180 -402 -180q-74 0 -151 19q-4 12 -47 12q-16 20 -15 55q2 51 0 60q8 4 31 32q16 20 33 21q8 0 18 -6 q-2 -10 -2 -21q0 -43 53 -63q12 -6 90 -25q90 27 179 51q102 39 118 125q-57 55 -153 66q-63 6 -180 0q-123 -8 -172 2q14 72 106 145q106 84 137 146q-45 -4 -170 -29q-104 -23 -170 -23q-25 0 -45 2q-18 20 -18 39z" />
<glyph unicode="4" horiz-adv-x="792" d="M88 324q176 313 223 532q25 6 53.5 41t49.5 35q12 0 30 -8l15 -518q61 -18 203 -19q137 0 188 -16l-391 -80q-6 -18 -6 -37q0 -35 35.5 -103.5t35.5 -91.5q0 -41 -65 -59q-61 16 -78 123q-20 139 -37 168q-35 -10 -76 -10q-102 0 -180 43zM229 406h115l-14 208z" />
<glyph unicode="5" horiz-adv-x="747" d="M86 141q98 2 199 2q121 12 178 93q41 55 41 79q0 31 -41 50q-49 6 -137 -29q-94 -37 -127 -37q-45 0 -80 33q96 397 358 436q143 0 164 -2q103 -10 160 -57q-18 -33 -45 -33q-16 0 -51 16.5t-54 16.5q-111 0 -209 -45q-106 -49 -161 -138l-13 -80q20 -4 45 -4t72 4.5 t72 4.5q100 0 168 -54q2 -14 2 -28q0 -70 -56 -140q-25 -31 -108 -108q-188 -86 -268 -86q-29 0 -56 6z" />
<glyph unicode="6" horiz-adv-x="624" d="M84 270q0 205 121 365t319 215q12 -6 25 -6q14 0 43 11t39 11q20 0 35 -30q-10 -100 -111 -101h-41q-57 2 -43 2q-92 0 -129 -63q-88 -100 -119 -156q-51 -92 -43 -186q37 4 162 45q113 37 176 37q93 -1 148 -64q2 -14 2 -31q0 -117 -164 -231q-47 -51 -146 -51 q-55 0 -178 24q-96 59 -96 209zM213 188q20 -51 82 -51q14 0 44 3t44 3t27 -2q45 33 90 64q47 41 37 98q-250 -12 -324 -115z" />
<glyph unicode="7" horiz-adv-x="524" d="M86 582q0 35 18 59q20 4 213 23q141 12 205 71h35q6 -33 6 -67q0 -94 -61.5 -272.5t-61.5 -272.5q0 -25 2 -49h33q10 -92 -100 -148h-47q-4 109 57 312q61 211 61 313q0 29 -4 55l-323 -80q-33 14 -33 56z" />
<glyph unicode="8" horiz-adv-x="688" d="M84 160q0 39 18 76q55 51 97 229q39 168 112 223q106 121 195 129v66q121 0 131 -2q100 -18 100 -127q0 -74 -119.5 -188.5t-119.5 -162.5q0 -61 90 -133q6 -20 6 -39q0 -35 -29 -79q-37 -57 -45 -78q-59 -31 -119 -62q-74 -35 -127 -35q-41 0 -77 17q-113 49 -113 166z M197 170q39 -90 129 -82q82 37 102 53q49 38 59 95q-6 96 -125 96q-43 0 -83 -15q-35 -20 -52 -63zM297 479h129q113 106 127 123q72 82 68 154q-12 18 -27 18q-14 0 -54 -38t-67 -38q-16 0 -33 11q-8 -14 -80 -107q-55 -70 -63 -123z" />
<glyph unicode="9" horiz-adv-x="847" d="M86 -41q147 31 320 152q49 39 280 221q143 113 143 284q0 49 -14 93q-27 80 -139 79q-49 0 -137 -20q-100 -94 -113 -106q-63 -72 -64 -136q43 -80 140 -80q45 0 90 19q23 0 65.5 30.5t61.5 30.5q18 0 35 -14q-92 -133 -301 -133q-45 0 -91 6q-70 47 -69 131q0 49 37 158 q57 86 160.5 148.5t201.5 62.5q137 0 203 -129q12 -55 12 -107q0 -166 -133 -311q-88 -96 -291 -234q-213 -143 -295 -225h-102v80z" />
<glyph unicode=":" horiz-adv-x="223" d="M72 471q0 14 18 35l66 47q39 -47 39 -78t-39 -51q-84 18 -84 47zM100 47q0 12 23 68q8 -14 74 -17q49 -2 41 -51q-55 -55 -115 -47q-23 23 -23 47z" />
<glyph unicode=";" horiz-adv-x="206" d="M-6 -420q172 215 172 416q0 45 -10 90q68 -55 67 -143q0 -55 -33 -152l-49 -143q-18 -6 -55 -43t-57 -37q-16 0 -35 12zM92 545q0 45 17 73q6 -2 10 -2q8 0 16 9.5t12 9.5q5 0 9 -2q18 -31 18 -68q0 -70 -51 -108q-31 25 -31 88z" />
<glyph unicode="&#x3c;" horiz-adv-x="649" d="M96 430q88 57 252 115l266 94q16 0 45 2t37 -14v-35q-143 -51 -420 -174q25 -55 72 -164q41 -90 105 -148l-47 -32q-63 49 -132 147l-110 162q-12 -2 -21 -2q-23 0 -47 49z" />
<glyph unicode="=" horiz-adv-x="536" d="M90 383v68q156 35 229 59q123 41 209 102q37 -37 37 -51q0 -8 -2 -16q-43 -10 -237 -101q-141 -66 -236 -61zM111 188q4 72 79 91q8 2 129 24l125 49q70 31 119 66l12 -35q-4 -55 -71 -94l-123 -53q-45 6 -119 -25q-82 -31 -112 -31q-20 0 -39 8z" />
<glyph unicode="&#x3e;" horiz-adv-x="563" d="M74 604l67 82q172 -133 308 -133q65 0 124 31q31 -37 31 -74q0 -53 -90 -135q-100 -92 -117 -148q-49 -104 -51 -106q-39 -59 -96 -55q-8 18 -8 34q0 45 57 107q74 80 86 102l80 148q-49 33 -203 59q-131 23 -188 88z" />
<glyph unicode="?" horiz-adv-x="606" d="M82 895q84 133 226.5 220t293.5 83l47 -61q-23 -276 -256 -680q10 -10 27 -11q18 0 56 19.5t54 19.5q23 0 37 -28q-47 -29 -141 -82q-80 -43 -143 -43q-29 0 -52 10q98 143 189 289q72 115 104 190q49 113 49 211q0 35 -6 72q-33 12 -67 12q-86 0 -185 -80 q-6 -6 -165 -141h-68zM338 31q25 18 24 41q0 6 -3 20t-3 21q0 18 17 32q33 4 57 -30q29 -43 43 -49q6 -23 -33 -62q-76 0 -59 -2q-29 4 -43 29z" />
<glyph unicode="@" horiz-adv-x="913" d="M86 244q0 88 64 188l114 172q303 250 504 250q135 0 211 -121q-55 -385 -324 -506q-18 0 -55 -15t-55 -15q-31 0 -51 30q-4 66 -62 66q-14 0 -33 -4q-115 -25 -149 6l-12 147q-86 -160 -86 -209q0 -47 32 -86q66 -51 174 -55l183 -6q-76 -47 -197 -47q-129 0 -209 61 q-49 68 -49 144zM250 442q20 41 82 86q74 53 94 76q94 33 164 33t112 -33q6 -72 7 -102q0 -135 -68 -172q100 37 162 151q49 96 61 219l-47 66q-29 4 -57 4q-154 0 -297 -108q-86 -66 -213 -220zM346 377h53q53 -8 90 51q49 80 72 96q-186 -43 -215 -147z" />
<glyph unicode="A" horiz-adv-x="655" d="M82 302q119 43 170 183q20 57 61 273q33 176 90 258q59 -4 78 -53q12 -33 12.5 -108t12.5 -105q18 -49 26.5 -164t26.5 -166q31 -84 109 -118l-2 -46q-14 4 -29.5 -9.5t-26.5 -21.5v-6q0 -34 44 -90q48 -61 48 -78q0 -33 -67 -51q-33 41 -69 133t-62 129l-228 31 l-53 -164q-33 -96 -88 -127q14 92 60 262q-10 14 -56.5 16t-56.5 22zM313 387l162 -20l-65 340z" />
<glyph unicode="B" d="M94 78l2 47q10 10 23 10q12 0 47 -25.5t55 -23.5q14 37 15 80q0 43 -17.5 127t-17.5 127q0 74 41 123q-14 29 -15 63q0 25 10.5 71t10.5 71q0 45 -27 88q-12 -33 -51 -33q-10 0 -31.5 2t-32.5 2q0 80 68 111q43 18 145 26q111 6 152 21q125 -4 145 -9q83 -19 93 -82 q-76 -145 -138 -227q-84 -115 -190 -190q59 -25 180 -74q104 -45 107 -135q0 -78 -84 -133q-20 -12 -142 -86q-23 -2 -100 -17q-61 -10 -98 -10q-104 0 -150 76zM336 539q227 170 227 292q0 19 -2 35q-57 23 -98 23q-100 0 -113 -133q-4 -72 -14 -217zM348 344l4 -229 q61 23 125 47q70 35 76 92q-23 45 -90 61q-113 27 -115 29z" />
<glyph unicode="C" horiz-adv-x="761" d="M90 303q39 160 174 289q133 123 297 162q12 -2 94 -4q57 0 80 -37q-12 -61 -55 -70h-7q-22 0 -85 8q-24 4 -43 4q-35 0 -56 -12q-152 -86 -202 -131q-103 -91 -103 -206v-7q82 -141 277 -141q57 0 108 14q25 12 115 31q76 14 113 55l18 -14q-193 -152 -387 -152 q-80 0 -158 27q-94 61 -108 76q-61 51 -72 108z" />
<glyph unicode="D" horiz-adv-x="753" d="M78 39q0 41 49 90l82 74q-20 96 -21 217q0 51 5.5 151.5t5.5 151.5q-43 10 -43 39q0 18 14 45q18 35 20 45q440 -7 590 -283q27 -39 27 -84q0 -47 -31 -116q-41 -92 -45 -107q-203 -270 -538 -270q-53 0 -107 8q-8 20 -8 39zM285 436q0 -238 69 -334l131 56 q86 37 144 104q63 76 63 162q0 41 -16 84q-43 111 -152 170q-96 55 -223 55q-16 -203 -16 -297z" />
<glyph unicode="E" horiz-adv-x="741" d="M88 139q0 27 8 54q-2 27 -2 51q0 84 40 249.5t40 249.5q176 121 422 121q99 0 197 -20q-326 -18 -541 -172l-66 -301q35 -6 72 -6q213 0 420 159q20 -14 18 -47q-207 -125 -516 -241q-4 -18 -4 -37q0 -100 78 -107q14 -1 29 -1q91 0 200 52q168 80 215 90 q-31 -80 -151 -131q-29 -12 -215 -82q-39 -14 -80 -14q-68 0 -113 33q-51 37 -51 100z" />
<glyph unicode="F" horiz-adv-x="935" d="M74 684q31 92 125 92q20 0 59 -4t59 -4q49 0 84 16q47 8 172 52q103 36 168 36h4q41 0 78 -12l19 -47v-35q-53 14 -113 15q-104 0 -235 -41q-74 -23 -224 -76q-30 -123 -30 -202v-5q0 -82 28 -137q127 6 363 92q198 72 350 72h23q-45 -33 -146 -76l-575 -182 q-29 -27 -29 -68q0 -25 16.5 -71t16.5 -68q0 -45 -82 -47q-8 25 -21 143q-10 96 -47 149q0 43 16.5 128t16.5 128q0 129 -96 152z" />
<glyph unicode="G" horiz-adv-x="653" d="M86 186q0 98 113 308q172 319 467 350q16 -35 16 -58q0 -45 -92 -51q-106 -6 -127 -43q-256 -195 -293 -520q63 -104 160 -104q45 0 112 38q106 61 152 162q16 14 16 37q0 16 -20.5 49t-24.5 43q-10 6 -18 6q-10 0 -27.5 -10t-25.5 -10q-29 0 -29 41q0 37 72 70 q20 6 38 6q33 0 68 -35q24 -28 51 -59q6 -31 6 -62q0 -92 -63 -172q-57 -72 -148 -109q-162 -67 -225 -67h-2q-74 0 -131 49q-45 63 -45 141z" />
<glyph unicode="H" horiz-adv-x="671" d="M53 354q94 63 94 240v90q0 96 21 152q49 0 49 -48q0 -8 -2 -28v-31q0 -31 14 -45q-24 -65 -24 -135v-6q0 -100 43 -185q27 -4 53 -4q47 0 193 41l20 486q31 10 49 10q49 0 49 -64q0 -25 -18 -118q-12 -60 -12 -90q0 -11 2 -19q0 -8 -4.5 -27.5t-4.5 -29.5q0 -25 17 -37 q12 23 70 43q14 -16 14 -37q0 -29 -53 -102q-37 -41 -37 -99q0 -29 39 -166q4 -23 50 -61.5t44 -69.5q-14 -18 -39 -18q-10 0 -30.5 4t-31.5 4q-63 18 -86 96q-8 57 -16 117q-18 86 -53 86q-29 0 -76 -31q-16 -4 -51 0q-37 4 -51 4q-41 0 -62 -30q0 -25 10.5 -71t10.5 -69 q0 -47 -43 -69l-47 2q-14 29 -15 74q0 18 3 54t3 54q0 104 -92 133z" />
<glyph unicode="I" horiz-adv-x="962" d="M25 748q33 14 90 14q31 0 93 -5t93 -5q133 0 133 92q0 35 -16 82q2 31 53 31q7 0 16 -1q12 -18 13 -49q0 -10 -2 -27.5t-2 -27.5q0 -37 18 -57q27 -6 57 -7q78 0 215 52q150 55 218 61l28 -47q0 -8 -4 -16q-37 -49 -106 -58q-39 -4 -119 -12l-293 -68q-23 -106 -23 -260 q0 -37 11 -293q33 -18 71 -18q29 0 86.5 14.5t87.5 14.5q33 0 66 -13q8 -10 8 -28q0 -55 -47 -76q-37 16 -84 16q-70 0 -160 -41q-4 -10 5.5 -28.5t9.5 -24.5q0 -27 -25 -27q-5 0 -12 1q-25 4 -29 2q-14 84 -96 84q-29 0 -83 -10.5t-83 -10.5q-63 0 -90 47l307 88l-24 533 q-248 0 -381 78z" />
<glyph unicode="J" horiz-adv-x="874" d="M74 813q59 39 220 48t222 46q37 -14 78 -14q47 0 139 28.5t135 28.5q37 0 68 -14q-16 -51 -78 -76q-39 -14 -125 -27.5t-127 -29.5q-18 -61 -18 -141q0 -61 15 -185.5t15 -185.5q0 -213 -176 -291q-199 8 -266 254v19q0 150 90 173q-4 -37 -4 -71q0 -193 119 -258 q16 -12 37 -13q59 0 114 89q-8 63 -8 174v53q0 248 -67 362h-8q-44 0 -119 -18q-88 -20 -129 -21q-86 0 -127 70z" />
<glyph unicode="K" horiz-adv-x="706" d="M86 803q0 17 26 41q30 28 33 45q57 -31 58 -139q0 -25 -3 -73t-3 -73q0 -74 24 -108q37 35 170 127q117 80 166 137q74 84 76 188l61 -2l-8 -162l-434 -385q53 -70 168 -116l196 -78q103 -53 140 -139q-113 2 -275 81q-219 109 -270 125q-12 -18 -12 -51q0 -27 10 -77 t10 -76q0 -70 -76 -70q-11 0 -24 2q-3 38 -3 138t3 261q1 32 1 62z" />
<glyph unicode="L" horiz-adv-x="903" d="M100 49q12 145 43 432q33 242 154 389q49 -25 49 -55q0 -19 -48 -79q-44 -56 -44 -88v-5q-47 -125 -47 -340q0 -96 10 -213h22q100 0 269 31q199 37 291 37q79 -1 147 -19q20 -31 21 -47q0 -14 -23 -35q-80 39 -172 39q-94 0 -278.5 -52t-278.5 -52q-43 0 -84 8z" />
<glyph unicode="M" horiz-adv-x="911" d="M84 12q18 43 39 142l4 79q49 131 49 351q0 102 -10 200q16 53 117 76q37 -86 75.5 -269t75.5 -269q61 53 113 176q68 164 84 188q57 86 147 86q53 -102 84 -371q29 -248 115 -348q-24 -28 -57 -28h-2q-35 0 -67 30.5t-34 65.5q-12 47 -37 256q-18 154 -69 235 q-37 -49 -127 -241q-72 -156 -170 -211q-76 23 -95 147q-25 160 -51 197q-8 -43 -37 -279q-20 -168 -69 -264q-23 10 -45.5 21.5t-32.5 29.5z" />
<glyph unicode="N" horiz-adv-x="665" d="M96 758q14 2 46 27.5t51 25.5q10 0 20 -4q106 -317 379 -571q20 61 20 129q0 82 -43 227q-47 156 -51 227l55 66q66 -90 95 -248q14 -93 45 -279q-8 -29 -8 -75v-50q2 -63 2 -47q0 -117 -76 -147q-53 2 -78 65q-29 78 -43 89q-90 66 -295 337l-25 -532l-47 2 q-43 160 -43 430v143q0 104 -4 185z" />
<glyph unicode="O" horiz-adv-x="708" d="M82 272q33 190 180 353q141 152 330 225q2 -2 37 0q23 0 30 -16l-104 -64q165 -49 188 -170q16 -53 17 -106q0 -195 -199 -357q-195 -88 -262 -88q-33 0 -66 6q-66 27 -102 88q-20 35 -49 129zM195 297q0 -86 63 -127q35 -12 70 -12q61 0 225 94q109 90 109 209 q-1 39 -15 76q-41 104 -145 108h-10q-90 0 -156 -67q-37 -39 -100 -150q-41 -55 -41 -131z" />
<glyph unicode="P" horiz-adv-x="841" d="M92 858q0 39 70 70q186 8 229 8q301 0 434 -131l74 -133q1 -7 1 -14q0 -57 -71 -119q-43 -39 -100 -68q-37 -63 -139 -88q-33 -8 -166 -37q-78 -27 -78 -98q0 -31 12 -72q13 -23 13 -58v-14q-5 -77 -6 -77v2q-10 -31 -46 -31q-31 0 -49 20l6 140q0 147 -71 200l2 68h14 q0 41 7.5 122t7.5 122q0 90 -25 147q6 0 -61 -2q-37 -2 -52 21q-6 12 -6 22zM334 702q0 -45 11 -134t11 -134q23 6 117 21q70 10 109 37q66 22 112 78q45 53 45 117v5q-53 141 -274 142q-53 0 -111 -9q-20 -55 -20 -123z" />
<glyph unicode="Q" horiz-adv-x="821" d="M82 313q0 25 19.5 70t19.5 68q0 14 -6 28q76 166 170 201q57 20 161 98q94 70 158 70q61 0 125 -60q146 -89 150 -296q1 -7 1 -15q0 -82 -98 -217q-113 -154 -112 -211q0 -76 80 -151q2 -2 45 0q29 0 34 -17q4 -8 5 -16q0 -14 -39 -49q-12 -2 -25 -2q-109 0 -178 157 q1 4 1 9q0 29 -32 88q-135 -59 -213 -60q-174 0 -221 137q-45 131 -45 168zM205 293q0 -168 170 -168q88 0 166 59l-21 15q-2 14 -31 67q-25 47 -24 74q0 49 65 68q14 4 33 4q43 0 64 -60q25 -70 45 -80q73 80 73 267v20q-8 59 -58 103q-47 40 -101 40h-8l-19 -81 q-14 -10 -27 -11q-14 0 -50 22.5t-56 20.5q-61 -25 -109 -98q-78 -121 -90 -135q-22 -60 -22 -122v-5z" />
<glyph unicode="R" horiz-adv-x="952" d="M82 780q18 57 72 58q27 0 77 -16.5t74 -16.5h24q38 0 95 4q84 6 119 6q168 0 245 -80q-10 -139 -155 -233q-82 -51 -248 -154q109 -76 254 -127q90 -31 270 -92q10 10 23 51q10 35 33 35q12 0 28 -8q27 -57 27 -76q0 -25 -31 -18q-18 -61 -135 -61q-14 0 -29 1l-589 236 q-23 -27 -23 -66q0 -37 28.5 -111.5t28.5 -101.5q0 -45 -69 -45q-18 0 -41 2q-35 158 -51 412zM180 582q0 -47 29 -111l33 -35q207 78 235 92q130 68 148 168q-14 -1 -32 -1q-35 0 -81 3q-84 6 -113 7q-219 0 -219 -123z" />
<glyph unicode="S" horiz-adv-x="819" d="M86 129q10 10 23 51q10 35 32 35q12 0 29 -8q82 -84 276 -84q113 0 242 27q-70 53 -293 180q-195 111 -278 202v10q0 105 157 193q74 41 197 41q47 0 162 -10q83 -6 137 -6h25q28 -22 28 -56q0 -14 -4 -26q-33 -35 -78 -35q-41 0 -84 29l-155 6q-178 0 -266 -82 q100 -119 309 -236q271 -151 332 -198v-58q-4 -31 -31 -43q-145 -20 -281 -20q-246 0 -399 72q-8 -29 -27 -29q-23 0 -53 45z" />
<glyph unicode="T" horiz-adv-x="1009" d="M70 676q39 84 215 139q349 60 693 60q46 0 91 -1l12 -28q1 -7 1 -14q0 -38 -38 -64q-14 -4 -34 -4q-37 0 -112 10t-112 10q-137 0 -151 -112v-31q0 -82 -8 -215q-12 -168 -13 -244q0 -129 23 -227l-78 4q-45 8 -47 49q-1 19 -1 43q0 72 9 189q14 182 15 256 q0 158 -37 262q-158 -27 -185 -35q-98 -31 -145 -98q-8 -2 -18 -2q-31 0 -80 53z" />
<glyph unicode="U" horiz-adv-x="716" d="M88 371q0 59 7 177t7 177l84 78q6 -20 47 -23q4 -23 5 -49q0 -82 -45 -125q-8 -147 -9 -188q0 -178 54 -287q14 -2 28 -2q70 0 148 92q25 31 112 162q20 41 36 151.5t38 155.5q36 68 114 68h5q-53 -301 -53 -426q0 -129 36 -234q10 2 19 2q22 0 47 -53q-43 -47 -94 -47 q-16 0 -37 6q-72 72 -90 227q-37 -27 -102.5 -95t-104.5 -95q-59 -39 -131 -39q-20 0 -43 2q-78 131 -78 365z" />
<glyph unicode="V" horiz-adv-x="589" d="M80 864q18 31 41 31q31 0 53 -36q17 -29 17 -54q0 -6 -1 -12q-10 -88 -10 -177q0 -227 78 -428q70 86 148 332q72 225 178 322l47 -2q-12 -59 -66 -166q-61 -125 -78 -172q-70 -203 -94 -264q-61 -147 -143 -238q-6 -1 -12 -1q-36 0 -68 32q-2 2 -57 69q4 2 32 -14 q-25 135 -39 379q-18 317 -26 399z" />
<glyph unicode="W" horiz-adv-x="837" d="M90 856q14 0 39 9t33 9q18 0 37 -22q-25 -88 -25 -188t64 -428q147 279 149 446q8 6 39 11t43 20l45 -49q4 -45 16 -211q8 -127 33 -197q84 61 137 172q33 70 74 216.5t72 211.5l51 -49q-43 -381 -342 -748q-63 0 -76 76q-16 106 -30 125q-2 16 3 49t5 45q0 45 -35 70 q-70 -174 -82 -201q-51 -111 -111 -182q-59 2 -77 49q-8 23 -15 103q-4 68 -24 96z" />
<glyph unicode="X" horiz-adv-x="616" d="M-66 -135q25 82 175 280q129 170 129 281q0 72 -43 143q6 16 6 33q0 41 -55.5 127t-55.5 111q0 45 86 67q45 -80 82 -205l61 -206q45 47 158 219q96 147 172 205l10 -48l-297 -473q2 -63 56 -149q8 -14 94 -133q14 -16 31 -17q14 0 43 19q23 12 43 26q4 -12 4 -26 q0 -41 -26.5 -75t-65.5 -44q-80 23 -144 113q-10 14 -100 153q-35 -39 -123 -213q-70 -137 -145 -186q-8 -5 -25 -5q-9 0 -20 1q-37 4 -50 2z" />
<glyph unicode="Y" horiz-adv-x="706" d="M74 920q0 57 39 57q12 0 28 -8l129 -289q63 -141 170 -270l271 602l47 -2q-16 -119 -107 -318q-104 -231 -131 -319l66 -51q-78 -63 -111 -181q-4 -14 -37 -215q-20 -131 -61 -196q-6 -2 -12 -2q-10 0 -48 39l117 514q-123 115 -215 288q-51 98 -141 322q-4 14 -4 29z " />
<glyph unicode="Z" horiz-adv-x="970" d="M82 684q0 35 53 109q61 -37 141 -37q70 0 189 30q145 37 192 43q6 -10 41 -20q29 -10 37 -31q-147 -301 -329 -450q-6 -39 -51.5 -79t-49.5 -65l45 -49q14 -1 30 -1q64 0 169 13q160 20 211 21q215 0 278 -166l-34 -25q-109 109 -304 109q-88 0 -251 -29 q-172 -29 -252 -30q-4 23 -4 45q0 109 83 223q18 27 177 201q109 121 145 209q-25 4 -51 4q-66 0 -194 -34t-195 -34q-31 0 -62 4q-14 18 -14 39z" />
<glyph unicode="[" horiz-adv-x="546" d="M86 0q0 90 16.5 270.5t16.5 270.5q0 154 -33 268q78 57 229 86l256 49l15 -20q-51 -51 -185 -86q-139 -37 -186 -76q-18 -86 -18 -219v-219q-2 -119 -29 -209q20 -29 57 -29q16 0 49 9t50 9q31 0 38 -36q-23 -10 -110 -54q-63 -31 -109 -30q-31 0 -57 16z" />
<glyph unicode="\" horiz-adv-x="487" d="M74 766l14 100q66 -80 145 -233l132 -252q10 -29 94 -156q63 -96 63 -153q0 -24 -10 -47q-131 145 -244 360q-49 92 -194 381z" />
<glyph unicode="]" horiz-adv-x="417" d="M98 66q20 16 60 16q12 0 36.5 -2t36.5 -2q61 0 82 49l-18 666q-25 20 -47 20q-18 0 -59.5 -22.5t-63.5 -22.5q-12 0 -27 6q-6 53 43 82q31 18 109 36.5t112 43.5q23 -8 46.5 -18.5t33.5 -28.5q4 -12 4 -23q0 -18 -38.5 -56t-32.5 -65q0 -260 6 -354q12 -194 61 -325 q-41 -72 -135 -72q-43 0 -141 24q-23 10 -68 48z" />
<glyph unicode="^" horiz-adv-x="503" d="M88 547q72 39 158 180q76 125 153 143l142 -344q-29 -41 -62 -32q-33 33 -66.5 115.5t-60.5 113.5l-123 -117q-68 -59 -141 -59z" />
<glyph unicode="_" horiz-adv-x="974" d="M106 -45l27 33q70 -2 146 -2q141 0 389 14l376 23l-34 -35q-117 4 -330 -39q-223 -43 -330 -43q-133 0 -244 49z" />
<glyph unicode="`" horiz-adv-x="313" d="M109 879q68 -35 118 -148q55 -123 109 -162v-47q-14 4 -33 -14q-178 178 -194 371z" />
<glyph unicode="a" horiz-adv-x="559" d="M80 383q227 297 448 322l62 -109q8 -39 8 -82q0 -49 -20.5 -145.5t-20.5 -145.5q0 -51 18 -96q-51 -63 -159 -78q-16 -2 -176 -2q-84 20 -84 109q0 37 30 65q33 70 117 107l156 61q78 39 78 96q0 49 -56 125q-94 -12 -194 -100q-137 -121 -181 -141q-18 18 -26 14z M285 170q0 -23 49 -43q10 31 74 57q57 25 55 70q-18 6 -35 6q-31 0 -141 -65q-2 -14 -2 -25z" />
<glyph unicode="b" horiz-adv-x="569" d="M106 549q0 125 15 248l53 47l12 -324q45 -45 160 -78q154 -45 180 -57q84 -41 84 -113q0 -39 -20 -86q-161 -161 -413 -161h-3q-68 233 -68 524zM201 381l32 -182q2 -2 41 -23q27 -14 27 -37q8 4 102 29q64 16 93 65q-25 72 -125 101z" />
<glyph unicode="c" d="M96 158q0 29 17 61q215 303 551 354l12 -47q0 -69 -82 -69h-2h-37q-63 0 -86 -31q-160 -59 -276 -221q0 -53 47 -101q35 -6 71 -6q76 0 207 31q158 37 193 43q-182 -147 -394 -147q-88 0 -157 32q-63 49 -64 101z" />
<glyph unicode="d" horiz-adv-x="714" d="M88 100q-1 13 -1 26q0 93 75 171q51 51 180 125l182 14q8 35 8 76q0 39 -12 113.5t-12 109.5q0 86 63 137l33 -34q-8 -76 -8 -154q0 -356 170 -731q-57 0 -92 45q-20 27 -49 97.5t-54 99.5q-41 -43 -127 -127q-74 -68 -161 -68q-20 -4 -41 -4q-106 0 -154 104zM203 147 q6 -51 61 -51q4 0 41 4q23 2 37 0q174 95 182 189q-16 37 -59 37q-72 0 -72 -3q0 -1 4 -1l-131 -58q-64 -36 -64 -98q0 -9 1 -19z" />
<glyph unicode="e" d="M84 301q0 45 47 78q88 213 111 248q81 124 203 124q11 0 22 -1q78 -66 102 -181l25 -202q24 -45 24 -68q0 -20 -16 -16q-6 1 -14 1q-40 0 -117 -18q-100 -20 -143 -20q-47 0 -103 6q-16 -16 -16 -35q0 -18 22 -47q25 -35 29 -45q57 -53 129 -53q55 0 160 45 q113 49 160 55q-20 -66 -121 -109l-168 -71q-25 -4 -47 -4q-139 0 -228 116q-2 33 -31.5 100.5t-29.5 96.5zM246 367h174q35 39 35 100v106q-8 51 -68 52q-16 0 -35 -4l-73 -127q-33 -69 -33 -117v-10z" />
<glyph unicode="f" horiz-adv-x="811" d="M66 322q0 55 61 55q18 0 45 -6q16 2 43 0q33 -4 43 -4q39 0 74 30q-2 53 -2 99q0 346 196 450q47 16 99 17q143 0 211 -109q0 -20 16 -64.5t16 -64.5q0 -34 -32 -53q-41 8 -80 102q-37 88 -103 92q-20 6 -41 6q-100 0 -166 -120q-34 -80 -34 -176v-5q0 -92 34 -153h8 q35 0 97 14q70 17 100 17q61 0 84 -52q-31 -45 -125 -57q-111 -14 -143 -37l221 -309l-35 -27q-86 37 -170 154q-125 176 -131 182q-33 0 -91 -9t-85 -9q-31 0 -106 10q-4 12 -4 27z" />
<glyph unicode="g" horiz-adv-x="573" d="M-6 -270q14 8 24 8q18 0 37 -37q20 -43 33 -51q104 -113 229 -113q47 0 93 19q133 88 133 309q0 109 -33 254q-111 -84 -213 -84q-207 0 -207 172q0 49 19 100q18 82 96 148q70 59 157 80q18 2 35 2q111 0 172 -70q2 -86 25 -274q20 -178 20 -277q0 -301 -172 -461 q-182 0 -198 2q-176 23 -221 172q-8 27 -29 101zM197 242q0 -53 39 -97q115 0 174 35q16 16 16 43q0 12 -6 37t-6 37q0 27 16 43h12q4 14 4 27q0 57 -57 57q-82 0 -153 -64q-39 -63 -39 -118z" />
<glyph unicode="h" horiz-adv-x="643" d="M86 745q0 150 66 234q18 -98 18 -227q0 -35 -2 -103.5t-2 -103.5q0 -209 65 -350q45 41 115 188q57 121 127 147q55 -70 106.5 -241.5t108.5 -241.5q-6 -6 -26 -51q-12 -29 -41 -29l-48 19q-12 35 -53 196q-31 121 -74 187q-12 -14 -122 -207q-72 -125 -152 -162 q-35 106 -80 436q4 37 4 80q0 39 -5 115t-5 114z" />
<glyph unicode="i" horiz-adv-x="223" d="M90 223q0 66 2 121q3 60 3 93q0 16 -1 26q14 20 47 20q31 0 45 -20q0 -35 -9 -106.5t-9 -109.5q0 -109 65 -167q-14 -27 -30 -53q-23 -33 -45 -33q-14 0 -31 6q-37 82 -37 223zM174 852q37 0 43 -2q20 -6 16 -31q6 -12 7 -22q0 -20 -54 -72q-6 8 -14 8q-4 0 -12 -3 t-13 -3q-32 0 -32 37q0 29 59 88z" />
<glyph unicode="j" horiz-adv-x="290" d="M-94 -115q45 -23 61 -112q20 -111 39 -142l74 -123q47 -63 121 -71q6 70 6 143q0 178 -41 391q-18 98 -80 385l59 93l56 -48l106 -1032q-10 -57 -49 -57q-14 0 -46 8t-48 8t-31 -6q-239 183 -239 455q0 57 12 108zM195 674q0 84 65 98q51 -10 51 -70q0 -12 -4 -24 q-35 -53 -71 -53q-20 0 -35 18q-6 12 -6 31z" />
<glyph unicode="k" horiz-adv-x="729" d="M88 725q0 72 2 174q14 35 41 35q53 0 72 -70q-33 -78 -33 -198q0 -131 33 -250l415 403q57 -12 57 -65q0 -8 -1 -17q-166 -143 -217 -192q-106 -102 -187 -209q66 -90 189 -90q27 0 78 4t77 4q111 0 166 -80q-53 -16 -166 -16q-119 0 -182 -17q-14 4 -102 25 q-61 14 -92 43q-18 -14 -19 -35q0 -16 12.5 -40.5t18.5 -39t39 -30t33 -31.5q0 -8 -5 -19q-37 -47 -100 -47q-129 258 -129 758z" />
<glyph unicode="l" horiz-adv-x="290" d="M84 553q0 160 20 446q12 10 25 11q10 0 30.5 -14.5t26.5 -16.5q-20 -233 -20 -387q0 -358 100 -559h33q12 -12 12 -27q0 -43 -65 -53h-6q-58 0 -78 76q-31 117 -43 133q-35 162 -35 391z" />
<glyph unicode="m" horiz-adv-x="849" d="M86 143v484q55 -18 72 -70q8 -27 11 -100.5t17 -104.5q33 27 54 99q25 92 34 110q29 53 91 53q14 0 30 -2q18 -57 46 -177t46 -177q57 37 93 135q49 141 55 154q37 66 114 66q7 0 15 -1q53 -72 72.5 -261t74.5 -255q0 -55 -34 -80q-68 18 -80 95q-25 43 -43 174 q-16 119 -58 168q-41 -47 -78 -146q-47 -123 -63 -149q-45 -74 -127 -95q-29 57 -43 179.5t-37 175.5q-37 -29 -96 -172q-47 -113 -113 -113q-25 0 -53 10z" />
<glyph unicode="n" horiz-adv-x="645" d="M82 592q18 33 47 33t49.5 -26t16.5 -54q-12 -39 -13 -80q0 -37 12.5 -106.5t14.5 -100.5q43 31 113 178q59 125 149 144q41 -59 85 -200.5t89 -203.5l21 14q26 -15 26 -41q0 -20 -14 -38q-16 0 -42 -26t-38 -26q-6 0 -14 4q-57 53 -84 164q-33 131 -64 170l-241 -321 l-80 20z" />
<glyph unicode="o" horiz-adv-x="618" d="M84 281q0 145 156 329q49 55 145 170q20 6 41 6q72 0 129 -71q26 -35 92 -129q14 -96 15 -156q0 -158 -97 -233q-137 -145 -293 -146q-55 0 -108 19q-80 80 -80 211zM193 303q0 -66 30 -119q30 -28 66 -28h2q14 0 55 12q25 6 60 16q159 90 159 287q-49 94 -65 117 q-51 76 -97 76q-41 0 -77 -64q-133 -168 -133 -297z" />
<glyph unicode="p" horiz-adv-x="645" d="M33 584q0 67 71 67h2q27 0 73 -10t61 -10q49 -31 156.5 -75t156.5 -75q78 -51 123 -127q16 -29 16 -55q0 -66 -80 -127q-43 -31 -131 -92q-152 -63 -227 -64q-20 0 -41 4q-25 -35 -25 -79q0 -49 43 -145.5t43 -125.5q0 -66 -114 -73q-63 309 -64 587q0 145 17 299 q2 6 30 21q20 10 17 33q-10 14 -37 14h-21q-14 -2 -20 -2q-39 0 -49 35zM193 133q-2 0 34 -18q150 23 203 45q111 45 131 147q-88 131 -321 195l-47 -260q27 -27 26 -54q0 -29 -26 -55z" />
<glyph unicode="q" horiz-adv-x="774" d="M90 190q0 41 14 76q80 197 342 287q113 0 142 -33q6 -10 6 -22q0 -18 -53 -72q34 -50 34 -117q0 -55 -25.5 -158.5t-25.5 -156.5q0 -18 2 -37v-356q33 6 131 49q84 37 134 37q20 0 38 -4q0 -47 -75 -84q-59 -23 -119 -45q-23 -14 -78 -101q-42 -69 -89 -69h-1 q-18 0 -41 10q-33 20 -33 47q0 20 25.5 58t27.5 55l15 530q-8 -2 -103 -27q-70 -18 -116 -18q-49 0 -90 18q-61 47 -62 133zM199 209q0 -55 53 -72q100 8 160 105q30 55 96 164q-35 22 -71 22h-3q-51 0 -106 -41q-6 -4 -97 -76q-33 -57 -32 -102z" />
<glyph unicode="r" horiz-adv-x="567" d="M92 387q16 17 16 50q0 26 -10 61q-4 16 -4 28q0 41 45 56q51 -37 51 -101q0 -8 -2 -24v-27q0 -43 17 -76q39 33 63 113q33 106 43 123q33 61 103 72q165 -23 194 -160q-8 -2 -16 -2q-20 0 -84 32.5t-90 32.5q-51 0 -72 -84q-59 -252 -94 -383q-26 -34 -61 -34q-9 0 -19 2 q-45 51 -57 153z" />
<glyph unicode="s" horiz-adv-x="595" d="M94 424q0 27 8 57q154 154 373 154q43 0 84 -6v-80l-211 -29q-115 -27 -145 -119q76 -76 194 -129q70 -31 221 -79q20 -4 21 -37v-58q-47 -6 -190 -55q-125 -43 -193 -43q-94 0 -154 66q131 0 183 6q106 12 174 61q-43 39 -146 84q-111 47 -149 78q-70 53 -70 129z" />
<glyph unicode="t" horiz-adv-x="841" d="M31 489q20 35 92 58q106 33 119 39q59 31 63 98q6 102 64 229l98 220h45q1 -7 1 -15q0 -76 -72 -226q-69 -145 -69 -232q0 -12 1 -23q14 -12 35 -12q29 0 84 23.5t75 23.5q25 0 25 -31q0 -20 -12 -59l-228 -80q-35 -158 -35 -275q0 -150 56 -268q29 -33 73 -33 q33 0 148 45q109 72 254 289h53q-248 -418 -506 -418q-23 0 -43 2q-114 97 -114 310q0 65 8 163q10 125 12 158z" />
<glyph unicode="u" horiz-adv-x="608" d="M84 274q0 303 152 390q0 -47 -33 -160t-33 -168q0 -94 66 -156q90 23 151 115q53 78 70 180q-16 16 -17 35q0 23 64 92h67q-18 -109 -18 -184q0 -192 98 -264q1 -8 1 -15q0 -55 -72 -55q-39 0 -76 16q-27 12 -29 68q0 49 -31 49q-10 0 -20 -4q-12 -43 -74 -74 q-74 -35 -88 -53q-137 0 -174 94q-4 49 -4 94z" />
<glyph unicode="v" horiz-adv-x="444" d="M84 696q16 16 39 17q53 0 61 -49q-2 -35 -2 -68q0 -198 62 -336q43 55 63 160q29 141 39 168q33 88 113 129q18 -29 18 -62q0 -37 -48 -123t-50 -124l-68 -322q-57 -34 -98 -34q-8 0 -16 1q-59 131 -82 320q-8 66 -31 323z" />
<glyph unicode="w" horiz-adv-x="792" d="M82 573q0 57 8 111q12 2 38 18.5t40 16.5q8 0 16 -2q0 -422 80 -598q78 74 107 200l28 236q6 6 35 39q23 25 45 24q6 0 15 -2q27 -61 41 -192t38 -191q70 84 148 256q86 193 127 254q-49 -428 -275 -669q-18 -6 -32 -6q-47 0 -54 65q-8 82 -28 100q-39 -23 -86 -147 q-41 -109 -105 -109q-29 0 -63 15q-123 391 -123 581z" />
<glyph unicode="x" horiz-adv-x="620" d="M53 -76q-1 11 -1 23q0 107 100 289q110 202 110 301q0 121 -115 227q8 4 41 37q24 24 43 24h2q8 0 15 -2q16 -31 37 -112q20 -74 45 -109q25 -2 44 34t34 36q12 0 28 -8q6 -16 6 -33q0 -55 -86 -156l103 -254q76 -143 205 -168v-47q-27 -18 -58 -18q-61 0 -149 98 l-148 242q-74 -63 -129 -187q-31 -68 -80 -217h-47z" />
<glyph unicode="y" horiz-adv-x="542" d="M84 743q18 6 33 7q43 0 61 -99q12 -70 23 -139q6 -16 12 -23q33 -106 127 -229q43 90 91 282.5t89 280.5q10 6 19 6q12 0 22 -20q15 -27 21 -33q-43 -98 -86 -268q-53 -207 -76 -275q8 -10 20 -10q6 0 17.5 2t17.5 2q16 0 25 -14q-41 -102 -107 -160q-20 -127 -20 -213 q0 -117 35 -190q-18 -10 -35 -10q-82 0 -82 163q0 47 12 141.5t12 141.5q0 25 -2 47q-207 244 -229 610z" />
<glyph unicode="z" horiz-adv-x="974" d="M63 598q0 70 64 86q68 -53 174 -53q47 0 154 18q94 15 147 15h6q14 -31 15 -62q0 -55 -83 -161.5t-91 -159.5q82 0 296 28q154 21 248 21q28 0 51 -2q-242 -80 -737 -162q-8 25 -8 47q0 66 90 162q98 106 113 160l-33 34l-389 -14q-16 18 -17 43z" />
<glyph unicode="{" horiz-adv-x="434" d="M59 504q31 33 142 57q96 20 121 84q-16 35 -132 123q-96 74 -96 135q0 33 19 66q47 84 163 92q63 2 189 8q-16 -43 -105 -57q-104 -16 -139 -43q-8 -23 -8 -43q0 -53 107.5 -144.5t107.5 -134.5q0 -39 -45 -84l-47 -47q66 -33 65 -119q0 -41 -18 -75q-6 -39 -69.5 -119 t-63.5 -113q0 -39 53 -74q154 0 162 -65v-35q-2 0 -174 23q-104 12 -164 59q-2 12 -2 27q0 59 87 179t91 185q-25 18 -90 21q-76 2 -96 10q-49 20 -58 84z" />
<glyph unicode="|" horiz-adv-x="212" d="M82 -57l53 862q0 2 -18.5 33.5t-18.5 54.5q0 10 4 20q14 0 43 31t52 23q33 -37 32 -82q0 -33 -24.5 -100.5t-24.5 -102.5q0 -12 2 -25q2 -63 2 -127q0 -301 -49 -567q-39 0 -53 -20z" />
<glyph unicode="}" horiz-adv-x="444" d="M51 -84q27 41 172 57q131 16 131 74q0 31 -26 78q-80 14 -99 86q-4 43 -10 129q-6 72 -67 82q-10 59 96 178t106 168q0 37 -26 72h-230q-4 39 39 59q37 10 76 23q27 2 51 2q148 -1 211 -97q-14 -80 -88 -188q-10 -16 -127 -170q18 -16 74.5 -19.5t73.5 -13.5 q16 -23 16 -53q0 -41 -27.5 -71.5t-68.5 -24.5q10 -39 75 -131q55 -78 56 -138q0 -16 -2 -34q-27 -51 -109 -76q-6 -2 -135 -25q-8 -4 -18 -4q-25 0 -74 17.5t-70 19.5z" />
<glyph unicode="~" horiz-adv-x="634" d="M92 508q31 203 39 225q43 135 143 164q45 -16 121 -115q66 -84 135 -80l66 70q43 39 84 31q8 -63 -37 -109q-47 -37 -92 -73q-76 -2 -148 57q-92 76 -129 92q-43 -33 -84 -152q-35 -100 -98 -110z" />
<glyph unicode="&#xa1;" horiz-adv-x="342" d="M86 1362q14 66 90 65q35 0 60 -18q18 -18 18 -35q0 -14 -27.5 -50t-25.5 -56q-55 16 -74 26q-41 23 -41 68zM236 1118q16 10 28 10q27 0 37 -57q10 -68 29 -80q37 -186 37 -389q0 -233 -52 -407h-32l-4 467q-4 268 -43 456z" />
<glyph unicode="&#xa2;" horiz-adv-x="552" d="M117 274q0 98 114.5 266.5t114.5 264.5q0 51 -16 104q72 2 71 -75q0 -18 -4 -54.5t-4 -54.5q0 -84 76 -84q18 0 43 6q-2 -20 -63.5 -37.5t-63.5 -56.5q-66 0 -111 -61q-23 -33 -71 -101q0 -14 -9.5 -44t-9.5 -44q0 -59 41 -59q12 0 39 9t39 9v-20q31 -18 64 -19 q39 0 109 40t97 46q12 -20 13 -37q0 -31 -107 -90q-10 2 -20 2q-18 0 -53 -13t-54 -13q-10 0 -22 4q-4 -10 -4 -25q0 -18 5 -53t5 -53q0 -78 -66 -78q-25 29 -34 100q-10 84 -23 109q-25 51 -92 67q-4 23 -4 45zM547 647h26l21 -14z" />
<glyph unicode="&#xa3;" horiz-adv-x="735" d="M94 10q57 55 58 148q0 31 -8.5 92t-8.5 92q0 29 6 53q-8 -4 -19 7.5t-16 11.5q59 33 78 155q27 178 37 203q115 270 291 303q135 -51 137 -53q74 -39 92 -109q-25 -76 -82 -94q-14 66 -22 88q-18 47 -57 74q-190 -12 -263 -147q-8 -43 -49 -168q-33 -102 -32 -170 q23 -10 47 -11q31 0 92 28t92 28q25 0 45 -13q-37 -35 -123 -65q-92 -35 -125 -60q-59 -45 -55 -116q-10 -35 -10 -66q0 -150 174 -149q53 0 106 18q10 -2 25 -2q35 0 108.5 24.5t102.5 24.5q48 0 73 -47q-332 -41 -600 -147q-86 14 -94 67z" />
<glyph unicode="&#xa4;" horiz-adv-x="532" d="M113 242q84 242 323 356q12 -8 72 -16q49 -6 63 -37q-33 -268 -276 -385q-29 -20 -64 -21q-100 0 -118 103zM244 275q0 -10 4 -21q72 8 117 64q20 26 71 118l-94 -20q-98 -98 -98 -141z" />
<glyph unicode="&#xa5;" horiz-adv-x="741" d="M86 141q35 37 129 54q115 18 143 32q68 33 66 111q-41 10 -115 47v53h47q6 66 -22 195q-31 141 -31 198q0 39 6 72q57 -37 84 -147l45 -191q100 41 195 189q101 157 162 196q-20 -117 -113 -250q-55 -78 -164 -235q18 -14 51 -14q6 0 23 2h24q33 0 52 -15q4 -12 4 -22 q0 -49 -72 -78q-10 -4 -36.5 7t-35.5 11q-23 0 -22 -32v-48l147 -20q4 -10 4 -20q0 -31 -39 -52q-6 -2 -65 -22q-14 4 -27 4q-45 0 -73.5 -85t-55.5 -85q-10 0 -20 4v129q-16 4 -39 4q-29 0 -83 -11t-83 -11q-51 0 -86 30z" />
<glyph unicode="&#xa7;" horiz-adv-x="653" d="M115 94q137 -109 227 -129q115 -8 211 129q4 14 22 66q12 37 13 67q0 14 -2 29q-45 66 -160 111q-162 66 -178 75q-84 53 -84 148q0 20 4 43q14 23 59 37q63 20 68 24q-104 51 -105 219q0 35 5 70q55 92 147 147q133 6 201 -10q98 -22 157 -102v-43q0 -27 -20 -39 q-104 121 -188 115q-25 4 -48 4q-160 0 -182 -119q8 -111 115 -195q66 -47 192 -143q100 -80 97 -180l-95 -49q8 -16 54 -37q39 -16 42 -41t3 -47q0 -150 -152 -312q-61 -39 -127 -38q-43 0 -176 38q-100 100 -100 162zM246 563q0 -29 49 -45q141 -82 188 -82q49 0 88 35 q-23 74 -108 125q-51 27 -154 84q-2 -16 -32.5 -58t-30.5 -59z" />
<glyph unicode="&#xa8;" horiz-adv-x="833" d="M383 1182q43 70 104 69q37 0 45 -49q4 -14 5 -26q0 -27 -35 -56q-45 -37 -51 -47q-76 33 -68 109zM680 1087q0 100 108 148q57 -18 68 -25q37 -20 33 -55q4 -14 4 -27q0 -35 -105 -73q-39 -2 -59 -2q-37 2 -49 34z" />
<glyph unicode="&#xa9;" horiz-adv-x="790" d="M92 385q23 283 506 485q25 10 43 11q41 0 66 -45q-10 -51 64.5 -94.5t74.5 -79.5q0 -17 -6 -35q8 -203 -242 -357q-133 -14 -199 -14q-221 0 -307 129zM207 418q74 -72 190 -72q31 0 54 6q-2 0 -95 41q-57 25 -67 72q-8 16 -8 33q0 47 73 118q82 76 82 78 q-106 -68 -151 -112q-82 -80 -78 -164zM438 508q0 -20 25 -43q23 6 51 6q23 0 68 -5t67 -5q92 0 92 94q0 16 -2 39q-37 53 -47 63q-31 33 -67 37v-67q-39 -57 -127 -47q-59 -47 -60 -72z" />
<glyph unicode="&#xaa;" horiz-adv-x="526" d="M92 387q23 59 155 99t154 92q-20 20 -55 20q-20 0 -60 -8t-61 -8q-57 0 -86 49q18 100 99 164.5t184 64.5q31 0 61 -6q-6 -29 24 -55.5t30 -42.5q0 -12 -7 -31q-37 -12 -36 -55q0 -92 2 -72q77 -45 67 -129q-55 -8 -211 -49q-131 -35 -209 -35q-27 0 -51 2zM268 692 q72 11 115 68q-70 -12 -115 -68z" />
<glyph unicode="&#xab;" horiz-adv-x="483" d="M80 303q0 119 70.5 227.5t179.5 157.5q20 -29 51 -29q10 0 20 3q35 14 70 26q35 6 47 -47q-162 -150 -162 -254q0 -43 21 -84q61 -61 80 -133q-23 -39 -51 -39q-2 0 -76 25q-57 96 -58 202q0 106 58 201l-21 14q-150 -106 -149 -280q0 -35 8 -70l94 -135q-8 -16 -31 -14 q-33 2 -36 0q-115 61 -115 229z" />
<glyph unicode="&#xac;" horiz-adv-x="593" d="M109 371q0 27 49 82q39 -29 86 -29t150.5 47t156.5 47q41 0 78 -18q-2 -23 -2 -49q0 -31 5 -91.5t5 -91.5q0 -102 -41 -172q-29 25 -31 178q-2 129 -71 129q-31 0 -74 -18q-31 -4 -107.5 -43t-115.5 -39q-51 0 -86 49q-2 10 -2 19z" />
<glyph unicode="&#xad;" horiz-adv-x="722" d="M94 526v35q317 57 682 47q0 -51 -129 -67z" />
<glyph unicode="&#xae;" horiz-adv-x="731" d="M86 369q-8 160 84 280q68 88 225 191q53 18 111 18q88 0 160 -43q90 -53 110 -162q6 -35 6 -75q0 -113 -82 -224q-176 -184 -321 -184q-55 0 -111 23q-66 0 -110 63q-23 33 -72 113zM184 451q0 -141 97 -177q37 -8 75 -8q180 0 297 150l-170 -17q-102 -10 -135 -77 q-61 6 -82 57q-8 20 -18 100q-8 63 -33 84q-31 -47 -31 -112zM377 578zM377 713l65 26h-32zM539 516h161v115q-16 55 -57 92q-29 23 -86 70q-16 -23 -16 -45q0 -41 51 -70q0 -115 -53 -162z" />
<glyph unicode="&#xaf;" horiz-adv-x="542" d="M244 954q16 55 100 56q27 0 81 -7.5t81 -7.5q25 0 41 6h35q0 -16 -19 -32q-27 -25 -28 -29q-37 6 -99 -6q-76 -12 -100 -12q-55 0 -92 32z" />
<glyph unicode="&#xb0;" horiz-adv-x="532" d="M113 549q84 242 323 356q12 -8 72 -16q49 -6 63 -37q-33 -268 -276 -385q-29 -20 -64 -21q-100 0 -118 103zM244 582q0 -10 4 -21q72 8 117 64q20 26 71 118l-94 -20q-98 -98 -98 -141z" />
<glyph unicode="&#xb1;" horiz-adv-x="690" d="M135 182v27q88 33 234 33h90q166 0 262 49l14 -15q4 -8 4 -16q0 -18 -24.5 -37.5t-26.5 -25.5q-57 -2 -194 -19q-125 -14 -195 -14q-90 0 -164 18zM156 453q18 53 118 61q117 8 152 39l33 209q51 -4 51 -72v-28q-2 -18 -2 -29q0 -47 18 -66q29 -4 79 22.5t71 26.5 q22 0 45 -16q-8 -45 -111.5 -97t-103.5 -102q0 -37 35 -90q-39 -39 -47 -39q-41 0 -54 80q-10 68 -14 86z" />
<glyph unicode="&#xb4;" horiz-adv-x="638" d="M383 879q84 172 123 231q82 129 180 186q-4 -74 -92 -190q-117 -154 -131 -180q-6 -4 -27.5 -28t-36.5 -24q-8 0 -16 5z" />
<glyph unicode="&#xb6;" horiz-adv-x="636" d="M100 385q0 63 60 115q27 23 104 86q57 29 164 51q131 29 174 43q29 -57 43 -178q14 -127 37 -178q-47 -18 -47 -88q0 -20 6 -63.5t6 -63.5q0 -37 -26 -37q-27 0 -80 28q20 55 20 101q0 63 -41 96q-147 0 -147 -125q0 -27 6 -57q33 -16 33 -54q0 -27 -21 -41 q-6 -2 -37 -16q-20 -8 -43 -4q-14 59 -14 131q2 119 0 131q-111 10 -195 94q-2 14 -2 29zM217 391l80 -14q2 6 0 57q-2 35 14 51q-37 4 -65.5 -26.5t-28.5 -67.5zM391 356h78q47 1 72 21q14 41 14 92q0 90 -61 90q-14 0 -35 -6q-53 2 -66 -37q-6 -20 2 -86q6 -55 -4 -74z " />
<glyph unicode="&#xb7;" horiz-adv-x="172" d="M84 33q29 86 74 86q12 0 26 -4q2 -43 2 -66q-2 -37 -34 -49q-8 -4 -17 -4q-14 0 -51 37z" />
<glyph unicode="&#xb8;" horiz-adv-x="428" d="M188 -141q0 14 10.5 43.5t12.5 42.5q35 4 78 -39t55 -43q23 0 49 33q0 29 -16.5 84t-16.5 83q0 45 33 76q4 -41 37 -133q29 -84 29 -135q-1 -45 -19 -88q-29 -33 -67 -33q-37 0 -86 27q-70 37 -76 39q-23 18 -23 43z" />
<glyph unicode="&#xba;" horiz-adv-x="522" d="M61 401q53 25 176 39.5t181 40.5q8 2 49 19q33 12 51 12q39 0 43 -49q-53 -57 -158 -82q-43 -10 -194 -27q-31 -4 -37 -4q-76 0 -111 51zM176 657q-4 70 51 123l111 86q10 -4 27 -4q18 0 55 5t55 5q82 1 86 -65q-35 -164 -223 -264q-18 -6 -37 -6q-45 0 -80 36.5 t-45 83.5zM295 692q0 -16 8 -35h49q101 52 101 115q-158 -16 -158 -80z" />
<glyph unicode="&#xbb;" horiz-adv-x="540" d="M94 49q2 49 60.5 166t58.5 180q0 61 -39 119q-2 14 -24.5 27.5t-22.5 17.5q0 10 20.5 21.5t32.5 11.5q31 0 64 -39q41 -49 45 -51q6 -41 6 -86q0 -279 -168 -367h-33zM242 29q12 31 63 41q66 14 84 26q94 66 94 189q0 74 -32 135l-62 115q158 -59 191 -209 q0 -203 -144 -297q-10 -2 -61 -19q-41 -12 -62 -12q-35 0 -71 31z" />
<glyph unicode="&#xbf;" horiz-adv-x="606" d="M82 66q23 276 256 679q-12 10 -27 11q-16 0 -56 -20.5t-54 -20.5q-25 0 -37 30q47 29 141 82q80 43 141 43q29 0 54 -10q-104 -154 -189 -289q-68 -109 -104 -190q-51 -113 -51 -211q0 -35 8 -72q33 -12 65 -12q90 0 187 78q55 47 166 143h67q-82 -133 -223 -217 q-147 -90 -297 -86zM258 1137q-6 23 33 61q76 0 59 2q29 -4 43 -29q-25 -18 -24 -41q0 -6 2 -20t2 -20q0 -18 -15 -33q-35 -4 -57 28q-31 46 -43 52z" />
<glyph unicode="&#xc0;" horiz-adv-x="655" d="M82 303q119 43 170 182q20 57 61 273q33 176 90 258q59 -4 78 -53q12 -33 12.5 -108t12.5 -105q18 -49 26.5 -164t26.5 -166q31 -84 109 -117l-2 -47q-14 4 -29.5 -9.5t-26.5 -21.5q-4 -35 44 -96t48 -78q0 -33 -67 -51q-33 41 -69 133t-62 129l-228 31l-53 -164 q-33 -96 -88 -127q14 92 60 262q-10 14 -56.5 16.5t-56.5 22.5zM313 387l162 -20l-65 340zM316 1381q68 -35 118 -148q55 -123 109 -162v-47q-14 4 -33 -14q-178 178 -194 371z" />
<glyph unicode="&#xc1;" horiz-adv-x="655" d="M82 303q119 43 170 182q20 57 61 273q33 176 90 258q59 -4 78 -53q12 -33 12.5 -108t12.5 -105q18 -49 26.5 -164t26.5 -166q31 -84 109 -117l-2 -47q-14 4 -29.5 -9.5t-26.5 -21.5q-4 -35 44 -96t48 -78q0 -33 -67 -51q-33 41 -69 133t-62 129l-228 31l-53 -164 q-33 -96 -88 -127q14 92 60 262q-10 14 -56.5 16.5t-56.5 22.5zM281 1043q84 172 123 231q82 129 180 186q-4 -74 -92 -190q-117 -154 -131 -180q-6 -4 -27.5 -28t-36.5 -24q-8 0 -16 5zM313 387l162 -20l-65 340z" />
<glyph unicode="&#xc2;" horiz-adv-x="655" d="M82 303q119 43 170 182q20 57 61 273q33 176 90 258q59 -4 78 -53q12 -33 12.5 -108t12.5 -105q18 -49 26.5 -164t26.5 -166q31 -84 109 -117l-2 -47q-14 4 -29.5 -9.5t-26.5 -21.5q-4 -35 44 -96t48 -78q0 -33 -67 -51q-33 41 -69 133t-62 129l-228 31l-53 -164 q-33 -96 -88 -127q14 92 60 262q-10 14 -56.5 16.5t-56.5 22.5zM188 997v47q45 27 94 113q59 102 82 129q53 61 127 61l103 -209l-21 -12q37 -39 47 -35q10 2 14 2q14 0 -12 -8t-35 -8q-23 0 -28 14l-127 115q-47 -25 -99 -133q-45 -94 -90 -94q-25 0 -55 18zM313 387 l162 -20l-65 340z" />
<glyph unicode="&#xc3;" horiz-adv-x="655" d="M82 303q119 43 170 182q20 57 61 273q33 176 90 258q59 -4 78 -53q12 -33 12.5 -108t12.5 -105q18 -49 26.5 -164t26.5 -166q31 -84 109 -117l-2 -47q-14 4 -29.5 -9.5t-26.5 -21.5q-4 -35 44 -96t48 -78q0 -33 -67 -51q-33 41 -69 133t-62 129l-228 31l-53 -164 q-33 -96 -88 -127q14 92 60 262q-10 14 -56.5 16.5t-56.5 22.5zM113 1038q98 168 104 177q68 92 158 100q10 -10 41 -88q23 -55 65 -55q10 0 23 2q41 39 82 77q49 53 45 97h47q14 -29 14 -56q0 -57 -63 -110l-111 -90q-18 -2 -56 -20.5t-59 -18.5q-14 0 -28 6l-53 94 q-25 -6 -79.5 -66.5t-88.5 -60.5q-18 0 -41 12zM313 387l162 -20l-65 340z" />
<glyph unicode="&#xc4;" horiz-adv-x="659" d="M82 303q119 43 170 182q20 57 61 273q33 176 90 258q59 -4 78 -53q12 -33 12.5 -108t12.5 -105q18 -49 26.5 -164t26.5 -166q31 -84 109 -117l-2 -47q-14 4 -29.5 -9.5t-26.5 -21.5q-4 -35 44 -96t48 -78q0 -33 -67 -51q-33 41 -69 133t-62 129l-228 31l-53 -164 q-33 -96 -88 -127q14 92 60 262q-10 14 -56.5 16.5t-56.5 22.5zM197 1182q43 70 104 69q37 0 45 -49q4 -14 5 -26q0 -27 -35 -56q-45 -37 -51 -47q-76 33 -68 109zM313 387l162 -20l-65 340zM494 1087q0 100 108 148q57 -18 68 -25q37 -20 33 -55q4 -14 4 -27 q0 -35 -105 -73q-39 -2 -59 -2q-37 2 -49 34z" />
<glyph unicode="&#xc5;" horiz-adv-x="655" d="M82 303q119 43 170 182q20 57 61 273q33 176 90 258q59 -4 78 -53q12 -33 12.5 -108t12.5 -105q18 -49 26.5 -164t26.5 -166q31 -84 109 -117l-2 -47q-14 4 -29.5 -9.5t-26.5 -21.5q-4 -35 44 -96t48 -78q0 -33 -67 -51q-33 41 -69 133t-62 129l-228 31l-53 -164 q-33 -96 -88 -127q14 92 60 262q-10 14 -56.5 16.5t-56.5 22.5zM285 1184q8 86 87 172t163 86q32 -1 59 -15q2 -12 2 -20q0 -23 -47 -28t-55 -34q12 -18 53 -18q6 -27 6 -53q0 -66 -41 -127q-45 -70 -108 -70q-33 0 -66 37q-6 6 -53 70zM313 387l162 -20l-65 340zM410 1225 q0 -14 2 -27q51 -4 64 47q6 27 18 82q-39 0 -61.5 -31t-22.5 -71z" />
<glyph unicode="&#xc6;" horiz-adv-x="911" d="M86 0q27 135 127 375q117 279 149 387q4 14 41 14q53 -2 54 0l47 -96q98 35 231 100q193 96 228 111l14 -21q-174 -166 -473 -256q0 -23 12 -78t8 -83q25 -6 49 -7q152 0 275 134h47q-8 -82 -72 -127q-43 -31 -143 -66t-141 -63q12 -16 14 -88q2 -63 33 -74q49 -2 141 52 t131 54q37 0 70 -24q-39 -16 -221 -121q-137 -78 -226 -78q-43 0 -86 16l39 78q27 47 27 80q0 31 -19 57q-141 0 -180 15q-39 -78 -78 -154q-49 -92 -98 -137zM330 385l112 21q0 135 -47 174q-76 -137 -65 -195z" />
<glyph unicode="&#xc7;" horiz-adv-x="761" d="M90 303q39 160 174 289q133 123 297 162q12 -2 94 -4q57 0 80 -37q-12 -61 -55 -70q-16 -2 -92 8q-66 10 -99 -8q-152 -86 -202 -131q-106 -94 -103 -213q82 -141 277 -141q57 0 108 14q25 12 115 31q76 14 113 55l18 -14q-205 -162 -414 -150q6 -20 35 -110 q23 -70 23 -113q-1 -45 -19 -88q-29 -33 -67 -33q-37 0 -86 27q-70 37 -76 39q-23 18 -23 43q0 14 10.5 43.5t12.5 42.5q35 4 78 -39t55 -43q23 0 49 33q0 29 -16.5 84t-16.5 83q0 18 5 33q-47 6 -95 23q-94 61 -108 76q-61 51 -72 108z" />
<glyph unicode="&#xc8;" horiz-adv-x="741" d="M88 139q0 27 8 54q-2 27 -2 51q0 84 40 249.5t40 249.5q176 121 422 121q99 0 197 -20q-326 -18 -541 -172l-66 -301q35 -6 72 -6q213 0 420 159q20 -14 18 -47q-207 -125 -516 -241q-4 -18 -4 -37q0 -100 78 -107q102 -10 229 51q168 80 215 90q-31 -80 -151 -131 q-29 -12 -215 -82q-39 -14 -80 -14q-68 0 -113 33q-51 37 -51 100zM281 1299q68 -35 118 -148q55 -123 109 -162v-47q-14 4 -33 -14q-178 178 -194 371z" />
<glyph unicode="&#xc9;" horiz-adv-x="741" d="M88 139q0 27 8 54q-2 27 -2 51q0 84 40 249.5t40 249.5q176 121 422 121q99 0 197 -20q-326 -18 -541 -172l-66 -301q35 -6 72 -6q213 0 420 159q20 -14 18 -47q-207 -125 -516 -241q-4 -18 -4 -37q0 -100 78 -107q102 -10 229 51q168 80 215 90q-31 -80 -151 -131 q-29 -12 -215 -82q-39 -14 -80 -14q-68 0 -113 33q-51 37 -51 100zM383 879q84 172 123 231q82 129 180 186q-4 -74 -92 -190q-117 -154 -131 -180q-6 -4 -27.5 -28t-36.5 -24q-8 0 -16 5z" />
<glyph unicode="&#xca;" horiz-adv-x="741" d="M88 139q0 27 8 54q-2 27 -2 51q0 84 40 249.5t40 249.5q176 121 422 121q99 0 197 -20q-326 -18 -541 -172l-66 -301q35 -6 72 -6q213 0 420 159q20 -14 18 -47q-207 -125 -516 -241q-4 -18 -4 -37q0 -100 78 -107q102 -10 229 51q168 80 215 90q-31 -80 -151 -131 q-29 -12 -215 -82q-39 -14 -80 -14q-68 0 -113 33q-51 37 -51 100zM209 915v47q45 27 94 113q59 102 82 129q53 61 127 61l103 -209l-21 -12q37 -39 47 -35q10 2 14 2q14 0 -12 -8t-35 -8q-23 0 -28 14l-127 115q-47 -25 -99 -133q-45 -94 -90 -94q-25 0 -55 18z" />
<glyph unicode="&#xcb;" horiz-adv-x="741" d="M88 139q0 27 8 54q-2 27 -2 51q0 84 40 249.5t40 249.5q176 121 422 121q99 0 197 -20q-326 -18 -541 -172l-66 -301q35 -6 72 -6q213 0 420 159q20 -14 18 -47q-207 -125 -516 -241q-4 -18 -4 -37q0 -100 78 -107q102 -10 229 51q168 80 215 90q-31 -80 -151 -131 q-29 -12 -215 -82q-39 -14 -80 -14q-68 0 -113 33q-51 37 -51 100zM197 1088q43 70 104 69q37 0 45 -49q4 -14 5 -26q0 -27 -35 -56q-45 -37 -51 -47q-76 33 -68 109zM494 993q0 100 108 148q57 -18 68 -25q37 -20 33 -55q4 -14 4 -27q0 -35 -105 -73q-39 -2 -59 -2 q-37 2 -49 34z" />
<glyph unicode="&#xcc;" horiz-adv-x="962" d="M25 748q33 14 90 14q31 0 93 -5t93 -5q133 0 133 92q0 35 -16 82q2 35 69 30q12 -18 13 -49q0 -10 -2 -27.5t-2 -27.5q0 -37 18 -57q27 -6 57 -7q78 0 215 52q150 55 218 61l28 -47q0 -8 -4 -16q-37 -49 -106 -58q-39 -4 -119 -12l-293 -68q-23 -106 -23 -260 q0 -37 11 -293q33 -18 71 -18q29 0 86.5 14.5t87.5 14.5q33 0 66 -13q8 -10 8 -28q0 -55 -47 -76q-37 16 -84 16q-70 0 -160 -41q-4 -10 5.5 -28.5t9.5 -24.5q0 -33 -37 -26q-25 4 -29 2q-14 84 -96 84q-29 0 -83 -10.5t-83 -10.5q-63 0 -90 47l307 88l-24 533 q-248 0 -381 78zM363 1340q68 -35 118 -148q55 -123 109 -162v-47q-14 4 -33 -14q-178 178 -194 371z" />
<glyph unicode="&#xcd;" horiz-adv-x="962" d="M25 748q33 14 90 14q31 0 93 -5t93 -5q133 0 133 92q0 35 -16 82q2 35 69 30q12 -18 13 -49q0 -10 -2 -27.5t-2 -27.5q0 -37 18 -57q27 -6 57 -7q78 0 215 52q150 55 218 61l28 -47q0 -8 -4 -16q-37 -49 -106 -58q-39 -4 -119 -12l-293 -68q-23 -106 -23 -260 q0 -37 11 -293q33 -18 71 -18q29 0 86.5 14.5t87.5 14.5q33 0 66 -13q8 -10 8 -28q0 -55 -47 -76q-37 16 -84 16q-70 0 -160 -41q-4 -10 5.5 -28.5t9.5 -24.5q0 -33 -37 -26q-25 4 -29 2q-14 84 -96 84q-29 0 -83 -10.5t-83 -10.5q-63 0 -90 47l307 88l-24 533 q-248 0 -381 78zM322 961q84 172 123 231q82 129 180 186q-4 -74 -92 -190q-117 -154 -131 -180q-6 -4 -27.5 -28t-36.5 -24q-8 0 -16 5z" />
<glyph unicode="&#xce;" horiz-adv-x="962" d="M25 748q33 14 90 14q31 0 93 -5t93 -5q133 0 133 92q0 35 -16 82q2 35 69 30q12 -18 13 -49q0 -10 -2 -27.5t-2 -27.5q0 -37 18 -57q27 -6 57 -7q78 0 215 52q150 55 218 61l28 -47q0 -8 -4 -16q-37 -49 -106 -58q-39 -4 -119 -12l-293 -68q-23 -106 -23 -260 q0 -37 11 -293q33 -18 71 -18q29 0 86.5 14.5t87.5 14.5q33 0 66 -13q8 -10 8 -28q0 -55 -47 -76q-37 16 -84 16q-70 0 -160 -41q-4 -10 5.5 -28.5t9.5 -24.5q0 -33 -37 -26q-25 4 -29 2q-14 84 -96 84q-29 0 -83 -10.5t-83 -10.5q-63 0 -90 47l307 88l-24 533 q-248 0 -381 78zM209 936v47q45 27 94 113q59 102 82 129q53 61 127 61l103 -209l-21 -12q37 -39 47 -35q10 2 14 2q14 0 -12 -8t-35 -8q-23 0 -28 14l-127 115q-47 -25 -99 -133q-45 -94 -90 -94q-25 0 -55 18z" />
<glyph unicode="&#xcf;" horiz-adv-x="962" d="M25 748q33 14 90 14q31 0 93 -5t93 -5q133 0 133 92q0 35 -16 82q2 35 69 30q12 -18 13 -49q0 -10 -2 -27.5t-2 -27.5q0 -37 18 -57q27 -6 57 -7q78 0 215 52q150 55 218 61l28 -47q0 -8 -4 -16q-37 -49 -106 -58q-39 -4 -119 -12l-293 -68q-23 -106 -23 -260 q0 -37 11 -293q33 -18 71 -18q29 0 86.5 14.5t87.5 14.5q33 0 66 -13q8 -10 8 -28q0 -55 -47 -76q-37 16 -84 16q-70 0 -160 -41q-4 -10 5.5 -28.5t9.5 -24.5q0 -33 -37 -26q-25 4 -29 2q-14 84 -96 84q-29 0 -83 -10.5t-83 -10.5q-63 0 -90 47l307 88l-24 533 q-248 0 -381 78zM205 1176q43 70 104 69q37 0 45 -49q4 -14 5 -26q0 -27 -35 -56q-45 -37 -51 -47q-76 33 -68 109zM502 1081q0 100 108 148q57 -18 68 -25q37 -20 33 -55q4 -14 4 -27q0 -35 -105 -73q-39 -2 -59 -2q-37 2 -49 34z" />
<glyph unicode="&#xd0;" horiz-adv-x="3145" d="M43 754q0 125 53 264q59 39 144 43q4 14 -12.5 58t-16.5 61q0 37 45 57q12 -16 74 -37q16 27 48 82t64 55q23 0 45 -32q-2 -10 -2 -25q0 -18 4 -45q53 45 144 45q-4 -96 -68 -199q8 -2 19 -2q16 0 52 9.5t54 9.5q39 0 62 -35q-31 -422 -226 -625q-51 -41 -61 -49 q-41 -27 -72 -29q-63 27 -148 67t-124 85q-78 90 -78 242zM102 745q0 -55 21 -106q68 -168 305 -205q90 55 175 227.5t85 282.5q0 53 -20 98q-96 -35 -162 -81q-31 -16 -80 -95q-41 -66 -82 -65q-18 0 -41 10q8 35 -35 86t-43 70q0 18 19 37q-84 -8 -113 -52 q-29 -170 -29 -207zM117 821q0 16 18 39q14 16 29 33q53 -6 57 -35q4 -33 -14 -49q-4 -6 -41 -27q-35 2 -47 25q-2 8 -2 14zM180 623q0 18 14.5 58t16.5 60q6 -4 14 -4q14 0 44 11.5t44 11.5q27 0 43 -33l-4 -41q12 -4 27 -4q12 0 36.5 4t37.5 4q14 0 26 -2q16 -20 17 -45 q0 -47 -50 -100q-33 -43 -77 -43q-27 0 -43 22l-23 72l-33 -21q-25 -12 -43 -12t-32 14q-14 25 -15 48zM256 696l4 -37q-2 8 7 19.5t9 15.5zM334 934l24 -51l15 18q-20 39 -39 33zM367 616q0 -29 32 -41l23 35q0 7 -4 15l-49 4q-2 -6 -2 -13zM391 1020q94 2 164 168 q-43 -6 -92 -68q-37 -49 -72 -100zM408 1194l12 -2l2 29l-12 2zM457 739q-2 37 82 148q102 0 104 -39q-68 -121 -133 -148q-18 -4 -53 39zM530 782zM922 971q0 12 24.5 32.5t28.5 32.5q4 100 18 150q23 80 84 114q57 -6 107 -77l71 -107q4 -23 -45 -53q29 -27 54 -27t45 27 l37 -45q16 51 79 84l101 51q47 35 37 102q4 27 32 27q29 0 37 -25q2 -10 -14 -34.5t-12 -40.5l88 -17q-2 -33 -45 -47l-72 -22q4 -12 -4 -47q-8 -43 -8 -54q0 -45 47 -51q43 14 43 41q0 10 -6.5 30.5t-6.5 28.5q0 25 44 33q29 5 47 -24q-18 -18 -45 -68.5t-50 -71.5 q-33 -29 -79 -22q-31 27 -35 96q-4 78 -17 98q-59 0 -59 -69q0 -14 4 -43t4 -43q16 -8 17 -29q0 -20 -15 -41q-51 -8 -51 37q0 12 4 45q4 31 0 41l-10 14q-86 -106 -117 -106q-20 0 -39 20q-14 4 -56 -19.5t-61 -23.5q-20 0 -41 19q-18 10 -14 57q2 14 -10 23q-23 12 -25 14 q-27 -14 -26 -43q0 -12 8 -36.5t8 -35.5q0 -25 -43 -28q-14 18 -13 63t-16 66q-6 -10 -30 -9q-4 6 -4 13zM1024 1047q20 12 39 12q27 0 47 -27q35 23 88 82q-45 70 -51 78q-35 43 -78 39q-47 -88 -45 -184zM1137 952q0 -6 4 -14q65 31 65 47q0 6 -12 18.5t-16 12.5 q4 -14 -18.5 -34.5t-22.5 -29.5zM1219 469q0 14 51 37q63 182 170 242q96 4 127 -74q10 -29 -19 -29q-6 0 -12 4q-18 -4 -45 16.5t-37 20.5t-20 -8q-66 -49 -103 -129q16 -14 43 -14q10 0 29.5 3t30.5 3q37 0 53 -35q74 53 102 47q-31 -29 -78 -98q2 -14 19 -15q14 0 29 2 q78 47 77 78q0 14 -10 31l-18 20q4 14 20 19q8 2 31 0q25 -4 31 -4q25 -25 -9 -99q-20 -43 -69 -73q-29 -16 -88 -52q-84 27 -84 70q6 18 -19 39q-4 -2 -67 -4q-53 -2 -54 -31q0 -12 9 -33q12 -100 75 -100q12 0 23 4q0 -12 -33 -37q-8 -4 -18 -4q-33 0 -92 92q12 18 12 35 q0 23 -28.5 46.5t-28.5 29.5zM1714 414q0 86 53 164l29 -3v-90q20 10 43 62q18 41 55 41q18 -8 22.5 -47t18.5 -47q47 20 136 86q2 18 -4.5 53t-6.5 49q0 39 37 55q27 -18 27 -57v-66l-2 -12q8 -6 20 -6q10 0 33 5t33 5q31 0 28 -43q-12 -10 -59 -16t-63 -29l-7 -196 q43 -16 91 -17q84 0 147 53l-174 113q35 55 117 82q49 14 149 41q8 -20 8 -35q0 -31 -73 -41q-86 -10 -101 -35q72 -51 88 -63q49 -39 74 -78q-86 -70 -209 -70q-47 0 -151 13l-15 20l8 103q4 66 -10 102q-37 -8 -125 -66q-6 -20 -6 -45q0 -61 35 -61q10 0 18 4 q-25 -49 -43 -49q-8 0 -17 8t-15 66q-4 47 -31 55q0 10 -2 22q0 12 14 17l-18 18q-84 -111 -140 -135q-12 31 -12 70zM1767 958q0 78 117 142q-10 4 -8 28q12 10 31 11q63 -1 90 -62q-14 -16 -15 -43q0 -25 14.5 -72t14.5 -65q0 -23 -22 -23q-16 0 -45 11l-25 51 q-61 -29 -96 -29q-33 0 -51 23q-4 14 -5 28zM1831 965l20 -2q31 10 52.5 39.5t15.5 60.5q-49 -2 -88 -98zM2071 993q4 43 45 43q18 0 22 -20q10 -35 -33 -47q-12 6 -34 24zM2212 1067q0 96 12 199q18 10 31 10q16 0 16 -23q0 -16 -20 -82q8 -16 8 -38q0 -20 -6 -61.5 t-6 -61.5q-1 -55 30 -86q-12 -18 -57 -15q-8 78 -8 158zM2333 1081q0 61 47 72q14 -27 12 -80q-2 -61 2 -82q84 207 209 207q12 0 27 -2q-6 -29 -45 -51.5t-62 -38.5q-33 -45 -45 -66q-25 -45 -29 -82q23 -16 43 -16q33 0 84 49q37 37 72 76q2 6 2 12q0 8 -4 23.5t-4 23.5 q0 18 20 29q45 -23 45 -94v-33q-2 -23 -2 -33q1 -44 15 -69q-12 -20 -58 -17q-6 31 -34 82q-94 -96 -172 -96q-25 0 -50 10q4 33 -22 33q-4 0 -10 -2h-11q-16 0 -22 12q4 18 -2 64q-6 57 -6 69zM2730 1022q0 25 16 47q61 117 131 143q-8 -12 -8 -20q0 -10 37 -23.5t41 -40.5 q6 10 19 9q16 -4 18 -2q27 -41 27 -86q0 -16 -5 -35q31 6 48 41q10 31 20 63q-18 10 -18 29q0 12 9 35.5t9 34.5q14 16 29 16q18 0 27.5 -22.5t4.5 -41.5q2 -14 -6 -35.5t-8 -29.5q0 -10 6 -21l97 68q57 41 108 41q10 0 23 -2q8 -10 16 -43q-16 -8 -104 -31q-63 -16 -93 -57 q51 -76 131 -90q16 -10 17 -31q0 -18 -14 -31q-96 -49 -193 -49q-63 0 -121 21v8q20 0 121 4q72 2 109 37l-117 116q-18 -10 -55 -67q-33 -49 -64 -49q-39 0 -39 24q0 6 2 15v14q0 14 -6 23q-61 -86 -133 -86q-23 0 -43 10q-39 53 -39 94zM2800 1030q0 -25 16 -49 q6 -2 12 -2q10 0 47 31q25 20 25 49q0 18 -13.5 57t-13.5 58q-8 -16 -45 -70q-29 -43 -28 -74zM2867 1452l53 43q27 -12 27 -39q0 -14 -12 -22q-41 -6 -49 -4z" />
<glyph unicode="&#xd1;" horiz-adv-x="665" d="M96 758q14 2 46 27.5t51 25.5q10 0 20 -4q106 -317 379 -571q20 61 20 129q0 82 -43 227q-47 156 -51 227l55 66q66 -90 95 -248q14 -93 45 -279q-8 -29 -8 -75v-50q2 -63 2 -47q0 -117 -76 -147q-53 2 -78 65q-29 78 -43 89q-90 66 -295 337l-25 -532l-47 2 q-43 160 -43 430v143q0 104 -4 185zM113 915q98 168 104 177q68 92 158 100q10 -10 41 -88q23 -55 65 -55q10 0 23 2q41 39 82 77q49 53 45 97h47q14 -29 14 -56q0 -57 -63 -110l-111 -90q-18 -2 -56 -20.5t-59 -18.5q-14 0 -28 6l-53 94q-25 -6 -79.5 -66.5t-88.5 -60.5 q-18 0 -41 12z" />
<glyph unicode="&#xd2;" horiz-adv-x="708" d="M82 272q33 190 180 353q141 152 330 225q2 -2 37 0q23 0 30 -16l-104 -64q165 -49 188 -170q16 -53 17 -106q0 -195 -199 -357q-195 -88 -262 -88q-33 0 -66 6q-66 27 -102 88q-20 35 -49 129zM195 297q0 -86 63 -127q35 -12 70 -12q61 0 225 94q109 90 109 209 q-1 39 -15 76q-41 104 -145 108q-96 4 -166 -67q-37 -39 -100 -150q-41 -55 -41 -131zM383 1299q68 -35 118 -148q55 -123 109 -162v-47q-14 4 -33 -14q-178 178 -194 371z" />
<glyph unicode="&#xd3;" horiz-adv-x="708" d="M82 272q33 190 180 353q141 152 330 225q2 -2 37 0q23 0 30 -16l-104 -64q165 -49 188 -170q16 -53 17 -106q0 -195 -199 -357q-195 -88 -262 -88q-33 0 -66 6q-66 27 -102 88q-20 35 -49 129zM195 297q0 -86 63 -127q35 -12 70 -12q61 0 225 94q109 90 109 209 q-1 39 -15 76q-41 104 -145 108q-96 4 -166 -67q-37 -39 -100 -150q-41 -55 -41 -131zM383 879q84 172 123 231q82 129 180 186q-4 -74 -92 -190q-117 -154 -131 -180q-6 -4 -27.5 -28t-36.5 -24q-8 0 -16 5z" />
<glyph unicode="&#xd4;" horiz-adv-x="708" d="M82 272q33 190 180 353q141 152 330 225q2 -2 37 0q23 0 30 -16l-104 -64q165 -49 188 -170q16 -53 17 -106q0 -195 -199 -357q-195 -88 -262 -88q-33 0 -66 6q-66 27 -102 88q-20 35 -49 129zM195 297q0 -86 63 -127q35 -12 70 -12q61 0 225 94q109 90 109 209 q-1 39 -15 76q-41 104 -145 108q-96 4 -166 -67q-37 -39 -100 -150q-41 -55 -41 -131zM229 895v47q45 27 94 113q59 102 82 129q53 61 127 61l103 -209l-21 -12q37 -39 47 -35q10 2 14 2q14 0 -12 -8t-35 -8q-23 0 -28 14l-127 115q-47 -25 -99 -133q-45 -94 -90 -94 q-25 0 -55 18z" />
<glyph unicode="&#xd5;" horiz-adv-x="708" d="M82 272q33 190 180 353q141 152 330 225q2 -2 37 0q23 0 30 -16l-104 -64q165 -49 188 -170q16 -53 17 -106q0 -195 -199 -357q-195 -88 -262 -88q-33 0 -66 6q-66 27 -102 88q-20 35 -49 129zM113 915q98 168 104 177q68 92 158 100q10 -10 41 -88q23 -55 65 -55 q10 0 23 2q41 39 82 77q49 53 45 97h47q14 -29 14 -56q0 -57 -63 -110l-111 -90q-18 -2 -56 -20.5t-59 -18.5q-14 0 -28 6l-53 94q-25 -6 -79.5 -66.5t-88.5 -60.5q-18 0 -41 12zM195 297q0 -86 63 -127q35 -12 70 -12q61 0 225 94q109 90 109 209q-1 39 -15 76 q-41 104 -145 108q-96 4 -166 -67q-37 -39 -100 -150q-41 -55 -41 -131z" />
<glyph unicode="&#xd6;" horiz-adv-x="708" d="M82 272q33 190 180 353q141 152 330 225q2 -2 37 0q23 0 30 -16l-104 -64q165 -49 188 -170q16 -53 17 -106q0 -195 -199 -357q-195 -88 -262 -88q-33 0 -66 6q-66 27 -102 88q-20 35 -49 129zM195 297q0 -86 63 -127q35 -12 70 -12q61 0 225 94q109 90 109 209 q-1 39 -15 76q-41 104 -145 108q-96 4 -166 -67q-37 -39 -100 -150q-41 -55 -41 -131zM197 1039q43 70 104 69q37 0 45 -49q4 -14 5 -26q0 -27 -35 -56q-45 -37 -51 -47q-76 33 -68 109zM494 944q0 100 108 148q57 -18 68 -25q37 -20 33 -55q4 -14 4 -27q0 -35 -105 -73 q-39 -2 -59 -2q-37 2 -49 34z" />
<glyph unicode="&#xd8;" horiz-adv-x="854" d="M104 238q0 35 5 59q10 63 85.5 156.5t90.5 146.5q31 -4 68.5 45t66.5 55q133 82 184 82q33 0 58 -20q-2 -57 53 -80q55 -14 110 -31q88 -34 88 -157q0 -119 -96 -230q-63 -66 -188 -196q-211 -84 -291 -84q-61 0 -100 16q-133 55 -134 238zM190 236q0 -117 80 -154 q66 -18 127 -19q88 0 131 37q2 20 2 39q0 172 -211 346l-114 -161q-14 -41 -15 -88zM399 586q109 -123 152 -183q80 -109 111 -208q166 133 176 323q-37 41 -43 47q-27 25 -52 35q-51 -4 -133 35t-106 39q-55 0 -105 -88z" />
<glyph unicode="&#xd9;" horiz-adv-x="716" d="M88 371q0 59 7 177t7 177l84 78q6 -20 47 -23q4 -23 5 -49q0 -82 -45 -125q-8 -147 -9 -188q0 -178 54 -287q14 -2 28 -2q70 0 148 92q25 31 112 162q20 41 36 151.5t38 155.5q37 70 119 68q-53 -301 -53 -426q0 -129 36 -234q10 2 19 2q22 0 47 -53q-43 -47 -94 -47 q-16 0 -37 6q-72 72 -90 227q-37 -27 -102.5 -95t-104.5 -95q-59 -39 -131 -39q-20 0 -43 2q-78 131 -78 365zM281 1217q68 -35 118 -148q55 -123 109 -162v-47q-14 4 -33 -14q-178 178 -194 371z" />
<glyph unicode="&#xda;" horiz-adv-x="716" d="M88 371q0 59 7 177t7 177l84 78q6 -20 47 -23q4 -23 5 -49q0 -82 -45 -125q-8 -147 -9 -188q0 -178 54 -287q14 -2 28 -2q70 0 148 92q25 31 112 162q20 41 36 151.5t38 155.5q37 70 119 68q-53 -301 -53 -426q0 -129 36 -234q10 2 19 2q22 0 47 -53q-43 -47 -94 -47 q-16 0 -37 6q-72 72 -90 227q-37 -27 -102.5 -95t-104.5 -95q-59 -39 -131 -39q-20 0 -43 2q-78 131 -78 365zM383 879q84 172 123 231q82 129 180 186q-4 -74 -92 -190q-117 -154 -131 -180q-6 -4 -27.5 -28t-36.5 -24q-8 0 -16 5z" />
<glyph unicode="&#xdb;" horiz-adv-x="716" d="M88 371q0 59 7 177t7 177l84 78q6 -20 47 -23q4 -23 5 -49q0 -82 -45 -125q-8 -147 -9 -188q0 -178 54 -287q14 -2 28 -2q70 0 148 92q25 31 112 162q20 41 36 151.5t38 155.5q37 70 119 68q-53 -301 -53 -426q0 -129 36 -234q10 2 19 2q22 0 47 -53q-43 -47 -94 -47 q-16 0 -37 6q-72 72 -90 227q-37 -27 -102.5 -95t-104.5 -95q-59 -39 -131 -39q-20 0 -43 2q-78 131 -78 365zM229 895v47q45 27 94 113q59 102 82 129q53 61 127 61l103 -209l-21 -12q37 -39 47 -35q10 2 14 2q14 0 -12 -8t-35 -8q-23 0 -28 14l-127 115q-47 -25 -99 -133 q-45 -94 -90 -94q-25 0 -55 18z" />
<glyph unicode="&#xdc;" horiz-adv-x="716" d="M88 371q0 59 7 177t7 177l84 78q6 -20 47 -23q4 -23 5 -49q0 -82 -45 -125q-8 -147 -9 -188q0 -178 54 -287q14 -2 28 -2q70 0 148 92q25 31 112 162q20 41 36 151.5t38 155.5q37 70 119 68q-53 -301 -53 -426q0 -129 36 -234q10 2 19 2q22 0 47 -53q-43 -47 -94 -47 q-16 0 -37 6q-72 72 -90 227q-37 -27 -102.5 -95t-104.5 -95q-59 -39 -131 -39q-20 0 -43 2q-78 131 -78 365zM197 1018q43 70 104 69q37 0 45 -49q4 -14 5 -26q0 -27 -35 -56q-45 -37 -51 -47q-76 33 -68 109zM494 923q0 100 108 148q57 -18 68 -25q37 -20 33 -55 q4 -14 4 -27q0 -35 -105 -73q-39 -2 -59 -2q-37 2 -49 34z" />
<glyph unicode="&#xdd;" horiz-adv-x="706" d="M74 920q0 57 39 57q12 0 28 -8l129 -289q63 -141 170 -270l271 602l47 -2q-16 -119 -107 -318q-104 -231 -131 -319l66 -51q-78 -63 -111 -181q-4 -14 -37 -215q-20 -131 -61 -196q-6 -2 -12 -2q-10 0 -48 39l117 514q-123 115 -215 288q-51 98 -141 322q-4 14 -4 29z M383 1022q84 172 123 231q82 129 180 186q-4 -74 -92 -190q-117 -154 -131 -180q-6 -4 -27.5 -28t-36.5 -24q-8 0 -16 5z" />
<glyph unicode="&#xde;" horiz-adv-x="3145" d="M43 754q0 125 53 264q59 39 144 43q4 14 -12.5 58t-16.5 61q0 37 45 57q12 -16 74 -37q16 27 48 82t64 55q23 0 45 -32q-2 -10 -2 -25q0 -18 4 -45q53 45 144 45q-4 -96 -68 -199q8 -2 19 -2q16 0 52 9.5t54 9.5q39 0 62 -35q-31 -422 -226 -625q-51 -41 -61 -49 q-41 -27 -72 -29q-63 27 -148 67t-124 85q-78 90 -78 242zM102 745q0 -55 21 -106q68 -168 305 -205q90 55 175 227.5t85 282.5q0 53 -20 98q-96 -35 -162 -81q-31 -16 -80 -95q-41 -66 -82 -65q-18 0 -41 10q8 35 -35 86t-43 70q0 18 19 37q-84 -8 -113 -52 q-29 -170 -29 -207zM117 821q0 16 18 39q14 16 29 33q53 -6 57 -35q4 -33 -14 -49q-4 -6 -41 -27q-35 2 -47 25q-2 8 -2 14zM180 623q0 18 14.5 58t16.5 60q6 -4 14 -4q14 0 44 11.5t44 11.5q27 0 43 -33l-4 -41q12 -4 27 -4q12 0 36.5 4t37.5 4q14 0 26 -2q16 -20 17 -45 q0 -47 -50 -100q-33 -43 -77 -43q-27 0 -43 22l-23 72l-33 -21q-25 -12 -43 -12t-32 14q-14 25 -15 48zM256 696l4 -37q-2 8 7 19.5t9 15.5zM334 934l24 -51l15 18q-20 39 -39 33zM367 616q0 -29 32 -41l23 35q0 7 -4 15l-49 4q-2 -6 -2 -13zM391 1020q94 2 164 168 q-43 -6 -92 -68q-37 -49 -72 -100zM408 1194l12 -2l2 29l-12 2zM457 739q-2 37 82 148q102 0 104 -39q-68 -121 -133 -148q-18 -4 -53 39zM530 782zM922 971q0 12 24.5 32.5t28.5 32.5q4 100 18 150q23 80 84 114q57 -6 107 -77l71 -107q4 -23 -45 -53q29 -27 54 -27t45 27 l37 -45q16 51 79 84l101 51q47 35 37 102q4 27 32 27q29 0 37 -25q2 -10 -14 -34.5t-12 -40.5l88 -17q-2 -33 -45 -47l-72 -22q4 -12 -4 -47q-8 -43 -8 -54q0 -45 47 -51q43 14 43 41q0 10 -6.5 30.5t-6.5 28.5q0 25 44 33q29 5 47 -24q-18 -18 -45 -68.5t-50 -71.5 q-33 -29 -79 -22q-31 27 -35 96q-4 78 -17 98q-59 0 -59 -69q0 -14 4 -43t4 -43q16 -8 17 -29q0 -20 -15 -41q-51 -8 -51 37q0 12 4 45q4 31 0 41l-10 14q-86 -106 -117 -106q-20 0 -39 20q-14 4 -56 -19.5t-61 -23.5q-20 0 -41 19q-18 10 -14 57q2 14 -10 23q-23 12 -25 14 q-27 -14 -26 -43q0 -12 8 -36.5t8 -35.5q0 -25 -43 -28q-14 18 -13 63t-16 66q-6 -10 -30 -9q-4 6 -4 13zM1024 1047q20 12 39 12q27 0 47 -27q35 23 88 82q-45 70 -51 78q-35 43 -78 39q-47 -88 -45 -184zM1137 952q0 -6 4 -14q65 31 65 47q0 6 -12 18.5t-16 12.5 q4 -14 -18.5 -34.5t-22.5 -29.5zM1219 469q0 14 51 37q63 182 170 242q96 4 127 -74q10 -29 -19 -29q-6 0 -12 4q-18 -4 -45 16.5t-37 20.5t-20 -8q-66 -49 -103 -129q16 -14 43 -14q10 0 29.5 3t30.5 3q37 0 53 -35q74 53 102 47q-31 -29 -78 -98q2 -14 19 -15q14 0 29 2 q78 47 77 78q0 14 -10 31l-18 20q4 14 20 19q8 2 31 0q25 -4 31 -4q25 -25 -9 -99q-20 -43 -69 -73q-29 -16 -88 -52q-84 27 -84 70q6 18 -19 39q-4 -2 -67 -4q-53 -2 -54 -31q0 -12 9 -33q12 -100 75 -100q12 0 23 4q0 -12 -33 -37q-8 -4 -18 -4q-33 0 -92 92q12 18 12 35 q0 23 -28.5 46.5t-28.5 29.5zM1714 414q0 86 53 164l29 -3v-90q20 10 43 62q18 41 55 41q18 -8 22.5 -47t18.5 -47q47 20 136 86q2 18 -4.5 53t-6.5 49q0 39 37 55q27 -18 27 -57v-66l-2 -12q8 -6 20 -6q10 0 33 5t33 5q31 0 28 -43q-12 -10 -59 -16t-63 -29l-7 -196 q43 -16 91 -17q84 0 147 53l-174 113q35 55 117 82q49 14 149 41q8 -20 8 -35q0 -31 -73 -41q-86 -10 -101 -35q72 -51 88 -63q49 -39 74 -78q-86 -70 -209 -70q-47 0 -151 13l-15 20l8 103q4 66 -10 102q-37 -8 -125 -66q-6 -20 -6 -45q0 -61 35 -61q10 0 18 4 q-25 -49 -43 -49q-8 0 -17 8t-15 66q-4 47 -31 55q0 10 -2 22q0 12 14 17l-18 18q-84 -111 -140 -135q-12 31 -12 70zM1767 958q0 78 117 142q-10 4 -8 28q12 10 31 11q63 -1 90 -62q-14 -16 -15 -43q0 -25 14.5 -72t14.5 -65q0 -23 -22 -23q-16 0 -45 11l-25 51 q-61 -29 -96 -29q-33 0 -51 23q-4 14 -5 28zM1831 965l20 -2q31 10 52.5 39.5t15.5 60.5q-49 -2 -88 -98zM2071 993q4 43 45 43q18 0 22 -20q10 -35 -33 -47q-12 6 -34 24zM2212 1067q0 96 12 199q18 10 31 10q16 0 16 -23q0 -16 -20 -82q8 -16 8 -38q0 -20 -6 -61.5 t-6 -61.5q-1 -55 30 -86q-12 -18 -57 -15q-8 78 -8 158zM2333 1081q0 61 47 72q14 -27 12 -80q-2 -61 2 -82q84 207 209 207q12 0 27 -2q-6 -29 -45 -51.5t-62 -38.5q-33 -45 -45 -66q-25 -45 -29 -82q23 -16 43 -16q33 0 84 49q37 37 72 76q2 6 2 12q0 8 -4 23.5t-4 23.5 q0 18 20 29q45 -23 45 -94v-33q-2 -23 -2 -33q1 -44 15 -69q-12 -20 -58 -17q-6 31 -34 82q-94 -96 -172 -96q-25 0 -50 10q4 33 -22 33q-4 0 -10 -2h-11q-16 0 -22 12q4 18 -2 64q-6 57 -6 69zM2730 1022q0 25 16 47q61 117 131 143q-8 -12 -8 -20q0 -10 37 -23.5t41 -40.5 q6 10 19 9q16 -4 18 -2q27 -41 27 -86q0 -16 -5 -35q31 6 48 41q10 31 20 63q-18 10 -18 29q0 12 9 35.5t9 34.5q14 16 29 16q18 0 27.5 -22.5t4.5 -41.5q2 -14 -6 -35.5t-8 -29.5q0 -10 6 -21l97 68q57 41 108 41q10 0 23 -2q8 -10 16 -43q-16 -8 -104 -31q-63 -16 -93 -57 q51 -76 131 -90q16 -10 17 -31q0 -18 -14 -31q-96 -49 -193 -49q-63 0 -121 21v8q20 0 121 4q72 2 109 37l-117 116q-18 -10 -55 -67q-33 -49 -64 -49q-39 0 -39 24q0 6 2 15v14q0 14 -6 23q-61 -86 -133 -86q-23 0 -43 10q-39 53 -39 94zM2800 1030q0 -25 16 -49 q6 -2 12 -2q10 0 47 31q25 20 25 49q0 18 -13.5 57t-13.5 58q-8 -16 -45 -70q-29 -43 -28 -74zM2867 1452l53 43q27 -12 27 -39q0 -14 -12 -22q-41 -6 -49 -4z" />
<glyph unicode="&#xdf;" d="M113 270q0 444 327 664q27 6 52 6q133 0 192 -115q25 -47 25 -94q0 -74 -62 -153q-23 -29 -106 -129q66 -29 94 -48q51 -34 67 -79q-23 -84 -129 -144q-98 -55 -190 -55q-66 0 -84 55q-6 12 -6 23q0 20 53 73q39 -45 96 -45q47 0 80 31q37 25 37 45q0 8 -4 17 q-25 39 -92 49l-107 16q-49 18 -45 82q16 10 158 66q96 39 119 110q16 16 18 45q4 16 0 51q-4 37 -4 52q-39 61 -141 61q-129 -121 -202 -286t-73 -339q0 -68 13 -131q29 -78 80 -229q-49 0 -84 68q-53 100 -58 108q-25 115 -24 225z" />
<glyph unicode="&#xe0;" horiz-adv-x="559" d="M80 383q227 297 448 322l62 -109q8 -39 8 -82q0 -49 -20.5 -145.5t-20.5 -145.5q0 -51 18 -96q-51 -63 -159 -78q-16 -2 -176 -2q-84 20 -84 109q0 37 30 65q33 70 117 107l156 61q78 39 78 96q0 49 -56 125q-94 -12 -194 -100q-137 -121 -181 -141q-18 18 -26 14z M281 1217q68 -35 118 -148q55 -123 109 -162v-47q-14 4 -33 -14q-178 178 -194 371zM285 170q0 -23 49 -43q10 31 74 57q57 25 55 70q-18 6 -35 6q-31 0 -141 -65q-2 -14 -2 -25z" />
<glyph unicode="&#xe1;" horiz-adv-x="581" d="M80 383q227 297 448 322l62 -109q8 -39 8 -82q0 -49 -20.5 -145.5t-20.5 -145.5q0 -51 18 -96q-51 -63 -159 -78q-16 -2 -176 -2q-84 20 -84 109q0 37 30 65q33 70 117 107l156 61q78 39 78 96q0 49 -56 125q-94 -12 -194 -100q-137 -121 -181 -141q-18 18 -26 14z M285 170q0 -23 49 -43q10 31 74 57q57 25 55 70q-18 6 -35 6q-31 0 -141 -65q-2 -14 -2 -25zM322 879q84 172 123 231q82 129 180 186q-4 -74 -92 -190q-117 -154 -131 -180q-6 -4 -27.5 -28t-36.5 -24q-8 0 -16 5z" />
<glyph unicode="&#xe2;" horiz-adv-x="559" d="M80 383q227 297 448 322l62 -109q8 -39 8 -82q0 -49 -20.5 -145.5t-20.5 -145.5q0 -51 18 -96q-51 -63 -159 -78q-16 -2 -176 -2q-84 20 -84 109q0 37 30 65q33 70 117 107l156 61q78 39 78 96q0 49 -56 125q-94 -12 -194 -100q-137 -121 -181 -141q-18 18 -26 14z M86 834v47q45 27 94 113q59 102 82 129q53 61 127 61l103 -209l-21 -12q37 -39 47 -35q10 2 14 2q14 0 -12 -8t-35 -8q-23 0 -28 14l-127 115q-47 -25 -99 -133q-45 -94 -90 -94q-25 0 -55 18zM285 170q0 -23 49 -43q10 31 74 57q57 25 55 70q-18 6 -35 6q-31 0 -141 -65 q-2 -14 -2 -25z" />
<glyph unicode="&#xe3;" horiz-adv-x="622" d="M80 383q227 297 448 322l62 -109q8 -39 8 -82q0 -49 -20.5 -145.5t-20.5 -145.5q0 -51 18 -96q-51 -63 -159 -78q-16 -2 -176 -2q-84 20 -84 109q0 37 30 65q33 70 117 107l156 61q78 39 78 96q0 49 -56 125q-94 -12 -194 -100q-137 -121 -181 -141q-18 18 -26 14z M88 841q98 168 104 177q68 92 158 100q10 -10 41 -88q23 -55 65 -55q10 0 23 2q41 39 82 77q49 53 45 97h47q14 -29 14 -56q0 -57 -63 -110l-111 -90q-18 -2 -56 -20.5t-59 -18.5q-14 0 -28 6l-53 94q-25 -6 -79.5 -66.5t-88.5 -60.5q-18 0 -41 12zM285 170q0 -23 49 -43 q10 31 74 57q57 25 55 70q-18 6 -35 6q-31 0 -141 -65q-2 -14 -2 -25z" />
<glyph unicode="&#xe4;" horiz-adv-x="602" d="M80 383q227 297 448 322l62 -109q8 -39 8 -82q0 -49 -20.5 -145.5t-20.5 -145.5q0 -51 18 -96q-51 -63 -159 -78q-16 -2 -176 -2q-84 20 -84 109q0 37 30 65q33 70 117 107l156 61q78 39 78 96q0 49 -56 125q-94 -12 -194 -100q-137 -121 -181 -141q-18 18 -26 14z M135 957q43 70 104 69q37 0 45 -49q4 -14 5 -26q0 -27 -35 -56q-45 -37 -51 -47q-76 33 -68 109zM285 170q0 -23 49 -43q10 31 74 57q57 25 55 70q-18 6 -35 6q-31 0 -141 -65q-2 -14 -2 -25zM432 862q0 100 108 148q57 -18 68 -25q37 -20 33 -55q4 -14 4 -27 q0 -35 -105 -73q-39 -2 -59 -2q-37 2 -49 34z" />
<glyph unicode="&#xe5;" horiz-adv-x="559" d="M80 383q227 297 448 322l62 -109q8 -39 8 -82q0 -49 -20.5 -145.5t-20.5 -145.5q0 -51 18 -96q-51 -63 -159 -78q-16 -2 -176 -2q-84 20 -84 109q0 37 30 65q33 70 117 107l156 61q78 39 78 96q0 49 -56 125q-94 -12 -194 -100q-137 -121 -181 -141q-18 18 -26 14z M215 986q8 86 87 172t163 86q32 -1 59 -15q2 -12 2 -20q0 -23 -47 -28t-55 -34q12 -18 53 -18q6 -27 6 -53q0 -66 -41 -127q-45 -70 -108 -70q-33 0 -66 37q-6 6 -53 70zM285 170q0 -23 49 -43q10 31 74 57q57 25 55 70q-18 6 -35 6q-31 0 -141 -65q-2 -14 -2 -25zM340 1027 q0 -14 2 -27q51 -4 64 47q6 27 18 82q-39 0 -61.5 -31t-22.5 -71z" />
<glyph unicode="&#xe6;" horiz-adv-x="839" d="M92 123q18 117 113.5 226.5t210.5 144.5q117 12 162 -68q119 49 172 49q51 0 90 -29q4 -78 -43 -137l-105 -104q14 -20 37 -21q33 0 95.5 41t68.5 41q8 0 8 -10q0 -20 -29 -86q-119 -82 -284 -82q-100 0 -187 35q-147 -51 -196 -51q-70 0 -113 51zM236 205q0 -16 4 -35 l114 35q2 23 47 80t45 73q0 13 -12 21q-41 -23 -125 -68q-74 -41 -73 -106zM530 231q131 58 162 136q-109 -37 -114 -82q-8 -20 -48 -21v-33z" />
<glyph unicode="&#xe7;" d="M96 158q0 29 17 61q215 303 551 354l12 -47q0 -70 -84 -69h-37q-63 0 -86 -31q-160 -59 -276 -221q0 -53 47 -101q35 -6 71 -6q76 0 207 31q158 37 193 43q-127 -102 -285 -135l33 -103q20 -61 20 -104q0 -45 -18 -88q-29 -33 -68 -33q-37 0 -86 27q-70 37 -76 39 q-23 18 -22 43q0 14 10 43.5t12 42.5q35 4 78 -39t56 -43q23 0 49 33q0 27 -17.5 86t-15.5 88q-33 -4 -66 -4q-86 0 -155 32q-63 49 -64 101z" />
<glyph unicode="&#xe8;" d="M84 301q0 45 47 78q88 213 111 248q88 135 225 123q78 -66 102 -181l25 -202q25 -47 24 -70q0 -18 -16 -14q-39 4 -131 -17q-100 -20 -143 -20q-47 0 -103 6q-16 -16 -16 -35q0 -18 22 -47q25 -35 29 -45q57 -53 129 -53q55 0 160 45q113 49 160 55q-20 -66 -121 -109 l-168 -71q-25 -4 -47 -4q-139 0 -228 116q-2 33 -31.5 100.5t-29.5 96.5zM246 367h174q35 39 35 100v106q-8 51 -68 52q-16 0 -35 -4l-73 -127q-37 -76 -33 -127zM281 1217q68 -35 118 -148q55 -123 109 -162v-47q-14 4 -33 -14q-178 178 -194 371z" />
<glyph unicode="&#xe9;" d="M84 301q0 45 47 78q88 213 111 248q88 135 225 123q78 -66 102 -181l25 -202q25 -47 24 -70q0 -18 -16 -14q-39 4 -131 -17q-100 -20 -143 -20q-47 0 -103 6q-16 -16 -16 -35q0 -18 22 -47q25 -35 29 -45q57 -53 129 -53q55 0 160 45q113 49 160 55q-20 -66 -121 -109 l-168 -71q-25 -4 -47 -4q-139 0 -228 116q-2 33 -31.5 100.5t-29.5 96.5zM246 367h174q35 39 35 100v106q-8 51 -68 52q-16 0 -35 -4l-73 -127q-37 -76 -33 -127zM383 879q84 172 123 231q82 129 180 186q-4 -74 -92 -190q-117 -154 -131 -180q-6 -4 -27.5 -28t-36.5 -24 q-8 0 -16 5z" />
<glyph unicode="&#xea;" d="M84 301q0 45 47 78q88 213 111 248q88 135 225 123q78 -66 102 -181l25 -202q25 -47 24 -70q0 -18 -16 -14q-39 4 -131 -17q-100 -20 -143 -20q-47 0 -103 6q-16 -16 -16 -35q0 -18 22 -47q25 -35 29 -45q57 -53 129 -53q55 0 160 45q113 49 160 55q-20 -66 -121 -109 l-168 -71q-25 -4 -47 -4q-139 0 -228 116q-2 33 -31.5 100.5t-29.5 96.5zM147 854v47q45 27 94 113q59 102 82 129q53 61 127 61l103 -209l-21 -12q37 -39 47 -35q10 2 14 2q14 0 -12 -8t-35 -8q-23 0 -28 14l-127 115q-47 -25 -99 -133q-45 -94 -90 -94q-25 0 -55 18z M246 367h174q35 39 35 100v106q-8 51 -68 52q-16 0 -35 -4l-73 -127q-37 -76 -33 -127z" />
<glyph unicode="&#xeb;" d="M84 301q0 45 47 78q88 213 111 248q88 135 225 123q78 -66 102 -181l25 -202q25 -47 24 -70q0 -18 -16 -14q-39 4 -131 -17q-100 -20 -143 -20q-47 0 -103 6q-16 -16 -16 -35q0 -18 22 -47q25 -35 29 -45q57 -53 129 -53q55 0 160 45q113 49 160 55q-20 -66 -121 -109 l-168 -71q-25 -4 -47 -4q-139 0 -228 116q-2 33 -31.5 100.5t-29.5 96.5zM197 977q43 70 104 69q37 0 45 -49q4 -14 5 -26q0 -27 -35 -56q-45 -37 -51 -47q-76 33 -68 109zM246 367h174q35 39 35 100v106q-8 51 -68 52q-16 0 -35 -4l-73 -127q-37 -76 -33 -127zM494 882 q0 100 108 148q57 -18 68 -25q37 -20 33 -55q4 -14 4 -27q0 -35 -105 -73q-39 -2 -59 -2q-37 2 -49 34z" />
<glyph unicode="&#xec;" horiz-adv-x="225" d="M12 1217q66 -35 123 -152q59 -125 107 -160v-47q-14 6 -33 -12q-178 178 -197 371zM90 223q0 66 2 121q4 90 2 119q14 20 47 20q31 0 45 -20q0 -35 -9 -106.5t-9 -106.5q-1 -111 65 -170q-14 -27 -30 -53q-23 -33 -45 -33q-14 0 -31 6q-37 82 -37 223z" />
<glyph unicode="&#xed;" horiz-adv-x="352" d="M76 879q84 172 123 231q82 129 180 186q-4 -74 -92 -190q-117 -154 -131 -180q-6 -4 -28 -28t-36 -24q-8 0 -16 5zM90 223q0 66 2 121q4 90 2 119q14 20 47 20q31 0 45 -20q0 -35 -9 -106.5t-9 -106.5q-1 -111 65 -170q-14 -27 -30 -53q-23 -33 -45 -33q-14 0 -31 6 q-37 82 -37 223z" />
<glyph unicode="&#xee;" horiz-adv-x="327" d="M-98 772v47q45 27 94 113q59 102 82 129q53 61 127 61l102 -209l-20 -12q37 -39 47 -35q10 2 14 2q14 0 -12.5 -8t-34.5 -8q-23 0 -29 14l-127 115q-47 -25 -98 -133q-45 -94 -90 -94q-25 0 -55 18zM90 223q0 66 2 121q4 90 2 119q14 20 47 20q31 0 45 -20 q0 -35 -9 -106.5t-9 -106.5q-1 -111 65 -170q-14 -27 -30 -53q-23 -33 -45 -33q-14 0 -31 6q-37 82 -37 223z" />
<glyph unicode="&#xef;" horiz-adv-x="411" d="M-70 956q43 70 103 70q39 0 45 -49q6 -14 6 -25q0 -29 -35 -57q-47 -39 -51 -45q-76 31 -68 106zM90 223q0 66 2 121q4 90 2 119q14 20 47 20q31 0 45 -20q0 -35 -9 -106.5t-9 -106.5q-1 -111 65 -170q-14 -27 -30 -53q-23 -33 -45 -33q-14 0 -31 6q-37 82 -37 223z M227 862q0 100 107 150q59 -20 69 -27q37 -20 33 -55q4 -14 4 -25q0 -31 -41 -51q-2 0 -65 -25q-39 -2 -60 -2q-35 2 -47 35z" />
<glyph unicode="&#xf0;" horiz-adv-x="3923" d="M96 502q0 166 60 266q41 -72 43 -240q2 -203 18 -262q35 -131 170 -166q125 72 125 250q0 57 -15.5 169t-15.5 169q-57 174 -57 377q0 41 2 84q61 4 61 -59q0 -8 -2 -27v-27q0 -45 21 -63q10 -16 26 -88q12 -55 46 -78q12 16 104 192q61 117 141 150q14 2 27 2 q49 0 133 -82q6 -27 6 -51q0 -53 -35 -121q-45 -88 -51 -115q-27 -23 -97.5 -50t-96.5 -46q-47 -35 -47 -88q0 -27 10 -61q0 -66 41 -95q127 -12 207 56q8 -12 8 -27q0 -45 -121 -125h-127q-70 -6 -80 -72q8 -25 8 -49q0 -57 -43 -114q-18 -25 -84 -91q-47 -18 -102 -18 q-94 0 -166 51q-78 53 -88 144q-29 238 -29 305zM616 1489q0 86 56 96h63q37 0 33 -39q4 -14 4 -24q0 -47 -59 -72q-66 0 -97 39zM752 846q78 10 77 112q0 23 -6 39q-39 -18 -51 -69q-18 -78 -20 -82zM1075 776q-4 186 19 293q43 8 65 -33q4 -6 29 -78q2 -14 0 -98 q-2 -59 16 -92q55 35 92 197q33 143 88 143q35 0 91 -39q4 -25 26 -168q17 -102 68 -149q8 -18 8 -35q0 -39 -86 -125q-78 8 -78 98q0 14 2 44t2 44q0 72 -39 101q-33 -82 -102 -246q-66 -145 -199 -152q2 49 -2 295zM1610 1339v150q16 6 30 6q45 0 58 -59q20 -90 22 -97 q0 -238 39 -342q12 8 162 133q100 84 180 99q6 -100 -82 -174q-57 -43 -166 -133q-88 -80 -77 -195l-17 -14q51 -63 158 -64q63 0 145 23q27 29 74 49q43 14 84 31l33 -39q27 45 26 98q0 43 -24.5 125t-24.5 121q0 43 23 76q66 0 94 -39l41 -574q-12 -59 -72 -59 q-12 0 -24 4q-18 29 -19 76q0 12 2 35.5t2 35.5q0 68 -41 101q-49 -78 -137 -115q-55 -23 -171 -40t-169 -38l58 -55q0 -39 -97 -78q-55 127 -73 299q-12 106 -18.5 325.5t-18.5 327.5zM2079 -111l209 177q121 98 227 133q59 -82 59 -189q0 -135 -114 -366q20 -2 39 -2 q84 0 151 57l162 299q84 156 235 217q100 -68 101 -207q-1 -67 -21 -135q-55 -180 -248 -285q-27 -14 -49 -14q-27 0 -73.5 26.5t-67.5 26.5q-27 0 -55 -22q-43 -12 -154 -90q-96 -68 -153 -68q-51 0 -99 45q236 281 215 533q-66 10 -166 -111t-123 -121q-41 0 -75 96z M2408 1442q0 53 74 127q61 -20 62 -101q-1 -75 -60 -75q-41 0 -74 26q-2 10 -2 23zM2507 1014q16 10 30 10q66 0 97 -121q63 74 121 74q29 0 53 -19q53 -51 94 -221q39 -162 113 -217q68 -20 125 -20q125 0 184 92q-23 31 -186 131q-125 76 -125 160q0 41 26 90 q106 117 166 157q98 68 215 74l14 -39q4 -10 5 -24q0 -51 -78 -62q-94 -14 -117 -43q-43 -14 -70.5 -57t-27.5 -90q0 -14 4 -27l176 -123q104 -74 104 -157q0 -29 -10 -62q-59 -117 -205 -117q-61 0 -137 23q-88 100 -190 111l-135 270q-43 -25 -60 -117q-12 -74 -92 -74 q-53 55 -61 185q-10 154 -33 213zM2841 -262h55q98 156 98 223q0 41 -18 80q-123 -111 -135 -303zM3181 -197q0 41 22 107q33 94 35 98q133 223 252 225q69 0 112 -98q10 -35 11 -69q0 -72 -45 -160q-72 -139 -76 -152q-20 -4 -92 -47q-53 -31 -95 -31q-23 0 -45 7 q-80 39 -79 120zM3326 -119q0 -25 6 -47h25q51 18 83.5 72.5t32.5 111.5q0 47 -20 86q-51 -35 -89 -99t-38 -124zM3643 -86q10 184 115 351t266 251q10 -18 11 -35q0 -31 -54 -71q-61 -47 -75 -84q184 -18 190 -127q6 -147 -72 -265t-215 -180q-100 -8 -166 160zM3793 -86 h55q66 35 90 109q15 67 31 137l-121 39q-68 -123 -55 -285z" />
<glyph unicode="&#xf1;" horiz-adv-x="649" d="M82 592q18 33 47 33t49.5 -26t16.5 -54q-12 -39 -13 -80q0 -37 12.5 -106.5t14.5 -100.5q43 31 113 178q59 125 149 144q41 -59 85 -200.5t89 -203.5l21 14q27 -16 26 -43q0 -18 -14 -36q-16 0 -42 -26t-38 -26q-6 0 -14 4q-57 53 -84 164q-33 131 -64 170l-241 -321 l-80 20zM119 821q98 168 104 177q68 92 158 100q10 -10 41 -88q23 -55 65 -55q10 0 23 2q41 39 82 77q49 53 45 97h47q14 -29 14 -56q0 -57 -63 -110l-111 -90q-18 -2 -56 -20.5t-59 -18.5q-14 0 -28 6l-53 94q-25 -6 -79.5 -66.5t-88.5 -60.5q-18 0 -41 12z" />
<glyph unicode="&#xf2;" horiz-adv-x="618" d="M84 281q0 145 156 329q49 55 145 170q20 6 41 6q72 0 129 -71q26 -35 92 -129q14 -96 15 -156q0 -158 -97 -233q-137 -145 -293 -146q-55 0 -108 19q-80 80 -80 211zM193 303q0 -66 30 -119q31 -29 68 -28q14 0 55 12q25 6 60 16q159 90 159 287q-49 94 -65 117 q-51 76 -97 76q-41 0 -77 -64q-133 -168 -133 -297zM281 1217q68 -35 118 -148q55 -123 109 -162v-47q-14 4 -33 -14q-178 178 -194 371z" />
<glyph unicode="&#xf3;" horiz-adv-x="618" d="M84 281q0 145 156 329q49 55 145 170q20 6 41 6q72 0 129 -71q26 -35 92 -129q14 -96 15 -156q0 -158 -97 -233q-137 -145 -293 -146q-55 0 -108 19q-80 80 -80 211zM193 303q0 -66 30 -119q31 -29 68 -28q14 0 55 12q25 6 60 16q159 90 159 287q-49 94 -65 117 q-51 76 -97 76q-41 0 -77 -64q-133 -168 -133 -297zM322 879q84 172 123 231q82 129 180 186q-4 -74 -92 -190q-117 -154 -131 -180q-6 -4 -27.5 -28t-36.5 -24q-8 0 -16 5z" />
<glyph unicode="&#xf4;" horiz-adv-x="618" d="M84 281q0 145 156 329q49 55 145 170q20 6 41 6q72 0 129 -71q26 -35 92 -129q14 -96 15 -156q0 -158 -97 -233q-137 -145 -293 -146q-55 0 -108 19q-80 80 -80 211zM168 895v47q45 27 94 113q59 102 82 129q53 61 127 61l103 -209l-21 -12q37 -39 47 -35q10 2 14 2 q14 0 -12 -8t-35 -8q-23 0 -28 14l-127 115q-47 -25 -99 -133q-45 -94 -90 -94q-25 0 -55 18zM193 303q0 -66 30 -119q31 -29 68 -28q14 0 55 12q25 6 60 16q159 90 159 287q-49 94 -65 117q-51 76 -97 76q-41 0 -77 -64q-133 -168 -133 -297z" />
<glyph unicode="&#xf5;" horiz-adv-x="651" d="M84 281q0 145 156 329q49 55 145 170q20 6 41 6q72 0 129 -71q26 -35 92 -129q14 -96 15 -156q0 -158 -97 -233q-137 -145 -293 -146q-55 0 -108 19q-80 80 -80 211zM119 880q98 168 104 177q68 92 158 100q10 -10 41 -88q23 -55 65 -55q10 0 23 2q41 39 82 77 q49 53 45 97h47q14 -29 14 -56q0 -57 -63 -110l-111 -90q-18 -2 -56 -20.5t-59 -18.5q-14 0 -28 6l-53 94q-25 -6 -79.5 -66.5t-88.5 -60.5q-18 0 -41 12zM193 303q0 -66 30 -119q31 -29 68 -28q14 0 55 12q25 6 60 16q159 90 159 287q-49 94 -65 117q-51 76 -97 76 q-41 0 -77 -64q-133 -168 -133 -297z" />
<glyph unicode="&#xf6;" horiz-adv-x="659" d="M84 281q0 145 156 329q49 55 145 170q20 6 41 6q72 0 129 -71q26 -35 92 -129q14 -96 15 -156q0 -158 -97 -233q-137 -145 -293 -146q-55 0 -108 19q-80 80 -80 211zM193 303q0 -66 30 -119q31 -29 68 -28q14 0 55 12q25 6 60 16q159 90 159 287q-49 94 -65 117 q-51 76 -97 76q-41 0 -77 -64q-133 -168 -133 -297zM197 998q43 70 104 69q37 0 45 -49q4 -14 5 -26q0 -27 -35 -56q-45 -37 -51 -47q-76 33 -68 109zM494 903q0 100 108 148q57 -18 68 -25q37 -20 33 -55q4 -14 4 -27q0 -35 -105 -73q-39 -2 -59 -2q-37 2 -49 34z" />
<glyph unicode="&#xf7;" horiz-adv-x="546" d="M86 356q84 57 227 97l238 65l35 -47q-16 -45 -74 -45q-72 0 -88 -16q-45 0 -130 -42t-124 -42q-43 0 -84 30zM281 248q53 63 94 63q31 0 49 -35q8 -16 8 -28q0 -23 -37 -39q-49 -23 -53 -29zM299 674q0 -2 31 59q63 0 63 -35q0 -8 -4 -18q4 -10 4 -21q0 -41 -51 -59 q-25 0 -25 10q0 2 3.5 10.5t3.5 12.5q0 10 -12.5 21.5t-12.5 19.5z" />
<glyph unicode="&#xf8;" horiz-adv-x="520" d="M86 164q0 174 147 256q63 35 148 35q143 -1 176 -97q-35 -35 -90 -118.5t-94 -118.5q-55 -51 -121 -51q-37 0 -72 12q-72 25 -94 82zM201 225l14 -28v28h-14zM262 340l100 -94q31 29 62 57q37 39 33 70q-27 16 -62 16q-61 0 -133 -49z" />
<glyph unicode="&#xf9;" horiz-adv-x="608" d="M84 274q0 303 152 390q0 -47 -33 -160t-33 -168q0 -94 66 -156q90 23 151 115q53 78 70 180q-16 16 -17 35q0 23 64 92h67q-18 -109 -18 -184q0 -192 98 -264q10 -70 -71 -70q-39 0 -76 16q-27 12 -29 68q0 49 -31 49q-10 0 -20 -4q-12 -43 -74 -74q-74 -35 -88 -53 q-137 0 -174 94q-4 49 -4 94zM281 1217q68 -35 118 -148q55 -123 109 -162v-47q-14 4 -33 -14q-178 178 -194 371z" />
<glyph unicode="&#xfa;" horiz-adv-x="608" d="M84 274q0 303 152 390q0 -47 -33 -160t-33 -168q0 -94 66 -156q90 23 151 115q53 78 70 180q-16 16 -17 35q0 23 64 92h67q-18 -109 -18 -184q0 -192 98 -264q10 -70 -71 -70q-39 0 -76 16q-27 12 -29 68q0 49 -31 49q-10 0 -20 -4q-12 -43 -74 -74q-74 -35 -88 -53 q-137 0 -174 94q-4 49 -4 94zM240 879q84 172 123 231q82 129 180 186q-4 -74 -92 -190q-117 -154 -131 -180q-6 -4 -27.5 -28t-36.5 -24q-8 0 -16 5z" />
<glyph unicode="&#xfb;" horiz-adv-x="608" d="M84 274q0 303 152 390q0 -47 -33 -160t-33 -168q0 -94 66 -156q90 23 151 115q53 78 70 180q-16 16 -17 35q0 23 64 92h67q-18 -109 -18 -184q0 -192 98 -264q10 -70 -71 -70q-39 0 -76 16q-27 12 -29 68q0 49 -31 49q-10 0 -20 -4q-12 -43 -74 -74q-74 -35 -88 -53 q-137 0 -174 94q-4 49 -4 94zM127 834v47q45 27 94 113q59 102 82 129q53 61 127 61l103 -209l-21 -12q37 -39 47 -35q10 2 14 2q14 0 -12 -8t-35 -8q-23 0 -28 14l-127 115q-47 -25 -99 -133q-45 -94 -90 -94q-25 0 -55 18z" />
<glyph unicode="&#xfc;" horiz-adv-x="608" d="M84 274q0 303 152 390q0 -47 -33 -160t-33 -168q0 -94 66 -156q90 23 151 115q53 78 70 180q-16 16 -17 35q0 23 64 92h67q-18 -109 -18 -184q0 -192 98 -264q10 -70 -71 -70q-39 0 -76 16q-27 12 -29 68q0 49 -31 49q-10 0 -20 -4q-12 -43 -74 -74q-74 -35 -88 -53 q-137 0 -174 94q-4 49 -4 94zM135 936q43 70 104 69q37 0 45 -49q4 -14 5 -26q0 -27 -35 -56q-45 -37 -51 -47q-76 33 -68 109zM432 841q0 100 108 148q57 -18 68 -25q37 -20 33 -55q4 -14 4 -27q0 -35 -105 -73q-39 -2 -59 -2q-37 2 -49 34z" />
<glyph unicode="&#xfe;" horiz-adv-x="3923" d="M96 502q0 166 60 266q41 -72 43 -240q2 -203 18 -262q35 -131 170 -166q125 72 125 250q0 57 -15.5 169t-15.5 169q-57 174 -57 377q0 41 2 84q61 4 61 -59q0 -8 -2 -27v-27q0 -45 21 -63q10 -16 26 -88q12 -55 46 -78q12 16 104 192q61 117 141 150q14 2 27 2 q49 0 133 -82q6 -27 6 -51q0 -53 -35 -121q-45 -88 -51 -115q-27 -23 -97.5 -50t-96.5 -46q-47 -35 -47 -88q0 -27 10 -61q0 -66 41 -95q127 -12 207 56q8 -12 8 -27q0 -45 -121 -125h-127q-70 -6 -80 -72q8 -25 8 -49q0 -57 -43 -114q-18 -25 -84 -91q-47 -18 -102 -18 q-94 0 -166 51q-78 53 -88 144q-29 238 -29 305zM616 1489q0 86 56 96h63q37 0 33 -39q4 -14 4 -24q0 -47 -59 -72q-66 0 -97 39zM752 846q78 10 77 112q0 23 -6 39q-39 -18 -51 -69q-18 -78 -20 -82zM1075 776q-4 186 19 293q43 8 65 -33q4 -6 29 -78q2 -14 0 -98 q-2 -59 16 -92q55 35 92 197q33 143 88 143q35 0 91 -39q4 -25 26 -168q17 -102 68 -149q8 -18 8 -35q0 -39 -86 -125q-78 8 -78 98q0 14 2 44t2 44q0 72 -39 101q-33 -82 -102 -246q-66 -145 -199 -152q2 49 -2 295zM1610 1339v150q16 6 30 6q45 0 58 -59q20 -90 22 -97 q0 -238 39 -342q12 8 162 133q100 84 180 99q6 -100 -82 -174q-57 -43 -166 -133q-88 -80 -77 -195l-17 -14q51 -63 158 -64q63 0 145 23q27 29 74 49q43 14 84 31l33 -39q27 45 26 98q0 43 -24.5 125t-24.5 121q0 43 23 76q66 0 94 -39l41 -574q-12 -59 -72 -59 q-12 0 -24 4q-18 29 -19 76q0 12 2 35.5t2 35.5q0 68 -41 101q-49 -78 -137 -115q-55 -23 -171 -40t-169 -38l58 -55q0 -39 -97 -78q-55 127 -73 299q-12 106 -18.5 325.5t-18.5 327.5zM2079 -111l209 177q121 98 227 133q59 -82 59 -189q0 -135 -114 -366q20 -2 39 -2 q84 0 151 57l162 299q84 156 235 217q100 -68 101 -207q-1 -67 -21 -135q-55 -180 -248 -285q-27 -14 -49 -14q-27 0 -73.5 26.5t-67.5 26.5q-27 0 -55 -22q-43 -12 -154 -90q-96 -68 -153 -68q-51 0 -99 45q236 281 215 533q-66 10 -166 -111t-123 -121q-41 0 -75 96z M2408 1442q0 53 74 127q61 -20 62 -101q-1 -75 -60 -75q-41 0 -74 26q-2 10 -2 23zM2507 1014q16 10 30 10q66 0 97 -121q63 74 121 74q29 0 53 -19q53 -51 94 -221q39 -162 113 -217q68 -20 125 -20q125 0 184 92q-23 31 -186 131q-125 76 -125 160q0 41 26 90 q106 117 166 157q98 68 215 74l14 -39q4 -10 5 -24q0 -51 -78 -62q-94 -14 -117 -43q-43 -14 -70.5 -57t-27.5 -90q0 -14 4 -27l176 -123q104 -74 104 -157q0 -29 -10 -62q-59 -117 -205 -117q-61 0 -137 23q-88 100 -190 111l-135 270q-43 -25 -60 -117q-12 -74 -92 -74 q-53 55 -61 185q-10 154 -33 213zM2841 -262h55q98 156 98 223q0 41 -18 80q-123 -111 -135 -303zM3181 -197q0 41 22 107q33 94 35 98q133 223 252 225q69 0 112 -98q10 -35 11 -69q0 -72 -45 -160q-72 -139 -76 -152q-20 -4 -92 -47q-53 -31 -95 -31q-23 0 -45 7 q-80 39 -79 120zM3326 -119q0 -25 6 -47h25q51 18 83.5 72.5t32.5 111.5q0 47 -20 86q-51 -35 -89 -99t-38 -124zM3643 -86q10 184 115 351t266 251q10 -18 11 -35q0 -31 -54 -71q-61 -47 -75 -84q184 -18 190 -127q6 -147 -72 -265t-215 -180q-100 -8 -166 160zM3793 -86 h55q66 35 90 109q15 67 31 137l-121 39q-68 -123 -55 -285z" />
<glyph unicode="&#xff;" horiz-adv-x="550" d="M80 1016q43 70 104 69q37 0 45 -49q4 -14 5 -26q0 -27 -35 -56q-45 -37 -51 -47q-76 33 -68 109zM84 743q18 6 33 7q43 0 61 -99q12 -70 23 -139q6 -16 12 -23q33 -106 127 -229q43 90 91 282.5t89 280.5q10 6 19 6q12 0 22 -20q15 -27 21 -33q-43 -98 -86 -268 q-53 -207 -76 -275q8 -10 20 -10q6 0 17.5 2t17.5 2q16 0 25 -14q-41 -102 -107 -160q-20 -127 -20 -213q0 -117 35 -190q-18 -10 -35 -10q-82 0 -82 163q0 47 12 141.5t12 141.5q0 25 -2 47q-207 244 -229 610zM377 921q0 100 108 148q57 -18 68 -25q37 -20 33 -55 q4 -14 4 -27q0 -35 -105 -73q-39 -2 -59 -2q-37 2 -49 34z" />
<glyph unicode="&#x152;" horiz-adv-x="892" d="M86 219q0 33 16 66q98 193 404 356q53 -70 127 -70q43 0 130 34t128 34q36 0 67 -18q-33 -45 -133 -80q-23 -8 -157 -47q-47 -39 -47 -95q10 -2 20 -2q37 0 116 43t109 43q35 0 58 -37q-113 -86 -176 -118q-104 -53 -207 -43q-31 -25 -68 -82q18 -2 39 -2q57 0 168 43 t168 43q14 0 29 -2q-72 -82 -199 -127q-80 -29 -240 -56q-20 35 -55 35q-25 0 -87.5 -27.5t-96.5 -27.5q-35 0 -64 20q-49 49 -49 117zM201 236q0 -37 51 -37q135 0 254 180q18 61 18 98q0 47 -30 47q-59 0 -265 -207q-29 -49 -28 -81z" />
<glyph unicode="&#x153;" horiz-adv-x="874" d="M94 184q0 66 64 119q8 8 116 92q18 2 56.5 28t58.5 26q27 0 47 -33q25 -14 47 -15q31 0 101.5 61.5t109.5 67.5q53 4 99 -22q53 -29 53 -80q0 -29 -19 -59q-51 -63 -155 -109q-158 -68 -168 -74q51 -35 108 -34q51 0 160 41.5t164 39.5q-23 -49 -113 -79 q-113 -39 -143 -62q-43 -14 -88 -14q-35 0 -101.5 12t-101.5 12q-82 0 -147 -57q-147 18 -148 139zM225 184q0 -14 2 -30q129 0 144 67q-10 -6 -29 12q-6 16 -6 31q0 27 20 52.5t47 31.5q-178 -53 -178 -164zM586 336q47 0 108 80q-31 0 -65 -33q-20 -25 -43 -47z" />
<glyph unicode="&#x178;" horiz-adv-x="706" d="M74 920q0 57 39 57q12 0 28 -8l129 -289q63 -141 170 -270l271 602l47 -2q-16 -119 -107 -318q-104 -231 -131 -319l66 -51q-78 -63 -111 -181q-4 -14 -37 -215q-20 -131 -61 -196q-6 -2 -12 -2q-10 0 -48 39l117 514q-123 115 -215 288q-51 98 -141 322q-4 14 -4 29z M197 1182q43 70 104 69q37 0 45 -49q4 -14 5 -26q0 -27 -35 -56q-45 -37 -51 -47q-76 33 -68 109zM494 1087q0 100 108 148q57 -18 68 -25q37 -20 33 -55q4 -14 4 -27q0 -35 -105 -73q-39 -2 -59 -2q-37 2 -49 34z" />
<glyph unicode="&#x2c6;" horiz-adv-x="499" d="M86 895v47q45 27 94 113q59 102 82 129q53 61 127 61l103 -209l-21 -12q37 -39 47 -35q10 2 14 2q14 0 -12 -8t-35 -8q-23 0 -28 14l-127 115q-47 -25 -99 -133q-45 -94 -90 -94q-25 0 -55 18z" />
<glyph unicode="&#x2dc;" horiz-adv-x="645" d="M113 915q98 168 104 177q68 92 158 100q10 -10 41 -88q23 -55 65 -55q10 0 23 2q41 39 82 77q49 53 45 97h47q14 -29 14 -56q0 -57 -63 -110l-111 -90q-18 -2 -56 -20.5t-59 -18.5q-14 0 -28 6l-53 94q-25 -6 -79.5 -66.5t-88.5 -60.5q-18 0 -41 12z" />
<glyph unicode="&#x2000;" horiz-adv-x="792" />
<glyph unicode="&#x2001;" horiz-adv-x="1585" />
<glyph unicode="&#x2002;" horiz-adv-x="792" />
<glyph unicode="&#x2003;" horiz-adv-x="1585" />
<glyph unicode="&#x2004;" horiz-adv-x="528" />
<glyph unicode="&#x2005;" horiz-adv-x="396" />
<glyph unicode="&#x2006;" horiz-adv-x="264" />
<glyph unicode="&#x2007;" horiz-adv-x="264" />
<glyph unicode="&#x2008;" horiz-adv-x="198" />
<glyph unicode="&#x2009;" horiz-adv-x="317" />
<glyph unicode="&#x200a;" horiz-adv-x="88" />
<glyph unicode="&#x2010;" horiz-adv-x="722" d="M94 526v35q317 57 682 47q0 -51 -129 -67z" />
<glyph unicode="&#x2011;" horiz-adv-x="722" d="M94 526v35q317 57 682 47q0 -51 -129 -67z" />
<glyph unicode="&#x2012;" horiz-adv-x="722" d="M94 526v35q317 57 682 47q0 -51 -129 -67z" />
<glyph unicode="&#x2013;" horiz-adv-x="382" d="M86 291q20 4 131 43q88 31 143 31q27 -1 50 -7q8 -41 -29 -55l-72 -27z" />
<glyph unicode="&#x2014;" horiz-adv-x="825" d="M82 301q0 12 18 23q29 16 33 20q324 -10 715 53l33 -32q4 -12 4 -23q0 -45 -84 -80q-68 16 -191 17q-55 0 -167.5 -6.5t-168.5 -6.5q-121 0 -188 17q-4 10 -4 18z" />
<glyph unicode="&#x2018;" horiz-adv-x="215" d="M94 694q0 70 33 123q39 61 102 74q-47 -162 -47 -209q0 -72 47 -115v-47q-63 0 -129 115q-6 29 -6 59z" />
<glyph unicode="&#x2019;" horiz-adv-x="253" d="M88 860q31 16 55 17q45 0 78 -60q8 -14 49 -100q2 -16 2 -33q0 -35 -14 -92q-18 -68 -22 -90l-101 -27q43 160 43 209q0 111 -90 176z" />
<glyph unicode="&#x201a;" horiz-adv-x="235" d="M-23 -223q109 55 164 180q51 113 45 244q6 2 13 2q24 0 49 -70q6 -29 6 -57q0 -180 -248 -332z" />
<glyph unicode="&#x201c;" horiz-adv-x="354" d="M86 569q-16 268 115 310q-47 -172 -47 -213q0 -63 32 -111l41 -41q20 -20 41 -27v-47q-49 -4 -106 41q-51 39 -76 88zM236 649q0 45 31.5 147.5t29.5 149.5l33 62q23 -31 22 -78q0 -33 -12 -99.5t-12 -99.5q0 -80 49 -129q4 -10 4 -20q0 -41 -51 -62q-94 37 -94 129z" />
<glyph unicode="&#x201d;" horiz-adv-x="315" d="M76 584q16 55 51 164q32 91 98 124q2 -51 -30 -145q-35 -100 -37 -143l20 -150q-70 0 -102 150zM223 600q0 145 96 178q-10 -20 -10 -49q0 -33 14.5 -95.5t14.5 -94.5q0 -74 -80 -84q-35 61 -35 145z" />
<glyph unicode="&#x201e;" horiz-adv-x="360" d="M125 141q0 74 80 84q35 -61 35 -145q-1 -143 -95 -178q8 20 9 49q0 33 -14.5 95.5t-14.5 94.5zM240 -193q-4 45 29.5 142.5t37.5 146.5l-20 150q68 0 100 -150q-16 -55 -51 -164q-33 -92 -96 -125z" />
<glyph unicode="&#x2022;" horiz-adv-x="399" d="M113 330q0 39 28 80q39 57 43 67q80 53 127 68q49 4 82 -21.5t33 -74.5q0 -76 -35 -132q-41 -63 -112 -63q-45 0 -89 -2q-53 4 -73 49q-4 14 -4 29z" />
<glyph unicode="&#x2026;" horiz-adv-x="591" d="M90 41q0 27 35.5 57.5t64.5 30.5q6 -18 7 -33q0 -41 -86 -96q-20 18 -21 41zM225 49q0 45 47 113q55 0 82 -33q6 -16 6 -29q0 -20 -35.5 -52t-37.5 -48h-47q-14 23 -15 49zM467 0q19 94 162 141q6 -18 6 -37q0 -63 -86 -137q-12 -2 -23 -2q-37 0 -59 35z" />
<glyph unicode="&#x202f;" horiz-adv-x="317" />
<glyph unicode="&#x2039;" horiz-adv-x="649" d="M96 430q88 57 252 115l266 94q16 0 45 2t37 -14v-35q-143 -51 -420 -174q25 -55 72 -164q41 -90 105 -148l-47 -32q-63 49 -132 147l-110 162q-12 -2 -21 -2q-23 0 -47 49z" />
<glyph unicode="&#x203a;" horiz-adv-x="563" d="M74 604l67 82q172 -133 308 -133q65 0 124 31q31 -37 31 -74q0 -53 -90 -135q-100 -92 -117 -148q-49 -104 -51 -106q-39 -59 -96 -55q-8 18 -8 34q0 45 57 107q74 80 86 102l80 148q-49 33 -203 59q-131 23 -188 88z" />
<glyph unicode="&#x205f;" horiz-adv-x="396" />
<glyph unicode="&#x2122;" horiz-adv-x="991" d="M88 578q199 68 311 270q14 -16 15 -37q0 -18 -16.5 -53t-18.5 -51q10 6 27 6q18 0 56 -12.5t56 -12.5q45 0 55 66q25 -31 129 -58q80 -20 80 -104l21 -14q33 98 160 98q18 0 34 -2q66 -166 66 -236q0 -47 -16 -88q-59 4 -78 76q-27 104 -37 119q-29 -10 -94 -80 q-53 -55 -103 -49l-59 82q-18 -10 -141 -121q-92 -82 -160 -82q-53 0 -105 41l-32 209q-12 6 -29 6q-16 0 -48 -11.5t-44 -11.5q-29 0 -29 50zM342 481q0 -25 8 -51q27 -33 82 -33q76 14 76 115q0 45 -14 80q-152 0 -152 -111z" />
<glyph unicode="&#x25fc;" horiz-adv-x="829" d="M0 0v829h829v-829h-829z" />
</font>
</defs>
</svg>
