<?xml version="1.0" standalone="no"?>
<!DOCTYPE svg PUBLIC "-//W3C//DTD SVG 1.1//EN" "http://www.w3.org/Graphics/SVG/1.1/DTD/svg11.dtd" >
<svg xmlns="http://www.w3.org/2000/svg">
<metadata></metadata>
<defs>
<font id="p22_kazthin" horiz-adv-x="1159" >
<font-face units-per-em="2048" ascent="1536" descent="-512" />
<missing-glyph horiz-adv-x="675" />
<glyph horiz-adv-x="0" />
<glyph unicode="&#xd;" horiz-adv-x="0" />
<glyph unicode=" "  horiz-adv-x="675" />
<glyph unicode="&#x09;" horiz-adv-x="675" />
<glyph unicode="&#xa0;" horiz-adv-x="675" />
<glyph unicode="!" horiz-adv-x="671" d="M385 84q0 41 22.5 78t57.5 37t52.5 -16.5t27.5 -37.5q10 -23 12 -51q0 -41 -24.5 -69.5t-63.5 -28.5q-33 0 -58.5 26.5t-25.5 61.5zM393 1409q2 18 30 28.5t62 10.5q33 0 56.5 -11.5t23.5 -39.5q-12 -227 -27.5 -455.5t-21.5 -452.5q-2 -39 -15.5 -54t-29.5 -15 q-20 0 -37.5 24.5t-19.5 47.5q-4 129 -8.5 242.5t-7.5 223t-4 220t-1 231.5z" />
<glyph unicode="&#x22;" horiz-adv-x="632" d="M84 1411q0 35 27.5 63.5t70.5 28.5q41 0 59.5 -34.5t18.5 -77.5q0 -23 -4 -88.5t-14.5 -136t-28.5 -125t-47 -54.5q-16 0 -29.5 28.5t-22 71.5t-14.5 95.5t-10 99.5t-5 82t-1 47zM356 1411q0 35 28 63.5t71 28.5q41 0 59 -34.5t18 -77.5q0 -23 -4 -88.5t-14 -136 t-28.5 -125t-47.5 -54.5q-16 0 -29.5 28.5t-21.5 71.5t-14 95.5t-10.5 99.5t-5.5 82t-1 47z" />
<glyph unicode="#" horiz-adv-x="1136" d="M68 633q0 18 15 30.5t28 18.5q33 14 55 24.5t42.5 19.5t41 18.5t49.5 21.5q23 10 29 22.5t6 47.5q0 37 1 64.5t2 53l2 51t1 58.5q0 25 15.5 40t33.5 15q20 0 26.5 -10t6.5 -39q0 -12 -1 -65.5t-1 -126.5q0 -25 7 -31t24 -6q8 0 27.5 8t42 18.5t44 20.5t31.5 14 q27 10 33 27.5t6 40.5v42.5t1 61.5t2 62.5t1 46.5q2 23 11 40t34 17q4 0 21.5 -7t17.5 -36q-2 -53 -2 -94q-2 -35 -2 -66.5v-36.5q0 -31 26 -30q6 0 27 7t44.5 17.5t47 19.5t37.5 15q29 10 39 15.5t33 5.5q6 0 13 -6.5t7 -22.5q0 -10 -5 -26.5t-13 -20.5l-217 -94 q-29 -12 -34 -22.5t-5 -41.5v-141q0 -33 6 -42t29 -9q8 0 38.5 13t66.5 30.5t69 31t43 13.5q39 0 39 -37q0 -10 -7.5 -25.5t-21.5 -19.5q-57 -23 -115.5 -49.5t-113.5 -53.5q-23 -10 -30 -26.5t-7 -38.5q0 -45 -1 -76t-1 -61q0 -41 -10.5 -64.5t-32.5 -23.5q-23 0 -29 21.5 t-6 43.5v121q0 23 -9.5 29t-23.5 6q-29 0 -69.5 -22.5t-77.5 -39.5q-10 -4 -23.5 -17t-13.5 -34v-79t-4 -89q-4 -35 -14.5 -45t-26.5 -12q-23 0 -28 9t-5 34q0 4 -1 23.5t-1 43t-1 46t-1 32.5q0 18 -7 21.5t-16 3.5q-10 0 -37.5 -12.5t-60.5 -28t-64.5 -27.5t-50.5 -12 q-10 0 -14 17.5t-4 31.5q0 12 18.5 23.5t36.5 19.5l164 74q10 4 20.5 20.5t12.5 42.5q0 12 1 34t1 44.5v43v32.5q0 23 -3 33t-26 10q-8 0 -30.5 -9.5t-48 -20.5t-50 -22.5t-35.5 -13.5q-12 -4 -27.5 -9t-25.5 -5q-22 0 -22 35zM418 530q0 -25 7 -34t21 -9q12 2 33 9.5 t42.5 16.5t43 19.5t35.5 18.5q12 6 23.5 14t11.5 37v176q0 23 -6 27t-17 4q-12 0 -42.5 -13.5t-47.5 -21.5l-59 -24q-25 -10 -32 -25.5t-9 -42.5q-2 -39 -1 -81t-3 -71z" />
<glyph unicode="$" horiz-adv-x="1058" d="M111 721q0 72 27.5 140.5t72.5 122.5t103.5 87t119.5 33q37 0 52.5 2t31.5 2q23 0 32 11t9 40q0 31 11.5 90.5t29.5 116.5t42 100t48 43q18 0 35.5 -18t17.5 -41q0 -12 -11 -38t-25 -56q-10 -23 -19.5 -53.5t-15.5 -63.5t-10.5 -63.5t-4.5 -51.5q0 -23 12.5 -28.5 t32.5 -16.5l30 -18t39.5 -34.5t33.5 -56.5t14 -81t-26.5 -58.5t-67.5 -11.5q-10 0 -16.5 15.5t-8.5 25.5q-4 33 -24.5 62.5t-51 51t-67.5 35t-74 13.5q-74 0 -119 -21.5t-71.5 -58.5t-35.5 -84t-9 -96q0 -51 19.5 -82t52 -46.5t75.5 -19.5t90 -4q70 0 154 -4t155.5 -25.5 t121 -65.5t49.5 -124q0 -72 -29 -133t-74 -108.5t-102.5 -81t-114.5 -52.5q-23 -6 -41 -20t-18 -53q0 -27 4 -68t4 -63q0 -31 -14.5 -56.5t-61.5 -25.5q-18 0 -28.5 15t-15.5 38.5t-6 48.5t-1 43q0 59 -14.5 87t-55.5 32q-14 2 -53 15.5t-79 37t-70.5 54t-30.5 67.5 q0 31 22.5 42t55.5 11q35 0 60.5 -20.5t53 -45t64.5 -45t98 -20.5q27 0 78 14.5t102.5 44t88 75.5t36.5 112q0 51 -31.5 82t-80.5 46t-107.5 19t-109.5 4q-61 0 -129 5.5t-124.5 28t-93 69.5t-36.5 131z" />
<glyph unicode="%" horiz-adv-x="1351" d="M248 -6q0 55 59.5 158.5t153.5 231.5t208.5 268.5t225.5 267.5t205 229t145 156q16 18 29 18q10 0 16 -18.5t6 -40.5q0 -10 -2 -22.5t-10 -18.5q-74 -82 -163 -175.5t-182 -194.5t-186.5 -209.5t-175 -221.5t-147 -228.5t-104.5 -230.5q-8 -4 -21 -4q-20 0 -38.5 9 t-18.5 26zM272 995q0 51 28 107.5t75 103.5t111.5 77t136.5 30q16 0 32.5 -5t29.5 -19.5t21.5 -42t8.5 -72.5q0 -68 -22.5 -124.5t-61.5 -98.5t-94.5 -64.5t-118.5 -22.5q-57 0 -101.5 32t-44.5 99zM336 995q0 -35 32.5 -53t67.5 -18q16 0 44 4t58.5 20.5t58.5 47t44 85.5 q4 12 10 32t6 32q0 41 -24.5 66.5t-59.5 25.5q-49 0 -92 -28.5t-74.5 -67.5t-51 -80t-19.5 -66zM762 242q0 43 26.5 83t63.5 71.5t78 51t69 19.5q16 0 42 -4t49.5 -23.5t41 -60.5t17.5 -117q0 -23 -14.5 -56.5t-46 -67.5t-81.5 -57.5t-120 -23.5q-76 0 -100.5 51.5 t-24.5 133.5zM829 244q0 -59 28 -90t71 -31q51 0 70 11t46 38q16 16 23.5 43t7.5 43q0 84 -14 121t-66 37q-29 0 -58.5 -16.5t-53 -42t-39 -56.5t-15.5 -57z" />
<glyph unicode="&#x26;" horiz-adv-x="1875" d="M61 229q0 84 44.5 177.5t102.5 176.5t112.5 144t76.5 82q16 14 28.5 25.5t12.5 39.5q0 25 -16 38.5t-35 33.5q-41 41 -56.5 92.5t-15.5 110.5q0 94 57.5 161.5t138.5 109.5t167 61.5t141 19.5q23 0 56.5 -11t65.5 -29.5t54.5 -44t22.5 -54.5q0 -59 -16.5 -110.5 t-49 -99.5t-81 -96t-111.5 -100q-23 -18 -28 -23t-5 -30q0 -16 11.5 -33.5t23.5 -31.5q14 -10 37.5 -33t50.5 -49.5t52.5 -54t41.5 -46.5q14 -12 35.5 -28.5t38.5 -16.5q14 0 26.5 9.5t28.5 25.5q14 18 50 57t73 82t65.5 83t28.5 59q0 31 -19.5 40t-66.5 13 q-14 2 -25.5 18.5t-11.5 20.5q0 18 32 33.5t80 28t106.5 21.5t113.5 16t99 10t65 3q23 0 48.5 -2t48 -7t37.5 -14t15 -26q1 -21 -22 -39q-16 -12 -54 -25t-83 -13q-49 0 -105.5 -8.5t-85.5 -49.5q-72 -104 -140.5 -182t-122.5 -133.5t-86 -88t-32 -46.5q2 -27 48.5 -69 t99.5 -99q33 -35 65.5 -72t59 -71.5t43 -64.5t16.5 -48q0 -33 -20.5 -55.5t-55.5 -22.5q-29 0 -73.5 32.5t-92 81t-93.5 100.5t-77 91q-14 16 -33.5 45t-37.5 29q-14 0 -21.5 -3t-13.5 -8.5t-14.5 -14.5t-22.5 -21q-43 -37 -114.5 -93.5t-153.5 -109.5t-166 -91t-154 -38 q-37 0 -74.5 15.5t-67.5 45t-48.5 73.5t-18.5 101zM207 254q0 -66 33.5 -91.5t81.5 -25.5q47 0 104 22.5t114.5 57.5t111 78t94 85t65.5 77t25 55t-13.5 34t-25.5 32q-6 10 -36 41.5t-67 64.5t-72.5 58.5t-56.5 25.5q-33 0 -43 -5t-26 -24q-51 -53 -102.5 -115.5t-93.5 -127 t-67.5 -127t-25.5 -115.5zM457 1135q0 -25 17.5 -50.5t42 -47t49 -35t36.5 -13.5q25 0 71 34t92 81t81 97t35 83q0 41 -19.5 76t-85.5 35q-88 0 -149.5 -24.5t-99.5 -63.5t-54 -84t-16 -88z" />
<glyph unicode="'" horiz-adv-x="335" d="M84 1411q0 35 27.5 63.5t70.5 28.5q41 0 59.5 -34.5t18.5 -77.5q0 -23 -4 -88.5t-14.5 -136t-28.5 -125t-47 -54.5q-16 0 -29.5 28.5t-22 71.5t-14.5 95.5t-10 99.5t-5 82t-1 47z" />
<glyph unicode="(" horiz-adv-x="663" d="M123 612q0 147 25.5 273.5t70.5 232t104.5 190t125.5 150.5q35 33 55 33t33.5 -29.5t17.5 -58.5q0 -10 -24.5 -25.5t-49.5 -50.5q-35 -47 -78 -112.5t-79.5 -151.5t-62 -191.5t-25.5 -232.5q0 -80 10 -176t33.5 -191.5t63.5 -181.5t101 -147q18 -20 36 -38t18 -42 q0 -16 -16.5 -29.5t-43.5 -13.5q-45 0 -86 37t-76.5 98t-63.5 142t-48.5 169t-30.5 177t-10 169z" />
<glyph unicode=")" horiz-adv-x="585" d="M68 1456q0 35 23.5 50.5t51.5 15.5q11 0 13 -2q66 -68 128 -166.5t110 -212t78 -237.5t30 -242q0 -195 -42 -357t-100.5 -278.5t-121 -181t-101.5 -64.5q-25 0 -37 16.5t-12 32.5q47 61 100.5 125.5t99.5 154t76.5 213t30.5 308.5q0 123 -24.5 227.5t-61.5 190.5 t-79 153.5t-77.5 117.5t-60 84t-24.5 52z" />
<glyph unicode="*" horiz-adv-x="1038" d="M207 1192q0 20 3 36.5t11 16.5q66 -6 122 -13t116 -9q-16 18 -41 43.5t-48.5 50t-40 44t-16.5 30.5q0 8 9.5 20t21.5 22.5t25.5 18.5t21.5 8q2 0 6 -4q39 -57 73 -108.5t75 -102.5q45 55 86 113.5t76 89.5q2 2 6 2q8 0 21.5 -8t25.5 -19.5t21.5 -24t9.5 -20.5q0 -4 -3 -6 q-41 -37 -79.5 -70.5t-75.5 -72.5q59 4 119.5 6t130.5 4q4 0 5 -9t1 -22q0 -20 -2 -40.5t-4 -20.5h-122t-130 -4q6 -8 30.5 -35t54 -58.5t57.5 -61.5t40 -44q0 -6 -10 -15t-23.5 -19.5t-25 -16.5t-13.5 -6q-18 12 -43.5 38.5t-54.5 60.5t-55.5 70t-46.5 64 q-47 -55 -92.5 -112.5t-104.5 -122.5q-6 0 -17.5 9t-21.5 20.5t-18 21.5t-8 12q14 33 62 84t110 113q-53 -4 -103.5 -8t-89.5 -4h-18.5t-16.5 2t-12 18t-4 39z" />
<glyph unicode="+" horiz-adv-x="1122" d="M119 596q0 27 6 45.5t22 20.5q23 4 45.5 5t40.5 1q45 0 85 -3t102 -3q23 0 43 9t20 34q0 18 -2 44.5t-4 54t-4 52.5t-2 41q0 25 3 51.5t9 61.5q4 16 20.5 24t39.5 8q27 0 49 -11t22 -36q0 -33 -2 -60.5t-2 -76.5q0 -20 1 -43.5t1 -46.5t1 -40t1 -23q0 -23 8.5 -33 t43.5 -10q66 0 142.5 6t135.5 6q16 0 25.5 -6t9.5 -25q0 -33 -10.5 -59.5t-38.5 -26.5q-33 0 -53.5 2t-67.5 2q-45 0 -85 -2t-69 -6q-18 -4 -26 -15.5t-11 -39.5q-6 -78 -6 -125q0 -41 2 -82t2 -105q0 -29 -23.5 -48t-53.5 -19q-16 0 -41 20.5t-27 36.5q-4 37 -5 59.5 t-1 61.5q0 59 1 105.5t1 86.5q0 23 -8 38.5t-49 15.5q-18 0 -57.5 -1t-80.5 -1h-98q-29 0 -42 8t-13 47z" />
<glyph unicode="," horiz-adv-x="466" d="M37 -328q0 27 19.5 80t49 119t64.5 134.5t66 125.5l24 48t37 28q16 0 34.5 -5t35 -14.5t26.5 -22.5t10 -28q0 -31 -20.5 -66.5t-48.5 -72.5l-45 -62.5t-58.5 -81.5t-65.5 -91.5t-65 -90.5q-14 -20 -25.5 -24t-19.5 -4q-18 0 -18 28z" />
<glyph unicode="-" horiz-adv-x="712" d="M90 528q0 14 16.5 18.5t45.5 8.5q92 10 187 13t187 3q29 0 58.5 -10t29.5 -43q0 -31 -13 -59.5t-40 -28.5q-10 0 -18 6t-15.5 13.5t-16.5 13.5t-24 6q-78 0 -175 -6t-185 -6q-8 0 -14.5 9t-11.5 21.5t-8 24.5t-3 16z" />
<glyph unicode="." horiz-adv-x="368" d="M111 86q0 41 22 78t57 37t52.5 -16.5t27.5 -37.5q10 -23 13 -51q0 -41 -25 -69.5t-63 -28.5q-33 0 -58.5 26.5t-25.5 61.5z" />
<glyph unicode="/" horiz-adv-x="1189" d="M166 -178q0 16 35 93t91 191.5t131 256t153.5 285t157.5 280.5t146.5 242.5t115.5 170t69 64.5q18 0 36.5 -16.5t18.5 -34.5t-33.5 -75.5t-89 -142.5t-126 -192.5t-145.5 -225.5t-147.5 -243t-131 -243.5t-97.5 -226t-45 -193.5q-4 -16 -31.5 -26.5t-56.5 -10.5 q-23 0 -37 10t-14 37z" />
<glyph unicode="0" horiz-adv-x="1456" d="M66 397q0 109 26.5 235t75.5 251t123 239.5t166 202.5t204.5 140.5t241.5 52.5q106 0 190.5 -39t147 -100.5t103.5 -138.5t59 -153q35 -135 35 -256q0 -127 -59.5 -275t-180.5 -277t-302 -215.5t-425 -86.5q-209 0 -307 99.5t-98 320.5zM209 451q0 -72 16.5 -140.5 t53 -122t97 -85t150.5 -31.5q82 0 172 27.5t178.5 77.5t167 120t138 152.5t95.5 177t36 192.5q0 104 -26.5 201.5t-78 172.5t-126 121t-171.5 46q-43 0 -97 -10.5t-103 -34t-83 -60t-34 -90.5q0 -35 16.5 -61.5t16.5 -59.5q0 -29 -33 -48t-62 -19q-10 0 -25 3t-32.5 7t-32 7 t-22.5 5q-10 0 -44 -40.5t-71 -113.5t-66.5 -173.5t-29.5 -220.5z" />
<glyph unicode="1" horiz-adv-x="843" d="M84 1204l45 45q12 12 39 27.5t58.5 32t64.5 35t61 36.5q72 49 118 86t87 37q35 0 64.5 -26.5t29.5 -67.5q0 -29 -20.5 -62.5t-24.5 -68.5q-10 -66 -14 -139.5t-7 -147t-3 -143.5v-127v-194.5v-117.5t-1 -70t-1 -48q0 -29 8 -45.5t8 -38.5q0 -102 -37 -162.5t-110 -60.5 q-27 0 -37.5 37.5t-10.5 87.5q0 119 11.5 274.5t11.5 386.5q0 66 -1 115t-2 89t-2 75.5t-1 76.5t-14.5 61.5t-51.5 20.5q-29 0 -52.5 -13t-46 -28.5t-45 -28t-46.5 -12.5q-29 0 -53.5 27t-24.5 51z" />
<glyph unicode="2" horiz-adv-x="1167" d="M51 41q0 23 48 70t112 100q10 8 61.5 54t120 117t146 162t144.5 192.5t110 206t43 204.5q0 109 -65.5 163t-162.5 54q-72 0 -133 -33t-107 -77t-74 -88t-30 -66q-6 -53 -28.5 -79t-51.5 -26q-24 1 -55 21q-12 14 -12 39q0 80 57 158.5t139 141t171 101.5t153 39 q78 0 144.5 -22.5t115.5 -64.5t76.5 -101.5t27.5 -135.5q0 -121 -50 -237.5t-124.5 -222t-161.5 -197.5t-161 -162q-6 -6 -23.5 -24.5t-34 -40t-30 -43t-13.5 -33.5q0 -16 16.5 -23.5t41.5 -7.5q31 0 67.5 10.5t96.5 10.5q55 0 122.5 -8.5t132 -18.5t121 -23.5t89.5 -21.5 q23 -8 26.5 -19.5t3.5 -29.5q0 -35 -18.5 -65.5t-44.5 -30.5q-84 27 -196.5 59.5t-274.5 32.5q-84 0 -148.5 -14.5t-117 -32t-96.5 -31.5t-85 -14q-31 0 -59.5 17t-28.5 40z" />
<glyph unicode="3" horiz-adv-x="1114" d="M76 106q0 27 19.5 44.5t45.5 17.5q12 0 28.5 -8t42.5 -17.5t62.5 -17.5t90.5 -8q100 0 200.5 31.5t179 86t128 126t49.5 149.5q0 63 -28 103t-71 61.5t-94 29t-100 7.5q-70 0 -125 -12.5t-101.5 -26t-86.5 -25.5t-83 -12q-14 0 -21 18.5t-7 40.5q0 25 10 39.5t28.5 23.5 t44 15t54.5 16q63 20 144 61.5t154 100t123 131t50 158.5q0 57 -32.5 91t-75.5 34q-70 0 -134.5 -19.5t-122 -49t-107.5 -64.5t-89 -64q-33 -25 -55.5 -40t-26.5 -15q-23 0 -37 21.5t-14 46.5q0 10 3 20.5t11 18.5q43 51 112.5 103t152.5 95t172 69.5t171 26.5q45 0 85 -16 t70 -46t47.5 -70t17.5 -87q0 -55 -24 -113.5t-58.5 -111.5t-76.5 -100t-81 -78q-47 -39 -47 -57q0 -20 14 -24.5t35 -4.5q49 0 111.5 -13.5t116 -41t90 -70.5t36.5 -105q0 -84 -34.5 -160.5t-95 -141t-139.5 -117t-165 -90t-176 -57t-170 -19.5q-96 0 -158.5 23.5 t-62.5 92.5z" />
<glyph unicode="4" horiz-adv-x="1204" d="M55 471q0 23 4 42t13 30q123 156 206.5 271.5t152.5 218t134.5 201.5t149.5 220q29 41 68.5 47t76.5 6q12 0 39 6.5t47 8.5q18 0 26.5 -27t8.5 -59q0 -35 -3 -74t-7 -68q-12 -156 -15.5 -327.5t-3.5 -337.5q0 -29 9.5 -52.5t44.5 -23.5q47 0 70.5 6t41.5 6q10 0 21.5 -5 t11.5 -21q0 -35 -11.5 -46.5t-31.5 -33.5q-16 -16 -27.5 -19.5t-38.5 -3.5q-35 0 -52 -8t-26.5 -22.5t-10.5 -34t-1 -39.5v-33t-1 -57.5t-1 -68.5v-64q0 -29 -3 -54.5t-11 -29.5l-47 -39q-20 -16 -37.5 -29.5t-28.5 -13.5q-23 0 -27.5 33.5t-4.5 74.5q0 31 3 70l6 78t6 76.5 t3 66.5q0 57 -17.5 66.5t-56.5 9.5q-72 0 -140.5 -2t-121.5 -2q-41 0 -94 -3t-106.5 -7.5t-100.5 -7.5t-76 -3q-27 0 -34 24.5t-7 53.5zM256 561q0 -25 12.5 -29t46.5 -4q33 0 89.5 1t121 4.5t129 9.5t113.5 14q18 2 28.5 20.5t15.5 43t6 52t1 50.5q0 111 -4 210t-6 220 q-2 39 -12.5 75t-38.5 36q-14 0 -29.5 -12.5t-30.5 -28.5q-16 -18 -32 -39l-146 -203q-43 -59 -90 -127t-85 -129t-63.5 -106.5t-25.5 -57.5z" />
<glyph unicode="5" horiz-adv-x="1021" d="M18 8q0 23 27 44.5t92 35.5q92 20 205 64.5t210 105.5t163.5 140t66.5 171q0 133 -68.5 193.5t-217.5 60.5q-80 0 -133.5 -17.5t-92.5 -37.5t-69.5 -38.5t-65.5 -18.5q-23 0 -44 17t-23 38q6 51 9 89t6 72t6 68.5t8 80.5t13.5 108.5t22.5 152.5q4 23 35 39.5t78 30.5 q72 20 153.5 43t160.5 41t148.5 30.5t116.5 12.5q20 0 43 -3t41.5 -10.5t29.5 -18.5t11 -27q0 -29 -14 -50.5t-34.5 -35t-44 -19.5t-40.5 -6q-18 0 -28.5 5t-19.5 12.5t-18.5 12.5t-23.5 5q-18 0 -57 -8.5t-91.5 -21.5t-115 -32.5t-125.5 -42.5q-37 -12 -61.5 -35.5 t-24.5 -66.5q0 -14 -4 -47t-8 -70t-9.5 -72.5t-7.5 -56.5q0 -45 18.5 -61.5t47.5 -16.5q27 0 52.5 11.5t60 25t87 24.5t134.5 11q70 0 131 -15.5t106 -50t71.5 -92t26.5 -141.5q0 -98 -47 -188.5t-121.5 -167t-169 -140t-188.5 -107.5t-180 -68.5t-143 -24.5q-39 0 -65 19.5 t-26 43.5z" />
<glyph unicode="6" horiz-adv-x="1122" d="M41 436q0 68 20.5 148t57.5 163.5t88 168.5t110 163q68 88 150 165t165 133.5t160.5 89t139.5 32.5q29 0 51.5 -20.5t26.5 -53.5q-10 -33 -37 -58.5t-60.5 -43.5t-71.5 -28.5t-71 -14.5q-78 -14 -152.5 -64.5t-142 -125t-125 -164.5t-100.5 -181.5t-66.5 -178.5 t-23.5 -152q0 -12 4 -35t13 -46.5t22.5 -40t33.5 -16.5q31 0 64 54q37 57 106.5 126.5t156.5 130t182.5 101.5t181.5 41q39 0 68.5 -18.5t49 -46t29.5 -60t10 -61.5q0 -74 -35.5 -142.5t-95 -128t-135.5 -108.5t-156.5 -84t-159.5 -54.5t-143 -19.5q-80 0 -139 38t-98 98.5 t-58.5 137t-19.5 156.5zM342 213q0 -90 102 -90q82 0 157 31.5t135.5 72.5t102.5 83t54 65q6 8 13 23.5t14.5 33t12.5 35.5t5 31q0 33 -9 51t-24.5 27.5t-37 10.5t-48.5 1q-33 0 -80 -19.5t-100 -50.5t-106.5 -71.5t-95.5 -81.5t-68.5 -81t-26.5 -71z" />
<glyph unicode="7" horiz-adv-x="1009" d="M35 1300q0 25 4 45.5t6 59.5q2 35 47 54.5t104.5 29.5t120 13t91.5 3q98 0 202.5 -8t194.5 -8q37 0 50 7t32 7q8 0 23.5 -3t31.5 -9t28.5 -14.5t12.5 -18.5q0 -49 -14.5 -80.5t-36 -58.5t-48 -54.5t-50.5 -66.5q-207 -319 -328 -621.5t-162 -607.5q-2 -20 -25.5 -28.5 t-52.5 -8.5q-31 0 -58.5 8.5t-27.5 24.5q0 76 23.5 168t59.5 189.5t80 194.5t85 183q14 31 46 84.5t72 117t81 131t75.5 124.5t56 98t21.5 52q0 39 -34.5 60.5t-79.5 30.5t-91.5 11t-68.5 2q-63 0 -114.5 -4t-100.5 -8q-96 -8 -121 -113q-8 -31 -14 -48t-15.5 -26.5 t-23 -12.5t-35.5 -3q-29 0 -38 32.5t-9 71.5z" />
<glyph unicode="8" d="M35 332q0 82 18.5 143.5t47 105.5t61.5 74.5t61.5 51t47 34t18.5 23.5q0 16 -28 27.5t-60.5 36t-60 73.5t-27.5 141q0 98 38.5 185.5t107.5 152t164 102.5t210 38q74 0 144.5 -11.5t125.5 -41t89 -80t34 -130.5q0 -119 -30.5 -189.5t-66.5 -110t-67 -57t-31 -28.5 q0 -8 44.5 -19t98.5 -41t98 -86t44 -153q0 -49 -12 -107.5t-51 -119.5q-61 -98 -137 -167.5t-160 -114t-171 -64.5t-171 -20q-70 0 -137.5 24.5t-122 70.5t-87 111.5t-32.5 145.5zM180 336q0 -63 34 -108.5t82 -75t102.5 -43t97.5 -13.5q55 0 138 30t161.5 87t135 138 t56.5 184q0 55 -28.5 96t-74.5 66.5t-101.5 38t-108.5 12.5q-92 0 -181.5 -29t-158 -83t-111.5 -130t-43 -170zM254 1044q0 -53 20.5 -88.5t54 -59.5t77 -34t90.5 -10q74 0 144.5 24.5t125.5 68.5t89 106.5t34 138.5q0 125 -74 183.5t-205 58.5q-55 0 -117.5 -25t-115.5 -74 t-88 -122t-35 -167z" />
<glyph unicode="9" horiz-adv-x="1165" d="M61 858q0 119 61.5 234.5t162 208t227.5 148.5t256 56q92 0 164 -46t119 -117.5t71.5 -160.5t24.5 -175q0 -35 -4 -73t-10 -83q-16 -111 -68.5 -220.5t-131.5 -210t-179.5 -185t-210 -148t-223 -99.5t-220.5 -36q-14 0 -14 18q0 23 19.5 46.5t46 44t54 37t42.5 26.5 q113 23 238.5 90.5t232 158.5t176.5 197.5t70 208.5q0 37 -7.5 50.5t-31.5 13.5q-18 0 -60.5 -35t-113 -76t-171 -75.5t-235.5 -34.5q-129 0 -207 55t-78 182zM211 920q0 -59 17.5 -97.5t47 -61t69.5 -31.5t87 -9q49 0 104.5 12t105.5 38t90 63.5t61 89.5q78 12 132 66 t54 140q0 64 -35 121q-33 59 -89 93t-116 34q-82 0 -175 -40t-171 -104.5t-130 -146t-52 -167.5z" />
<glyph unicode=":" horiz-adv-x="718" d="M414 287q0 37 29.5 87t84.5 103l23 12q27 0 50.5 -20t23.5 -43q0 -12 -9.5 -26.5t-21.5 -31t-23.5 -34t-13.5 -33.5q-4 -27 -26.5 -50.5t-51.5 -23.5q-27 0 -46 18.5t-19 41.5zM416 772q0 45 22.5 85t53.5 79q25 31 53 31q23 0 40 -17.5t17 -40.5q0 -18 -13.5 -49 t-35 -61.5t-49 -53t-53.5 -22.5q-12 0 -23.5 13.5t-11.5 35.5z" />
<glyph unicode=";" horiz-adv-x="798" d="M279 -166q0 59 33.5 149.5t85 185.5t112 183.5t113.5 147.5q6 10 24 10q14 0 26.5 -7t12.5 -24q0 -8 -11 -30.5t-29.5 -54.5t-43 -69.5t-49.5 -76.5q-35 -53 -64.5 -102.5t-52 -97.5t-36 -98t-15.5 -108q-2 -45 -10 -73.5t-51 -28.5q-33 0 -39 31.5t-6 62.5zM526 848 q0 10 6.5 28.5t12.5 28.5q14 25 55 25q29 0 50.5 -23.5t21.5 -64.5q0 -23 -21.5 -42.5t-56.5 -19.5q-68 0 -68 68z" />
<glyph unicode="&#x3c;" horiz-adv-x="593" d="M72 537q0 37 18 53q14 16 46 48t73 67.5t85 73.5t82 70t64.5 51.5t30.5 19.5q6 0 14.5 -8.5t14.5 -19.5t11 -22.5t5 -17.5q0 -14 -42 -54t-92 -87t-92 -93.5t-42 -70.5q0 -14 20.5 -39t50 -53.5t65.5 -60.5t66.5 -61.5t51 -54t20.5 -40.5q0 -27 -17.5 -45.5t-39.5 -18.5 q-8 0 -36 20.5t-65.5 53.5t-80.5 71.5t-83 74.5t-71 63.5t-43 38.5q-14 10 -14 41z" />
<glyph unicode="=" horiz-adv-x="1378" d="M137 748q1 26 21 34q61 29 164.5 38t207.5 9q51 0 94.5 -1t83.5 -2t78.5 -2t85.5 -1q49 0 101.5 9.5t103.5 19.5t100.5 19.5t94.5 9.5q10 0 15 -17.5t5 -38.5q0 -39 -12 -41q-55 -12 -131 -20t-153.5 -11t-149.5 -4t-117 -1q-111 0 -187.5 -8.5t-136 -19.5t-113.5 -19.5 t-120 -8.5q-14 0 -24.5 17.5t-10.5 38.5zM145 395q1 19 9 25q45 31 141 54.5t211 39.5t232.5 24.5t205.5 8.5q57 0 115.5 -1t106.5 -4t78 -10.5t30 -21.5q0 -29 -22.5 -56.5t-49.5 -27.5q-47 0 -79.5 5t-68.5 10t-80 10.5t-114 5.5t-165 -9.5t-192 -24.5t-186.5 -33.5 t-148.5 -37.5q-10 4 -16.5 17.5t-6.5 25.5z" />
<glyph unicode="&#x3e;" horiz-adv-x="606" d="M84 195q0 25 44 74.5t97.5 106t97.5 109t44 82.5q0 25 -19.5 43.5t-36.5 34.5l-225 184q0 20 16.5 38t32.5 18q6 0 39 -19.5t76 -50.5t92 -67.5t90 -72.5t67.5 -64.5t26.5 -43.5q0 -12 -26.5 -49t-67.5 -85t-89 -100t-92 -96t-77 -73t-41 -29q-18 0 -33.5 19.5 t-15.5 40.5z" />
<glyph unicode="?" horiz-adv-x="1122" d="M389 1145q0 49 42 102t106.5 98.5t140.5 75t145 29.5q49 0 97.5 -11.5t85 -38t60.5 -68.5t24 -103q0 -66 -33 -127.5t-83 -119.5t-107.5 -114.5t-107.5 -108.5t-83 -101.5t-33 -94.5q0 -35 15.5 -62.5t15.5 -56.5q0 -23 -28 -38t-56 -15q-35 0 -56.5 50.5t-21.5 107.5 q0 45 18.5 86t46 77t61.5 66.5t67 57.5q37 31 85 73.5t91 93t73.5 103.5t30.5 104q0 23 -12 53.5t-35 58.5t-54.5 47.5t-70.5 19.5q-49 0 -104.5 -19.5t-101.5 -56.5t-75.5 -92.5t-29.5 -126.5q0 -12 -7.5 -19.5t-16.5 -10.5t-19 -4t-15 -1q-23 0 -39 16.5t-16 69.5zM532 88 q0 41 22.5 78t57.5 37t52.5 -16.5t27.5 -36.5q10 -23 13 -52q0 -41 -25 -69.5t-64 -28.5q-33 0 -58.5 26.5t-25.5 61.5z" />
<glyph unicode="@" horiz-adv-x="1249" d="M68 453q0 135 44 259t129 218t206.5 150.5t275.5 56.5q113 0 201 -42t149.5 -108.5t93 -147.5t31.5 -161q0 -82 -20.5 -157t-58.5 -131t-94 -90t-128 -34q-49 0 -69.5 23.5t-30.5 46.5q-10 18 -13 18q-8 0 -45 -30q-43 -31 -104.5 -68t-128.5 -37q-25 0 -49.5 6t-45 20.5 t-33.5 34t-13 48.5q0 41 31.5 86t77.5 88t100.5 77.5t101.5 57.5q25 14 35 34.5t10 57.5q0 27 -8 52.5t-41 25.5q-45 0 -67.5 -20.5t-43.5 -49.5q-31 -41 -54.5 -60.5t-53.5 -19.5q-31 0 -39 18.5t-8 29.5q0 31 32.5 66.5t78.5 67t95.5 52t83.5 20.5q55 0 85 -20.5t43.5 -52 t16.5 -72.5t3 -80q0 -37 2 -87t11 -97t29.5 -80t57.5 -33q66 0 106 69.5t40 219.5q0 74 -32 138.5t-84 112.5t-119.5 76.5t-139.5 28.5q-115 0 -212 -47t-168 -124t-111 -174t-40 -200q0 -96 29 -177t82 -139t130 -92t173 -34q90 0 158.5 21.5t120 52.5t87 66.5t62.5 66.5 q10 16 27.5 32.5t36.5 16.5q18 0 28 -13.5t10 -29.5q0 -51 -49 -107.5t-127 -104.5t-175 -78.5t-195 -30.5q-113 0 -207 40.5t-163 110.5t-106.5 163t-37.5 200zM483 352q0 -25 17.5 -32t34.5 -7q16 0 49.5 15.5t67.5 38t59.5 51t25.5 57.5q0 27 -2 46.5t-14 19.5 q-23 -1 -39 -11q-14 -6 -47 -24.5t-66.5 -43t-59.5 -53t-26 -57.5z" />
<glyph unicode="A" horiz-adv-x="1505" d="M49 45q0 88 45 201.5t115 242.5t155 265.5t167.5 266.5t152.5 249t109 211q14 16 38.5 27.5t53.5 11.5q41 0 55 -30t14 -71q0 -76 29 -173t68 -193.5t77.5 -180.5t59.5 -133q14 -35 46 -50t54 -42q-6 -29 -16 -39t-10 -33q0 -33 14 -81t34.5 -102t46 -108.5t46 -99.5 t35 -76.5t14.5 -39.5q0 -29 -40 -55.5t-85 -26.5q-14 0 -31.5 29.5t-37 77.5t-39 105.5t-38 114t-33.5 104.5t-26 75q-10 29 -29.5 48t-52.5 19q-72 0 -143.5 -12t-142.5 -29q-72 -14 -142.5 -27.5t-130.5 -13.5q-20 0 -37.5 9.5t-40.5 9.5q-43 0 -78.5 -48.5t-62 -113 t-42 -130t-15.5 -100.5q0 -23 5 -38t11 -25q0 -2 2 -2q-4 -8 -20.5 -16.5t-38 -15.5t-43 -11t-35.5 -4q-20 0 -28.5 15.5t-8.5 37.5zM461 662q0 -33 16.5 -45.5t63.5 -12.5q25 0 79 3t116.5 8.5t125 13.5t105.5 20q31 10 54 29.5t23 50.5q0 27 -20 77t-47 104.5t-52.5 105.5 t-35.5 80q-20 49 -35.5 78.5t-42.5 29.5q-10 0 -41 -35.5t-69.5 -90t-80.5 -121t-78 -127t-58.5 -106.5t-22.5 -62z" />
<glyph unicode="B" horiz-adv-x="1265" d="M72 723q0 25 9 40l19.5 32.5t19.5 41t9 62.5q0 113 -4 177.5t-9 107.5t-9.5 77.5t-4.5 90.5q0 23 3.5 38t19.5 23q29 14 71 32.5t98 35t127 28t157 11.5q63 0 130.5 -17.5t125 -48.5t94.5 -74t37 -92q0 -35 -25 -85t-57 -93q-16 -20 -35 -38.5t-35 -36t-27.5 -35 t-11.5 -33.5q0 -23 25.5 -30t48.5 -13q53 -10 117.5 -31t120 -52.5t93.5 -71.5t38 -89q0 -63 -43.5 -139t-115 -154t-162.5 -149.5t-186.5 -128t-187.5 -90t-164 -33.5q-104 0 -163.5 48t-59.5 152q0 61 2 121q2 51 3 109.5t1 105.5v50.5t-2 31.5q-2 20 -13 34.5t-23.5 28 t-21.5 26t-9 30.5zM258 930q0 -37 9 -64.5t42 -27.5q31 0 79 20.5t104.5 54t113 76.5t102.5 90t74.5 93.5t28.5 84.5q0 45 -30.5 75t-76 47.5t-94.5 24.5t-88 7q-31 0 -75 -3t-84.5 -13.5t-69.5 -29.5t-29 -54q0 -55 -1 -118t-2 -117t-2 -94t-1 -52zM279 254q0 -25 7 -50.5 t25.5 -45t51 -32.5t86.5 -13q53 0 117.5 26.5t131 69.5t129 98t110.5 113.5t77.5 113t29.5 97.5t-28.5 74.5t-72.5 53t-97 36t-102.5 21.5t-88.5 10t-53 3q-27 0 -81 -17t-107.5 -47t-94 -68t-40.5 -76v-367z" />
<glyph unicode="C" horiz-adv-x="1261" d="M63 612q0 168 57.5 328t156 284t229.5 199.5t280 75.5q57 0 107.5 -19.5t89.5 -48t61.5 -60.5t22.5 -58q0 -43 -22.5 -69.5t-61.5 -26.5q-25 0 -44 22.5t-47 49t-68 48t-103 21.5q-100 0 -190.5 -67.5t-159 -172t-108.5 -230.5t-40 -241q0 -86 19.5 -181t71 -175 t137.5 -131t221 -51q51 0 105 19t108.5 52t103.5 77t90 95q23 27 42.5 34t41.5 7q35 0 46.5 -22.5t11.5 -38.5q0 -10 -2 -13l-2 -2q-41 -61 -101.5 -119.5t-139.5 -102.5t-176.5 -71.5t-209.5 -27.5q-102 0 -196.5 32.5t-168 106.5t-118 191.5t-44.5 285.5z" />
<glyph unicode="D" horiz-adv-x="1374" d="M20 1380q0 31 30 52.5t78 36t108.5 22.5t125 11t125 4t107.5 1q197 -16 354 -88q68 -31 131.5 -77t113.5 -112.5t81 -154.5t31 -201q0 -147 -46.5 -269t-124 -220t-182 -172t-219.5 -124t-235.5 -74.5t-233.5 -24.5q-31 0 -64.5 9t-33.5 44q0 37 3 57.5t7 38t7 34.5t3 48 q4 66 5.5 182.5t1.5 245.5q0 92 -1.5 196.5t-4.5 198t-11 162t-20 90.5q-10 16 -15.5 23.5t-27.5 17.5q-25 10 -59 19.5t-34 23.5zM318 793q0 -82 0.5 -170t2 -169t3.5 -147.5t6 -105.5q4 -45 41 -57.5t84 -12.5q141 8 270 61.5t227.5 145.5t156.5 221t58 293 q0 143 -54 246.5t-144 171t-205 99.5t-238 32q-27 0 -59.5 -7.5t-62 -23.5t-51 -43t-23.5 -65v-9q-4 -59 -7.5 -124.5t-4.5 -129t-0.5 -118t0.5 -88.5z" />
<glyph unicode="E" d="M92 784q0 18 9.5 29.5t19.5 24t19.5 27t9.5 38.5q0 55 3 117.5t3 136.5q0 98 -8.5 154.5t-8.5 103.5q0 25 23.5 40t52.5 18q33 2 87 4t112.5 3t115 3t95.5 6q78 4 151.5 7t159.5 3q39 0 56.5 -17.5t21.5 -45.5q-2 -35 -22.5 -58.5t-43.5 -23.5q-12 0 -32.5 6t-45 14 t-52 14.5t-54.5 6.5q-55 0 -103.5 -1t-94.5 -2t-92 -3.5t-101 -4.5q-27 -2 -50.5 -13t-23.5 -40v-43v-68.5t-1 -75.5t-1 -65q-2 -39 -2 -70.5v-39.5q0 -61 25.5 -89t62.5 -28q74 0 133 4t111.5 10t100.5 10.5t101 4.5q14 0 38 -2t46.5 -6.5t39 -10.5t16.5 -14 q0 -6 -8.5 -24.5t-21.5 -39t-28.5 -36t-27.5 -15.5q-35 0 -78 13.5t-90 13.5q-76 0 -156 -2t-127 -2q-41 0 -65.5 -6.5t-39 -15.5t-20.5 -20.5t-10 -23.5q-2 -6 -5 -33.5t-5 -67.5t-4 -87t-2 -94q0 -49 1 -95.5t3 -68.5q4 -66 44 -87.5t87 -21.5q61 0 116.5 8.5t116 17.5 t131 17t164.5 8q53 0 92 -28.5t39 -75.5q-4 -39 -19.5 -61.5t-37.5 -22.5q-23 0 -40 8t-35.5 17.5t-40 17.5t-54.5 8q-135 0 -219 -9t-141.5 -21.5t-98.5 -21.5t-90 -9q-61 0 -96 19.5t-53.5 57t-23.5 94t-5 132.5q0 43 3 96t6 107.5t6 101.5t3 76t-7 44t-16.5 24.5 t-16.5 17.5t-7 26z" />
<glyph unicode="F" horiz-adv-x="1114" d="M90 774q4 20 16.5 30.5t25.5 18.5t23.5 20.5t10.5 39.5v161.5t-1 115.5t-3 80t-4 54q-2 12 -10.5 20.5t-18.5 16.5t-18.5 13.5t-8.5 11.5q0 35 22.5 58.5t55.5 36.5t69 18.5t62 5.5q29 0 63 1t65.5 2t55 2t29.5 1q94 0 163 4t121 8t94 8t83 4q18 0 34.5 -8t16.5 -33 q0 -4 -2 -21.5t-8 -37t-14 -34.5t-21 -15q-33 0 -49 6t-34.5 12t-46 12.5t-85.5 6.5q-39 0 -98.5 -2t-118.5 -5.5t-105.5 -6.5t-56.5 -5q-49 -8 -68.5 -24.5t-19.5 -73.5v-42t1 -62.5t2 -63.5t1 -45q0 -12 1 -30.5t1 -37v-35v-24.5q0 -57 18.5 -70.5t53.5 -13.5q31 0 69 3 t64 7q82 10 180.5 16.5t182.5 6.5q14 0 34.5 -3t39 -8.5t31.5 -13.5t13 -16t-11 -26.5t-27.5 -38t-36 -35t-37.5 -15.5q-23 0 -37 5t-29.5 12.5t-39 12.5t-64.5 5q-29 0 -89.5 -2t-144.5 -2q-16 0 -50 -1t-52 -3q-51 -4 -60.5 -35t-9.5 -72v-64.5t-1 -80.5t-1 -90v-90 q0 -70 2 -124.5t2 -111.5q0 -47 -25.5 -71.5t-58.5 -24.5q-51 0 -68.5 30.5t-17.5 83.5q0 86 6.5 190.5t6.5 209.5v32.5t-1 44t-2 44t-1 32.5q-2 29 -11.5 43.5t-19.5 23.5t-19.5 18.5t-13.5 29.5z" />
<glyph unicode="G" horiz-adv-x="1468" d="M66 637q0 150 54 306.5t152.5 285.5t235.5 211t305 82q41 0 97.5 -7.5t106.5 -24.5t86 -47t36 -73q0 -47 -21.5 -66.5t-54.5 -19.5q-18 0 -32.5 7t-31 19.5t-37 27t-51.5 26.5q-10 4 -26.5 7t-32.5 5q-18 2 -37 2q-111 0 -198 -41t-151.5 -106.5t-108.5 -148.5 t-71.5 -168t-40 -161.5t-12.5 -131.5q0 -92 25 -182.5t74 -160t120.5 -112.5t165.5 -43q104 0 184.5 47t133.5 111.5t80.5 128t30.5 98.5q0 16 1 38.5t2 46t1 45v36.5q0 37 -9.5 54t-44.5 17q-16 0 -44.5 -2t-62.5 -4t-69 -4t-61 -2q-33 0 -59.5 13.5t-26.5 41.5 q0 41 48 49.5t112 10.5q63 0 132.5 5t108.5 24q6 4 20.5 14t34.5 10t29.5 -5t20 -12t25 -12.5t44.5 -5.5q18 -2 45 -2t53.5 -1t45 -6t18.5 -15q0 -41 -30.5 -55.5t-71.5 -14.5q-29 0 -47.5 -2t-28.5 -16.5t-13 -43t-3 -81.5v-28.5v-48.5t1 -50.5t1 -34.5q2 -35 4 -78t2 -98 q0 -47 -3 -99.5t-8 -115.5q-2 -37 -25.5 -60.5t-51.5 -23.5q-29 0 -40.5 20.5t-11.5 53.5q0 16 -2 34.5t-2 40.5q0 23 -16 45.5t-51 22.5q-20 0 -49 -18.5t-58 -45.5q-29 -23 -63.5 -50t-77.5 -51t-91 -40t-104 -16q-137 0 -233 47t-156.5 132t-88 205t-27.5 265z" />
<glyph unicode="H" horiz-adv-x="1402" d="M68 666q0 33 12 52t27.5 36.5t27.5 40t12 63.5q0 10 -1 29.5t-3 40.5q-2 23 -4 51v54.5t4 53.5q2 31 3 66t1 70q0 37 -4 67.5t-4 71.5q0 20 12.5 45t31 45.5t43 34.5t48.5 14q12 0 18.5 -11t9.5 -26.5t4 -31t1 -23.5q0 -70 -2 -128t-4 -124q-2 -57 -3 -111.5t-1 -99.5 q0 -35 17.5 -55.5t50.5 -20.5q20 0 73.5 13.5t119 30t138 29.5t133.5 13q63 0 129 -10t125 -10q20 0 31.5 17.5t18 43t7.5 55t1 52.5v45t-1 36.5t-2 40t-1 54.5q-2 37 -3 81t-1 103q0 35 37.5 57.5t78.5 22.5q37 0 44 -30.5t7 -69.5q0 -49 -4 -98.5t-10 -100.5 q-8 -80 -12 -176t-4 -180v-101.5t2 -101.5q2 -61 3 -131t1 -156q0 -39 7 -59.5t16.5 -39.5t17.5 -45t8 -77q0 -29 -8 -59.5t-25.5 -55t-45 -41t-68.5 -16.5q-27 0 -42.5 13.5t-22.5 36t-8 50t-1 56.5q0 63 3 111.5t7 101.5t8 123.5t6 179.5q0 16 -15 55t-56 64q-12 8 -44 13 t-70 9t-73.5 6t-56.5 2q-41 0 -122 -9t-164 -30.5t-148.5 -56.5t-77.5 -86q-4 -35 -4 -69.5t-2 -71.5q-2 -39 -5 -95.5t-3 -115.5q0 -41 6 -63.5t12 -38t12.5 -32t6.5 -46.5q0 -47 -25 -84t-80 -37q-53 0 -69.5 44t-16.5 109q0 74 11.5 152t11.5 143q0 6 -1 27.5t-4.5 47.5 t-10.5 50.5t-19 36.5q-25 18 -39 25.5t-14 38.5z" />
<glyph unicode="I" horiz-adv-x="503" d="M131 129q0 66 6 134.5t17 142.5q12 98 22 210.5t10 266.5q0 66 -7 116t-15 97t-15.5 95t-7.5 112q0 23 3 56.5t16.5 65t39 54t68.5 22.5q39 0 72 -26.5t32 -61.5q0 -66 -8 -115t-12 -88q-8 -63 -14 -153t-11 -196.5t-7 -224.5t-3 -237q0 -43 9.5 -60t19.5 -32.5t19.5 -42 t9.5 -88.5q0 -23 -19.5 -52.5t-46 -56t-57.5 -46t-51 -19.5q-43 0 -56.5 39t-13.5 88z" />
<glyph unicode="J" horiz-adv-x="976" d="M66 199q0 33 19 64.5t54 31.5q27 0 64 -22.5t79 -50t87 -50t88 -22.5q59 0 103 22.5t85 65.5q35 37 46 129t11 208q0 141 -10 237.5t-23.5 172.5t-23.5 143.5t-10 153.5q0 53 5 98.5t11 61.5q10 25 37 37t60 12q57 0 72.5 -17.5t15.5 -33.5q0 -39 -4.5 -64.5t-9.5 -48 t-8 -47.5t-3 -59q0 -78 7 -140.5t16.5 -134.5t17.5 -165t8 -232q0 -84 -8 -141.5t-27.5 -103.5t-54.5 -87t-88 -88q-68 -59 -130.5 -93t-150.5 -34q-31 0 -87 17.5t-111.5 46t-96 63.5t-40.5 70z" />
<glyph unicode="K" horiz-adv-x="1433" d="M76 1323q0 24 14 94q4 20 44 36.5t85 16.5q29 0 47.5 -11t22.5 -36q4 -92 5 -215t1 -305q0 -39 16.5 -52t44.5 -13q8 0 51.5 27.5t95.5 64.5t102 74.5t75 58.5q63 53 115.5 100t100.5 91t97 90.5t109 99.5q47 41 100 41q47 0 57.5 -20.5t10.5 -49.5q0 -23 -19.5 -48.5 t-50.5 -52t-66.5 -51t-66.5 -44.5q-61 -39 -136 -88.5t-146.5 -100.5t-134 -101t-101.5 -89q-29 -27 -29 -72q0 -23 15.5 -38t37.5 -32q61 -41 132 -104.5t145 -131t146.5 -129t138.5 -97.5q33 -20 55 -31.5t36.5 -18t24 -8.5t17.5 -2q25 0 43 6q10 2 20 6q33 0 33 -38 q0 -10 -10.5 -22.5t-24.5 -24t-28.5 -20.5t-20.5 -15q-29 -29 -48.5 -45.5t-53.5 -16.5q-49 0 -109.5 43t-120 102.5t-116 120t-95.5 95.5q-49 43 -103 92t-101.5 90t-84 68.5t-51.5 27.5q-29 0 -60.5 -24.5t-37.5 -53.5q-6 -25 -6 -86q0 -47 3 -107.5t7 -129.5 q0 -31 8 -53.5t18.5 -41t18.5 -34t8 -29.5q0 -45 -26.5 -69.5t-87.5 -24.5q-41 0 -68 28.5t-27 81.5q0 55 4.5 113.5t4.5 120.5q0 18 -2 44t-4 48q-2 27 -5 57q0 23 -9 37.5t-19.5 26.5t-19.5 26.5t-9 38.5q0 18 9 34t20.5 31t20.5 31.5t9 34.5q0 74 -1 133.5t-3 114 t-7 104.5t-11 105q-4 25 -11.5 39t-16.5 25.5t-15 24t-6 32.5z" />
<glyph unicode="L" horiz-adv-x="1056" d="M94 1329q0 55 26.5 89t59.5 51.5t63.5 22.5t41.5 5q23 0 31 -31.5t8 -72.5q0 -53 -6.5 -104.5t-12.5 -118t-12 -157.5t-6 -222q0 -143 3 -283.5t7 -294.5q2 -59 38 -75.5t101 -16.5q98 0 199.5 11t187.5 11q23 0 48.5 -2t47 -7t36 -12t14.5 -20q0 -18 -14.5 -32.5 l-30.5 -30.5q-14 -14 -22.5 -26.5t-12.5 -18.5q-6 -10 -13.5 -13.5t-23.5 -3.5q-18 0 -34.5 9.5t-45.5 20.5t-76 20.5t-127 9.5q-72 0 -123 -7t-93 -15.5t-78.5 -15.5t-75.5 -7q-43 0 -63.5 37t-20.5 77q0 66 2 109t5 78t6 72.5t6 93t5 139.5t2 211q0 78 -7 155.5t-16 147.5 t-16.5 126t-7.5 91z" />
<glyph unicode="M" horiz-adv-x="1693" d="M66 78q0 8 4 59t10 128t14 172t19 194q20 231 47 518q0 29 -5 47t-12.5 34.5t-12.5 37t-5 51.5t4 65.5t20.5 63.5t49 47t88.5 18q51 0 68.5 -24.5t17.5 -65.5q0 -25 2 -66.5t18 -72.5q25 -53 40.5 -85t27.5 -58.5t27.5 -53t39.5 -67.5q39 -66 84 -151t85 -162.5t72 -139 t44 -82.5q18 -29 27.5 -41t21.5 -12q31 0 45.5 22.5t26.5 45.5q35 68 82 176t97 233t99.5 256t87.5 244q20 41 64.5 68.5t85.5 27.5q16 0 31.5 -6t15.5 -20q0 -33 -12 -56.5t-12 -64.5q0 -115 11 -250t26.5 -268t32 -254t26.5 -207q2 -25 22.5 -40t30.5 -48q10 -27 15 -50.5 t5 -52.5q0 -37 -5 -72.5t-20 -62t-41 -43t-67 -16.5q-39 0 -57 35l-2 2q-10 20 -19.5 68t-15.5 110.5t-11 134.5t-9 141q-2 27 -8.5 76t-14.5 105.5t-15 116t-9 106.5q-2 20 -5.5 43.5t-8.5 44t-13 35t-21 14.5q-16 0 -35.5 -43t-39.5 -90q-20 -45 -48 -109.5t-61 -136.5 t-66.5 -145.5t-62.5 -137t-51.5 -111.5t-32.5 -67q-10 -18 -23.5 -42.5t-27.5 -45t-29.5 -35t-27.5 -14.5q-14 0 -27.5 16.5t-25 36t-17.5 38t-8 24.5q4 8 9 20.5t5 30.5v19.5t-2 30t-4 31.5t-4 21q-23 53 -57.5 127t-73.5 153t-81 155.5t-79 137t-66.5 98.5t-46.5 38 q-16 0 -25 -26.5t-13.5 -62.5t-5.5 -69.5t-1 -46.5q0 -113 -17 -241.5t-17 -251.5q0 -37 4 -57.5t9 -34t9 -24.5t4 -28q0 -18 -4 -50t-16.5 -62.5t-33 -53t-52.5 -22.5q-37 0 -64.5 21.5t-27.5 60.5z" />
<glyph unicode="N" horiz-adv-x="1454" d="M82 1362l6 47q2 18 23.5 35.5t52.5 31t65.5 21.5t63.5 8q33 0 57.5 -22.5t40 -49t21.5 -47t4 -16.5q4 -23 18.5 -57.5t40.5 -61.5q70 -70 150 -162t161.5 -190t160.5 -195.5t147 -173.5q12 -10 26.5 -24t26.5 -14q27 0 42 46t15 103q0 104 5 220t5 259q0 47 -7 80 t-14 63.5t-14.5 65.5t-7.5 88q0 20 17.5 41t44.5 37t56.5 25.5t51.5 9.5q12 0 18.5 -19.5t9.5 -44t4 -46t1 -23.5q0 -31 -9 -48.5t-19.5 -33t-19.5 -35.5t-9 -59q0 -131 -2 -245t-4 -216.5t-4 -197.5t-2 -187q0 -41 7 -75t14 -66.5t14.5 -66.5t7.5 -75q0 -14 -9.5 -30.5 t-25 -30t-36 -22.5t-40.5 -9q-18 0 -33.5 17.5t-29 40t-23.5 46t-16 35.5q-18 33 -39 74t-44.5 85t-51 87t-60.5 80q-66 76 -136.5 156.5t-141 163.5t-139 165t-130.5 158q-6 8 -18.5 21.5t-24.5 25.5t-25.5 21.5t-23.5 9.5q-33 0 -38 -29t-9 -63q-10 -76 -18.5 -182.5 t-8.5 -272.5q0 -125 7.5 -202t15.5 -127t15 -86t7 -79q0 -25 -5 -51t-16 -48.5t-29.5 -38t-45.5 -15.5q-18 0 -33.5 10t-26 23.5t-15.5 29t-5 27.5q0 86 5 160.5t10.5 166t10.5 212t5 301.5v140t-4 171q-2 31 -8 44t-13.5 22.5t-13.5 21.5t-6 41z" />
<glyph unicode="O" horiz-adv-x="1546" d="M59 604q0 178 51.5 343t151.5 292t248.5 203t345.5 76q147 0 264 -54.5t199 -146.5t126 -213t44 -252q0 -195 -61.5 -354.5t-171 -272t-257 -174t-319.5 -61.5q-96 0 -196.5 25.5t-187.5 88t-150 168t-83 267.5q-2 16 -3 32.5t-1 32.5zM217 621q0 -125 44 -220.5 t117 -160t165 -98t190 -33.5q125 0 237.5 53t198.5 150.5t136.5 235.5t50.5 308q0 135 -45 237.5t-121 172t-172 104.5t-199 35q-96 0 -177 -27.5t-139.5 -77t-91 -116t-32.5 -142.5q0 -25 -13.5 -29.5t-25.5 -4.5q-45 0 -69.5 -38t-37 -95.5t-14.5 -125t-2 -128.5z" />
<glyph unicode="P" horiz-adv-x="1337" d="M92 1348q0 8 11.5 22t25.5 28.5t29.5 26t21.5 11.5q18 0 30.5 -7.5t26 -14.5t31 -14t43.5 -7q68 0 128.5 24.5t129 54t156.5 54t215 24.5q78 0 144.5 -20.5t114.5 -62.5t76 -104.5t28 -148.5q0 -29 -10.5 -79t-43 -114.5t-92 -138t-158 -147t-242.5 -143.5t-343 -125 q-66 -10 -85.5 -45t-19.5 -68q0 -53 5 -101t16 -87q4 -16 9 -39t5 -47q0 -23 -11 -44.5t-29.5 -38.5t-43 -28.5t-51.5 -11.5q-18 0 -29.5 12.5t-19.5 30.5t-11.5 40.5t-3.5 41.5q0 57 9.5 127t9.5 129q0 18 -10.5 34.5t-21.5 31t-21.5 28.5t-10.5 33q0 18 9.5 29.5 t21.5 20.5t21.5 20.5t9.5 31.5q0 74 -3 119t-8.5 89t-8.5 100.5t-3 152.5q0 39 2 86t2 94q0 23 -8 40.5t-17 32.5t-17.5 30.5t-8.5 36.5zM297 657q0 -47 26.5 -55t73.5 -8q51 0 128 20.5t161 59.5t169 92t152.5 118.5t109.5 141.5t42 160q0 141 -84 196.5t-241 55.5 q-74 0 -149.5 -18.5t-141.5 -49.5q-45 -20 -88 -48t-76 -62.5t-52.5 -74.5t-19.5 -83q0 -92 -4 -213t-6 -232z" />
<glyph unicode="Q" horiz-adv-x="1624" d="M57 633q0 172 55.5 331.5t159 283.5t251 199t331.5 75q131 0 247 -50.5t202 -138.5t136 -208.5t50 -264.5q0 -119 -15.5 -199.5t-35 -133t-34.5 -82t-15 -46.5q0 -23 4 -34t18 -23q31 -47 80 -105.5t94 -118t78 -114.5t33 -96q0 -12 -3.5 -27.5t-11.5 -25.5 q-16 -29 -37.5 -39.5t-50.5 -10.5q-20 0 -35.5 20.5t-23.5 41.5q-16 49 -49 110.5t-72 115.5t-78 91t-65 37q-16 0 -23.5 -10t-21.5 -21q-78 -59 -143.5 -98t-129 -61.5t-130 -31.5t-146.5 -9q-152 0 -267.5 48t-193.5 134t-118 204t-40 257zM215 649q0 -117 38 -216 t105.5 -171t161.5 -112.5t209 -40.5q55 0 110.5 12t104.5 32.5t90 44t68 48.5q23 23 37 43t14 43q0 43 -40 75.5t-88 63.5t-88 62.5t-40 74.5q0 14 9 27.5t22.5 25t30 17.5t30.5 6q31 0 62.5 -24.5t64.5 -53t65.5 -53.5t65.5 -25q49 0 76 76q16 45 26.5 118t10.5 130 q0 141 -48 245.5t-126 173t-175.5 101.5t-195.5 33q-47 0 -99 -11.5t-102.5 -32t-94.5 -49t-73 -65.5q-23 -27 -35 -58.5t-18 -60t-8 -52t-2 -34.5q0 -23 -12.5 -27.5t-34.5 -8.5q-29 -4 -51.5 -22.5t-38 -59.5t-23.5 -107.5t-8 -167.5z" />
<glyph unicode="R" horiz-adv-x="1550" d="M82 1333q0 10 8 27.5t21.5 35t30 31t32.5 13.5q14 0 31.5 -8.5t36 -18.5t37 -18.5t32.5 -8.5q12 0 72.5 18.5t147.5 40t191.5 40t203.5 18.5q84 0 154.5 -23.5t121.5 -65.5t80 -100.5t29 -125.5q0 -90 -42 -173t-104.5 -152.5t-136.5 -124t-135 -85.5 q-41 -20 -66.5 -36.5t-25.5 -38.5q0 -16 39 -51t100 -79.5t135 -93.5t142.5 -90t122 -70.5t73.5 -37.5q31 -12 47.5 -18.5t16.5 -28.5q0 -23 -20 -38.5t-36 -29.5q-18 -14 -27.5 -31.5t-21.5 -17.5q-59 0 -134 39t-152.5 98t-154.5 128t-141.5 128t-111.5 98t-66 39 q-18 0 -59 -9t-83 -22.5t-77 -26.5t-43 -20q-27 -18 -36 -44.5t-9 -55.5q0 -45 7 -79t15.5 -64.5t15.5 -62.5t7 -75q0 -29 -13 -47t-33.5 -29.5t-45.5 -15.5t-47 -4q-18 0 -29.5 8.5t-15.5 16.5q-10 14 -13 49t-4.5 81t-1.5 98t-2 102q-2 27 -9 40t-15 24t-14.5 23.5 t-6.5 36.5q0 20 6.5 36t13.5 31t13 33.5t6 47.5v54t-1 84t-1 92v79q0 96 -2 151.5t-2 75.5q0 47 -8 81t-17.5 58.5t-17.5 40t-8 23.5zM289 841.5q0 -63.5 2 -122.5q0 -39 12 -63.5t29.5 -39t39 -20.5t40.5 -6q51 0 126.5 18.5t156.5 54t162 88t145.5 118t104.5 145.5t40 172 q0 49 -24.5 90t-66.5 69.5t-98 44t-122 15.5q-61 -2 -126 -11.5t-124.5 -23.5t-111.5 -31.5t-89 -33.5q-25 -6 -40 -13.5t-25.5 -21t-15.5 -36t-9 -60.5q-4 -41 -5 -92.5t-1 -104.5v-135.5z" />
<glyph unicode="S" horiz-adv-x="1261" d="M74 928q0 121 47 226.5t132 184t200.5 124.5t251.5 46q33 0 89 -7t110 -22.5t94 -38t40 -52.5q0 -23 -10 -50.5t-23.5 -50t-28.5 -38t-28 -15.5q-4 0 -21.5 15.5t-33.5 25.5q-25 16 -56.5 33.5t-71.5 32t-91 23.5t-117 9q-41 0 -95 -23.5t-103.5 -68.5t-83 -110.5 t-33.5 -147.5q0 -123 51 -176t186 -53q68 0 122 14t106.5 32.5t106.5 33t124 14.5q111 0 180.5 -66.5t69.5 -189.5q0 -20 -5 -76.5t-27.5 -128.5t-69 -150.5t-130.5 -144t-212 -107.5t-312 -42q-59 0 -120.5 23.5t-110.5 56t-81 67.5t-32 59q0 20 12.5 44t31 43.5t38.5 32 t37 12.5q78 -104 181.5 -154.5t242.5 -50.5q109 0 187.5 43t129.5 101t76 119.5t25 100.5q0 72 -19.5 120t-52.5 78t-78 42t-94 12q-53 0 -110.5 -18.5t-116 -40t-117 -40t-111.5 -18.5q-66 0 -117 25t-85.5 67t-54 98t-19.5 122z" />
<glyph unicode="T" horiz-adv-x="1409" d="M59 1319q0 23 9.5 47.5t25 44t33 32.5t33.5 13q33 0 105.5 -4t154.5 -9t156.5 -9t109.5 -4q100 0 187.5 8t165 18t147 18.5t135.5 8.5q29 0 29 -21q0 -16 -12.5 -38.5t-33 -44t-48 -37t-58.5 -15.5q-90 0 -179 4t-169 4q-29 0 -43 -10t-21.5 -25.5t-9.5 -34t-4 -36.5 q0 -59 -7 -122t-7 -138q0 -156 4 -331t8 -329q12 -25 20.5 -35t14.5 -17t8 -18.5t2 -35.5q2 -16 2 -33.5v-32.5q0 -43 -20.5 -73.5t-51 -49t-66.5 -28t-69 -9.5q-10 0 -15 13.5t-8 33t-3 42v38.5q0 53 4 97.5t10 93.5t10 111.5t4 152.5t1 161t3 141.5t3.5 149.5t1.5 187 q0 74 -12.5 99.5t-59.5 25.5q-84 0 -142.5 -6t-106.5 -12.5t-91 -12.5t-98 -6q-51 0 -52 33z" />
<glyph unicode="U" horiz-adv-x="1320" d="M82 1255v34.5t2 43.5q0 27 15.5 54.5t39 51t50 38t51.5 14.5q18 0 31.5 -16.5t22.5 -38t13 -45t4 -37.5q0 -59 -6 -109.5t-13 -121t-13.5 -178t-8.5 -283.5q0 -78 2 -148t7 -111q10 -154 92 -217t223 -63q223 0 347 96t124 311q0 68 -2 146t-5 155.5t-6 151.5t-5 137 q-2 43 -6.5 72t-8.5 52.5t-7 47t-3 58.5q0 63 50 102t114 39q27 0 34 -35t7 -76q0 -66 -12.5 -124t-12.5 -111q0 -115 1 -198t1 -153.5t1 -138t1 -147.5q0 -131 -51 -230.5t-137 -167t-202 -102.5t-245 -35q-109 0 -192.5 22.5t-140 75t-86 137.5t-29.5 212q0 55 2 105 t5 104.5t6 114t3 130.5q0 70 -4 135.5t-14 131.5q-6 35 -13.5 44t-12.5 13t-9 13.5t-4 43.5z" />
<glyph unicode="V" horiz-adv-x="1472" d="M39 1358q8 57 23.5 86t60.5 39l49 10q25 0 43 -22.5t30.5 -52t17.5 -56.5t5 -35q0 -12 1 -24.5t5.5 -29t10.5 -39t18 -54.5q12 -37 40 -100.5t62.5 -143.5t73.5 -167t75 -170t65.5 -154.5t46.5 -118.5q16 -41 31.5 -49.5t31.5 -8.5q33 0 37 7.5t14 29.5q33 63 76 153.5 t87 193t86 209t75 202.5q10 29 16 54.5t6 43.5q0 29 -3 44.5t-3 37.5q0 29 31 74t74 88t89 73.5t77 30.5q20 0 35.5 -13t15.5 -34q0 -20 -11.5 -48t-28 -57.5t-34.5 -60t-33 -57.5q-74 -145 -150.5 -313t-150 -330t-140.5 -304t-118 -235q-16 -31 -56 -54t-83 -26 q-6 6 -14.5 26t-22.5 54q-123 311 -261 639t-300 662z" />
<glyph unicode="W" horiz-adv-x="2037" d="M39 1452q0 37 25.5 57.5t54.5 20.5t52.5 -9.5t29.5 -25.5q29 -84 53.5 -174t48.5 -186q20 -74 49 -168.5t58.5 -186.5t57.5 -175t44 -134q6 -20 17.5 -49t27.5 -29t29.5 26.5t27.5 55.5q20 43 49 112.5t62 152.5t67.5 174.5t69.5 179.5t65.5 166.5t55.5 136.5 q12 16 31 16q29 0 41 -16l104 -297q25 -74 59.5 -160t71.5 -176t75 -179t71 -167q0 -23 13 -37t24 -14q23 0 39 30.5t22 48.5q31 88 74 201t82 229.5t66.5 228.5t27.5 202q0 35 11 72.5t34.5 68.5t57.5 51.5t79 20.5q10 0 18.5 -10.5t8.5 -24.5q0 -102 -47.5 -231.5 t-100.5 -280.5q-78 -219 -147.5 -422t-128.5 -422q-4 -37 -15.5 -46t-27.5 -26q-20 -20 -48 -43.5t-53 -23.5q-29 0 -46 21.5t-27.5 52t-14.5 64.5t-4 58q0 33 -16.5 92.5t-43 132t-58 153.5t-62.5 156t-57.5 137.5t-40.5 98.5q-10 25 -19.5 53.5t-31.5 28.5 q-20 0 -30.5 -24.5t-21.5 -48.5q-14 -35 -41.5 -99.5t-61.5 -141.5t-67.5 -158t-62.5 -153.5t-46.5 -127t-17.5 -74.5q0 -31 1 -41t1 -15t1 -11.5t1 -28.5q0 -51 -114 -119q-10 -6 -19.5 -12.5t-15.5 -6.5q-25 0 -44.5 28t-34.5 63.5t-23.5 71.5t-8.5 55q0 49 -15 114.5 t-36.5 134t-45 137t-40.5 128.5z" />
<glyph unicode="X" horiz-adv-x="1400" d="M59 1440q0 27 33 50t72 23q17 0 29 -6q25 -14 61.5 -53t80.5 -94t91 -117.5t91 -124t83 -114t66 -82.5q14 -16 24 -28.5t29 -12.5q23 0 37 17t30 38q41 45 99.5 118.5t122 153.5t128 159t119.5 136q10 10 30 16.5t40 6.5q18 0 26.5 -10.5t8.5 -26.5q0 -29 -21.5 -68 t-59.5 -84t-87 -97t-105 -110q-35 -35 -70.5 -73.5t-70.5 -76.5t-65.5 -75t-53.5 -65q-16 -18 -24 -25.5t-8 -28.5q0 -12 6 -21t18 -24q39 -49 96.5 -127.5t121 -160.5t127 -152t118.5 -102q29 -16 46.5 -38t17.5 -52q0 -16 -5.5 -35t-15.5 -35t-24.5 -27.5t-32.5 -11.5 q-37 0 -82 35t-94.5 90t-98.5 122.5t-96 135.5t-90 127t-76 96q-10 14 -20.5 27.5t-24.5 13.5q-16 0 -29.5 -16.5t-29.5 -32.5q-10 -10 -41 -43t-71 -80t-84 -101.5t-81 -106.5t-60.5 -96t-23.5 -69q0 -18 8.5 -27t8.5 -36q0 -20 -27 -39.5t-41 -19.5q-16 0 -36.5 4t-41 12 t-34 17.5t-13.5 19.5q0 43 15.5 87t36 82t42 68.5t35.5 48.5q78 90 176.5 193.5t175.5 200.5q14 16 23.5 27.5t9.5 33.5q0 8 -14.5 23.5t-24.5 27.5q-12 16 -54 65.5t-98.5 115t-119 139.5t-114.5 137.5t-86 106.5t-34 51z" />
<glyph unicode="Y" horiz-adv-x="1312" d="M47 1395q0 57 26.5 87.5t98.5 30.5q25 0 38.5 -31.5t29.5 -60.5q49 -88 93 -163.5t87 -144.5t87 -134.5t93 -134.5q12 -18 25.5 -31.5t31.5 -13.5q23 0 38.5 17.5t21.5 29.5q45 76 92 147.5l94 143t96.5 146.5t98.5 159q27 45 53.5 56t62.5 11q23 0 36.5 -20.5 t13.5 -42.5q0 -23 -13.5 -48.5t-29.5 -47.5q-25 -33 -68 -92.5t-93 -130t-102.5 -146.5t-98.5 -143.5t-80 -118.5t-46 -72q-23 -41 -27 -112.5t-4 -141.5q0 -59 8.5 -93t17.5 -54.5t17.5 -35.5t8.5 -38q0 -33 -4.5 -67.5t-16.5 -62.5t-32.5 -46.5t-53.5 -18.5 q-37 0 -71.5 15.5t-34.5 52.5q0 57 5 125t5 143q0 43 -1 73t-2 54.5t-2 48t-1 52.5q0 49 -6.5 83.5t-18.5 63.5t-29.5 55.5t-37.5 57.5q-27 39 -68 96t-86 120.5l-90 127t-81 117t-58.5 89t-22.5 44.5z" />
<glyph unicode="Z" horiz-adv-x="1351" d="M61 98q0 35 15.5 60.5t42.5 54.5q43 43 93 99.5t104.5 121t112.5 132t118 134.5q68 76 132 151t121.5 142.5t105.5 122.5t83 90q14 16 31.5 42t17.5 61q0 16 -12 25t-30.5 13.5t-42 5.5t-44.5 1q-170 0 -292.5 -5.5t-208.5 -11.5t-141.5 -13t-88.5 -13q-23 -4 -43 -7.5 t-24 -3.5q-27 0 -27 19q0 39 13.5 70.5t34 55t44 36t41.5 12.5q72 0 121 -4t100 -10t118 -10.5t171 -4.5q100 0 155.5 5.5t94.5 12.5t73.5 12t94.5 5q53 0 95 -36t42 -95q0 -29 -40 -88t-103.5 -135t-142 -162t-156.5 -168t-145.5 -153.5t-108.5 -116.5q-43 -47 -88 -95.5 t-83 -93.5t-62.5 -84t-24.5 -69q0 -18 17 -29.5t44 -17.5t59.5 -8.5t65.5 -2.5q96 0 152.5 1t110.5 1t127 1.5t202 1.5q16 0 38.5 6t45 13t43 13t35.5 6q35 0 35 -38q0 -16 -8.5 -45t-24 -57t-40 -48t-56.5 -20q-41 0 -83 8t-90.5 19t-104.5 19.5t-126 8.5h-100t-93.5 1 t-103.5 1h-129q-31 0 -54.5 -7t-46 -14.5t-45 -14.5t-48.5 -7q-41 0 -65 31.5t-24 72.5z" />
<glyph unicode="[" horiz-adv-x="573" d="M51 -127q0 41 3 74t6 71.5t8.5 91t8.5 133.5t6 197.5t3 284.5q0 207 -5 338t-11.5 209t-11.5 115.5t-5 58.5q0 27 35 47q18 10 80.5 13t126.5 3q96 0 146.5 -4t50.5 -24q0 -39 -25 -53.5t-64 -14.5q-35 0 -68.5 4t-70.5 4q-33 0 -56.5 -24.5t-23.5 -59.5q0 -41 2 -68.5 t6.5 -56t8.5 -64.5t8 -90t6 -132t2 -193q0 -123 -2 -211t-5 -151.5t-6 -108.5t-6 -83t-5.5 -77t-2.5 -90q0 -53 38 -72.5t85 -19.5q27 0 64 -3t69.5 -11t56 -21.5t23.5 -34.5q0 -29 -22.5 -57.5t-50.5 -28.5q-25 0 -47.5 8.5t-47 18.5t-50 18.5t-52.5 8.5q-35 0 -76 -9.5 t-69 -15.5q-29 4 -44.5 30.5t-15.5 49.5z" />
<glyph unicode="\" horiz-adv-x="1054" d="M57 1448q0 23 18.5 42t39.5 19q20 0 37 -30q55 -88 141 -216t181 -275.5t191.5 -303.5t174.5 -299t126 -263t48 -196q0 -27 -14.5 -37t-36.5 -10q-29 0 -53.5 8.5t-26.5 24.5q-4 80 -42 185.5t-96.5 222t-132 241.5t-150.5 244t-149.5 228.5t-129 195.5t-91.5 143.5 t-35 75.5z" />
<glyph unicode="]" horiz-adv-x="598" d="M51 1460q0 17 2 23q43 4 100.5 8t116 8t112.5 7t91 3q20 0 41 -4t25 -10q-10 -98 -25.5 -194.5t-29 -196.5t-23.5 -206.5t-10 -227.5q0 -145 11 -257t23.5 -202t23.5 -166t11 -149q0 -16 -28.5 -29.5t-73.5 -25t-97.5 -18.5t-99.5 -12.5t-83 -8.5t-44 -3q-25 0 -31 15.5 t-6 35.5q0 14 2 26.5t11 14.5q27 10 60.5 14.5t68 5.5t67.5 2t60 5q29 4 39 59.5t10 135.5q-6 145 -10 278q-2 57 -3.5 117.5t-2.5 117t-2 107.5t-1 88t5.5 108.5t13.5 148.5t17 142.5t20 90.5q0 53 -32 72.5t-71 19.5q-47 0 -67.5 -3t-38 -6t-44 -5.5t-81.5 -2.5 q-12 0 -19.5 26t-7.5 48z" />
<glyph unicode="^" horiz-adv-x="1286" d="M102 408q0 18 32 52t77 74.5t94 81.5t82 72q55 51 109.5 102.5t95.5 94.5q31 27 76 26q41 0 73 -28q41 -63 99.5 -124t120 -119t120 -116.5t101.5 -117.5q2 -4 2 -13q0 -33 -15.5 -62.5t-50.5 -29.5q-4 0 -14 7t-20.5 16.5t-20.5 19.5l-14 14q-27 33 -76 81t-101.5 95.5 t-94.5 85t-54 52.5q-16 18 -38.5 33.5t-43.5 15.5q-12 0 -27.5 -8t-32 -18.5t-30.5 -24t-23 -21.5q-23 -23 -79 -75t-118.5 -106t-113.5 -95t-61 -41t-19.5 9t-16.5 21.5t-12.5 24.5t-5.5 21z" />
<glyph unicode="_" horiz-adv-x="2062" d="M-72 -362q0 10 3 20t10 10h2203q4 0 7 -9t3 -19t-4 -20.5t-14 -10.5h-2195q-12 0 -13 29z" />
<glyph unicode="`" horiz-adv-x="0" d="M-231 1425q0 33 29.5 55.5t58.5 22.5l12 -4q20 -6 45 -40t46.5 -77t36.5 -85t15 -66q0 -6 -7 -12.5t-13 -6.5q-12 0 -48 21.5t-75 54.5t-69.5 70t-30.5 67z" />
<glyph unicode="a" horiz-adv-x="1083" d="M74 768q0 27 30.5 62.5t79.5 72.5t112.5 72t129.5 63q106 47 201.5 65.5t158.5 18.5q31 0 62 -10t55.5 -31.5t39.5 -52.5t15 -72q0 -25 -3 -85t-6 -131.5t-6 -142.5t-3 -116q0 -39 13.5 -54t29.5 -23.5t29.5 -17.5t13.5 -34q0 -23 -22.5 -38t-38.5 -29t-26.5 -29.5 t-10.5 -40.5q0 -31 -2 -68.5t-15 -97.5q-6 -25 -26.5 -35t-48.5 -10q-33 0 -42.5 25.5t-13.5 55.5t-11 55.5t-32 25.5q-33 0 -88 -27.5t-122.5 -61.5t-140.5 -61.5t-140 -27.5q-31 0 -59.5 6t-50 22.5t-35 46t-13.5 76.5q0 72 37 137.5t96.5 123t134 106.5t149.5 89 t142.5 69.5t114.5 46.5q35 12 41 46t6 74q0 86 -46 134.5t-114 48.5q-45 0 -98 -22.5t-106.5 -55.5t-99.5 -72t-75 -71q-33 -41 -56.5 -71t-68.5 -30q-27 0 -49 22.5t-22 53.5zM229 178q0 -39 26 -54t54 -15q20 0 57 13t80 33.5t89.5 45t85 47t67.5 40t39 23.5 q12 8 23.5 27.5t19.5 42t13 46.5t5 42q0 41 -16 64.5t-47 23.5q-8 0 -37 -11t-69.5 -31.5t-88 -47t-92.5 -59.5q-20 -12 -55 -37t-68.5 -56.5t-59.5 -67.5t-26 -69z" />
<glyph unicode="b" horiz-adv-x="1067" d="M55 768q0 31 12.5 45t28 28.5t28.5 34t13 56.5q0 47 -1 100t-1 103.5v92.5v66v111t4 55q6 31 33 48.5t59 17.5q66 0 66 -164q0 -29 -2 -70t-4 -83t-4 -77.5t-2 -54.5q0 -47 9 -75.5t32 -28.5q31 0 69.5 17.5t87.5 37t110.5 36.5t139.5 17q45 0 94.5 -14t90 -44t68.5 -74 t30 -103v-53q0 -74 -36 -150t-90 -146.5t-121 -133t-128 -107.5q-53 -47 -113.5 -96t-118 -90t-107.5 -67t-81 -26q-29 0 -61.5 14.5t-32.5 41.5q0 20 11.5 39.5t11.5 46.5q0 135 -5.5 266t-9.5 272q0 27 -13 41.5t-27.5 24.5t-27 19.5t-12.5 25.5zM276 440q0 -39 4.5 -78.5 t16.5 -71.5t35.5 -52.5t64.5 -20.5q25 0 76 27.5t114.5 79t131.5 123t123 157.5q16 25 33.5 65t17.5 105q0 80 -50 139.5t-155 59.5q-43 0 -112.5 -19.5t-135 -52.5t-113.5 -75t-48 -85v-76.5t-1.5 -59.5t-1.5 -66.5v-98.5z" />
<glyph unicode="c" horiz-adv-x="1073" d="M41 254q0 80 35 166t94 171t141 166t174 152q39 29 90.5 58.5t103.5 54.5t102 40t87 15q20 0 39 -20.5t33 -54t22.5 -74.5t8.5 -84q0 -41 -35 -61.5t-76 -20.5q-23 0 -32 14.5t-20 32.5t-30.5 32.5t-62.5 14.5q-35 0 -90.5 -32.5t-117 -85t-122.5 -117t-111.5 -128 t-81 -119t-30.5 -89.5q0 -49 17.5 -79t44 -45.5t60 -20.5t68.5 -5q51 0 114.5 12.5t130.5 31t132.5 43t122.5 48.5q57 25 110.5 54.5t97.5 57.5t74.5 46t41.5 18q24 0 24 -47q0 -37 -47 -78.5t-123 -83.5t-171 -82t-193.5 -71t-188.5 -49.5t-153 -18.5q-59 0 -110.5 16.5 t-90.5 47.5t-60.5 75t-21.5 99z" />
<glyph unicode="d" horiz-adv-x="1220" d="M49 266q0 68 43 152t110.5 169t153.5 168t171 150.5t162 114.5t128 63q66 20 109 50t49 86q8 37 11 70.5t6 68.5t8.5 71.5t21.5 81.5q6 16 47 17q43 0 55 -23q2 -16 2 -35.5v-37.5q0 -47 -2 -103.5t-8 -122.5q0 -29 18.5 -50t18.5 -48q0 -16 -8 -28.5t-17.5 -26 t-17.5 -26.5t-8 -32q-6 -70 -12.5 -176t-11.5 -214.5t-9 -203t-4 -139.5q0 -25 9 -41t21.5 -29.5t21.5 -27.5t9 -35q0 -47 -21 -114.5t-44 -118.5q-4 -10 -21.5 -14.5t-40.5 -4.5q-27 0 -43 24.5t-27 62.5t-18.5 82t-16.5 82t-22.5 62.5t-35.5 24.5q-35 0 -89.5 -32.5 t-122 -72.5t-146.5 -73t-163 -33q-55 0 -103 12.5t-85 43t-57.5 80.5t-20.5 126zM188 270q0 -59 36 -105t91 -46q72 0 151 24.5t155.5 65.5t145.5 97t120 120q18 25 30.5 70t18.5 98t8 106.5t2 94.5v43q-2 20 -4 42.5t-10 43t-22.5 34t-39.5 13.5q-51 0 -121.5 -38 t-146.5 -100.5t-149.5 -139.5t-133 -154.5t-95.5 -148.5t-36 -120z" />
<glyph unicode="e" horiz-adv-x="1228" d="M43 262q0 59 9 102.5t21.5 73t21.5 46t9 24.5q0 18 -3 28.5t-6 17.5t-5 15.5t-2 20.5q0 18 14.5 32.5t36 33t48 43t51.5 65.5q23 35 71.5 90t114 107.5t143.5 89t158 36.5q61 0 119.5 -24.5t104.5 -66.5t75 -96t29 -112q0 -18 -1 -42.5t-12 -51.5q-6 -16 -30.5 -31.5 t-56 -27.5t-67.5 -21.5t-65 -13.5q-57 -8 -109.5 -16.5t-106.5 -16.5t-112.5 -17t-125.5 -18q-37 -4 -60.5 -13t-46.5 -36q-35 -43 -51 -105.5t-16 -107.5q0 -84 53 -138t143 -54q111 0 225.5 27.5t221 69.5t200.5 89t166 86q47 25 62.5 38t35.5 13q25 0 25 -20 q0 -25 -15.5 -48.5t-40 -43t-55 -38t-61.5 -34.5q-70 -37 -154 -79t-182 -81t-208.5 -67.5t-231.5 -36.5q-106 0 -172 29.5t-101.5 75.5t-48 100.5t-12.5 103.5zM356 694q0 -41 21.5 -50t81.5 -9q37 0 78 4t81.5 10t78.5 13.5t67 11.5q10 2 28.5 6t37 16.5t31.5 31.5t13 52 q0 76 -54 122t-128 46q-43 0 -101.5 -27.5t-110.5 -67.5t-88 -84t-36 -75z" />
<glyph unicode="f" horiz-adv-x="813" d="M61 924q0 25 17.5 35t46.5 10q57 0 73.5 19.5t20.5 62.5q0 2 1 14t2 26.5t3 27t2 16.5q16 72 61.5 143.5t109 127.5t140 92t156.5 36q27 0 67 -6t76.5 -18.5t63.5 -31t27 -44.5q0 -41 -32 -72t-75 -31q-63 35 -99 55.5t-75 20.5q-113 0 -193.5 -91t-93.5 -251 q0 -37 10.5 -59.5t49.5 -22.5q14 0 61 2t104.5 5t112 6t82.5 3q35 0 47.5 -10t12.5 -20q0 -29 -17.5 -57.5t-44.5 -39.5q-23 -2 -53.5 -3t-67.5 -1q-61 0 -117.5 5.5t-113.5 5.5q-47 0 -61.5 -19.5t-18.5 -85.5q-2 -31 -4 -107.5t-4 -166.5t-3 -178.5t-1 -141.5q0 -29 3 -46 t8 -30.5t8 -27t3 -33.5q0 -47 -17 -75.5t-77 -28.5q-10 0 -22.5 12t-22.5 29.5t-17 38t-7 38.5v59.5t1 45t1 38v40.5q0 66 2 141.5t4 147t4 133t2 98.5q0 59 -13.5 82.5t-54.5 29.5q-29 4 -53.5 14.5t-24.5 37.5z" />
<glyph unicode="g" horiz-adv-x="1251" d="M53 274q1 61 19 129q37 141 137 265.5t236.5 215.5t293 144t303.5 53q63 0 90 -9t27 -32q0 -20 -16.5 -48.5t-20.5 -65.5q-4 -39 -6 -79t-2 -75q0 -49 1 -88t3 -75t3 -70.5t1 -77.5q0 -45 4 -83t9.5 -75t9.5 -72.5t4 -76.5q0 -117 -64.5 -214.5t-157.5 -167 t-198.5 -108.5t-185.5 -39q-59 0 -141.5 9.5t-159 32t-130 59t-53.5 92.5q0 20 11.5 34.5t33.5 14.5q45 0 86 -14.5t72 -30.5q27 -14 59.5 -27.5t73.5 -25t94.5 -18.5t122.5 -7q57 0 121 29.5t117 79t87 112t34 127.5q0 37 -2 78t-8.5 77t-18.5 58.5t-33 22.5 q-12 0 -24.5 -14.5t-22.5 -24.5q-53 -51 -121.5 -92t-146.5 -71t-162 -45t-166 -15q-43 0 -82 11t-67.5 35.5t-46 64.5t-17.5 97zM201 328q0 -39 16 -65.5t44 -43t61.5 -24t68.5 -7.5q68 0 138.5 19.5t136 53.5t126 80t109.5 97q12 12 21.5 42t15.5 66t8 72.5t2 67.5t-4 70 t-14 72.5t-27.5 57t-44.5 23.5q-88 0 -201.5 -42t-215 -117.5t-171 -183t-69.5 -238.5z" />
<glyph unicode="h" horiz-adv-x="1165" d="M90 690q0 20 8 36.5t19.5 33t19.5 36t8 48.5v45v69.5t-1 87t-2 95.5t-1 92q-2 59 -2 103v61q0 18 4 40.5t16.5 41t36 31t62.5 12.5q16 0 25.5 -20.5t13.5 -48.5t5 -55.5t1 -41.5q-8 -59 -14 -117q-6 -49 -10.5 -102.5t-4.5 -94.5q0 -16 2.5 -39.5t9.5 -44t18 -35 t30 -14.5q31 0 85 24.5t121.5 55.5t145.5 55.5t158 24.5q74 0 127 -48t53 -134q0 -98 -6 -167t-6 -147q0 -31 1 -54t3 -44.5t6 -47.5t8 -58q10 -63 28.5 -132t18.5 -135q0 -16 -3 -35.5t-9 -36t-17.5 -28.5t-27.5 -12q-47 0 -73.5 18.5t-43.5 79.5q-4 16 -9 51t-9 81 t-7.5 99.5t-3.5 108.5q0 27 2.5 67t4.5 83t4 83.5t2 71.5q0 104 -17.5 158.5t-91.5 54.5q-55 0 -118.5 -20.5t-122 -48t-106.5 -56t-75 -45.5q-33 -20 -63.5 -62t-30.5 -98q0 -78 2 -151.5t2 -177.5q0 -43 5 -70t11.5 -47t11.5 -42t5 -54q0 -31 -23.5 -54.5t-54.5 -23.5 q-37 0 -58.5 17.5t-32.5 45t-14 61.5t-3 68q0 78 14 166t14 185q0 33 -8 54t-17.5 38.5t-17.5 31t-8 27.5z" />
<glyph unicode="i" horiz-adv-x="428" d="M123 977q0 16 2 31.5t6 35.5q4 4 39 5q37 0 76 -10.5t39 -30.5q0 -29 -2 -65t-7 -83q-4 -76 -10 -171t-6 -204q0 -123 9.5 -196.5t19.5 -122.5q10 -27 15 -60.5t5 -50.5q0 -4 -3 -17t-9 -27.5t-15.5 -25t-23.5 -10.5q-37 0 -62.5 16.5t-41 38t-21.5 43t-6 33.5 q0 33 2 81.5t6 103.5q0 98 6 210.5t6 237.5q0 70 -12 123t-12 115zM143 1427q0 9 4 21q10 27 37 44t54 17q29 0 42 -31.5t13 -56.5q0 -31 -15.5 -64.5t-48.5 -33.5q-31 0 -58.5 34t-27.5 70z" />
<glyph unicode="j" horiz-adv-x="512" d="M-348 -174q0 33 27.5 60.5t62.5 27.5q31 0 60.5 -28.5t68.5 -62.5t90 -61.5t127 -27.5q35 0 62.5 8t56.5 39q25 29 31 92.5t6 142.5q0 129 -1 229.5t-3 183.5t-3 154.5t-1 145.5q0 27 -3.5 69t-6.5 83t-7 73.5t-4 42.5v11q0 20 12.5 33.5t40.5 13.5q57 0 83 -16.5 t26 -32.5q0 -39 -3 -103.5t-6 -135.5t-6.5 -134.5t-3.5 -97.5q0 -84 4.5 -135.5t9.5 -93.5t9 -86t4 -111q0 -72 -2 -124.5t-14.5 -96.5t-40 -82.5t-76.5 -84.5q-35 -29 -63.5 -47t-59.5 -27t-65.5 -12.5t-77.5 -3.5q-31 0 -87.5 17.5t-111.5 45t-95 62.5t-40 70zM219 1389 q0 41 22.5 76.5t57.5 35.5q43 0 67.5 -28.5t24.5 -75.5q0 -39 -24.5 -69t-63.5 -30q-35 0 -59.5 28t-24.5 63z" />
<glyph unicode="k" horiz-adv-x="1073" d="M92 473q0 20 5 32.5t12.5 27t12.5 32t5 45.5q0 29 -1 70t-1 80v92q0 68 1 153t4 170t9.5 159.5t14.5 123.5q4 16 28.5 37t50.5 21q35 0 47 -31t11 -64q0 -18 -6 -63t-11 -92q-8 -63 -14 -141t-6 -162q0 -25 1 -68t6 -85t16.5 -72.5t33.5 -30.5q33 0 81 28.5t104.5 72.5 t116 94t115.5 94t103.5 74t77.5 30q27 0 47.5 -11.5t20.5 -27.5q0 -33 -37 -59.5t-76 -53.5q-29 -18 -96.5 -62t-137 -94.5t-122.5 -98.5t-53 -75q0 -29 12 -40t27 -21q63 -49 127.5 -98t111.5 -84q152 -113 219.5 -170.5t67.5 -91.5q0 -35 -31 -57.5t-61 -22.5 q-10 0 -33 17.5t-54.5 45t-69.5 63.5t-77 72q-49 47 -102 95.5t-103.5 88.5t-94.5 65.5t-70 25.5q-25 0 -37.5 -7t-17.5 -19.5t-6 -29t-1 -32.5q-2 -25 -3 -59.5t-1 -71.5q0 -33 6 -65t12.5 -58.5t12.5 -48t6 -33.5q0 -20 -11.5 -36.5t-26.5 -29t-31.5 -19.5t-28.5 -7 q-18 0 -34 14t-25 38t-14 51.5t-5 51.5q0 72 4 130.5t4 117.5q0 23 -17.5 43.5t-17.5 36.5z" />
<glyph unicode="l" horiz-adv-x="452" d="M141 367q0 84 5.5 159.5t11.5 147t11 143.5t5 150q0 113 -9 220t-9 212q4 59 27.5 80.5t76.5 21.5q23 0 36 -14t20.5 -38t9.5 -50.5t4 -50.5q0 -109 -8.5 -200t-22.5 -200q-6 -53 -10 -98t-6 -88t-3 -86t-1 -92q0 -139 8 -217t19 -127.5t19.5 -85t8.5 -86.5 q0 -16 -12.5 -29.5t-31 -24t-41 -16.5t-42.5 -6q-27 0 -29 8q-6 27 -13 72t-12.5 96t-8.5 103.5t-3 95.5z" />
<glyph unicode="m" horiz-adv-x="1886" d="M55 686q0 37 10.5 55.5t23.5 34t23.5 33.5t10.5 51q0 51 -3 91t-9 93q4 20 31.5 34t56.5 14q35 0 51 -14.5t16 -51.5q0 -59 17.5 -72.5t64.5 -13.5q66 0 136.5 20.5t140 45t135 45t121.5 20.5q33 0 54 -14.5t36.5 -37t28 -48.5t24.5 -51q14 -27 25.5 -42.5t27.5 -15.5 q41 0 90.5 29t106.5 64.5t123.5 64.5t146.5 29q117 0 195 -46.5t78 -150.5q0 -47 -7.5 -90t-14.5 -86t-14 -89t-7 -100q0 -92 17 -186t17 -178q0 -43 -18 -69.5t-72 -26.5q-29 0 -48 18t-29.5 50t-14.5 74t-4 87q0 78 6 144.5t13.5 130t13.5 125t6 130.5q0 76 -36 106 t-120 30q-47 0 -126 -29t-155.5 -70t-135 -89t-62.5 -87q-6 -55 -11 -152.5t-5 -273.5q0 -37 4 -61.5t4 -53.5q0 -33 -23.5 -67.5t-56.5 -34.5q-18 0 -33.5 10.5t-27 39t-17.5 82.5t-6 140q0 53 7 124t14.5 146t14.5 147.5t7 131.5q0 41 -26.5 61.5t-65.5 20.5 q-18 0 -70.5 -10t-116 -24.5t-127 -32t-106.5 -31.5q-72 -25 -101.5 -55.5t-33.5 -89.5q-8 -86 -11 -160t-3 -154q0 -72 8 -105.5t18 -54t18.5 -37t8.5 -49.5q0 -41 -20.5 -72.5t-69.5 -31.5q-33 0 -51.5 16.5t-27.5 43t-12.5 59.5t-3.5 63q0 109 4.5 203t4.5 193 q0 18 -9.5 32.5t-19.5 25.5t-19.5 22.5t-9.5 27.5z" />
<glyph unicode="n" horiz-adv-x="1148" d="M84 678q0 31 7 48t16.5 28.5t17.5 20.5t8 22v80q0 51 -3 71.5t-7 28.5q-2 4 -2 10q0 20 14.5 37.5t36 31t47 21.5t49.5 8q27 0 27 -26q0 -27 -4 -35t-4 -25q0 -51 12 -68.5t39 -17.5q51 0 109.5 25t122 54.5t131 54t139.5 24.5q37 0 69.5 -14.5t55 -38t36 -51t13.5 -54.5 q0 -53 -2 -87.5t-3 -65.5t-3 -62.5t-2 -76.5q0 -141 6 -209q4 -55 15 -97.5t23.5 -78t21.5 -67.5t9 -65q0 -18 -7 -28t-19 -35q-23 -49 -58 -49q-16 0 -37.5 7t-31.5 24q-20 31 -31.5 85t-18 115.5t-7.5 124t-1 107.5q2 63 4 116q2 47 3.5 93.5t1.5 68.5q0 104 -17.5 158.5 t-91.5 54.5q-55 0 -118.5 -20.5t-122 -48t-106.5 -56t-75 -45.5q-14 -10 -28.5 -30.5t-25.5 -47t-18.5 -55.5t-9.5 -55q-4 -57 -5 -124t-1 -126q0 -35 6 -68.5t14.5 -63.5t14.5 -53.5t6 -37.5q0 -43 -21.5 -82t-68.5 -39q-37 0 -56.5 15.5t-28.5 40t-11 56t-2 62.5 q0 41 4 88t10 95t10 95.5t4 85.5q0 27 -8 47.5t-19.5 38t-19.5 31t-8 29.5z" />
<glyph unicode="o" horiz-adv-x="1153" d="M63 334q0 82 11.5 123t25.5 71q10 23 19.5 45.5t13.5 47.5q23 135 79 229.5t167 155.5q59 33 131 54t147 21q115 0 198 -48t137.5 -126t80 -176t25.5 -199q0 -92 -27 -155.5t-67.5 -109.5t-90 -79.5t-96.5 -66.5q-33 -25 -66.5 -46.5t-76.5 -39t-99.5 -27.5t-132.5 -10 q-31 0 -94 15.5t-126.5 53t-111 103.5t-47.5 164zM205 379q0 -55 28.5 -102.5t74.5 -82t106.5 -54t124.5 -19.5q49 0 86 10t66.5 25.5t54 33t49.5 33.5q35 20 68.5 47t61 65t45 92t17.5 130q0 82 -31.5 151.5t-85 121t-123 80t-143.5 28.5q-59 0 -97 -12.5t-62.5 -32 t-40 -46t-29.5 -56.5q-12 -27 -28.5 -52.5t-39.5 -48.5q-25 -27 -36 -46t-17 -37.5t-10 -39t-13 -51.5q-12 -37 -19 -69.5t-7 -67.5z" />
<glyph unicode="p" horiz-adv-x="1185" d="M78 76q0 31 11 47t25.5 36.5t28 53.5t15.5 94q2 45 7 97.5t5 109.5q0 106 -12.5 180t-27.5 123t-27.5 77t-12.5 42q0 31 27 45q8 6 26.5 17.5t38 23.5t37 21.5t23.5 9.5q12 0 20 -18.5t17.5 -41t20.5 -41t30 -18.5q18 0 56 17.5t83 40t89 44t75 31.5l-8 -4l-9 -4 q41 14 87.5 22.5t93.5 8.5q66 0 126 -20.5t106 -62.5t73.5 -106.5t27.5 -152.5q0 -147 -60 -258t-161.5 -196t-233.5 -147.5t-278 -111.5q-16 -6 -31.5 -11.5t-26.5 -15.5t-18.5 -29.5t-9.5 -56.5q-2 -12 -2 -35.5v-46.5q0 -27 -2 -55q8 -31 20.5 -45t25 -26.5t21.5 -30 t9 -54.5q0 -12 -5 -39.5t-17.5 -54.5t-33 -47t-48.5 -20q-57 0 -76 23.5t-25 72.5q-4 41 -9 72.5t-9 71.5t-7 94.5t-3 138.5q0 33 -11.5 49t-25 27.5t-24.5 23.5t-11 35zM305 451q0 -86 4 -142.5t18.5 -90.5t38 -47t64.5 -13q10 0 55 11t105.5 37.5t127 68.5t123 101.5 t93.5 138.5t37 181q0 57 -20.5 105.5t-57.5 82.5t-86 53t-105 19q-51 0 -112.5 -17t-117.5 -47t-98 -67t-52 -75q-6 -47 -9.5 -86t-5.5 -75t-2 -69v-69z" />
<glyph unicode="q" horiz-adv-x="1087" d="M31 283q0 90 41 185t110.5 185t160.5 170t193.5 139.5t208 94.5t203.5 35q10 0 26.5 -6.5t16.5 -22.5q0 -23 -5 -54.5t-15 -76.5q-12 -45 -19.5 -131t-7.5 -183q0 -51 4 -113.5t4 -103.5q0 -16 8.5 -28.5t18.5 -21.5t19.5 -17t9.5 -19q0 -20 -9.5 -38.5t-20.5 -36 t-21.5 -37t-12.5 -41.5q-4 -31 -5 -98.5t-1 -180.5q0 -76 17.5 -159.5t17.5 -188.5q0 -29 -33 -48t-70 -19q-33 0 -51 16t-27.5 43t-12.5 60.5t-3 66.5q0 82 7.5 156.5t7.5 177.5q0 47 -13.5 66.5t-54.5 19.5q-23 0 -68 -15.5t-103 -35t-124 -35t-127 -15.5 q-135 0 -202.5 74t-67.5 236zM164 307q0 -41 13 -83t39 -77.5t63.5 -58t89.5 -22.5q51 0 114.5 12t123 35.5t107.5 58.5t72 82q8 14 12.5 62.5t7.5 109.5t4 126.5t1 119.5v86q-2 70 -34 92t-72 22q-82 0 -177.5 -56t-176.5 -141t-134 -183.5t-53 -184.5z" />
<glyph unicode="r" horiz-adv-x="940" d="M72 961q0 14 12 27t31.5 23.5t43 17.5t44.5 7q24 0 26 -8q8 -20 11.5 -38.5t3.5 -47.5q0 -23 -1 -33t-1 -20q0 -27 10 -55.5t55 -28.5q43 0 90 44t104.5 96t130.5 96t165 44q20 0 38.5 -13t32 -32.5t20.5 -42t7 -43.5q0 -49 -24.5 -90t-73.5 -41q-14 0 -22.5 14.5t-20 32 t-28.5 31.5t-50 14q-45 0 -94.5 -23.5t-96.5 -60t-88 -83t-69 -91.5q-18 -29 -29.5 -77t-18 -102t-9.5 -107.5t-3 -91.5q0 -43 3 -71t8.5 -48.5t8.5 -34.5t3 -29q0 -51 -25.5 -76.5t-91.5 -25.5q-39 0 -47 15.5t-8 56.5q0 92 6 191t6 198q0 47 -3 93t-7 83q-4 27 -6 49 t-2 39q0 88 -6.5 133t-14.5 66.5t-14 26.5t-6 16z" />
<glyph unicode="s" horiz-adv-x="987" d="M66 709q0 37 23.5 99t82.5 122.5t160.5 103.5t257.5 43q45 0 90 -7t82 -20.5t60.5 -32t23.5 -42.5q0 -33 -15.5 -49.5t-66.5 -16.5q-20 0 -39.5 9.5t-47.5 19.5t-68 19.5t-101 9.5q-47 0 -100.5 -12.5t-99.5 -39t-76.5 -69.5t-30.5 -105q0 -90 41 -120.5t110 -30.5 q45 0 89 14t88 32.5t88.5 33t87.5 14.5q45 0 84.5 -13.5t70.5 -40t48.5 -67.5t17.5 -96q0 -106 -53.5 -193.5t-136.5 -150t-182 -97t-189 -34.5q-47 0 -96.5 3t-89.5 14t-64.5 32.5t-24.5 58.5q0 29 11.5 55.5t33.5 26.5q14 0 31.5 -11t45.5 -25.5t69 -25.5t106 -11 q82 0 155.5 20.5t129 59t88.5 92t33 118.5q0 92 -42 130t-106 38q-35 0 -75 -16t-89 -34.5t-107.5 -35t-127.5 -16.5q-100 0 -140 65.5t-40 178.5z" />
<glyph unicode="t" horiz-adv-x="960" d="M20 944q0 25 15.5 38t40 19.5t55.5 8.5t62 2h67q45 0 54.5 45t9.5 114q0 27 2 56.5t12 54.5q10 23 48 40t71 17q10 0 12 -13t2 -30q-4 -102 -5 -151t-1 -72q0 -47 19.5 -55t78.5 -8q61 0 115 2q47 2 92 3t68 1t48 -3t25 -22q0 -23 -15 -45t-56 -26q-51 -8 -82 -10.5 t-58.5 -4.5t-61.5 -3t-93 -7q-43 -4 -62.5 -23.5t-23.5 -62.5q-4 -37 -8.5 -98.5t-8.5 -131t-7 -139t-3 -121.5q0 -49 5 -87.5t20.5 -66.5t46.5 -43.5t82 -15.5q84 0 144.5 27t103.5 51q18 10 33.5 18.5t19.5 8.5q10 0 17 -10.5t7 -24.5q0 -45 -45 -81t-111.5 -60.5 t-144.5 -37.5t-143 -13q-74 0 -113 25.5t-57 67.5t-21.5 97t-3.5 115q0 57 5.5 122.5t12.5 132t12 130t5 117.5q0 59 -10 80.5t-47 25.5q-41 6 -99.5 12t-99.5 6q-16 0 -23.5 9.5t-7.5 19.5z" />
<glyph unicode="u" horiz-adv-x="1173" d="M100 754q0 80 5.5 143t21.5 92t59 51.5t82 22.5q12 0 18.5 -13.5t9.5 -33t3 -39v-31.5q0 -59 -4 -113.5t-9 -121t-9.5 -155.5t-4.5 -218q0 -111 58.5 -161t152.5 -50q66 0 136.5 38t130 119t98.5 206.5t39 300.5q0 10 -5 32.5t-10.5 47t-10.5 46t-5 29.5q0 20 12.5 43 t31 41.5t42 30.5t45.5 12q20 0 32.5 -19.5t18.5 -48t7.5 -61.5t1.5 -59q0 -47 -3.5 -88t-7.5 -81t-7 -81t-3 -90q0 -160 10.5 -254t22.5 -146.5t22.5 -74t10.5 -35.5q0 -10 -11.5 -19.5t-30 -16.5t-40 -11t-41.5 -4q-23 0 -36 22.5t-22.5 54t-14.5 67.5t-11 62 q0 20 -11.5 37t-35.5 17q-25 0 -44.5 -21.5t-50.5 -52.5q-27 -29 -67.5 -59.5t-96 -58t-125 -45t-155.5 -17.5q-39 0 -74 21.5t-62.5 55t-44 76.5t-16.5 86q0 47 3.5 74t3.5 68q0 115 -4.5 201.5t-4.5 181.5z" />
<glyph unicode="v" horiz-adv-x="1077" d="M41 954l4 33q20 49 55 67.5t64 18.5q49 0 59 -48t15 -120q4 -78 27.5 -169t55 -179t68.5 -166t68 -127q8 -12 27.5 -38.5t37.5 -26.5q16 0 26.5 5t26.5 34q23 35 52.5 108.5t63.5 164.5t69 187.5t66.5 175t57 130t42.5 51.5q14 0 31.5 -5.5t33 -14.5t25.5 -21.5t10 -26.5 q0 -29 -22.5 -86t-58.5 -132t-81 -160t-91 -169t-88 -158.5t-71 -127.5q-10 -18 -14 -37t-4 -35t4 -25.5t4 -17.5q0 -18 -22.5 -31.5t-51 -20.5t-58.5 -11.5t-42 -4.5q-8 0 -18.5 14.5t-20.5 30.5q-49 90 -110.5 216t-114.5 258.5t-89 255t-36 208.5z" />
<glyph unicode="w" horiz-adv-x="1722" d="M20 1008q0 29 42 51t114 22q14 0 24.5 -18.5t17.5 -41t11 -43t4 -22.5q8 -43 30 -114.5t46.5 -151.5t49 -154.5t40.5 -121.5q2 -8 6.5 -20.5t10.5 -25t13 -20.5t17 -8q18 2 27.5 12t28.5 45q72 145 160 310t180 313q4 6 16 15t29 9q39 0 53 -20t23 -43 q16 -45 41.5 -108.5t54 -131t60.5 -133t61 -114.5q6 -10 15 -25.5t18.5 -30t20.5 -25t21 -10.5t20.5 9.5t19 24t15.5 28.5t13 24q20 37 46 95.5t54.5 124t56 130t52 118t42 85t25.5 31.5q35 -2 65 -20.5t30 -53.5q0 -10 -35 -85.5t-87 -179t-110.5 -217.5t-105.5 -202 q-8 -16 -13.5 -44.5t-5.5 -51.5q0 -31 -7 -72t-24.5 -77.5t-47 -63t-74.5 -26.5q-33 0 -53.5 19t-20.5 40q0 18 5 32.5t11.5 30t11.5 35t5 47.5q0 51 -23 92q-8 12 -33.5 62.5t-57.5 113t-60.5 124t-42.5 98.5q-10 29 -25.5 52.5t-34.5 23.5q-16 0 -35.5 -20.5t-35.5 -53.5 q-8 -16 -48 -78.5t-84.5 -140.5t-79 -153t-34.5 -116q0 -27 4 -40t8 -23q0 -29 -14.5 -56.5t-38 -51t-52 -38t-57.5 -14.5q-39 0 -56 30t-17 73q0 72 -22.5 167t-56.5 196t-74 200.5t-73.5 180.5t-56.5 133t-23 63z" />
<glyph unicode="x" horiz-adv-x="1052" d="M33 57q0 45 38 109.5t89 131.5t102 124t76 88q20 23 24 35q6 12 7 24q0 14 -10.5 24.5t-18.5 24.5q-80 96 -143 177q-27 33 -52.5 66.5t-45 63t-32 51t-12.5 32.5q0 23 39 40t76 17q35 0 41 -9t6 -30q0 -14 14 -47q8 -12 44 -60.5t78 -101.5t81 -95t53 -42q16 0 54.5 40 t79.5 90t75.5 97t44.5 62q29 35 53.5 65.5t45.5 30.5q31 0 53 -30.5t22 -59.5q0 -8 -21.5 -36t-54 -64.5t-71.5 -78.5t-72.5 -79t-58.5 -63.5t-29 -32.5q-12 -20 -18 -24.5t-6 -21.5q0 -16 7 -24t23 -27q78 -78 160 -156.5t154 -181.5q25 -27 50.5 -60.5t25.5 -74.5 q0 -23 -33 -39t-68 -16q-31 0 -46 29.5t-30 52.5q-35 47 -66.5 87t-65 77t-68.5 73.5t-74 77.5q-18 20 -39.5 40t-40.5 20q-16 0 -60 -44t-89 -102.5t-80 -114t-35 -79.5q0 -16 -9.5 -35t-23.5 -35t-29.5 -29.5t-29.5 -17.5q-29 2 -54.5 17.5t-29.5 43.5z" />
<glyph unicode="y" d="M-31 -334q0 16 13.5 34.5t32 34t38 26t29.5 10.5q12 0 30.5 -14.5t42 -31t50 -30.5t57.5 -14q41 0 95.5 20t102.5 63t81.5 109t33.5 156q0 43 -11 77.5t-30.5 65.5t-44 61.5t-51.5 65.5q-59 80 -124.5 180.5t-121 197.5t-91 181t-35.5 133q0 18 31.5 33.5t72.5 15.5 q10 0 30.5 -7t22.5 -9q12 -31 43 -95.5t72 -143t87 -163.5t89 -154t80 -114t57 -45q23 0 38.5 20.5t31.5 59.5q25 76 55.5 175.5t66.5 195.5t74.5 178t77.5 125q4 4 29 4q35 0 65.5 -9t30.5 -24q0 -18 -33.5 -98t-83 -191.5t-103.5 -240.5t-93 -246q-20 -59 -43 -130 t-49.5 -140.5t-56 -132t-62.5 -105.5q-33 -41 -74 -80t-89 -67.5t-101 -46t-109 -17.5q-45 0 -90 12.5t-82 31t-59.5 41t-22.5 42.5z" />
<glyph unicode="z" horiz-adv-x="1067" d="M53 897q0 31 8.5 57.5t20.5 28.5q88 12 192.5 23.5t213 20.5t215 15.5t200.5 6.5q16 0 37 -29t21 -59q0 -23 -2.5 -49.5t-8.5 -43.5q-16 -41 -73.5 -100t-134 -124.5t-160.5 -134.5t-155 -129.5t-118 -108.5t-47 -72q0 -76 107 -76q117 10 251 27.5t250 17.5q66 0 115 -8 t49 -45q0 -18 -10 -38t-25.5 -37t-34 -28.5t-36.5 -11.5q-27 0 -49.5 5t-46 11.5t-50 11.5t-61.5 5q-115 0 -207 -7.5t-163.5 -14.5t-127 -14t-96.5 -7q-18 0 -31.5 12t-23 30.5t-13.5 38t-4 31.5q0 49 44 110.5t109.5 126t141.5 128t142 117.5q25 20 70.5 54t90.5 74t78 83 t33 84q0 29 -25.5 34t-76.5 5q-160 0 -301.5 -25t-294.5 -47q-12 6 -13 51z" />
<glyph unicode="{" horiz-adv-x="727" d="M51 618v11q0 4 1 10t1 12q0 29 17 35q45 20 88 52t75.5 72t53 90t20.5 112q0 18 -1 30.5t-3 33t-3 52t-1 89.5q0 47 24.5 99t64.5 97t92.5 74t107.5 29q25 0 32 -13.5t7 -21.5q0 -14 -10.5 -28.5t-38.5 -18.5q-82 -16 -117 -86t-35 -168q0 -41 1 -58.5l2 -35t2 -42 t1 -79.5q0 -39 -14.5 -82t-41 -86t-64.5 -82t-83 -72q57 -41 99.5 -82t42.5 -82t-2 -66.5t-4.5 -47t-4.5 -42t-2 -49.5q0 -31 10.5 -96t36 -133t67.5 -124t106 -71q18 -4 35.5 -4t30.5 -1t21.5 -7t8.5 -20q0 -23 -14.5 -42.5t-49.5 -19.5q-109 0 -180.5 46t-113.5 118 t-59 156t-17 162q0 51 6 100t6 104q0 43 -16.5 74t-44 50.5t-64.5 31.5t-76 20z" />
<glyph unicode="|" horiz-adv-x="323" d="M92 1395q0 59 12.5 88.5t65.5 29.5q23 0 32 -28.5t9 -61.5v-73.5t-1 -91t-1 -122v-165.5v-225.5t1 -298t1 -384v-485.5q0 -16 -22.5 -30.5t-47.5 -14.5q-18 0 -31.5 16.5t-13.5 57.5v650t-1 483t-2 364t-1 291z" />
<glyph unicode="}" horiz-adv-x="688" d="M33 -180q0 16 24.5 23t61.5 15.5t80 25t80.5 51t62.5 95t25 158.5q0 29 -3.5 51.5t-6.5 50t-5 65.5t-2 94q0 25 13.5 55.5t34 61t46 62t52.5 60.5q-55 12 -92 40t-59.5 63.5t-33 76.5t-10.5 80q0 72 5 139.5t5 106.5q0 74 -15 119t-37.5 70.5t-49.5 36t-48.5 15.5 t-36.5 8t-15 13q0 25 41 35t88 10q68 -12 105.5 -38.5t56 -62.5t22.5 -78t4 -85q0 -35 -3 -64.5t-6 -57.5t-6 -56.5t-3 -61.5q0 -96 39.5 -147t87 -79t87.5 -43t40 -36q0 -31 -29 -47t-62.5 -43t-61.5 -73t-28 -134q0 -31 2 -50t3 -34.5t3.5 -31t2.5 -41.5 q0 -221 -101.5 -339t-314.5 -118q-43 0 -43 39z" />
<glyph unicode="~" horiz-adv-x="1292" d="M68 541q0 31 39.5 71.5t99 77.5t131.5 62.5t133 25.5q78 0 135.5 -23.5t105.5 -53t95 -54t102 -24.5t89 19.5t60.5 44t49 44t55.5 19.5q18 0 33.5 -9.5t15.5 -38.5q0 -51 -34.5 -91t-84 -67.5t-100.5 -43t-84 -15.5q-80 0 -131 23.5t-97 53.5t-98.5 53.5t-138.5 23.5 q-37 0 -76.5 -23.5t-78.5 -53.5t-77 -53.5t-73 -23.5q-27 0 -49 14.5t-22 41.5z" />
<glyph unicode="&#xa1;" horiz-adv-x="671" d="M358 35v2q0 121 7.5 231.5t16.5 220t18.5 223t13.5 242.5q2 23 19.5 47.5t37.5 24.5q16 0 29.5 -15.5t15.5 -54.5q6 -223 4 -451.5t10 -455.5q0 -29 -23.5 -40t-55.5 -11q-35 0 -63 10t-30 27zM401 1352q0 45 35 72.5t68 27.5q39 0 55 -29.5t16 -70.5q-6 -31 -18 -54 q-10 -20 -29.5 -35.5t-54.5 -15.5t-53.5 32t-18.5 73z" />
<glyph unicode="&#xa2;" horiz-adv-x="1216" d="M39 254q0 41 8 81t20.5 75.5t26 64.5t23.5 47q27 49 54.5 87t58 73t66.5 68.5t79 70.5q29 14 61.5 45t32.5 78q0 51 2 120t10 132.5t24.5 107.5t45.5 46q27 0 41 -13.5t21.5 -34t8.5 -43t1 -42.5q-2 -33 -5 -60q-2 -23 -3 -45t-1 -33q0 -43 21.5 -53t52.5 -10 q35 0 60.5 8t50 17.5t50 17.5t60.5 8q18 0 35 -21.5t29 -51t19 -59.5t7 -46q0 -57 -39.5 -91t-95.5 -34q-23 0 -34 14.5t-24 32.5t-34.5 32.5t-64.5 14.5q-33 0 -86.5 -32.5t-115 -85t-122.5 -118t-110.5 -129t-81 -119t-31.5 -89.5q0 -51 19.5 -80t48 -43.5t64.5 -17.5 t70 -3q66 0 145 20.5t158.5 49.5t154.5 62.5t130 60.5q41 20 56.5 31.5t27.5 11.5q16 0 21.5 -14.5t5.5 -34.5q0 -25 -16.5 -44.5t-39 -35t-48 -27.5t-46.5 -22q-78 -45 -151.5 -75t-145.5 -52q-12 -4 -23 -19.5t-11 -46.5q0 -16 2 -48t3 -66.5t3 -65.5t2 -45 q0 -49 -19.5 -91t-60.5 -42q-29 0 -37 40t-8 93q0 35 2 70.5t6 66.5q0 43 -22.5 76t-71.5 33q-43 -6 -74 -7q-51 0 -99 15.5t-85 46.5t-59.5 74t-22.5 98z" />
<glyph unicode="&#xa3;" horiz-adv-x="1388" d="M29 74q0 45 20.5 75.5t53 51t73.5 30t82 9.5q47 0 87 -12.5t67 -12.5q12 0 24.5 10.5t16.5 18.5q16 23 27.5 57.5t11.5 85.5q0 72 -3.5 124t-8.5 92t-10 72t-9 66q-4 31 -14.5 48.5t-63.5 25.5q-2 0 -14.5 1t-28.5 2t-34.5 2t-31.5 1q-27 0 -43 18.5t-16 39.5q0 23 6 35 t47 12q33 0 75 4t85 4q37 0 44 21.5t11 66.5q0 68 34 150.5t90.5 155.5t128 122t149.5 49q25 0 56.5 -5t60 -15.5t48 -26.5t19.5 -41q0 -35 -25.5 -54.5t-74.5 -19.5q-25 0 -40.5 5.5t-29.5 11.5t-31.5 11t-48.5 5q-61 0 -99 -30.5t-59.5 -80t-28.5 -112t-7 -129.5 q0 -53 21.5 -68.5t86.5 -15.5q31 0 55.5 1t46 3t42 3t47.5 1q33 0 67.5 -7t34.5 -34q0 -33 -20.5 -52.5t-55.5 -19.5h-51t-64.5 -1t-66.5 -2t-55 -3q-25 -2 -40.5 -2t-24.5 -7t-13 -24.5t-4 -50.5q0 -51 -2 -83.5t-4 -63.5t-6.5 -69t-8.5 -95q-6 -63 -18 -102t-24.5 -62.5 t-21.5 -39t-9 -29.5q0 -8 13 -12.5t31.5 -7.5t40 -5t40.5 -4q68 -12 131 -21q53 -8 106 -14t82 -6q47 0 65.5 11t24.5 24.5t10 25t25 11.5q16 0 25.5 -14.5t9.5 -28.5q0 -29 -7.5 -62t-21.5 -60.5t-36.5 -45t-53.5 -17.5q-102 0 -161.5 17.5t-110.5 33.5q-41 12 -76 24.5 t-69 23t-69.5 17.5t-74.5 7q-23 0 -55.5 -14.5t-73.5 -31.5t-86 -31.5t-90 -14.5q-20 0 -43 3t-41.5 11.5t-30.5 22.5t-12 37zM129 102q0 -14 14.5 -22t30.5 -8q39 0 74 7t61.5 18.5t42 22.5t15.5 19q0 10 -34 20.5t-65 12.5l-57 2q-43 0 -62.5 -20.5t-19.5 -51.5z" />
<glyph unicode="&#xa4;" horiz-adv-x="1153" d="M94 1147q0 35 37 53.5t70 18.5q27 0 37 -11.5t20 -25.5h-2q12 -27 35.5 -49.5t50.5 -22.5q16 0 31.5 7t38.5 24q18 18 47.5 33.5t64.5 25.5t72 16.5t68 6.5t64.5 -6.5t64.5 -20.5v2q10 -8 32 -8q20 0 29.5 9t17.5 26l13 14h-2q16 25 36.5 51.5t45.5 26.5q31 0 60.5 -18.5 t33.5 -53.5q-4 -51 -35 -102t-66 -99q39 -57 56.5 -111t17.5 -110q0 -78 -25.5 -152.5t-62.5 -133.5v2q-16 -16 -27.5 -33t-11.5 -39q0 -31 17.5 -59.5t33.5 -53.5l15 -18q14 -23 25.5 -41.5t11.5 -34.5q0 -14 -13.5 -27.5t-32 -22.5t-39 -14.5t-36.5 -5.5q-31 0 -45.5 15.5 t-14.5 36.5q0 4 -7 23.5t-20.5 41t-34 37.5t-44.5 16q-14 0 -32.5 -5t-33.5 -11h-2q-29 -23 -71.5 -27t-71.5 -4q-10 0 -31.5 10.5t-77.5 10.5q-35 0 -60.5 -22.5t-47 -49t-41 -49.5t-43.5 -23q-16 0 -31.5 12.5t-28 31t-20.5 38t-8 33.5q0 6 12 19.5t27.5 31t29 37 t13.5 41.5q0 18 -3 29.5t-7 21.5l-7 15v-2l-6 20q-10 23 -12 44.5t-2 43.5q0 41 5.5 80t23.5 78q27 70 36 96.5t9 42.5q0 27 -22.5 53.5t-50.5 55t-50.5 62.5t-22.5 73zM317 694q0 -68 26 -113.5t68 -74.5t95 -42t110 -15h2q66 4 121.5 41.5t94 95t60 125t21.5 129.5 q0 55 -19 98t-53 72.5t-79 45t-96 15.5q-29 0 -61 -5t-60 -28l-82 -63q-14 -23 -17.5 -36t-9.5 -21q-27 -35 -49 -48.5t-37.5 -30t-25 -47t-9.5 -98.5z" />
<glyph unicode="&#xa5;" horiz-adv-x="1241" d="M29 1413q0 29 31.5 62.5t97.5 33.5q20 0 57 -51t83 -128t96 -167t95.5 -166.5t80 -127t53.5 -50.5q18 0 55 40t83 100.5t94 134t92 140t77 119t45 72.5q16 27 51 55.5t70 28.5q23 0 36 -20.5t13 -42.5q0 -27 -11 -49.5t-28 -42.5l-510 -678q-4 -12 -4 -28.5t-4 -24.5 q82 0 131 1t68 1q14 0 28.5 -4.5t14.5 -22.5q0 -10 -7.5 -24.5t-25.5 -14.5q-20 0 -50 -1t-59.5 -1t-57.5 -1t-42 -1v-61.5t2 -61.5q57 0 100 2t97 4q16 0 33.5 -5t17.5 -27q0 -25 -19.5 -33t-66.5 -8h-30.5h-44t-48.5 -1.5t-41 -1.5q0 -49 8 -74.5t18.5 -43t18.5 -29.5 t8 -33q0 -33 -5 -68.5t-18.5 -66.5t-35 -50.5t-53.5 -19.5q-37 0 -72 15.5t-35 52.5q2 29 5 60.5t3 66.5v43v55.5t-1 53t-3 36.5q-12 0 -37.5 -1t-57.5 -1t-63.5 -1t-54.5 -1q-18 0 -27.5 6t-9.5 29q0 16 16.5 24.5t39.5 8.5q68 0 196 6v127q-18 0 -48 -1t-61.5 -1h-60 h-41.5q-23 0 -35 5t-12 22q0 18 16.5 27t43.5 12h202l-6 57q-31 59 -79 132t-102 150.5t-109.5 152.5t-100.5 137.5t-72.5 105.5t-27.5 57z" />
<glyph unicode="&#xa6;" horiz-adv-x="323" d="M92 -395v829q0 20 21.5 31.5t44.5 11.5q20 0 36.5 -14t16.5 -49v-836q0 -16 -23.5 -31.5t-50.5 -15.5q-18 0 -31.5 16.5t-13.5 57.5zM104 649v807q0 25 15.5 35t38.5 10q20 0 35.5 -2t15.5 -6q0 -123 1 -207t2 -145.5t1 -106.5v-88q0 -33 -1 -89t-3 -171 q-2 -29 -18.5 -40t-38.5 -11q-18 0 -33 4t-15 10z" />
<glyph unicode="&#xa7;" horiz-adv-x="1038" d="M39 2q0 27 15.5 44t39.5 17q27 0 51.5 -13t40.5 -42q12 -23 27.5 -45t40.5 -42.5t61.5 -33t90.5 -12.5q31 0 61.5 14.5t56 39t42 55t16.5 61.5q0 18 -4.5 37.5t-11.5 36t-19 27t-31 10.5q-41 0 -56.5 8t-25.5 26q-12 23 -38.5 31t-49.5 19q-55 18 -110.5 38.5t-98.5 51 t-70.5 75t-27.5 109.5q0 25 15.5 57.5t38 65.5t49 61.5t48.5 44.5q-53 37 -88.5 97.5t-35.5 113.5q0 57 26.5 118t75.5 111t119.5 81.5t161.5 31.5q51 0 107 -8t103.5 -28.5t79 -56.5t31.5 -91q0 -27 -25.5 -46t-56.5 -19q-27 0 -44 23.5t-43 51t-69 51t-120 23.5 q-45 0 -84 -18.5t-67 -49t-43 -72.5t-15 -89q0 -35 19.5 -71t45.5 -36q29 0 42.5 5t29.5 5t19 -7t5.5 -15t5.5 -17.5t19 -11.5q14 -2 50 -10t83 -23.5t97.5 -39t92.5 -57.5t69.5 -80t27.5 -103q0 -39 -18.5 -75t-44 -65.5t-53 -51t-48.5 -33.5q74 -70 95.5 -115t21.5 -94 t-32 -96.5t-84 -84t-119.5 -59t-139.5 -22.5q-41 0 -100.5 8t-114.5 29.5t-94 59.5t-39 95zM205 567q0 -41 25.5 -73.5t65.5 -58t88 -47t91 -38.5q18 -6 46 -18.5t44 -18.5q51 35 65.5 80t14.5 80q-6 27 -18 53q-12 23 -34 47.5t-63 47.5q-47 25 -120.5 45t-135.5 43 q-14 -16 -41.5 -50t-27.5 -92z" />
<glyph unicode="&#xa8;" horiz-adv-x="0" d="M-516 1284q0 35 14.5 54.5t32.5 29.5q20 12 47 16q39 -4 66.5 -30.5t27.5 -61.5q0 -43 -28.5 -71.5t-67.5 -28.5q-33 0 -62.5 28.5t-29.5 63.5zM-207 1284q0 35 14.5 54.5t32.5 29.5q20 12 47 16q39 -4 67 -30.5t28 -61.5q0 -43 -29 -71.5t-68 -28.5q-33 0 -62.5 28.5 t-29.5 63.5z" />
<glyph unicode="&#xa9;" horiz-adv-x="1636" d="M55 569q0 152 60.5 287t165 236.5t246 161t300.5 59.5q43 0 115 -8.5t156 -33t170 -68.5t155.5 -116.5t113.5 -177t44 -247.5q0 -195 -58.5 -346.5t-164 -257t-249.5 -161t-316 -55.5q-160 0 -295.5 45t-233.5 135.5t-153.5 227.5t-55.5 319zM180 553q0 -139 44 -252 t124 -192.5t190.5 -122.5t245.5 -43q203 0 332 65.5t202 166.5t100.5 221t27.5 229q0 129 -42 235.5t-122 183t-197.5 118.5t-267.5 42t-268.5 -57t-200.5 -149.5t-125 -209t-43 -235.5zM494 547q0 88 27.5 161.5t72.5 126t103.5 81t119.5 28.5q63 0 108.5 -15.5t74 -37 t43 -45t14.5 -41.5q0 -16 -15.5 -36.5t-37.5 -20.5q-29 0 -45.5 14t-34 31.5t-42 32t-67.5 14.5q-61 0 -102 -27t-64.5 -66.5t-33 -88t-9.5 -91.5q0 -113 61.5 -173t172.5 -60q37 0 63.5 12t51 27.5t49 29t53.5 13.5q6 0 18 -7.5t12 -23.5q0 -27 -26.5 -52t-61.5 -50 q-29 -20 -70.5 -31.5t-117.5 -11.5q-61 0 -118.5 20.5t-101.5 60t-70.5 97t-26.5 129.5z" />
<glyph unicode="&#xaa;" horiz-adv-x="1083" d="M94 242q0 23 8.5 49t18.5 28q203 23 423 32t460 9q27 0 49 -10t22 -37q0 -25 -12 -51t-31.5 -50t-43 -38t-44.5 -14q-27 0 -43 12t-36.5 26.5t-51.5 27t-86 12.5q-94 0 -192.5 -6.5t-208.5 -16.5l-201 -18q-31 6 -31 45zM182 1145q0 47 55.5 86t131.5 80l73 45 q39 23 84 39t88 26.5t80 15.5t60 5q59 0 108 -40t49 -114q0 -14 -1 -49t-3 -78t-4 -88t-4 -80q-2 -29 -2 -47v-20q0 -18 2 -22.5t12 -4.5t10.5 1t4.5 3l8 4q6 0 11 -15t5 -20q0 -4 -2 -13t-6 -19l-14 -54q-4 -12 -12.5 -21t-18.5 -17q-4 -4 -7 -9.5t-3 -19.5q0 -27 -1 -56.5 t-9 -74.5q-10 -29 -39 -41t-56 -12q-33 0 -43 21.5t-14 43.5q-4 20 -9 33.5t-24 13.5q-16 0 -63 -29v3q-27 -14 -60.5 -32t-71.5 -33t-79 -25.5t-80 -10.5q-29 0 -54.5 6t-46 21.5t-31.5 43t-11 71.5q0 59 28.5 111t75.5 99.5t105.5 87t118 71.5t112.5 55.5t90 37.5 q16 4 19.5 23.5t3.5 44.5q0 53 -29 85t-70 32q-23 0 -52.5 -10.5t-59 -24.5t-55 -32.5t-42.5 -33.5q-10 -10 -19 -23.5t-20 -25.5q-29 -37 -61.5 -67.5t-77.5 -30.5q-29 0 -54.5 24.5t-25.5 59.5zM354 692q0 -16 11.5 -22t23.5 -6q20 0 67.5 21.5t97.5 49t91 51t49 29.5 q16 10 25.5 42t9.5 58q0 16 -5 28.5t-17 12.5q-4 0 -24.5 -8t-49.5 -22.5t-63.5 -34.5t-67.5 -43q-14 -10 -39 -27.5t-49.5 -39t-42 -45t-17.5 -44.5z" />
<glyph unicode="&#xab;" horiz-adv-x="1099" d="M49 584q0 14 6 19t17 15l358 343q10 0 29.5 -16.5t19.5 -33.5q0 -8 -22.5 -33.5t-56 -59.5t-73.5 -71.5t-74 -70.5t-56.5 -57.5t-22.5 -28.5q0 -8 23.5 -33t57.5 -56.5t75 -68.5t74.5 -69.5t57 -58t23.5 -36.5q0 -23 -17 -38t-34 -15q-8 0 -31.5 19.5t-56.5 50t-73 68.5 t-77.5 75t-70.5 68.5t-55 50.5q-6 4 -13.5 15t-7.5 22zM473 584q0 14 6 19t17 15l358 343q10 0 29.5 -16.5t19.5 -33.5q0 -8 -22.5 -33.5t-56 -59.5t-73.5 -71.5t-74 -70.5t-56.5 -57.5t-22.5 -28.5q0 -8 23.5 -33t57.5 -56.5t75 -68.5t74.5 -69.5t57 -58t23.5 -36.5 q0 -23 -17.5 -38t-33.5 -15q-8 0 -31.5 19.5t-56.5 50t-73 68.5t-77.5 75t-70.5 68.5t-55 50.5q-6 4 -13.5 15t-7.5 22z" />
<glyph unicode="&#xac;" horiz-adv-x="1122" d="M125 594q0 39 12.5 58.5t30.5 27.5t37.5 7t34.5 -1q41 0 78.5 -8t97.5 -8q23 0 88 3t188 3q59 0 125 8t105 8q23 0 36 -9t13 -36q0 -29 -3 -49t-6.5 -40.5t-5.5 -45.5t-2 -59q0 -18 1 -46t1 -59t1 -62.5t1 -58.5q0 -35 -29.5 -53t-64.5 -18q-33 0 -47 18.5t-19 47t-4 62 t1 62.5v63.5t-6.5 68.5t-21.5 54.5t-46 22.5q-8 0 -43 -2t-82 -4t-101.5 -6t-103.5 -6t-85 -4.5t-48 -2.5q-27 0 -51.5 -1t-43 3.5t-28.5 18.5t-10 43z" />
<glyph unicode="&#xad;" horiz-adv-x="712" d="M90 528q0 14 16.5 18.5t45.5 8.5q92 10 187 13t187 3q29 0 58.5 -10t29.5 -43q0 -31 -13 -59.5t-40 -28.5q-10 0 -18 6t-15.5 13.5t-16.5 13.5t-24 6q-78 0 -175 -6t-185 -6q-8 0 -14.5 9t-11.5 21.5t-8 24.5t-3 16z" />
<glyph unicode="&#xae;" horiz-adv-x="1204" d="M39 1079q0 102 43 193.5t118.5 160t176 108.5t217.5 40q31 0 82 -5t111.5 -21.5t122 -46t111.5 -79t82 -120t32 -168.5q0 -131 -42 -233.5t-118 -173t-180.5 -107.5t-227.5 -37q-115 0 -211 30.5t-166.5 92t-110.5 152.5t-40 214zM154 1071q0 -86 30.5 -155.5t84 -120 t128 -77t164.5 -26.5q139 0 226 41t136.5 104.5t68 138t18.5 142.5q0 78 -29 143.5t-82 112.5t-133 74t-180 27q-102 0 -182 -35t-135.5 -92.5t-85 -130t-29.5 -146.5zM389 1284q0 23 20.5 38t49.5 17l102 15q51 10 74 10q14 0 34.5 -2t39 -11.5t32 -28.5t13.5 -56 q0 -20 -13.5 -42t-32 -43.5t-40 -40t-37.5 -32.5l-17 -14l207 -162q0 -2 2 -4q4 -4 4 -10q0 -23 -16 -41.5t-43 -18.5q-25 0 -55.5 25.5t-59.5 56.5q-27 27 -62.5 55.5t-60.5 28.5q-6 0 -6 -2l1 -5t2 -18.5t2 -40t1 -71.5q0 -25 -9 -35t-21 -10q-6 0 -19.5 2t-27 7t-23.5 13 t-10 23q0 14 7 24.5t7 22.5q0 35 -1 67.5t-11 57.5q-12 8 -12 33q0 16 10 30q4 8 10 13v30q0 25 -4 45q0 29 -12 35q-8 4 -16.5 13.5t-8.5 25.5zM512 1222.5q0 -18.5 2 -34.5l2 -33q0 -4 3 -9t13 -5q14 0 35 17.5t41 35.5q2 4 6 10t13 15q20 14 24 23t4 18q0 14 -12 19 t-29 5q-12 0 -29.5 -2t-52.5 -12q-6 -2 -13 -8.5t-7 -10.5v-28.5z" />
<glyph unicode="&#xaf;" horiz-adv-x="0" d="M-561 1296q0 12 5 27.5t13 29t16.5 23.5t14.5 13q29 4 58.5 4h60.5h82h82t88 -1t79.5 -1h59.5q12 0 12 -27q0 -16 -6 -37.5t-10 -30.5q-6 -10 -10.5 -14t-16.5 -4q-129 0 -225 -1t-150 -1h-78.5t-44 1t-18.5 2t-4 3q-2 -2 -4 0q-4 4 -4 14z" />
<glyph unicode="&#xb0;" horiz-adv-x="505" d="M70 1343q0 35 15 66t40 54.5t56.5 36.5t66.5 13t68.5 -9t59 -29.5t41 -53.5t15.5 -78q0 -43 -18.5 -72.5t-47 -49t-64.5 -28.5t-71 -9q-63 0 -112 38t-49 121zM139 1343q0 -45 30 -75.5t75 -30.5q55 0 89 27.5t34 89.5q0 29 -12.5 48t-30 31.5t-38 17.5t-36.5 5 q-59 0 -85 -35t-26 -78z" />
<glyph unicode="&#xb1;" horiz-adv-x="1122" d="M160 760q0 27 6 45.5t22 20.5q23 4 45.5 5t40.5 1q45 0 85 -3t102 -3q23 0 43 9t20 34q0 18 -2 44.5t-4 54t-4 52.5t-2 41q0 25 3 51.5t9 61.5q4 16 20.5 24t39.5 8q27 0 49 -11t22 -36q0 -33 -2 -60.5t-2 -76.5q0 -20 1 -43.5t1 -46.5t1 -40t1 -23q0 -23 8.5 -33 t43.5 -10q66 0 142.5 6t135.5 6q16 0 25.5 -6t9.5 -25q0 -33 -10.5 -59.5t-38.5 -26.5q-33 0 -53.5 2t-67.5 2q-45 0 -85 -2t-69 -6q-18 -4 -26 -15.5t-11 -39.5q-6 -78 -6 -125q0 -41 2 -82t2 -105q0 -29 -23.5 -48t-53.5 -19q-16 0 -41 20.5t-27 36.5q-4 37 -5 59.5 t-1 61.5q0 59 1 105.5t1 86.5q0 23 -8 38.5t-49 15.5q-18 0 -57.5 -1t-80.5 -1h-98q-29 0 -42 8t-13 47zM217 107q2 2 4 6q4 8 12 8q45 0 99.5 2t125.5 2q109 0 220.5 -2t193.5 -4h25.5t29 -3t23.5 -12.5t10 -29.5q0 -29 -11 -57.5t-38 -28.5q-12 0 -19.5 6t-13.5 13 t-16 13.5t-29 6.5h-36.5t-60.5 1t-69 1h-59q-49 0 -101.5 1t-99.5 1h-87h-66q-16 0 -26.5 25.5t-10.5 50.5z" />
<glyph unicode="&#xb2;" horiz-adv-x="675" d="M25 780q0 16 27.5 43t58.5 51l16 15q25 18 78 62t107.5 101.5t94 121t39.5 120.5q0 39 -29.5 59.5t-72.5 20.5q-35 0 -65.5 -12t-53 -29.5t-37 -36t-16.5 -30.5q-16 -66 -59 -66q-16 0 -34 9.5t-18 41.5q0 41 33 82t80 73t98.5 52.5t85.5 20.5q92 0 150.5 -47.5 t58.5 -126.5q0 -55 -28.5 -111.5t-71.5 -111t-93 -101.5t-93 -82q-4 -8 -5 -12q0 -12 7 -15q2 -4 6 -4q12 0 28.5 4.5t36.5 4.5q27 0 64 -4.5t72.5 -10.5t67.5 -12t50 -12q16 -4 20.5 -16.5t4.5 -22.5q0 -29 -15.5 -48.5t-39.5 -19.5q-12 0 -21 4q-41 14 -98.5 26.5 t-126.5 12.5q-49 0 -98.5 -11t-102.5 -26q-23 -6 -43 -6q-27 0 -45 14.5t-18 34.5z" />
<glyph unicode="&#xb3;" horiz-adv-x="645" d="M37 807q0 20 13 36.5t34 16.5q6 0 21.5 -4t23.5 -8q16 -6 35.5 -10t46.5 -4q53 0 104.5 14t91 36.5t64.5 53.5t25 61q0 20 -13.5 34t-34 22t-45 10t-47.5 2q-25 0 -54.5 -5t-51.5 -9q-27 -6 -54.5 -13.5t-58.5 -7.5q-16 0 -22 16.5t-6 32.5q0 33 16 43.5t43 16.5l35 8 q33 12 72.5 31.5t74.5 44t59.5 54.5t24.5 60q0 14 -11 24.5t-26 10.5q-68 0 -129 -25.5t-102 -58.5q-29 -23 -36 -29t-28 -6q-18 0 -28.5 15.5t-10.5 40.5q0 6 4.5 18t14.5 23q23 23 60.5 46t82.5 43.5t94.5 33t94.5 12.5q55 0 93 -34t38 -87q0 -55 -40 -111.5t-83 -97.5 q31 -6 63.5 -17.5t60 -27.5t45 -38.5t17.5 -49.5q0 -63 -42 -116.5t-106.5 -92.5t-141 -60.5t-146.5 -21.5q-59 0 -97 15.5t-38 58.5z" />
<glyph unicode="&#xb4;" horiz-adv-x="0" d="M-248 1225q6 27 21.5 66.5t36 80.5t43 75t45.5 48h16q27 -4 53.5 -25.5t26.5 -60.5q-6 -29 -37 -64.5t-67.5 -66.5t-70.5 -52.5t-46 -21.5q-6 2 -13.5 7.5t-7.5 13.5z" />
<glyph unicode="&#xb5;" horiz-adv-x="1173" d="M100 754q0 80 5.5 143t21.5 92t59 51.5t82 22.5q12 0 18.5 -13.5t9.5 -33t3 -39v-31.5q0 -59 -4 -113.5t-9 -121t-9.5 -155.5t-4.5 -218q0 -111 58.5 -161t152.5 -50q66 0 136.5 38t130 119t98.5 206.5t39 300.5q0 10 -5 32.5t-10.5 47t-10.5 46t-5 29.5q0 20 12.5 43 t31 41.5t42 30.5t45.5 12q20 0 32.5 -19.5t18.5 -48t7.5 -61.5t1.5 -59q0 -47 -3.5 -88t-7.5 -81t-7 -81t-3 -90q0 -160 10.5 -254t22.5 -146.5t22.5 -74t10.5 -35.5q0 -10 -11.5 -19.5t-30 -16.5t-40 -11t-41.5 -4q-23 0 -36 22.5t-22.5 54t-14.5 67.5t-11 62 q0 20 -11.5 37t-35.5 17q-25 0 -44.5 -21.5t-50.5 -52.5q-27 -29 -60.5 -59.5t-80.5 -58t-109.5 -45t-148.5 -17.5q-8 0 -21.5 3t-28.5 8t-29.5 11t-22.5 15v-35q0 -123 9 -197t19 -123q10 -27 15.5 -60.5t5.5 -49.5q0 -4 -3 -17.5t-9.5 -28t-15.5 -24.5t-23 -10 q-37 0 -62.5 16.5t-41 38t-21.5 43t-6 33.5q0 33 2 81t6 103q2 27 2 53.5v55.5q0 115 -5 235.5t-5 229.5v47q-2 72 -5.5 159t-3.5 177z" />
<glyph unicode="&#xb6;" horiz-adv-x="1228" d="M31 696q0 98 45 174t116.5 127.5t159.5 77t172 25.5q37 0 58.5 15t38 33.5t36 34t52.5 15.5q25 0 38 -10t24 -23.5t26.5 -24t44.5 -10.5q20 0 40.5 3.5t37 13.5t26.5 29.5t10 52.5q0 16 13.5 41.5t48.5 25.5q18 0 37.5 -11t19.5 -21q0 -27 -3 -81.5t-7 -127.5 q-4 -66 -7 -141.5t-7 -155.5t-6.5 -160t-2.5 -154q0 -29 1 -77t6 -95q4 -68 6 -138.5t2 -129.5q0 -12 -19.5 -19.5t-44.5 -7.5q-35 0 -47 15.5t-12 50.5q0 47 3 110.5t3 108.5q0 47 -31.5 75t-66.5 28q-45 0 -67.5 -28t-22.5 -73q0 -72 -1 -125t-12 -112q-2 -14 -10 -36 t-35 -22q-39 0 -56 17.5t-17 64.5q0 61 7 120.5t7 96.5q0 43 -34 55.5t-75 12.5q-92 0 -181 13t-158.5 53t-112.5 110t-43 184zM139 702q0 -94 40 -147t98.5 -79.5t122 -34t112.5 -7.5q61 0 91 23.5t32 58.5q2 33 4 76t4 80q2 43 4 88q0 72 1 106.5t1 51.5q0 14 -1 21t-5 17 q-10 35 -44 48.5t-75 13.5q-72 0 -141.5 -21.5t-123.5 -61.5t-87 -98.5t-33 -134.5zM758 535q0 -49 28.5 -64.5t53.5 -15.5q35 0 59.5 19t28.5 42q2 115 6 213q0 41 1 82t2 75t2 58.5t1 34.5q0 37 -28.5 62.5t-63.5 25.5t-62.5 -28.5t-27.5 -61.5v-442z" />
<glyph unicode="&#xb7;" horiz-adv-x="368" d="M92 649q0 20 9.5 41t23.5 37t31.5 26.5t33.5 10.5q43 -2 71 -25.5t28 -74.5q0 -37 -30 -69t-64 -32q-33 0 -68 25.5t-35 60.5z" />
<glyph unicode="&#xb8;" horiz-adv-x="0" d="M-367 -375q0 18 10.5 37t28.5 19q6 0 17.5 -3.5t31.5 -3.5q12 0 37 7.5t48.5 21.5t41 32.5t17.5 43.5q0 27 -35 26q-29 0 -45 -11t-53 -11q-39 0 -62.5 14.5t-23.5 38.5q0 70 55 115q18 16 35 29q14 10 25.5 20t15.5 12q12 4 16 4q14 0 26.5 -5t12.5 -9q0 -12 -10 -23.5 t-20.5 -22.5t-19.5 -22.5t-9 -25.5q0 -29 43 -29q31 0 64.5 8.5t62.5 8.5t41 -21.5t12 -44.5q0 -41 -26.5 -86t-71.5 -84t-102.5 -63.5t-119.5 -24.5q-20 0 -31.5 16.5t-11.5 36.5z" />
<glyph unicode="&#xb9;" horiz-adv-x="489" d="M39 1337q0 10 18 21q8 6 19 8q31 16 47 23.5t24 11.5q14 8 34 22.5t41.5 27.5t44 22.5t44.5 9.5q29 0 45.5 -18.5t16.5 -49.5q0 -16 -8.5 -31.5t-12.5 -31.5q-4 -31 -6 -67t-4 -70.5t-2 -67.5v-55v-205q0 -8 5 -17.5t5 -13.5q0 -55 -26.5 -90t-69.5 -35q-25 0 -35 21.5 t-10 54.5v29.5t2 31.5q8 57 11 116.5t3 129.5q0 18 -2 43t-2 66q-2 12 -2 31.5v29.5q0 4 -7 10t-15 6q-10 0 -19.5 -5t-19.5 -9q-10 -6 -23 -12q-23 -14 -43 -14q-16 0 -34.5 26t-18.5 51z" />
<glyph unicode="&#xba;" horiz-adv-x="1153" d="M94 242q0 23 8.5 49t18.5 28q203 23 423 32t460 9q27 0 49 -10t22 -37q0 -25 -12 -51t-31.5 -50t-43 -38t-44.5 -14q-27 0 -43 12t-36.5 26.5t-51.5 27t-86 12.5q-94 0 -192.5 -6.5t-208.5 -16.5l-201 -18q-31 6 -31 45zM164 809q0 63 10 98t21 60q14 29 20 67 q23 100 70 182t133 130v-3q49 27 107.5 45.5t119.5 18.5q92 0 159.5 -37t110.5 -96q20 -29 37 -69t29 -83t18.5 -85t6.5 -76q0 -68 -15.5 -114t-42 -80t-60.5 -58.5t-73 -49.5l-51 -32q-4 -4 -13.5 -9.5t-15.5 -9.5q-23 -18 -45 -32.5t-51 -25.5t-66.5 -17.5t-93.5 -6.5 q-27 0 -80 12.5t-105 44t-91 87t-39 139.5zM322 842q0 -37 19 -68t51 -54.5t74 -36.5t87 -13q47 0 68.5 8t40.5 20q4 2 8 5.5t20 11.5q37 20 71 40.5t59.5 51.5t42 73t16.5 105q0 57 -24 105.5t-62.5 82t-89 53t-101.5 19.5q-39 0 -64.5 -7t-42 -20.5t-26.5 -31t-20 -37.5 q-10 -23 -22.5 -45.5t-35.5 -40.5q-20 -18 -26.5 -34.5t-10.5 -31.5q-2 -8 -2 -14t-4 -16l-8 -29q-8 -25 -13 -48.5t-5 -47.5z" />
<glyph unicode="&#xbb;" horiz-adv-x="1099" d="M119 268q0 10 23.5 36t57 58.5t74.5 69.5t75 68.5t57.5 56.5t23.5 33q0 4 -22.5 28.5t-56.5 57.5t-73.5 70.5t-73.5 71.5t-56.5 59.5t-22.5 33.5q0 16 19.5 33t29.5 17l358 -343q10 -10 16.5 -15t6.5 -19q0 -10 -7 -21.5t-13 -15.5q-23 -18 -56 -50t-70.5 -69t-77.5 -75 t-73 -68.5t-56.5 -50t-31.5 -19.5q-16 0 -33.5 15.5t-17.5 37.5zM543 268q0 10 23.5 36t57 58.5t74.5 69.5t75 68.5t57.5 56.5t23.5 33q0 4 -22.5 28.5t-56.5 57.5t-73.5 70.5t-73.5 71.5t-56.5 59.5t-22.5 33.5q0 16 19.5 33t29.5 17l358 -343q10 -10 16.5 -15t6.5 -19 q0 -10 -7 -21.5t-14 -15.5q-23 -18 -55.5 -50t-70 -69t-77.5 -75t-73 -68.5t-56.5 -50t-31.5 -19.5q-16 0 -33.5 15.5t-17.5 37.5z" />
<glyph unicode="&#xbc;" horiz-adv-x="1470" d="M131 1294q0 14 10.5 25.5t24.5 21.5q17 11 37 19q31 20 47 31.5t47 33.5q14 10 25.5 24.5t21.5 28t24.5 22.5t34.5 9q68 0 68 -77q0 -33 -6 -52.5t-12.5 -45t-12.5 -67.5t-6 -120q0 -68 2 -109t4 -73.5t4 -66.5t2 -83q0 -31 -17 -61.5t-77 -30.5q-27 0 -45 29.5t-18 78.5 t9 146.5t9 228.5q0 33 -6 61.5t-27 28.5q-18 0 -28 -9t-19.5 -19.5t-23 -19.5t-33.5 -9q-29 0 -34 15.5t-5 39.5zM213 -72q0 16 31.5 81t84 161t121 216t143.5 249t149.5 258t141 243.5t119 206t78.5 144.5q10 18 19.5 27.5t32.5 9.5q27 0 30.5 -18.5t3.5 -32.5 q0 -16 -37.5 -91t-101 -189t-145.5 -255t-170 -292.5t-176 -302.5t-164 -280q-10 -16 -22.5 -43.5t-27 -55t-29.5 -47t-28 -19.5q-29 0 -41 10t-12 20zM752 246q0 25 4 46t24 44q31 35 68 77t75 85t75.5 85t70.5 76q12 12 26.5 31t32 36t36 28.5t38.5 11.5q68 0 68 -86 q0 -33 -2 -47.5t-4 -33.5t-4.5 -56t-2.5 -115q0 -35 -2 -60.5t-2 -43.5q0 -10 5.5 -19.5t19.5 -9.5q4 0 23.5 2t25.5 2q10 0 19.5 -5t9.5 -20q0 -18 -2 -34.5t-4 -30.5q0 -8 -15.5 -13.5t-32 -10.5t-31 -10t-14.5 -13q2 -20 4.5 -44t2.5 -52q0 -31 -14.5 -57.5t-73.5 -26.5 q-27 0 -45.5 23.5t-18.5 45.5v30.5t2 37.5q0 20 2 43q0 22 -20 22q-16 0 -65.5 -3t-108.5 -3q-53 0 -77 2t-50 2q-25 0 -34 17.5t-9 46.5zM893 301q0 -10 7 -14t38 -4q35 0 63 2q25 2 49.5 3t34.5 1q25 0 27 13.5t8 23.5q2 25 3 36l2 22t1 27.5v53.5q0 33 -4 51.5t-24 18.5 q-8 0 -25.5 -14.5t-39 -36t-45 -50t-44.5 -55.5q-16 -23 -33.5 -38t-17.5 -40z" />
<glyph unicode="&#xbd;" horiz-adv-x="1470" d="M131 1294q0 14 10.5 25.5t24.5 21.5q17 11 37 19q31 20 47 31.5t47 33.5q14 10 25.5 24.5t21.5 28t24.5 22.5t34.5 9q68 0 68 -77q0 -33 -6 -52.5t-12.5 -45t-12.5 -67.5t-6 -120q0 -68 2 -109t4 -73.5t4 -66.5t2 -83q0 -31 -17 -61.5t-77 -30.5q-27 0 -45 29.5t-18 78.5 t9 146.5t9 228.5q0 33 -6 61.5t-27 28.5q-18 0 -28 -9t-19.5 -19.5t-23 -19.5t-33.5 -9q-29 0 -34 15.5t-5 39.5zM213 -72q0 16 31.5 81t84 161t121 216t143.5 249t149.5 258t141 243.5t119 206t78.5 144.5q10 18 19.5 27.5t32.5 9.5q27 0 30.5 -18.5t3.5 -32.5 q0 -16 -37.5 -91t-101 -189t-145.5 -255t-170 -292.5t-176 -302.5t-164 -280q-10 -16 -22.5 -43.5t-27 -55t-29.5 -47t-28 -19.5q-29 0 -41 10t-12 20zM836 55q0 10 7 22.5t48 47.5q29 25 84 68t110.5 98t97.5 118.5t42 129.5q0 18 -2 37.5t-10.5 36t-23.5 26.5t-42 10 q-43 0 -82 -28.5t-59 -69.5q-6 -14 -15.5 -31.5t-22 -32t-28.5 -24.5t-39 -10q-29 0 -37 18t-8 37q0 35 24.5 76t64.5 76.5t93.5 59t108.5 23.5q63 0 104 -21.5t63.5 -53t31 -68.5t8.5 -70q0 -88 -45 -159.5t-123 -124.5l-16 -12q-17 -11 -38.5 -28.5t-45 -40t-39.5 -44.5 q8 0 29.5 2t48 5t51 6t36.5 3q18 0 47 -3t56.5 -10t47 -20.5t19.5 -33.5q0 -35 -16 -58.5t-39 -25.5q-10 0 -19.5 8t-23.5 18.5t-37.5 18.5t-60.5 8q-55 0 -95 -7t-72 -15.5t-60.5 -15.5t-63.5 -7q-41 0 -50 17.5t-9 43.5z" />
<glyph unicode="&#xbe;" horiz-adv-x="1470" d="M78 799q0 31 19.5 51t62.5 20q16 0 26.5 -6t23.5 -14t32.5 -14.5t52.5 -6.5q20 0 47 15.5t50.5 39t38.5 50.5t15 51q0 47 -12 72.5t-29.5 37t-35 13.5t-27.5 2q-35 0 -47 -3t-29 -7q-8 -2 -14 -3t-14 -1q-27 0 -46.5 13t-19.5 46q4 29 31.5 40t62.5 15q12 0 39 13.5 t53.5 33t47 45t20.5 52.5q0 47 -18.5 62.5t-49.5 15.5q-25 0 -59.5 -15.5t-60.5 -48.5q-10 -12 -17.5 -24.5t-16.5 -23.5t-22.5 -17.5t-34.5 -6.5q-35 0 -42 18.5t-7 49.5q0 18 24.5 45t61.5 52.5t82 44t86 18.5q37 0 73 -3t63.5 -16.5t44 -44.5t16.5 -86q0 -47 -35 -89 t-88 -93q2 0 3 -1t3 -1q25 -10 49.5 -22.5t44 -30t31.5 -42t12 -59.5q0 -74 -30.5 -132t-77.5 -98t-101.5 -60.5t-99.5 -20.5q-86 0 -134 13.5t-48 60.5zM213 -72q0 16 31.5 81t84 161t121 216t143.5 249t149.5 258t141 243.5t119 206t78.5 144.5q10 18 19.5 27.5t32.5 9.5 q27 0 30.5 -18.5t3.5 -32.5q0 -16 -37.5 -91t-101 -189t-145.5 -255t-170 -292.5t-176 -302.5t-164 -280q-10 -16 -22.5 -43.5t-27 -55t-29.5 -47t-28 -19.5q-29 0 -41 10t-12 20zM752 246q0 25 4 46t24 44q31 35 68 77t75 85t75.5 85t70.5 76q12 12 26.5 31t32 36t36 28.5 t38.5 11.5q68 0 68 -86q0 -33 -2 -47.5t-4 -33.5t-4.5 -56t-2.5 -115q0 -35 -2 -60.5t-2 -43.5q0 -10 5.5 -19.5t19.5 -9.5q4 0 23.5 2t25.5 2q10 0 19.5 -5t9.5 -20q0 -18 -2 -34.5t-4 -30.5q0 -8 -15.5 -13.5t-32 -10.5t-31 -10t-14.5 -13q2 -20 4.5 -44t2.5 -52 q0 -31 -14.5 -57.5t-73.5 -26.5q-27 0 -45.5 23.5t-18.5 45.5v30.5t2 37.5q0 20 2 43q0 22 -20 22q-16 0 -65.5 -3t-108.5 -3q-53 0 -77 2t-50 2q-25 0 -34 17.5t-9 46.5zM893 301q0 -10 7 -14t38 -4q35 0 63 2q25 2 49.5 3t34.5 1q25 0 27 13.5t8 23.5q2 25 3 36l2 22 t1 27.5v53.5q0 33 -4 51.5t-24 18.5q-8 0 -25.5 -14.5t-39 -36t-45 -50t-44.5 -55.5q-16 -23 -33.5 -38t-17.5 -40z" />
<glyph unicode="&#xbf;" horiz-adv-x="944" d="M137 283q0 53 16.5 69.5t39.5 16.5q4 0 14 -1t19.5 -4.5t16.5 -10.5t7 -19q0 -39 16.5 -87t47 -91t71.5 -72t90 -29q39 0 76 13.5t65.5 39t46 61.5t17.5 81q0 51 -27.5 100t-66.5 95.5t-80 89.5t-66 83q-18 31 -31.5 56.5t-21.5 50.5t-11 50.5t-3 58.5q0 29 9 64.5 t23.5 66t32 52t33.5 21.5q29 0 46.5 -17t17.5 -40q0 -14 -6.5 -38.5t-13.5 -52.5t-13 -53.5t-6 -43.5q0 -68 47 -123.5t103 -113.5t103.5 -129t47.5 -167q0 -80 -41 -132t-99.5 -83t-123 -43t-113.5 -12q-70 0 -122 27.5t-88 70.5t-54.5 94.5t-18.5 100.5zM471 1321 q0 18 10.5 36.5t25.5 34t32.5 24.5t33.5 9q39 0 54.5 -27.5t15.5 -68.5q0 -18 -5 -37.5t-19.5 -36t-37 -27.5t-55.5 -11q-35 0 -45 31.5t-10 72.5z" />
<glyph unicode="&#xc0;" horiz-adv-x="1505" d="M49 45q0 88 45 201.5t115 242.5t155 265.5t167.5 266.5t152.5 249t109 211q14 16 38.5 27.5t53.5 11.5q41 0 55 -30t14 -71q0 -76 29 -173t68 -193.5t77.5 -180.5t59.5 -133q14 -35 46 -50t54 -42q-6 -29 -16 -39t-10 -33q0 -33 14 -81t34.5 -102t46 -108.5t46 -99.5 t35 -76.5t14.5 -39.5q0 -29 -40 -55.5t-85 -26.5q-14 0 -31.5 29.5t-37 77.5t-39 105.5t-38 114t-33.5 104.5t-26 75q-10 29 -29.5 48t-52.5 19q-72 0 -143.5 -12t-142.5 -29q-72 -14 -142.5 -27.5t-130.5 -13.5q-20 0 -37.5 9.5t-40.5 9.5q-43 0 -78.5 -48.5t-62 -113 t-42 -130t-15.5 -100.5q0 -23 5 -38t11 -25q0 -2 2 -2q-4 -8 -20.5 -16.5t-38 -15.5t-43 -11t-35.5 -4q-20 0 -28.5 15.5t-8.5 37.5zM461 662q0 -33 16.5 -45.5t63.5 -12.5q25 0 79 3t116.5 8.5t125 13.5t105.5 20q31 10 54 29.5t23 50.5q0 27 -20 77t-47 104.5t-52.5 105.5 t-35.5 80q-20 49 -35.5 78.5t-42.5 29.5q-10 0 -41 -35.5t-69.5 -90t-80.5 -121t-78 -127t-58.5 -106.5t-22.5 -62zM631 1800q0 33 29.5 55.5t58.5 22.5l12 -4q20 -6 45 -40t46.5 -77t36.5 -85t15 -66q0 -6 -7 -12.5t-13 -6.5q-12 0 -48 21.5t-75 54.5t-69.5 69.5 t-30.5 67.5z" />
<glyph unicode="&#xc1;" horiz-adv-x="1505" d="M49 45q0 88 45 201.5t115 242.5t155 265.5t167.5 266.5t152.5 249t109 211q14 16 38.5 27.5t53.5 11.5q41 0 55 -30t14 -71q0 -76 29 -173t68 -193.5t77.5 -180.5t59.5 -133q14 -35 46 -50t54 -42q-6 -29 -16 -39t-10 -33q0 -33 14 -81t34.5 -102t46 -108.5t46 -99.5 t35 -76.5t14.5 -39.5q0 -29 -40 -55.5t-85 -26.5q-14 0 -31.5 29.5t-37 77.5t-39 105.5t-38 114t-33.5 104.5t-26 75q-10 29 -29.5 48t-52.5 19q-72 0 -143.5 -12t-142.5 -29q-72 -14 -142.5 -27.5t-130.5 -13.5q-20 0 -37.5 9.5t-40.5 9.5q-43 0 -78.5 -48.5t-62 -113 t-42 -130t-15.5 -100.5q0 -23 5 -38t11 -25q0 -2 2 -2q-4 -8 -20.5 -16.5t-38 -15.5t-43 -11t-35.5 -4q-20 0 -28.5 15.5t-8.5 37.5zM461 662q0 -33 16.5 -45.5t63.5 -12.5q25 0 79 3t116.5 8.5t125 13.5t105.5 20q31 10 54 29.5t23 50.5q0 27 -20 77t-47 104.5t-52.5 105.5 t-35.5 80q-20 49 -35.5 78.5t-42.5 29.5q-10 0 -41 -35.5t-69.5 -90t-80.5 -121t-78 -127t-58.5 -106.5t-22.5 -62zM762 1599q6 27 21.5 67t36 81t43 74.5t44.5 48.5h17q27 -4 53.5 -25.5t26.5 -60.5q-6 -29 -37 -65t-68 -66.5t-70.5 -52t-46.5 -21.5q-6 2 -13 7t-7 13z" />
<glyph unicode="&#xc2;" horiz-adv-x="1505" d="M49 45q0 88 45 201.5t115 242.5t155 265.5t167.5 266.5t152.5 249t109 211q14 16 38.5 27.5t53.5 11.5q41 0 55 -30t14 -71q0 -76 29 -173t68 -193.5t77.5 -180.5t59.5 -133q14 -35 46 -50t54 -42q-6 -29 -16 -39t-10 -33q0 -33 14 -81t34.5 -102t46 -108.5t46 -99.5 t35 -76.5t14.5 -39.5q0 -29 -40 -55.5t-85 -26.5q-14 0 -31.5 29.5t-37 77.5t-39 105.5t-38 114t-33.5 104.5t-26 75q-10 29 -29.5 48t-52.5 19q-72 0 -143.5 -12t-142.5 -29q-72 -14 -142.5 -27.5t-130.5 -13.5q-20 0 -37.5 9.5t-40.5 9.5q-43 0 -78.5 -48.5t-62 -113 t-42 -130t-15.5 -100.5q0 -23 5 -38t11 -25q0 -2 2 -2q-4 -8 -20.5 -16.5t-38 -15.5t-43 -11t-35.5 -4q-20 0 -28.5 15.5t-8.5 37.5zM461 662q0 -33 16.5 -45.5t63.5 -12.5q25 0 79 3t116.5 8.5t125 13.5t105.5 20q31 10 54 29.5t23 50.5q0 27 -20 77t-47 104.5t-52.5 105.5 t-35.5 80q-20 49 -35.5 78.5t-42.5 29.5q-10 0 -41 -35.5t-69.5 -90t-80.5 -121t-78 -127t-58.5 -106.5t-22.5 -62zM625 1630q0 14 29.5 56.5t69.5 86.5t80 77.5t62 33.5q14 0 50 -34.5t71 -81t62.5 -90.5t27.5 -60q0 -8 -21.5 -21.5t-27.5 -15.5q-8 0 -30.5 25.5t-48 55.5 t-52.5 55.5t-43 25.5q-12 0 -40 -25.5t-57.5 -55.5t-54 -55.5t-30.5 -25.5q-12 0 -29.5 19.5t-17.5 29.5z" />
<glyph unicode="&#xc3;" horiz-adv-x="1505" d="M49 45q0 88 45 201.5t115 242.5t155 265.5t167.5 266.5t152.5 249t109 211q14 16 38.5 27.5t53.5 11.5q41 0 55 -30t14 -71q0 -76 29 -173t68 -193.5t77.5 -180.5t59.5 -133q14 -35 46 -50t54 -42q-6 -29 -16 -39t-10 -33q0 -33 14 -81t34.5 -102t46 -108.5t46 -99.5 t35 -76.5t14.5 -39.5q0 -29 -40 -55.5t-85 -26.5q-14 0 -31.5 29.5t-37 77.5t-39 105.5t-38 114t-33.5 104.5t-26 75q-10 29 -29.5 48t-52.5 19q-72 0 -143.5 -12t-142.5 -29q-72 -14 -142.5 -27.5t-130.5 -13.5q-20 0 -37.5 9.5t-40.5 9.5q-43 0 -78.5 -48.5t-62 -113 t-42 -130t-15.5 -100.5q0 -23 5 -38t11 -25q0 -2 2 -2q-4 -8 -20.5 -16.5t-38 -15.5t-43 -11t-35.5 -4q-20 0 -28.5 15.5t-8.5 37.5zM461 662q0 -33 16.5 -45.5t63.5 -12.5q25 0 79 3t116.5 8.5t125 13.5t105.5 20q31 10 54 29.5t23 50.5q0 27 -20 77t-47 104.5t-52.5 105.5 t-35.5 80q-20 49 -35.5 78.5t-42.5 29.5q-10 0 -41 -35.5t-69.5 -90t-80.5 -121t-78 -127t-58.5 -106.5t-22.5 -62zM602 1663q0 8 17.5 30.5t45 47t61.5 44t69 19.5q23 0 45 -8t42.5 -17.5t38 -17.5t33.5 -8q25 0 41.5 8t29.5 17.5t22.5 17.5t17.5 8q18 0 29.5 -9t11.5 -19 t-15.5 -34t-39 -48.5t-52 -43t-55.5 -18.5t-51.5 8.5t-46 19.5t-40 19.5t-32.5 8.5q-35 0 -56.5 -8.5t-34.5 -18.5t-20.5 -18.5t-13.5 -8.5q-10 0 -28.5 6.5t-18.5 22.5z" />
<glyph unicode="&#xc4;" horiz-adv-x="1505" d="M49 45q0 88 45 201.5t115 242.5t155 265.5t167.5 266.5t152.5 249t109 211q14 16 38.5 27.5t53.5 11.5q41 0 55 -30t14 -71q0 -76 29 -173t68 -193.5t77.5 -180.5t59.5 -133q14 -35 46 -50t54 -42q-6 -29 -16 -39t-10 -33q0 -33 14 -81t34.5 -102t46 -108.5t46 -99.5 t35 -76.5t14.5 -39.5q0 -29 -40 -55.5t-85 -26.5q-14 0 -31.5 29.5t-37 77.5t-39 105.5t-38 114t-33.5 104.5t-26 75q-10 29 -29.5 48t-52.5 19q-72 0 -143.5 -12t-142.5 -29q-72 -14 -142.5 -27.5t-130.5 -13.5q-20 0 -37.5 9.5t-40.5 9.5q-43 0 -78.5 -48.5t-62 -113 t-42 -130t-15.5 -100.5q0 -23 5 -38t11 -25q0 -2 2 -2q-4 -8 -20.5 -16.5t-38 -15.5t-43 -11t-35.5 -4q-20 0 -28.5 15.5t-8.5 37.5zM461 662q0 -33 16.5 -45.5t63.5 -12.5q25 0 79 3t116.5 8.5t125 13.5t105.5 20q31 10 54 29.5t23 50.5q0 27 -20 77t-47 104.5t-52.5 105.5 t-35.5 80q-20 49 -35.5 78.5t-42.5 29.5q-10 0 -41 -35.5t-69.5 -90t-80.5 -121t-78 -127t-58.5 -106.5t-22.5 -62zM616 1659q0 35 14.5 54.5t33.5 29.5q20 12 47 16q39 -4 66.5 -30.5t27.5 -61.5q0 -43 -28.5 -71.5t-67.5 -28.5q-33 0 -63 28.5t-30 63.5zM926 1659 q0 35 14 54.5t33 29.5q20 12 47 16q39 -4 66.5 -30.5t27.5 -61.5q0 -43 -28.5 -71.5t-67.5 -28.5q-33 0 -62.5 28.5t-29.5 63.5z" />
<glyph unicode="&#xc5;" horiz-adv-x="1505" d="M49 45q0 88 45 201.5t115 242.5t155 265.5t167.5 266.5t152.5 249t109 211q14 16 38.5 27.5t53.5 11.5q41 0 55 -30t14 -71q0 -76 29 -173t68 -193.5t77.5 -180.5t59.5 -133q14 -35 46 -50t54 -42q-6 -29 -16 -39t-10 -33q0 -33 14 -81t34.5 -102t46 -108.5t46 -99.5 t35 -76.5t14.5 -39.5q0 -29 -40 -55.5t-85 -26.5q-14 0 -31.5 29.5t-37 77.5t-39 105.5t-38 114t-33.5 104.5t-26 75q-10 29 -29.5 48t-52.5 19q-72 0 -143.5 -12t-142.5 -29q-72 -14 -142.5 -27.5t-130.5 -13.5q-20 0 -37.5 9.5t-40.5 9.5q-43 0 -78.5 -48.5t-62 -113 t-42 -130t-15.5 -100.5q0 -23 5 -38t11 -25q0 -2 2 -2q-4 -8 -20.5 -16.5t-38 -15.5t-43 -11t-35.5 -4q-20 0 -28.5 15.5t-8.5 37.5zM461 662q0 -33 16.5 -45.5t63.5 -12.5q25 0 79 3t116.5 8.5t125 13.5t105.5 20q31 10 54 29.5t23 50.5q0 27 -20 77t-47 104.5t-52.5 105.5 t-35.5 80q-20 49 -35.5 78.5t-42.5 29.5q-10 0 -41 -35.5t-69.5 -90t-80.5 -121t-78 -127t-58.5 -106.5t-22.5 -62zM702 1718q0 31 14.5 58.5t39 50t54.5 36t60 13.5q49 0 92.5 -37t43.5 -115q0 -43 -15.5 -71.5t-38 -46t-51.5 -24.5t-53 -7q-61 0 -103.5 40t-42.5 103z M776 1724q0 -29 17.5 -54t60.5 -25q45 0 59.5 28.5t14.5 59.5q0 23 -19.5 45t-50.5 22q-35 0 -58.5 -21.5t-23.5 -54.5z" />
<glyph unicode="&#xc6;" horiz-adv-x="1972" d="M45 45q0 59 27.5 144t75 185.5t108.5 211t128 219t133.5 210t123.5 184.5t101 141.5t65 80.5q14 14 37.5 27.5t52.5 24t59.5 16.5t59.5 6q59 0 111.5 -9t115.5 -9q143 0 269 13t245 13q53 0 74.5 -11t21.5 -36q0 -100 -55 -100q-23 0 -52.5 5t-69.5 12t-92 12.5t-120 5.5 q-35 0 -87 -3.5t-101 -13.5t-85 -30.5t-36 -55.5q0 -31 -2 -77t-5 -95t-5 -98t-2 -88q0 -47 20.5 -59.5t44.5 -12.5q123 0 255 12.5t251 12.5q14 0 34.5 -2t38 -5.5t30 -7.5t12.5 -8q0 -29 -14.5 -51.5t-35 -37.5t-41 -22.5t-34.5 -7.5q-102 0 -221 10.5t-234 10.5 q-37 0 -71.5 -10.5t-38.5 -51.5q0 -49 -9.5 -133t-9.5 -182q0 -119 28 -180.5t122 -61.5q82 0 133 7.5t98 16.5t106.5 17.5t161.5 8.5q29 0 55.5 -3.5t47 -15.5t33 -34.5t12.5 -59.5q0 -39 -17.5 -59.5t-37.5 -20.5q-25 0 -42.5 8t-40 17.5t-57 17.5t-92.5 8 q-104 0 -169.5 -9t-117 -20.5t-102.5 -20.5t-131 -9q-41 0 -66.5 7t-50.5 42q-12 16 -19 50t-11.5 77t-5.5 90t-1 90q0 66 -5 105t-13 59t-19.5 26.5t-23.5 6.5q-45 0 -92 -10.5t-99.5 -21.5t-112 -21.5t-128.5 -10.5q-12 0 -27.5 7.5t-30.5 7.5q-16 0 -36.5 -25t-41 -62.5 t-39 -85t-33.5 -92.5t-24.5 -82.5t-9.5 -56.5q0 -31 -5 -50t-19.5 -29.5t-41 -14.5t-71.5 -6q-23 2 -30 16.5t-7 36.5zM465 664q0 -31 9 -47.5t38 -16.5q49 0 77.5 5t62.5 12.5t82 16.5t136 17q39 4 68 24.5t29 69.5q0 6 1 27t2 45.5t2 51t1 49.5q2 63 4 134.5t2 118.5 q0 20 -2 45t-8 45.5t-16.5 34t-26.5 13.5q-25 0 -68 -41t-94 -105.5t-104.5 -141.5t-96.5 -148.5t-70.5 -129t-27.5 -79.5z" />
<glyph unicode="&#xc7;" horiz-adv-x="1261" d="M63 612q0 168 57.5 328t156 284t229.5 199.5t280 75.5q57 0 107.5 -19.5t89.5 -48t61.5 -60.5t22.5 -58q0 -43 -22.5 -69.5t-61.5 -26.5q-25 0 -44 22.5t-47 49t-68 48t-103 21.5q-100 0 -190.5 -67.5t-159 -172t-108.5 -230.5t-40 -241q0 -86 19.5 -181t71 -175 t137.5 -131t221 -51q51 0 105 19t108.5 52t103.5 77t90 95q23 27 42.5 34t41.5 7q35 0 46.5 -22.5t11.5 -38.5q0 -10 -2 -13q-39 -59 -95.5 -113t-128 -98.5t-158.5 -74t-190 -35.5q-12 -23 -35.5 -43.5t-23.5 -46.5q0 -29 43 -29q31 0 64.5 8.5t62.5 8.5t41 -21.5t12 -44.5 q0 -41 -26.5 -86t-71.5 -84t-102.5 -63.5t-118.5 -24.5q-20 0 -31.5 16.5t-11.5 36.5q0 18 10 37t28 19q6 0 17.5 -3.5t32.5 -3.5q12 0 36.5 7.5t48 21.5t41 32.5t17.5 43.5q0 27 -35 26q-29 0 -45 -11t-53 -11q-39 0 -62.5 14.5t-23.5 38.5q0 70 55 115q10 8 19 16 q8 6 16 13.5t18 15.5q-98 2 -190 38t-162 109.5t-112 189.5t-42 279z" />
<glyph unicode="&#xc8;" d="M92 784q0 18 9.5 29.5t19.5 24t19.5 27t9.5 38.5q0 55 3 117.5t3 136.5q0 98 -8.5 154.5t-8.5 103.5q0 25 23.5 40t52.5 18q33 2 87 4t112.5 3t115 3t95.5 6q78 4 151.5 7t159.5 3q39 0 56.5 -17.5t21.5 -45.5q-2 -35 -22.5 -58.5t-43.5 -23.5q-12 0 -32.5 6t-45 14 t-52 14.5t-54.5 6.5q-55 0 -103.5 -1t-94.5 -2t-92 -3.5t-101 -4.5q-27 -2 -50.5 -13t-23.5 -40v-43v-68.5t-1 -75.5t-1 -65q-2 -39 -2 -70.5v-39.5q0 -61 25.5 -89t62.5 -28q74 0 133 4t111.5 10t100.5 10.5t101 4.5q14 0 38 -2t46.5 -6.5t39 -10.5t16.5 -14 q0 -6 -8.5 -24.5t-21.5 -39t-28.5 -36t-27.5 -15.5q-35 0 -78 13.5t-90 13.5q-76 0 -156 -2t-127 -2q-41 0 -65.5 -6.5t-39 -15.5t-20.5 -20.5t-10 -23.5q-2 -6 -5 -33.5t-5 -67.5t-4 -87t-2 -94q0 -49 1 -95.5t3 -68.5q4 -66 44 -87.5t87 -21.5q61 0 116.5 8.5t116 17.5 t131 17t164.5 8q53 0 92 -28.5t39 -75.5q-4 -39 -19.5 -61.5t-37.5 -22.5q-23 0 -40 8t-35.5 17.5t-40 17.5t-54.5 8q-135 0 -219 -9t-141.5 -21.5t-98.5 -21.5t-90 -9q-61 0 -96 19.5t-53.5 57t-23.5 94t-5 132.5q0 43 3 96t6 107.5t6 101.5t3 76t-7 44t-16.5 24.5 t-16.5 17.5t-7 26zM436 1800q0 33 30 55.5t58 22.5l13 -4q20 -6 44.5 -40t46 -77t37 -85t15.5 -66q0 -6 -7 -12.5t-14 -6.5q-12 0 -48 21.5t-74.5 54.5t-69.5 69.5t-31 67.5z" />
<glyph unicode="&#xc9;" d="M92 784q0 18 9.5 29.5t19.5 24t19.5 27t9.5 38.5q0 55 3 117.5t3 136.5q0 98 -8.5 154.5t-8.5 103.5q0 25 23.5 40t52.5 18q33 2 87 4t112.5 3t115 3t95.5 6q78 4 151.5 7t159.5 3q39 0 56.5 -17.5t21.5 -45.5q-2 -35 -22.5 -58.5t-43.5 -23.5q-12 0 -32.5 6t-45 14 t-52 14.5t-54.5 6.5q-55 0 -103.5 -1t-94.5 -2t-92 -3.5t-101 -4.5q-27 -2 -50.5 -13t-23.5 -40v-43v-68.5t-1 -75.5t-1 -65q-2 -39 -2 -70.5v-39.5q0 -61 25.5 -89t62.5 -28q74 0 133 4t111.5 10t100.5 10.5t101 4.5q14 0 38 -2t46.5 -6.5t39 -10.5t16.5 -14 q0 -6 -8.5 -24.5t-21.5 -39t-28.5 -36t-27.5 -15.5q-35 0 -78 13.5t-90 13.5q-76 0 -156 -2t-127 -2q-41 0 -65.5 -6.5t-39 -15.5t-20.5 -20.5t-10 -23.5q-2 -6 -5 -33.5t-5 -67.5t-4 -87t-2 -94q0 -49 1 -95.5t3 -68.5q4 -66 44 -87.5t87 -21.5q61 0 116.5 8.5t116 17.5 t131 17t164.5 8q53 0 92 -28.5t39 -75.5q-4 -39 -19.5 -61.5t-37.5 -22.5q-23 0 -40 8t-35.5 17.5t-40 17.5t-54.5 8q-135 0 -219 -9t-141.5 -21.5t-98.5 -21.5t-90 -9q-61 0 -96 19.5t-53.5 57t-23.5 94t-5 132.5q0 43 3 96t6 107.5t6 101.5t3 76t-7 44t-16.5 24.5 t-16.5 17.5t-7 26zM485 1599q6 27 21.5 67t36 81t43 74.5t45.5 48.5h16q27 -4 53.5 -25.5t26.5 -60.5q-6 -29 -37 -65t-67.5 -66.5t-70.5 -52t-46 -21.5q-6 2 -13.5 7t-7.5 13z" />
<glyph unicode="&#xca;" d="M92 784q0 18 9.5 29.5t19.5 24t19.5 27t9.5 38.5q0 55 3 117.5t3 136.5q0 98 -8.5 154.5t-8.5 103.5q0 25 23.5 40t52.5 18q33 2 87 4t112.5 3t115 3t95.5 6q78 4 151.5 7t159.5 3q39 0 56.5 -17.5t21.5 -45.5q-2 -35 -22.5 -58.5t-43.5 -23.5q-12 0 -32.5 6t-45 14 t-52 14.5t-54.5 6.5q-55 0 -103.5 -1t-94.5 -2t-92 -3.5t-101 -4.5q-27 -2 -50.5 -13t-23.5 -40v-43v-68.5t-1 -75.5t-1 -65q-2 -39 -2 -70.5v-39.5q0 -61 25.5 -89t62.5 -28q74 0 133 4t111.5 10t100.5 10.5t101 4.5q14 0 38 -2t46.5 -6.5t39 -10.5t16.5 -14 q0 -6 -8.5 -24.5t-21.5 -39t-28.5 -36t-27.5 -15.5q-35 0 -78 13.5t-90 13.5q-76 0 -156 -2t-127 -2q-41 0 -65.5 -6.5t-39 -15.5t-20.5 -20.5t-10 -23.5q-2 -6 -5 -33.5t-5 -67.5t-4 -87t-2 -94q0 -49 1 -95.5t3 -68.5q4 -66 44 -87.5t87 -21.5q61 0 116.5 8.5t116 17.5 t131 17t164.5 8q53 0 92 -28.5t39 -75.5q-4 -39 -19.5 -61.5t-37.5 -22.5q-23 0 -40 8t-35.5 17.5t-40 17.5t-54.5 8q-135 0 -219 -9t-141.5 -21.5t-98.5 -21.5t-90 -9q-61 0 -96 19.5t-53.5 57t-23.5 94t-5 132.5q0 43 3 96t6 107.5t6 101.5t3 76t-7 44t-16.5 24.5 t-16.5 17.5t-7 26zM352 1630q0 14 30 56.5t70 86.5t79.5 77.5t62.5 33.5q14 0 50 -34.5t71 -81t62.5 -90.5t27.5 -60q0 -8 -21.5 -21.5t-27.5 -15.5q-8 0 -31 25.5t-48.5 55.5t-52 55.5t-42.5 25.5q-12 0 -40 -25.5t-57.5 -55.5t-54 -55.5t-31.5 -25.5q-12 0 -29.5 19.5 t-17.5 29.5z" />
<glyph unicode="&#xcb;" d="M92 784q0 18 9.5 29.5t19.5 24t19.5 27t9.5 38.5q0 55 3 117.5t3 136.5q0 98 -8.5 154.5t-8.5 103.5q0 25 23.5 40t52.5 18q33 2 87 4t112.5 3t115 3t95.5 6q78 4 151.5 7t159.5 3q39 0 56.5 -17.5t21.5 -45.5q-2 -35 -22.5 -58.5t-43.5 -23.5q-12 0 -32.5 6t-45 14 t-52 14.5t-54.5 6.5q-55 0 -103.5 -1t-94.5 -2t-92 -3.5t-101 -4.5q-27 -2 -50.5 -13t-23.5 -40v-43v-68.5t-1 -75.5t-1 -65q-2 -39 -2 -70.5v-39.5q0 -61 25.5 -89t62.5 -28q74 0 133 4t111.5 10t100.5 10.5t101 4.5q14 0 38 -2t46.5 -6.5t39 -10.5t16.5 -14 q0 -6 -8.5 -24.5t-21.5 -39t-28.5 -36t-27.5 -15.5q-35 0 -78 13.5t-90 13.5q-76 0 -156 -2t-127 -2q-41 0 -65.5 -6.5t-39 -15.5t-20.5 -20.5t-10 -23.5q-2 -6 -5 -33.5t-5 -67.5t-4 -87t-2 -94q0 -49 1 -95.5t3 -68.5q4 -66 44 -87.5t87 -21.5q61 0 116.5 8.5t116 17.5 t131 17t164.5 8q53 0 92 -28.5t39 -75.5q-4 -39 -19.5 -61.5t-37.5 -22.5q-23 0 -40 8t-35.5 17.5t-40 17.5t-54.5 8q-135 0 -219 -9t-141.5 -21.5t-98.5 -21.5t-90 -9q-61 0 -96 19.5t-53.5 57t-23.5 94t-5 132.5q0 43 3 96t6 107.5t6 101.5t3 76t-7 44t-16.5 24.5 t-16.5 17.5t-7 26zM330 1659q0 35 14 54.5t33 29.5q20 12 47 16q39 -4 66.5 -30.5t27.5 -61.5q0 -43 -28.5 -71.5t-67.5 -28.5q-33 0 -62.5 28.5t-29.5 63.5zM639 1659q0 35 14.5 54.5t32.5 29.5q20 12 47 16q39 -4 66.5 -30.5t27.5 -61.5q0 -43 -28.5 -71.5t-67.5 -28.5 q-33 0 -62.5 28.5t-29.5 63.5z" />
<glyph unicode="&#xcc;" horiz-adv-x="503" d="M109 1800q0 33 29.5 55.5t58.5 22.5l12 -4q20 -6 45 -40t46.5 -77t36.5 -85t15 -66q0 -6 -7 -12.5t-13 -6.5q-12 0 -48 21.5t-75 54.5t-69.5 69.5t-30.5 67.5zM131 129q0 66 6 134.5t17 142.5q12 98 22 210.5t10 266.5q0 66 -7 116t-15 97t-15.5 95t-7.5 112q0 23 3 56.5 t16.5 65t39 54t68.5 22.5q39 0 72 -26.5t33 -61.5q0 -66 -8.5 -115t-12.5 -88q-8 -63 -14 -153t-11 -196.5t-7.5 -224.5t-2.5 -237q0 -43 9.5 -60t19.5 -32.5t19.5 -42t9.5 -88.5q0 -23 -19.5 -52.5t-46 -56t-57.5 -46t-51 -19.5q-43 0 -56.5 39t-13.5 88z" />
<glyph unicode="&#xcd;" horiz-adv-x="503" d="M131 129q0 66 6 134.5t17 142.5q12 98 22 210.5t10 266.5q0 66 -7 116t-15 97t-15.5 95t-7.5 112q0 23 3 56.5t16.5 65t39 54t68.5 22.5q39 0 72 -26.5t33 -61.5q0 -66 -8.5 -115t-12.5 -88q-8 -63 -14 -153t-11 -196.5t-7.5 -224.5t-2.5 -237q0 -43 9.5 -60t19.5 -32.5 t19.5 -42t9.5 -88.5q0 -23 -19.5 -52.5t-46 -56t-57.5 -46t-51 -19.5q-43 0 -56.5 39t-13.5 88zM186 1599q6 27 21.5 67t36 81t43 74.5t45.5 48.5h16q27 -4 53.5 -25.5t26.5 -60.5q-6 -29 -37 -65t-67.5 -66.5t-70.5 -52t-46 -21.5q-6 2 -13.5 7t-7.5 13z" />
<glyph unicode="&#xce;" horiz-adv-x="503" d="M25 1630q0 14 29.5 56.5t69.5 86.5t80 77.5t62 33.5q14 0 50 -34.5t71 -81t62.5 -90.5t27.5 -60q0 -8 -21.5 -21.5t-27.5 -15.5q-8 0 -30.5 25.5t-48 55.5t-52.5 55.5t-43 25.5q-12 0 -40 -25.5t-57.5 -55.5t-54 -55.5t-30.5 -25.5q-12 0 -29.5 19.5t-17.5 29.5zM131 129 q0 66 6 134.5t17 142.5q12 98 22 210.5t10 266.5q0 66 -7 116t-15 97t-15.5 95t-7.5 112q0 23 3 56.5t16.5 65t39 54t68.5 22.5q39 0 72 -26.5t33 -61.5q0 -66 -8.5 -115t-12.5 -88q-8 -63 -14 -153t-11 -196.5t-7.5 -224.5t-2.5 -237q0 -43 9.5 -60t19.5 -32.5t19.5 -42 t9.5 -88.5q0 -23 -19.5 -52.5t-46 -56t-57.5 -46t-51 -19.5q-43 0 -56.5 39t-13.5 88z" />
<glyph unicode="&#xcf;" horiz-adv-x="503" d="M2 1659q0 35 14.5 54.5t32.5 29.5q20 12 47 16q39 -4 66.5 -30.5t27.5 -61.5q0 -43 -28.5 -71.5t-67.5 -28.5q-33 0 -62.5 28.5t-29.5 63.5zM131 129q0 66 6 134.5t17 142.5q12 98 22 210.5t10 266.5q0 66 -7 116t-15 97t-15.5 95t-7.5 112q0 23 3 56.5t16.5 65t39 54 t68.5 22.5q39 0 72 -26.5t33 -61.5q0 -66 -8.5 -115t-12.5 -88q-8 -63 -14 -153t-11 -196.5t-7.5 -224.5t-2.5 -237q0 -43 9.5 -60t19.5 -32.5t19.5 -42t9.5 -88.5q0 -23 -19.5 -52.5t-46 -56t-57.5 -46t-51 -19.5q-43 0 -56.5 39t-13.5 88zM311 1659q0 35 14.5 54.5 t32.5 29.5q20 12 48 16q39 -4 66.5 -30.5t27.5 -61.5q0 -43 -29 -71.5t-68 -28.5q-33 0 -62.5 28.5t-29.5 63.5z" />
<glyph unicode="&#xd0;" horiz-adv-x="1316" d="M4 647q0 35 2 35q31 10 71 22.5t111 20.5q0 76 -3 164t-7 164.5t-11 133t-15 73.5q-8 14 -32 26t-49.5 24.5t-46 25t-20.5 28.5q0 49 61.5 77.5t152.5 44t194.5 20.5t189.5 5q143 0 269 -40.5t221.5 -120.5t150.5 -199t55 -274q0 -150 -44 -273t-118.5 -222t-176 -173 t-217 -122t-239.5 -72.5t-245 -24.5q-31 0 -63.5 9t-34.5 42l8 137q10 129 13 244t7 244q-57 -20 -91 -32.5t-50 -19t-21 -7.5l-6 -1q-10 0 -13 13.5t-3 27.5zM315 715q0 -59 2 -124t5.5 -129.5t6.5 -127t5 -117.5q2 -49 32.5 -67.5t82.5 -18.5q141 8 269 59.5t223 142.5 t151.5 219t56.5 292q0 152 -57.5 254t-147.5 163.5t-201.5 87t-220.5 25.5q-61 0 -99 -10t-59.5 -25.5t-29.5 -36t-10 -38.5q-2 -31 -3.5 -86.5t-2.5 -120t-1 -130v-114.5l158 64q4 4 10.5 5t8.5 1q14 0 22 -16.5t8 -35.5q0 -27 -14 -34q-23 -10 -76 -33t-119 -49z" />
<glyph unicode="&#xd1;" horiz-adv-x="1454" d="M82 1362l6 47q2 18 23.5 35.5t52.5 31t65.5 21.5t63.5 8q33 0 57.5 -22.5t40 -49t21.5 -47t4 -16.5q4 -23 18.5 -57.5t40.5 -61.5q70 -70 150 -162t161.5 -190t160.5 -195.5t147 -173.5q12 -10 26.5 -24t26.5 -14q27 0 42 46t15 103q0 104 5 220t5 259q0 47 -7 80 t-14 63.5t-14.5 65.5t-7.5 88q0 20 17.5 41t44.5 37t56.5 25.5t51.5 9.5q12 0 18.5 -19.5t9.5 -44t4 -46t1 -23.5q0 -31 -9 -48.5t-19.5 -33t-19.5 -35.5t-9 -59q0 -131 -2 -245t-4 -216.5t-4 -197.5t-2 -187q0 -41 7 -75t14 -66.5t14.5 -66.5t7.5 -75q0 -14 -9.5 -30.5 t-25 -30t-36 -22.5t-40.5 -9q-18 0 -33.5 17.5t-29 40t-23.5 46t-16 35.5q-18 33 -39 74t-44.5 85t-51 87t-60.5 80q-66 76 -136.5 156.5t-141 163.5t-139 165t-130.5 158q-6 8 -18.5 21.5t-24.5 25.5t-25.5 21.5t-23.5 9.5q-33 0 -38 -29t-9 -63q-10 -76 -18.5 -182.5 t-8.5 -272.5q0 -125 7.5 -202t15.5 -127t15 -86t7 -79q0 -25 -5 -51t-16 -48.5t-29.5 -38t-45.5 -15.5q-18 0 -33.5 10t-26 23.5t-15.5 29t-5 27.5q0 86 5 160.5t10.5 166t10.5 212t5 301.5v140t-4 171q-2 31 -8 44t-13.5 22.5t-13.5 21.5t-6 41zM496 1663q0 8 17 30.5 t45 47t61.5 44t68.5 19.5q23 0 45.5 -8t43 -17.5t37.5 -17.5t34 -8q25 0 41 8t29.5 17.5t22.5 17.5t17 8q18 0 29.5 -9t11.5 -19t-15 -34t-38.5 -48.5t-52.5 -43t-55 -18.5q-27 0 -51.5 8.5t-46 19.5t-40 19.5t-32.5 8.5q-35 0 -56.5 -8.5t-35 -18.5t-20.5 -18.5t-13 -8.5 q-10 0 -28.5 6.5t-18.5 22.5z" />
<glyph unicode="&#xd2;" horiz-adv-x="1546" d="M59 604q0 178 51.5 343t151.5 292t248.5 203t345.5 76q147 0 264 -54.5t199 -146.5t126 -213t44 -252q0 -195 -61.5 -354.5t-171 -272t-257 -174t-319.5 -61.5q-96 0 -196.5 25.5t-187.5 88t-150 168t-83 267.5q-2 16 -3 32.5t-1 32.5zM217 621q0 -125 44 -220.5 t117 -160t165 -98t190 -33.5q125 0 237.5 53t198.5 150.5t136.5 235.5t50.5 308q0 135 -45 237.5t-121 172t-172 104.5t-199 35q-96 0 -177 -27.5t-139.5 -77t-91 -116t-32.5 -142.5q0 -25 -13.5 -29.5t-25.5 -4.5q-45 0 -69.5 -38t-37 -95.5t-14.5 -125t-2 -128.5z M651 1800q0 33 30 55.5t58 22.5l13 -4q20 -6 44.5 -40t46 -77t37 -85t15.5 -66q0 -6 -7 -12.5t-14 -6.5q-12 0 -47.5 21.5t-74.5 54.5t-70 69.5t-31 67.5z" />
<glyph unicode="&#xd3;" horiz-adv-x="1546" d="M59 604q0 178 51.5 343t151.5 292t248.5 203t345.5 76q147 0 264 -54.5t199 -146.5t126 -213t44 -252q0 -195 -61.5 -354.5t-171 -272t-257 -174t-319.5 -61.5q-96 0 -196.5 25.5t-187.5 88t-150 168t-83 267.5q-2 16 -3 32.5t-1 32.5zM217 621q0 -125 44 -220.5 t117 -160t165 -98t190 -33.5q125 0 237.5 53t198.5 150.5t136.5 235.5t50.5 308q0 135 -45 237.5t-121 172t-172 104.5t-199 35q-96 0 -177 -27.5t-139.5 -77t-91 -116t-32.5 -142.5q0 -25 -13.5 -29.5t-25.5 -4.5q-45 0 -69.5 -38t-37 -95.5t-14.5 -125t-2 -128.5z M682 1599q6 27 21.5 67t36 81t43 74.5t44.5 48.5h17q27 -4 53.5 -25.5t26.5 -60.5q-6 -29 -37 -65t-68 -66.5t-70.5 -52t-46.5 -21.5q-6 2 -13 7t-7 13z" />
<glyph unicode="&#xd4;" horiz-adv-x="1546" d="M59 604q0 178 51.5 343t151.5 292t248.5 203t345.5 76q147 0 264 -54.5t199 -146.5t126 -213t44 -252q0 -195 -61.5 -354.5t-171 -272t-257 -174t-319.5 -61.5q-96 0 -196.5 25.5t-187.5 88t-150 168t-83 267.5q-2 16 -3 32.5t-1 32.5zM217 621q0 -125 44 -220.5 t117 -160t165 -98t190 -33.5q125 0 237.5 53t198.5 150.5t136.5 235.5t50.5 308q0 135 -45 237.5t-121 172t-172 104.5t-199 35q-96 0 -177 -27.5t-139.5 -77t-91 -116t-32.5 -142.5q0 -25 -13.5 -29.5t-25.5 -4.5q-45 0 -69.5 -38t-37 -95.5t-14.5 -125t-2 -128.5z M547 1630q0 14 29.5 56.5t69.5 86.5t80 77.5t62 33.5q14 0 50 -34.5t71 -81t62.5 -90.5t27.5 -60q0 -8 -21.5 -21.5t-27.5 -15.5q-8 0 -30.5 25.5t-48 55.5t-52.5 55.5t-43 25.5q-12 0 -39.5 -25.5t-57.5 -55.5t-54.5 -55.5t-30.5 -25.5q-12 0 -29.5 19.5t-17.5 29.5z" />
<glyph unicode="&#xd5;" horiz-adv-x="1546" d="M59 604q0 178 51.5 343t151.5 292t248.5 203t345.5 76q147 0 264 -54.5t199 -146.5t126 -213t44 -252q0 -195 -61.5 -354.5t-171 -272t-257 -174t-319.5 -61.5q-96 0 -196.5 25.5t-187.5 88t-150 168t-83 267.5q-2 16 -3 32.5t-1 32.5zM217 621q0 -125 44 -220.5 t117 -160t165 -98t190 -33.5q125 0 237.5 53t198.5 150.5t136.5 235.5t50.5 308q0 135 -45 237.5t-121 172t-172 104.5t-199 35q-96 0 -177 -27.5t-139.5 -77t-91 -116t-32.5 -142.5q0 -25 -13.5 -29.5t-25.5 -4.5q-45 0 -69.5 -38t-37 -95.5t-14.5 -125t-2 -128.5z M520 1663q0 8 17.5 30.5t45 47t61.5 44t69 19.5q23 0 45 -8t42.5 -17.5t38 -17.5t33.5 -8q25 0 41.5 8t29.5 17.5t22.5 17.5t17.5 8q18 0 29.5 -9t11.5 -19t-15.5 -34t-39 -48.5t-52 -43t-55.5 -18.5t-51.5 8.5t-46 19.5t-39.5 19.5t-33 8.5q-35 0 -56.5 -8.5t-34.5 -18.5 t-20.5 -18.5t-13.5 -8.5q-10 0 -28.5 6.5t-18.5 22.5z" />
<glyph unicode="&#xd6;" horiz-adv-x="1546" d="M59 604q0 178 51.5 343t151.5 292t248.5 203t345.5 76q147 0 264 -54.5t199 -146.5t126 -213t44 -252q0 -195 -61.5 -354.5t-171 -272t-257 -174t-319.5 -61.5q-96 0 -196.5 25.5t-187.5 88t-150 168t-83 267.5q-2 16 -3 32.5t-1 32.5zM217 621q0 -125 44 -220.5 t117 -160t165 -98t190 -33.5q125 0 237.5 53t198.5 150.5t136.5 235.5t50.5 308q0 135 -45 237.5t-121 172t-172 104.5t-199 35q-96 0 -177 -27.5t-139.5 -77t-91 -116t-32.5 -142.5q0 -25 -13.5 -29.5t-25.5 -4.5q-45 0 -69.5 -38t-37 -95.5t-14.5 -125t-2 -128.5z M524 1659q0 35 14.5 54.5t32.5 29.5q20 12 47 16q39 -4 67 -30.5t28 -61.5q0 -43 -29 -71.5t-68 -28.5q-33 0 -62.5 28.5t-29.5 63.5zM834 1659q0 35 14 54.5t33 29.5q20 12 47 16q39 -4 66.5 -30.5t27.5 -61.5q0 -43 -28.5 -71.5t-67.5 -28.5q-33 0 -62.5 28.5t-29.5 63.5z " />
<glyph unicode="&#xd7;" horiz-adv-x="1040" d="M164 199q0 33 16.5 60.5t40 54t51 50t52.5 48.5l37.5 37.5t44 46t36 42t15.5 27.5q0 10 -19.5 36t-48.5 59.5t-61.5 70.5t-61 71t-48 58.5t-19.5 34.5q0 20 16 40.5t53 20.5q29 0 44.5 -14t25.5 -31q8 -12 35.5 -53t60.5 -85t62.5 -77.5t40.5 -33.5q18 0 52 44t72.5 97 t76.5 97t65 44q23 0 44 -24.5t21 -55.5q0 -8 -38.5 -52t-86.5 -97q-55 -61 -125 -137q0 -8 32 -47t73 -83.5t79 -81t50 -40.5q10 -4 22.5 -33t12.5 -62q0 -25 -26.5 -44t-57.5 -19q-23 0 -31 11t-20 30q-14 20 -45 64t-66 87t-65.5 76t-43.5 33q-10 0 -42.5 -33t-70.5 -76 t-73 -87t-53 -68q-23 -29 -39 -39t-45 -10q-14 2 -29.5 12t-15.5 31z" />
<glyph unicode="&#xd8;" horiz-adv-x="1564" d="M8 135l142 133q-35 63 -62 146.5t-27 187.5q0 186 52.5 353t154 292t250 198t338.5 73q135 0 239.5 -44t207.5 -139l196 176q0 -2 7 -10t18 -18q10 -12 26 -29l-192 -180q72 -98 101.5 -198.5t29.5 -223.5q0 -190 -61.5 -350t-169 -273.5t-255 -177t-319.5 -63.5 q-51 0 -113.5 9t-128 31.5t-130 63.5t-119.5 105q-53 -47 -84 -77t-48 -46l-13 13l-18.5 18.5t-15.5 17.5t-6 12zM217 696q0 -78 10.5 -154.5t44.5 -162.5l936 864q-53 53 -106 85t-103.5 49.5t-96.5 22.5t-83 5q-70 0 -146.5 -21.5t-142 -65.5t-108.5 -112.5t-43 -163.5 q-4 -23 -12.5 -28.5t-18.5 -5.5h-14q-39 0 -61.5 -32t-35 -80t-16.5 -102.5t-4 -97.5zM315 309q47 -68 108.5 -106.5t121 -60t110 -27.5t76.5 -6q150 0 266.5 65.5t196.5 171t122 239.5t42 269q0 111 -29 193.5t-67 138.5z" />
<glyph unicode="&#xd9;" horiz-adv-x="1320" d="M82 1255v34.5t2 43.5q0 27 15.5 54.5t39 51t50 38t51.5 14.5q18 0 31.5 -16.5t22.5 -38t13 -45t4 -37.5q0 -59 -6 -109.5t-13 -121t-13.5 -178t-8.5 -283.5q0 -78 2 -148t7 -111q10 -154 92 -217t223 -63q223 0 347 96t124 311q0 68 -2 146t-5 155.5t-6 151.5t-5 137 q-2 43 -6.5 72t-8.5 52.5t-7 47t-3 58.5q0 63 50 102t114 39q27 0 34 -35t7 -76q0 -66 -12.5 -124t-12.5 -111q0 -115 1 -198t1 -153.5t1 -138t1 -147.5q0 -131 -51 -230.5t-137 -167t-202 -102.5t-245 -35q-109 0 -192.5 22.5t-140 75t-86 137.5t-29.5 212q0 55 2 105 t5 104.5t6 114t3 130.5q0 70 -4 135.5t-14 131.5q-6 35 -13.5 44t-12.5 13t-9 13.5t-4 43.5zM492 1800q0 33 29.5 55.5t58.5 22.5l12 -4q20 -6 45 -40t46.5 -77t36.5 -85t15 -66q0 -6 -7 -12.5t-13 -6.5q-12 0 -48 21.5t-75 54.5t-69.5 69.5t-30.5 67.5z" />
<glyph unicode="&#xda;" horiz-adv-x="1320" d="M82 1255v34.5t2 43.5q0 27 15.5 54.5t39 51t50 38t51.5 14.5q18 0 31.5 -16.5t22.5 -38t13 -45t4 -37.5q0 -59 -6 -109.5t-13 -121t-13.5 -178t-8.5 -283.5q0 -78 2 -148t7 -111q10 -154 92 -217t223 -63q223 0 347 96t124 311q0 68 -2 146t-5 155.5t-6 151.5t-5 137 q-2 43 -6.5 72t-8.5 52.5t-7 47t-3 58.5q0 63 50 102t114 39q27 0 34 -35t7 -76q0 -66 -12.5 -124t-12.5 -111q0 -115 1 -198t1 -153.5t1 -138t1 -147.5q0 -131 -51 -230.5t-137 -167t-202 -102.5t-245 -35q-109 0 -192.5 22.5t-140 75t-86 137.5t-29.5 212q0 55 2 105 t5 104.5t6 114t3 130.5q0 70 -4 135.5t-14 131.5q-6 35 -13.5 44t-12.5 13t-9 13.5t-4 43.5zM594 1599q6 27 21.5 67t36 81t43 74.5t44.5 48.5h17q27 -4 53.5 -25.5t26.5 -60.5q-6 -29 -37 -65t-68 -66.5t-70.5 -52t-46.5 -21.5q-6 2 -13 7t-7 13z" />
<glyph unicode="&#xdb;" horiz-adv-x="1320" d="M82 1255v34.5t2 43.5q0 27 15.5 54.5t39 51t50 38t51.5 14.5q18 0 31.5 -16.5t22.5 -38t13 -45t4 -37.5q0 -59 -6 -109.5t-13 -121t-13.5 -178t-8.5 -283.5q0 -78 2 -148t7 -111q10 -154 92 -217t223 -63q223 0 347 96t124 311q0 68 -2 146t-5 155.5t-6 151.5t-5 137 q-2 43 -6.5 72t-8.5 52.5t-7 47t-3 58.5q0 63 50 102t114 39q27 0 34 -35t7 -76q0 -66 -12.5 -124t-12.5 -111q0 -115 1 -198t1 -153.5t1 -138t1 -147.5q0 -131 -51 -230.5t-137 -167t-202 -102.5t-245 -35q-109 0 -192.5 22.5t-140 75t-86 137.5t-29.5 212q0 55 2 105 t5 104.5t6 114t3 130.5q0 70 -4 135.5t-14 131.5q-6 35 -13.5 44t-12.5 13t-9 13.5t-4 43.5zM434 1630q0 14 30 56.5t69.5 86.5t79.5 77.5t63 33.5q14 0 50 -34.5t70.5 -81t62.5 -90.5t28 -60q0 -8 -21.5 -21.5t-27.5 -15.5q-8 0 -31 25.5t-48.5 55.5t-52 55.5t-42.5 25.5 q-12 0 -40 -25.5t-57.5 -55.5t-54.5 -55.5t-31 -25.5q-12 0 -29.5 19.5t-17.5 29.5z" />
<glyph unicode="&#xdc;" horiz-adv-x="1320" d="M82 1255v34.5t2 43.5q0 27 15.5 54.5t39 51t50 38t51.5 14.5q18 0 31.5 -16.5t22.5 -38t13 -45t4 -37.5q0 -59 -6 -109.5t-13 -121t-13.5 -178t-8.5 -283.5q0 -78 2 -148t7 -111q10 -154 92 -217t223 -63q223 0 347 96t124 311q0 68 -2 146t-5 155.5t-6 151.5t-5 137 q-2 43 -6.5 72t-8.5 52.5t-7 47t-3 58.5q0 63 50 102t114 39q27 0 34 -35t7 -76q0 -66 -12.5 -124t-12.5 -111q0 -115 1 -198t1 -153.5t1 -138t1 -147.5q0 -131 -51 -230.5t-137 -167t-202 -102.5t-245 -35q-109 0 -192.5 22.5t-140 75t-86 137.5t-29.5 212q0 55 2 105 t5 104.5t6 114t3 130.5q0 70 -4 135.5t-14 131.5q-6 35 -13.5 44t-12.5 13t-9 13.5t-4 43.5zM412 1659q0 35 14 54.5t33 29.5q20 12 47 16q39 -4 66.5 -30.5t27.5 -61.5q0 -43 -28.5 -71.5t-67.5 -28.5q-33 0 -62.5 28.5t-29.5 63.5zM721 1659q0 35 14.5 54.5t32.5 29.5 q20 12 47 16q39 -4 66.5 -30.5t27.5 -61.5q0 -43 -28.5 -71.5t-67.5 -28.5q-33 0 -62.5 28.5t-29.5 63.5z" />
<glyph unicode="&#xdd;" horiz-adv-x="1312" d="M47 1395q0 57 26.5 87.5t98.5 30.5q25 0 38.5 -31.5t29.5 -60.5q49 -88 93 -163.5t87 -144.5t87 -134.5t93 -134.5q12 -18 25.5 -31.5t31.5 -13.5q23 0 38.5 17.5t21.5 29.5q45 76 92 147.5l94 143t96.5 146.5t98.5 159q27 45 53.5 56t62.5 11q23 0 36.5 -20.5 t13.5 -42.5q0 -23 -13.5 -48.5t-29.5 -47.5q-25 -33 -68 -92.5t-93 -130t-102.5 -146.5t-98.5 -143.5t-80 -118.5t-46 -72q-23 -41 -27 -112.5t-4 -141.5q0 -59 8.5 -93t17.5 -54.5t17.5 -35.5t8.5 -38q0 -33 -4.5 -67.5t-16.5 -62.5t-32.5 -46.5t-53.5 -18.5 q-37 0 -71.5 15.5t-34.5 52.5q0 57 5 125t5 143q0 43 -1 73t-2 54.5t-2 48t-1 52.5q0 49 -6.5 83.5t-18.5 63.5t-29.5 55.5t-37.5 57.5q-27 39 -68 96t-86 120.5l-90 127t-81 117t-58.5 89t-22.5 44.5zM586 1599q6 27 21.5 67t36 81t43 74.5t44.5 48.5h17q27 -4 53 -25.5 t26 -60.5q-6 -29 -36.5 -65t-67.5 -66.5t-71 -52t-46 -21.5q-6 2 -13 7t-7 13z" />
<glyph unicode="&#xde;" horiz-adv-x="1185" d="M90 1450q0 8 21.5 23.5t49 30t51.5 24.5t28 10q16 0 32.5 -6t30.5 -15.5t22.5 -17.5t8.5 -14q-4 -37 -6 -79t-2 -85q0 -16 2 -54t9 -77t21 -68.5t41 -29.5q53 12 96.5 29.5t93.5 33.5t115.5 27.5t163.5 11.5q63 0 114.5 -27.5t88.5 -72.5t57.5 -105.5t20.5 -124.5 q0 -152 -69.5 -266.5t-178 -200.5t-243 -146.5t-265.5 -105.5q-23 -12 -39 -60t-27.5 -104.5t-16.5 -109.5t-5 -74q0 -35 4 -50t10.5 -22.5t13.5 -10.5t13 -15q14 -20 17.5 -34.5t3.5 -43.5q0 -16 -3.5 -37.5t-12.5 -41t-25.5 -33t-40.5 -13.5q-53 0 -81 14.5t-41 39 t-15.5 55t-2.5 61.5q0 51 5.5 91t5.5 55q0 47 4 102t4 117q0 49 -11.5 68.5t-24.5 28.5t-24.5 17.5t-11.5 34.5q0 20 12.5 40t26.5 40.5t26.5 42t14.5 45.5q4 74 11 141.5t7 149.5q0 104 -3 221t-11 221.5t-21.5 184.5t-31.5 108q-12 20 -22.5 42t-10.5 34zM324 612 q0 -41 2 -83t4 -79.5t3 -65.5t1 -36q0 -45 11.5 -62.5t62.5 -17.5q86 0 187 46t190 122t148.5 174.5t59.5 202.5q0 68 -25.5 117t-65.5 80.5t-88 47t-93 15.5q-37 0 -96.5 -15.5t-117.5 -43t-106.5 -65.5t-62.5 -85q-4 -29 -7 -65.5t-5 -73.5t-2 -67.5v-45.5z" />
<glyph unicode="&#xdf;" horiz-adv-x="1265" d="M39 915q0 25 20.5 39.5t49.5 14.5t46 11t27.5 30.5t16.5 43t10 48.5q14 82 54 156.5t101.5 133t144.5 93.5t185 35q66 0 134.5 -16.5t124 -50.5t91 -84t35.5 -120q0 -61 -24.5 -106t-60.5 -83t-78 -70t-77.5 -64.5t-60 -68.5t-24.5 -83q0 -66 45 -111t162 -73 q47 -10 92 -39t79.5 -69t56 -87t21.5 -94q0 -90 -35.5 -153.5t-93 -103.5t-131 -58.5t-153.5 -18.5q-49 0 -95.5 10.5t-82 29t-56 46t-20.5 62.5q0 27 9 44t32 17q45 0 67.5 -17.5t43 -39t49 -39t87.5 -17.5q39 0 83 9.5t82 31t63.5 58.5t25.5 90q0 45 -16 79t-42 58.5 t-56.5 42t-61.5 29.5q-45 18 -96 35.5t-95 45t-74 69.5t-30 112t24 123t60.5 95t77.5 75t78 64.5t60.5 65.5t23.5 75q0 98 -69.5 150t-182.5 52q-66 0 -129 -27.5t-114.5 -77.5t-82 -122t-30.5 -160q0 -100 -1 -157.5t-3 -98.5t-3 -78.5t-3.5 -95t-3.5 -148.5t-1 -239 q0 -31 3.5 -45t7.5 -24.5t7 -21.5t3 -32q0 -51 -19.5 -87t-83.5 -36q-20 0 -33.5 4.5t-15.5 14.5q-6 123 -6 207q0 63 1 118.5t3 112.5t3 119.5t1 142.5q0 59 -13 105.5t-56 58.5q-29 6 -53.5 19.5t-24.5 39.5z" />
<glyph unicode="&#xe0;" horiz-adv-x="1083" d="M74 768q0 27 30.5 62.5t79.5 72.5t112.5 72t129.5 63q106 47 201.5 65.5t158.5 18.5q31 0 62 -10t55.5 -31.5t39.5 -52.5t15 -72q0 -25 -3 -85t-6 -131.5t-6 -142.5t-3 -116q0 -39 13.5 -54t29.5 -23.5t29.5 -17.5t13.5 -34q0 -23 -22.5 -38t-38.5 -29t-26.5 -29.5 t-10.5 -40.5q0 -31 -2 -68.5t-15 -97.5q-6 -25 -26.5 -35t-48.5 -10q-33 0 -42.5 25.5t-13.5 55.5t-11 55.5t-32 25.5q-33 0 -88 -27.5t-122.5 -61.5t-140.5 -61.5t-140 -27.5q-31 0 -59.5 6t-50 22.5t-35 46t-13.5 76.5q0 72 37 137.5t96.5 123t134 106.5t149.5 89 t142.5 69.5t114.5 46.5q35 12 41 46t6 74q0 86 -46 134.5t-114 48.5q-45 0 -98 -22.5t-106.5 -55.5t-99.5 -72t-75 -71q-33 -41 -56.5 -71t-68.5 -30q-27 0 -49 22.5t-22 53.5zM229 178q0 -39 26 -54t54 -15q20 0 57 13t80 33.5t89.5 45t85 47t67.5 40t39 23.5 q12 8 23.5 27.5t19.5 42t13 46.5t5 42q0 41 -16 64.5t-47 23.5q-8 0 -37 -11t-69.5 -31.5t-88 -47t-92.5 -59.5q-20 -12 -55 -37t-68.5 -56.5t-59.5 -67.5t-26 -69zM406 1425q0 33 29.5 55.5t58.5 22.5l12 -4q20 -6 45 -40t46.5 -77t36.5 -85t15 -66q0 -6 -7 -12.5t-13 -6.5 q-12 0 -48 21.5t-75 54.5t-69.5 70t-30.5 67z" />
<glyph unicode="&#xe1;" horiz-adv-x="1083" d="M74 768q0 27 30.5 62.5t79.5 72.5t112.5 72t129.5 63q106 47 201.5 65.5t158.5 18.5q31 0 62 -10t55.5 -31.5t39.5 -52.5t15 -72q0 -25 -3 -85t-6 -131.5t-6 -142.5t-3 -116q0 -39 13.5 -54t29.5 -23.5t29.5 -17.5t13.5 -34q0 -23 -22.5 -38t-38.5 -29t-26.5 -29.5 t-10.5 -40.5q0 -31 -2 -68.5t-15 -97.5q-6 -25 -26.5 -35t-48.5 -10q-33 0 -42.5 25.5t-13.5 55.5t-11 55.5t-32 25.5q-33 0 -88 -27.5t-122.5 -61.5t-140.5 -61.5t-140 -27.5q-31 0 -59.5 6t-50 22.5t-35 46t-13.5 76.5q0 72 37 137.5t96.5 123t134 106.5t149.5 89 t142.5 69.5t114.5 46.5q35 12 41 46t6 74q0 86 -46 134.5t-114 48.5q-45 0 -98 -22.5t-106.5 -55.5t-99.5 -72t-75 -71q-33 -41 -56.5 -71t-68.5 -30q-27 0 -49 22.5t-22 53.5zM229 178q0 -39 26 -54t54 -15q20 0 57 13t80 33.5t89.5 45t85 47t67.5 40t39 23.5 q12 8 23.5 27.5t19.5 42t13 46.5t5 42q0 41 -16 64.5t-47 23.5q-8 0 -37 -11t-69.5 -31.5t-88 -47t-92.5 -59.5q-20 -12 -55 -37t-68.5 -56.5t-59.5 -67.5t-26 -69zM424 1225q6 27 21.5 66.5t36 80.5t43 75t45.5 48h16q27 -4 53.5 -25.5t26.5 -60.5q-6 -29 -37 -64.5 t-67.5 -66.5t-70.5 -52.5t-46 -21.5q-6 2 -13.5 7.5t-7.5 13.5z" />
<glyph unicode="&#xe2;" horiz-adv-x="1083" d="M74 768q0 27 30.5 62.5t79.5 72.5t112.5 72t129.5 63q106 47 201.5 65.5t158.5 18.5q31 0 62 -10t55.5 -31.5t39.5 -52.5t15 -72q0 -25 -3 -85t-6 -131.5t-6 -142.5t-3 -116q0 -39 13.5 -54t29.5 -23.5t29.5 -17.5t13.5 -34q0 -23 -22.5 -38t-38.5 -29t-26.5 -29.5 t-10.5 -40.5q0 -31 -2 -68.5t-15 -97.5q-6 -25 -26.5 -35t-48.5 -10q-33 0 -42.5 25.5t-13.5 55.5t-11 55.5t-32 25.5q-33 0 -88 -27.5t-122.5 -61.5t-140.5 -61.5t-140 -27.5q-31 0 -59.5 6t-50 22.5t-35 46t-13.5 76.5q0 72 37 137.5t96.5 123t134 106.5t149.5 89 t142.5 69.5t114.5 46.5q35 12 41 46t6 74q0 86 -46 134.5t-114 48.5q-45 0 -98 -22.5t-106.5 -55.5t-99.5 -72t-75 -71q-33 -41 -56.5 -71t-68.5 -30q-27 0 -49 22.5t-22 53.5zM229 178q0 -39 26 -54t54 -15q20 0 57 13t80 33.5t89.5 45t85 47t67.5 40t39 23.5 q12 8 23.5 27.5t19.5 42t13 46.5t5 42q0 41 -16 64.5t-47 23.5q-8 0 -37 -11t-69.5 -31.5t-88 -47t-92.5 -59.5q-20 -12 -55 -37t-68.5 -56.5t-59.5 -67.5t-26 -69zM377 1255q0 14 29.5 56.5t69.5 86.5t80 77.5t62 33.5q14 0 50.5 -34.5t71 -80.5t62 -90t27.5 -61 q0 -8 -21.5 -21.5t-27.5 -15.5q-8 0 -30.5 25.5t-48 55.5t-52.5 55.5t-43 25.5q-12 0 -39.5 -25.5t-57.5 -55.5t-54.5 -55.5t-30.5 -25.5q-12 0 -29.5 19.5t-17.5 29.5z" />
<glyph unicode="&#xe3;" horiz-adv-x="1083" d="M74 768q0 27 30.5 62.5t79.5 72.5t112.5 72t129.5 63q106 47 201.5 65.5t158.5 18.5q31 0 62 -10t55.5 -31.5t39.5 -52.5t15 -72q0 -25 -3 -85t-6 -131.5t-6 -142.5t-3 -116q0 -39 13.5 -54t29.5 -23.5t29.5 -17.5t13.5 -34q0 -23 -22.5 -38t-38.5 -29t-26.5 -29.5 t-10.5 -40.5q0 -31 -2 -68.5t-15 -97.5q-6 -25 -26.5 -35t-48.5 -10q-33 0 -42.5 25.5t-13.5 55.5t-11 55.5t-32 25.5q-33 0 -88 -27.5t-122.5 -61.5t-140.5 -61.5t-140 -27.5q-31 0 -59.5 6t-50 22.5t-35 46t-13.5 76.5q0 72 37 137.5t96.5 123t134 106.5t149.5 89 t142.5 69.5t114.5 46.5q35 12 41 46t6 74q0 86 -46 134.5t-114 48.5q-45 0 -98 -22.5t-106.5 -55.5t-99.5 -72t-75 -71q-33 -41 -56.5 -71t-68.5 -30q-27 0 -49 22.5t-22 53.5zM229 178q0 -39 26 -54t54 -15q20 0 57 13t80 33.5t89.5 45t85 47t67.5 40t39 23.5 q12 8 23.5 27.5t19.5 42t13 46.5t5 42q0 41 -16 64.5t-47 23.5q-8 0 -37 -11t-69.5 -31.5t-88 -47t-92.5 -59.5q-20 -12 -55 -37t-68.5 -56.5t-59.5 -67.5t-26 -69zM331 1288q0 8 17.5 30.5t45 47.5t61.5 44.5t69 19.5q23 0 45 -8.5t42.5 -17.5t38 -17.5t34.5 -8.5 q25 0 41 8.5t29.5 17.5t22.5 17.5t17 8.5q18 0 29.5 -9.5t11.5 -19.5t-15.5 -34t-39 -48.5t-52 -43t-55.5 -18.5t-51 8.5t-45.5 19.5t-40 19.5t-33.5 8.5q-35 0 -56 -8.5t-34.5 -18.5t-21 -18t-13.5 -8q-10 0 -28.5 6t-18.5 22z" />
<glyph unicode="&#xe4;" horiz-adv-x="1083" d="M74 768q0 27 30.5 62.5t79.5 72.5t112.5 72t129.5 63q106 47 201.5 65.5t158.5 18.5q31 0 62 -10t55.5 -31.5t39.5 -52.5t15 -72q0 -25 -3 -85t-6 -131.5t-6 -142.5t-3 -116q0 -39 13.5 -54t29.5 -23.5t29.5 -17.5t13.5 -34q0 -23 -22.5 -38t-38.5 -29t-26.5 -29.5 t-10.5 -40.5q0 -31 -2 -68.5t-15 -97.5q-6 -25 -26.5 -35t-48.5 -10q-33 0 -42.5 25.5t-13.5 55.5t-11 55.5t-32 25.5q-33 0 -88 -27.5t-122.5 -61.5t-140.5 -61.5t-140 -27.5q-31 0 -59.5 6t-50 22.5t-35 46t-13.5 76.5q0 72 37 137.5t96.5 123t134 106.5t149.5 89 t142.5 69.5t114.5 46.5q35 12 41 46t6 74q0 86 -46 134.5t-114 48.5q-45 0 -98 -22.5t-106.5 -55.5t-99.5 -72t-75 -71q-33 -41 -56.5 -71t-68.5 -30q-27 0 -49 22.5t-22 53.5zM229 178q0 -39 26 -54t54 -15q20 0 57 13t80 33.5t89.5 45t85 47t67.5 40t39 23.5 q12 8 23.5 27.5t19.5 42t13 46.5t5 42q0 41 -16 64.5t-47 23.5q-8 0 -37 -11t-69.5 -31.5t-88 -47t-92.5 -59.5q-20 -12 -55 -37t-68.5 -56.5t-59.5 -67.5t-26 -69zM342 1284q0 35 14.5 54.5t32.5 29.5q20 12 47 16q39 -4 66.5 -30.5t27.5 -61.5q0 -43 -28.5 -71.5 t-67.5 -28.5q-33 0 -62.5 28.5t-29.5 63.5zM651 1284q0 35 14.5 54.5t32.5 29.5q20 12 47 16q39 -4 67 -30.5t28 -61.5q0 -43 -29 -71.5t-68 -28.5q-33 0 -62.5 28.5t-29.5 63.5z" />
<glyph unicode="&#xe5;" horiz-adv-x="1083" d="M74 768q0 27 30.5 62.5t79.5 72.5t112.5 72t129.5 63q106 47 201.5 65.5t158.5 18.5q31 0 62 -10t55.5 -31.5t39.5 -52.5t15 -72q0 -25 -3 -85t-6 -131.5t-6 -142.5t-3 -116q0 -39 13.5 -54t29.5 -23.5t29.5 -17.5t13.5 -34q0 -23 -22.5 -38t-38.5 -29t-26.5 -29.5 t-10.5 -40.5q0 -31 -2 -68.5t-15 -97.5q-6 -25 -26.5 -35t-48.5 -10q-33 0 -42.5 25.5t-13.5 55.5t-11 55.5t-32 25.5q-33 0 -88 -27.5t-122.5 -61.5t-140.5 -61.5t-140 -27.5q-31 0 -59.5 6t-50 22.5t-35 46t-13.5 76.5q0 72 37 137.5t96.5 123t134 106.5t149.5 89 t142.5 69.5t114.5 46.5q35 12 41 46t6 74q0 86 -46 134.5t-114 48.5q-45 0 -98 -22.5t-106.5 -55.5t-99.5 -72t-75 -71q-33 -41 -56.5 -71t-68.5 -30q-27 0 -49 22.5t-22 53.5zM229 178q0 -39 26 -54t54 -15q20 0 57 13t80 33.5t89.5 45t85 47t67.5 40t39 23.5 q12 8 23.5 27.5t19.5 42t13 46.5t5 42q0 41 -16 64.5t-47 23.5q-8 0 -37 -11t-69.5 -31.5t-88 -47t-92.5 -59.5q-20 -12 -55 -37t-68.5 -56.5t-59.5 -67.5t-26 -69zM389 1343q0 31 14.5 59t39 50.5t54 35.5t60.5 13q49 0 92 -36.5t43 -114.5q0 -43 -15 -72t-38 -46.5 t-51.5 -24.5t-52.5 -7q-61 0 -103.5 40t-42.5 103zM463 1350q0 -29 17.5 -54.5t60.5 -25.5q45 0 59 28.5t14 59.5q0 23 -19 45t-50 22q-35 0 -58.5 -21.5t-23.5 -53.5z" />
<glyph unicode="&#xe6;" horiz-adv-x="1812" d="M59 768q0 18 11.5 39.5t38.5 40.5q72 51 154.5 100t166.5 88t164 61.5t147 22.5q90 0 144.5 -58t68.5 -175q35 39 92.5 81t120 77.5t123 58t103.5 22.5q59 0 117.5 -25.5t104.5 -66.5t74.5 -95t28.5 -112q0 -23 -3 -56.5t-7 -61.5q-2 -14 -37 -28.5t-92 -29t-129 -28 t-144.5 -25.5t-142 -21.5t-121.5 -13.5q-35 -4 -60.5 -23.5t-42.5 -49t-25.5 -63.5t-8.5 -67q0 -49 9.5 -91t33 -72.5t64.5 -49t106 -18.5q86 0 168 19.5t152.5 47t126 56.5t86.5 47q35 20 47 33.5t41 13.5q20 0 23 -15.5t3 -25.5q0 -29 -27.5 -57.5t-70.5 -56t-93 -51 t-93 -42.5q-129 -51 -234.5 -79.5t-218.5 -28.5q-53 0 -91 11t-65.5 29.5t-50 40t-43.5 42.5l-21 21t-42 9q-47 -14 -100.5 -41.5t-113 -54.5t-123 -47t-126.5 -20q-33 0 -63.5 7t-55 26.5t-40 52t-15.5 86.5q0 63 33.5 124.5t90 117t128 104.5t146.5 89t145.5 71.5 t128.5 52.5q16 6 25 19t14.5 31.5t6.5 39t1 37.5q0 70 -39 113.5t-109 43.5q-82 0 -158.5 -47t-143 -102t-123 -101.5t-97.5 -46.5q-27 0 -47.5 19.5t-20.5 50.5zM229 176q0 -39 19.5 -58.5t48.5 -19.5q51 0 109.5 22.5t112.5 52.5t97.5 60t63.5 46q47 45 66.5 87t19.5 95 q0 27 -13.5 51.5t-66.5 24.5q-27 0 -72 -16.5t-95 -44t-102 -63.5t-93 -76t-68 -82t-27 -79zM1028 743q0 -39 10.5 -55t38.5 -16q72 0 159 13t210 32q57 10 74.5 40.5t17.5 71.5q0 78 -54 119t-126 41q-45 0 -102.5 -27.5t-107.5 -67.5t-85 -82t-35 -69z" />
<glyph unicode="&#xe7;" horiz-adv-x="1073" d="M41 254q0 80 35 166t94 171t141 166t174 152q39 29 90.5 58.5t103.5 54.5t102 40t87 15q20 0 39 -20.5t33 -54t22.5 -74.5t8.5 -84q0 -41 -35 -61.5t-76 -20.5q-23 0 -32 14.5t-20 32.5t-30.5 32.5t-62.5 14.5q-35 0 -90.5 -32.5t-117 -85t-122.5 -117t-111.5 -128 t-81 -119t-30.5 -89.5q0 -49 17.5 -79t44 -45.5t60 -20.5t68.5 -5q51 0 114.5 12.5t130.5 31t132.5 43t122.5 48.5q57 25 110.5 54.5t97.5 57.5t74.5 46t41.5 18q25 0 24 -51q0 -39 -58.5 -86t-149.5 -94t-202.5 -89t-218.5 -69q-6 -12 -19 -28.5t-25.5 -35t-22.5 -40 t-10 -45.5q0 -29 43 -29q31 0 64.5 8.5t62.5 8.5t41 -21.5t12 -44.5q0 -41 -26.5 -86t-72 -84t-102.5 -63.5t-119 -24.5q-20 0 -31.5 16.5t-11.5 36.5q0 18 10.5 37t28.5 19q6 0 17.5 -3.5t31.5 -3.5q12 0 37 7.5t48.5 21.5t41 32.5t17.5 43.5q0 27 -35 26q-29 0 -45.5 -11 t-52.5 -11q-39 0 -62.5 14t-23.5 39q0 57 39.5 110.5t80.5 90.5q-47 -10 -88 -15.5t-75 -5.5q-59 0 -110.5 16.5t-90.5 47.5t-60.5 75t-21.5 99z" />
<glyph unicode="&#xe8;" horiz-adv-x="1228" d="M43 262q0 59 9 102.5t21.5 73t21.5 46t9 24.5q0 18 -3 28.5t-6 17.5t-5 15.5t-2 20.5q0 18 14.5 32.5t36 33t48 43t51.5 65.5q23 35 71.5 90t114 107.5t143.5 89t158 36.5q61 0 119.5 -24.5t104.5 -66.5t75 -96t29 -112q0 -18 -1 -42.5t-12 -51.5q-6 -16 -30.5 -31.5 t-56 -27.5t-67.5 -21.5t-65 -13.5q-57 -8 -109.5 -16.5t-106.5 -16.5t-112.5 -17t-125.5 -18q-37 -4 -60.5 -13t-46.5 -36q-35 -43 -51 -105.5t-16 -107.5q0 -84 53 -138t143 -54q111 0 225.5 27.5t221 69.5t200.5 89t166 86q47 25 62.5 38t35.5 13q25 0 25 -20 q0 -25 -15.5 -48.5t-40 -43t-55 -38t-61.5 -34.5q-70 -37 -154 -79t-182 -81t-208.5 -67.5t-231.5 -36.5q-106 0 -172 29.5t-101.5 75.5t-48 100.5t-12.5 103.5zM356 694q0 -41 21.5 -50t81.5 -9q37 0 78 4t81.5 10t78.5 13.5t67 11.5q10 2 28.5 6t37 16.5t31.5 31.5t13 52 q0 76 -54 122t-128 46q-43 0 -101.5 -27.5t-110.5 -67.5t-88 -84t-36 -75zM492 1425q0 33 29.5 55.5t58.5 22.5l12 -4q20 -6 45 -40t46.5 -77t36.5 -85t15 -66q0 -6 -7 -12.5t-13 -6.5q-12 0 -48 21.5t-75 54.5t-69.5 70t-30.5 67z" />
<glyph unicode="&#xe9;" horiz-adv-x="1228" d="M43 262q0 59 9 102.5t21.5 73t21.5 46t9 24.5q0 18 -3 28.5t-6 17.5t-5 15.5t-2 20.5q0 18 14.5 32.5t36 33t48 43t51.5 65.5q23 35 71.5 90t114 107.5t143.5 89t158 36.5q61 0 119.5 -24.5t104.5 -66.5t75 -96t29 -112q0 -18 -1 -42.5t-12 -51.5q-6 -16 -30.5 -31.5 t-56 -27.5t-67.5 -21.5t-65 -13.5q-57 -8 -109.5 -16.5t-106.5 -16.5t-112.5 -17t-125.5 -18q-37 -4 -60.5 -13t-46.5 -36q-35 -43 -51 -105.5t-16 -107.5q0 -84 53 -138t143 -54q111 0 225.5 27.5t221 69.5t200.5 89t166 86q47 25 62.5 38t35.5 13q25 0 25 -20 q0 -25 -15.5 -48.5t-40 -43t-55 -38t-61.5 -34.5q-70 -37 -154 -79t-182 -81t-208.5 -67.5t-231.5 -36.5q-106 0 -172 29.5t-101.5 75.5t-48 100.5t-12.5 103.5zM356 694q0 -41 21.5 -50t81.5 -9q37 0 78 4t81.5 10t78.5 13.5t67 11.5q10 2 28.5 6t37 16.5t31.5 31.5t13 52 q0 76 -54 122t-128 46q-43 0 -101.5 -27.5t-110.5 -67.5t-88 -84t-36 -75zM577 1225q6 27 21.5 66.5t36 80.5t43 75t45.5 48h16q27 -4 53.5 -25.5t26.5 -60.5q-6 -29 -37 -64.5t-67.5 -66.5t-70.5 -52.5t-46 -21.5q-6 2 -13.5 7.5t-7.5 13.5z" />
<glyph unicode="&#xea;" horiz-adv-x="1228" d="M43 262q0 59 9 102.5t21.5 73t21.5 46t9 24.5q0 18 -3 28.5t-6 17.5t-5 15.5t-2 20.5q0 18 14.5 32.5t36 33t48 43t51.5 65.5q23 35 71.5 90t114 107.5t143.5 89t158 36.5q61 0 119.5 -24.5t104.5 -66.5t75 -96t29 -112q0 -18 -1 -42.5t-12 -51.5q-6 -16 -30.5 -31.5 t-56 -27.5t-67.5 -21.5t-65 -13.5q-57 -8 -109.5 -16.5t-106.5 -16.5t-112.5 -17t-125.5 -18q-37 -4 -60.5 -13t-46.5 -36q-35 -43 -51 -105.5t-16 -107.5q0 -84 53 -138t143 -54q111 0 225.5 27.5t221 69.5t200.5 89t166 86q47 25 62.5 38t35.5 13q25 0 25 -20 q0 -25 -15.5 -48.5t-40 -43t-55 -38t-61.5 -34.5q-70 -37 -154 -79t-182 -81t-208.5 -67.5t-231.5 -36.5q-106 0 -172 29.5t-101.5 75.5t-48 100.5t-12.5 103.5zM356 694q0 -41 21.5 -50t81.5 -9q37 0 78 4t81.5 10t78.5 13.5t67 11.5q10 2 28.5 6t37 16.5t31.5 31.5t13 52 q0 76 -54 122t-128 46q-43 0 -101.5 -27.5t-110.5 -67.5t-88 -84t-36 -75zM391 1255q0 14 29.5 56.5t69.5 86.5t80 77.5t62 33.5q14 0 50.5 -34.5t71 -80.5t62 -90t27.5 -61q0 -8 -21.5 -21.5t-27.5 -15.5q-8 0 -30.5 25.5t-48 55.5t-52.5 55.5t-43 25.5q-12 0 -39.5 -25.5 t-57.5 -55.5t-54.5 -55.5t-30.5 -25.5q-12 0 -29.5 19.5t-17.5 29.5z" />
<glyph unicode="&#xeb;" horiz-adv-x="1228" d="M43 262q0 59 9 102.5t21.5 73t21.5 46t9 24.5q0 18 -3 28.5t-6 17.5t-5 15.5t-2 20.5q0 18 14.5 32.5t36 33t48 43t51.5 65.5q23 35 71.5 90t114 107.5t143.5 89t158 36.5q61 0 119.5 -24.5t104.5 -66.5t75 -96t29 -112q0 -18 -1 -42.5t-12 -51.5q-6 -16 -30.5 -31.5 t-56 -27.5t-67.5 -21.5t-65 -13.5q-57 -8 -109.5 -16.5t-106.5 -16.5t-112.5 -17t-125.5 -18q-37 -4 -60.5 -13t-46.5 -36q-35 -43 -51 -105.5t-16 -107.5q0 -84 53 -138t143 -54q111 0 225.5 27.5t221 69.5t200.5 89t166 86q47 25 62.5 38t35.5 13q25 0 25 -20 q0 -25 -15.5 -48.5t-40 -43t-55 -38t-61.5 -34.5q-70 -37 -154 -79t-182 -81t-208.5 -67.5t-231.5 -36.5q-106 0 -172 29.5t-101.5 75.5t-48 100.5t-12.5 103.5zM356 694q0 -41 21.5 -50t81.5 -9q37 0 78 4t81.5 10t78.5 13.5t67 11.5q10 2 28.5 6t37 16.5t31.5 31.5t13 52 q0 76 -54 122t-128 46q-43 0 -101.5 -27.5t-110.5 -67.5t-88 -84t-36 -75zM424 1284q0 35 14.5 54.5t32.5 29.5q20 12 47 16q39 -4 66.5 -30.5t27.5 -61.5q0 -43 -28.5 -71.5t-67.5 -28.5q-33 0 -62.5 28.5t-29.5 63.5zM733 1284q0 35 14.5 54.5t32.5 29.5q20 12 47 16 q39 -4 67 -30.5t28 -61.5q0 -43 -29 -71.5t-68 -28.5q-33 0 -62.5 28.5t-29.5 63.5z" />
<glyph unicode="&#xec;" horiz-adv-x="415" d="M86 1425q0 33 29.5 55.5t58.5 22.5l12 -4q20 -6 45 -40t46.5 -77t36.5 -85t15 -66q0 -6 -7 -12.5t-13 -6.5q-12 0 -48 21.5t-75 54.5t-69.5 70t-30.5 67zM123 977q0 16 2 31.5t6 35.5q4 4 39 5q37 0 76 -10.5t39 -30.5q0 -29 -2 -65t-7 -83q-4 -76 -10 -171t-6 -204 q0 -123 9.5 -196.5t19.5 -122.5q10 -27 15 -60.5t5 -50.5q0 -4 -3 -17t-9 -27.5t-15.5 -25t-23.5 -10.5q-37 0 -62.5 16.5t-41 38t-21.5 43t-6 33.5q0 33 2 81.5t6 103.5q0 98 6 210.5t6 237.5q0 70 -12 123t-12 115z" />
<glyph unicode="&#xed;" horiz-adv-x="415" d="M86 1225q6 27 21.5 66.5t36 80.5t43 75t45.5 48h16q27 -4 53.5 -25.5t26.5 -60.5q-6 -29 -37 -64.5t-67.5 -66.5t-70.5 -52.5t-46 -21.5q-6 2 -13.5 7.5t-7.5 13.5zM123 977q0 16 2 31.5t6 35.5q4 4 39 5q37 0 76 -10.5t39 -30.5q0 -29 -2 -65t-7 -83q-4 -76 -10 -171 t-6 -204q0 -123 9.5 -196.5t19.5 -122.5q10 -27 15 -60.5t5 -50.5q0 -4 -3 -17t-9 -27.5t-15.5 -25t-23.5 -10.5q-37 0 -62.5 16.5t-41 38t-21.5 43t-6 33.5q0 33 2 81.5t6 103.5q0 98 6 210.5t6 237.5q0 70 -12 123t-12 115z" />
<glyph unicode="&#xee;" horiz-adv-x="415" d="M-14 1255q0 14 29.5 56.5t69.5 86.5t80 77.5t62 33.5q14 0 50.5 -34.5t71 -80.5t62 -90t27.5 -61q0 -8 -21.5 -21.5t-27.5 -15.5q-8 0 -30.5 25.5t-48 55.5t-52.5 55.5t-43 25.5q-12 0 -39.5 -25.5t-57.5 -55.5t-54.5 -55.5t-30.5 -25.5q-12 0 -29.5 19.5t-17.5 29.5z M123 977q0 16 2 31.5t6 35.5q4 4 39 5q37 0 76 -10.5t39 -30.5q0 -29 -2 -65t-7 -83q-4 -76 -10 -171t-6 -204q0 -123 9.5 -196.5t19.5 -122.5q10 -27 15 -60.5t5 -50.5q0 -4 -3 -17t-9 -27.5t-15.5 -25t-23.5 -10.5q-37 0 -62.5 16.5t-41 38t-21.5 43t-6 33.5q0 33 2 81.5 t6 103.5q0 98 6 210.5t6 237.5q0 70 -12 123t-12 115z" />
<glyph unicode="&#xef;" horiz-adv-x="415" d="M-61 1284q0 35 14.5 54.5t32.5 29.5q20 12 47 16q39 -4 66.5 -30.5t27.5 -61.5q0 -43 -28.5 -71.5t-67.5 -28.5q-33 0 -62.5 28.5t-29.5 63.5zM123 977q0 16 2 31.5t6 35.5q4 4 39 5q37 0 76 -10.5t39 -30.5q0 -29 -2 -65t-7 -83q-4 -76 -10 -171t-6 -204 q0 -123 9.5 -196.5t19.5 -122.5q10 -27 15 -60.5t5 -50.5q0 -4 -3 -17t-9 -27.5t-15.5 -25t-23.5 -10.5q-37 0 -62.5 16.5t-41 38t-21.5 43t-6 33.5q0 33 2 81.5t6 103.5q0 98 6 210.5t6 237.5q0 70 -12 123t-12 115zM248 1284q0 35 14.5 54.5t32.5 29.5q20 12 47 16 q39 -4 67 -30.5t28 -61.5q0 -43 -29 -71.5t-68 -28.5q-33 0 -62.5 28.5t-29.5 63.5z" />
<glyph unicode="&#xf0;" horiz-adv-x="1067" d="M45 258q0 49 20.5 105.5t57.5 119t86 128t106 130.5q27 29 62 64t71.5 67.5t73.5 58t68 36.5q70 31 69 77q0 37 -46 82t-111 99q-35 -29 -65.5 -54.5t-49.5 -46.5q-12 -12 -22 -12t-17.5 10.5t-7.5 22.5q0 19 16 35q6 6 17.5 18t24 24.5t23.5 25t17 18.5q-31 25 -61.5 50 t-55 50t-40 46.5t-15.5 35.5q0 33 25.5 52.5t48.5 19.5q35 0 92 -46.5t123 -107.5q35 25 63.5 50.5t47.5 41.5q4 4 10 4q16 0 26.5 -11t10.5 -24q0 -8 -11.5 -18t-25.5 -20q-10 -10 -28.5 -26.5t-45.5 -47.5q18 -20 42 -46t48.5 -51.5t46 -49t37.5 -42.5q68 -68 112 -134 t70.5 -136t37 -145.5t10.5 -159.5q0 -68 -35 -134.5t-91.5 -128t-130 -112.5t-150.5 -90t-151.5 -60.5t-136.5 -21.5q-113 0 -189.5 62.5t-76.5 191.5zM180 266q0 -59 33 -91t119 -32q61 0 152 35t177.5 93.5t147.5 135t61 160.5q0 49 -3 84t-10 64.5t-21.5 56t-34.5 59.5 q-16 27 -31.5 47.5t-56.5 20.5t-90 -41q-217 -186 -330 -336.5t-113 -255.5z" />
<glyph unicode="&#xf1;" horiz-adv-x="1148" d="M84 678q0 31 7 48t16.5 28.5t17.5 20.5t8 22v80q0 51 -3 71.5t-7 28.5q-2 4 -2 10q0 20 14.5 37.5t36 31t47 21.5t49.5 8q27 0 27 -26q0 -27 -4 -35t-4 -25q0 -51 12 -68.5t39 -17.5q51 0 109.5 25t122 54.5t131 54t139.5 24.5q37 0 69.5 -14.5t55 -38t36 -51t13.5 -54.5 q0 -53 -2 -87.5t-3 -65.5t-3 -62.5t-2 -76.5q0 -141 6 -209q4 -55 15 -97.5t23.5 -78t21.5 -67.5t9 -65q0 -18 -7 -28t-19 -35q-23 -49 -58 -49q-16 0 -37.5 7t-31.5 24q-20 31 -31.5 85t-18 115.5t-7.5 124t-1 107.5q2 63 4 116q2 47 3.5 93.5t1.5 68.5q0 104 -17.5 158.5 t-91.5 54.5q-55 0 -118.5 -20.5t-122 -48t-106.5 -56t-75 -45.5q-14 -10 -28.5 -30.5t-25.5 -47t-18.5 -55.5t-9.5 -55q-4 -57 -5 -124t-1 -126q0 -35 6 -68.5t14.5 -63.5t14.5 -53.5t6 -37.5q0 -43 -21.5 -82t-68.5 -39q-37 0 -56.5 15.5t-28.5 40t-11 56t-2 62.5 q0 41 4 88t10 95t10 95.5t4 85.5q0 27 -8 47.5t-19.5 38t-19.5 31t-8 29.5zM325 1288q0 8 17.5 30.5t45 47.5t61.5 44.5t69 19.5q23 0 45 -8.5t42.5 -17.5t38 -17.5t34.5 -8.5q25 0 41 8.5t29.5 17.5t22.5 17.5t17 8.5q18 0 29.5 -9.5t11.5 -19.5t-15.5 -34t-39 -48.5 t-52 -43t-55.5 -18.5t-51 8.5t-45.5 19.5t-40 19.5t-33.5 8.5q-35 0 -56 -8.5t-34.5 -18.5t-21 -18t-13.5 -8q-10 0 -28.5 6t-18.5 22z" />
<glyph unicode="&#xf2;" horiz-adv-x="1153" d="M63 334q0 82 11.5 123t25.5 71q10 23 19.5 45.5t13.5 47.5q23 135 79 229.5t167 155.5q59 33 131 54t147 21q115 0 198 -48t137.5 -126t80 -176t25.5 -199q0 -92 -27 -155.5t-67.5 -109.5t-90 -79.5t-96.5 -66.5q-33 -25 -66.5 -46.5t-76.5 -39t-99.5 -27.5t-132.5 -10 q-31 0 -94 15.5t-126.5 53t-111 103.5t-47.5 164zM205 379q0 -55 28.5 -102.5t74.5 -82t106.5 -54t124.5 -19.5q49 0 86 10t66.5 25.5t54 33t49.5 33.5q35 20 68.5 47t61 65t45 92t17.5 130q0 82 -31.5 151.5t-85 121t-123 80t-143.5 28.5q-59 0 -97 -12.5t-62.5 -32 t-40 -46t-29.5 -56.5q-12 -27 -28.5 -52.5t-39.5 -48.5q-25 -27 -36 -46t-17 -37.5t-10 -39t-13 -51.5q-12 -37 -19 -69.5t-7 -67.5zM455 1425q0 33 29.5 55.5t58.5 22.5l12 -4q20 -6 45 -40t46.5 -77t36.5 -85t15 -66q0 -6 -7 -12.5t-13 -6.5q-12 0 -48 21.5t-75 54.5 t-69.5 70t-30.5 67z" />
<glyph unicode="&#xf3;" horiz-adv-x="1153" d="M63 334q0 82 11.5 123t25.5 71q10 23 19.5 45.5t13.5 47.5q23 135 79 229.5t167 155.5q59 33 131 54t147 21q115 0 198 -48t137.5 -126t80 -176t25.5 -199q0 -92 -27 -155.5t-67.5 -109.5t-90 -79.5t-96.5 -66.5q-33 -25 -66.5 -46.5t-76.5 -39t-99.5 -27.5t-132.5 -10 q-31 0 -94 15.5t-126.5 53t-111 103.5t-47.5 164zM205 379q0 -55 28.5 -102.5t74.5 -82t106.5 -54t124.5 -19.5q49 0 86 10t66.5 25.5t54 33t49.5 33.5q35 20 68.5 47t61 65t45 92t17.5 130q0 82 -31.5 151.5t-85 121t-123 80t-143.5 28.5q-59 0 -97 -12.5t-62.5 -32 t-40 -46t-29.5 -56.5q-12 -27 -28.5 -52.5t-39.5 -48.5q-25 -27 -36 -46t-17 -37.5t-10 -39t-13 -51.5q-12 -37 -19 -69.5t-7 -67.5zM454 1225q6 27 21.5 66.5t36 80.5t43 75t45.5 48h16q27 -4 53.5 -25.5t26.5 -60.5q-6 -29 -37 -64.5t-67.5 -66.5t-70.5 -52.5t-46 -21.5 q-6 2 -13.5 7.5t-7.5 13.5z" />
<glyph unicode="&#xf4;" horiz-adv-x="1153" d="M63 334q0 82 11.5 123t25.5 71q10 23 19.5 45.5t13.5 47.5q23 135 79 229.5t167 155.5q59 33 131 54t147 21q115 0 198 -48t137.5 -126t80 -176t25.5 -199q0 -92 -27 -155.5t-67.5 -109.5t-90 -79.5t-96.5 -66.5q-33 -25 -66.5 -46.5t-76.5 -39t-99.5 -27.5t-132.5 -10 q-31 0 -94 15.5t-126.5 53t-111 103.5t-47.5 164zM205 379q0 -55 28.5 -102.5t74.5 -82t106.5 -54t124.5 -19.5q49 0 86 10t66.5 25.5t54 33t49.5 33.5q35 20 68.5 47t61 65t45 92t17.5 130q0 82 -31.5 151.5t-85 121t-123 80t-143.5 28.5q-59 0 -97 -12.5t-62.5 -32 t-40 -46t-29.5 -56.5q-12 -27 -28.5 -52.5t-39.5 -48.5q-25 -27 -36 -46t-17 -37.5t-10 -39t-13 -51.5q-12 -37 -19 -69.5t-7 -67.5zM400 1255q0 14 29.5 56.5t69.5 86.5t80 77.5t62 33.5q14 0 50.5 -34.5t71 -80.5t62 -90t27.5 -61q0 -8 -21.5 -21.5t-27.5 -15.5 q-8 0 -30.5 25.5t-48 55.5t-52.5 55.5t-43 25.5q-12 0 -39.5 -25.5t-57.5 -55.5t-54.5 -55.5t-30.5 -25.5q-12 0 -29.5 19.5t-17.5 29.5z" />
<glyph unicode="&#xf5;" horiz-adv-x="1153" d="M63 334q0 82 11.5 123t25.5 71q10 23 19.5 45.5t13.5 47.5q23 135 79 229.5t167 155.5q59 33 131 54t147 21q115 0 198 -48t137.5 -126t80 -176t25.5 -199q0 -92 -27 -155.5t-67.5 -109.5t-90 -79.5t-96.5 -66.5q-33 -25 -66.5 -46.5t-76.5 -39t-99.5 -27.5t-132.5 -10 q-31 0 -94 15.5t-126.5 53t-111 103.5t-47.5 164zM205 379q0 -55 28.5 -102.5t74.5 -82t106.5 -54t124.5 -19.5q49 0 86 10t66.5 25.5t54 33t49.5 33.5q35 20 68.5 47t61 65t45 92t17.5 130q0 82 -31.5 151.5t-85 121t-123 80t-143.5 28.5q-59 0 -97 -12.5t-62.5 -32 t-40 -46t-29.5 -56.5q-12 -27 -28.5 -52.5t-39.5 -48.5q-25 -27 -36 -46t-17 -37.5t-10 -39t-13 -51.5q-12 -37 -19 -69.5t-7 -67.5zM327 1288q0 8 17.5 30.5t45 47.5t61.5 44.5t69 19.5q23 0 45 -8.5t42.5 -17.5t38 -17.5t34.5 -8.5q25 0 41 8.5t29.5 17.5t22.5 17.5 t17 8.5q18 0 29.5 -9.5t11.5 -19.5t-15.5 -34t-39 -48.5t-52 -43t-55.5 -18.5t-51 8.5t-45.5 19.5t-40 19.5t-33.5 8.5q-35 0 -56 -8.5t-34.5 -18.5t-21 -18t-13.5 -8q-10 0 -28.5 6t-18.5 22z" />
<glyph unicode="&#xf6;" horiz-adv-x="1153" d="M63 334q0 82 11.5 123t25.5 71q10 23 19.5 45.5t13.5 47.5q23 135 79 229.5t167 155.5q59 33 131 54t147 21q115 0 198 -48t137.5 -126t80 -176t25.5 -199q0 -92 -27 -155.5t-67.5 -109.5t-90 -79.5t-96.5 -66.5q-33 -25 -66.5 -46.5t-76.5 -39t-99.5 -27.5t-132.5 -10 q-31 0 -94 15.5t-126.5 53t-111 103.5t-47.5 164zM205 379q0 -55 28.5 -102.5t74.5 -82t106.5 -54t124.5 -19.5q49 0 86 10t66.5 25.5t54 33t49.5 33.5q35 20 68.5 47t61 65t45 92t17.5 130q0 82 -31.5 151.5t-85 121t-123 80t-143.5 28.5q-59 0 -97 -12.5t-62.5 -32 t-40 -46t-29.5 -56.5q-12 -27 -28.5 -52.5t-39.5 -48.5q-25 -27 -36 -46t-17 -37.5t-10 -39t-13 -51.5q-12 -37 -19 -69.5t-7 -67.5zM307 1284q0 35 14.5 54.5t32.5 29.5q20 12 47 16q39 -4 66.5 -30.5t27.5 -61.5q0 -43 -28.5 -71.5t-67.5 -28.5q-33 0 -62.5 28.5 t-29.5 63.5zM616 1284q0 35 14.5 54.5t32.5 29.5q20 12 47 16q39 -4 67 -30.5t28 -61.5q0 -43 -29 -71.5t-68 -28.5q-33 0 -62.5 28.5t-29.5 63.5z" />
<glyph unicode="&#xf7;" horiz-adv-x="1200" d="M86 598q0 23 19.5 43.5t29.5 22.5q203 23 423 32t460 9q27 0 49.5 -10.5t22.5 -37.5q0 -49 -40 -69.5t-83 -20.5q-27 0 -44.5 2t-39 5.5t-54 5.5t-88.5 2q-182 0 -403 -25q-47 -4 -102.5 -7t-108.5 -7q-14 4 -27.5 21.5t-13.5 33.5zM520 260q0 41 22.5 77t57.5 36 q12 0 27.5 -4t30 -15.5t24.5 -31t10 -52.5q0 -41 -24.5 -69.5t-63.5 -28.5q-33 0 -58.5 26.5t-25.5 61.5zM520 999q0 41 22.5 77t57.5 36t52.5 -16.5t27.5 -36.5q10 -23 12 -51q0 -39 -24.5 -69t-63.5 -30q-33 0 -58.5 28t-25.5 62z" />
<glyph unicode="&#xf8;" horiz-adv-x="1146" d="M37 39q16 16 32.5 34.5t47.5 47.5q-35 41 -47.5 101.5t-12.5 119.5q0 43 5.5 90t21.5 90q8 16 14 39t17 57q18 78 40.5 136.5t51.5 103.5t69.5 81t96.5 67q59 33 130.5 54t147.5 21q37 0 80 -10t84 -27.5t75 -40t56 -45.5q51 51 82 80t45 41l43 -41l-27.5 -27.5l-37 -37 t-37 -37.5t-27.5 -31q47 -80 71.5 -158.5t24.5 -164.5q0 -74 -22.5 -140.5t-57 -122t-75.5 -97.5t-80 -66q-78 -47 -132 -78t-95 -48.5t-76 -23.5t-76 -6q-78 0 -153.5 20.5t-151.5 67.5l-82 -92zM199 377q0 -31 10 -60.5t33 -68.5l602 604q-70 51 -131.5 69.5t-114.5 18.5 q-55 0 -98 -15.5t-77 -41t-57.5 -56t-41.5 -61.5q-53 -94 -89 -199.5t-36 -189.5zM281 199q10 -10 22 -19q10 -8 22.5 -16t24.5 -14q45 -25 78 -32t78 -7q68 0 147.5 38.5t148 104t115 154t46.5 186.5q0 45 -16.5 109.5t-55.5 111.5q-66 -66 -145.5 -147.5t-162.5 -165.5 t-162 -163z" />
<glyph unicode="&#xf9;" horiz-adv-x="1173" d="M100 754q0 80 5.5 143t21.5 92t59 51.5t82 22.5q12 0 18.5 -13.5t9.5 -33t3 -39v-31.5q0 -59 -4 -113.5t-9 -121t-9.5 -155.5t-4.5 -218q0 -111 58.5 -161t152.5 -50q66 0 136.5 38t130 119t98.5 206.5t39 300.5q0 10 -5 32.5t-10.5 47t-10.5 46t-5 29.5q0 20 12.5 43 t31 41.5t42 30.5t45.5 12q20 0 32.5 -19.5t18.5 -48t7.5 -61.5t1.5 -59q0 -47 -3.5 -88t-7.5 -81t-7 -81t-3 -90q0 -160 10.5 -254t22.5 -146.5t22.5 -74t10.5 -35.5q0 -10 -11.5 -19.5t-30 -16.5t-40 -11t-41.5 -4q-23 0 -36 22.5t-22.5 54t-14.5 67.5t-11 62 q0 20 -11.5 37t-35.5 17q-25 0 -44.5 -21.5t-50.5 -52.5q-27 -29 -67.5 -59.5t-96 -58t-125 -45t-155.5 -17.5q-39 0 -74 21.5t-62.5 55t-44 76.5t-16.5 86q0 47 3.5 74t3.5 68q0 115 -4.5 201.5t-4.5 181.5zM443 1425q0 33 29.5 55.5t58.5 22.5l12 -4q20 -6 45 -40 t46.5 -77t36.5 -85t15 -66q0 -6 -7 -12.5t-13 -6.5q-12 0 -48 21.5t-75 54.5t-69.5 70t-30.5 67z" />
<glyph unicode="&#xfa;" horiz-adv-x="1173" d="M100 754q0 80 5.5 143t21.5 92t59 51.5t82 22.5q12 0 18.5 -13.5t9.5 -33t3 -39v-31.5q0 -59 -4 -113.5t-9 -121t-9.5 -155.5t-4.5 -218q0 -111 58.5 -161t152.5 -50q66 0 136.5 38t130 119t98.5 206.5t39 300.5q0 10 -5 32.5t-10.5 47t-10.5 46t-5 29.5q0 20 12.5 43 t31 41.5t42 30.5t45.5 12q20 0 32.5 -19.5t18.5 -48t7.5 -61.5t1.5 -59q0 -47 -3.5 -88t-7.5 -81t-7 -81t-3 -90q0 -160 10.5 -254t22.5 -146.5t22.5 -74t10.5 -35.5q0 -10 -11.5 -19.5t-30 -16.5t-40 -11t-41.5 -4q-23 0 -36 22.5t-22.5 54t-14.5 67.5t-11 62 q0 20 -11.5 37t-35.5 17q-25 0 -44.5 -21.5t-50.5 -52.5q-27 -29 -67.5 -59.5t-96 -58t-125 -45t-155.5 -17.5q-39 0 -74 21.5t-62.5 55t-44 76.5t-16.5 86q0 47 3.5 74t3.5 68q0 115 -4.5 201.5t-4.5 181.5zM571 1225q6 27 21.5 66.5t36 80.5t43 75t45.5 48h16 q27 -4 53.5 -25.5t26.5 -60.5q-6 -29 -37 -64.5t-67.5 -66.5t-70.5 -52.5t-46 -21.5q-6 2 -13.5 7.5t-7.5 13.5z" />
<glyph unicode="&#xfb;" horiz-adv-x="1173" d="M100 754q0 80 5.5 143t21.5 92t59 51.5t82 22.5q12 0 18.5 -13.5t9.5 -33t3 -39v-31.5q0 -59 -4 -113.5t-9 -121t-9.5 -155.5t-4.5 -218q0 -111 58.5 -161t152.5 -50q66 0 136.5 38t130 119t98.5 206.5t39 300.5q0 10 -5 32.5t-10.5 47t-10.5 46t-5 29.5q0 20 12.5 43 t31 41.5t42 30.5t45.5 12q20 0 32.5 -19.5t18.5 -48t7.5 -61.5t1.5 -59q0 -47 -3.5 -88t-7.5 -81t-7 -81t-3 -90q0 -160 10.5 -254t22.5 -146.5t22.5 -74t10.5 -35.5q0 -10 -11.5 -19.5t-30 -16.5t-40 -11t-41.5 -4q-23 0 -36 22.5t-22.5 54t-14.5 67.5t-11 62 q0 20 -11.5 37t-35.5 17q-25 0 -44.5 -21.5t-50.5 -52.5q-27 -29 -67.5 -59.5t-96 -58t-125 -45t-155.5 -17.5q-39 0 -74 21.5t-62.5 55t-44 76.5t-16.5 86q0 47 3.5 74t3.5 68q0 115 -4.5 201.5t-4.5 181.5zM365 1255q0 14 29.5 56.5t69.5 86.5t80 77.5t62 33.5 q14 0 50.5 -34.5t71 -80.5t62 -90t27.5 -61q0 -8 -21.5 -21.5t-27.5 -15.5q-8 0 -30.5 25.5t-48 55.5t-52.5 55.5t-43 25.5q-12 0 -39.5 -25.5t-57.5 -55.5t-54.5 -55.5t-30.5 -25.5q-12 0 -29.5 19.5t-17.5 29.5z" />
<glyph unicode="&#xfc;" horiz-adv-x="1173" d="M100 754q0 80 5.5 143t21.5 92t59 51.5t82 22.5q12 0 18.5 -13.5t9.5 -33t3 -39v-31.5q0 -59 -4 -113.5t-9 -121t-9.5 -155.5t-4.5 -218q0 -111 58.5 -161t152.5 -50q66 0 136.5 38t130 119t98.5 206.5t39 300.5q0 10 -5 32.5t-10.5 47t-10.5 46t-5 29.5q0 20 12.5 43 t31 41.5t42 30.5t45.5 12q20 0 32.5 -19.5t18.5 -48t7.5 -61.5t1.5 -59q0 -47 -3.5 -88t-7.5 -81t-7 -81t-3 -90q0 -160 10.5 -254t22.5 -146.5t22.5 -74t10.5 -35.5q0 -10 -11.5 -19.5t-30 -16.5t-40 -11t-41.5 -4q-23 0 -36 22.5t-22.5 54t-14.5 67.5t-11 62 q0 20 -11.5 37t-35.5 17q-25 0 -44.5 -21.5t-50.5 -52.5q-27 -29 -67.5 -59.5t-96 -58t-125 -45t-155.5 -17.5q-39 0 -74 21.5t-62.5 55t-44 76.5t-16.5 86q0 47 3.5 74t3.5 68q0 115 -4.5 201.5t-4.5 181.5zM338 1284q0 35 14.5 54.5t32.5 29.5q20 12 47 16 q39 -4 66.5 -30.5t27.5 -61.5q0 -43 -28.5 -71.5t-67.5 -28.5q-33 0 -62.5 28.5t-29.5 63.5zM647 1284q0 35 14.5 54.5t32.5 29.5q20 12 47 16q39 -4 67 -30.5t28 -61.5q0 -43 -29 -71.5t-68 -28.5q-33 0 -62.5 28.5t-29.5 63.5z" />
<glyph unicode="&#xfd;" d="M-31 -334q0 16 13.5 34.5t32 34t38 26t29.5 10.5q12 0 30.5 -14.5t42 -31t50 -30.5t57.5 -14q41 0 95.5 20t102.5 63t81.5 109t33.5 156q0 43 -11 77.5t-30.5 65.5t-44 61.5t-51.5 65.5q-59 80 -124.5 180.5t-121 197.5t-91 181t-35.5 133q0 18 31.5 33.5t72.5 15.5 q10 0 30.5 -7t22.5 -9q12 -31 43 -95.5t72 -143t87 -163.5t89 -154t80 -114t57 -45q23 0 38.5 20.5t31.5 59.5q25 76 55.5 175.5t66.5 195.5t74.5 178t77.5 125q4 4 29 4q35 0 65.5 -9t30.5 -24q0 -18 -33.5 -98t-83 -191.5t-103.5 -240.5t-93 -246q-20 -59 -43 -130 t-49.5 -140.5t-56 -132t-62.5 -105.5q-33 -41 -74 -80t-89 -67.5t-101 -46t-109 -17.5q-45 0 -90 12.5t-82 31t-59.5 41t-22.5 42.5zM516 1225q6 27 21.5 66.5t36 80.5t43 75t45.5 48h16q27 -4 53.5 -25.5t26.5 -60.5q-6 -29 -37 -64.5t-67.5 -66.5t-70.5 -52.5t-46 -21.5 q-6 2 -13.5 7.5t-7.5 13.5z" />
<glyph unicode="&#xfe;" horiz-adv-x="1185" d="M49 1442q0 18 21.5 29.5t49 16.5t55.5 6t42 1q8 0 16.5 -34t15.5 -85t13 -112.5t12 -116.5q0 -39 3.5 -76t10.5 -65.5t19 -46t31 -17.5q20 0 58 15.5t79 36l80 40t59 25.5q41 14 88.5 22.5t94.5 8.5q150 0 241.5 -86t91.5 -252q0 -162 -71.5 -278t-183 -200t-245.5 -143 t-259 -106q-39 -18 -51.5 -53t-12.5 -85q0 -31 9.5 -59.5t20.5 -58t20.5 -58t9.5 -57.5q0 -57 -24 -101.5t-75 -44.5q-41 0 -63.5 16.5t-33.5 46.5t-13 67.5t-2 80.5q0 25 -1 56.5t-2 62.5t-2 57.5t-1 38.5q0 29 -9.5 43.5t-22 24.5t-21.5 23.5t-9 42.5q0 18 8 35.5t19.5 34 t20.5 34.5t14 39q8 51 10 92t2 76q0 150 -11.5 324t-31.5 372q-6 66 -17.5 115t-23.5 91t-20.5 80t-8.5 81zM299 621q0 -31 1 -83.5t2 -105.5t2 -100t1 -68q0 -33 11.5 -53.5t28.5 -32.5t39 -16t42 -4q16 0 30.5 2t26.5 8q96 35 184.5 79t156 106.5t108.5 146.5t41 196 q0 57 -23.5 105.5t-63.5 84.5t-93.5 55.5t-110.5 19.5q-92 0 -164 -26t-121 -71t-73.5 -107.5t-24.5 -135.5z" />
<glyph unicode="&#xff;" d="M-31 -334q0 16 13.5 34.5t32 34t38 26t29.5 10.5q12 0 30.5 -14.5t42 -31t50 -30.5t57.5 -14q41 0 95.5 20t102.5 63t81.5 109t33.5 156q0 43 -11 77.5t-30.5 65.5t-44 61.5t-51.5 65.5q-59 80 -124.5 180.5t-121 197.5t-91 181t-35.5 133q0 18 31.5 33.5t72.5 15.5 q10 0 30.5 -7t22.5 -9q12 -31 43 -95.5t72 -143t87 -163.5t89 -154t80 -114t57 -45q23 0 38.5 20.5t31.5 59.5q25 76 55.5 175.5t66.5 195.5t74.5 178t77.5 125q4 4 29 4q35 0 65.5 -9t30.5 -24q0 -18 -33.5 -98t-83 -191.5t-103.5 -240.5t-93 -246q-20 -59 -43 -130 t-49.5 -140.5t-56 -132t-62.5 -105.5q-33 -41 -74 -80t-89 -67.5t-101 -46t-109 -17.5q-45 0 -90 12.5t-82 31t-59.5 41t-22.5 42.5zM354 1284q0 35 14.5 54.5t32.5 29.5q20 12 47 16q39 -4 66.5 -30.5t27.5 -61.5q0 -43 -28.5 -71.5t-67.5 -28.5q-33 0 -62.5 28.5 t-29.5 63.5zM663 1284q0 35 14.5 54.5t32.5 29.5q20 12 47 16q39 -4 67 -30.5t28 -61.5q0 -43 -29 -71.5t-68 -28.5q-33 0 -62.5 28.5t-29.5 63.5z" />
<glyph unicode="&#x152;" horiz-adv-x="2000" d="M47 535q0 43 9.5 105t28.5 132t48 142.5t70 140.5q68 111 152.5 198.5t183 149t207 94.5t221.5 33q106 0 202 -39q90 0 169 3t153 7t148.5 7t156.5 3q51 0 69.5 -15t18.5 -50t-21.5 -57.5t-41.5 -22.5q-4 0 -6 2q-29 23 -69 30t-81 7q-59 0 -133 -2t-139 -6l-156 -8 q-29 -8 -44 -57.5t-22.5 -108t-8.5 -109.5t-1 -65q0 -29 1 -74t5 -78q2 -12 14.5 -22.5t65.5 -10.5q121 0 249 12.5t233 12.5q14 0 33.5 -1t34.5 -5t26.5 -12.5t11.5 -20.5q0 -20 -9 -38.5t-23.5 -32t-30 -21.5t-27.5 -8q-49 0 -88 15t-90 15q-104 0 -186.5 -10t-123.5 -10 t-60 -15.5t-26 -31.5q-4 -8 -7 -47t-3 -93q0 -39 1 -87t2 -94t2 -87t3 -65q4 -55 42 -74t79 -19q80 0 132.5 8.5t104.5 18.5t116.5 18.5t166.5 8.5q59 0 96.5 -25.5t37.5 -73.5q0 -39 -13.5 -66.5t-42.5 -27.5q-33 16 -69.5 35.5t-102.5 19.5q-104 0 -181 -10t-137.5 -21.5 t-112.5 -21.5t-109 -10q-25 0 -50.5 2t-48 12.5t-44 32t-38.5 62.5q-59 -29 -115.5 -52.5t-111.5 -40t-112.5 -24.5t-120.5 -8q-88 0 -175.5 24.5t-157 86t-112.5 168t-43 272.5zM213 567q0 -92 27.5 -176t82 -147.5t132 -100.5t178.5 -37q45 0 95 10.5t98 27t91.5 36 t73.5 37.5q0 178 8.5 286.5t8.5 149.5q0 39 -10.5 56.5t-23.5 29t-23.5 24.5t-10.5 42q0 12 12.5 22.5t27.5 21.5t27.5 25t12.5 39q0 96 -5 168t-5 146q0 45 -3 75.5t-15.5 50t-38 28t-68.5 8.5q-90 0 -166 -29t-131.5 -77t-87 -109.5t-31.5 -124.5q0 -41 -5 -72t-22 -31 q-37 0 -56 17.5t-36 17.5q-23 0 -47 -35t-43.5 -92t-33 -132t-13.5 -155z" />
<glyph unicode="&#x153;" horiz-adv-x="2031" d="M39 346q0 61 14.5 129t33.5 129.5t39.5 110.5t33.5 73q33 70 86 124.5t116.5 92t134 57t140.5 19.5q57 0 121.5 -26.5t124 -74.5t108.5 -113.5t74 -143.5q31 70 92.5 141.5t135 130t152.5 95t144 36.5q61 0 119.5 -24.5t105 -66.5t75 -96t28.5 -112q0 -23 -3 -51t-11 -57 q-4 -16 -31 -30.5t-62.5 -25t-71.5 -18.5t-59 -10q-61 -8 -114.5 -15.5t-105.5 -14.5t-106.5 -14t-115.5 -16q-51 -6 -86 -34.5t-55.5 -67.5t-29.5 -81t-9 -75q0 -41 17.5 -75.5t48 -60t71.5 -40t88 -14.5q88 0 164 17.5t140.5 41t115.5 50t88 45.5q10 6 31.5 17t46 22.5 t47 20.5t39.5 9q12 0 18 -14t6 -33q0 -39 -33.5 -63.5t-72.5 -49.5q-43 -27 -119 -61.5t-164 -65t-176 -51t-158 -20.5q-158 0 -237.5 53t-108.5 170q-45 -43 -93 -83t-101 -71.5t-113.5 -50t-130.5 -18.5q-84 0 -163 23.5t-138 68.5t-95 110.5t-36 151.5zM180 381 q0 -59 29 -104.5t73 -76t96 -47t101 -16.5q74 0 155 34t148.5 95.5t111.5 148.5t44 193q0 47 -16.5 91t-34.5 75q-49 82 -128 123t-175 41q-102 0 -178 -58.5t-126.5 -144.5t-75 -182t-24.5 -172zM1229 743q0 -35 26.5 -52t67.5 -17q106 0 185 17.5t149 27.5q39 6 59.5 29.5 t20.5 80.5q0 78 -54.5 120t-128.5 42q-55 0 -113.5 -31.5t-105.5 -72.5t-76.5 -83t-29.5 -61z" />
<glyph unicode="&#x178;" horiz-adv-x="1312" d="M47 1395q0 57 26.5 87.5t98.5 30.5q25 0 38.5 -31.5t29.5 -60.5q49 -88 93 -163.5t87 -144.5t87 -134.5t93 -134.5q12 -18 25.5 -31.5t31.5 -13.5q23 0 38.5 17.5t21.5 29.5q45 76 92 147.5l94 143t96.5 146.5t98.5 159q27 45 53.5 56t62.5 11q23 0 36.5 -20.5 t13.5 -42.5q0 -23 -13.5 -48.5t-29.5 -47.5q-25 -33 -68 -92.5t-93 -130t-102.5 -146.5t-98.5 -143.5t-80 -118.5t-46 -72q-23 -41 -27 -112.5t-4 -141.5q0 -59 8.5 -93t17.5 -54.5t17.5 -35.5t8.5 -38q0 -33 -4.5 -67.5t-16.5 -62.5t-32.5 -46.5t-53.5 -18.5 q-37 0 -71.5 15.5t-34.5 52.5q0 57 5 125t5 143q0 43 -1 73t-2 54.5t-2 48t-1 52.5q0 49 -6.5 83.5t-18.5 63.5t-29.5 55.5t-37.5 57.5q-27 39 -68 96t-86 120.5l-90 127t-81 117t-58.5 89t-22.5 44.5zM408 1659q0 35 14 54.5t33 29.5q20 12 47 16q39 -4 66.5 -30.5 t27.5 -61.5q0 -43 -28.5 -71.5t-67.5 -28.5q-33 0 -62.5 28.5t-29.5 63.5zM717 1659q0 35 14 54.5t33 29.5q20 12 47 16q39 -4 66.5 -30.5t27.5 -61.5q0 -43 -28.5 -71.5t-67.5 -28.5q-33 0 -62.5 28.5t-29.5 63.5z" />
<glyph unicode="&#x2c6;" horiz-adv-x="0" d="M-434 1255q0 14 29.5 56.5t69.5 86.5t80 77.5t62 33.5q14 0 50.5 -34.5t71 -80.5t62 -90t27.5 -61q0 -8 -21.5 -21.5t-27.5 -15.5q-8 0 -30.5 25.5t-48 55.5t-52.5 55.5t-43 25.5q-12 0 -39.5 -25.5t-57.5 -55.5t-54.5 -55.5t-30.5 -25.5q-12 0 -29.5 19.5t-17.5 29.5z " />
<glyph unicode="&#x2dc;" horiz-adv-x="0" d="M-498 1288q0 8 17.5 30.5t45 47.5t61.5 44.5t69 19.5q23 0 45 -8.5t42.5 -17.5t38 -17.5t34.5 -8.5q25 0 41 8.5t29.5 17.5t22.5 17.5t17 8.5q18 0 29.5 -9.5t11.5 -19.5t-15.5 -34t-39 -48.5t-52 -43t-55.5 -18.5t-51 8.5t-45.5 19.5t-40 19.5t-33.5 8.5q-35 0 -56 -8.5 t-34.5 -18.5t-21 -18t-13.5 -8q-10 0 -28.5 6t-18.5 22z" />
<glyph unicode="&#x2000;" horiz-adv-x="942" />
<glyph unicode="&#x2001;" horiz-adv-x="1884" />
<glyph unicode="&#x2002;" horiz-adv-x="942" />
<glyph unicode="&#x2003;" horiz-adv-x="1884" />
<glyph unicode="&#x2004;" horiz-adv-x="628" />
<glyph unicode="&#x2005;" horiz-adv-x="471" />
<glyph unicode="&#x2006;" horiz-adv-x="314" />
<glyph unicode="&#x2007;" horiz-adv-x="314" />
<glyph unicode="&#x2008;" horiz-adv-x="235" />
<glyph unicode="&#x2009;" horiz-adv-x="376" />
<glyph unicode="&#x200a;" horiz-adv-x="104" />
<glyph unicode="&#x2010;" horiz-adv-x="712" d="M90 528q0 14 16.5 18.5t45.5 8.5q92 10 187 13t187 3q29 0 58.5 -10t29.5 -43q0 -31 -13 -59.5t-40 -28.5q-10 0 -18 6t-15.5 13.5t-16.5 13.5t-24 6q-78 0 -175 -6t-185 -6q-8 0 -14.5 9t-11.5 21.5t-8 24.5t-3 16z" />
<glyph unicode="&#x2011;" horiz-adv-x="712" d="M90 528q0 14 16.5 18.5t45.5 8.5q92 10 187 13t187 3q29 0 58.5 -10t29.5 -43q0 -31 -13 -59.5t-40 -28.5q-10 0 -18 6t-15.5 13.5t-16.5 13.5t-24 6q-78 0 -175 -6t-185 -6q-8 0 -14.5 9t-11.5 21.5t-8 24.5t-3 16z" />
<glyph unicode="&#x2012;" horiz-adv-x="712" d="M90 528q0 14 16.5 18.5t45.5 8.5q92 10 187 13t187 3q29 0 58.5 -10t29.5 -43q0 -31 -13 -59.5t-40 -28.5q-10 0 -18 6t-15.5 13.5t-16.5 13.5t-24 6q-78 0 -175 -6t-185 -6q-8 0 -14.5 9t-11.5 21.5t-8 24.5t-3 16z" />
<glyph unicode="&#x2013;" horiz-adv-x="1134" d="M94 487q0 23 8.5 49.5t18.5 28.5q203 23 423 32t460 9q27 0 49 -10t22 -37q0 -25 -12 -51.5t-31.5 -50t-43 -37.5t-44.5 -14q-27 0 -43 12t-36.5 26.5t-51.5 26.5t-86 12q-94 0 -192.5 -6t-208.5 -16l-201 -19q-31 6 -31 45z" />
<glyph unicode="&#x2014;" horiz-adv-x="1478" d="M92 543q0 16 31 24q72 20 148.5 26.5t150.5 6.5q92 0 161.5 -1t114.5 -1q121 0 208 3t165 7q72 4 134.5 6t119.5 2q29 0 54.5 -17t25.5 -44q0 -18 -20.5 -38.5t-43.5 -27.5q-31 -10 -51 -20t-30 -10q-41 0 -72 7t-64.5 15t-75.5 15.5t-106 7.5q-78 0 -145.5 -1t-131 -4 t-126 -7.5t-127.5 -8.5q-66 -4 -128.5 -11t-127.5 -7q-23 0 -43.5 27.5t-20.5 50.5z" />
<glyph unicode="&#x2018;" horiz-adv-x="446" d="M41 1034q0 37 23.5 87t57.5 104.5t70.5 106.5t61.5 93q27 41 48.5 76t57.5 35q14 0 22.5 -17.5t8.5 -39.5q0 -18 -26.5 -75.5t-62.5 -127.5t-70.5 -138.5t-51.5 -109.5q-6 -16 -29.5 -32.5t-48.5 -18.5q-25 2 -43 18.5t-18 38.5z" />
<glyph unicode="&#x2019;" horiz-adv-x="468" d="M55 1032q53 106 103 201q20 39 41.5 80t41 77.5t36 67.5t26.5 49q16 29 55 29q20 0 38 -23.5t18 -39.5q0 -31 -20.5 -79t-52.5 -103.5t-71 -110t-74.5 -99.5t-63.5 -72.5t-40 -27.5q-16 0 -26.5 18.5t-10.5 32.5z" />
<glyph unicode="&#x201a;" horiz-adv-x="468" d="M57 -207q53 106 103 201q20 39 41.5 80t41 77.5t36 67.5t26.5 49q16 29 55 29q20 0 38 -23.5t18 -40.5q0 -31 -20.5 -79t-52.5 -103t-71 -109.5t-74.5 -99.5t-63.5 -72.5t-40 -27.5q-16 0 -26.5 18.5t-10.5 32.5z" />
<glyph unicode="&#x201c;" horiz-adv-x="831" d="M29 1034q0 45 32.5 110.5t78.5 134.5t93 132.5t78 106.5q4 6 25.5 8t25.5 2q20 0 25.5 -15.5t5.5 -35.5q0 -41 -37 -94.5t-81 -113t-82.5 -124t-42.5 -125.5q-4 -39 -56 -43q-27 0 -46 17.5t-19 39.5zM381 1067q0 66 32.5 133.5t82 126.5t106 107t103.5 75q29 16 49 17 q20 0 31.5 -18.5t11.5 -41.5q0 -25 -26 -50t-62 -56q-63 -55 -120 -127t-77 -166q-10 -39 -21.5 -68.5t-44.5 -29.5t-49 31.5t-16 66.5z" />
<glyph unicode="&#x201d;" horiz-adv-x="743" d="M43 1067q0 20 21.5 56t52 80t63.5 95.5t53 106.5l39 102q6 14 22.5 21.5t35.5 7.5q20 0 33.5 -10t13.5 -27q0 -47 -18.5 -100t-47 -105.5t-64.5 -99.5t-68 -84t-57.5 -58.5t-35.5 -21.5q-16 0 -29.5 11.5t-13.5 25.5zM309 1061q0 16 37 53t86 90t95.5 121t64.5 148 q4 16 19.5 20t27.5 4q18 0 36.5 -6t18.5 -29q0 -43 -21.5 -93t-55 -100t-72.5 -96.5t-75 -82t-62.5 -57t-34.5 -21.5q-23 0 -43.5 17.5t-20.5 31.5z" />
<glyph unicode="&#x201e;" horiz-adv-x="743" d="M31 -244q53 106 102 201q20 39 42 80t41.5 78t36 67.5t26.5 48.5q16 29 55 29q20 0 37.5 -23.5t17.5 -39.5q0 -31 -20.5 -79t-52 -103.5t-70.5 -110t-75 -99.5t-63.5 -72.5t-39.5 -27.5q-16 0 -26.5 18.5t-10.5 32.5zM313 -258q53 106 103 201q20 39 41.5 79.5t41 77.5 t36 68t26.5 49q16 29 55 29q20 0 38 -23.5t18 -40.5q0 -31 -20.5 -79t-52.5 -103t-71 -109.5t-74.5 -99.5t-63.5 -72.5t-40 -27.5q-16 0 -26.5 18.5t-10.5 32.5z" />
<glyph unicode="&#x2022;" horiz-adv-x="681" d="M182 496q0 59 16.5 102t44 69.5t62.5 39t72 12.5q27 0 56.5 -12.5t54 -37t42 -60.5t21.5 -81q0 -41 -19.5 -74.5t-49 -57t-66.5 -37t-76 -13.5q-61 0 -109.5 42t-48.5 108z" />
<glyph unicode="&#x2026;" horiz-adv-x="1218" d="M86 86q0 41 22.5 78t57.5 37t52.5 -16.5t27.5 -37.5q10 -23 12 -51q0 -41 -24.5 -69.5t-63.5 -28.5q-33 0 -58.5 26.5t-25.5 61.5zM520 86q0 41 22.5 78t57.5 37t52.5 -16.5t27.5 -37.5q10 -23 12 -51q0 -41 -24.5 -69.5t-63.5 -28.5q-33 0 -58.5 26.5t-25.5 61.5z M948 84q0 41 24.5 79t59.5 38q33 0 50.5 -16.5t27.5 -37.5q10 -23 12 -51q-2 -41 -26.5 -69.5t-63.5 -28.5q-33 0 -58.5 25.5t-25.5 60.5z" />
<glyph unicode="&#x202f;" horiz-adv-x="376" />
<glyph unicode="&#x2039;" horiz-adv-x="710" d="M61 567q0 6 26 38t66 76t87 94t88 92t69.5 71t34.5 29q12 0 29.5 -12.5t17.5 -28.5q0 -10 -21.5 -37t-52 -64t-68.5 -76.5t-68.5 -75.5t-52 -63.5t-21.5 -36.5q0 -8 22.5 -31.5t55 -53t71.5 -62.5t72 -62.5t55.5 -52t22.5 -30.5q0 -23 -20.5 -41.5t-31.5 -18.5 q-6 0 -35.5 23.5t-72.5 58.5t-90 78t-88 81t-68 67.5t-27 37.5z" />
<glyph unicode="&#x203a;" horiz-adv-x="710" d="M176 274q0 8 22.5 31t56.5 51.5t74 61.5t73.5 62.5t56 52t22.5 30.5t-21.5 35t-52 62.5t-68.5 75.5t-68.5 75t-52 61.5t-21.5 36.5q0 16 20.5 28.5t30.5 12.5l362 -383q0 -8 -26.5 -37.5t-67.5 -67.5t-88 -81t-90 -78t-72.5 -58.5t-36.5 -23.5q-10 0 -31.5 15.5 t-21.5 37.5z" />
<glyph unicode="&#x205f;" horiz-adv-x="471" />
<glyph unicode="&#x20ac;" horiz-adv-x="1550" d="M39 598q0 4 1 17.5t4 26.5t7 24.5t10 11.5h150l12 110q-180 0 -180 13q0 4 1 17t4 26.5t7 25t11 11.5h178q14 129 78.5 243.5t157.5 202.5t204 139.5t219 51.5q72 0 134.5 -10.5t109.5 -33t73.5 -58.5t26.5 -89q0 -29 -19.5 -46t-45.5 -17q-29 0 -44.5 12t-29.5 29 q-14 16 -31.5 33.5t-42 30.5t-59.5 22.5t-84 9.5q-104 0 -188.5 -37t-149 -105.5t-107.5 -165t-67 -212.5h678q33 0 43 -11.5t10 -17.5q0 -20 -11.5 -39.5t-21.5 -24.5h-712q-2 -23 -4.5 -46t-2.5 -64q174 0 273.5 1t154 1h82h60.5q39 0 49 -19.5t10 -21.5 q0 -10 -14.5 -30.5t-38.5 -20.5h-569q0 -90 30.5 -174t88 -149.5t140.5 -105.5t189 -40t187 39t139.5 86t94.5 85t50 38q20 -2 34.5 -13.5t14.5 -27.5q0 -25 -41 -81.5t-114.5 -112.5t-174 -100t-219.5 -44q-123 0 -226 41t-179 118.5t-119 189.5t-43 251q-66 0 -101.5 1 t-52 2t-20.5 3t-4 4z" />
<glyph unicode="&#x2122;" horiz-adv-x="1101" d="M55 1485q0 12 7.5 22.5t17.5 10.5q37 0 83 -1t89 -1h139q39 0 45 -8.5t6 -24.5t-9 -20.5t-38 -4.5h-110v-444q0 -20 -7.5 -32.5t-33.5 -12.5q-20 0 -26.5 13t-6.5 30v444q-23 0 -62.5 1t-68.5 1q-25 0 -25 27zM410 979q6 25 22.5 90.5t36.5 142t39.5 150.5t30.5 117 q10 45 39 45q12 0 23 -9.5t15 -29.5q4 -16 16.5 -55t28 -85.5t32 -92.5t26.5 -74q6 -16 10 -27.5t12 -11.5q16 0 20.5 15t12.5 38q6 20 20.5 63t30 89.5t28.5 85t17 55.5q4 10 12.5 22.5t22.5 12.5q16 0 23.5 -13.5t11.5 -23.5q29 -129 59.5 -252t61.5 -252h-80 q-6 18 -16.5 72.5t-22.5 113t-23.5 103.5t-19.5 45q-12 0 -18.5 -13.5t-12.5 -29.5t-17 -49t-23.5 -68t-26 -67.5t-21.5 -51.5q-10 -18 -23.5 -27.5t-21.5 -9.5q-6 0 -17 12.5t-20 28.5q-10 23 -22 52.5t-25.5 62.5t-27 62.5t-21.5 52.5q-6 16 -10 33.5t-14 17.5 t-16.5 -23.5t-8.5 -33.5q-6 -31 -16.5 -71t-20.5 -81t-19.5 -77t-15.5 -54h-71z" />
<glyph unicode="&#x25fc;" horiz-adv-x="1064" d="M0 0v1065h1065v-1065h-1065z" />
<glyph unicode="&#xfb01;" horiz-adv-x="1093" d="M39 958q0 31 26.5 50.5t57.5 19.5q29 0 45 9.5t24.5 25.5t11.5 36.5t5 45.5q14 84 54 154.5t100.5 120.5t139.5 79t169 29q31 0 73.5 -7.5t80.5 -23.5t65 -41.5t27 -62.5q0 -70 -91 -70q-20 0 -42.5 13.5t-48 30.5t-56.5 30.5t-68 13.5q-55 0 -103 -21.5t-85 -60.5 t-57.5 -94t-20.5 -123q0 -49 18.5 -63.5t59.5 -14.5q49 0 120.5 1t131.5 5q117 6 211 7q33 0 62.5 -8.5t29.5 -26.5q0 -25 -1 -58.5t-5 -72.5q0 -78 -5 -157t-5 -171q0 -84 5 -169t15 -148q8 -47 18.5 -84t10.5 -84q0 -33 -11.5 -63t-42.5 -30q-18 0 -39.5 7.5t-40 22.5 t-31.5 38t-13 53q0 100 6 215q4 86 6 222.5t2 283.5q0 35 -9.5 63.5t-64.5 28.5q-29 0 -74 1t-93 2t-93 2t-76 1q-43 0 -65.5 -5t-33.5 -15t-13 -26.5t-2 -39.5q0 -33 -4.5 -84t-4.5 -88v-133q0 -166 3.5 -256t7.5 -133t7 -57.5t3 -28.5q0 -16 -1 -31.5t-8.5 -29 t-21.5 -21.5t-39 -8t-51.5 12.5t-28.5 28.5q-4 47 -4 85v69q0 35 1 64.5t2 60t3 67.5t5 84q2 57 3 118.5t1 121.5q0 41 -3.5 81t-10.5 72.5t-22.5 54t-39.5 27.5q-35 8 -58.5 17.5t-23.5 35.5z" />
<glyph unicode="&#xfb02;" horiz-adv-x="1083" d="M47 879q0 25 17.5 45t41.5 20q63 0 82 27.5t23 77.5q14 137 74.5 226t136.5 141t152.5 72.5t123.5 20.5q37 0 60.5 -2t42 -6t37 -11t45.5 -17q18 -6 32.5 -24.5t23.5 -43.5t13 -51.5t4 -48.5q0 -111 -10 -199t-22 -168q0 -4 -1 -7t-1 -7q-12 -78 -21.5 -155t-9.5 -173 q0 -129 10 -209t22.5 -136t22.5 -102.5t10 -103.5q0 -16 -11 -28.5t-29.5 -20.5t-40 -13.5t-39.5 -5.5q-25 1 -33 13q-6 27 -13.5 70.5t-12.5 94t-8 101.5t-3 94v93.5t1 111.5t2 108.5t5 86.5q2 16 4 31.5t2 27.5q0 16 -8 26.5t-33 10.5q-74 0 -129 -1t-97 -1t-71.5 -2 t-54.5 -4q-41 -6 -50 -32t-9 -67q0 -47 -1 -114.5t-2 -141t-2 -144.5t-1 -124q0 -31 3 -45t7 -24.5t7 -21.5t3 -32q0 -23 -1 -44t-10 -37.5t-27.5 -27t-53.5 -10.5q-47 0 -57 23q-4 66 -4.5 115t-0.5 90q0 55 2.5 124.5t4.5 142.5t4 143.5t2 127.5q0 59 -7.5 75.5 t-48.5 19.5q-33 2 -65.5 10t-32.5 35zM346 1020q0 -31 10.5 -47.5t71.5 -16.5q35 0 91 2.5t114 6.5q65 4 139 10q12 2 21 8q8 4 14 12.5t6 20.5q2 49 2 84v78q0 14 1 37.5t1 50.5q0 23 -2 43t-8 34q-8 18 -30.5 27.5t-48.5 14t-51.5 5.5t-41.5 1q-55 0 -106.5 -28t-92.5 -76 t-65.5 -114.5t-24.5 -144.5v-8z" />
</font>
</defs>
</svg>
