<?xml version="1.0" standalone="no"?>
<!DOCTYPE svg PUBLIC "-//W3C//DTD SVG 1.1//EN" "http://www.w3.org/Graphics/SVG/1.1/DTD/svg11.dtd" >
<svg xmlns="http://www.w3.org/2000/svg">
<metadata></metadata>
<defs>
<font id="poornutregular" horiz-adv-x="2002" >
<font-face units-per-em="2048" ascent="1638" descent="-410" />
<missing-glyph horiz-adv-x="430" />
<glyph horiz-adv-x="0" />
<glyph unicode="&#xd;" horiz-adv-x="430" />
<glyph unicode=" "  horiz-adv-x="430" />
<glyph unicode="&#x09;" horiz-adv-x="430" />
<glyph unicode="&#xa0;" horiz-adv-x="430" />
<glyph unicode="!" horiz-adv-x="370" d="M-12 98q0 74 65 119q57 43 133 43t133 -43q66 -45 66 -119t-66 -118q-57 -43 -133 -43t-133 43q-65 44 -65 118zM12 268l49 138l35 790l-37 141l338 -10l-45 -143l-35 -791l29 -102z" />
<glyph unicode="&#x22;" horiz-adv-x="370" d="M2 1038q0 78 51 146.5t127 68.5q82 0 125 -79q43 49 107 49q78 0 127 -66.5t49 -146.5q0 -72 -39 -123q-43 -58 -111 -58q-98 0 -151 105q-55 -76 -133 -76q-70 0 -113 57q-39 51 -39 123z" />
<glyph unicode="#" d="M6 322v405h100v102h410v99h102v106h205v103h205v100h203v-203h-203v-209h-104v-96h-101v-104h205v-101h102v-407h-100v-101h-412v101h-102v407h-102v-305h-305v103h-103zM109 424h98v98h-98v-98zM209 319h104v105h-104v-105zM324 639h75v78h-75v-78zM426 741h76v76h-76 v-76zM516 729h102v-102h101v100h104v107h99v198h-99v-104h-205v-101h-102v-98zM518 524h100v101h-100v-101zM528 844h80v74h-80v-74zM618 219h101v100h-101v-100zM633 944h176v76h-176v-76zM719 115h104v104h-104v-104zM733 537h76v178h-76v-178zM836 741h75v76h-75v-76z M836 1047h102v-203h78v203h203v178h-179v-101h-204v-77z" />
<glyph unicode="$" d="M6 1034h203v-209h102v-96h103v-104h-205v-101h-105v-407h103v-101h411v101h103v407h102v-305h305v103h103v405h-101v102h-409v99h-103v106h-204v103h-205v100h-203v-203zM18 1047v178h179v-101h204v-77h-102v-203h-78v203h-203zM313 834v198h101v-104h204v-101h103v-98 h-103v-102h-102v100h-102v107h-101zM324 741v76h77v-76h-77zM414 115v104h104v-104h-104zM428 537v178h74v-178h-74zM428 944v76h176v-76h-176zM518 219v100h100v-100h-100zM618 524v101h101v-101h-101zM629 844v74h80v-74h-80zM735 741v76h76v-76h-76zM838 639v78h73v-78 h-73zM924 319v105h104v-105h-104zM1030 424v98h98v-98h-98z" />
<glyph unicode="%" d="M6 322v405h100v102h410v99h102v106h205v103h205v100h203v-203h-203v-209h-104v-96h-101v-104h205v-101h102v-407h-100v-101h-412v101h-102v407h-102v-305h-305v103h-103zM109 424h98v98h-98v-98zM209 319h104v105h-104v-105zM324 639h75v78h-75v-78zM426 741h76v76h-76 v-76zM516 729h102v-102h101v100h104v107h99v198h-99v-104h-205v-101h-102v-98zM518 524h100v101h-100v-101zM528 844h80v74h-80v-74zM618 219h101v100h-101v-100zM633 944h176v76h-176v-76zM719 115h104v104h-104v-104zM733 537h76v178h-76v-178zM836 741h75v76h-75v-76z M836 1047h102v-203h78v203h203v178h-179v-101h-204v-77z" />
<glyph unicode="&#x26;" d="M6 322v405h100v102h410v99h102v106h205v103h205v100h203v-203h-203v-209h-104v-96h-101v-104h205v-101h102v-407h-100v-101h-412v101h-102v407h-102v-305h-305v103h-103zM109 424h98v98h-98v-98zM209 319h104v105h-104v-105zM324 639h75v78h-75v-78zM426 741h76v76h-76 v-76zM516 729h102v-102h101v100h104v107h99v198h-99v-104h-205v-101h-102v-98zM518 524h100v101h-100v-101zM528 844h80v74h-80v-74zM618 219h101v100h-101v-100zM633 944h176v76h-176v-76zM719 115h104v104h-104v-104zM733 537h76v178h-76v-178zM836 741h75v76h-75v-76z M836 1047h102v-203h78v203h203v178h-179v-101h-204v-77z" />
<glyph unicode="'" horiz-adv-x="370" d="M2 1038q0 78 51 146.5t127 68.5q70 0 110 -55t40 -127q0 -80 -47 -143q-51 -70 -129 -70q-70 0 -113 57q-39 51 -39 123z" />
<glyph unicode="(" d="M6 322v405h100v102h410v99h102v106h205v103h205v100h203v-203h-203v-209h-104v-96h-101v-104h205v-101h102v-407h-100v-101h-412v101h-102v407h-102v-305h-305v103h-103zM109 424h98v98h-98v-98zM209 319h104v105h-104v-105zM324 639h75v78h-75v-78zM426 741h76v76h-76 v-76zM516 729h102v-102h101v100h104v107h99v198h-99v-104h-205v-101h-102v-98zM518 524h100v101h-100v-101zM528 844h80v74h-80v-74zM618 219h101v100h-101v-100zM633 944h176v76h-176v-76zM719 115h104v104h-104v-104zM733 537h76v178h-76v-178zM836 741h75v76h-75v-76z M836 1047h102v-203h78v203h203v178h-179v-101h-204v-77z" />
<glyph unicode=")" d="M6 1034h203v-209h102v-96h103v-104h-205v-101h-105v-407h103v-101h411v101h103v407h102v-305h305v103h103v405h-101v102h-409v99h-103v106h-204v103h-205v100h-203v-203zM18 1047v178h179v-101h204v-77h-102v-203h-78v203h-203zM313 834v198h101v-104h204v-101h103v-98 h-103v-102h-102v100h-102v107h-101zM324 741v76h77v-76h-77zM414 115v104h104v-104h-104zM428 537v178h74v-178h-74zM428 944v76h176v-76h-176zM518 219v100h100v-100h-100zM618 524v101h101v-101h-101zM629 844v74h80v-74h-80zM735 741v76h76v-76h-76zM838 639v78h73v-78 h-73zM924 319v105h104v-105h-104zM1030 424v98h98v-98h-98z" />
<glyph unicode="*" d="M6 322v405h100v102h410v99h102v106h205v103h205v100h203v-203h-203v-209h-104v-96h-101v-104h205v-101h102v-407h-100v-101h-412v101h-102v407h-102v-305h-305v103h-103zM109 424h98v98h-98v-98zM209 319h104v105h-104v-105zM324 639h75v78h-75v-78zM426 741h76v76h-76 v-76zM516 729h102v-102h101v100h104v107h99v198h-99v-104h-205v-101h-102v-98zM518 524h100v101h-100v-101zM528 844h80v74h-80v-74zM618 219h101v100h-101v-100zM633 944h176v76h-176v-76zM719 115h104v104h-104v-104zM733 537h76v178h-76v-178zM836 741h75v76h-75v-76z M836 1047h102v-203h78v203h203v178h-179v-101h-204v-77z" />
<glyph unicode="+" d="M6 322v405h100v102h410v99h102v106h205v103h205v100h203v-203h-203v-209h-104v-96h-101v-104h205v-101h102v-407h-100v-101h-412v101h-102v407h-102v-305h-305v103h-103zM109 424h98v98h-98v-98zM209 319h104v105h-104v-105zM324 639h75v78h-75v-78zM426 741h76v76h-76 v-76zM516 729h102v-102h101v100h104v107h99v198h-99v-104h-205v-101h-102v-98zM518 524h100v101h-100v-101zM528 844h80v74h-80v-74zM618 219h101v100h-101v-100zM633 944h176v76h-176v-76zM719 115h104v104h-104v-104zM733 537h76v178h-76v-178zM836 741h75v76h-75v-76z M836 1047h102v-203h78v203h203v178h-179v-101h-204v-77z" />
<glyph unicode="," horiz-adv-x="370" d="M2 0q0 78 51 146.5t127 68.5q70 0 110 -55.5t40 -126.5q0 -80 -47 -144q-51 -70 -129 -69q-70 0 -113 57q-39 51 -39 123z" />
<glyph unicode="-" horiz-adv-x="370" d="M10 434q-6 72 53.5 121t133.5 53q78 4 137 -33q68 -40 74 -114q6 -72 -53.5 -122t-133.5 -54q-76 -4 -137 34q-68 41 -74 115z" />
<glyph unicode="." horiz-adv-x="370" d="M27 121q-4 74 53 123t133 53t140.5 -37t68.5 -113q4 -74 -53.5 -122t-132.5 -52q-76 -4 -138 33q-68 41 -71 115z" />
<glyph unicode="/" d="M6 322v405h100v102h410v99h102v106h205v103h205v100h203v-203h-203v-209h-104v-96h-101v-104h205v-101h102v-407h-100v-101h-412v101h-102v407h-102v-305h-305v103h-103zM109 424h98v98h-98v-98zM209 319h104v105h-104v-105zM324 639h75v78h-75v-78zM426 741h76v76h-76 v-76zM516 729h102v-102h101v100h104v107h99v198h-99v-104h-205v-101h-102v-98zM518 524h100v101h-100v-101zM528 844h80v74h-80v-74zM618 219h101v100h-101v-100zM633 944h176v76h-176v-76zM719 115h104v104h-104v-104zM733 537h76v178h-76v-178zM836 741h75v76h-75v-76z M836 1047h102v-203h78v203h203v178h-179v-101h-204v-77z" />
<glyph unicode="0" horiz-adv-x="931" d="M0 590q0 -276 207 -449q180 -150 411 -149q219 0 300 137q33 55 32 145q0 170 -110.5 439.5t-286.5 503.5l-94 51q-23 4 -62 -8q-86 -27 -175 -108t-126 -165q-96 -213 -96 -397zM252 614q0 197 164 355q70 -104 174 -348q117 -274 106 -361q-8 -2 -55 4q-168 20 -270 98 q-119 94 -119 252z" />
<glyph unicode="1" horiz-adv-x="344" d="M0 1208l399 140l-57 -207l-20 -1008l47 -133l-322 -27l19 154l18 926z" />
<glyph unicode="2" horiz-adv-x="964" d="M-23 752l86 88q70 139 195 348q111 145 246 145q205 0 237 -332l2 -20l-235 -627l287 49l133 68l37 -346l-134 25l-595 -97l-121 -67l12 340l74 -19l51 10l235 648q2 27 -18 77l-10 -10q-94 -121 -158 -291l-6 -16l-16 -158z" />
<glyph unicode="3" horiz-adv-x="950" d="M-8 -78l162 23l725 26l131 -34l6 329l-144 -41h-24q78 72 78 228q0 135 -101 184q57 35 105 166q45 125 37 198q-16 154 -324 203q-231 37 -432 41l-150 39l29 -326l121 31q57 14 127 15q115 0 217 -46q-4 -78 -6 -153q-16 -70 -129 -113q-127 -2 -197 -14 q-51 -10 -110 -21l20 -254q43 2 133 31t140 29q55 0 83 -29q0 -12 9.5 -50t9.5 -58q0 -63 -55 -80l-123 -35l-183 -10l-131 51z" />
<glyph unicode="4" horiz-adv-x="798" d="M16 836q0 88 21 307q2 29 -10.5 90t-8.5 90l332 -47q0 -10 -27.5 -61.5t-29.5 -79.5q-20 -207 -21 -322q0 -231 74 -303q51 0 156 102l18 29l-12 475l-41 150l340 -13l-43 -133l16 -1050l33 -107l-328 -20l39 125l2 241q-96 -55 -186 -55q-211 0 -285 278 q-39 147 -39 304z" />
<glyph unicode="5" horiz-adv-x="804" d="M49 950q0 143 96.5 240.5t239.5 97.5q166 0 381 -153l14 -11l125 -57l-205 -229q135 -53 146 -183q18 -229 -178.5 -451t-427.5 -259q-20 -4 -66.5 -30t-67.5 -28l-14 338q12 2 54 -15t63 -15q102 12 231 161q123 139 148 250l-4 2q-102 16 -308 60q-176 43 -217 194 q-10 37 -10 88zM307 930q35 -29 162 -45q156 -21 213 -39q-20 23 -55 74q-156 111 -236 110q-63 0 -80 -61q-6 -25 -4 -39z" />
<glyph unicode="6" horiz-adv-x="804" d="M-4 743q0 -36 4 -81q55 -612 98 -682l-8 -121l293 71l-31 74q172 2 319.5 134t147.5 302q0 309 -524 471q117 164 242 164q43 0 79 -24l105 -70l106 303l-133 10q-172 31 -198 31q-236 0 -375 -176q-125 -162 -125 -406zM258 653q307 -102 303 -217q-4 -86 -90 -135 q-66 -37 -131 -37q-16 0 -21 2q-16 12 -30 25q-11 135 -31 362z" />
<glyph unicode="7" horiz-adv-x="780" d="M41 823l43 381l68 -39l387 54l-17 102l326 -35l-45 -119l-139 -1040l47 -133l-367 -19l64 146l141 842l-393 -54z" />
<glyph unicode="8" horiz-adv-x="931" d="M0 125q0 199 201 524l-13 15q-115 162 -114 315q0 217 215 371q195 139 422 139q311 0 311 -266q0 -197 -199 -523q66 -100 90 -155q37 -86 37 -174q0 -217 -215 -371q-197 -139 -424 -139q-141 0 -221 63q-90 68 -90 201zM256 117q6 -2 55 4q371 43 371 176 q0 92 -174 262q-53 -72 -157.5 -216t-94.5 -226zM336 985q0 -137 172 -303q279 410 260 549q-14 2 -55 -2q-377 -43 -377 -244zM707 510h2h-2z" />
<glyph unicode="9" horiz-adv-x="804" d="M0 -27l133 -8q172 -33 199 -33q236 0 375 177q125 162 124 405q0 37 -4 82q-55 612 -96 684l6 121l-291 -72l29 -74q-170 -2 -317.5 -135t-147.5 -301q0 -311 522 -473q-115 -162 -241 -162q-41 0 -78 25l-104 70zM266 821q4 84 92 135q66 39 131 39q14 0 19 -4 q16 -12 31 -22q10 -136 30 -363q-309 100 -303 215z" />
<glyph unicode=":" horiz-adv-x="370" d="M20 547q0 66 58 108q51 39 121 39q80 0 147.5 -51t67.5 -129q0 -70 -53 -108.5t-125 -38.5q-80 0 -148 51t-68 129zM27 121q-4 74 53 123t133 53t140.5 -37t68.5 -113q4 -74 -53.5 -122t-132.5 -52q-76 -4 -138 33q-68 41 -71 115z" />
<glyph unicode=";" horiz-adv-x="370" d="M2 0q0 78 51 146.5t127 68.5q70 0 110 -55.5t40 -126.5q0 -80 -47 -144q-51 -70 -129 -69q-70 0 -113 57q-39 51 -39 123zM20 547q0 66 58 108q51 39 121 39q80 0 147.5 -51t67.5 -129q0 -70 -53 -108.5t-125 -38.5q-80 0 -148 51t-68 129z" />
<glyph unicode="&#x3c;" d="M6 1034h203v-209h102v-96h103v-104h-205v-101h-105v-407h103v-101h411v101h103v407h102v-305h305v103h103v405h-101v102h-409v99h-103v106h-204v103h-205v100h-203v-203zM18 1047v178h179v-101h204v-77h-102v-203h-78v203h-203zM313 834v198h101v-104h204v-101h103v-98 h-103v-102h-102v100h-102v107h-101zM324 741v76h77v-76h-77zM414 115v104h104v-104h-104zM428 537v178h74v-178h-74zM428 944v76h176v-76h-176zM518 219v100h100v-100h-100zM618 524v101h101v-101h-101zM629 844v74h80v-74h-80zM735 741v76h76v-76h-76zM838 639v78h73v-78 h-73zM924 319v105h104v-105h-104zM1030 424v98h98v-98h-98z" />
<glyph unicode="=" d="M6 322v405h100v102h410v99h102v106h205v103h205v100h203v-203h-203v-209h-104v-96h-101v-104h205v-101h102v-407h-100v-101h-412v101h-102v407h-102v-305h-305v103h-103zM109 424h98v98h-98v-98zM209 319h104v105h-104v-105zM324 639h75v78h-75v-78zM426 741h76v76h-76 v-76zM516 729h102v-102h101v100h104v107h99v198h-99v-104h-205v-101h-102v-98zM518 524h100v101h-100v-101zM528 844h80v74h-80v-74zM618 219h101v100h-101v-100zM633 944h176v76h-176v-76zM719 115h104v104h-104v-104zM733 537h76v178h-76v-178zM836 741h75v76h-75v-76z M836 1047h102v-203h78v203h203v178h-179v-101h-204v-77z" />
<glyph unicode="&#x3e;" d="M6 322v405h100v102h410v99h102v106h205v103h205v100h203v-203h-203v-209h-104v-96h-101v-104h205v-101h102v-407h-100v-101h-412v101h-102v407h-102v-305h-305v103h-103zM109 424h98v98h-98v-98zM209 319h104v105h-104v-105zM324 639h75v78h-75v-78zM426 741h76v76h-76 v-76zM516 729h102v-102h101v100h104v107h99v198h-99v-104h-205v-101h-102v-98zM518 524h100v101h-100v-101zM528 844h80v74h-80v-74zM618 219h101v100h-101v-100zM633 944h176v76h-176v-76zM719 115h104v104h-104v-104zM733 537h76v178h-76v-178zM836 741h75v76h-75v-76z M836 1047h102v-203h78v203h203v178h-179v-101h-204v-77z" />
<glyph unicode="?" horiz-adv-x="618" d="M-39 1085l264 -213q2 37 23 101q43 68 49 78q37 45 70 53q2 -12 2 -29q0 -47 -27 -131l-143 -457l-93 -112l373 -80l-35 119l146 465q35 111 35 266q0 270 -172 270q-182 0 -379 -252l-15 -18zM72 166q0 -78 71 -127q63 -45 146 -45q66 0 119 37t53 100q0 74 -74 125 q-66 47 -143 47q-68 0 -117 -35q-55 -39 -55 -102z" />
<glyph unicode="@" d="M6 322v405h100v102h410v99h102v106h205v103h205v100h203v-203h-203v-209h-104v-96h-101v-104h205v-101h102v-407h-100v-101h-412v101h-102v407h-102v-305h-305v103h-103zM109 424h98v98h-98v-98zM209 319h104v105h-104v-105zM324 639h75v78h-75v-78zM426 741h76v76h-76 v-76zM516 729h102v-102h101v100h104v107h99v198h-99v-104h-205v-101h-102v-98zM518 524h100v101h-100v-101zM528 844h80v74h-80v-74zM618 219h101v100h-101v-100zM633 944h176v76h-176v-76zM719 115h104v104h-104v-104zM733 537h76v178h-76v-178zM836 741h75v76h-75v-76z M836 1047h102v-203h78v203h203v178h-179v-101h-204v-77z" />
<glyph unicode="A" horiz-adv-x="774" d="M-31 625q1 -64 11 -148q59 -495 330 -495h1q90 0 191 59l-4 -113l284 31l-22 125l18 960l37 54l-317 71l24 -122h-8q-99 34 -185 34h-5q-186 0 -277 -141q-78 -119 -78 -315zM223 625q0 200 100 200h1q82 0 186 -55l-4 -362l-23 -46q-98 -120 -162 -120h-8 q-39 39 -67 182q-23 117 -23 201z" />
<glyph unicode="B" horiz-adv-x="774" d="M-20 1432l313 6l-27 -123l2 -268q99 34 186 34h5q186 0 276 -141q76 -119 76 -315q0 -78 -8 -148q-59 -495 -331 -495h-1q-90 0 -192 59l2 -82h-281l23 125l-13 1227zM272 770l4 -362l23 -46q98 -120 162 -120h8q39 39 68 182q22 112 22 194v7q0 200 -99 200h-1 q-82 0 -187 -55z" />
<glyph unicode="C" horiz-adv-x="718" d="M4 483q0 156 27 326q33 215 92 307q72 113 168 113q88 0 186 -92q74 -72 131 -170q37 -63 62 -121l90 -80l-271 -139q-16 61 -53 182q-35 113 -117 131q-96 -51 -96 -360q0 -209 49 -293q166 76 199 284l264 -106l-63 -53q-20 -41 -80 -129q-190 -291 -352 -291 q-45 0 -90 24q-145 80 -146 467z" />
<glyph unicode="D" horiz-adv-x="794" d="M2 541q0 33 2 63q12 184 86 303q92 147 262 148q80 0 162 -39l8 248l-55 71l375 82l-64 -162l-43 -1224l60 -86l-326 -64l10 164q-33 -4 -65 -4q-209 0 -316 152q-96 131 -96 348zM258 588q-2 -28 -2 -53q0 -238 156 -238q33 0 77 10l13 391q-92 82 -148 82 q-84 0 -96 -192z" />
<glyph unicode="E" horiz-adv-x="665" d="M2 655q0 223 45 377q65 231 217 231q11 0 23 -1q205 -21 432 -541l-37 -129l-461 -43q18 -238 78 -277h7q61 0 97 105q-6 31 -6 51t6 29l304 -144l-132 -108q-23 -33 -61 -78q-113 -129 -244 -129q-268 0 -268 657zM250 758l168 12q-12 31 -35 90q-20 53 -68 64 q-49 -23 -65 -166z" />
<glyph unicode="F" horiz-adv-x="745" d="M8 635l125 27l-24 301q-4 51 -5 102q0 410 203 410q33 0 80 -17q90 -31 228.5 -213t138.5 -274v-21l61 -41l-330 -106l11 143q2 12 2 25q0 59 -38 114.5t-95 65.5q-3 -47 -3 -90t3 -82l20 -266l125 24l49 -252l-151 -30l28 -367l88 -131l-364 -39l22 150l-28 335l-97 -18 z" />
<glyph unicode="G" horiz-adv-x="1085" d="M-78 -330q0 135 262 217q125 39 326 76l68 -6q29 -12 122 -63q33 23 95 83q-4 10 -19 27l-65 62q-207 -70 -392 -70q-125 0 -208 39q-113 53 -113 166q0 254 541 661l47 12l2 11h-2q-35 6 -99 28q-76 39 -75 113q0 94 96 127l121 41l20 -61q12 -2 25 -9q174 -63 174 -217 q0 -23 -6 -53l-13 -59q68 -39 129 -76q162 -98 162 -260t-162 -275q14 -12 25 -28q68 -86 68 -183q0 -123 -113 -215l-47 -39q39 -61 39 -120q0 -41 -19 -76q-68 -129 -372 -129q-156 0 -324 43q-219 55 -270 153q-23 43 -23 80zM276 256q18 -1 36 -1q119 0 259 34 q193 47 269 129q25 27 24 41q0 20 -39 43q-109 66 -190 110q-131 -106 -193 -163q-109 -100 -166 -193zM362 -330q98 -18 222 -18h16q-37 29 -86 51q-80 -14 -152 -33z" />
<glyph unicode="H" horiz-adv-x="798" d="M-20 1479l376 -56l-59 -86l4 -313q96 53 184 53q324 0 324 -628q0 -160 -23 -388l27 -151l-354 53l71 107q23 225 23 387q0 295 -72 364q-53 0 -155 -102l-21 -29l10 -602l50 -88l-349 -49l43 133l-18 1249z" />
<glyph unicode="I" horiz-adv-x="370" d="M-12 -53l43 143l37 791l-29 102l332 23l-47 -138l-37 -790l39 -141zM0 1176q0 74 66 118q57 43 133 43t133 -43q65 -44 65 -118t-65 -119q-57 -43 -133 -43t-133 43q-66 45 -66 119z" />
<glyph unicode="J" horiz-adv-x="747" d="M-59 373l329 82q-24 -56 -24 -85q0 -8 2 -14l12 -94q8 -53 39 -76q29 37 45 156l64 475l-35 139l368 -84l-79 -92l-66 -483q-4 -35 -29 -117q-96 -327 -257 -327h-1q-109 0 -198 153q-59 102 -101 250l-6 23zM471 1212.5q53 36.5 121 36.5q80 0 143 -45q72 -49 72 -125 q0 -66 -57 -104q-49 -35 -117 -35q-80 0 -144 45q-71 48 -71 123q0 68 53 104.5z" />
<glyph unicode="K" horiz-adv-x="821" d="M0 -12l41 141l45 1266l-59 168l370 -84l-55 -95l-18 -483l258 211l4 96l319 -233l-162 -62l-251 -204l272 -629l98 -119l-321 -119l-13 135l-219 510l-14 -366l67 -170z" />
<glyph unicode="L" horiz-adv-x="344" d="M0 31l66 96l-25 1243l-41 117l344 59l-47 -172l25 -1241l22 -174z" />
<glyph unicode="M" horiz-adv-x="1044" d="M-2 -147l25 163l24 910l-35 131l353 -56l-62 -83v-23q70 78 141 78q96 0 146 -101q81 128 181 128q9 0 17 -1q164 -18 218 -413q23 -160 26 -527l27 -178l-336 99l53 79q14 117 15 234q0 193 -46 295q-55 -6 -100 -123q0 -154 -24 -402q27 -66 24 -86l-313 46q2 16 41 49 q45 244 45 340q0 94 -31 123q-55 0 -65 -35l-35 -123l-11 -369l54 -90z" />
<glyph unicode="N" horiz-adv-x="858" d="M0 47l39 109l27 923l-21 142l334 -78l-57 -72v-29q96 84 184 84q80 0 153 -67q125 -115 162 -438q16 -141 17 -486v-10l47 -148l-344 50l41 98v10q0 47 2 140.5t2 140.5q0 365 -90 442q-84 -8 -187 -205l-14 -506l51 -194z" />
<glyph unicode="O" horiz-adv-x="931" d="M0 514q0 -217 217 -371q197 -139 422 -139q315 0 315 289q0 262 -235 620q-55 82 -146 144l-94 51q-6 1 -12 1q-20 0 -49 -9q-133 -42 -301 -273q-117 -160 -117 -313zM264 508q0 135 172 301q121 -31 203 -246q57 -154 57 -258q0 -25 -2 -45h-6q-12 0 -47 4 q-377 43 -377 244z" />
<glyph unicode="P" horiz-adv-x="827" d="M-14 1206l344 -59l-51 -82v-10l18 2q86 18 166 18q178 0 285 -80q118 -89 118 -261q0 -109 -51 -251q-168 -469 -424 -487h-20q-30 0 -62 4l4 -182l82 -90l-368 -60l30 144l-34 1245zM287 793l12 -476q35 -65 69 -65h3q72 4 159 203q80 182 80 274q0 55 -39 76 q-26 14 -92 14q-88 0 -192 -26z" />
<glyph unicode="Q" horiz-adv-x="1028" d="M-2 662q0 211 104 348q114 151 315 151h3q76 0 145 -26v8l-43 110l371 -51l-72 -84l-108 -1106l55 6l63 95l191 -289l-160 -47l-180 -80l-256 24l29 291q-47 -16 -95 -16q-262 0 -346 479q-16 92 -16 187zM256 633q0 -96 25 -203q33 -137 88 -178q33 8 71 55q35 41 52 78 l40 416q-8 27 -40 84q-28 23 -66 23q-27 0 -59 -11q-111 -37 -111 -264z" />
<glyph unicode="R" horiz-adv-x="821" d="M0 1190l358 -60l-63 -94v-8q33 12 67 12q123 0 254.5 -124.5t178.5 -268.5l4 -12l92 -82l-352 -90l22 80l-6 16q-70 184 -139 184q-47 0 -113 -84l12 -522l72 -121l-348 -55l20 170l-20 899z" />
<glyph unicode="S" horiz-adv-x="804" d="M6 737q0 143 96.5 240.5t239.5 97.5q166 0 381 -153l14 -11l125 -57l-205 -229q135 -51 146 -181q1 -18 1 -35q0 -200 -171 -323q-145 -104 -393 -141l-62 -72l-61 377l92 -55q299 35 336 200h-4q-154 31 -308 60q-178 51 -217 194q-10 37 -10 88zM264 717 q37 -29 162 -45q162 -23 213 -39q-20 25 -55 74q-155 112 -235 112h-1q-63 0 -80 -63q-4 -19 -4 -31v-8z" />
<glyph unicode="T" horiz-adv-x="964" d="M2 1151l133 -25l103 15l-5 157l-51 103l398 49l-91 -145l3 -127l83 12l43 51l132 -313l-138 8l-114 -16l12 -555v-5q0 -27 18 -73l11 10q74 94 157 291l6 14l-12 96l348 -88l-104 -121q-70 -139 -195 -350q-111 -143 -245 -143q-205 0 -238 332l-2 20l-12 535l-70 -11 l-82 -88z" />
<glyph unicode="U" horiz-adv-x="823" d="M-18 1030l69 -110q-2 0 -6 4q-1 -39 -1 -76q0 -290 42 -467q78 -332 309 -397q43 -12 86 -13q205 0 285 316q49 190 49 477q0 39 -4 114.5t-4 110.5v25l27 116l-332 -30q12 -33 47 -121q4 -135 4 -256q0 -495 -80 -495q-4 0 -8 1q-176 49 -176 580q0 53 2 123l2 76 l-2 135z" />
<glyph unicode="V" horiz-adv-x="899" d="M-39 1106l72 -105l409 -1046l240 92l-27 68l199 870l66 145l-326 46l10 -134l-115 -503l-217 555l13 125z" />
<glyph unicode="W" horiz-adv-x="1294" d="M-23 1165l84 -135l287 -1005l-35 -80l303 -35l-4 123l76 350l64 -256l-37 -121l356 -69l-10 139l188 903l70 154l-350 24l28 -125l-94 -454l-106 423l-248 -61l-84 -387l-156 547l33 131z" />
<glyph unicode="X" horiz-adv-x="899" d="M-51 1098l74 -105l225 -403l-170 -459l-66 -145l324 -47l-10 135l163 391l168 -445l-12 -122l326 112l-74 105l-164 411l129 564l66 145l-324 45l8 -133l-127 -465l-223 405l12 125z" />
<glyph unicode="Y" horiz-adv-x="919" d="M-143 -78l385 113v-101q14 -18 41 -45q65 -67 99 -67h1q41 27 61 133l-405 934l-115 78l344 120l6 -98l250 -575l99 565l-45 78l407 61l-111 -182l-178 -1020q-61 -350 -303 -350q-190 0 -354 211l-14 18z" />
<glyph unicode="Z" horiz-adv-x="954" d="M0 0l43 252l532 694l-270 -31l-55 -100l-213 383l239 -29l691 78l28 -254l-82 -26l-516 -774l316 -56l168 39l28 -405l-239 114z" />
<glyph unicode="[" d="M6 322v405h100v102h410v99h102v106h205v103h205v100h203v-203h-203v-209h-104v-96h-101v-104h205v-101h102v-407h-100v-101h-412v101h-102v407h-102v-305h-305v103h-103zM109 424h98v98h-98v-98zM209 319h104v105h-104v-105zM324 639h75v78h-75v-78zM426 741h76v76h-76 v-76zM516 729h102v-102h101v100h104v107h99v198h-99v-104h-205v-101h-102v-98zM518 524h100v101h-100v-101zM528 844h80v74h-80v-74zM618 219h101v100h-101v-100zM633 944h176v76h-176v-76zM719 115h104v104h-104v-104zM733 537h76v178h-76v-178zM836 741h75v76h-75v-76z M836 1047h102v-203h78v203h203v178h-179v-101h-204v-77z" />
<glyph unicode="\" d="M6 322v405h100v102h410v99h102v106h205v103h205v100h203v-203h-203v-209h-104v-96h-101v-104h205v-101h102v-407h-100v-101h-412v101h-102v407h-102v-305h-305v103h-103zM109 424h98v98h-98v-98zM209 319h104v105h-104v-105zM324 639h75v78h-75v-78zM426 741h76v76h-76 v-76zM516 729h102v-102h101v100h104v107h99v198h-99v-104h-205v-101h-102v-98zM518 524h100v101h-100v-101zM528 844h80v74h-80v-74zM618 219h101v100h-101v-100zM633 944h176v76h-176v-76zM719 115h104v104h-104v-104zM733 537h76v178h-76v-178zM836 741h75v76h-75v-76z M836 1047h102v-203h78v203h203v178h-179v-101h-204v-77z" />
<glyph unicode="]" d="M6 1034h203v-209h102v-96h103v-104h-205v-101h-105v-407h103v-101h411v101h103v407h102v-305h305v103h103v405h-101v102h-409v99h-103v106h-204v103h-205v100h-203v-203zM18 1047v178h179v-101h204v-77h-102v-203h-78v203h-203zM313 834v198h101v-104h204v-101h103v-98 h-103v-102h-102v100h-102v107h-101zM324 741v76h77v-76h-77zM414 115v104h104v-104h-104zM428 537v178h74v-178h-74zM428 944v76h176v-76h-176zM518 219v100h100v-100h-100zM618 524v101h101v-101h-101zM629 844v74h80v-74h-80zM735 741v76h76v-76h-76zM838 639v78h73v-78 h-73zM924 319v105h104v-105h-104zM1030 424v98h98v-98h-98z" />
<glyph unicode="^" d="M6 322v405h100v102h410v99h102v106h205v103h205v100h203v-203h-203v-209h-104v-96h-101v-104h205v-101h102v-407h-100v-101h-412v101h-102v407h-102v-305h-305v103h-103zM109 424h98v98h-98v-98zM209 319h104v105h-104v-105zM324 639h75v78h-75v-78zM426 741h76v76h-76 v-76zM516 729h102v-102h101v100h104v107h99v198h-99v-104h-205v-101h-102v-98zM518 524h100v101h-100v-101zM528 844h80v74h-80v-74zM618 219h101v100h-101v-100zM633 944h176v76h-176v-76zM719 115h104v104h-104v-104zM733 537h76v178h-76v-178zM836 741h75v76h-75v-76z M836 1047h102v-203h78v203h203v178h-179v-101h-204v-77z" />
<glyph unicode="_" d="M6 322v405h100v102h410v99h102v106h205v103h205v100h203v-203h-203v-209h-104v-96h-101v-104h205v-101h102v-407h-100v-101h-412v101h-102v407h-102v-305h-305v103h-103zM109 424h98v98h-98v-98zM209 319h104v105h-104v-105zM324 639h75v78h-75v-78zM426 741h76v76h-76 v-76zM516 729h102v-102h101v100h104v107h99v198h-99v-104h-205v-101h-102v-98zM518 524h100v101h-100v-101zM528 844h80v74h-80v-74zM618 219h101v100h-101v-100zM633 944h176v76h-176v-76zM719 115h104v104h-104v-104zM733 537h76v178h-76v-178zM836 741h75v76h-75v-76z M836 1047h102v-203h78v203h203v178h-179v-101h-204v-77z" />
<glyph unicode="`" d="M6 322v405h100v102h410v99h102v106h205v103h205v100h203v-203h-203v-209h-104v-96h-101v-104h205v-101h102v-407h-100v-101h-412v101h-102v407h-102v-305h-305v103h-103zM109 424h98v98h-98v-98zM209 319h104v105h-104v-105zM324 639h75v78h-75v-78zM426 741h76v76h-76 v-76zM516 729h102v-102h101v100h104v107h99v198h-99v-104h-205v-101h-102v-98zM518 524h100v101h-100v-101zM528 844h80v74h-80v-74zM618 219h101v100h-101v-100zM633 944h176v76h-176v-76zM719 115h104v104h-104v-104zM733 537h76v178h-76v-178zM836 741h75v76h-75v-76z M836 1047h102v-203h78v203h203v178h-179v-101h-204v-77z" />
<glyph unicode="a" horiz-adv-x="804" d="M0 1194l133 10q193 33 227 33q223 0 347 -135q116 -130 116 -353q0 -43 -4 -87q-55 -612 -96 -682l6 -121l-291 71l29 74q-172 2 -315 133q-150 133 -150 303q0 309 522 471q-63 90 -178 90q-72 0 -133 -40l-104 -70zM348 301q63 -37 131 -37q16 0 21 2q16 12 30 25 q11 135 31 362q-303 -100 -303 -213q0 -88 90 -139z" />
<glyph unicode="b" horiz-adv-x="774" d="M-20 1432l313 6l-27 -123l2 -268q99 34 186 34h5q186 0 276 -141q76 -119 76 -315q0 -78 -8 -148q-59 -495 -331 -495h-1q-90 0 -192 59l2 -82h-281l23 125l-13 1227zM272 770l4 -362l23 -46q98 -120 162 -120h8q39 39 68 182q22 112 22 194v7q0 200 -99 200h-1 q-82 0 -187 -55z" />
<glyph unicode="c" horiz-adv-x="718" d="M4 483q0 156 27 326q33 215 92 307q72 113 168 113q88 0 186 -92q74 -72 131 -170q37 -63 62 -121l90 -80l-271 -139q-16 61 -53 182q-35 113 -117 131q-96 -51 -96 -360q0 -209 49 -293q166 76 199 284l264 -106l-63 -53q-20 -41 -80 -129q-190 -291 -352 -291 q-45 0 -90 24q-145 80 -146 467z" />
<glyph unicode="d" horiz-adv-x="794" d="M2 541q0 33 2 63q12 184 86 303q92 147 262 148q80 0 162 -39l8 248l-41 135l369 -21l-72 -123l-43 -1224l45 -123l-336 6l35 131q-33 -4 -65 -4q-209 0 -316 152q-96 131 -96 348zM258 588q-2 -28 -2 -53q0 -238 156 -238q33 0 77 10l13 391q-92 82 -148 82 q-84 0 -96 -192z" />
<glyph unicode="e" horiz-adv-x="665" d="M2 655q0 223 43 377q67 231 219 231q11 0 23 -1q209 -23 422 -506l-107 -178l-381 -29q18 -238 78 -277h5q48 0 85 68q23 57 47 115l248 -181l-109 -69q-23 -33 -61 -78q-113 -129 -244 -129q-268 0 -268 657zM223 807l168 12q-29 80 -35 92q-27 53 -67 62 q-49 -23 -66 -166z" />
<glyph unicode="f" horiz-adv-x="745" d="M8 635l125 27l-24 301q-4 51 -5 100q0 412 203 412q33 0 80 -17q90 -31 228.5 -213t138.5 -274v-21l43 -106l-348 -13l47 115q-68 123 -131 205q-3 -47 -3 -90t3 -82l20 -266l125 24l49 -252l-151 -30l28 -367l88 -131l-364 -39l22 150l-28 335l-97 -18z" />
<glyph unicode="g" horiz-adv-x="1085" d="M-78 -330q0 135 262 217q125 39 326 76l68 -6q29 -12 122 -63q33 23 95 83q-4 10 -19 27l-65 62q-207 -70 -392 -70q-125 0 -208 39q-113 53 -113 166q0 254 541 661l47 12l2 11h-2q-35 6 -99 28q-76 39 -75 113q0 94 96 127l121 41l20 -61q12 -2 25 -9q174 -63 174 -217 q0 -23 -6 -53l-13 -59q68 -39 129 -76q162 -98 162 -260t-162 -275q14 -12 25 -28q68 -86 68 -183q0 -123 -113 -215l-47 -39q39 -61 39 -120q0 -41 -19 -76q-68 -129 -372 -129q-156 0 -324 43q-219 55 -270 153q-23 43 -23 80zM276 256q18 -1 36 -1q119 0 259 34 q193 47 269 129q25 27 24 41q0 20 -39 43q-109 66 -190 110q-131 -106 -193 -163q-109 -100 -166 -193zM362 -330q98 -18 222 -18h16q-37 29 -86 51q-80 -14 -152 -33z" />
<glyph unicode="h" horiz-adv-x="798" d="M8 1442l328 20l-39 -125l4 -313q96 53 184 53q324 0 324 -628q0 -150 -23 -388v-9q0 -29 10 -80q9 -45 10 -73q0 -9 -1 -16l-332 45q0 8 27.5 60.5t29.5 81.5q23 221 23 387q0 295 -72 364q-53 0 -155 -102l-21 -29l10 -602l41 -149l-340 12l43 133l-18 1249z" />
<glyph unicode="i" horiz-adv-x="370" d="M-12 -53l43 143l37 791l-29 102l332 23l-47 -138l-37 -790l39 -141zM0 1176q0 74 66 118q57 43 133 43t133 -43q65 -44 65 -118t-65 -119q-57 -43 -133 -43t-133 43q-66 45 -66 119z" />
<glyph unicode="j" horiz-adv-x="530" d="M-387 -98l330 82q-25 -57 -25 -86q0 -7 2 -13l12 -94q8 -53 39 -76q27 33 45 156l146 946l-35 139l369 -84l-80 -92l-148 -954q-6 -41 -28 -117q-96 -327 -257 -327h-1q-109 0 -199 153q-59 102 -100 250l-7 22zM172 1110q0 66 53.5 102.5t120.5 36.5q80 0 143 -45 q72 -49 72 -125q0 -66 -57 -104q-49 -35 -117 -35q-80 0 -143 45q-72 49 -72 125z" />
<glyph unicode="k" horiz-adv-x="821" d="M0 -12l41 141l45 1266l-47 145l344 -24l-41 -132l-18 -483l258 211l49 129l239 -285l-127 -43l-251 -204l272 -629l98 -119l-321 -119l-13 135l-219 510l-14 -366l51 -127z" />
<glyph unicode="l" horiz-adv-x="344" d="M18 1528l324 -33l-45 -121l25 -1241l47 -133l-322 -27l19 154l-25 1243z" />
<glyph unicode="m" horiz-adv-x="1044" d="M-2 -147l25 163l24 910l-35 131l330 6l-39 -145v-23q70 78 141 78q96 0 146 -101q81 128 181 128q9 0 17 -1q164 -18 218 -413q23 -160 26 -527l39 -149l-326 29l31 120q14 117 15 234q0 193 -46 295q-55 -6 -100 -123q0 -74 -33 -490l-256 21q6 27 33 182.5t27 239.5 q0 88 -29 117q-55 0 -65 -35l-35 -123l-11 -369l52 -129z" />
<glyph unicode="n" horiz-adv-x="858" d="M0 0l39 156l27 923l-21 142l305 -4l-28 -146v-29q94 84 184 84q80 0 153 -67q125 -115 162 -438q16 -141 17 -486v-10l41 -160l-318 25l21 135v10q0 47 2 140.5t2 140.5q0 365 -90 442q-84 -8 -187 -205l-14 -506l33 -153z" />
<glyph unicode="o" horiz-adv-x="931" d="M0 268q0 231 274 643q27 39 103 146l94 51q6 1 12 1q20 0 49 -9q134 -42 302 -273q117 -160 116 -313q0 -217 -215 -371q-197 -139 -424 -139q-141 0 -221 64q-90 68 -90 200zM256 260h6q13 0 49 4q377 43 377 244q0 135 -172 301q-261 -382 -261 -530q0 -10 1 -19z" />
<glyph unicode="p" horiz-adv-x="827" d="M-29 1165l348 23l-40 -123v-10l18 2q86 18 166 18q178 0 285 -80q118 -89 118 -261q0 -109 -51 -251q-168 -469 -424 -487h-20q-30 0 -62 4l4 -182l56 -164l-342 14l30 144l-34 1245zM287 793l12 -476q35 -65 69 -65h3q72 4 159 203q80 182 80 274q0 55 -39 76 q-26 14 -92 14q-88 0 -192 -26z" />
<glyph unicode="q" horiz-adv-x="1028" d="M-2 662q0 211 104 348q114 151 315 151h3q76 0 145 -26v8l-20 129l327 -6l-51 -148l-108 -1106l116 68l64 94l190 -289l-159 -47l-242 -141l-256 24l29 291q-47 -16 -95 -16q-262 0 -346 479q-16 92 -16 187zM256 633q0 -96 25 -203q33 -137 88 -178q33 8 71 55 q35 41 52 78l40 416q-8 27 -40 84q-28 23 -66 23q-27 0 -59 -11q-111 -37 -111 -264z" />
<glyph unicode="r" horiz-adv-x="821" d="M8 1161l318 29l-31 -154v-8q33 12 67 12q123 0 254.5 -124.5t178.5 -268.5l4 -12l82 -125l-320 -82v115l-6 16q-70 184 -139 184q-47 0 -113 -84l12 -522l56 -153l-332 -23l20 170l-20 899z" />
<glyph unicode="s" horiz-adv-x="804" d="M6 737q0 143 96.5 240.5t239.5 97.5q166 0 381 -153l14 -11l125 -57l-205 -229q135 -51 146 -181q1 -18 1 -35q0 -200 -171 -323q-143 -102 -393 -141q-20 -4 -66.5 -30t-67.5 -28l-14 338q12 2 54 -15q38 -15 58 -15h5q299 35 336 200h-4q-154 31 -308 60 q-178 51 -217 194q-10 37 -10 88zM264 717q37 -29 162 -45q162 -23 213 -39q-20 25 -55 74q-155 112 -235 112h-1q-63 0 -80 -63q-4 -19 -4 -31v-8z" />
<glyph unicode="t" horiz-adv-x="964" d="M2 1151l133 -25l103 15l-5 157l-30 156l336 -43l-50 -106l3 -127l83 12l123 67l52 -348l-138 27l-114 -16l12 -555v-5q0 -27 18 -73l11 10q74 94 157 291l6 14l17 160l301 -184l-86 -89q-70 -139 -195 -350q-111 -143 -245 -143q-205 0 -238 332l-2 20l-12 535l-70 -11 l-133 -67z" />
<glyph unicode="u" horiz-adv-x="823" d="M2 1130l332 -30q-12 -33 -47 -121q-4 -135 -4 -256q0 -495 82 -495q4 0 8 1q174 49 174 580v-1l-2 124v76v135l309 -113l-70 -110q2 0 7 4q1 -41 1 -80q0 -291 -40 -463q-78 -332 -310 -397q-43 -12 -86 -13q-336 0 -336 793q0 127 9 225l2 25z" />
<glyph unicode="v" horiz-adv-x="899" d="M2 1130l324 46l-9 -134l115 -503l217 555l-14 125l326 -113l-74 -105l-410 -1046l-237 92l26 68l-198 870z" />
<glyph unicode="w" horiz-adv-x="1294" d="M-2 1133l350 24l-29 -125l95 -454l106 423l248 -61l84 -387l156 547l-33 131l364 -66l-84 -135l-286 -1005l35 -80l-304 -35l5 123l-76 350l-64 -256l37 -121l-356 -69l10 139l-188 903z" />
<glyph unicode="x" horiz-adv-x="899" d="M-31 10l74 105l164 411l-129 564l-66 145l324 45l-8 -133l127 -465l223 405l-12 125l325 -114l-73 -105l-226 -403l170 -459l68 -145l-326 -47l10 135l-163 391l-168 -445l12 -122z" />
<glyph unicode="y" horiz-adv-x="899" d="M-109 -133l316 201l35 -134q14 -18 41 -45q65 -67 99 -67h1q41 27 61 133l-405 934l-102 129l364 106l-27 -135l250 -575l99 565l-25 125l365 -43l-89 -125l-178 -1020q-61 -350 -303 -350q-190 0 -354 211l-14 18z" />
<glyph unicode="z" horiz-adv-x="954" d="M0 0l43 252l532 694l-270 -31l-100 -88l-90 359l161 -17l691 78l28 -254l-82 -26l-516 -774l316 -56l168 39l-80 -373l-131 82z" />
<glyph unicode="{" d="M6 322v405h100v102h410v99h102v106h205v103h205v100h203v-203h-203v-209h-104v-96h-101v-104h205v-101h102v-407h-100v-101h-412v101h-102v407h-102v-305h-305v103h-103zM109 424h98v98h-98v-98zM209 319h104v105h-104v-105zM324 639h75v78h-75v-78zM426 741h76v76h-76 v-76zM516 729h102v-102h101v100h104v107h99v198h-99v-104h-205v-101h-102v-98zM518 524h100v101h-100v-101zM528 844h80v74h-80v-74zM618 219h101v100h-101v-100zM633 944h176v76h-176v-76zM719 115h104v104h-104v-104zM733 537h76v178h-76v-178zM836 741h75v76h-75v-76z M836 1047h102v-203h78v203h203v178h-179v-101h-204v-77z" />
<glyph unicode="|" d="M6 1034h203v-209h102v-96h103v-104h-205v-101h-105v-407h103v-101h411v101h103v407h102v-305h305v103h103v405h-101v102h-409v99h-103v106h-204v103h-205v100h-203v-203zM18 1047v178h179v-101h204v-77h-102v-203h-78v203h-203zM313 834v198h101v-104h204v-101h103v-98 h-103v-102h-102v100h-102v107h-101zM324 741v76h77v-76h-77zM414 115v104h104v-104h-104zM428 537v178h74v-178h-74zM428 944v76h176v-76h-176zM518 219v100h100v-100h-100zM618 524v101h101v-101h-101zM629 844v74h80v-74h-80zM735 741v76h76v-76h-76zM838 639v78h73v-78 h-73zM924 319v105h104v-105h-104zM1030 424v98h98v-98h-98z" />
<glyph unicode="}" d="M6 322v405h100v102h410v99h102v106h205v103h205v100h203v-203h-203v-209h-104v-96h-101v-104h205v-101h102v-407h-100v-101h-412v101h-102v407h-102v-305h-305v103h-103zM109 424h98v98h-98v-98zM209 319h104v105h-104v-105zM324 639h75v78h-75v-78zM426 741h76v76h-76 v-76zM516 729h102v-102h101v100h104v107h99v198h-99v-104h-205v-101h-102v-98zM518 524h100v101h-100v-101zM528 844h80v74h-80v-74zM618 219h101v100h-101v-100zM633 944h176v76h-176v-76zM719 115h104v104h-104v-104zM733 537h76v178h-76v-178zM836 741h75v76h-75v-76z M836 1047h102v-203h78v203h203v178h-179v-101h-204v-77z" />
<glyph unicode="~" d="M6 322v405h100v102h410v99h102v106h205v103h205v100h203v-203h-203v-209h-104v-96h-101v-104h205v-101h102v-407h-100v-101h-412v101h-102v407h-102v-305h-305v103h-103zM109 424h98v98h-98v-98zM209 319h104v105h-104v-105zM324 639h75v78h-75v-78zM426 741h76v76h-76 v-76zM516 729h102v-102h101v100h104v107h99v198h-99v-104h-205v-101h-102v-98zM518 524h100v101h-100v-101zM528 844h80v74h-80v-74zM618 219h101v100h-101v-100zM633 944h176v76h-176v-76zM719 115h104v104h-104v-104zM733 537h76v178h-76v-178zM836 741h75v76h-75v-76z M836 1047h102v-203h78v203h203v178h-179v-101h-204v-77z" />
<glyph unicode="&#xad;" horiz-adv-x="370" d="M10 434q-6 72 53.5 121t133.5 53q78 4 137 -33q68 -40 74 -114q6 -72 -53.5 -122t-133.5 -54q-76 -4 -137 34q-68 41 -74 115z" />
<glyph unicode="&#x2000;" horiz-adv-x="781" />
<glyph unicode="&#x2001;" horiz-adv-x="1563" />
<glyph unicode="&#x2002;" horiz-adv-x="781" />
<glyph unicode="&#x2003;" horiz-adv-x="1563" />
<glyph unicode="&#x2004;" horiz-adv-x="521" />
<glyph unicode="&#x2005;" horiz-adv-x="390" />
<glyph unicode="&#x2006;" horiz-adv-x="260" />
<glyph unicode="&#x2007;" horiz-adv-x="260" />
<glyph unicode="&#x2008;" horiz-adv-x="195" />
<glyph unicode="&#x2009;" horiz-adv-x="312" />
<glyph unicode="&#x200a;" horiz-adv-x="86" />
<glyph unicode="&#x2010;" horiz-adv-x="370" d="M10 434q-6 72 53.5 121t133.5 53q78 4 137 -33q68 -40 74 -114q6 -72 -53.5 -122t-133.5 -54q-76 -4 -137 34q-68 41 -74 115z" />
<glyph unicode="&#x2011;" horiz-adv-x="370" d="M10 434q-6 72 53.5 121t133.5 53q78 4 137 -33q68 -40 74 -114q6 -72 -53.5 -122t-133.5 -54q-76 -4 -137 34q-68 41 -74 115z" />
<glyph unicode="&#x2012;" horiz-adv-x="370" d="M10 434q-6 72 53.5 121t133.5 53q78 4 137 -33q68 -40 74 -114q6 -72 -53.5 -122t-133.5 -54q-76 -4 -137 34q-68 41 -74 115z" />
<glyph unicode="&#x2013;" horiz-adv-x="995" d="M10 434q-15 72 137.5 121t342.5 53q200 4 352 -33q174 -40 190 -114q15 -72 -137.5 -122t-342.5 -54q-195 -4 -352 34q-174 41 -190 115z" />
<glyph unicode="&#x2014;" horiz-adv-x="2019" d="M12 434q-31 72 274.5 121t684.5 53q401 4 703 -33q349 -40 380 -114q31 -72 -274.5 -122t-684.5 -54q-390 -4 -703 34q-349 41 -380 115z" />
<glyph unicode="&#x202f;" horiz-adv-x="312" />
<glyph unicode="&#x205f;" horiz-adv-x="390" />
<glyph unicode="&#x25fc;" horiz-adv-x="1280" d="M0 0v1280h1280v-1280h-1280z" />
</font>
</defs>
</svg>
