<?xml version="1.0" standalone="no"?>
<!DOCTYPE svg PUBLIC "-//W3C//DTD SVG 1.1//EN" "http://www.w3.org/Graphics/SVG/1.1/DTD/svg11.dtd" >
<svg xmlns="http://www.w3.org/2000/svg">
<metadata></metadata>
<defs>
<font id="terfensregular" horiz-adv-x="1089" >
<font-face units-per-em="2048" ascent="1290" descent="-758" />
<missing-glyph horiz-adv-x="512" />
<glyph unicode="&#xfb01;" horiz-adv-x="1255" d="M39 1163q0 20 7 33.5t27.5 21t54.5 9.5t89 2h49v26q0 100 24.5 185.5t74 148t123 97t171.5 34.5q37 0 75 -5t69 -15t50 -23.5t19 -29.5q0 -10 -7 -29t-17 -36t-21.5 -29.5t-21.5 -12.5q-25 0 -43.5 5t-36.5 12.5t-39.5 12.5t-54.5 5q-61 0 -98 -36t-58.5 -86t-29 -105.5 t-7.5 -94.5v-24h271q121 0 180 12t72 12q29 0 45 -10t23 -39.5t8 -84t1 -140.5v-682q0 -84 16.5 -130t57.5 -46q8 0 20.5 5t23.5 11t19.5 11.5t10.5 5.5q12 0 22.5 -11.5t19.5 -29t14 -35t5 -29.5q0 -4 -13 -16.5t-33.5 -24.5t-47.5 -22.5t-53 -10.5q-82 0 -129 29t-69.5 79 t-29 119.5t-6.5 151.5v729h-428v-833q0 -86 -1 -140.5t-8 -84t-23.5 -40t-45.5 -10.5q-6 0 -21 1t-31.5 4.5t-29 7.5t-12.5 12v1083h-207q-6 0 -10 10.5t-6 25t-3 26.5t-1 18z" />
<glyph unicode="&#xfb02;" horiz-adv-x="1253" d="M39 1163q0 20 7 33.5t27.5 21t54.5 9.5t89 2h49v26q0 100 24.5 185.5t74 148t123 97t171.5 34.5q72 0 140.5 -11t121 -48t84 -107.5t31.5 -189.5v-1069q0 -84 16.5 -130t57.5 -46q8 0 20.5 5t23.5 11t19.5 11.5t10.5 5.5q12 0 22.5 -11.5t19.5 -29t14 -35t5 -29.5 q0 -4 -13 -16.5t-33.5 -24.5t-47.5 -22.5t-53 -10.5q-82 0 -129 29t-69.5 79t-29 119.5t-6.5 151.5v1014q0 61 -13 102t-42 64.5t-73 33t-105 9.5t-98 -36t-58.5 -86t-29 -105.5t-7.5 -94.5v-24h252q6 0 10.5 -10.5t6.5 -24.5t3 -26.5t1 -18.5q0 -23 -7.5 -35t-28 -19.5 t-54 -9.5t-89.5 -2h-94v-833q0 -86 -1 -140.5t-8 -84t-23.5 -40t-45.5 -10.5q-6 0 -21 1t-31.5 4.5t-29 7.5t-12.5 12v1083h-207q-6 0 -10 10.5t-6 25t-3 26.5t-1 18z" />
<glyph unicode="&#xfb03;" horiz-adv-x="1884" d="M39 1163q0 20 7 33.5t27.5 21t54.5 9.5t89 2h49v26q0 100 24.5 185.5t74 148t123 97t171.5 34.5q37 0 75 -5t69 -15t50 -23.5t19 -29.5q0 -10 -7 -29t-17 -36t-21.5 -29.5t-21.5 -12.5q-25 0 -43.5 5t-36.5 12.5t-39.5 12.5t-54.5 5q-61 0 -98 -36t-58.5 -86t-29 -105.5 t-7.5 -94.5v-24h457v26q0 100 24.5 185.5t73.5 148t123 97t172 34.5q37 0 75 -5t68.5 -15t50 -23.5t19.5 -29.5q0 -10 -7 -29t-17.5 -36t-21.5 -29.5t-21 -12.5q-25 0 -43.5 5t-37 12.5t-40 12.5t-53.5 5q-61 0 -98.5 -36t-59 -86t-28.5 -105.5t-7 -94.5v-24h252 q133 0 195.5 12t74.5 12q29 0 45.5 -10t23.5 -39.5t8 -84t1 -140.5v-682q0 -84 16.5 -130t57.5 -46q8 0 20.5 5t23.5 11t19 11.5t11 5.5q12 0 22 -11.5t19.5 -29t14.5 -35t5 -29.5q0 -4 -13.5 -16.5t-34 -24.5t-47 -22.5t-52.5 -10.5q-82 0 -129.5 29t-70 79t-28.5 119.5 t-6 151.5v731q-16 -2 -37.5 -2h-48.5h-342v-833q0 -86 -1 -140.5t-8 -84t-23.5 -40t-45.5 -10.5q-6 0 -21.5 1t-31.5 4.5t-28.5 7.5t-12.5 12v1083h-457v-833q0 -86 -1 -140.5t-8 -84t-23.5 -40t-45.5 -10.5q-6 0 -21 1t-31.5 4.5t-29 7.5t-12.5 12v1083h-207q-6 0 -10 10.5 t-6 25t-3 26.5t-1 18z" />
<glyph unicode="&#xfb04;" horiz-adv-x="1882" d="M39 1163q0 20 7 33.5t27.5 21t54.5 9.5t89 2h49v26q0 100 24.5 185.5t74 148t123 97t171.5 34.5q37 0 75 -5t69 -15t50 -23.5t19 -29.5q0 -10 -7 -29t-17 -36t-21.5 -29.5t-21.5 -12.5q-25 0 -43.5 5t-36.5 12.5t-39.5 12.5t-54.5 5q-61 0 -98 -36t-58.5 -86t-29 -105.5 t-7.5 -94.5v-24h457v26q0 100 24.5 185.5t73.5 148t123 97t172 34.5q72 0 140.5 -11t121 -48t84 -107.5t31.5 -189.5v-1069q0 -84 16.5 -130t57.5 -46q8 0 20.5 5t23.5 11t19 11.5t10 5.5q12 0 22.5 -11.5t20 -29t14.5 -35t5 -29.5q0 -4 -13.5 -16.5t-34 -24.5t-47 -22.5 t-53.5 -10.5q-82 0 -129 29t-69.5 79t-28.5 119.5t-6 151.5v1014q0 61 -13.5 102t-42 64.5t-72.5 33t-105 9.5t-98.5 -36t-59 -86t-28.5 -105.5t-7 -94.5v-24h252q6 0 10 -10.5t6 -24.5t3 -26.5t1 -18.5q0 -23 -7 -35t-27.5 -19.5t-54 -9.5t-89.5 -2h-94v-833 q0 -86 -1 -140.5t-8 -84t-23.5 -40t-45.5 -10.5q-6 0 -21.5 1t-31.5 4.5t-28.5 7.5t-12.5 12v1083h-457v-833q0 -86 -1 -140.5t-8 -84t-23.5 -40t-45.5 -10.5q-6 0 -21 1t-31.5 4.5t-29 7.5t-12.5 12v1083h-207q-6 0 -10 10.5t-6 25t-3 26.5t-1 18z" />
<glyph horiz-adv-x="0" />
<glyph unicode="&#xd;" horiz-adv-x="512" />
<glyph unicode=" "  horiz-adv-x="512" />
<glyph unicode="&#x09;" horiz-adv-x="512" />
<glyph unicode="&#xa0;" horiz-adv-x="512" />
<glyph unicode="!" horiz-adv-x="657" d="M223 102q0 59 35 96.5t76 37.5q35 0 61.5 -30t26.5 -95q0 -57 -36 -92t-77 -35q-35 0 -60.5 27.5t-25.5 90.5zM239 1421.5q-3 28.5 5 46t31.5 23.5t76.5 6q27 0 43.5 -9t25.5 -35t11 -69.5t2 -113.5q-6 -178 -11 -304t-9 -213t-9.5 -140.5t-10.5 -87t-11 -53t-14 -36.5 q-10 -20 -21.5 -25t-28.5 -5q-12 0 -25 5t-15 21q-8 125 -12.5 225.5t-7.5 202t-6 217t-9 271.5q-2 45 -5 73.5z" />
<glyph unicode="&#x22;" horiz-adv-x="870" d="M195 1020v506h149v-410l-43 -96h-106zM524 1020v506h152v-408l-45 -98h-107z" />
<glyph unicode="#" horiz-adv-x="1228" d="M70 514q0 37 29.5 46t121.5 9h141l66 351h-264q-6 0 -9 9t-5.5 20.5t-3.5 21.5t-1 14q0 37 30 46t122 9h152l79 430q0 4 9.5 6.5t19.5 2.5q45 0 61.5 -11.5t16.5 -46.5q0 -33 -12 -106l-52 -275h199l80 430q0 4 9 6.5t20 2.5q45 0 61 -11.5t16 -46.5q0 -33 -12 -106 l-51 -275h248q6 0 9 -9t5 -20.5t3 -21.5t1 -14q0 -37 -29.5 -46t-123.5 -9h-136l-63 -351h258q6 0 9 -9t5 -20.5t3 -21.5t1 -14q0 -37 -29.5 -46t-123.5 -9h-146l-82 -453q0 -10 -28 -10q-43 0 -60.5 12t-17.5 47q0 31 12 105l54 299h-199l-82 -453q0 -10 -29 -10 q-43 0 -60.5 12t-17.5 47q0 31 13 105l53 299h-252q-6 0 -9 9t-5 20t-3 21.5t-1 14.5zM485 569h199l66 351h-201z" />
<glyph unicode="$" horiz-adv-x="1081" d="M70 109q0 35 24.5 69.5t52.5 34.5q10 0 21 -6q66 -39 139.5 -62.5t155.5 -23.5q43 0 98 13t106.5 39t86 67t34.5 96t-28 98q-47 70 -117 120t-145.5 94t-151.5 89t-133 105q-59 59 -96 132t-37 167q0 68 29.5 127t82 106t120 78t145.5 41v223q0 8 10 13.5t23.5 8.5 t26.5 4t18 1q23 0 36 -9.5t19 -35t8 -69.5t2 -113v-21q82 -4 143.5 -22.5t126.5 -59.5q25 -14 25 -49t-24.5 -69.5t-53.5 -34.5q-12 0 -20 6q-20 10 -41 20t-45 21q-43 16 -90.5 27.5t-94.5 11.5q-53 0 -103 -15.5t-91 -52.5q-27 -25 -43.5 -53.5t-16.5 -61.5 q0 -53 21.5 -98t58.5 -84q49 -53 109.5 -96t123 -83l125 -80t117.5 -85q66 -55 110 -119.5t44 -150.5q0 -74 -28.5 -137.5t-80 -112.5t-121 -82t-151.5 -47q-2 -121 -13.5 -185.5t-51.5 -64.5q-4 0 -17.5 1t-27 4t-23.5 8t-10 13v211q-68 2 -119 7.5t-93 14.5t-78 24.5 t-73 37.5q-25 14 -24 50z" />
<glyph unicode="%" horiz-adv-x="1714" d="M70 1130q0 82 27.5 150t75.5 116t109.5 74.5t129.5 26.5t129 -26.5t109 -74.5t76 -116t28 -150t-23.5 -149.5t-68 -115.5t-107.5 -74.5t-143 -26.5t-143.5 26.5t-107.5 74.5t-67.5 116t-23.5 149zM242 1130q0 -117 51 -169t119 -52t119 52t51 169q0 113 -52.5 167.5 t-117.5 54.5q-66 0 -118 -54.5t-52 -167.5zM340 27q0 12 7 28.5t16.5 35t18.5 35.5t17 30l791 1300q10 18 24.5 24.5t30.5 6.5q8 0 25.5 -3t33 -9.5t27.5 -16.5t12 -24q0 -29 -22.5 -64t-34.5 -53l-790 -1301q-10 -18 -35 -24t-45 -6q-35 0 -55.5 11t-20.5 30zM961 367 q0 82 27.5 149.5t75.5 115.5t109.5 74.5t129.5 26.5t129 -26.5t109 -74.5t76 -115.5t28 -149.5t-24 -149.5t-68 -116t-107.5 -75t-142.5 -26.5q-80 0 -143.5 26.5t-107.5 75t-67.5 116t-23.5 149.5zM1133 367q0 -117 51 -169.5t119 -52.5t119 52.5t51 169.5q0 113 -52.5 167 t-117.5 54q-66 0 -118 -54.5t-52 -166.5z" />
<glyph unicode="&#x26;" horiz-adv-x="1437" d="M92 406q0 139 107.5 262t285.5 235q-72 74 -126 161t-54 185q0 80 26.5 141.5t75 104.5t113 65.5t137.5 22.5q70 0 133.5 -21.5t112.5 -62.5t78 -99.5t29 -133.5q0 -66 -27 -121t-68 -102.5t-93 -88.5t-101 -77l340 -414q18 16 41.5 49t47.5 65.5t46.5 57t36.5 24.5 q4 0 19.5 -7t33 -19t30.5 -28.5t13 -35.5q0 -8 -18.5 -37.5t-44 -66.5t-52 -73t-45.5 -58l199 -246q35 -41 35 -72q0 -18 -22.5 -29.5t-82.5 -11.5q-35 0 -60.5 19.5t-49.5 50.5l-141 174q-92 -109 -213 -180.5t-256 -71.5q-115 0 -204 36t-152.5 96.5t-96.5 140t-33 166.5z M272 410q0 -55 23.5 -107.5t63.5 -92.5t94.5 -64.5t115.5 -24.5q57 0 109.5 19.5t98.5 50t88 69.5t81 78l-360 440q-53 -37 -108.5 -75.5t-101.5 -84t-75 -96.5t-29 -112zM469 1272q0 -37 14.5 -73t36 -70.5t49 -67.5t52.5 -64q66 51 109.5 88t69 67t37 56.5t11.5 59.5 q0 88 -55.5 135t-139.5 47q-76 0 -130 -49t-54 -129z" />
<glyph unicode="'" horiz-adv-x="550" d="M203 1036v402l30 88h115v-490h-145z" />
<glyph unicode="(" horiz-adv-x="520" d="M96 635q0 129 21.5 265t62.5 261t102.5 232.5t139.5 179.5q23 20 31 15t18 -23q10 -16 17.5 -29.5t-5.5 -32.5q-121 -174 -165 -394t-44 -474q0 -256 44 -475t165 -393q12 -18 5 -32t-17 -30q-10 -18 -18.5 -23.5t-30.5 15.5q-78 72 -139.5 179.5t-102.5 232t-62.5 261 t-21.5 265.5z" />
<glyph unicode=")" horiz-adv-x="520" d="M32 -265.5q-7 13.5 5 32.5q121 174 165 393t44 475q0 254 -44 474t-165 394q-12 18 -5 31.5t17 30.5q10 18 18 23t31 -15q78 -72 138.5 -179.5t102.5 -232.5t63.5 -261t21.5 -265t-21.5 -265.5t-63.5 -261t-102.5 -232t-138.5 -179.5q-23 -20 -31 -15t-18 23 q-10 16 -17 29.5z" />
<glyph unicode="*" horiz-adv-x="1060" d="M177.5 1171.5q-7.5 2.5 0.5 24.5l33 92q10 25 17.5 23t23.5 -13q55 -29 110.5 -50t112.5 -38q4 59 2 117.5t-16 116.5q-6 23 -3 33t34 10h77q31 0 34 -10.5t-3 -32.5q-14 -57 -16 -116t2 -118q57 16 112.5 38t110.5 50q16 10 23.5 12.5t17.5 -22.5l33 -92q8 -23 1 -25 t-26 -6q-59 -10 -118.5 -24.5t-118.5 -36.5q61 -86 145 -176q20 -16 25.5 -27.5t-23.5 -32.5l-57 -43q-31 -23 -40 -12.5t-20 37.5q-23 47 -53.5 93t-67.5 93q-37 -47 -67.5 -93t-52.5 -93q-10 -27 -19.5 -37t-40.5 12l-57 43q-29 20 -24 31.5t26 28.5q84 90 145 176 q-59 23 -118.5 37t-118.5 24q-18 4 -25.5 6.5z" />
<glyph unicode="+" horiz-adv-x="1191" d="M98 555q0 20 7.5 33.5t28 19.5t54 8t88.5 2h250v406q0 6 10.5 10t23.5 6t25.5 3t18.5 1q20 0 33.5 -7t20 -27.5t8.5 -54t2 -89.5v-248h405q6 0 10 -10t6.5 -23.5t3.5 -25.5t1 -18q0 -23 -7.5 -35t-28 -18.5t-54 -8.5t-89.5 -2h-247v-407q0 -6 -10.5 -10.5t-23.5 -6.5 t-25.5 -3t-18.5 -1q-23 0 -35 7t-18.5 27.5t-8.5 54.5t-2 89v250h-407q-6 0 -10.5 10.5t-6.5 23.5t-3 25.5t-1 18.5z" />
<glyph unicode="," horiz-adv-x="440" d="M86 102q0 45 29.5 87t81.5 42q35 0 61.5 -29.5t26.5 -95.5q0 -35 -15.5 -80.5t-41 -86.5t-57.5 -71t-65 -30q-8 0 -14 6t-2 17q12 37 16.5 61.5t4.5 42.5q0 20 -4.5 34.5t-8.5 28t-8 30.5t-4 44z" />
<glyph unicode="-" horiz-adv-x="706" d="M90 608q0 20 7 33.5t27.5 20t54.5 8.5t89 2h328q6 0 10 -10.5t6 -23.5t3 -25.5t1 -18.5q0 -23 -7 -35t-27.5 -18t-54 -8.5t-89.5 -2.5h-327q-6 0 -10.5 10.5t-6.5 24t-3 25.5t-1 18z" />
<glyph unicode="." horiz-adv-x="567" d="M184 98q0 59 35 96t76 37q35 0 61.5 -29.5t26.5 -95.5q0 -57 -36 -91.5t-77 -34.5q-35 0 -60.5 27.5t-25.5 90.5z" />
<glyph unicode="/" horiz-adv-x="763" d="M10 -39q0 25 13.5 63.5t23.5 63.5l551 1417q10 29 31.5 36t40.5 7q25 0 54.5 -9t29.5 -32q0 -29 -13.5 -64.5t-23.5 -58.5l-551 -1417q-6 -14 -18.5 -22t-27 -13.5t-27.5 -7.5t-21 -2q-29 0 -45.5 6t-16.5 33z" />
<glyph unicode="0" horiz-adv-x="1206" d="M72 756q0 180 35.5 321.5t104.5 239.5t169 149.5t227 51.5q131 0 230.5 -54.5t165 -156t98.5 -243.5t33 -316q0 -375 -139.5 -575t-393.5 -200q-262 0 -396 206t-134 577zM262 754q0 -328 85 -481.5t251 -153.5q346 0 346 637q0 315 -82 465.5t-254 150.5 q-346 0 -346 -618z" />
<glyph unicode="1" horiz-adv-x="958" d="M180 1171v43q0 47 37 78l172 144q35 29 69 45t83 16q27 0 43 -9t25 -35t11.5 -70t2.5 -113v-1268q0 -8 -13.5 -13t-30 -8.5t-33 -4.5t-22.5 -1q-29 0 -44 9.5t-24.5 35t-11.5 69.5t-2 114v1079l-127 -106q-25 -23 -52 -42.5t-50 -19.5q-33 0 -33 57z" />
<glyph unicode="2" d="M84 115q0 23 12 35l531 583q80 88 125 179.5t45 195.5q0 135 -59.5 189.5t-170.5 54.5q-80 0 -148.5 -24.5t-139.5 -59.5q-25 -12 -50 -13q-14 0 -28.5 11.5t-25.5 27t-18 32.5t-7 32q0 14 12 24q78 55 187.5 85t213.5 30q90 0 166 -18.5t131 -63.5t86 -119.5t31 -185.5 q0 -82 -24.5 -154.5t-63.5 -139t-89 -127t-102 -116.5l-393 -423h639q10 0 18.5 -2.5t8.5 -12.5q-8 -43 -14.5 -69.5t-17.5 -41t-29.5 -19.5t-51.5 -5h-700q-10 0 -23.5 11.5t-25 27.5t-18.5 36.5t-7 39.5z" />
<glyph unicode="3" horiz-adv-x="1120" d="M72 115q0 14 7 31.5t18.5 33t25.5 26.5t29 11q37 0 70.5 -23.5t84.5 -41.5q39 -14 84 -22.5t92 -8.5q66 0 129.5 15.5t113.5 49t81 87t31 130.5q0 139 -84 220.5t-240 81.5q-86 0 -108.5 16t-22.5 47q0 6 1 18.5t3 25.5t5 23.5t9 10.5h117q143 0 213 72.5t70 193.5 q0 68 -22.5 114t-60.5 74.5t-87 42t-105 13.5q-53 0 -103 -16.5t-93 -36t-78 -36t-57 -16.5q-14 0 -28.5 9.5t-27 23.5t-19.5 30.5t-7 31.5q0 14 12 24q78 55 187.5 90t224.5 35q86 0 165.5 -21.5t142 -65.5t100.5 -113.5t38 -168.5q0 -123 -62.5 -216t-187.5 -132 q31 -10 79 -36.5t94 -71.5t79 -113t33 -160q0 -115 -45 -194.5t-119 -131t-168 -74t-194 -22.5q-244 0 -408 115q-12 8 -12 25z" />
<glyph unicode="4" horiz-adv-x="1206" d="M76 442.5q-2 24.5 10 40.5l680 963q6 10 14 21.5t22.5 20.5t39 15t65.5 6q23 0 23 -9v-23v-992h186q6 0 10 -10t6.5 -24.5t3.5 -26.5t1 -18q0 -23 -7.5 -35.5t-28 -19.5t-54 -9t-89.5 -2h-28v-90q0 -86 -1 -140.5t-8.5 -84t-23.5 -40t-45 -10.5q-6 0 -21.5 1t-32 4.5 t-28.5 7.5t-12 12v340h-619q-14 0 -28.5 16.5t-23.5 39t-11 47zM258 485h500v699z" />
<glyph unicode="5" horiz-adv-x="1175" d="M117 115q0 14 7 31.5t18.5 33t25.5 26.5t29 11q37 0 70.5 -23.5t84.5 -41.5q43 -16 83 -23.5t106 -7.5q174 0 262 97t88 269q0 168 -91 266.5t-255 98.5q-86 0 -153.5 -28.5t-139.5 -98.5q-16 -12 -29.5 -12t-13.5 26l63 666q2 29 13.5 43t28 19.5t37 5.5h42.5h604 q6 0 10.5 -10.5t6.5 -25t3 -26.5t1 -18q0 -23 -7 -35t-27.5 -19.5t-54.5 -9.5t-89 -2h-408l-43 -389q49 29 104.5 41t120.5 12q102 0 185.5 -36.5t142.5 -102.5t92 -158t33 -202q0 -119 -36 -214.5t-104.5 -163t-166.5 -103.5t-223 -36q-244 0 -408 115q-12 8 -12 25z" />
<glyph unicode="6" horiz-adv-x="1165" d="M88 520q0 135 53.5 277.5t148.5 273.5t229 237.5t294 168.5q23 8 41 14t37 -23l22 -34q10 -18 16.5 -31.5t-22.5 -30.5q-90 -47 -173 -100t-156.5 -121t-137 -154t-114.5 -200q25 35 61.5 58.5t78.5 37.5t84 20.5t79 6.5q100 0 183 -34t141.5 -94.5t91 -145.5t32.5 -187 q0 -106 -35.5 -195.5t-100 -153t-154 -99.5t-197.5 -36q-121 0 -214 40t-156.5 112t-97.5 172t-34 221zM281 461q0 -156 76.5 -248t230.5 -92q141 0 220 90t79 233q0 74 -19.5 135.5t-57.5 106.5t-92 70.5t-124 25.5q-59 0 -115.5 -19.5t-100.5 -59t-70.5 -100t-26.5 -142.5 z" />
<glyph unicode="7" horiz-adv-x="1198" d="M78 1389q0 6 1 20t3 27.5t6 25t10 11.5h887q8 0 21.5 -15.5t25.5 -38t21.5 -49.5t9.5 -47q0 -12 -2 -16l-631 -1237q-12 -23 -31.5 -40.5t-43 -29.5t-47 -18.5t-44.5 -6.5q-23 0 -36 8.5t-13 24.5q0 12 8 27l647 1292h-606q-57 0 -93 1t-56.5 7t-28.5 18.5t-8 35.5z" />
<glyph unicode="8" horiz-adv-x="1171" d="M104 406q0 117 61.5 212t164.5 154q-78 53 -123 137t-45 185q0 84 33.5 157.5t91 128t134.5 86t165 31.5t164.5 -31.5t134 -86t91.5 -128t34 -157.5q0 -100 -46 -184.5t-124 -137.5q104 -59 165.5 -154.5t61.5 -211.5q0 -90 -38 -168t-103.5 -136.5t-152.5 -92.5 t-187 -34t-187.5 34t-153 92.5t-103.5 136.5t-38 168zM293 406q0 -59 23.5 -111.5t63.5 -90.5t93 -60.5t115 -22.5q61 0 114.5 22.5t93.5 60.5t63.5 90t23.5 112q0 59 -23.5 111t-63.5 91t-93.5 61.5t-114.5 22.5t-114.5 -22.5t-93.5 -61.5t-63.5 -91t-23.5 -111zM328 1094 q0 -53 20.5 -100.5t55 -82t81.5 -54t101 -19.5q53 0 100 19.5t83 54t56.5 81.5t20.5 101q0 53 -20.5 100t-56.5 82t-83 55.5t-100 20.5t-100.5 -20.5t-82 -55.5t-55 -82t-20.5 -100z" />
<glyph unicode="9" horiz-adv-x="1165" d="M88 1014q0 106 36 195t100.5 152.5t153.5 99.5t197 36q119 0 213.5 -40t158 -111.5t97 -172t33.5 -221.5q0 -135 -53 -277.5t-148.5 -273.5t-229.5 -237.5t-294 -167.5q-23 -8 -41 -14.5t-37 22.5l-22 35q-10 18 -16.5 31.5t22.5 29.5q90 47 173 100.5t157 121t136 153.5 t116 201q-25 -35 -63 -58.5t-79 -38t-83 -20.5t-78 -6q-100 0 -183.5 34t-141.5 94t-91 145.5t-33 187.5zM279 1028q0 -74 19 -135.5t57 -106.5t92.5 -70.5t123.5 -25.5q59 0 115.5 19.5t100.5 59.5t71 100.5t27 142.5q0 156 -77 248t-230 92q-141 0 -220 -90.5t-79 -233.5z " />
<glyph unicode=":" horiz-adv-x="567" d="M184 98q0 59 35 96t76 37q35 0 61.5 -29.5t26.5 -95.5q0 -57 -36 -91.5t-77 -34.5q-35 0 -60.5 27.5t-25.5 90.5zM184 1092q0 59 35 96t76 37q35 0 61.5 -30t26.5 -95q0 -57 -36 -92t-77 -35q-35 0 -60.5 28t-25.5 91z" />
<glyph unicode=";" horiz-adv-x="444" d="M86 102q0 45 29.5 87t81.5 42q35 0 61.5 -29.5t26.5 -95.5q0 -35 -15.5 -80.5t-41 -86.5t-57.5 -71t-65 -30q-8 0 -14 6t-2 17q12 37 16.5 61.5t4.5 42.5q0 20 -4.5 34.5t-8.5 28t-8 30.5t-4 44zM90 1094q0 59 35 96t76 37q35 0 61.5 -30t26.5 -95q0 -57 -36 -92t-77 -35 q-35 0 -60.5 28t-25.5 91z" />
<glyph unicode="&#x3c;" horiz-adv-x="1153" d="M94 545q0 41 14.5 55t47.5 29l850 379l22 11t17.5 0t11.5 -24.5t4 -62.5q0 -35 -13.5 -46.5t-37.5 -21.5l-752 -319l752 -320q25 -10 38 -21t13 -46q0 -43 -4 -62.5t-11.5 -24.5t-17.5 0l-22 11l-850 379q-33 14 -47.5 28.5t-14.5 55.5z" />
<glyph unicode="=" horiz-adv-x="1185" d="M98 295v137h989v-137h-989zM100 674v137h987v-137h-987z" />
<glyph unicode="&#x3e;" horiz-adv-x="1155" d="M94 158q0 35 13.5 46t37.5 21l752 320l-752 319q-25 10 -38 21.5t-13 46.5q0 43 4 62.5t11.5 24.5t17.5 0t23 -11l849 -379q33 -14 47.5 -28.5t14.5 -55.5t-14.5 -55.5t-47.5 -28.5l-849 -379q-12 -6 -22.5 -11t-18 0t-11.5 24.5t-4 62.5z" />
<glyph unicode="?" horiz-adv-x="995" d="M104 1279q-2 9 9 30q41 104 134 158.5t222 54.5q76 0 145.5 -19.5t121.5 -58.5t83 -99.5t31 -142.5q0 -90 -28.5 -153.5t-70.5 -115.5t-92.5 -98.5t-92.5 -99.5t-70.5 -120.5t-28.5 -161.5v-54q0 -25 -5 -39t-34 -14q-43 0 -65.5 4t-33 10.5t-12.5 16.5t-2 22v54 q0 72 7.5 132t31.5 117q27 66 82.5 122.5t108.5 112.5t94 118.5t41 142.5q0 92 -65.5 138t-163.5 46q-66 0 -115 -24.5t-74 -77.5q-10 -18 -15 -28.5t-34 -4.5l-78 17q-29 6 -31 15zM289 88q0 59 34.5 96t75.5 37q35 0 61.5 -29.5t26.5 -95.5q0 -57 -35.5 -92t-76.5 -35 q-35 0 -60.5 28t-25.5 91z" />
<glyph unicode="@" horiz-adv-x="1632" d="M82 694q0 168 65.5 311.5t173 246t244.5 160.5t283 58q150 0 278.5 -50t223 -136t147.5 -204t53 -253q0 -104 -33.5 -203.5t-92 -176t-136.5 -124t-168 -47.5q-57 0 -99 33t-60 92q-63 -61 -126 -94t-124 -33q-57 0 -107.5 21.5t-87.5 59.5t-57.5 90.5t-20.5 113.5 q0 86 24.5 172t77 154.5t133.5 110.5t193 42q70 0 119 -21.5t82 -56t48 -78.5t15 -89q0 -41 -7 -83t-15 -83t-15.5 -79t-7.5 -71q0 -39 19.5 -65.5t50.5 -26.5q45 0 91 27.5t83 83t60.5 136.5t23.5 187q0 115 -44 212t-121 169t-180 112t-220 40q-139 0 -256 -57.5 t-200 -151.5t-129 -212t-46 -237q0 -141 51 -260t139.5 -203t203 -131t241.5 -47q131 0 233.5 32t178.5 103q10 10 18 16.5t18 6.5q4 0 21 -4l59 -25q18 -6 19 -20q0 -10 -15 -25q-106 -106 -238 -155.5t-298 -49.5q-164 0 -304.5 57.5t-242.5 159t-160.5 240.5t-58.5 305z M563 594q0 -86 47 -143.5t133 -57.5q57 0 106.5 32t84.5 81t54.5 109.5t19.5 117.5q0 78 -39 134.5t-129 56.5q-63 0 -114.5 -31t-87.5 -79t-55.5 -106.5t-19.5 -113.5z" />
<glyph unicode="A" horiz-adv-x="1200" d="M20 2q-4 11 -4 27q0 22 9 53q88 354 194.5 660t245.5 595q25 51 45 83t37.5 49.5t30 22.5t22.5 5q8 0 21.5 -5t31 -22.5t38 -49t44.5 -83.5q137 -289 244.5 -595t196.5 -660q8 -30 8 -52q0 -16 -4 -28q-10 -27 -58 -27q-35 0 -64.5 10.5t-41.5 53.5q-29 111 -57.5 217 t-61.5 213h-594q-33 -106 -61.5 -212.5t-57.5 -217.5q-12 -43 -41.5 -53.5t-64.5 -10.5q-48 0 -58 27zM348 614h504q-53 162 -115.5 318.5t-136.5 310.5q-74 -154 -136.5 -310.5t-115.5 -318.5z" />
<glyph unicode="B" horiz-adv-x="1196" d="M152 98v1274q0 29 8 43.5t45 28.5q70 23 150.5 38t166.5 15q104 0 199.5 -19.5t167.5 -65.5t115 -119.5t43 -184.5q0 -104 -61 -185t-157 -122q141 -41 218 -132t77 -237q0 -137 -50 -226t-131 -140.5t-185.5 -71t-212.5 -19.5q-92 0 -180.5 14.5t-163.5 39.5 q-33 10 -41 23.5t-8 45.5zM332 158q98 -37 217 -37q74 0 143.5 10t122.5 43t85 94.5t32 163.5q0 129 -94.5 206t-253.5 77h-252v-557zM332 846h180q342 0 342 262q0 72 -26.5 119t-71.5 74.5t-101.5 39t-117.5 11.5q-53 0 -105.5 -5.5t-99.5 -17.5v-483z" />
<glyph unicode="C" horiz-adv-x="1189" d="M86 737q0 137 32 272.5t104.5 244t188 176t285.5 67.5q115 0 213.5 -21.5t200.5 -93.5q12 -10 12 -24t-7 -31.5t-18.5 -33t-25.5 -27t-29 -11.5q-16 0 -38.5 11.5t-45.5 21.5q-59 29 -124.5 46.5t-139.5 17.5q-117 0 -196.5 -55.5t-127.5 -143.5t-69.5 -197.5 t-21.5 -218.5t21.5 -218t69.5 -198.5t128 -144.5t196 -55q74 0 139.5 17.5t124.5 45.5q23 10 45.5 21.5t38.5 11.5q14 0 28.5 -11t26 -26.5t18.5 -33t7 -31.5q0 -16 -12 -25q-102 -72 -200.5 -93.5t-213.5 -21.5q-170 0 -285.5 68t-188 176.5t-104.5 244.5t-32 273z" />
<glyph unicode="D" horiz-adv-x="1335" d="M152 98v1276q0 29 8 43.5t45 26.5q82 29 160.5 41t156.5 12q182 0 318.5 -65.5t227.5 -172t136 -243.5t45 -279q0 -143 -45 -279t-136 -244t-227 -173.5t-319 -65.5q-152 0 -321 54q-33 10 -41 23.5t-8 45.5zM332 158q43 -20 92 -28.5t100 -8.5q137 0 238.5 50t166 133 t96.5 189.5t32 219.5q0 119 -34 233.5t-101.5 204.5t-167 145.5t-230.5 55.5q-51 0 -100 -8.5t-92 -28.5v-1157z" />
<glyph unicode="E" horiz-adv-x="1130" d="M152 98v1276q0 29 8 43.5t43 26.5q20 8 43.5 13t46.5 9q72 16 151.5 23.5t157.5 7.5q43 0 95.5 -2t105.5 -8t104 -17.5t92 -31.5q16 -8 33 -17.5t17 -19.5q0 -14 -6.5 -31.5t-16.5 -34t-23.5 -28t-27.5 -11.5q-8 0 -17.5 2t-19.5 7q-76 23 -152.5 35t-162.5 12 q-33 0 -73 -1t-79 -5.5t-76 -11.5t-63 -19v-469h598q6 0 10 -10.5t6 -24.5t3 -26.5t1 -18.5q0 -43 -35.5 -54.5t-144.5 -11.5h-438v-542q27 -12 63.5 -19.5t75.5 -11.5t79 -5t73 -1q86 0 162.5 12t152.5 35q10 4 19.5 6t17.5 2q14 0 27.5 -11t23.5 -27.5t16.5 -34t6.5 -31.5 q0 -10 -16.5 -19.5t-33.5 -17.5q-41 -20 -92 -31.5t-104 -17.5t-105.5 -8.5t-95.5 -2.5q-94 0 -186 10.5t-174 32.5q-35 8 -62.5 20.5t-27.5 59.5z" />
<glyph unicode="F" horiz-adv-x="1056" d="M152 0v1374q0 29 8 43.5t45 26.5q96 29 196.5 41t200.5 12q43 0 95.5 -2t105.5 -8t104 -17.5t92 -31.5q16 -8 33 -17.5t17 -19.5q0 -14 -6.5 -31.5t-16.5 -34t-23.5 -28t-27.5 -11.5q-8 0 -17.5 2t-19.5 7q-76 23 -152.5 35t-162.5 12q-33 0 -73 -1t-79 -5.5t-76 -11.5 t-63 -19v-492h598q6 0 10 -10t6 -24.5t3 -26.5t1 -19q0 -43 -35.5 -54t-144.5 -11h-438v-520q0 -57 -4 -93t-14.5 -55.5t-27 -27t-40.5 -7.5q-6 0 -21.5 1t-32 4.5t-28.5 7.5t-12 12z" />
<glyph unicode="G" horiz-adv-x="1249" d="M86 737q0 137 32 272.5t104.5 244t188 176t285.5 67.5q115 0 213.5 -21.5t200.5 -93.5q12 -10 12 -24t-7 -31.5t-18.5 -33t-25.5 -27t-29 -11.5q-16 0 -38.5 11.5t-45.5 21.5q-59 29 -124.5 46.5t-139.5 17.5q-117 0 -196.5 -55.5t-127.5 -143.5t-69.5 -197.5 t-21.5 -218.5t21.5 -218t69.5 -198.5t128 -144.5t196 -55q70 0 130.5 14.5t117.5 40.5v504q0 8 13.5 13t29.5 8.5t32.5 4.5t22.5 1q27 0 43.5 -9.5t25.5 -35t11 -69.5t2 -114v-305q0 -59 -47 -97t-114.5 -60.5t-140 -32t-124.5 -9.5q-170 0 -285.5 68t-188 176.5 t-104.5 244.5t-32 273z" />
<glyph unicode="H" horiz-adv-x="1361" d="M152 2v1468q0 8 13 13.5t29.5 8.5t33 4t22.5 1q27 0 43 -9t25.5 -35t11.5 -70t2 -113v-414h698v614q0 8 13.5 13.5t30 8.5t32.5 4t22 1q27 0 43.5 -9t25.5 -35t11 -70t2 -113v-1067q0 -70 -2 -114t-11 -69.5t-25.5 -35t-43.5 -9.5q-6 0 -22 1t-32.5 4.5t-30 8.5t-13.5 13 v709h-698v-508q0 -70 -2 -114t-11.5 -69.5t-26 -35t-42.5 -9.5q-6 0 -22.5 1t-33 4.5t-29.5 8.5t-13 13z" />
<glyph unicode="I" horiz-adv-x="487" d="M154 2v1468q0 8 13 13.5t29.5 8.5t33 4t22.5 1q27 0 43 -9t25.5 -35t11.5 -70t2 -113v-1067q0 -70 -2 -114t-11.5 -69.5t-25.5 -35t-43 -9.5q-6 0 -22.5 1t-33 4.5t-29.5 8.5t-13 13z" />
<glyph unicode="J" horiz-adv-x="489" d="M-268 -520q0 10 7 28.5t17.5 36t21.5 29.5t21 12q25 0 43.5 -5t37 -12t39.5 -12.5t54 -5.5q66 0 103 40t55.5 104.5t22.5 144.5t4 162v1468q0 8 13 13.5t29.5 8.5t33 4t22.5 1q27 0 43 -9t25.5 -35t11.5 -70t2 -113v-1399q0 -100 -24.5 -185t-74 -147.5t-123 -97.5 t-171.5 -35q-37 0 -75 5t-68.5 15.5t-50 23.5t-19.5 30z" />
<glyph unicode="K" horiz-adv-x="1202" d="M152 2v1468q0 8 13 13.5t29.5 8.5t33 4t22.5 1q27 0 43 -9t25.5 -35t11.5 -70t2 -113v-508l594 684q29 31 53.5 41t69.5 10q66 0 83 -13.5t19 -23.5q0 -10 -16 -26l-553 -615l608 -780q11 -16 11 -27q0 -4 -1 -6q-4 -12 -19.5 -19t-37 -9.5t-39.5 -2.5q-45 0 -71.5 10.5 t-55.5 41.5l-506 653l-139 -158v-319q0 -70 -2 -114t-11.5 -69.5t-26 -35t-42.5 -9.5q-6 0 -22.5 1t-33 4.5t-29.5 8.5t-13 13z" />
<glyph unicode="L" horiz-adv-x="991" d="M152 76v1394q0 8 13 13.5t29.5 8.5t33 4t22.5 1q27 0 43 -9t25.5 -35t11.5 -70t2 -113v-1123h622q6 0 10.5 -10t6.5 -24.5t3 -26.5t1 -18q0 -43 -36 -54.5t-144 -11.5h-580q-23 0 -36 6t-19 16.5t-7 23.5t-1 28z" />
<glyph unicode="M" horiz-adv-x="1724" d="M31 45q37 332 122 687t242 724q18 41 51 41q16 0 31 -10t25 -31q111 -256 206 -535.5t154 -543.5q59 264 154.5 543.5t206.5 535.5q10 20 24.5 30.5t30.5 10.5q33 0 51 -41q158 -369 243 -724t122 -687q0 -70 -52 -70q-41 0 -72.5 10.5t-41.5 71.5q-25 172 -56.5 332 t-64.5 301t-66.5 259t-64.5 204q-43 -96 -88 -226t-90 -279.5t-89 -309.5t-87 -315q-6 -23 -23.5 -35.5t-36.5 -12.5q-18 0 -35.5 12.5t-23.5 35.5q-43 156 -87 315.5t-89 309t-90 279.5t-88 226q-31 -86 -65 -204t-66.5 -259t-64.5 -301t-56 -332q-10 -61 -42 -71.5 t-73 -10.5q-51 0 -51 70z" />
<glyph unicode="N" horiz-adv-x="1431" d="M160 0v1434q0 63 30 63q14 0 36 -18.5t44 -44.5l828 -1080v1119q0 8 13 12t30.5 7t34 4t22.5 1q29 0 45.5 -10t23.5 -40t9 -84t2 -140v-1135q0 -115 -49 -115q-45 0 -121 101l-768 1020v-844q0 -86 -3 -140.5t-12.5 -84t-25.5 -40t-45 -10.5q-6 0 -21.5 1t-32 4.5 t-28.5 7.5t-12 12z" />
<glyph unicode="O" horiz-adv-x="1425" d="M86 733q0 147 36 284.5t112.5 244t194.5 171t284 64.5t283.5 -64.5t194.5 -171t112.5 -243.5t35.5 -285q0 -141 -35.5 -277.5t-111.5 -243t-194.5 -172t-284.5 -65.5t-285 65.5t-194.5 172t-111.5 243t-36 277.5zM279 733q0 -115 22.5 -225.5t74.5 -196.5t134 -138 t203 -52q119 0 201.5 52t135 138t75 196.5t22.5 225.5q0 117 -22.5 227.5t-75 197.5t-135 140.5t-201.5 53.5q-121 0 -203 -53.5t-134 -140.5t-74.5 -197.5t-22.5 -227.5z" />
<glyph unicode="P" horiz-adv-x="1146" d="M152 0v1376q0 29 9 44.5t54 29.5q72 23 158 35t172 12q104 0 202.5 -21.5t176 -72.5t125 -136t47.5 -214q0 -115 -39 -203t-112 -147.5t-174 -90t-226 -30.5q-113 0 -213 18v-350q0 -86 -2 -140.5t-11.5 -84t-26.5 -40t-46 -10.5q-6 0 -21.5 1t-32 4.5t-28.5 7.5t-12 12z M332 764q98 -37 217 -37q104 0 173 25.5t108.5 68.5t56 100.5t16.5 122.5q0 147 -84 227.5t-270 80.5q-57 0 -113.5 -9.5t-103.5 -27.5v-551z" />
<glyph unicode="Q" horiz-adv-x="1425" d="M86 733q0 147 36 284.5t112.5 244t194.5 171t284 64.5t283.5 -64.5t194.5 -171t112.5 -243.5t35.5 -285q0 -133 -30.5 -261t-97 -231.5t-170 -173t-246.5 -85.5v-15q0 -39 7 -94t28.5 -105.5t58.5 -86t98 -35.5q33 0 54.5 5t40 12t37 12.5t42.5 5.5q10 0 21.5 -12.5 t21.5 -30t17.5 -36t7.5 -28.5q0 -16 -19.5 -29.5t-50.5 -23.5t-68.5 -15.5t-74.5 -5.5q-98 0 -172 35t-123 97.5t-73.5 147.5t-24.5 185v17q-141 18 -244 87.5t-167.5 173t-95 230.5t-30.5 260zM279 733q0 -115 22.5 -225.5t74.5 -196.5t134 -138t203 -52q119 0 201.5 52 t135 138t75 196.5t22.5 225.5q0 117 -22.5 227.5t-75 197.5t-135 140.5t-201.5 53.5q-121 0 -203 -53.5t-134 -140.5t-74.5 -197.5t-22.5 -227.5z" />
<glyph unicode="R" horiz-adv-x="1187" d="M152 0v1376q0 29 9 44.5t54 29.5q72 23 158 35t172 12q104 0 202.5 -21.5t176 -72.5t125 -136t47.5 -214q0 -160 -77 -268.5t-220 -163.5l317 -582q8 -16 8 -27q0 -4 -1 -8q-5 -12 -19 -18t-34.5 -8.5t-39.5 -2.5q-39 0 -63.5 8.5t-44.5 43.5l-318 557q-35 -6 -72 -6 q-29 0 -60 4q-69 8 -140 18v-350q0 -86 -2 -140.5t-11.5 -84t-27 -40t-45.5 -10.5q-6 0 -21.5 1t-32 4.5t-28.5 7.5t-12 12zM332 764q98 -37 217 -37q104 0 173 25.5t108.5 68.5t56 100.5t16.5 122.5q0 147 -84 227.5t-270 80.5q-57 0 -113.5 -9.5t-103.5 -27.5v-551z" />
<glyph unicode="S" horiz-adv-x="1083" d="M85 160q13 28 36.5 43.5t48.5 3.5q51 -29 127 -57.5t201 -28.5q55 0 108 16.5t94 46t66 73.5t25 99q0 45 -20.5 83t-55.5 72t-82 65.5t-98 64.5q-74 47 -154 97t-146.5 109.5t-109.5 131.5t-43 162q0 74 36 139.5t96 113.5t139 75.5t165 27.5q59 0 107.5 -4t89.5 -14.5 t78.5 -26.5t78.5 -39q25 -14 27 -42t-10 -54.5t-35 -41.5t-47 -3q-27 12 -54.5 26.5t-61.5 26.5t-76 19.5t-97 7.5q-37 0 -80 -12.5t-79.5 -37t-60.5 -59.5t-24 -80q0 -55 21.5 -101t58.5 -86t85 -76t102 -69q76 -47 153.5 -93t142 -101t105.5 -123t41 -156 q0 -84 -40 -154.5t-108.5 -120.5t-160.5 -79t-195 -29q-76 0 -131 5.5t-98 15.5t-80 25.5t-74 37.5q-25 14 -25 43t14 58z" />
<glyph unicode="T" horiz-adv-x="1083" d="M14 1409q0 27 9.5 42t35 22.5t69.5 8.5t114 1h800q8 0 13.5 -12.5t8.5 -28t4 -29.5t1 -20q0 -29 -9 -42.5t-34 -17.5t-69 -4h-113h-213v-1079q0 -86 -2 -140.5t-11.5 -84t-26.5 -40t-46 -10.5q-6 0 -21.5 1t-32 4.5t-28.5 7.5t-12 12v1329h-408q-8 0 -14 10.5t-9.5 23.5 t-4.5 26.5t-1 19.5z" />
<glyph unicode="U" horiz-adv-x="1386" d="M152 520v953q0 8 12 12t28.5 7t32 4t21.5 1q29 0 45 -10t23.5 -40t8.5 -84t1 -140v-686q0 -205 91 -310.5t275 -105.5q182 0 277.5 108.5t95.5 309.5v934q0 8 12 12t28.5 7t32 4t21.5 1q29 0 45.5 -10t23.5 -40t8 -84t1 -140v-697q0 -264 -140.5 -407.5t-404.5 -143.5 q-135 0 -236.5 43t-169 118t-100 174.5t-32.5 209.5z" />
<glyph unicode="V" horiz-adv-x="1196" d="M19 1470q10 26 57 27q35 0 64.5 -10t41.5 -53q49 -184 96.5 -347t97.5 -309.5t104.5 -282t117.5 -266.5q63 131 117.5 266.5t104.5 282t97.5 309t96.5 347.5q12 43 41.5 53t64.5 10q48 -1 58 -27q4 -11 4 -27q0 -22 -8 -52q-88 -354 -196 -660.5t-245 -595.5 q-25 -53 -45 -84t-37.5 -48t-31 -22.5t-21.5 -5.5q-10 0 -22.5 5.5t-30 22.5t-38 48t-44.5 84q-139 289 -245.5 595t-194.5 661q-8 31 -8 53q0 15 4 26z" />
<glyph unicode="W" horiz-adv-x="1783" d="M19 1470q10 26 57 27q35 0 64.5 -10t41.5 -53q49 -184 96.5 -347t97.5 -309.5t104.5 -282t117.5 -266.5q111 236 207 500q-55 156 -103.5 318.5t-91.5 343.5q-8 31 -8 53q0 16 4 26q10 26 58 27q35 0 64.5 -10t41.5 -53q31 -119 60.5 -226.5t60.5 -210.5q31 102 61.5 210 t61.5 227q12 43 41.5 53t64.5 10q48 -1 58 -27q4 -11 4 -27q0 -22 -8 -52q-45 -180 -93.5 -343t-101.5 -319q92 -264 207 -500q63 131 117.5 266.5t104.5 282t97 309t97 347.5q12 43 41.5 53t64.5 10q48 -1 58 -27q4 -11 4 -26q0 -22 -9 -53q-88 -354 -195.5 -660.5 t-244.5 -595.5q-25 -53 -45.5 -84t-37.5 -48t-30.5 -22.5t-21.5 -5.5q-10 0 -22.5 5.5t-30 22.5t-38 48t-44.5 84q-43 90 -83 179t-77 182q-37 -92 -76 -181.5t-82 -179.5q-25 -53 -45 -84t-37.5 -48t-31 -22.5t-21.5 -5.5q-10 0 -22.5 5.5t-30 22.5t-38 48t-44.5 84 q-139 289 -245.5 595t-194.5 661q-8 31 -8 53q0 15 4 26z" />
<glyph unicode="X" horiz-adv-x="1081" d="M20 -8q-8 8 -8 21q0 17 11 42q88 195 197.5 365t225.5 336q-111 162 -215 327.5t-196 352.5q-16 33 3 47t48 14q41 0 68.5 -5t48.5 -38q72 -154 159 -292t179 -273q92 135 179 273t159 292q20 33 47.5 38t68.5 5q29 0 48.5 -14.5t3.5 -46.5q-92 -186 -198 -352t-216 -328 q117 -166 226.5 -336t199.5 -365q11 -25 11 -41q0 -14 -8 -22q-18 -16 -46 -17q-37 0 -70 5t-47 38q-82 162 -172 308.5t-186 289.5q-96 -143 -187.5 -289.5t-171.5 -308.5q-14 -33 -47 -38t-69 -5q-28 1 -46 17z" />
<glyph unicode="Y" d="M16 1457q0 14 8 23q7 9 19 13t27 4q39 0 69.5 -7t46.5 -36q35 -66 79 -148.5t91 -167.5t95.5 -165t93.5 -139q45 59 93 139t95 165t91 168t79 148q12 29 47 36t70 7q14 0 26.5 -4t19.5 -13.5t7 -24.5t-10 -38q-82 -174 -180.5 -346t-216.5 -364q-10 -16 -20.5 -44 t-10.5 -51v-362q0 -86 -2 -140.5t-11.5 -84t-26.5 -40t-46 -10.5q-6 0 -21.5 1t-32 4.5t-28.5 7.5t-12 12v612q0 18 -9.5 48t-21.5 47q-109 174 -208 349t-189 361q-11 24 -11 40z" />
<glyph unicode="Z" horiz-adv-x="1142" d="M48 133q0 27 11 41l859 1147h-590q-57 0 -93 2t-56.5 9t-29 20.5t-8.5 36.5q0 6 1 20t3 27.5t6.5 25t10.5 11.5h862q14 0 29.5 -23t27 -53.5t14.5 -60.5q1 -6 1 -11q0 -22 -11 -35l-839 -1140h817q6 0 10 -11.5t6 -25t3 -27.5t1 -20q0 -23 -8 -36.5t-28.5 -20.5t-56.5 -9 t-93 -2h-788q-14 0 -27 22q-14 22 -24 50q-10 32 -10 63z" />
<glyph unicode="[" horiz-adv-x="608" d="M123 -350v1917h313q33 0 50.5 -2t28.5 -13.5t16.5 -35t13.5 -66.5q0 -10 -9.5 -12t-19.5 -2h-227v-1655h227q10 0 19.5 -2t9.5 -12q-8 -43 -13.5 -67t-16.5 -35t-28.5 -13t-50.5 -2h-313z" />
<glyph unicode="\" horiz-adv-x="739" d="M15 1510.5q-5 25.5 0 44t34 18.5t51.5 -3t36.5 -38l551 -1411q8 -18 19.5 -46t16.5 -53.5t-1 -44t-33 -18.5q-29 0 -51.5 3t-36.5 38l-551 1411q-8 18 -19.5 46t-16.5 53.5z" />
<glyph unicode="]" horiz-adv-x="608" d="M63 -233q0 10 9.5 12t19.5 2h227v1655h-227q-10 0 -19.5 2t-9.5 12q8 43 13.5 66.5t16.5 35t28.5 13.5t50.5 2h313v-1917h-313q-33 0 -50.5 2t-28.5 13t-16 35t-14 67z" />
<glyph unicode="^" horiz-adv-x="1126" d="M102 803q0 10 19 26l399 514q27 27 43 27t43 -27l400 -514q18 -16 18 -26t-23 -23l-38 -22q-20 -10 -27 -10q-10 0 -29 18l-344 453l-344 -453q-18 -18 -29 -18q-6 0 -26 10l-39 22q-23 12 -23 23z" />
<glyph unicode="_" horiz-adv-x="1001" d="M0 -68q0 23 8 36.5t30.5 19.5t62.5 8t102 2h774q6 0 11 -10.5t8 -24.5t4 -26.5t1 -18.5q0 -23 -8 -36t-30.5 -19t-62.5 -8t-101 -2h-776q-6 0 -11.5 10t-7.5 24.5t-3 26.5t-1 18z" />
<glyph unicode="`" horiz-adv-x="407" d="M-23 1636q0 12 15.5 19.5t37 12.5t43 6t33.5 1t23.5 -6t22.5 -22l159 -242q12 -18 13 -25q0 -4 -10.5 -7t-22.5 -5t-24.5 -3t-18.5 -1q-10 0 -18.5 3t-18.5 13l-227 240q-6 8 -7 16z" />
<glyph unicode="a" horiz-adv-x="1101" d="M61 299q0 109 51.5 203t135.5 162.5t190.5 108.5t218.5 40q39 0 76 -3t74 -7v53q0 129 -53.5 190.5t-190.5 61.5q-59 0 -101 -11.5t-75 -25.5t-57.5 -25.5t-48.5 -11.5q-16 0 -29.5 12.5t-23 29t-15.5 35.5t-6 32q0 23 37 43t91 35.5t116.5 23.5t111.5 8q74 0 148.5 -10 t134 -49t96.5 -118t37 -216v-600q0 -66 4 -135.5t8 -118.5q0 -6 -2 -12t-12 -8q-29 -4 -52.5 -7.5t-43.5 -3.5q-35 0 -54.5 18.5t-19.5 78.5v227q-63 -147 -183 -235.5t-266 -88.5q-78 0 -133 27t-92 72t-54.5 103.5t-17.5 121.5zM242 287q0 -82 45 -121t108 -39 q72 0 145.5 49t133 123t96.5 161t37 163v20q-55 13 -117 13q-34 0 -68 -4q-100 -11 -184 -55t-140 -121.5t-56 -188.5z" />
<glyph unicode="b" horiz-adv-x="1171" d="M143 295v1354q0 16 32 20t52 4q27 0 44.5 -6t27.5 -25.5t13 -55.5t3 -95v-721q29 86 71 172t100.5 155.5t133 112.5t166.5 43q104 0 168 -43t98.5 -113.5t46 -159.5t11.5 -183q0 -131 -41 -268.5t-124 -251t-209 -186.5t-294 -73q-55 0 -108 15.5t-95 52.5t-69 98.5 t-27 153.5zM315 301q0 -102 42 -144t106 -42q109 0 194.5 58t146 148.5t93.5 202t33 219.5q0 70 -6 134.5t-24.5 113.5t-53.5 79t-92 30q-43 0 -92.5 -34t-97.5 -92.5t-93 -136t-80 -166.5t-55.5 -183.5t-20.5 -186.5z" />
<glyph unicode="c" horiz-adv-x="987" d="M96 614q0 119 23.5 235t79 205t147.5 144t229 55q111 0 195 -24.5t150 -59.5q13 -7 13 -25q0 -12 -4 -24q-5 -16 -13.5 -31.5t-12.5 -23.5q-18 -31 -45 -31q-25 0 -49.5 10.5t-57 23.5t-74.5 23.5t-102 10.5q-86 0 -143 -42t-92 -109.5t-49.5 -155.5t-14.5 -181 q0 -92 14.5 -180t49.5 -155.5t92 -109.5t143 -42q59 0 101.5 10t75 23.5t57.5 24t49 10.5q27 0 45 -31q4 -8 13 -22q8 -14 13 -30q4 -13 4 -25q0 -18 -13 -28q-63 -35 -148.5 -59.5t-196.5 -24.5q-137 0 -229 55.5t-147.5 144.5t-79 204t-23.5 235z" />
<glyph unicode="d" horiz-adv-x="1198" d="M80 557q0 137 32.5 263t103.5 222.5t184.5 153.5t273.5 57q92 0 196 -34v436q0 16 32 20t52 4q27 0 44.5 -6t27.5 -25.5t13 -55.5t3 -95v-1237q0 -66 4.5 -135.5t8.5 -118.5q0 -6 -2.5 -12t-12.5 -8q-29 -4 -52 -7.5t-44 -3.5q-35 0 -54.5 18.5t-19.5 78.5v372 q-23 -84 -64.5 -167.5t-100 -150.5t-131 -109t-152.5 -42q-109 0 -175.5 59.5t-103.5 147.5t-50 189.5t-13 185.5zM258 551q0 -66 9 -140.5t32 -138t62 -104.5t98 -41q57 0 127.5 70.5t134 188.5t106.5 269.5t43 313.5v82q-14 10 -38.5 19t-52 16.5t-54.5 11.5t-47 4 q-109 0 -188.5 -45t-131 -120t-76 -175t-24.5 -211z" />
<glyph unicode="e" horiz-adv-x="1042" d="M78 618q0 111 27.5 223.5t86 204t150.5 149.5t219 58q78 0 151.5 -22.5t131 -63.5t92.5 -100t35 -135q0 -102 -44 -173t-115 -115t-161 -64.5t-182 -20.5q-49 0 -111.5 7t-97.5 20v-13q2 -86 18.5 -167.5t52.5 -144t92 -101.5t136 -39q59 0 101 11t75 25.5t57.5 26 t49.5 11.5q27 0 45 -31q6 -12 17 -35t11 -43q0 -23 -36.5 -43t-91 -35.5t-116 -24t-112.5 -8.5q-137 0 -229 55.5t-148.5 146.5t-80 206t-23.5 235zM268 733q53 -12 102.5 -19t92.5 -7q166 0 245.5 60t79.5 163q0 35 -18 66.5t-49 55t-71 38t-85 14.5q-74 0 -125 -26.5 t-84.5 -76t-54.5 -118t-33 -150.5z" />
<glyph unicode="f" horiz-adv-x="747" d="M39 1163q0 20 7 33.5t27.5 21t54.5 9.5t89 2h49v10q0 100 24.5 185t74 147.5t123 97.5t171.5 35q37 0 75 -5t69 -15.5t50 -23.5t19 -30q0 -10 -7 -28.5t-17 -36t-21.5 -29.5t-21.5 -12q-25 0 -43.5 5t-36.5 12t-39.5 12.5t-54.5 5.5q-61 0 -98 -36t-58.5 -86.5 t-29 -105.5t-7.5 -94v-8h250q6 0 10 -10.5t6.5 -24.5t3.5 -26.5t1 -18.5q0 -23 -7.5 -35t-28 -19.5t-54 -9.5t-89.5 -2h-92v-833q0 -86 -1 -140.5t-8 -84t-23.5 -40t-45.5 -10.5q-6 0 -21 1t-31.5 4.5t-29 7.5t-12.5 12v1083h-207q-6 0 -10 10.5t-6 25t-3 26.5t-1 18z" />
<glyph unicode="g" horiz-adv-x="1185" d="M78 483q0 147 31.5 285.5t102.5 246t184.5 172t277.5 64.5q74 0 149.5 -15t155.5 -42q45 -14 54 -32.5t9 -41.5v-962q0 -156 -31.5 -282t-98 -214t-169 -136t-243.5 -48q-104 0 -196.5 19.5t-168.5 64.5q-25 14 -24 49q0 35 24.5 69.5t52.5 34.5q10 0 21 -6 q63 -35 133 -60.5t147 -25.5q125 0 201 56.5t116 145.5t52 199.5t12 219.5v198q-23 -84 -70.5 -168t-110 -150.5t-135.5 -108.5t-146 -42q-109 0 -173.5 50.5t-99.5 126t-46 166t-11 167.5zM258 506q0 -63 5 -131t22.5 -123t53.5 -90t97 -35q41 0 114 56.5t144.5 164 t123.5 263t52 356.5v82q-14 10 -38.5 19t-52 16.5t-54.5 11.5t-47 4q-109 0 -188.5 -45t-131 -125t-76 -188.5t-24.5 -235.5z" />
<glyph unicode="h" horiz-adv-x="1243" d="M143 0v1655q0 8 12.5 12t29 7t31.5 4t22 1q29 0 45 -10t23 -40t8 -84t1 -140v-635q23 82 65 168t103.5 156.5t144.5 114.5t187 44q86 0 143.5 -32.5t91 -88t48 -128t14.5 -150.5v-604q0 -86 -1 -140.5t-8 -84t-23.5 -40t-45.5 -10.5q-6 0 -21.5 1t-31.5 4.5t-28.5 7.5 t-12.5 12v823q0 147 -34 212t-120 65q-57 0 -138 -53.5t-154.5 -161t-126 -270t-52.5 -382.5v-90q0 -104 -15 -136t-62 -32q-6 0 -21.5 1t-32 4.5t-29 7.5t-12.5 12z" />
<glyph unicode="i" horiz-adv-x="524" d="M131 1530q0 59 35 96t76 37q35 0 61.5 -29.5t26.5 -95.5q0 -57 -36 -92t-77 -35q-35 0 -60.5 28t-25.5 91zM135 354v875q0 8 12.5 12t29 7t31.5 4t21 1q29 0 45.5 -10t23.5 -39.5t8 -84t1 -140.5v-682q0 -84 16.5 -130t57.5 -46q8 0 20.5 5t23.5 11t19.5 11.5t10.5 5.5 q12 0 22 -11.5t19.5 -29t14.5 -35t5 -29.5q0 -4 -13.5 -16.5t-33.5 -24.5t-47 -22.5t-53 -10.5q-82 0 -129 29t-70 79t-29 119.5t-6 151.5z" />
<glyph unicode="j" horiz-adv-x="501" d="M-268 -520q0 10 7 28.5t17.5 36t21.5 29.5t21 12q25 0 43.5 -5t37 -12t39.5 -12.5t54 -5.5q61 0 98.5 36t59 86.5t28.5 105.5t7 94v1356q0 8 12 12t28.5 7t32 4t21.5 1q29 0 45.5 -10t23.5 -39.5t8 -84t1 -140.5v-1108q0 -100 -24.5 -185t-74 -147.5t-123 -97.5 t-171.5 -35q-37 0 -75 5t-68.5 15.5t-50 23.5t-19.5 30zM156 1530q0 59 34.5 96t75.5 37q35 0 61.5 -29.5t26.5 -95.5q0 -57 -35.5 -92t-76.5 -35q-35 0 -60.5 28t-25.5 91z" />
<glyph unicode="k" horiz-adv-x="1107" d="M143 0v1655q0 16 32 20t52 4q27 0 44.5 -6t27.5 -25.5t13 -55.5t3 -95v-788l496 497q23 23 43 35t49 12q43 0 68.5 -4t39 -11t16.5 -14t3 -14q0 -10 -16 -26l-541 -535l610 -604q16 -16 17 -27q0 -6 -3 -13t-16.5 -14t-39 -11.5t-68.5 -4.5q-29 0 -49.5 12.5t-42.5 35.5 l-566 567v-340q0 -86 -1 -140.5t-8 -84t-23 -40t-45 -10.5q-6 0 -21.5 1t-32 4.5t-29 7.5t-12.5 12z" />
<glyph unicode="l" horiz-adv-x="520" d="M131 354v1301q0 16 32 20t52 4q27 0 44 -6t27.5 -25.5t13.5 -55.5t3 -95v-1200q0 -84 16.5 -130t57.5 -46q8 0 20.5 5t23.5 11t19.5 11.5t10.5 5.5q12 0 22 -11.5t19.5 -29t14.5 -35t5 -29.5q0 -4 -13.5 -16.5t-34 -24.5t-47 -22.5t-52.5 -10.5q-82 0 -129.5 29t-70 79 t-28.5 119.5t-6 151.5z" />
<glyph unicode="m" horiz-adv-x="2007" d="M139 0v1229q0 8 12.5 12t29 7t31.5 4t21 1q29 0 45.5 -10t23.5 -39.5t8 -84t1 -140.5v-209q23 82 61 168t95 156.5t136 114.5t183 44q86 0 145.5 -32.5t94.5 -88t50.5 -128t15.5 -150.5v-84q23 82 60.5 168t95 156.5t136 114.5t183.5 44q86 0 145.5 -32.5t94 -88t50 -128 t15.5 -150.5v-604q0 -86 -1 -140.5t-8.5 -84t-23.5 -40t-45 -10.5q-6 0 -21.5 1t-32 4.5t-28.5 7.5t-12 12v823q0 147 -38 212t-124 65q-57 0 -134 -53.5t-146.5 -161t-117.5 -270t-48 -382.5v-43q0 -66 -3.5 -107.5t-10.5 -65t-22.5 -33t-41.5 -9.5q-6 0 -21.5 1t-32 4.5 t-28.5 7.5t-12 12v823q0 147 -38 212t-124 65q-57 0 -134 -53.5t-146.5 -161t-118 -270t-48.5 -382.5v-90q0 -104 -15 -136t-63 -32q-6 0 -21 1t-31.5 4.5t-29 7.5t-12.5 12z" />
<glyph unicode="n" horiz-adv-x="1243" d="M143 0v1229q0 8 12.5 12t29 7t31.5 4t22 1q29 0 45 -10t23 -39.5t8 -84t1 -140.5v-209q23 82 65 168t103.5 156.5t144.5 114.5t187 44q86 0 143.5 -32.5t91 -88t48 -128t14.5 -150.5v-604q0 -86 -1 -140.5t-8 -84t-23.5 -40t-45.5 -10.5q-6 0 -21.5 1t-31.5 4.5 t-28.5 7.5t-12.5 12v823q0 147 -34 212t-120 65q-57 0 -138 -53.5t-154.5 -161t-126 -270t-52.5 -382.5v-90q0 -104 -15 -136t-62 -32q-6 0 -21.5 1t-32 4.5t-29 7.5t-12.5 12z" />
<glyph unicode="o" horiz-adv-x="1105" d="M78 614q0 119 22.5 235t77.5 205t146.5 144t228.5 55t228 -55t146.5 -144t78 -205t22.5 -235q0 -121 -22.5 -235.5t-78 -203.5t-146.5 -144.5t-228 -55.5t-228.5 55.5t-146.5 144.5t-77.5 203.5t-22.5 235.5zM258 612q0 -92 13.5 -180t47 -157.5t91 -111.5t143.5 -42 t142.5 42t90 111.5t48 157.5t14.5 180t-14.5 181.5t-48 159t-90 112.5t-142.5 43t-143.5 -43t-91 -112.5t-47 -158.5t-13.5 -182z" />
<glyph unicode="p" horiz-adv-x="1169" d="M145 -590v1817q0 16 32 20t52 4q27 0 44.5 -6t27.5 -25.5t13 -55.5t3 -95v-299q29 86 71 172t100.5 155.5t133 112.5t166.5 43q104 0 168 -43t99 -113.5t46 -159.5t11 -183q0 -131 -41 -268.5t-124 -251t-209 -186.5t-294 -73q-33 0 -65.5 5.5t-61.5 17.5v-338 q0 -86 -1 -140.5t-8 -84t-23 -39.5t-45 -10q-6 0 -21.5 1t-32 4t-29 7t-12.5 12zM317 301q0 -102 42 -144t106 -42q109 0 194.5 58t146 148.5t93.5 202t33 219.5q0 70 -6 134.5t-24.5 113.5t-53.5 79t-92 30q-61 0 -136 -69.5t-140.5 -181.5t-111.5 -249t-51 -272v-27z" />
<glyph unicode="q" horiz-adv-x="1185" d="M80 557q0 133 31.5 259t100.5 223.5t179.5 155.5t267.5 58q86 0 163 -15t157 -42q45 -14 54 -32.5t9 -41.5v-1714q0 -8 -12 -12t-28.5 -7t-32 -4t-21.5 -1q-29 0 -45 10t-23.5 39.5t-8.5 84t-1 140.5v786q-23 -84 -64.5 -167.5t-100 -150.5t-131 -109t-152.5 -42 q-109 0 -175.5 59.5t-103.5 147.5t-50 189.5t-13 185.5zM258 551q0 -66 9 -140.5t32 -138t62 -104.5t98 -41q57 0 127.5 70.5t134 188.5t106.5 269.5t43 313.5v80q-14 10 -38.5 19t-55.5 16.5t-63.5 11.5t-63.5 4q-102 0 -176 -46t-121 -122t-70.5 -175.5t-23.5 -205.5z" />
<glyph unicode="r" horiz-adv-x="946" d="M143 0v1229q0 8 12.5 12t29 7t31.5 4t22 1q29 0 45 -10t23 -39.5t8 -84t1 -140.5v-274q16 88 57.5 185t104 178t146.5 133t188 52q23 0 44.5 -1t35.5 -8q15 -6 21 -22q3 -7 3 -18t-4 -26q-12 -55 -23 -83t-22.5 -39.5t-25 -11.5t-29.5 3q-16 1 -31 1q-74 0 -134 -32 q-73 -39 -128 -108.5t-94 -157.5t-62.5 -178.5t-35 -173.5t-11.5 -138v-61q0 -70 -3 -113t-10 -67.5t-22.5 -34t-41.5 -9.5q-6 0 -21.5 1t-32 4.5t-29 7.5t-12.5 12z" />
<glyph unicode="s" horiz-adv-x="905" d="M53 98q0 35 22.5 69t51.5 34q10 0 20 -6q51 -29 119 -48.5t140 -19.5q66 0 112.5 16.5t77.5 44t45 62.5t14 69q0 47 -29.5 86t-72.5 72t-94 61.5t-94 55.5q-53 33 -104.5 67.5t-92.5 75.5t-65.5 90.5t-24.5 108.5q0 164 100.5 240.5t261.5 76.5q80 0 159 -16t151 -61 q20 -12 23 -37t-6 -50.5t-27.5 -45t-41.5 -19.5q-10 0 -22 6q-55 27 -104.5 48.5t-129.5 21.5q-96 0 -140 -35t-44 -88q0 -47 24.5 -85t63.5 -72t89 -64.5t104 -63.5q55 -35 108 -69.5t95 -74.5t68 -89t26 -111q0 -98 -37 -168.5t-97.5 -116t-139.5 -67t-163 -21.5 q-78 0 -168 16.5t-153 55.5q-14 8 -19.5 21.5t-5.5 29.5z" />
<glyph unicode="t" horiz-adv-x="716" d="M18 1163q0 20 7.5 33.5t28 21t54 9.5t89.5 2h77v129q0 35 11.5 58.5t28 40t37 26.5t36.5 18q21 12 32 12q3 0 5 -1q12 -3 17 -15t5 -29.5v-31.5v-207h222q6 0 10 -10.5t6 -24.5t3 -26.5t1 -18.5q0 -23 -7 -35t-27.5 -19.5t-54.5 -9.5t-89 -2h-64v-786q0 -84 16.5 -130 t57.5 -46q8 0 20.5 5t23.5 11t19.5 11.5t10.5 5.5q12 0 22.5 -11.5t19.5 -29t14 -35t5 -29.5q0 -4 -13 -16.5t-33.5 -24.5t-47 -22.5t-53.5 -10.5q-82 0 -129 29t-69.5 79t-29 119.5t-6.5 151.5v729h-235q-6 0 -10 10.5t-6.5 25t-3.5 26.5t-1 18z" />
<glyph unicode="u" horiz-adv-x="1265" d="M141 375v604q0 86 1 140.5t8.5 84t23.5 39.5t45 10q6 0 21.5 -1t32 -4t28.5 -7t12 -12v-823q0 -147 34 -212t120 -65q57 0 138 53.5t155 161t126 270t52 381.5v90q0 104 15.5 136t62.5 32q6 0 21.5 -1t31.5 -4t28.5 -7t12.5 -12v-969q0 -66 4 -135.5t8 -118.5 q0 -10 -14 -16t-32.5 -9.5t-37 -4.5t-26.5 -1q-35 0 -54.5 18.5t-19.5 78.5v387q-23 -84 -65 -169t-103 -156t-144 -115t-188 -44q-86 0 -143 33t-91 88.5t-48.5 128t-14.5 150.5z" />
<glyph unicode="v" horiz-adv-x="1060" d="M20 1147q-11 30 -11 51q0 55 71 55q35 0 63.5 -10t40.5 -53q72 -260 155 -495.5t191 -465.5q109 229 192 465t155 496q12 43 40.5 53t63.5 10q70 0 70 -54q0 -22 -11 -52q-72 -256 -162 -506t-212 -506q-25 -53 -45.5 -84t-38 -48t-30.5 -22.5t-22 -5.5q-10 0 -22 5.5 t-29.5 22.5t-38 48t-45.5 84q-123 256 -213 506t-162 506z" />
<glyph unicode="w" horiz-adv-x="1544" d="M16 1184q-1 6 0 12q0 14 4 24q6 16 19.5 24.5t42.5 8.5q35 0 64.5 -10t39.5 -53q27 -129 50.5 -253t51 -243t61.5 -235.5t81 -229.5q57 193 105.5 382.5t99.5 394.5q6 20 17.5 62t27.5 83t39.5 71.5t52.5 30.5t52.5 -30.5t40 -71.5t27.5 -83t17 -62q51 -205 101.5 -394.5 t107.5 -382.5q47 113 81 229.5t60.5 235.5t49 243t49.5 253q10 43 39.5 53t64.5 10q29 0 44 -9q14 -8 19 -24q4 -11 4 -25q0 -5 -1 -11q-2 -20 -6 -37q-16 -82 -40 -202t-55.5 -250t-67.5 -259t-76 -231.5t-83 -166t-86 -63.5q-37 0 -72.5 49.5t-68.5 129t-62.5 181 t-55.5 206t-47.5 205t-35.5 176.5q-14 -76 -35.5 -176.5t-47 -205t-55.5 -206t-62.5 -181t-68.5 -129t-73 -49.5q-43 0 -86 63.5t-83 166t-75.5 231.5t-67.5 259t-55.5 249t-39.5 203q-5 17 -7 37z" />
<glyph unicode="x" horiz-adv-x="948" d="M15 -8q-8 8 -8 21q0 16 11 42q72 162 164 304.5t191 283.5q-92 131 -180.5 266t-159.5 283q-16 33 3 47t48 14q41 0 68.5 -5t48.5 -38q59 -115 128.5 -220t143.5 -210q74 104 144.5 210t130.5 220q20 33 47.5 38t68.5 5q29 0 48 -14t3 -47q-74 -147 -161.5 -282.5 t-180.5 -266.5q100 -141 192.5 -283.5t164.5 -304.5q11 -25 11 -41q-1 -14 -9 -22q-18 -16 -45 -17q-35 0 -70 7.5t-47 35.5q-66 129 -140.5 248t-156.5 236q-80 -117 -155.5 -236t-139.5 -248q-12 -29 -47 -36t-70 -7q-29 1 -46 17z" />
<glyph unicode="y" horiz-adv-x="1253" d="M141 375v604q0 86 1 140.5t8.5 84t23.5 39.5t45 10q6 0 21.5 -1t32 -4t28.5 -7t12 -12v-823q0 -147 34 -212t120 -65q57 0 138 53.5t155 161t126 270t52 381.5v90q0 104 15.5 136t62.5 32q6 0 21.5 -1t31.5 -4t28.5 -7t12.5 -12v-1071q0 -156 -31.5 -282t-98.5 -214 t-169 -136t-244 -48q-59 0 -107 4t-89 13t-79 25.5t-79 41.5q-25 14 -25 43.5t13.5 57.5t37 43t48.5 3q53 -29 122.5 -57.5t145.5 -28.5q125 0 199.5 50.5t115.5 136.5t54.5 198.5t13.5 235.5v215q-23 -84 -65 -169t-103 -156t-144 -115t-188 -44q-86 0 -143 33t-91 88.5 t-48.5 128t-14.5 150.5z" />
<glyph unicode="z" horiz-adv-x="1007" d="M48 125q1 29 13 45l684 913h-442q-55 0 -89 2t-54.5 9.5t-27.5 19.5t-7 35q0 6 1 18.5t3 26.5t6 24.5t10 10.5h727q14 0 28.5 -21.5t24 -51.5t10.5 -59.5t-11 -43.5l-666 -908h682q6 0 9 -10t5 -24.5t3 -26.5t1 -18q0 -23 -7 -35.5t-27.5 -19.5t-54 -9t-89.5 -2h-680 q-14 0 -26 20q-13 20 -20 48q-6 24 -6 50v7z" />
<glyph unicode="{" horiz-adv-x="737" d="M125 549v115q55 12 88 41.5t50.5 70.5t23.5 89t6 98q0 55 -6 128.5t-6 149.5q0 63 9 122.5t33.5 107t69.5 76t117 28.5h61q31 0 48.5 -2t26.5 -12.5t15.5 -33t12.5 -61.5q0 -10 -8.5 -12t-18.5 -2h-72q-70 0 -103.5 -53t-33.5 -119q0 -70 6.5 -141.5t6.5 -147.5 q0 -111 -36.5 -213t-140.5 -172q104 -70 140.5 -172t36.5 -213q0 -76 -6.5 -147.5t-6.5 -141.5q0 -66 34 -119t103 -53h72q10 0 18.5 -2t8.5 -12q-6 -41 -12.5 -62.5t-15.5 -31.5t-26.5 -12t-48.5 -2h-61q-72 0 -117 28.5t-69.5 75.5t-33.5 106.5t-9 122.5q0 76 6 150t6 129 q0 49 -6 97t-23.5 89t-50.5 71t-88 42z" />
<glyph unicode="|" horiz-adv-x="462" d="M160 -381v1886q0 8 10 13.5t23.5 8.5t26.5 4t18 1q23 0 36 -9.5t19 -35t8 -69.5t2 -113v-1485q0 -70 -2 -114t-8 -69.5t-19.5 -35t-35.5 -9.5q-4 0 -17.5 1t-27 4.5t-23.5 8.5t-10 13z" />
<glyph unicode="}" horiz-adv-x="712" d="M53 -254q0 10 8.5 12t18.5 2h72q70 0 103.5 53.5t33.5 118.5q0 70 -6.5 141.5t-6.5 147.5q0 111 36.5 213t140.5 172q-104 70 -140.5 172.5t-36.5 212.5q0 76 6.5 147.5t6.5 141.5q0 66 -34 119t-103 53h-72q-10 0 -18.5 2t-8.5 12q6 39 12.5 61.5t15.5 33t26.5 12.5 t48.5 2h61q72 0 117 -28.5t69.5 -76t33.5 -106.5t9 -123q0 -76 -6 -149.5t-6 -128.5q0 -49 6 -97.5t23.5 -89.5t50.5 -70.5t88 -41.5v-115q-55 -12 -88 -42t-50.5 -71t-23.5 -89t-6 -97q0 -55 6 -129t6 -150q0 -63 -9 -122.5t-33.5 -106.5t-69.5 -75.5t-117 -28.5h-61 q-31 0 -48.5 2t-26.5 12t-15.5 31.5t-12.5 62.5z" />
<glyph unicode="~" horiz-adv-x="1216" d="M141 401q0 20 9 37q43 111 116.5 164t157.5 53q61 0 107.5 -20.5t87 -44t85 -44t101.5 -20.5q53 0 86 23.5t63 81.5q10 25 33 24q12 0 26.5 -3t29 -9t23.5 -14t9 -19q0 -10 -3 -18t-7 -19q-35 -115 -112.5 -166t-161.5 -51q-66 0 -112 20.5t-88 44t-84 44t-97 20.5 q-53 0 -86 -23.5t-62 -80.5q-14 -25 -37 -25q-20 0 -52 12.5t-32 32.5z" />
<glyph unicode="&#xa1;" horiz-adv-x="647" d="M224 -446.5q3 28.5 5 73.5q4 156 7.5 298.5t6.5 275.5t8 259t13 251q2 16 15.5 21t25.5 5q16 0 27.5 -5t21.5 -25q12 -27 20.5 -86.5t15.5 -174t14.5 -295t15.5 -446.5q0 -70 -2 -114t-11.5 -69.5t-25.5 -34.5t-43 -9q-53 0 -76.5 6t-32 23.5t-5.5 46zM225 985 q0 59 35 96t76 37q35 0 61.5 -29.5t26.5 -95.5q0 -57 -36 -92t-77 -35q-35 0 -60.5 28t-25.5 91z" />
<glyph unicode="&#xa2;" horiz-adv-x="987" d="M96 614q0 111 20.5 217.5t67.5 194.5t124 146.5t192 74.5v207q0 8 10 13.5t23.5 8.5t26.5 4t18 1q23 0 36 -9.5t19 -35t8 -69.5t2 -114v-2q86 -8 153.5 -30.5t123.5 -51.5q12 -6 13 -20t-4 -29.5t-13.5 -31t-12.5 -23.5q-18 -31 -45 -31q-23 0 -45 10.5t-51 22.5 q-37 16 -82 26.5t-91 10.5t-90 -11.5t-77 -35.5q-41 -33 -68.5 -81t-45 -106.5t-25 -123t-7.5 -132.5q0 -123 26 -234.5t89 -180.5q35 -41 86 -57.5t107.5 -16.5t110 13.5t93.5 35.5q41 20 70 21q27 0 45 -31q4 -8 12.5 -22.5t13.5 -30t4 -29.5t-13 -23q-53 -31 -122 -52 t-155 -30v-2q0 -70 -2 -113.5t-8 -69t-19.5 -35t-35.5 -9.5q-4 0 -17.5 1t-27 4t-23.5 8.5t-10 13.5v207q-115 14 -192 73.5t-124 146.5t-67.5 194.5t-20.5 217.5z" />
<glyph unicode="&#xa3;" horiz-adv-x="1243" d="M152 76q0 31 10 46t23.5 22.5t29.5 10.5t29 9q37 20 65.5 63t47 98.5t28.5 116t10 113.5v45h-168q-6 0 -10 10.5t-6 23.5t-3 25.5t-1 18.5q0 20 7 33.5t27.5 19.5t54.5 8t89 2h10v84q0 139 13.5 263t59.5 216.5t133 146.5t235 54q72 0 153.5 -28.5t173.5 -94.5 q12 -10 13 -24q0 -14 -7.5 -31.5t-18.5 -33t-25.5 -27t-28.5 -11.5q-16 0 -39 11.5t-45 21.5q-145 68 -230 68q-78 0 -119.5 -46t-61 -126t-24 -189.5t-4.5 -236.5v-17h467q6 0 10.5 -10t6.5 -23.5t3 -25.5t1 -18q0 -23 -7 -35.5t-27.5 -18.5t-54.5 -8t-89 -2h-310v-43 q0 -66 -14 -135.5t-42 -130t-72 -100t-101 -44.5h782q10 0 19.5 -2t9.5 -12v-4q-8 -41 -13 -66.5t-13.5 -39t-20.5 -17.5t-35 -4h-858q-23 0 -36 6t-19 16.5t-7 23.5t-1 28z" />
<glyph unicode="&#xa4;" horiz-adv-x="1144" d="M55 233l115 115q-41 66 -63.5 133.5t-22.5 141.5q0 150 86 276l-115 115q35 33 65 64.5t60 62.5l115 -115q129 86 278 86q150 0 279 -86l111 111l127 -127l-113 -113q82 -127 82 -272q0 -143 -84 -277l115 -115l-127 -127l-111 113q-129 -86 -281 -86q-150 0 -276 88 l-113 -115zM217 623q0 -72 28.5 -136.5t77 -113.5t112.5 -78t136 -29q74 0 138.5 29t112.5 77t76 113.5t28 139.5t-28 138t-76 112.5t-112.5 76t-136.5 27.5t-136 -27.5t-113.5 -76t-78 -113t-28.5 -139.5z" />
<glyph unicode="&#xa5;" d="M16.5 1455q-0.5 15 7 24.5t19.5 13.5t27 4q39 0 69.5 -7t46.5 -36q35 -66 79 -148.5t91 -167.5t95.5 -165t93.5 -139q45 59 93 139t95 165t91 168t79 148q12 29 47 36t70 7q14 0 26.5 -4t19.5 -13.5t7 -24.5t-10 -38q-82 -174 -180.5 -346t-216.5 -364q-10 -16 -20.5 -44 t-10.5 -51v-10h352q6 0 10 -10t6.5 -23.5t3.5 -26t1 -18.5q0 -23 -7.5 -35t-28 -18t-54 -8t-89.5 -2h-194v-90h352q6 0 10 -10.5t6.5 -23.5t3.5 -25.5t1 -18.5q0 -23 -7.5 -35t-28 -18.5t-54 -8.5t-89.5 -2h-194q0 -80 -3 -130t-12.5 -77.5t-27 -37t-43.5 -9.5q-6 0 -21.5 1 t-32 4.5t-28.5 7.5t-12 12v229h-344q-6 0 -10.5 10.5t-6.5 23.5t-3 25.5t-1 18.5q0 20 7 33.5t27.5 20t54.5 8.5t89 2h187v90h-344q-6 0 -10.5 10t-6.5 23.5t-3 25.5t-1 19q0 20 7 33.5t27.5 19.5t54.5 8t89 2h187v10q0 18 -9.5 48t-21.5 47q-109 174 -208 349t-189 361 q-10 23 -10.5 38z" />
<glyph unicode="&#xa6;" horiz-adv-x="462" d="M160 354q0 8 10 13.5t23.5 8.5t26.5 4t18 1q23 0 36 -9.5t19 -35t8 -69.5t2 -113v-326q0 -70 -2 -114t-8 -69.5t-19.5 -34.5t-35.5 -9q-4 0 -17.5 1t-27 4t-23.5 8t-10 13v727zM160 778v727q0 8 10 13.5t23.5 8.5t26.5 4t18 1q23 0 36 -9.5t19 -35t8 -69.5t2 -113v-326 q0 -70 -2 -114t-8 -69.5t-19.5 -34.5t-35.5 -9q-4 0 -17.5 1t-27 4t-23.5 8t-10 13z" />
<glyph unicode="&#xa7;" horiz-adv-x="1071" d="M143 103q0 30 13.5 57.5t37 43t48.5 3.5q51 -29 118.5 -55.5t139.5 -30.5q66 2 112.5 20.5t77.5 46t45.5 62.5t14.5 69q0 55 -30 96.5t-73 73t-94 56t-94 49.5q-53 31 -105.5 65.5t-92.5 75.5t-64.5 91.5t-24.5 109.5q0 88 40 166t126 119q-72 53 -119 116.5t-47 149.5 q0 61 19.5 117.5t58.5 100.5t98.5 71.5t140.5 27.5q59 0 107.5 -4t89.5 -13t79 -25.5t79 -41.5q25 -14 24.5 -43.5t-13.5 -57.5t-36.5 -43t-48.5 -3q-55 29 -129 57.5t-152 28.5q-63 -6 -100 -42t-37 -89q0 -66 43 -115t106.5 -92t139.5 -85t139.5 -90t106.5 -107.5 t43 -139.5q0 -104 -39 -181t-111 -124q66 -49 108 -108.5t42 -137.5q0 -176 -105.5 -273.5t-302.5 -99.5q-59 0 -107 4.5t-89 13.5t-79 25.5t-79 40.5q-25 14 -25 44zM352 977q0 -47 22.5 -85t60.5 -72t86 -64.5t102 -61.5q66 29 96.5 77t30.5 99q0 45 -18.5 79t-49.5 61.5 t-70 50t-77 43.5q-31 6 -63 1t-58.5 -21.5t-44 -43t-17.5 -63.5z" />
<glyph unicode="&#xa8;" horiz-adv-x="495" d="M-53 1483q0 59 34.5 96t75.5 37q35 0 61.5 -30t26.5 -95q0 -57 -35.5 -92t-76.5 -35q-35 0 -60.5 28t-25.5 91zM350 1483q0 59 35 96t76 37q35 0 61.5 -30t26.5 -95q0 -57 -36 -92t-77 -35q-35 0 -60.5 28t-25.5 91z" />
<glyph unicode="&#xa9;" horiz-adv-x="1628" d="M59 727q0 156 60.5 293t163 239.5t241 162t291.5 59.5q164 0 302 -61.5t238.5 -168t157 -247t56.5 -299.5q0 -170 -65.5 -305.5t-172 -230.5t-243 -145.5t-275.5 -50.5q-162 0 -300 63.5t-238.5 168t-158 241t-57.5 281.5zM174 727q0 -139 54.5 -258t144.5 -205 t204.5 -134t235.5 -48q133 0 250 50t204 138t137 206t50 251t-49 251t-135 205t-203 138t-252 51q-141 0 -259 -56t-203 -148.5t-132 -208t-47 -232.5zM432 715q0 96 19.5 188t63.5 165t119 117t185 44q90 0 156.5 -19.5t120.5 -48.5q10 -6 10 -17t-4 -23.5t-10.5 -25 t-8.5 -18.5q-16 -25 -36 -24q-20 0 -40 9t-46.5 20.5t-60.5 20.5t-81 9q-70 0 -117 -34t-74.5 -90t-38.5 -128t-11 -145q0 -74 11 -145.5t38.5 -128t75 -90.5t116.5 -34q47 0 81 9.5t60.5 20.5t46 20.5t40.5 9.5q22 0 36 -27q2 -6 8.5 -17t10.5 -24.5t4 -25t-10 -17.5 q-51 -29 -119 -48t-158 -19q-111 0 -185.5 44t-118.5 116.5t-63.5 165.5t-19.5 190z" />
<glyph unicode="&#xaa;" horiz-adv-x="585" d="M53 1022q0 55 25.5 101t66.5 81t95.5 54.5t109.5 19.5q37 0 74 -6v26q0 66 -26.5 96.5t-94.5 30.5q-29 0 -50.5 -6t-37.5 -12t-28.5 -12t-24.5 -6q-16 0 -26.5 20.5t-10.5 32.5t18.5 21.5t46 17.5t58.5 12t55 4q37 0 74 -5t66.5 -24.5t48 -58.5t18.5 -109v-299 q0 -33 1 -67.5t5 -59.5q0 -8 -8 -8q-14 -2 -25.5 -4t-21.5 -2q-16 0 -26.5 9.5t-10.5 37.5v115q-31 -74 -91.5 -118t-131.5 -44q-78 0 -113 48t-35 114zM143 1016q0 -41 22.5 -60.5t53.5 -19.5q37 0 73 24.5t65.5 61.5t48 80t18.5 82v8q-43 10 -92 4t-91 -27.5t-70 -59.5 t-28 -93z" />
<glyph unicode="&#xab;" horiz-adv-x="876" d="M70 592l313 387q14 16 22.5 11t47.5 -46q10 -10 13 -17t-7 -20l-240 -315l240 -316q10 -12 7 -19t-13 -17q-39 -41 -47.5 -46.5t-22.5 11.5zM410 592l313 387q14 16 22.5 11t47.5 -46q10 -10 13 -17t-7 -20l-240 -315l240 -316q10 -12 7 -19t-13 -17q-39 -41 -47.5 -46.5 t-22.5 11.5z" />
<glyph unicode="&#xac;" horiz-adv-x="1183" d="M98 678v135h987v-537h-133v402h-854z" />
<glyph unicode="&#xad;" horiz-adv-x="706" d="M90 608q0 20 7 33.5t27.5 20t54.5 8.5t89 2h328q6 0 10 -10.5t6 -23.5t3 -25.5t1 -18.5q0 -23 -7 -35t-27.5 -18t-54 -8.5t-89.5 -2.5h-327q-6 0 -10.5 10.5t-6.5 24t-3 25.5t-1 18z" />
<glyph unicode="&#xae;" horiz-adv-x="1628" d="M59 727q0 156 60.5 293t163 239.5t241 162t291.5 59.5q164 0 302 -61.5t238.5 -168t157 -247t56.5 -299.5q0 -170 -65.5 -305.5t-172 -230.5t-243 -145.5t-275.5 -50.5q-162 0 -300 63.5t-238.5 168t-158 241t-57.5 281.5zM174 727q0 -139 54.5 -258t144.5 -205 t204.5 -134t235.5 -48q133 0 250 50t204 138t137 206t50 251t-49 251t-135 205t-203 138t-252 51q-141 0 -259 -56t-203 -148.5t-132 -208t-47 -232.5zM530 250v907q0 18 6.5 28.5t34.5 20.5q47 16 103.5 23.5t113.5 7.5q68 0 133.5 -14.5t117 -48t83 -90t31.5 -140.5 q0 -106 -51 -177t-146 -108l209 -383q16 -31 -7 -37t-48 -6q-27 0 -43 6.5t-29 28.5l-211 367q-41 -6 -86 -1t-92 11v-231q0 -57 -2 -92t-8 -54.5t-17.5 -27t-29.5 -7.5q-4 0 -14.5 1.5t-20.5 2.5t-18.5 4t-8.5 9zM649 754q64 -25 144 -25q70 0 114.5 16.5t71.5 45t37 66.5 t10 81q0 98 -55.5 150.5t-177.5 52.5q-82 0 -144 -25v-362z" />
<glyph unicode="&#xaf;" horiz-adv-x="454" d="M-39 1411q0 27 20.5 33t88.5 6h409q10 0 12.5 -20.5t2.5 -26.5q0 -27 -20.5 -33t-88.5 -6h-412q-8 0 -10 20.5t-2 26.5z" />
<glyph unicode="&#xb0;" horiz-adv-x="794" d="M117 1210q0 57 22.5 108.5t61.5 89.5t90 59.5t106 21.5q57 0 108.5 -22.5t89.5 -60.5t60.5 -89t22.5 -109q0 -59 -22.5 -109t-61.5 -88t-90 -59.5t-107 -21.5q-57 0 -108 22.5t-89 60.5t-60.5 89t-22.5 108zM217 1212q0 -39 14.5 -72.5t39 -58t57 -39t71.5 -14.5 q74 0 126.5 52.5t52.5 125.5q0 37 -13.5 71t-38 58.5t-56.5 40t-69 15.5q-78 0 -131 -50.5t-53 -128.5z" />
<glyph unicode="&#xb1;" horiz-adv-x="1191" d="M98 53q0 20 7.5 33.5t28 20t54 8.5t88.5 2h797q6 0 10 -10.5t6.5 -23.5t3.5 -25.5t1 -18.5q0 -23 -7.5 -35t-28 -18t-54 -8.5t-89.5 -2.5h-796q-6 0 -10.5 10.5t-6.5 24t-3 25.5t-1 18zM98 653q0 20 7.5 33.5t28 20t54 8.5t88.5 2h250v405q0 6 10.5 10.5t23.5 6.5t25.5 3 t18.5 1q20 0 33.5 -7.5t20 -28t8.5 -54t2 -88.5v-248h405q6 0 10 -10.5t6.5 -23.5t3.5 -25.5t1 -18.5q0 -23 -7.5 -35t-28 -18t-54 -8.5t-89.5 -2.5h-247v-407q0 -6 -10.5 -10t-23.5 -6t-25.5 -3.5t-18.5 -1.5q-23 0 -35 7.5t-18.5 28t-8.5 54t-2 89.5v249h-407 q-6 0 -10.5 10.5t-6.5 24t-3 25.5t-1 18z" />
<glyph unicode="&#xb2;" horiz-adv-x="595" d="M35 1202q0 10 14 29l256 285q74 74 74 165q0 55 -20.5 77t-59.5 22q-35 0 -64.5 -11.5t-60.5 -27.5q-14 -8 -39 -8q-27 0 -48 24.5t-21 44.5q0 16 18 29q41 27 99.5 43t113.5 16q49 0 91 -10t73 -33.5t48 -63.5t17 -100q0 -84 -45 -150.5t-98 -123.5l-158 -172h256 q12 0 27.5 -3t15.5 -26q-4 -27 -9 -42t-13 -24t-23.5 -12.5t-40.5 -3.5h-338q-20 0 -42.5 26t-22.5 50z" />
<glyph unicode="&#xb3;" horiz-adv-x="604" d="M27 1202q0 18 21.5 44t47.5 26q20 0 40 -8.5t38.5 -17.5t38.5 -16t43 -7q27 0 51.5 6t45 20.5t32.5 37t12 54.5q0 57 -32.5 91t-94.5 34q-61 0 -76.5 12.5t-15.5 39.5q0 8 7.5 32.5t31.5 24.5h55q55 0 81 29.5t26 78.5q0 55 -31 77t-72 22q-23 0 -42 -8.5t-37.5 -17.5 t-39 -17t-40.5 -8q-25 0 -47.5 23.5t-22.5 41.5q0 16 16 29q41 27 100.5 46t119.5 19q47 0 91 -11t78.5 -35.5t55 -62.5t20.5 -89q0 -55 -23.5 -100.5t-74.5 -69.5q39 -23 77 -69t38 -114q0 -61 -23.5 -104t-63.5 -69.5t-91.5 -39t-106.5 -12.5q-61 0 -116.5 15.5 t-98.5 44.5q-18 14 -18 28z" />
<glyph unicode="&#xb4;" horiz-adv-x="407" d="M85 1380.5q-3 8.5 7 24.5l160 242q10 16 45 22t68.5 3t53 -16.5t1.5 -35.5l-227 -240q-10 -10 -18.5 -13t-18.5 -3h-28.5t-28 4t-14.5 12.5z" />
<glyph unicode="&#xb6;" horiz-adv-x="1198" d="M98 1094q0 92 31 167.5t87 130t134 85t174 30.5h498v-1747h-145v1624h-215v-1624h-146l2 922q-94 0 -171 29.5t-132 84t-86 130t-31 168.5z" />
<glyph unicode="&#xb7;" horiz-adv-x="493" d="M147 629q0 41 30 70.5t71 29.5t69.5 -29.5t28.5 -70.5t-28.5 -70t-69.5 -29t-71 29t-30 70z" />
<glyph unicode="&#xb8;" horiz-adv-x="348" d="M29.5 -147.5q-13.5 2.5 3.5 36.5l76 164l81 -8l-47 -111q86 0 130 -43t44 -102q0 -47 -19 -79t-52 -50t-73 -26.5t-81 -8.5q-12 0 -26.5 1t-18.5 18l-2 14q-4 16 13.5 18t33.5 7q43 8 81 30.5t38 63.5q0 31 -40 52t-101 21q-27 0 -40.5 2.5z" />
<glyph unicode="&#xb9;" horiz-adv-x="475" d="M55 1712v21q0 31 29 53l84 69q16 14 38.5 24.5t51.5 10.5q47 0 58.5 -25.5t11.5 -103.5v-614q0 -10 -10.5 -16.5t-23.5 -10.5t-26.5 -5t-17.5 -1q-47 0 -57.5 25.5t-10.5 103.5v467q-23 -20 -42 -32.5t-40 -12.5q-45 0 -45 47z" />
<glyph unicode="&#xba;" horiz-adv-x="716" d="M37 1184q0 152 85 243t238 91q152 0 236 -90.5t84 -243.5q0 -154 -84 -246t-236 -92q-154 0 -238.5 92t-84.5 246zM152 1182q0 -248 206 -248q207 0 207 250q0 248 -207 248t-206 -250z" />
<glyph unicode="&#xbb;" horiz-adv-x="876" d="M71 257q-3 7 7 19l239 316l-239 315q-10 12 -7 19.5t13 17.5q39 41 47 46t23 -11l313 -387l-313 -387q-14 -16 -22.5 -11t-47.5 46q-10 10 -13 17zM411 257q-3 7 7 19l239 316l-239 315q-10 12 -7 19.5t13 17.5q39 41 47 46t23 -11l313 -387l-313 -387q-14 -16 -22.5 -11 t-47.5 46q-10 10 -13 17z" />
<glyph unicode="&#xbc;" horiz-adv-x="1925" d="M41 1296v31q0 25 8 40t25 30l127 108q27 20 54.5 33.5t68.5 13.5q27 0 42 -8t23 -28.5t10 -56.5t2 -91v-919q0 -14 -12 -22.5t-27.5 -12.5t-30 -5t-20.5 -1q-27 0 -43 8t-24 28.5t-10.5 56.5t-2.5 91v739q-16 -10 -31.5 -23.5t-29.5 -25.5q-18 -16 -42 -31.5t-44 -15.5 q-43 0 -43 61zM489 -18q0 31 12.5 62.5t22.5 61.5l537 1377q14 37 38.5 46t47.5 9q33 0 54.5 -13.5t21.5 -45.5q0 -27 -12.5 -60t-24.5 -67l-535 -1372q-6 -16 -20.5 -27.5t-30.5 -18t-32.5 -8.5t-24.5 -2q-41 0 -47.5 8.5t-6.5 49.5zM1077 342q-2 23 8 39l494 698 q12 20 34.5 39t84.5 19q31 0 34 -11.5t3 -33.5v-699h116q10 0 17.5 -10t10.5 -23.5t4 -27t1 -19.5q0 -45 -28.5 -56t-118.5 -11h-2v-45q0 -68 -1 -111t-8.5 -67.5t-22.5 -32.5t-44 -8q-6 0 -21.5 1t-31 5t-26.5 12t-11 20v226h-428q-14 0 -28.5 15t-24 36.5t-11.5 44.5z M1264 393h305v424z" />
<glyph unicode="&#xbd;" horiz-adv-x="1875" d="M41 1296v31q0 25 7 40t24 30l127 108q29 20 55.5 33.5t67.5 13.5q27 0 43 -8t24 -28.5t10 -56.5t2 -91v-919q0 -14 -12 -22.5t-27.5 -12.5t-30 -5t-20.5 -1q-27 0 -43 8t-24 28.5t-10.5 56.5t-2.5 91v739q-18 -12 -36.5 -28.5t-37 -32t-37 -25.5t-36.5 -10q-43 0 -43 61z M440 -18q0 12 6.5 27.5t12.5 32.5t12 34.5t6 29.5l535 1379v-2q14 37 39.5 46t48.5 9q33 0 54.5 -13.5t21.5 -45.5q0 -27 -11.5 -58.5t-21.5 -54.5l-539 -1386q-6 -16 -21.5 -27.5t-31.5 -18t-31.5 -8.5t-23.5 -2q-41 0 -48.5 8.5t-7.5 49.5zM1147 102q0 23 14 41l385 422 q53 59 86 124t33 136q0 88 -39 122t-108 34q-55 0 -103.5 -18.5t-99.5 -40.5q-18 -10 -43 -11q-29 0 -53.5 34t-24.5 61t37 48t89 37.5t105.5 25.5t87.5 9q70 0 129.5 -14t102.5 -49t66.5 -93.5t23.5 -144.5q0 -63 -18.5 -118.5t-47 -104.5t-66.5 -94t-77 -86l-254 -272h420 q10 0 23.5 -7.5t13.5 -29.5q-6 -37 -12.5 -58.5t-15.5 -34t-26.5 -16.5t-45.5 -4h-508q-12 0 -24.5 10t-24 25.5t-18.5 33t-7 33.5z" />
<glyph unicode="&#xbe;" horiz-adv-x="2230" d="M41 528q0 27 24.5 61t53.5 34q23 0 39 -8.5t35 -18.5q35 -23 78.5 -33t88.5 -10q43 0 86 10t77 32.5t54.5 57.5t20.5 86q0 92 -55.5 145.5t-159.5 53.5q-39 0 -61.5 4t-35 12.5t-15.5 20.5t-3 29q0 4 2 16t6.5 25.5t10.5 23.5t14 10h86q92 0 138 48.5t46 125.5 q0 86 -53 121t-125 35q-45 0 -85 -15.5t-75 -31.5q-25 -10 -45 -19.5t-36 -9.5q-14 0 -28.5 9.5t-26 22.5t-18.5 28.5t-7 29.5t18 33q55 41 138 67.5t171 26.5q66 0 128.5 -16t110.5 -51t76.5 -90.5t28.5 -130.5q0 -82 -38.5 -148.5t-112.5 -103.5q27 -14 58.5 -37t58 -56.5 t44 -78.5t17.5 -105q0 -88 -35 -149.5t-91 -100.5t-129 -57t-148 -18q-88 0 -167 23.5t-141 64.5q-18 14 -18 32zM762 -18q0 23 11 57.5t22 60.5l536 1383q14 37 40 46t48 9q33 0 54.5 -13.5t21.5 -45.5q0 -27 -12.5 -60t-26.5 -67l-532 -1372q-6 -16 -21.5 -27.5t-32 -18 t-32 -8.5t-23.5 -2q-41 0 -47 8.5t-6 49.5zM1382 342q-2 23 9 39l493 698q12 20 35 39t84 19q31 0 34 -11.5t3 -33.5v-699h117q10 0 17 -10t10 -23.5t4 -27t1 -19.5q0 -45 -28.5 -56t-118.5 -11h-2v-45q0 -68 -1 -111t-8.5 -67.5t-22.5 -32.5t-44 -8q-6 0 -20.5 1t-30 5 t-26.5 12t-11 20v226h-430q-14 0 -28.5 15t-24 36.5t-11.5 44.5zM1569 393h307v424z" />
<glyph unicode="&#xbf;" horiz-adv-x="997" d="M150 -201q0 90 28.5 153.5t70.5 116t92 98.5t92 99t70.5 121t28.5 162v53q0 25 5.5 39t33.5 14q43 0 65.5 -4t33 -10t12.5 -16.5t2 -22.5v-53q0 -72 -7 -132.5t-32 -117.5q-29 -66 -83 -122t-107.5 -112.5t-94.5 -119t-41 -142.5q0 -92 66 -138t164 -46q66 0 115 24.5 t73 77.5q10 18 15.5 28.5t33.5 4.5l78 -16q29 -6 31 -15.5t-8 -29.5q-41 -104 -134.5 -158.5t-222.5 -54.5q-76 0 -145.5 19.5t-121.5 58.5t-82.5 99t-30.5 142zM512 905q0 57 36 92t77 35q35 0 60.5 -28t25.5 -91q0 -59 -35 -96t-76 -37q-35 0 -61.5 30t-26.5 95z" />
<glyph unicode="&#xc0;" horiz-adv-x="1183" d="M12.5 2q-10.5 27 3.5 80q88 354 195 660t246 595q25 51 45 83t37.5 49.5t30 22.5t22.5 5q8 0 21.5 -5t31 -22.5t37.5 -49t45 -83.5q137 -289 244.5 -595t195.5 -660q14 -53 4 -80t-57 -27q-35 0 -64.5 10.5t-41.5 53.5q-29 111 -57.5 217t-61.5 213h-594 q-33 -106 -61.5 -212.5t-57.5 -217.5q-12 -43 -42 -53.5t-64 -10.5q-47 0 -57.5 27zM330 1870q0 12 15 19t36.5 12.5t43 6.5t34.5 1q12 0 23.5 -6.5t21.5 -22.5l160 -242q12 -18 12 -24q0 -4 -10.5 -7t-22.5 -5.5t-24.5 -3.5t-18.5 -1q-10 0 -18.5 3.5t-18.5 13.5l-227 239 q-6 8 -6 17zM340 614h504q-53 162 -115.5 318.5t-136.5 310.5q-74 -154 -136.5 -310.5t-115.5 -318.5z" />
<glyph unicode="&#xc1;" horiz-adv-x="1183" d="M12.5 2q-10.5 27 3.5 80q88 354 195 660t246 595q25 51 45 83t37.5 49.5t30 22.5t22.5 5q8 0 21.5 -5t31 -22.5t37.5 -49t45 -83.5q137 -289 244.5 -595t195.5 -660q14 -53 4 -80t-57 -27q-35 0 -64.5 10.5t-41.5 53.5q-29 111 -57.5 217t-61.5 213h-594 q-33 -106 -61.5 -212.5t-57.5 -217.5q-12 -43 -42 -53.5t-64 -10.5q-47 0 -57.5 27zM340 614h504q-53 162 -115.5 318.5t-136.5 310.5q-74 -154 -136.5 -310.5t-115.5 -318.5zM505 1614q-3 8 7 24l160 242q10 16 45 22.5t68.5 3.5t53 -16.5t1.5 -36.5l-228 -239 q-10 -10 -18 -13.5t-19 -3.5h-28.5t-27.5 4.5t-14 12.5z" />
<glyph unicode="&#xc2;" horiz-adv-x="1183" d="M12.5 2q-10.5 27 3.5 80q88 354 195 660t246 595q25 51 45 83t37.5 49.5t30 22.5t22.5 5q8 0 21.5 -5t31 -22.5t37.5 -49t45 -83.5q137 -289 244.5 -595t195.5 -660q14 -53 4 -80t-57 -27q-35 0 -64.5 10.5t-41.5 53.5q-29 111 -57.5 217t-61.5 213h-594 q-33 -106 -61.5 -212.5t-57.5 -217.5q-12 -43 -42 -53.5t-64 -10.5q-47 0 -57.5 27zM293 1653q0 10 18 26l238 217q27 27 43 27q14 0 43 -27l237 -217q18 -16 19 -26q0 -10 -23 -23l-39 -22q-20 -10 -26 -11q-10 0 -29 19l-182 166l-182 -166q-18 -18 -29 -19q-6 0 -27 11 l-39 22q-23 12 -22 23zM340 614h504q-53 162 -115.5 318.5t-136.5 310.5q-74 -154 -136.5 -310.5t-115.5 -318.5z" />
<glyph unicode="&#xc3;" horiz-adv-x="1183" d="M12.5 2q-10.5 27 3.5 80q88 354 195 660t246 595q25 51 45 83t37.5 49.5t30 22.5t22.5 5q8 0 21.5 -5t31 -22.5t37.5 -49t45 -83.5q137 -289 244.5 -595t195.5 -660q14 -53 4 -80t-57 -27q-35 0 -64.5 10.5t-41.5 53.5q-29 111 -57.5 217t-61.5 213h-594 q-33 -106 -61.5 -212.5t-57.5 -217.5q-12 -43 -42 -53.5t-64 -10.5q-47 0 -57.5 27zM279 1628q0 12 6 25q29 76 79 111.5t107 35.5q43 0 73.5 -13t58.5 -30.5t57.5 -31t68.5 -13.5q35 0 57.5 16.5t42.5 55.5q8 16 23 16q16 0 37.5 -8t21.5 -23q0 -6 -2 -12l-4 -12 q-23 -78 -76 -113t-110 -35q-43 0 -75 13.5t-60.5 31t-57 31t-65.5 13.5q-35 0 -57.5 -16.5t-43.5 -55.5q-8 -16 -24 -17q-14 0 -35.5 8.5t-21.5 22.5zM340 614h504q-53 162 -115.5 318.5t-136.5 310.5q-74 -154 -136.5 -310.5t-115.5 -318.5z" />
<glyph unicode="&#xc4;" horiz-adv-x="1183" d="M12.5 2q-10.5 27 3.5 80q88 354 195 660t246 595q25 51 45 83t37.5 49.5t30 22.5t22.5 5q8 0 21.5 -5t31 -22.5t37.5 -49t45 -83.5q137 -289 244.5 -595t195.5 -660q14 -53 4 -80t-57 -27q-35 0 -64.5 10.5t-41.5 53.5q-29 111 -57.5 217t-61.5 213h-594 q-33 -106 -61.5 -212.5t-57.5 -217.5q-12 -43 -42 -53.5t-64 -10.5q-47 0 -57.5 27zM303 1716q0 59 35 96t76 37q35 0 61.5 -29.5t26.5 -95.5q0 -57 -36 -92t-77 -35q-35 0 -60.5 28t-25.5 91zM340 614h504q-53 162 -115.5 318.5t-136.5 310.5q-74 -154 -136.5 -310.5 t-115.5 -318.5zM707 1716q0 59 34.5 96t75.5 37q35 0 61.5 -29.5t26.5 -95.5q0 -57 -35.5 -92t-76.5 -35q-35 0 -60.5 28t-25.5 91z" />
<glyph unicode="&#xc5;" horiz-adv-x="1183" d="M12.5 2q-10.5 27 3.5 80q88 354 195 660t246 595q25 51 45 83t37.5 49.5t30 22.5t22.5 5q8 0 21.5 -5t31 -22.5t37.5 -49t45 -83.5q137 -289 244.5 -595t195.5 -660q14 -53 4 -80t-57 -27q-35 0 -64.5 10.5t-41.5 53.5q-29 111 -57.5 217t-61.5 213h-594 q-33 -106 -61.5 -212.5t-57.5 -217.5q-12 -43 -42 -53.5t-64 -10.5q-47 0 -57.5 27zM340 614h504q-53 162 -115.5 318.5t-136.5 310.5q-74 -154 -136.5 -310.5t-115.5 -318.5zM395 1786q0 35 12.5 68.5t36 59t59.5 42t85 16.5t85 -16.5t59.5 -43t35.5 -60t12 -68.5t-12 -69 t-35.5 -60.5t-59.5 -42t-83 -15.5q-49 0 -85 16.5t-60.5 43t-37 60.5t-12.5 69zM471 1782q0 -55 36 -82t81 -27q43 0 80 26.5t37 86.5q0 57 -36 83.5t-81 26.5q-43 0 -80 -27.5t-37 -86.5z" />
<glyph unicode="&#xc6;" horiz-adv-x="1878" d="M-21.5 -4q-1.5 27 27.5 80q193 354 393.5 660t425.5 595q49 57 104.5 91t120 50.5t137.5 20.5t154 4q43 0 95.5 -3t105.5 -11t104.5 -21.5t92.5 -34.5q16 -8 32.5 -17t16.5 -19q0 -14 -6 -32t-16.5 -34t-23.5 -27.5t-28 -11.5q-8 0 -17 2t-20 6q-70 20 -145.5 37 t-154.5 23t-156.5 -2.5t-149.5 -36.5v-469h590q10 0 19.5 -2t9.5 -13v-4q-8 -41 -13.5 -66.5t-13.5 -38.5t-21.5 -17.5t-35.5 -4.5h-535v-542q27 -12 63.5 -19.5t75.5 -11.5t79 -5t73 -1q86 0 163 17.5t152 39.5q10 4 19.5 6t17.5 2q14 0 27.5 -11t24 -27.5t16.5 -34 t6 -31.5q0 -10 -16.5 -19.5t-32.5 -17.5q-41 -20 -92.5 -33.5t-104.5 -21.5t-105.5 -11.5t-95.5 -3.5q-94 0 -186 10.5t-174 32.5q-35 8 -62.5 20.5t-27.5 59.5v455h-436q-72 -121 -148 -249t-155 -271q-25 -43 -58 -53.5t-67 -10.5q-47 0 -48.5 27zM549 698h342v486 q-92 -117 -175 -237t-167 -249z" />
<glyph unicode="&#xc7;" horiz-adv-x="1189" d="M86 737q0 137 32 272.5t104.5 244t188 176t285.5 67.5q115 0 213.5 -21.5t200.5 -93.5q12 -10 12 -24t-7 -31.5t-18.5 -33t-25.5 -27t-29 -11.5q-16 0 -38.5 11.5t-45.5 21.5q-59 29 -124.5 46.5t-139.5 17.5q-117 0 -196.5 -55.5t-127.5 -143.5t-69.5 -197.5 t-21.5 -218.5t21.5 -218t69.5 -198.5t128 -144.5t196 -55q74 0 139.5 17.5t124.5 45.5q23 10 45.5 21.5t38.5 11.5q14 0 28.5 -11t26 -26.5t18.5 -33t7 -31.5q0 -16 -12 -25q-100 -70 -196.5 -91.5t-206.5 -23.5l-13 -30q86 0 130 -43t44 -103q0 -47 -19.5 -78.5t-52 -50 t-72.5 -27t-81 -8.5q-12 0 -26.5 1.5t-18.5 17.5l-2 14q-4 16 13.5 18.5t33.5 6.5q43 8 81 30.5t38 63.5q0 31 -40 52.5t-101 21.5q-27 0 -40.5 2t3.5 37l37 80q-147 14 -250 86.5t-165.5 178t-91 234.5t-28.5 258z" />
<glyph unicode="&#xc8;" horiz-adv-x="1138" d="M152 98v1276q0 29 8 43.5t43 26.5q20 8 43.5 13t46.5 9q72 16 151.5 23.5t157.5 7.5q43 0 95.5 -2t105.5 -8t104 -17.5t92 -31.5q16 -8 33 -17.5t17 -19.5q0 -14 -6.5 -31.5t-16.5 -34t-23.5 -28t-27.5 -11.5q-8 0 -17.5 2t-19.5 7q-76 23 -152.5 35t-162.5 12 q-33 0 -73 -1t-79 -5.5t-76 -11.5t-63 -19v-469h598q6 0 10 -10.5t6 -24.5t3 -26.5t1 -18.5q0 -43 -35.5 -54.5t-144.5 -11.5h-438v-542q27 -12 63.5 -19.5t75.5 -11.5t79 -5t73 -1q86 0 162.5 12t152.5 35q10 4 19.5 6t17.5 2q14 0 27.5 -11t23.5 -27.5t16.5 -34t6.5 -31.5 q0 -10 -16.5 -19.5t-33.5 -17.5q-41 -20 -92 -31.5t-104 -17.5t-105.5 -8.5t-95.5 -2.5q-94 0 -186 10.5t-174 32.5q-35 8 -62.5 20.5t-27.5 59.5zM350 1870q0 12 15.5 19t37 12.5t43 6.5t33.5 1t23.5 -6.5t21.5 -22.5l160 -242q12 -18 12 -24q0 -4 -10 -7t-22.5 -5.5 t-24.5 -3.5t-18 -1q-10 0 -18.5 3.5t-18.5 13.5l-228 239q-6 8 -6 17z" />
<glyph unicode="&#xc9;" horiz-adv-x="1138" d="M152 98v1276q0 29 8 43.5t43 26.5q20 8 43.5 13t46.5 9q72 16 151.5 23.5t157.5 7.5q43 0 95.5 -2t105.5 -8t104 -17.5t92 -31.5q16 -8 33 -17.5t17 -19.5q0 -14 -6.5 -31.5t-16.5 -34t-23.5 -28t-27.5 -11.5q-8 0 -17.5 2t-19.5 7q-76 23 -152.5 35t-162.5 12 q-33 0 -73 -1t-79 -5.5t-76 -11.5t-63 -19v-469h598q6 0 10 -10.5t6 -24.5t3 -26.5t1 -18.5q0 -43 -35.5 -54.5t-144.5 -11.5h-438v-542q27 -12 63.5 -19.5t75.5 -11.5t79 -5t73 -1q86 0 162.5 12t152.5 35q10 4 19.5 6t17.5 2q14 0 27.5 -11t23.5 -27.5t16.5 -34t6.5 -31.5 q0 -10 -16.5 -19.5t-33.5 -17.5q-41 -20 -92 -31.5t-104 -17.5t-105.5 -8.5t-95.5 -2.5q-94 0 -186 10.5t-174 32.5q-35 8 -62.5 20.5t-27.5 59.5zM525 1614q-3 8 7 24l160 242q10 16 45 22.5t69 3.5t53.5 -16.5t0.5 -36.5l-227 -239q-10 -10 -18.5 -13.5t-18.5 -3.5h-28.5 t-28 4.5t-14.5 12.5z" />
<glyph unicode="&#xca;" horiz-adv-x="1138" d="M152 98v1276q0 29 8 43.5t43 26.5q20 8 43.5 13t46.5 9q72 16 151.5 23.5t157.5 7.5q43 0 95.5 -2t105.5 -8t104 -17.5t92 -31.5q16 -8 33 -17.5t17 -19.5q0 -14 -6.5 -31.5t-16.5 -34t-23.5 -28t-27.5 -11.5q-8 0 -17.5 2t-19.5 7q-76 23 -152.5 35t-162.5 12 q-33 0 -73 -1t-79 -5.5t-76 -11.5t-63 -19v-469h598q6 0 10 -10.5t6 -24.5t3 -26.5t1 -18.5q0 -43 -35.5 -54.5t-144.5 -11.5h-438v-542q27 -12 63.5 -19.5t75.5 -11.5t79 -5t73 -1q86 0 162.5 12t152.5 35q10 4 19.5 6t17.5 2q14 0 27.5 -11t23.5 -27.5t16.5 -34t6.5 -31.5 q0 -10 -16.5 -19.5t-33.5 -17.5q-41 -20 -92 -31.5t-104 -17.5t-105.5 -8.5t-95.5 -2.5q-94 0 -186 10.5t-174 32.5q-35 8 -62.5 20.5t-27.5 59.5zM313 1653q0 10 19 26l237 217q27 27 43 27q14 0 43 -27l238 -217q18 -16 18 -26t-22 -23l-39 -22q-20 -10 -27 -11 q-10 0 -28 19l-183 166l-182 -166q-18 -18 -29 -19q-6 0 -26 11l-39 22q-23 12 -23 23z" />
<glyph unicode="&#xcb;" horiz-adv-x="1138" d="M152 98v1276q0 29 8 43.5t43 26.5q20 8 43.5 13t46.5 9q72 16 151.5 23.5t157.5 7.5q43 0 95.5 -2t105.5 -8t104 -17.5t92 -31.5q16 -8 33 -17.5t17 -19.5q0 -14 -6.5 -31.5t-16.5 -34t-23.5 -28t-27.5 -11.5q-8 0 -17.5 2t-19.5 7q-76 23 -152.5 35t-162.5 12 q-33 0 -73 -1t-79 -5.5t-76 -11.5t-63 -19v-469h598q6 0 10 -10.5t6 -24.5t3 -26.5t1 -18.5q0 -43 -35.5 -54.5t-144.5 -11.5h-438v-542q27 -12 63.5 -19.5t75.5 -11.5t79 -5t73 -1q86 0 162.5 12t152.5 35q10 4 19.5 6t17.5 2q14 0 27.5 -11t23.5 -27.5t16.5 -34t6.5 -31.5 q0 -10 -16.5 -19.5t-33.5 -17.5q-41 -20 -92 -31.5t-104 -17.5t-105.5 -8.5t-95.5 -2.5q-94 0 -186 10.5t-174 32.5q-35 8 -62.5 20.5t-27.5 59.5zM324 1716q0 59 34.5 96t75.5 37q35 0 61.5 -29.5t26.5 -95.5q0 -57 -35.5 -92t-76.5 -35q-35 0 -60.5 28t-25.5 91zM727 1716 q0 59 35 96t76 37q35 0 61.5 -29.5t26.5 -95.5q0 -57 -36 -92t-77 -35q-35 0 -60.5 28t-25.5 91z" />
<glyph unicode="&#xcc;" horiz-adv-x="487" d="M-12 1870q0 12 15 19t36.5 12.5t43 6.5t34.5 1q12 0 23.5 -6.5t21.5 -22.5l160 -242q12 -18 12 -24q0 -4 -10.5 -7t-22.5 -5.5t-24.5 -3.5t-18.5 -1q-10 0 -18.5 3.5t-18.5 13.5l-227 239q-6 8 -6 17zM154 2v1468q0 8 13 13.5t29.5 8.5t33 4t22.5 1q27 0 43 -9t25.5 -35 t11.5 -70t2 -113v-1067q0 -70 -2 -114t-11.5 -69.5t-25.5 -35t-43 -9.5q-6 0 -22.5 1t-33 4.5t-29.5 8.5t-13 13z" />
<glyph unicode="&#xcd;" horiz-adv-x="487" d="M154 2v1468q0 8 13 13.5t29.5 8.5t33 4t22.5 1q27 0 43 -9t25.5 -35t11.5 -70t2 -113v-1067q0 -70 -2 -114t-11.5 -69.5t-25.5 -35t-43 -9.5q-6 0 -22.5 1t-33 4.5t-29.5 8.5t-13 13zM163 1614q-3 8 7 24l160 242q10 16 45 22.5t68.5 3.5t53 -16.5t1.5 -36.5l-228 -239 q-10 -10 -18 -13.5t-19 -3.5h-28.5t-27.5 4.5t-14 12.5z" />
<glyph unicode="&#xce;" horiz-adv-x="487" d="M-49 1653q0 10 18 26l238 217q27 27 43 27q14 0 43 -27l237 -217q18 -16 19 -26q0 -10 -23 -23l-39 -22q-20 -10 -26 -11q-10 0 -29 19l-182 166l-182 -166q-18 -18 -29 -19q-6 0 -27 11l-39 22q-23 12 -22 23zM154 2v1468q0 8 13 13.5t29.5 8.5t33 4t22.5 1q27 0 43 -9 t25.5 -35t11.5 -70t2 -113v-1067q0 -70 -2 -114t-11.5 -69.5t-25.5 -35t-43 -9.5q-6 0 -22.5 1t-33 4.5t-29.5 8.5t-13 13z" />
<glyph unicode="&#xcf;" horiz-adv-x="487" d="M-39 1716q0 59 35 96t76 37q35 0 61.5 -29.5t26.5 -95.5q0 -57 -36 -92t-77 -35q-35 0 -60.5 28t-25.5 91zM154 2v1468q0 8 13 13.5t29.5 8.5t33 4t22.5 1q27 0 43 -9t25.5 -35t11.5 -70t2 -113v-1067q0 -70 -2 -114t-11.5 -69.5t-25.5 -35t-43 -9.5q-6 0 -22.5 1 t-33 4.5t-29.5 8.5t-13 13zM365 1716q0 59 34.5 96t75.5 37q35 0 61.5 -29.5t26.5 -95.5q0 -57 -35.5 -92t-76.5 -35q-35 0 -60.5 28t-25.5 91z" />
<glyph unicode="&#xd0;" horiz-adv-x="1335" d="M-16 752q0 41 32.5 52t135.5 11v559q0 29 8 43.5t45 26.5q82 29 160.5 41t156.5 12q182 0 318.5 -65.5t227.5 -172t136 -243.5t45 -279q0 -143 -45 -279t-136 -244t-227 -173.5t-319 -65.5q-152 0 -321 54q-33 10 -41 23.5t-8 45.5v576h-148q-6 0 -10 10t-6 23.5t-3 25.5 t-1 19zM332 158q43 -20 92 -28.5t100 -8.5q137 0 238.5 50t166 133t96.5 189.5t32 219.5q0 119 -34 233.5t-101.5 204.5t-167 145.5t-230.5 55.5q-51 0 -100 -8.5t-92 -28.5v-500h157q6 0 10.5 -10t6.5 -23.5t3 -26t1 -18.5q0 -23 -7 -35t-27.5 -18t-54.5 -8t-89 -2v-516z " />
<glyph unicode="&#xd1;" horiz-adv-x="1431" d="M160 0v1434q0 63 30 63q14 0 36 -18.5t44 -44.5l828 -1080v1119q0 8 13 12t30.5 7t34 4t22.5 1q29 0 45.5 -10t23.5 -40t9 -84t2 -140v-1135q0 -115 -49 -115q-45 0 -121 101l-768 1020v-844q0 -86 -3 -140.5t-12.5 -84t-25.5 -40t-45 -10.5q-6 0 -21.5 1t-32 4.5 t-28.5 7.5t-12 12zM412 1628q0 12 6 25q29 76 79 111.5t107 35.5q43 0 74 -13t58.5 -30.5t57 -31t68.5 -13.5q35 0 57.5 16.5t43.5 55.5q8 16 22 16q16 0 37.5 -8t21.5 -23q0 -6 -2 -12l-4 -12q-23 -78 -76 -113t-110 -35q-43 0 -75 13.5t-60.5 31t-57 31t-65.5 13.5 q-35 0 -57.5 -16.5t-42.5 -55.5q-8 -16 -25 -17q-14 0 -35.5 8.5t-21.5 22.5z" />
<glyph unicode="&#xd2;" horiz-adv-x="1425" d="M86 733q0 147 36 284.5t112.5 244t194.5 171t284 64.5t283.5 -64.5t194.5 -171t112.5 -243.5t35.5 -285q0 -141 -35.5 -277.5t-111.5 -243t-194.5 -172t-284.5 -65.5t-285 65.5t-194.5 172t-111.5 243t-36 277.5zM279 733q0 -115 22.5 -225.5t74.5 -196.5t134 -138 t203 -52q119 0 201.5 52t135 138t75 196.5t22.5 225.5q0 117 -22.5 227.5t-75 197.5t-135 140.5t-201.5 53.5q-121 0 -203 -53.5t-134 -140.5t-74.5 -197.5t-22.5 -227.5zM451 1870q0 12 15 19t36.5 12.5t43 6.5t34.5 1q12 0 23 -6.5t22 -22.5l159 -242q12 -18 13 -24 q0 -4 -10.5 -7t-22.5 -5.5t-24.5 -3.5t-18.5 -1q-10 0 -18.5 3.5t-18.5 13.5l-227 239q-6 8 -6 17z" />
<glyph unicode="&#xd3;" horiz-adv-x="1425" d="M86 733q0 147 36 284.5t112.5 244t194.5 171t284 64.5t283.5 -64.5t194.5 -171t112.5 -243.5t35.5 -285q0 -141 -35.5 -277.5t-111.5 -243t-194.5 -172t-284.5 -65.5t-285 65.5t-194.5 172t-111.5 243t-36 277.5zM279 733q0 -115 22.5 -225.5t74.5 -196.5t134 -138 t203 -52q119 0 201.5 52t135 138t75 196.5t22.5 225.5q0 117 -22.5 227.5t-75 197.5t-135 140.5t-201.5 53.5q-121 0 -203 -53.5t-134 -140.5t-74.5 -197.5t-22.5 -227.5zM626 1614q-3 8 7 24l160 242q10 16 44.5 22.5t68.5 3.5t53.5 -16.5t1.5 -36.5l-228 -239 q-10 -10 -18 -13.5t-19 -3.5h-28.5t-27.5 4.5t-14 12.5z" />
<glyph unicode="&#xd4;" horiz-adv-x="1425" d="M86 733q0 147 36 284.5t112.5 244t194.5 171t284 64.5t283.5 -64.5t194.5 -171t112.5 -243.5t35.5 -285q0 -141 -35.5 -277.5t-111.5 -243t-194.5 -172t-284.5 -65.5t-285 65.5t-194.5 172t-111.5 243t-36 277.5zM279 733q0 -115 22.5 -225.5t74.5 -196.5t134 -138 t203 -52q119 0 201.5 52t135 138t75 196.5t22.5 225.5q0 117 -22.5 227.5t-75 197.5t-135 140.5t-201.5 53.5q-121 0 -203 -53.5t-134 -140.5t-74.5 -197.5t-22.5 -227.5zM414 1653q0 10 18 26l238 217q27 27 43 27q14 0 43 -27l237 -217q18 -16 19 -26q0 -10 -23 -23 l-39 -22q-20 -10 -26 -11q-10 0 -29 19l-182 166l-183 -166q-18 -18 -28 -19q-6 0 -27 11l-39 22q-23 12 -22 23z" />
<glyph unicode="&#xd5;" horiz-adv-x="1425" d="M86 733q0 147 36 284.5t112.5 244t194.5 171t284 64.5t283.5 -64.5t194.5 -171t112.5 -243.5t35.5 -285q0 -141 -35.5 -277.5t-111.5 -243t-194.5 -172t-284.5 -65.5t-285 65.5t-194.5 172t-111.5 243t-36 277.5zM279 733q0 -115 22.5 -225.5t74.5 -196.5t134 -138 t203 -52q119 0 201.5 52t135 138t75 196.5t22.5 225.5q0 117 -22.5 227.5t-75 197.5t-135 140.5t-201.5 53.5q-121 0 -203 -53.5t-134 -140.5t-74.5 -197.5t-22.5 -227.5zM399 1628q0 12 7 25q29 76 79 111.5t107 35.5q43 0 73.5 -13t58.5 -30.5t57.5 -31t68.5 -13.5 q35 0 57.5 16.5t42.5 55.5q8 16 23 16q16 0 37.5 -8t21.5 -23q0 -6 -2 -12l-4 -12q-23 -78 -76 -113t-110 -35q-43 0 -75 13.5t-60.5 31t-57.5 31t-65 13.5q-35 0 -57.5 -16.5t-43.5 -55.5q-8 -16 -24 -17q-14 0 -36 8.5t-22 22.5z" />
<glyph unicode="&#xd6;" horiz-adv-x="1425" d="M86 733q0 147 36 284.5t112.5 244t194.5 171t284 64.5t283.5 -64.5t194.5 -171t112.5 -243.5t35.5 -285q0 -141 -35.5 -277.5t-111.5 -243t-194.5 -172t-284.5 -65.5t-285 65.5t-194.5 172t-111.5 243t-36 277.5zM279 733q0 -115 22.5 -225.5t74.5 -196.5t134 -138 t203 -52q119 0 201.5 52t135 138t75 196.5t22.5 225.5q0 117 -22.5 227.5t-75 197.5t-135 140.5t-201.5 53.5q-121 0 -203 -53.5t-134 -140.5t-74.5 -197.5t-22.5 -227.5zM424 1716q0 59 35 96t76 37q35 0 61.5 -29.5t26.5 -95.5q0 -57 -36 -92t-77 -35q-35 0 -60.5 28 t-25.5 91zM827 1716q0 59 35 96t76 37q35 0 61.5 -29.5t26.5 -95.5q0 -57 -36 -92t-77 -35q-35 0 -60.5 28t-25.5 91z" />
<glyph unicode="&#xd7;" horiz-adv-x="1234" d="M147 168l377 377l-374 379l90 92l376 -379l381 379l90 -92l-376 -379l374 -377l-92 -90l-377 377l-378 -379z" />
<glyph unicode="&#xd8;" horiz-adv-x="1425" d="M86 733q0 147 36 284.5t112.5 244t194.5 171t284 64.5q109 0 198 -31l17 39q10 29 31.5 36t39.5 7q25 0 54.5 -9t29.5 -32q0 -27 -10 -56.5t-20 -51.5q74 -51 128 -124t90 -160t52 -184t16 -198q0 -141 -35.5 -277.5t-111.5 -243t-194.5 -172t-284.5 -65.5 q-57 0 -106.5 8.5t-96.5 22.5l-14 -39q-6 -14 -18.5 -22t-27 -13.5t-27.5 -7.5t-22 -2q-29 0 -45 6t-16 33q0 23 10 55.5t21 57.5q-74 51 -128.5 123.5t-89 158.5t-51 182.5t-16.5 194.5zM279 733q0 -145 35.5 -278t119.5 -222l424 1092q-69 27 -145 27q-121 0 -203 -53.5 t-134 -140.5t-74.5 -197.5t-22.5 -227.5zM565 145q63 -25 148 -24q119 0 201.5 52t135 138t75 196.5t22.5 225.5q0 72 -9.5 143.5t-27.5 137t-48 123t-73 100.5z" />
<glyph unicode="&#xd9;" horiz-adv-x="1386" d="M152 520v953q0 8 12 12t28.5 7t32 4t21.5 1q29 0 45 -10t23.5 -40t8.5 -84t1 -140v-686q0 -205 91 -310.5t275 -105.5q182 0 277.5 108.5t95.5 309.5v934q0 8 12 12t28.5 7t32 4t21.5 1q29 0 45.5 -10t23.5 -40t8 -84t1 -140v-697q0 -264 -140.5 -407.5t-404.5 -143.5 q-135 0 -236.5 43t-169 118t-100 174.5t-32.5 209.5zM430 1870q0 12 15.5 19t37 12.5t43 6.5t33.5 1t23.5 -6.5t21.5 -22.5l160 -242q12 -18 12 -24q0 -4 -10 -7t-22.5 -5.5t-24.5 -3.5t-19 -1q-10 0 -18 3.5t-18 13.5l-228 239q-6 8 -6 17z" />
<glyph unicode="&#xda;" horiz-adv-x="1386" d="M152 520v953q0 8 12 12t28.5 7t32 4t21.5 1q29 0 45 -10t23.5 -40t8.5 -84t1 -140v-686q0 -205 91 -310.5t275 -105.5q182 0 277.5 108.5t95.5 309.5v934q0 8 12 12t28.5 7t32 4t21.5 1q29 0 45.5 -10t23.5 -40t8 -84t1 -140v-697q0 -264 -140.5 -407.5t-404.5 -143.5 q-135 0 -236.5 43t-169 118t-100 174.5t-32.5 209.5zM605 1614q-3 8 7 24l160 242q10 16 45 22.5t69 3.5t53 -16.5t1 -36.5l-227 -239q-10 -10 -18.5 -13.5t-18.5 -3.5h-28.5t-28 4.5t-14.5 12.5z" />
<glyph unicode="&#xdb;" horiz-adv-x="1386" d="M152 520v953q0 8 12 12t28.5 7t32 4t21.5 1q29 0 45 -10t23.5 -40t8.5 -84t1 -140v-686q0 -205 91 -310.5t275 -105.5q182 0 277.5 108.5t95.5 309.5v934q0 8 12 12t28.5 7t32 4t21.5 1q29 0 45.5 -10t23.5 -40t8 -84t1 -140v-697q0 -264 -140.5 -407.5t-404.5 -143.5 q-135 0 -236.5 43t-169 118t-100 174.5t-32.5 209.5zM393 1653q0 10 19 26l237 217q27 27 43 27q14 0 43 -27l238 -217q18 -16 18 -26t-22 -23l-39 -22q-20 -10 -27 -11q-10 0 -29 19l-182 166l-182 -166q-18 -18 -29 -19q-6 0 -26 11l-39 22q-23 12 -23 23z" />
<glyph unicode="&#xdc;" horiz-adv-x="1386" d="M152 520v953q0 8 12 12t28.5 7t32 4t21.5 1q29 0 45 -10t23.5 -40t8.5 -84t1 -140v-686q0 -205 91 -310.5t275 -105.5q182 0 277.5 108.5t95.5 309.5v934q0 8 12 12t28.5 7t32 4t21.5 1q29 0 45.5 -10t23.5 -40t8 -84t1 -140v-697q0 -264 -140.5 -407.5t-404.5 -143.5 q-135 0 -236.5 43t-169 118t-100 174.5t-32.5 209.5zM403 1716q0 59 35 96t76 37q35 0 61.5 -29.5t26.5 -95.5q0 -57 -36 -92t-77 -35q-35 0 -60.5 28t-25.5 91zM807 1716q0 59 35 96t76 37q35 0 61.5 -29.5t26.5 -95.5q0 -57 -36 -92t-77 -35q-35 0 -60.5 28t-25.5 91z" />
<glyph unicode="&#xdd;" d="M16.5 1455q-0.5 15 7 24.5t19.5 13.5t27 4q39 0 69.5 -7t46.5 -36q35 -66 79 -148.5t91 -167.5t95.5 -165t93.5 -139q45 59 93 139t95 165t91 168t79 148q12 29 47 36t70 7q14 0 26.5 -4t19.5 -13.5t7 -24.5t-10 -38q-82 -174 -180.5 -346t-216.5 -364q-10 -16 -20.5 -44 t-10.5 -51v-362q0 -86 -2 -140.5t-11.5 -84t-26.5 -40t-46 -10.5q-6 0 -21.5 1t-32 4.5t-28.5 7.5t-12 12v612q0 18 -9.5 48t-21.5 47q-109 174 -208 349t-189 361q-10 23 -10.5 38zM458 1614q-3 8 7 24l160 242q10 16 45 22.5t68.5 3.5t53 -16.5t1.5 -36.5l-228 -239 q-10 -10 -18 -13.5t-19 -3.5h-28.5t-27.5 4.5t-14 12.5z" />
<glyph unicode="&#xde;" horiz-adv-x="1181" d="M152 -598v2066q0 8 12 12.5t28.5 7.5t32 4t21.5 1q29 0 46 -10t26.5 -40t11.5 -84t2 -140v-338q100 18 213 18q104 0 202.5 -21.5t176 -72.5t125 -136t47.5 -214q0 -115 -39 -203t-112 -147.5t-174 -90t-226 -30.5q-113 0 -213 18v-350q0 -86 -2 -140.5t-11.5 -84 t-26.5 -40t-46 -10.5q-6 0 -21.5 1t-32 4.5t-28.5 7.5t-12 12zM332 166q98 -37 217 -37q104 0 173 25.5t108.5 68.5t56 100.5t16.5 122.5q0 147 -84 227.5t-270 80.5q-57 0 -113.5 -9.5t-103.5 -27.5v-551z" />
<glyph unicode="&#xdf;" horiz-adv-x="1214" d="M143 2v1370q0 29 8.5 43.5t45.5 28.5q68 23 149.5 38t167.5 15q104 0 199.5 -19.5t167 -65.5t114.5 -119.5t43 -184.5q0 -104 -60 -185t-157 -122q141 -41 218 -132t77 -237q0 -137 -50 -226t-131 -140.5t-185.5 -71t-212.5 -19.5h-15q-23 0 -36 4.5t-21 17.5t-13.5 38.5 t-13.5 66.5v4q0 10 9.5 12.5t19.5 2.5h74q74 0 143.5 10t122.5 43t85 94.5t32 163.5q0 123 -87 195.5t-235 72.5h-80q-23 0 -36 4.5t-21 17.5t-13.5 38.5t-13.5 66.5v4q0 10 9.5 12.5t19.5 2.5h63q160 0 238 67.5t78 194.5q0 72 -26.5 119t-72 74.5t-101.5 39t-118 11.5 q-53 0 -105 -5.5t-99 -17.5v-1126q0 -70 -2.5 -114t-11.5 -69.5t-25.5 -35t-42.5 -9.5q-6 0 -22.5 1t-33 4.5t-30 8.5t-13.5 13z" />
<glyph unicode="&#xe0;" d="M49 299q0 109 51.5 203t135 162.5t190 108.5t219.5 40q39 0 76 -3t74 -7v53q0 129 -53.5 190.5t-190.5 61.5q-59 0 -101 -11.5t-75 -25.5t-57.5 -25.5t-49.5 -11.5q-16 0 -29.5 12.5t-22.5 29t-15 35.5t-6 32q0 23 36.5 43t91 35.5t117 23.5t111.5 8q74 0 148.5 -10 t134 -49t96.5 -118t37 -216v-600q0 -66 4 -135.5t8 -118.5q0 -6 -2 -12t-12 -8q-29 -4 -52.5 -7.5t-44.5 -3.5q-35 0 -54 18.5t-19 78.5v227q-63 -147 -183 -235.5t-266 -88.5q-78 0 -133 27t-92 72t-54.5 103.5t-17.5 121.5zM229 287q0 -82 45 -121t109 -39q72 0 145.5 49 t133 123t96.5 161t37 163v20q-86 20 -185.5 9t-183.5 -55t-140.5 -121.5t-56.5 -188.5zM289 1636q0 12 15 19.5t36.5 12.5t43.5 6t34 1t23.5 -6t21.5 -22l160 -242q12 -18 12 -25q0 -4 -10.5 -7t-22.5 -5t-24.5 -3t-18.5 -1q-10 0 -18.5 3t-18.5 13l-227 240q-6 8 -6 16z " />
<glyph unicode="&#xe1;" d="M49 299q0 109 51.5 203t135 162.5t190 108.5t219.5 40q39 0 76 -3t74 -7v53q0 129 -53.5 190.5t-190.5 61.5q-59 0 -101 -11.5t-75 -25.5t-57.5 -25.5t-49.5 -11.5q-16 0 -29.5 12.5t-22.5 29t-15 35.5t-6 32q0 23 36.5 43t91 35.5t117 23.5t111.5 8q74 0 148.5 -10 t134 -49t96.5 -118t37 -216v-600q0 -66 4 -135.5t8 -118.5q0 -6 -2 -12t-12 -8q-29 -4 -52.5 -7.5t-44.5 -3.5q-35 0 -54 18.5t-19 78.5v227q-63 -147 -183 -235.5t-266 -88.5q-78 0 -133 27t-92 72t-54.5 103.5t-17.5 121.5zM229 287q0 -82 45 -121t109 -39q72 0 145.5 49 t133 123t96.5 161t37 163v20q-86 20 -185.5 9t-183.5 -55t-140.5 -121.5t-56.5 -188.5zM464 1380.5q-3 8.5 7 24.5l160 242q10 16 45 22t68.5 3t53 -16.5t1.5 -35.5l-228 -240q-10 -10 -18 -13t-18 -3h-29t-28 4t-14 12.5z" />
<glyph unicode="&#xe2;" d="M49 299q0 109 51.5 203t135 162.5t190 108.5t219.5 40q39 0 76 -3t74 -7v53q0 129 -53.5 190.5t-190.5 61.5q-59 0 -101 -11.5t-75 -25.5t-57.5 -25.5t-49.5 -11.5q-16 0 -29.5 12.5t-22.5 29t-15 35.5t-6 32q0 23 36.5 43t91 35.5t117 23.5t111.5 8q74 0 148.5 -10 t134 -49t96.5 -118t37 -216v-600q0 -66 4 -135.5t8 -118.5q0 -6 -2 -12t-12 -8q-29 -4 -52.5 -7.5t-44.5 -3.5q-35 0 -54 18.5t-19 78.5v227q-63 -147 -183 -235.5t-266 -88.5q-78 0 -133 27t-92 72t-54.5 103.5t-17.5 121.5zM229 287q0 -82 45 -121t109 -39q72 0 145.5 49 t133 123t96.5 161t37 163v20q-86 20 -185.5 9t-183.5 -55t-140.5 -121.5t-56.5 -188.5zM252 1419q0 10 18 27l238 217q27 27 43 27q14 0 43 -27l237 -217q18 -16 19 -27q0 -10 -23 -22l-39 -23q-20 -10 -26 -10q-10 0 -29 18l-182 166l-182 -166q-18 -18 -29 -18 q-6 0 -27 10l-39 23q-23 12 -22 22z" />
<glyph unicode="&#xe3;" d="M49 299q0 109 51.5 203t135 162.5t190 108.5t219.5 40q39 0 76 -3t74 -7v53q0 129 -53.5 190.5t-190.5 61.5q-59 0 -101 -11.5t-75 -25.5t-57.5 -25.5t-49.5 -11.5q-16 0 -29.5 12.5t-22.5 29t-15 35.5t-6 32q0 23 36.5 43t91 35.5t117 23.5t111.5 8q74 0 148.5 -10 t134 -49t96.5 -118t37 -216v-600q0 -66 4 -135.5t8 -118.5q0 -6 -2 -12t-12 -8q-29 -4 -52.5 -7.5t-44.5 -3.5q-35 0 -54 18.5t-19 78.5v227q-63 -147 -183 -235.5t-266 -88.5q-78 0 -133 27t-92 72t-54.5 103.5t-17.5 121.5zM229 287q0 -82 45 -121t109 -39q72 0 145.5 49 t133 123t96.5 161t37 163v20q-86 20 -185.5 9t-183.5 -55t-140.5 -121.5t-56.5 -188.5zM238 1395q0 12 6 24q29 76 79 112t107 36q43 0 74 -13.5t58.5 -31t57 -30.5t68.5 -13q35 0 57.5 16t42.5 55q8 16 23 17q16 0 37.5 -8.5t21.5 -22.5q0 -6 -2 -12t-4 -13 q-23 -78 -76 -112.5t-110 -34.5q-43 0 -75 13.5t-60.5 30.5t-57 30.5t-65.5 13.5q-35 0 -57.5 -16.5t-43.5 -55.5q-8 -16 -24 -16q-14 0 -35.5 8t-21.5 23z" />
<glyph unicode="&#xe4;" d="M49 299q0 109 51.5 203t135 162.5t190 108.5t219.5 40q39 0 76 -3t74 -7v53q0 129 -53.5 190.5t-190.5 61.5q-59 0 -101 -11.5t-75 -25.5t-57.5 -25.5t-49.5 -11.5q-16 0 -29.5 12.5t-22.5 29t-15 35.5t-6 32q0 23 36.5 43t91 35.5t117 23.5t111.5 8q74 0 148.5 -10 t134 -49t96.5 -118t37 -216v-600q0 -66 4 -135.5t8 -118.5q0 -6 -2 -12t-12 -8q-29 -4 -52.5 -7.5t-44.5 -3.5q-35 0 -54 18.5t-19 78.5v227q-63 -147 -183 -235.5t-266 -88.5q-78 0 -133 27t-92 72t-54.5 103.5t-17.5 121.5zM229 287q0 -82 45 -121t109 -39q72 0 145.5 49 t133 123t96.5 161t37 163v20q-86 20 -185.5 9t-183.5 -55t-140.5 -121.5t-56.5 -188.5zM262 1483q0 59 35 96t76 37q35 0 61.5 -30t26.5 -95q0 -57 -36 -92t-77 -35q-35 0 -60.5 28t-25.5 91zM666 1483q0 59 34.5 96t75.5 37q35 0 61.5 -30t26.5 -95q0 -57 -35.5 -92 t-76.5 -35q-35 0 -60.5 28t-25.5 91z" />
<glyph unicode="&#xe5;" d="M49 299q0 109 51.5 203t135 162.5t190 108.5t219.5 40q39 0 76 -3t74 -7v53q0 129 -53.5 190.5t-190.5 61.5q-59 0 -101 -11.5t-75 -25.5t-57.5 -25.5t-49.5 -11.5q-16 0 -29.5 12.5t-22.5 29t-15 35.5t-6 32q0 23 36.5 43t91 35.5t117 23.5t111.5 8q74 0 148.5 -10 t134 -49t96.5 -118t37 -216v-600q0 -66 4 -135.5t8 -118.5q0 -6 -2 -12t-12 -8q-29 -4 -52.5 -7.5t-44.5 -3.5q-35 0 -54 18.5t-19 78.5v227q-63 -147 -183 -235.5t-266 -88.5q-78 0 -133 27t-92 72t-54.5 103.5t-17.5 121.5zM229 287q0 -82 45 -121t109 -39q72 0 145.5 49 t133 123t96.5 161t37 163v20q-86 20 -185.5 9t-183.5 -55t-140.5 -121.5t-56.5 -188.5zM354 1552q0 35 12.5 69t36 59.5t59.5 42t85 16.5t85 -16.5t59.5 -43t35.5 -60.5t12 -69t-12 -68.5t-35.5 -60t-59.5 -42t-83 -15.5q-49 0 -85 16.5t-60.5 43t-37 60.5t-12.5 68z M430 1548q0 -55 36 -81.5t81 -26.5q43 0 80 26.5t37 85.5q0 57 -36 84t-81 27q-43 0 -80 -28t-37 -87z" />
<glyph unicode="&#xe6;" horiz-adv-x="1757" d="M49 299q0 109 51.5 203t135 162.5t190 108.5t219.5 40q39 0 76 -3t74 -7v53q0 129 -53.5 190.5t-190.5 61.5q-59 0 -101 -11.5t-75 -25.5t-57.5 -25.5t-49.5 -11.5q-16 0 -29.5 12.5t-22.5 29t-15 35.5t-6 32q0 23 36.5 43t91 35.5t117 23.5t111.5 8q55 0 109.5 -5 t103.5 -21.5t90 -49t70 -90.5q55 76 142 121t210 45q117 0 195.5 -26.5t127 -68.5t69 -96t20.5 -110q0 -100 -68 -201.5t-190 -179.5q-86 -55 -197 -86.5t-242 -54.5q12 -66 34 -122t55.5 -97t81.5 -65.5t114 -24.5q59 0 101 11t75 25.5t57.5 26t49.5 11.5q27 0 45 -31 q6 -12 17 -35t11 -43q0 -23 -36.5 -43t-91 -35.5t-116 -24t-112.5 -8.5q-98 0 -173 29t-129 79t-90 118.5t-57 146.5q-37 -55 -62.5 -93t-44 -63.5t-33.5 -42t-30 -30.5q-66 -66 -144.5 -105t-166.5 -39q-78 0 -133 27t-92 72t-54.5 103.5t-17.5 121.5zM229 287 q0 -41 16.5 -72t40 -52.5t50 -31.5t47.5 -10q72 0 139.5 55t122.5 133t94 159t56 134v57h-148q-76 0 -150.5 -26.5t-134 -75.5t-96.5 -117.5t-37 -152.5zM977 590q268 55 399 149.5t131 190.5q0 31 -13 62.5t-41 57t-72 42t-105 16.5q-86 0 -143.5 -43t-92 -111.5 t-49 -157.5t-14.5 -182v-24z" />
<glyph unicode="&#xe7;" horiz-adv-x="987" d="M96 614q0 119 23.5 235t79 205t147.5 144t229 55q111 0 195 -24.5t150 -59.5q12 -6 13 -20t-4 -29.5t-13.5 -31t-12.5 -23.5q-18 -31 -45 -31q-25 0 -49.5 10.5t-57 23.5t-74.5 23.5t-102 10.5q-86 0 -143 -42t-92 -109.5t-49.5 -155.5t-14.5 -181q0 -92 14.5 -180 t49.5 -155.5t92 -109.5t143 -42q59 0 101.5 10t75 23.5t57.5 24t49 10.5q27 0 45 -31q4 -8 12.5 -22.5t13.5 -30t4 -29.5t-13 -23q-59 -35 -139.5 -57t-184.5 -27l-10 -24q86 0 130 -43t44 -103q0 -47 -19.5 -78.5t-52.5 -50t-73 -26.5t-80 -8q-12 0 -26.5 1t-19.5 17l-2 14 q-4 16 13.5 18.5t34.5 6.5q43 8 80.5 30.5t37.5 63.5q0 31 -40 52.5t-101 21.5q-27 0 -40 2t3 37l33 74q-117 14 -196 72.5t-127 146.5t-68.5 195.5t-20.5 219.5z" />
<glyph unicode="&#xe8;" horiz-adv-x="1038" d="M78 618q0 111 27.5 223.5t86 204t150.5 149.5t219 58q78 0 151.5 -22.5t131 -63.5t92.5 -100t35 -135q0 -102 -44 -173t-115 -115t-161 -64.5t-182 -20.5q-49 0 -111.5 7t-97.5 20v-13q2 -86 18.5 -167.5t52.5 -144t92 -101.5t136 -39q59 0 101 11t75 25.5t57.5 26 t49.5 11.5q27 0 45 -31q6 -12 17 -35t11 -43q0 -23 -36.5 -43t-91 -35.5t-116 -24t-112.5 -8.5q-137 0 -229 55.5t-148.5 146.5t-80 206t-23.5 235zM268 733q53 -12 102.5 -19t92.5 -7q166 0 245.5 60t79.5 163q0 35 -18 66.5t-49 55t-71 38t-85 14.5q-74 0 -125 -26.5 t-84.5 -76t-54.5 -118t-33 -150.5zM295 1636q0 12 15.5 19.5t37 12.5t43 6t33.5 1t23.5 -6t21.5 -22l160 -242q12 -18 12 -25q0 -4 -10 -7t-22.5 -5t-25 -3t-18.5 -1q-10 0 -18 3t-19 13l-227 240q-6 8 -6 16z" />
<glyph unicode="&#xe9;" horiz-adv-x="1038" d="M78 618q0 111 27.5 223.5t86 204t150.5 149.5t219 58q78 0 151.5 -22.5t131 -63.5t92.5 -100t35 -135q0 -102 -44 -173t-115 -115t-161 -64.5t-182 -20.5q-49 0 -111.5 7t-97.5 20v-13q2 -86 18.5 -167.5t52.5 -144t92 -101.5t136 -39q59 0 101 11t75 25.5t57.5 26 t49.5 11.5q27 0 45 -31q6 -12 17 -35t11 -43q0 -23 -36.5 -43t-91 -35.5t-116 -24t-112.5 -8.5q-137 0 -229 55.5t-148.5 146.5t-80 206t-23.5 235zM268 733q53 -12 102.5 -19t92.5 -7q166 0 245.5 60t79.5 163q0 35 -18 66.5t-49 55t-71 38t-85 14.5q-74 0 -125 -26.5 t-84.5 -76t-54.5 -118t-33 -150.5zM470 1380.5q-3 8.5 7 24.5l160 242q10 16 45 22t68.5 3t53 -16.5t1.5 -35.5l-227 -240q-10 -10 -18.5 -13t-18.5 -3h-28.5t-28 4t-14.5 12.5z" />
<glyph unicode="&#xea;" horiz-adv-x="1038" d="M78 618q0 111 27.5 223.5t86 204t150.5 149.5t219 58q78 0 151.5 -22.5t131 -63.5t92.5 -100t35 -135q0 -102 -44 -173t-115 -115t-161 -64.5t-182 -20.5q-49 0 -111.5 7t-97.5 20v-13q2 -86 18.5 -167.5t52.5 -144t92 -101.5t136 -39q59 0 101 11t75 25.5t57.5 26 t49.5 11.5q27 0 45 -31q6 -12 17 -35t11 -43q0 -23 -36.5 -43t-91 -35.5t-116 -24t-112.5 -8.5q-137 0 -229 55.5t-148.5 146.5t-80 206t-23.5 235zM258 1419q0 10 18 27l238 217q27 27 43 27q14 0 43 -27l238 -217q18 -16 18 -27q0 -10 -22 -22l-39 -23q-20 -10 -27 -10 q-10 0 -29 18l-182 166l-182 -166q-18 -18 -29 -18q-6 0 -27 10l-38 23q-23 12 -23 22zM268 733q53 -12 102.5 -19t92.5 -7q166 0 245.5 60t79.5 163q0 35 -18 66.5t-49 55t-71 38t-85 14.5q-74 0 -125 -26.5t-84.5 -76t-54.5 -118t-33 -150.5z" />
<glyph unicode="&#xeb;" horiz-adv-x="1038" d="M78 618q0 111 27.5 223.5t86 204t150.5 149.5t219 58q78 0 151.5 -22.5t131 -63.5t92.5 -100t35 -135q0 -102 -44 -173t-115 -115t-161 -64.5t-182 -20.5q-49 0 -111.5 7t-97.5 20v-13q2 -86 18.5 -167.5t52.5 -144t92 -101.5t136 -39q59 0 101 11t75 25.5t57.5 26 t49.5 11.5q27 0 45 -31q6 -12 17 -35t11 -43q0 -23 -36.5 -43t-91 -35.5t-116 -24t-112.5 -8.5q-137 0 -229 55.5t-148.5 146.5t-80 206t-23.5 235zM268 733q53 -12 102.5 -19t92.5 -7q166 0 245.5 60t79.5 163q0 35 -18 66.5t-49 55t-71 38t-85 14.5q-74 0 -125 -26.5 t-84.5 -76t-54.5 -118t-33 -150.5zM268 1483q0 59 35 96t76 37q35 0 61.5 -30t26.5 -95q0 -57 -36 -92t-77 -35q-35 0 -60.5 28t-25.5 91zM672 1483q0 59 34.5 96t75.5 37q35 0 61.5 -30t26.5 -95q0 -57 -35.5 -92t-76.5 -35q-35 0 -60.5 28t-25.5 91z" />
<glyph unicode="&#xec;" horiz-adv-x="524" d="M-35 1636q0 12 15.5 19.5t37 12.5t43 6t33.5 1t23.5 -6t21.5 -22l160 -242q12 -18 12 -25q0 -4 -10 -7t-22.5 -5t-24.5 -3t-18 -1q-10 0 -18.5 3t-18.5 13l-228 240q-6 8 -6 16zM135 354v875q0 8 12.5 12t29 7t31.5 4t21 1q29 0 45.5 -10t23.5 -39.5t8 -84t1 -140.5v-682 q0 -84 16.5 -130t57.5 -46q8 0 20.5 5t23.5 11t19.5 11.5t10.5 5.5q12 0 22 -11.5t19.5 -29t14.5 -35t5 -29.5q0 -4 -13.5 -16.5t-33.5 -24.5t-47 -22.5t-53 -10.5q-82 0 -129 29t-70 79t-29 119.5t-6 151.5z" />
<glyph unicode="&#xed;" horiz-adv-x="524" d="M135 354v875q0 8 12.5 12t29 7t31.5 4t21 1q29 0 45.5 -10t23.5 -39.5t8 -84t1 -140.5v-682q0 -84 16.5 -130t57.5 -46q8 0 20.5 5t23.5 11t19.5 11.5t10.5 5.5q12 0 22 -11.5t19.5 -29t14.5 -35t5 -29.5q0 -4 -13.5 -16.5t-33.5 -24.5t-47 -22.5t-53 -10.5 q-82 0 -129 29t-70 79t-29 119.5t-6 151.5zM140 1380.5q-3 8.5 7 24.5l160 242q10 16 45 22t69 3t53.5 -16.5t0.5 -35.5l-227 -240q-10 -10 -18.5 -13t-18.5 -3h-28.5t-28 4t-14.5 12.5z" />
<glyph unicode="&#xee;" horiz-adv-x="524" d="M-72 1419q0 10 19 27l237 217q27 27 43 27q14 0 43 -27l238 -217q18 -16 18 -27q0 -10 -22 -22l-39 -23q-20 -10 -27 -10q-10 0 -28 18l-183 166l-182 -166q-18 -18 -29 -18q-6 0 -26 10l-39 23q-23 12 -23 22zM135 354v875q0 8 12.5 12t29 7t31.5 4t21 1q29 0 45.5 -10 t23.5 -39.5t8 -84t1 -140.5v-682q0 -84 16.5 -130t57.5 -46q8 0 20.5 5t23.5 11t19.5 11.5t10.5 5.5q12 0 22 -11.5t19.5 -29t14.5 -35t5 -29.5q0 -4 -13.5 -16.5t-33.5 -24.5t-47 -22.5t-53 -10.5q-82 0 -129 29t-70 79t-29 119.5t-6 151.5z" />
<glyph unicode="&#xef;" horiz-adv-x="524" d="M-61 1483q0 59 34.5 96t75.5 37q35 0 61.5 -30t26.5 -95q0 -57 -35.5 -92t-76.5 -35q-35 0 -60.5 28t-25.5 91zM135 354v875q0 8 12.5 12t29 7t31.5 4t21 1q29 0 45.5 -10t23.5 -39.5t8 -84t1 -140.5v-682q0 -84 16.5 -130t57.5 -46q8 0 20.5 5t23.5 11t19.5 11.5 t10.5 5.5q12 0 22 -11.5t19.5 -29t14.5 -35t5 -29.5q0 -4 -13.5 -16.5t-33.5 -24.5t-47 -22.5t-53 -10.5q-82 0 -129 29t-70 79t-29 119.5t-6 151.5zM342 1483q0 59 35 96t76 37q35 0 61.5 -30t26.5 -95q0 -57 -36 -92t-77 -35q-35 0 -60.5 28t-25.5 91z" />
<glyph unicode="&#xf0;" horiz-adv-x="1165" d="M88 451q0 102 33 187t91 145.5t141 94t184 33.5q37 0 78.5 -6t82.5 -20.5t79 -38t63 -58.5q-70 152 -158 254.5t-193 180.5l-133 -133q-4 -4 -14 0t-21.5 11t-20.5 15t-13 12q-31 29 -10.5 65t92.5 107q-27 16 -54.5 32t-56.5 32t-22.5 29.5t16.5 31.5l22 35q18 29 37 23 t41 -15q33 -12 63.5 -27.5t61.5 -31.5l121 123q4 4 14.5 0t21.5 -12.5t20.5 -16.5t13.5 -12q14 -16 20 -28.5t0 -29t-27.5 -40t-58.5 -60.5q109 -78 197 -176t149.5 -205.5t95 -220.5t33.5 -219q0 -121 -33.5 -221.5t-97 -172t-158 -111.5t-213.5 -40q-109 0 -197.5 36 t-153 99.5t-100.5 153t-36 195.5zM279 436q0 -143 78.5 -233t220.5 -90q154 0 230.5 92t76.5 248q0 82 -27 142t-71 100t-100 59.5t-116 19.5q-70 0 -124 -25.5t-92 -70.5t-57 -106.5t-19 -135.5z" />
<glyph unicode="&#xf1;" horiz-adv-x="1243" d="M143 0v1229q0 8 12.5 12t29 7t31.5 4t22 1q29 0 45 -10t23 -39.5t8 -84t1 -140.5v-209q23 82 65 168t103.5 156.5t144.5 114.5t187 44q86 0 143.5 -32.5t91 -88t48 -128t14.5 -150.5v-604q0 -86 -1 -140.5t-8 -84t-23.5 -40t-45.5 -10.5q-6 0 -21.5 1t-31.5 4.5 t-28.5 7.5t-12.5 12v823q0 147 -34 212t-120 65q-57 0 -138 -53.5t-154.5 -161t-126 -270t-52.5 -382.5v-90q0 -104 -15 -136t-62 -32q-6 0 -21.5 1t-32 4.5t-29 7.5t-12.5 12zM365 1395q0 12 6 24q29 76 79 112t107 36q43 0 74 -13.5t58.5 -31t57 -30.5t68.5 -13 q35 0 57.5 16t42.5 55q8 16 23 17q16 0 37.5 -8.5t21.5 -22.5q0 -6 -2 -12t-4 -13q-23 -78 -76 -112.5t-110 -34.5q-43 0 -75 13.5t-60.5 30.5t-57 30.5t-65.5 13.5q-35 0 -57.5 -16.5t-43.5 -55.5q-8 -16 -24 -16q-14 0 -35.5 8t-21.5 23z" />
<glyph unicode="&#xf2;" horiz-adv-x="1105" d="M78 614q0 119 22.5 235t77.5 205t146.5 144t228.5 55t228 -55t146.5 -144t78 -205t22.5 -235q0 -121 -22.5 -235.5t-78 -203.5t-146.5 -144.5t-228 -55.5t-228.5 55.5t-146.5 144.5t-77.5 203.5t-22.5 235.5zM258 612q0 -92 13.5 -180t47 -157.5t91 -111.5t143.5 -42 t142.5 42t90 111.5t48 157.5t14.5 180t-14.5 181.5t-48 159t-90 112.5t-142.5 43t-143.5 -43t-91 -112.5t-47 -158.5t-13.5 -182zM291 1636q0 12 15.5 19.5t37 12.5t43 6t33.5 1t23.5 -6t21.5 -22l160 -242q12 -18 12 -25q0 -4 -10.5 -7t-22.5 -5t-24.5 -3t-18.5 -1 q-10 0 -18 3t-19 13l-227 240q-6 8 -6 16z" />
<glyph unicode="&#xf3;" horiz-adv-x="1105" d="M78 614q0 119 22.5 235t77.5 205t146.5 144t228.5 55t228 -55t146.5 -144t78 -205t22.5 -235q0 -121 -22.5 -235.5t-78 -203.5t-146.5 -144.5t-228 -55.5t-228.5 55.5t-146.5 144.5t-77.5 203.5t-22.5 235.5zM258 612q0 -92 13.5 -180t47 -157.5t91 -111.5t143.5 -42 t142.5 42t90 111.5t48 157.5t14.5 180t-14.5 181.5t-48 159t-90 112.5t-142.5 43t-143.5 -43t-91 -112.5t-47 -158.5t-13.5 -182zM466 1380.5q-3 8.5 7 24.5l160 242q10 16 45 22t68.5 3t53 -16.5t1.5 -35.5l-228 -240q-10 -10 -18 -13t-18 -3h-28.5t-28 4t-14.5 12.5z" />
<glyph unicode="&#xf4;" horiz-adv-x="1105" d="M78 614q0 119 22.5 235t77.5 205t146.5 144t228.5 55t228 -55t146.5 -144t78 -205t22.5 -235q0 -121 -22.5 -235.5t-78 -203.5t-146.5 -144.5t-228 -55.5t-228.5 55.5t-146.5 144.5t-77.5 203.5t-22.5 235.5zM254 1419q0 10 18 27l238 217q27 27 43 27q14 0 43 -27 l238 -217q18 -16 18 -27q0 -10 -23 -22l-38 -23q-20 -10 -27 -10q-10 0 -29 18l-182 166l-182 -166q-18 -18 -29 -18q-6 0 -27 10l-39 23q-23 12 -22 22zM258 612q0 -92 13.5 -180t47 -157.5t91 -111.5t143.5 -42t142.5 42t90 111.5t48 157.5t14.5 180t-14.5 181.5t-48 159 t-90 112.5t-142.5 43t-143.5 -43t-91 -112.5t-47 -158.5t-13.5 -182z" />
<glyph unicode="&#xf5;" horiz-adv-x="1105" d="M78 614q0 119 22.5 235t77.5 205t146.5 144t228.5 55t228 -55t146.5 -144t78 -205t22.5 -235q0 -121 -22.5 -235.5t-78 -203.5t-146.5 -144.5t-228 -55.5t-228.5 55.5t-146.5 144.5t-77.5 203.5t-22.5 235.5zM240 1395q0 12 6 24q29 76 79 112t107 36q43 0 74 -13.5 t58.5 -31t57 -30.5t68.5 -13q35 0 57.5 16t43.5 55q8 16 22 17q16 0 37.5 -8.5t21.5 -22.5q0 -6 -2 -12t-4 -13q-23 -78 -76 -112.5t-110 -34.5q-43 0 -75 13.5t-60.5 30.5t-57 30.5t-65.5 13.5q-35 0 -57.5 -16.5t-42.5 -55.5q-8 -16 -25 -16q-14 0 -35.5 8t-21.5 23z M258 612q0 -92 13.5 -180t47 -157.5t91 -111.5t143.5 -42t142.5 42t90 111.5t48 157.5t14.5 180t-14.5 181.5t-48 159t-90 112.5t-142.5 43t-143.5 -43t-91 -112.5t-47 -158.5t-13.5 -182z" />
<glyph unicode="&#xf6;" horiz-adv-x="1105" d="M78 614q0 119 22.5 235t77.5 205t146.5 144t228.5 55t228 -55t146.5 -144t78 -205t22.5 -235q0 -121 -22.5 -235.5t-78 -203.5t-146.5 -144.5t-228 -55.5t-228.5 55.5t-146.5 144.5t-77.5 203.5t-22.5 235.5zM258 612q0 -92 13.5 -180t47 -157.5t91 -111.5t143.5 -42 t142.5 42t90 111.5t48 157.5t14.5 180t-14.5 181.5t-48 159t-90 112.5t-142.5 43t-143.5 -43t-91 -112.5t-47 -158.5t-13.5 -182zM264 1483q0 59 35 96t76 37q35 0 61.5 -30t26.5 -95q0 -57 -36 -92t-77 -35q-35 0 -60.5 28t-25.5 91zM668 1483q0 59 34.5 96t75.5 37 q35 0 61.5 -30t26.5 -95q0 -57 -35.5 -92t-76.5 -35q-35 0 -60.5 28t-25.5 91z" />
<glyph unicode="&#xf7;" horiz-adv-x="1030" d="M39 549q0 20 7 33.5t27.5 19.5t54.5 8t89 2h733q6 0 10.5 -10t6.5 -23.5t3 -25.5t1 -18q0 -23 -7.5 -35.5t-28 -18.5t-54 -8t-88.5 -2h-734q-6 0 -10 10.5t-6 23.5t-3 25.5t-1 18.5zM408 98q0 59 34.5 96t75.5 37q35 0 61.5 -29.5t26.5 -95.5q0 -57 -35.5 -91.5 t-76.5 -34.5q-35 0 -60.5 27.5t-25.5 90.5zM408 946q0 59 34.5 96t75.5 37q35 0 61.5 -29.5t26.5 -95.5q0 -57 -35.5 -92t-76.5 -35q-35 0 -60.5 28t-25.5 91z" />
<glyph unicode="&#xf8;" horiz-adv-x="1105" d="M78 614q0 119 22.5 235t77.5 205t146.5 144t228.5 55q84 0 156 -24l59 153q10 29 31.5 36t40.5 7q25 0 54.5 -9t29.5 -32q0 -29 -13.5 -64.5t-23.5 -57.5l-43 -109q51 -45 87 -105.5t57.5 -131t30.5 -147.5t9 -155q0 -121 -22.5 -235.5t-78 -203.5t-146.5 -144.5 t-228 -55.5q-88 0 -158 25l-59 -156q-6 -14 -18.5 -22t-27 -13.5t-27.5 -7.5t-21 -2q-29 0 -45.5 6.5t-16.5 32.5q0 25 13.5 64t23.5 63l43 111q-51 45 -86 105.5t-56.5 130t-30.5 147.5t-9 155zM258 612q0 -100 15.5 -193t56.5 -165l323 833q-23 10 -47 15.5t-53 5.5 q-86 0 -143.5 -43t-91 -112.5t-47 -158.5t-13.5 -182zM451 139q45 -18 102 -18q86 0 142.5 42t90 111.5t48 157.5t14.5 180q0 100 -16.5 194.5t-57.5 166.5z" />
<glyph unicode="&#xf9;" horiz-adv-x="1265" d="M141 375v604q0 86 1 140.5t8.5 84t23.5 39.5t45 10q6 0 21.5 -1t32 -4t28.5 -7t12 -12v-823q0 -147 34 -212t120 -65q57 0 138 53.5t155 161t126 270t52 381.5v90q0 104 15.5 136t62.5 32q6 0 21.5 -1t31.5 -4t28.5 -7t12.5 -12v-969q0 -66 4 -135.5t8 -118.5 q0 -10 -14 -16t-32.5 -9.5t-37 -4.5t-26.5 -1q-35 0 -54.5 18.5t-19.5 78.5v387q-23 -84 -65 -169t-103 -156t-144 -115t-188 -44q-86 0 -143 33t-91 88.5t-48.5 128t-14.5 150.5zM350 1636q0 12 15.5 19.5t37 12.5t43 6t33.5 1t23.5 -6t21.5 -22l160 -242q12 -18 12 -25 q0 -4 -10 -7t-22.5 -5t-24.5 -3t-18 -1q-10 0 -18.5 3t-18.5 13l-228 240q-6 8 -6 16z" />
<glyph unicode="&#xfa;" horiz-adv-x="1265" d="M141 375v604q0 86 1 140.5t8.5 84t23.5 39.5t45 10q6 0 21.5 -1t32 -4t28.5 -7t12 -12v-823q0 -147 34 -212t120 -65q57 0 138 53.5t155 161t126 270t52 381.5v90q0 104 15.5 136t62.5 32q6 0 21.5 -1t31.5 -4t28.5 -7t12.5 -12v-969q0 -66 4 -135.5t8 -118.5 q0 -10 -14 -16t-32.5 -9.5t-37 -4.5t-26.5 -1q-35 0 -54.5 18.5t-19.5 78.5v387q-23 -84 -65 -169t-103 -156t-144 -115t-188 -44q-86 0 -143 33t-91 88.5t-48.5 128t-14.5 150.5zM525 1380.5q-3 8.5 7 24.5l160 242q10 16 45 22t69 3t53.5 -16.5t0.5 -35.5l-227 -240 q-10 -10 -18.5 -13t-18.5 -3h-28.5t-28 4t-14.5 12.5z" />
<glyph unicode="&#xfb;" horiz-adv-x="1265" d="M141 375v604q0 86 1 140.5t8.5 84t23.5 39.5t45 10q6 0 21.5 -1t32 -4t28.5 -7t12 -12v-823q0 -147 34 -212t120 -65q57 0 138 53.5t155 161t126 270t52 381.5v90q0 104 15.5 136t62.5 32q6 0 21.5 -1t31.5 -4t28.5 -7t12.5 -12v-969q0 -66 4 -135.5t8 -118.5 q0 -10 -14 -16t-32.5 -9.5t-37 -4.5t-26.5 -1q-35 0 -54.5 18.5t-19.5 78.5v387q-23 -84 -65 -169t-103 -156t-144 -115t-188 -44q-86 0 -143 33t-91 88.5t-48.5 128t-14.5 150.5zM313 1419q0 10 19 27l237 217q27 27 43 27q14 0 43 -27l238 -217q18 -16 18 -27 q0 -10 -22 -22l-39 -23q-20 -10 -27 -10q-10 0 -28 18l-183 166l-182 -166q-18 -18 -29 -18q-6 0 -26 10l-39 23q-23 12 -23 22z" />
<glyph unicode="&#xfc;" horiz-adv-x="1265" d="M141 375v604q0 86 1 140.5t8.5 84t23.5 39.5t45 10q6 0 21.5 -1t32 -4t28.5 -7t12 -12v-823q0 -147 34 -212t120 -65q57 0 138 53.5t155 161t126 270t52 381.5v90q0 104 15.5 136t62.5 32q6 0 21.5 -1t31.5 -4t28.5 -7t12.5 -12v-969q0 -66 4 -135.5t8 -118.5 q0 -10 -14 -16t-32.5 -9.5t-37 -4.5t-26.5 -1q-35 0 -54.5 18.5t-19.5 78.5v387q-23 -84 -65 -169t-103 -156t-144 -115t-188 -44q-86 0 -143 33t-91 88.5t-48.5 128t-14.5 150.5zM324 1483q0 59 34.5 96t75.5 37q35 0 61.5 -30t26.5 -95q0 -57 -35.5 -92t-76.5 -35 q-35 0 -60.5 28t-25.5 91zM727 1483q0 59 35 96t76 37q35 0 61.5 -30t26.5 -95q0 -57 -36 -92t-77 -35q-35 0 -60.5 28t-25.5 91z" />
<glyph unicode="&#xfd;" horiz-adv-x="1253" d="M141 375v604q0 86 1 140.5t8.5 84t23.5 39.5t45 10q6 0 21.5 -1t32 -4t28.5 -7t12 -12v-823q0 -147 34 -212t120 -65q57 0 138 53.5t155 161t126 270t52 381.5v90q0 104 15.5 136t62.5 32q6 0 21.5 -1t31.5 -4t28.5 -7t12.5 -12v-1071q0 -156 -31.5 -282t-98.5 -214 t-169 -136t-244 -48q-59 0 -107 4t-89 13t-79 25.5t-79 41.5q-25 14 -25 43.5t13.5 57.5t37 43t48.5 3q53 -29 122.5 -57.5t145.5 -28.5q125 0 199.5 50.5t115.5 136.5t54.5 198.5t13.5 235.5v215q-23 -84 -65 -169t-103 -156t-144 -115t-188 -44q-86 0 -143 33t-91 88.5 t-48.5 128t-14.5 150.5zM533.5 1380.5q-3.5 8.5 7.5 24.5l159 242q10 16 45 22t69 3t53.5 -16.5t0.5 -35.5l-227 -240q-10 -10 -18.5 -13t-18.5 -3h-28.5t-27.5 4t-14.5 12.5z" />
<glyph unicode="&#xfe;" horiz-adv-x="1185" d="M143 -590v2245q0 16 32 20t52 4q27 0 44.5 -6t27.5 -25.5t13 -55.5t3 -95v-721q29 86 72 171t100.5 153.5t129 110.5t157.5 42q92 0 155.5 -29.5t103.5 -81.5t57.5 -122t17.5 -150q0 -94 -23.5 -197.5t-66.5 -202.5t-103.5 -188t-132 -158t-153.5 -109t-168 -40 q-35 0 -72 5.5t-72 19.5l2 -340q0 -86 -1 -140.5t-8 -84t-23.5 -39.5t-44.5 -10q-6 0 -21.5 1t-32 4t-30 7t-15.5 12zM317 346q6 -119 43 -172t123 -53q80 0 159 71.5t142.5 179t103.5 233.5t40 237q0 129 -53 197.5t-127 68.5q-43 0 -91.5 -39t-94.5 -101.5t-88 -143.5 t-74.5 -166t-54 -166.5t-28.5 -145.5z" />
<glyph unicode="&#xff;" horiz-adv-x="1253" d="M141 375v604q0 86 1 140.5t8.5 84t23.5 39.5t45 10q6 0 21.5 -1t32 -4t28.5 -7t12 -12v-823q0 -147 34 -212t120 -65q57 0 138 53.5t155 161t126 270t52 381.5v90q0 104 15.5 136t62.5 32q6 0 21.5 -1t31.5 -4t28.5 -7t12.5 -12v-1071q0 -156 -31.5 -282t-98.5 -214 t-169 -136t-244 -48q-59 0 -107 4t-89 13t-79 25.5t-79 41.5q-25 14 -25 43.5t13.5 57.5t37 43t48.5 3q53 -29 122.5 -57.5t145.5 -28.5q125 0 199.5 50.5t115.5 136.5t54.5 198.5t13.5 235.5v215q-23 -84 -65 -169t-103 -156t-144 -115t-188 -44q-86 0 -143 33t-91 88.5 t-48.5 128t-14.5 150.5zM332 1483q0 59 34.5 96t75.5 37q35 0 61.5 -30t26.5 -95q0 -57 -35.5 -92t-76.5 -35q-35 0 -60.5 28t-25.5 91zM735 1483q0 59 35 96t76 37q35 0 61.5 -30t26.5 -95q0 -57 -36 -92t-77 -35q-35 0 -60.5 28t-25.5 91z" />
<glyph unicode="&#x152;" horiz-adv-x="1937" d="M86 733q0 147 36 284.5t112.5 244t194.5 171t284 64.5q78 0 145.5 -15.5t126.5 -43.5q92 35 198.5 47t217.5 12q43 0 95 -3t105.5 -11t104.5 -21.5t92 -34.5q16 -8 32.5 -17t16.5 -19q0 -14 -6 -32t-16 -34t-23.5 -27.5t-27.5 -11.5q-8 0 -17.5 2t-19.5 6 q-76 23 -153 40.5t-163 17.5q-33 0 -72.5 -1t-78.5 -5.5t-76 -11.5t-64 -19v-469h590q10 0 19.5 -2t9.5 -13v-4q-8 -41 -13 -66.5t-13.5 -38.5t-21.5 -17.5t-36 -4.5h-535v-542q27 -12 64 -19.5t76 -11.5t79 -5t72 -1q86 0 163 17.5t153 39.5q10 4 19 6t18 2q14 0 27.5 -11 t23.5 -27.5t16 -34t6 -31.5q0 -10 -16 -19.5t-33 -17.5q-41 -20 -92 -33.5t-104.5 -21.5t-105.5 -11.5t-95 -3.5q-100 0 -210 9.5t-206 50.5q-59 -29 -126.5 -44.5t-145.5 -15.5q-166 0 -285 65.5t-194.5 172t-111.5 243t-36 277.5zM279 733q0 -115 22.5 -225.5t74.5 -196.5 t134 -138t203 -52q143 0 237 76v1077q-47 37 -106 57.5t-131 20.5q-121 0 -203 -53.5t-134 -140.5t-74.5 -197.5t-22.5 -227.5z" />
<glyph unicode="&#x153;" horiz-adv-x="1837" d="M78 614q0 119 22.5 235t77.5 205t146.5 144t228.5 55q150 0 245 -65.5t148 -169.5q59 102 154.5 168.5t232.5 66.5q78 0 152 -21.5t131 -61.5t92 -98t35 -134q0 -102 -44 -174t-115 -117t-161 -66.5t-182 -21.5q-49 0 -111.5 7t-97.5 20v-13q2 -86 18.5 -167.5t52.5 -144 t92 -101.5t136 -39q59 0 101.5 11t75 25.5t57 26t49.5 11.5q27 0 45 -31l17.5 -35t11.5 -43q0 -23 -37 -43t-91.5 -35.5t-116 -24t-112.5 -8.5q-147 0 -241.5 61.5t-149.5 162.5q-53 -100 -147.5 -162t-239.5 -62q-137 0 -228.5 55.5t-146.5 144.5t-77.5 204t-22.5 235z M258 612q0 -92 13.5 -180t47 -157.5t91 -111.5t143.5 -42t142.5 42t90 111.5t48 157.5t14.5 180t-14.5 181.5t-48 159t-90 112.5t-142.5 43t-143.5 -43t-91 -112.5t-47 -158.5t-13.5 -182zM1040 733q53 -12 102.5 -19t92.5 -7q166 0 246 63.5t80 165.5q0 35 -18.5 66.5 t-49.5 55t-71 37t-85 13.5q-74 0 -125 -27.5t-84.5 -77t-54.5 -119t-33 -151.5z" />
<glyph unicode="&#x178;" d="M16.5 1455q-0.5 15 7 24.5t19.5 13.5t27 4q39 0 69.5 -7t46.5 -36q35 -66 79 -148.5t91 -167.5t95.5 -165t93.5 -139q45 59 93 139t95 165t91 168t79 148q12 29 47 36t70 7q14 0 26.5 -4t19.5 -13.5t7 -24.5t-10 -38q-82 -174 -180.5 -346t-216.5 -364q-10 -16 -20.5 -44 t-10.5 -51v-362q0 -86 -2 -140.5t-11.5 -84t-26.5 -40t-46 -10.5q-6 0 -21.5 1t-32 4.5t-28.5 7.5t-12 12v612q0 18 -9.5 48t-21.5 47q-109 174 -208 349t-189 361q-10 23 -10.5 38zM256 1716q0 59 35 96t76 37q35 0 61.5 -29.5t26.5 -95.5q0 -57 -36 -92t-77 -35 q-35 0 -60.5 28t-25.5 91zM659 1716q0 59 35 96t76 37q35 0 61.5 -29.5t26.5 -95.5q0 -57 -36 -92t-77 -35q-35 0 -60.5 28t-25.5 91z" />
<glyph unicode="&#x2c6;" horiz-adv-x="454" d="M-72 1419q0 10 19 27l237 217q27 27 43 27q14 0 43 -27l238 -217q18 -16 18 -27q0 -10 -22 -22l-39 -23q-20 -10 -27 -10q-10 0 -28 18l-183 166l-182 -166q-18 -18 -29 -18q-6 0 -26 10l-39 23q-23 12 -23 22z" />
<glyph unicode="&#x2dc;" horiz-adv-x="448" d="M-92 1395q0 12 6 24q29 76 79 112t107 36q43 0 74 -13.5t58.5 -31t57 -30.5t68.5 -13q35 0 57.5 16t43.5 55q8 16 22 17q16 0 38 -8.5t22 -22.5q0 -6 -2 -12t-4 -13q-23 -78 -76.5 -112.5t-110.5 -34.5q-43 0 -74.5 13.5t-60.5 30.5t-57.5 30.5t-65.5 13.5 q-35 0 -57.5 -16.5t-42.5 -55.5q-8 -16 -25 -16q-14 0 -35.5 8t-21.5 23z" />
<glyph unicode="&#x2000;" horiz-adv-x="986" />
<glyph unicode="&#x2001;" horiz-adv-x="1972" />
<glyph unicode="&#x2002;" horiz-adv-x="986" />
<glyph unicode="&#x2003;" horiz-adv-x="1972" />
<glyph unicode="&#x2004;" horiz-adv-x="657" />
<glyph unicode="&#x2005;" horiz-adv-x="493" />
<glyph unicode="&#x2006;" horiz-adv-x="328" />
<glyph unicode="&#x2007;" horiz-adv-x="328" />
<glyph unicode="&#x2008;" horiz-adv-x="246" />
<glyph unicode="&#x2009;" horiz-adv-x="394" />
<glyph unicode="&#x200a;" horiz-adv-x="109" />
<glyph unicode="&#x2010;" horiz-adv-x="706" d="M90 608q0 20 7 33.5t27.5 20t54.5 8.5t89 2h328q6 0 10 -10.5t6 -23.5t3 -25.5t1 -18.5q0 -23 -7 -35t-27.5 -18t-54 -8.5t-89.5 -2.5h-327q-6 0 -10.5 10.5t-6.5 24t-3 25.5t-1 18z" />
<glyph unicode="&#x2011;" horiz-adv-x="706" d="M90 608q0 20 7 33.5t27.5 20t54.5 8.5t89 2h328q6 0 10 -10.5t6 -23.5t3 -25.5t1 -18.5q0 -23 -7 -35t-27.5 -18t-54 -8.5t-89.5 -2.5h-327q-6 0 -10.5 10.5t-6.5 24t-3 25.5t-1 18z" />
<glyph unicode="&#x2012;" horiz-adv-x="706" d="M90 608q0 20 7 33.5t27.5 20t54.5 8.5t89 2h328q6 0 10 -10.5t6 -23.5t3 -25.5t1 -18.5q0 -23 -7 -35t-27.5 -18t-54 -8.5t-89.5 -2.5h-327q-6 0 -10.5 10.5t-6.5 24t-3 25.5t-1 18z" />
<glyph unicode="&#x2013;" horiz-adv-x="931" d="M0 608q0 20 7 33.5t27.5 20t54.5 8.5t89 2h733q6 0 10.5 -10.5t6.5 -23.5t3 -25.5t1 -18.5q0 -23 -7 -35t-27.5 -18t-54.5 -8.5t-89 -2.5h-734q-6 0 -10 10.5t-6 24t-3 25.5t-1 18z" />
<glyph unicode="&#x2014;" horiz-adv-x="1755" d="M0 608q0 20 7 33.5t27.5 20t54.5 8.5t89 2h1557q6 0 10 -10.5t6 -23.5t3 -25.5t1 -18.5q0 -23 -7 -35t-27.5 -18t-54.5 -8.5t-89 -2.5h-1557q-6 0 -10 10.5t-6 24t-3 25.5t-1 18z" />
<glyph unicode="&#x2018;" horiz-adv-x="440" d="M121 1376q0 33 15.5 80t41 88t57 71t64.5 30q8 0 14 -6.5t2 -16.5q-12 -37 -16 -61.5t-4 -42.5q0 -20 4 -35t8 -28t8 -30.5t4 -44.5q0 -45 -29.5 -87t-80.5 -42q-35 0 -61.5 30t-26.5 95z" />
<glyph unicode="&#x2019;" horiz-adv-x="440" d="M121 1518q0 45 29.5 87t80.5 42q35 0 61.5 -30t26.5 -95q0 -35 -15 -81t-40.5 -87t-57.5 -71t-65 -30q-8 0 -14 6.5t-2 16.5q12 37 16 61.5t4 42.5q0 20 -4 35t-8 28t-8 30.5t-4 44.5z" />
<glyph unicode="&#x201a;" horiz-adv-x="440" d="M121 102q0 45 29.5 87t80.5 42q35 0 61.5 -29.5t26.5 -95.5q0 -35 -15 -80.5t-40.5 -86.5t-57.5 -71t-65 -30q-8 0 -14 6t-2 17q12 37 16 61.5t4 42.5q0 20 -4 34.5t-8 28t-8 30.5t-4 44z" />
<glyph unicode="&#x201c;" horiz-adv-x="702" d="M102 1378q0 33 15.5 80t41 88t57.5 71t65 30q8 0 14 -6.5t2 -16.5q-12 -37 -16.5 -61.5t-4.5 -42.5q0 -20 4.5 -35t8.5 -28t8 -30.5t4 -44.5q0 -45 -29.5 -87t-81.5 -42q-35 0 -61.5 30t-26.5 95zM401 1378q0 33 15.5 80t41 88t57.5 71t65 30q8 0 14 -6.5t2 -16.5 q-12 -37 -16.5 -61.5t-4.5 -42.5q0 -20 4.5 -35t8.5 -28t8 -30.5t4 -44.5q0 -45 -29.5 -87t-81.5 -42q-35 0 -61.5 30t-26.5 95z" />
<glyph unicode="&#x201d;" horiz-adv-x="702" d="M102 1382q0 27 4.5 44.5t8.5 30.5t8 27.5t4 35.5q0 18 -4 42.5t-17 61.5q-4 10 2.5 16.5t14.5 6.5q33 0 64.5 -30t57 -71t41 -88t15.5 -80q0 -66 -26.5 -95.5t-61.5 -29.5q-51 0 -81 42t-30 87zM401 1382q0 27 4.5 44.5t8.5 30.5t8 27.5t4 35.5q0 18 -4 42.5t-16 61.5 q-4 10 2 16.5t14 6.5q33 0 64.5 -30t57 -71t41 -88t15.5 -80q0 -66 -26.5 -95.5t-61.5 -29.5q-51 0 -81 42t-30 87z" />
<glyph unicode="&#x201e;" horiz-adv-x="702" d="M102 102q0 45 30 87t81 42q35 0 61.5 -29.5t26.5 -95.5q0 -35 -15.5 -80.5t-41 -86.5t-57 -71t-64.5 -30q-8 0 -14.5 6t-2.5 17q12 37 16.5 61.5t4.5 42.5q0 20 -4 34.5t-8 28t-8.5 30.5t-4.5 44zM401 102q0 45 30 87t81 42q35 0 61.5 -29.5t26.5 -95.5 q0 -35 -15.5 -80.5t-41 -86.5t-57 -71t-64.5 -30q-8 0 -14.5 6t-1.5 17q12 37 16 61.5t4 42.5q0 20 -4 34.5t-8 28t-8.5 30.5t-4.5 44z" />
<glyph unicode="&#x2022;" horiz-adv-x="888" d="M147 711q0 88 29 161.5t76 126t106.5 81t118.5 28.5q51 0 98.5 -21.5t84 -66.5t59 -115.5t22.5 -169.5q0 -86 -30.5 -155.5t-78.5 -119.5t-108.5 -78t-120.5 -28q-51 0 -97 20.5t-82 63.5t-56.5 111t-20.5 162z" />
<glyph unicode="&#x2026;" horiz-adv-x="2353" d="M242 98q0 59 34.5 96t75.5 37q35 0 61.5 -29.5t26.5 -95.5q0 -57 -35.5 -91.5t-76.5 -34.5q-35 0 -60.5 27.5t-25.5 90.5zM1077 98q0 59 35 96t76 37q35 0 61.5 -29.5t26.5 -95.5q0 -57 -36 -91.5t-77 -34.5q-35 0 -60.5 27.5t-25.5 90.5zM1913 98q0 59 34.5 96t75.5 37 q35 0 61.5 -29.5t26.5 -95.5q0 -57 -35.5 -91.5t-76.5 -34.5q-35 0 -60.5 27.5t-25.5 90.5z" />
<glyph unicode="&#x202f;" horiz-adv-x="394" />
<glyph unicode="&#x2039;" horiz-adv-x="536" d="M70 592l313 387q14 16 22.5 11t47.5 -46q10 -10 13 -17t-7 -20l-240 -315l240 -316q10 -12 7 -19t-13 -17q-39 -41 -47.5 -46.5t-22.5 11.5z" />
<glyph unicode="&#x203a;" horiz-adv-x="536" d="M71 257q-3 7 7 19l239 316l-239 315q-10 12 -7 19.5t13 17.5q39 41 47 46t23 -11l313 -387l-313 -387q-14 -16 -22.5 -11t-47.5 46q-10 10 -13 17z" />
<glyph unicode="&#x205f;" horiz-adv-x="493" />
<glyph unicode="&#x20ac;" horiz-adv-x="1277" d="M-49 551q0 20 7 33.5t27.5 19.5t54.5 8t89 2h14q-6 57 -6 121h-166q-6 0 -10 10.5t-6 23.5t-3 25.5t-1 18.5q0 20 7 33.5t27.5 19.5t54.5 8.5t89 2.5h16q14 119 54.5 231.5t113 198.5t180 138t255.5 52q115 0 213 -21.5t200 -93.5q12 -10 13 -24q0 -14 -7.5 -31.5 t-18.5 -33t-25.5 -27t-28.5 -11.5q-16 0 -39 11.5t-45 21.5q-59 29 -125 46.5t-140 17.5q-98 0 -169.5 -40t-120.5 -106.5t-78 -151.5t-39 -177h446q6 0 10.5 -10.5t6.5 -24t3 -25.5t1 -18q0 -23 -7 -35t-27.5 -18.5t-54.5 -8.5t-89 -2h-297q0 -63 6 -121h448q6 0 10.5 -10 t6.5 -23.5t3 -25.5t1 -18q0 -23 -7 -35.5t-27.5 -18.5t-54.5 -8t-89 -2h-267q18 -74 51 -137.5t80.5 -111.5t110 -75.5t143.5 -27.5q74 0 139.5 17.5t125.5 45.5q23 10 45 21.5t39 11.5q14 0 28.5 -11t25.5 -26.5t18.5 -33t7.5 -31.5q0 -16 -13 -25q-102 -72 -200.5 -93.5 t-212.5 -21.5q-129 0 -226.5 40t-168 107.5t-117 158t-70.5 192.5h-195q-6 0 -10 10.5t-6 23.5t-3 25.5t-1 18.5z" />
<glyph unicode="&#x2122;" horiz-adv-x="1736" d="M4 1407q0 27 6 41t23.5 20.5t48.5 7.5t78 1h448q14 0 23.5 -10.5t13.5 -23.5t6 -26.5t2 -19.5q0 -25 -5 -38t-18.5 -19.5t-37 -7.5t-60.5 -1h-124v-573q0 -59 -2.5 -95t-10.5 -55.5t-23 -27t-42 -7.5q-4 0 -17.5 1t-28 5.5t-25.5 12.5t-11 24v715h-199q-12 0 -21.5 9.5 t-14.5 22.5t-7 25.5t-2 18.5zM641 647q23 184 72 388t135 407q10 18 25.5 30.5t29.5 12.5q16 0 32.5 -10.5t27.5 -32.5q51 -113 95 -237t79 -249q35 121 81 250t93 236q20 43 57 43q12 0 29.5 -12.5t27.5 -30.5q86 -205 135.5 -410t71.5 -385q0 -74 -57 -74 q-33 0 -60.5 10.5t-35.5 61.5q-23 154 -53.5 294t-59.5 237q-23 -59 -47.5 -130t-47 -144t-42 -144.5t-29.5 -132.5q-4 -27 -22.5 -39.5t-40.5 -12.5q-18 0 -37 14.5t-25 37.5q-31 113 -55.5 197.5t-45 150t-36.5 115t-31 90.5q-29 -98 -57.5 -234.5t-54.5 -300.5 q-4 -27 -13.5 -41t-21.5 -20.5t-27.5 -7.5t-32.5 -1q-59 0 -59 74z" />
<glyph unicode="&#x25fc;" horiz-adv-x="1249" d="M0 0v1249h1249v-1249h-1249z" />
</font>
</defs>
</svg>
